<?xml version="1.0" encoding="UTF-8" standalone="no"?>
<svg
   xmlns:dc="http://purl.org/dc/elements/1.1/"
   xmlns:cc="http://creativecommons.org/ns#"
   xmlns:rdf="http://www.w3.org/1999/02/22-rdf-syntax-ns#"
   xmlns:svg="http://www.w3.org/2000/svg"
   xmlns="http://www.w3.org/2000/svg"
   xmlns:sodipodi="http://sodipodi.sourceforge.net/DTD/sodipodi-0.dtd"
   xmlns:inkscape="http://www.inkscape.org/namespaces/inkscape"
   width="966"
   height="701"
   viewBox="0 0 772.8 560.8"
   version="1.1"
   id="svg2"
   inkscape:version="0.91 r13725"
   sodipodi:docname="ask.svg">
  <metadata
     id="metadata264">
    <rdf:RDF>
      <cc:Work
         rdf:about="">
        <dc:format>image/svg+xml</dc:format>
        <dc:type
           rdf:resource="http://purl.org/dc/dcmitype/StillImage" />
        <dc:title></dc:title>
      </cc:Work>
    </rdf:RDF>
  </metadata>
  <defs
     id="defs262" />
  <sodipodi:namedview
     pagecolor="#ffffff"
     bordercolor="#666666"
     borderopacity="1"
     objecttolerance="10"
     gridtolerance="10"
     guidetolerance="10"
     inkscape:pageopacity="0"
     inkscape:pageshadow="2"
     inkscape:window-width="1920"
     inkscape:window-height="1021"
     id="namedview260"
     showgrid="false"
     units="px"
     inkscape:zoom="0.25422993"
     inkscape:cx="96.369454"
     inkscape:cy="136.57423"
     inkscape:window-x="0"
     inkscape:window-y="0"
     inkscape:window-maximized="1"
     inkscape:current-layer="svg2" />
  <g
     id="g3592"
     transform="translate(-117.31946,-94.668769)">
    <g
       id="#020202ff">
      <path
         id="path5"
         d="m 204.21,105.77 c 4.03,-4.24 8.45,-8.31 13.73,-10.92 8.13,0.42 14.47,8.24 14.79,16.12 0.66,11.24 -7.12,21.61 -17.14,26.05 -0.07,3.41 -0.09,6.81 -0.1,10.22 6.15,0.02 12.31,-0.2 18.45,0.06 1.98,-0.21 3.1,1.93 3.11,3.64 0.15,3.48 -0.23,6.96 -0.39,10.43 8.27,3.44 16.29,7.93 22.53,14.46 3.09,3.29 7.2,5.39 10.22,8.74 8.93,9.81 14.76,22.98 13.86,36.42 -0.71,11.94 -6.49,23.15 -14.61,31.75 -4.49,4.76 -10.85,6.88 -15.8,11.02 -5.12,3.92 -10.83,7.04 -16.9,9.2 1.72,3.55 1.67,7.54 0.24,11.19 8.27,0.2 16.55,-0.08 24.82,0.15 16.43,0.96 31.4,12.76 36.47,28.38 4.68,0.09 9.36,0.08 14.04,0.08 0.72,-1.66 1.33,-3.41 2.43,-4.86 3.65,-0.98 7.51,-0.32 11.24,-0.47 2.18,-4.6 3.62,-9.57 6.23,-13.95 4.19,-1.8 9.12,-0.39 13.61,-0.84 2.87,0.33 6.65,-1.02 8.71,1.63 0.37,4.79 -2.95,8.9 -3.93,13.47 3.05,0.03 6.11,-0.18 9.14,0.19 2.45,0.63 1.73,3.3 1.87,5.18 6.04,0.17 12.1,-0.32 18.11,0.26 2.88,2 4.4,5.5 6.32,8.38 1.08,1.32 0.19,2.91 -0.19,4.31 -7.5,20.99 -15.34,41.86 -22.67,62.91 4.33,5.56 8.6,11.19 12.71,16.93 2.18,2.84 -1,5.54 -2.62,7.68 -2.02,2.06 -3.32,5.62 -6.62,5.76 -5.1,0.39 -10.14,1.27 -15.23,1.67 -3.31,9.22 -6.59,18.46 -10.07,27.62 -0.53,2.1 -2.79,2.1 -4.54,2.09 -17.92,0.03 -35.84,-0.09 -53.75,0.05 -0.11,4.4 0.03,8.81 -0.09,13.21 -0.06,3.12 -2.9,4.9 -5.32,6.26 0.38,4.01 -1.87,7.48 -5.5,9.07 -0.03,1.08 -0.04,2.17 -0.06,3.27 3.37,0.23 7.18,-0.88 10.22,0.94 1.1,1.94 0.65,4.29 0.79,6.43 -0.11,5.69 0.25,11.41 -0.3,17.08 -1.56,9.24 -11.03,15.61 -20.17,14.83 3.04,4.88 4.4,10.5 6.24,15.88 64.24,0.06 128.47,0 192.71,0.03 0.01,-3.35 0,-6.7 -0.02,-10.05 -21.26,-0.05 -42.52,-0.02 -63.77,-0.01 -1.89,-0.13 -4.24,0.24 -5.43,-1.61 0.39,-25.7 0,-51.39 0.17,-77.09 -0.67,-4.12 0.6,-8.3 -0.5,-12.36 1.03,-1.05 2.1,-2.29 3.75,-2.05 11.32,-0.11 22.65,-0.02 33.97,-0.01 1.16,-0.18 3.59,0.52 3.29,-1.52 0.42,-8.29 2.58,-18.28 11.07,-21.89 -0.04,-17.75 0.06,-35.5 -0.04,-53.25 -2.2,-0.13 -4.4,-0.27 -6.59,-0.47 -1.8,-7.02 -0.74,-14.4 -0.84,-21.56 0.23,-3.9 4.58,-3.46 7.41,-3.53 -0.05,-13.8 -0.03,-27.59 -0.02,-41.38 -0.06,-6.91 2.25,-13.83 6.64,-19.19 5.6,-7.14 14.55,-11.21 23.55,-11.41 0.43,-1.52 0.32,-3.36 1.57,-4.51 2.26,-1.2 4.54,0.55 6.74,1.04 -0.01,-1.13 -0.03,-3.38 -0.04,-4.5 -3.95,-0.28 -8.26,-1.03 -10.83,-4.36 -2.8,-2.45 -2.68,-7.13 -6.23,-8.77 -7.98,-4.35 -13.24,-13.28 -13.14,-22.37 -0.01,-8.52 0,-17.04 0.02,-25.56 -4.21,-1.66 -8.62,-3.86 -10.76,-8.09 -3.22,-5.2 -2.27,-11.52 -2.27,-17.32 -0.36,-2.15 1.88,-3.09 3.65,-3.2 3.11,-0.17 6.23,-0.02 9.35,-0.04 -0.05,-4.76 -0.26,-9.74 1.9,-14.13 1.47,-3.89 4.62,-6.68 7.45,-9.58 -2.15,-2.22 -4.75,-4.17 -5.92,-7.14 -4.24,-8.87 1.08,-20.34 10.07,-23.77 3.45,-1.47 7.26,-1.59 10.96,-1.5 12.69,0.05 25.39,0.01 38.08,0.01 6.33,-0.04 12.48,2.06 17.93,5.2 5.12,-4.7 12.38,-5.46 19.03,-5.21 6.99,0.02 14.02,3.69 17.51,9.84 2.18,3.43 2.98,7.52 2.97,11.53 -0.03,27.67 0,55.33 -0.02,83 0.16,5.61 -2.79,11.12 -7.57,14.07 -3.73,2.59 -8.46,2.49 -12.8,2.69 -3.05,6.95 -9.44,11.9 -16.56,14.19 -0.05,2.04 -0.09,4.09 -0.11,6.14 1.92,-0.84 3.84,-1.7 5.73,-2.61 0.98,0.54 1.95,1.11 2.92,1.71 0.86,4.36 0.21,8.87 0.45,13.29 5.15,0.01 10.3,-0.08 15.45,0 10.33,0.26 20.27,6.18 25.45,15.11 2.64,4.68 4,10.05 4,15.41 -0.01,13.78 -0.01,27.55 -0.01,41.33 2.17,0.16 5.08,0.82 4.77,3.64 -0.16,7.14 0.79,14.43 -0.69,21.47 -1.29,0.18 -2.57,0.37 -3.84,0.56 -0.18,15.02 0.09,30.05 -0.13,45.07 0.29,3.11 -2.19,5.17 -3.94,7.34 -0.6,7.2 0.33,14.48 -0.41,21.67 -1.15,4.8 -7.02,6.39 -11.19,4.63 -2.62,0.95 -5.37,1.04 -8.07,0.48 0.03,33.54 -0.07,67.08 0.05,100.63 29.29,-0.03 58.58,-0.01 87.87,-0.01 0,-3.74 0.01,-7.48 0.04,-11.22 -4.93,-0.14 -9.86,0.06 -14.78,-0.08 -2.31,0.2 -3.53,-2.42 -3.3,-4.4 -0.13,-27.93 0.2,-55.86 -0.16,-83.79 -2.6,0.02 -5.12,0.78 -7.69,0.89 -3.08,-0.31 -4.82,-3.53 -7.87,-3.81 -4.26,-0.18 -7.63,-4.18 -7.46,-8.35 -0.1,-5.51 0.02,-11.01 -0.01,-16.51 -6.84,-1.54 -11.92,-8.68 -9.89,-15.65 2.19,-11.27 4.32,-22.55 6.46,-33.83 0.52,-3.55 3.63,-6.28 3.44,-9.98 -0.07,-20.02 0.01,-40.05 -0.03,-60.08 -0.17,-10.34 4.98,-20.94 13.93,-26.37 2.97,-1.7 5.91,-4.04 9.48,-4.09 7.48,-0.26 14.96,-0.16 22.44,-0.15 0.01,-6.89 -0.01,-13.78 0.02,-20.67 -20.33,-4.82 -35.86,-23.9 -36.84,-44.69 -0.6,-15.28 1.26,-32.34 12.63,-43.7 -3.73,-0.22 -7.52,0.32 -11.18,-0.42 -2.38,-0.39 -1.73,-3.13 -1.9,-4.86 0.23,-9.3 2.42,-19.71 9.92,-25.95 4.15,-3.51 9.83,-3.55 14.97,-3.41 13.32,0.07 26.65,-0.05 39.97,0.05 5.89,0.02 11.37,2.62 15.98,6.13 3.4,-1.86 7,-3.72 10.98,-3.69 8.33,-0.69 16.33,4.43 20.33,11.56 2.71,4.59 4.05,9.93 4.05,15.25 -0.02,19.33 0,38.67 -0.01,58 0.05,8.96 -0.19,17.94 0.62,26.86 0.65,4.66 0.88,9.66 3.46,13.75 0.87,1.71 2.74,3.34 1.81,5.44 -0.85,2.15 -3.45,1.47 -5.24,1.68 -14.24,-0.07 -28.49,0.01 -42.73,-0.05 -0.06,2.9 -0.07,5.8 -0.04,8.71 8.23,0.05 16.46,0.02 24.69,0.16 9.62,0.02 18.74,5.81 23.39,14.14 2.9,4.92 4.25,10.63 4.24,16.32 -0.01,14.68 0.02,29.36 -0.01,44.04 0.26,1.82 -1.23,3.03 -2.26,4.29 -0.08,29.22 0.04,58.45 0.07,87.68 -0.02,3.38 0.55,7.52 -2.44,9.91 -2.97,2.93 -7.41,1.61 -11.08,1.4 -0.05,27.92 0,55.85 -0.02,83.77 0.17,1.77 -0.4,3.7 -2.26,4.3 -3.92,0.39 -7.87,0.05 -11.79,0.15 -0.04,3.76 -0.02,7.52 0.04,11.28 23.07,0.01 46.15,-0.09 69.22,0.05 2.03,-0.29 2.67,1.91 3.66,3.17 -1.61,3.44 -5.52,2.52 -8.6,2.62 -21.44,-0.05 -42.88,-0.02 -64.32,-0.02 -0.02,3.83 -0.02,7.66 0.01,11.5 39.43,0.03 78.86,-0.04 118.28,0.05 2.02,-0.43 2.83,1.58 3.85,2.88 -1.05,1.19 -1.96,3 -3.85,2.65 -39.42,0.09 -78.85,0.01 -118.27,0.04 0,10.88 -0.15,21.76 0.08,32.64 1.86,0.53 4.33,1.13 4.14,3.62 0.33,8.25 0.01,16.53 0.13,24.79 18.94,0 37.88,0 56.82,0 1.5,0.08 4.31,0.02 4.37,2.12 0.88,2.67 -2.07,4.09 -4.27,3.7 -139.68,0.13 -279.35,0.32 -419.02,0.12 -2.4,-0.09 -5.95,0.47 -6.57,-2.69 0.23,-2.37 2.41,-3.44 4.59,-3.17 29.45,-0.15 58.91,0.13 88.36,-0.16 -1.08,-12.94 5.73,-25.66 16.32,-32.91 -0.49,-1.9 -0.99,-3.82 -0.95,-5.79 -0.04,-7.41 0.07,-14.81 -0.01,-22.21 -61.65,-0.13 -123.3,-0.06 -184.95,-0.04 1.26,6.2 3.68,12.06 5.5,18.11 5.53,17.75 11.62,35.35 16.98,53.15 0.91,4.08 -5.88,4.85 -6.28,0.75 -1.2,-3.51 -2.24,-7.07 -3.32,-10.61 -9.5,-0.65 -19.03,0.11 -28.52,-0.4 -2.37,-0.13 -2.52,-2.94 -2.47,-4.73 0.02,-17.34 0.04,-34.67 0,-52 0.07,-1.87 -0.17,-4.78 2.29,-5.15 2.81,-0.42 5.66,-0.2 8.5,-0.24 -3.17,-9.54 -6.27,-19.1 -9.27,-28.7 -1.05,-3.8 -3.95,-7.08 -7.71,-8.34 -3.33,-0.91 -6.84,-0.36 -10.04,0.74 -0.14,9.36 0.77,19.18 -3.4,27.89 -1.94,4.59 -5.31,8.61 -9.87,10.77 -2.52,0.82 -2.88,3.61 -3.68,5.79 -2.84,9.13 -6.03,18.16 -8.88,27.29 -0.73,1.8 0.15,3.63 0.65,5.36 2.69,7.96 5.25,15.96 7.92,23.93 3.09,9.28 5.89,18.67 9.21,27.88 -0.97,2.03 -3.18,4.13 -5.48,2.44 -0.64,-1.22 -1.21,-2.47 -1.72,-3.74 -2.43,-7.47 -4.89,-14.93 -7.36,-22.38 -9.93,-0.05 -19.86,0.09 -29.79,-0.04 -2,0.1 -4.01,-1.32 -3.58,-3.49 -0.1,-20.01 0.02,-40.03 -0.05,-60.04 0.21,-1.67 -0.46,-4.21 1.65,-4.84 2.98,-0.97 6.23,-0.37 9.33,-0.53 -3.43,-9.78 -6.39,-19.72 -9.75,-29.53 -1.97,-5.93 -9.25,-10.18 -15.22,-7.5 -3.43,1.27 -5.95,4.36 -6.92,7.85 -11.19,35.51 -22.4,71.01 -33.59,106.52 -0.51,1.24 -0.97,2.5 -1.4,3.78 -2.17,0.48 -5.31,0.21 -5.33,-2.66 0.73,-4.1 2.3,-7.99 3.46,-11.97 7.96,-24.96 15.8,-49.96 23.68,-74.95 0.73,-2.37 1.74,-4.7 1.98,-7.19 -1.07,-3.37 -2.66,-6.57 -3.35,-10.05 -0.96,-3.92 -0.59,-7.98 -0.89,-11.96 -8.21,-0.92 -16.44,-7.19 -16.53,-16.01 0.08,-7.27 -0.54,-14.63 0.32,-21.85 2.66,-2.85 7.14,-1.08 10.58,-1.53 -0.06,-0.85 -0.17,-2.56 -0.23,-3.41 -3.56,-1.39 -5.54,-4.75 -5.14,-8.55 -2.29,-1.69 -5.43,-3.38 -5.49,-6.63 -0.19,-30 -0.05,-60 -0.08,-90 0.29,-2.39 -1.58,-4.12 -2.61,-6.04 -1.5,-2.24 -2.16,-4.87 -2.8,-7.44 -3.18,-0.42 -9.36,1.42 -9.39,-3.5 -0.08,-10.64 -0.1,-21.28 -0.02,-31.92 0.08,-13.17 7.01,-26.09 17.9,-33.47 6.8,-4.73 15.08,-7.48 23.39,-7.38 9.32,-0.04 18.63,0.05 27.95,-0.04 -0.81,-3.8 -1.16,-7.86 0.8,-11.38 -7.76,-2.73 -14.86,-7.17 -20.97,-12.66 -2.66,-2.44 -6.28,-3.54 -8.73,-6.24 -2.87,-3.11 -6.77,-5.35 -8.7,-9.24 -2.45,-4.62 -3.51,-9.8 -4.55,-14.87 -1.52,-11.62 -1.05,-23.76 3.16,-34.8 1.29,-3.1 2.91,-6.26 5.7,-8.26 3.18,-2.47 5.84,-5.52 8.67,-8.38 6.65,-7.34 15.1,-12.93 24.28,-16.59 0.06,-4.77 -0.84,-9.74 0.87,-14.33 6.92,-0.43 13.85,-0.16 20.78,-0.21 0,-2.64 0.01,-5.28 0.05,-7.91 -6.14,-0.23 -12.93,-1.53 -16.86,-6.75 -1.97,-2.03 -1.11,-5.01 -0.35,-7.37 1.92,-5.31 5.38,-9.86 8.73,-14.34 -2.42,-2.28 -7.44,-3.7 -6.63,-7.83 0.22,-1.73 2.08,-3.01 3.78,-2.36 2.61,1.4 4.87,3.35 7.23,5.11 m 4.85,4.1 c 0.93,0.37 2.28,1.68 3.06,0.33 1.78,-2.12 2.98,-4.63 4.06,-7.16 -2.57,2.06 -4.93,4.37 -7.12,6.83 m 13.91,-6.54 c -4.95,11.39 -13.42,20.96 -23.08,28.63 12.65,4.15 26.87,-6.91 26.81,-19.95 0.2,-3.34 -1.65,-6.25 -3.73,-8.68 m 244.87,10.48 c -6.31,2.1 -9.9,10.14 -6.76,16.1 1.55,2.41 4.03,4.62 7.04,4.74 19.95,0.09 39.91,0.11 59.87,0.15 9.89,0.14 18.9,6.36 23.31,15.08 0.52,1.73 1.04,3.45 1.48,5.2 l 0.52,0.77 c 0.2,3.06 0.27,6.13 0.35,9.2 3.33,2.41 5.32,6.04 6.68,9.83 0.32,5.99 0.29,12 0.12,18 -0.31,4.74 -3.47,8.4 -6.75,11.5 -0.34,5.66 0.04,11.34 -0.29,17.01 3.14,-0.26 6.64,-0.58 8.8,-3.18 3.86,-3.65 2.75,-9.44 2.66,-14.18 0.11,-24.68 -0.08,-49.36 0.01,-74.05 0.08,-3.63 0.15,-7.52 -2.07,-10.62 -2.81,-4.92 -8.76,-6.7 -14.11,-6.23 -4.06,0 -8.2,0.4 -11.69,2.66 1.66,2.01 3.23,4.1 4.9,6.12 l -0.05,0.07 c 0.97,1.59 0.73,3.46 0.63,5.23 -1.58,0.71 -3.25,0.98 -4.88,0.32 -4.04,-7.67 -11.8,-13.58 -20.58,-14.27 -5,-0.95 -10.04,0.32 -15.05,-0.39 -5.66,0.27 -11.31,-0.09 -16.98,-0.08 -5.71,0.39 -11.58,-0.63 -17.16,1.02 M 197.36,126 c 3.46,-2.85 7.3,-5.64 9.47,-9.65 -0.46,-0.36 -1.38,-1.08 -1.84,-1.45 -3.44,2.88 -5.49,7.2 -7.63,11.1 m 433.47,2.78 c -2.82,4.77 -3.67,10.38 -4.48,15.78 19.53,0.16 39.06,-0.3 58.59,-0.05 8.21,0.14 16.48,4.72 20.01,12.3 2.9,5.49 1.9,11.87 2.49,17.79 5.18,5.79 5.68,14.33 3.77,21.55 -0.75,3.68 -4.72,5.9 -4.46,9.88 -0.33,9.95 -5.23,19.27 -12.44,25.98 -0.28,4.45 -0.08,8.91 -0.02,13.37 13.06,-0.08 26.12,-0.02 39.18,-0.03 -3.57,-9.74 -2.88,-20.21 -3.63,-30.37 -0.09,-23.68 0.03,-47.37 -0.06,-71.05 -0.11,-9.06 -7.28,-18.51 -16.82,-18.58 -4.83,-0.22 -8.35,3.62 -12.72,4.9 -4.27,-2.63 -8.03,-6.76 -13.41,-7.01 -15.61,-0.2 -31.23,-0.04 -46.85,-0.09 -3.89,-0.28 -7.32,2.4 -9.15,5.63 M 460.6,148.75 c -2.53,4.12 -2.66,9.14 -2.98,13.82 22.12,0.37 44.26,-0.06 66.39,0.24 7.82,-0.14 15.68,0.37 23.48,-0.51 -0.48,-3.28 -0.74,-6.69 -2.19,-9.72 -2.05,-4.34 -5.77,-7.7 -10,-9.88 -5.23,-1.86 -10.84,-1.34 -16.28,-1.4 -15.01,0.02 -30.02,-0.02 -45.03,0.02 -5.34,-0.03 -10.55,2.94 -13.39,7.43 m 190.63,2.58 c -7.19,0.09 -14.18,3.95 -17.99,10.05 -2.52,3.68 -3.48,8.07 -5.03,12.17 4.42,-2.5 11,-1 13.54,3.59 1.71,2.7 3.18,7.2 -0.27,9.19 -0.51,0.02 -1.52,0.06 -2.03,0.08 -2.18,-1.53 -2.44,-4.28 -3.23,-6.61 -2.15,-1.17 -4.39,-1.17 -6.6,-0.2 -1.29,3.01 -2.74,6.09 -2.86,9.42 -0.11,10.06 2.4,20.42 8.58,28.53 7.03,9.85 18.64,16.21 30.72,16.84 9.87,0.41 20.41,-2.77 27.04,-10.41 4.78,-5.2 6.71,-12.27 7.58,-19.12 -1.35,-0.56 -2.67,-1.12 -4.01,-1.64 -0.2,-3.48 -0.21,-6.97 0.02,-10.44 1.85,-0.98 3.87,-1.58 5.67,-0.12 0.4,1.74 0.84,3.48 1.29,5.22 2.55,-5.21 3.11,-11.79 0.48,-17.05 -1.52,-3.21 -7.2,-0.72 -7.57,-4.78 -0.67,-2.52 2.19,-3.61 4.11,-3.93 -0.1,-4.08 0.57,-8.44 -1.4,-12.2 -2.21,-5.16 -7.64,-8.83 -13.3,-8.63 -11.58,-0.01 -23.16,-0.09 -34.74,0.04 m -457.46,2.37 c -0.01,1.92 -0.02,3.83 -0.01,5.75 11.7,-3.02 24.12,-3.27 35.83,-0.12 0.03,-1.88 0.07,-3.77 0.11,-5.65 -11.98,0.05 -23.96,0.01 -35.93,0.02 m -5.69,13.94 c 4.18,1.58 8.18,3.57 12.07,5.76 2.46,-0.77 4.57,-2.35 6.93,-3.36 6.18,-3.01 12.94,-4.35 19.66,-5.5 -3.98,0.02 -7.79,-1.43 -11.79,-1.3 -9.16,-0.5 -18.3,1.24 -26.87,4.4 m 333.28,1.72 c -0.05,2.91 0.23,5.91 -0.64,8.74 -1.73,7.16 -8.38,12.89 -15.75,13.33 -6.63,0.16 -13.54,0.78 -19.68,-2.22 -1.42,3.55 -2.71,7.16 -3.69,10.85 3.3,0.73 6.66,1.29 9.89,2.34 0.24,0.66 0.71,1.97 0.95,2.62 -0.34,0.67 -1,1.99 -1.34,2.65 -4.09,0.27 -8.17,-0.58 -12.09,-1.64 -3.46,-1.12 -4.57,-5.24 -3.53,-8.43 1.43,-4.32 2.97,-8.62 4.67,-12.84 -0.02,-0.07 -0.07,-0.22 -0.09,-0.3 -2.87,3.38 -6.73,6.16 -11.2,6.86 -3.69,0.36 -7.41,0.13 -11.11,0.25 0.2,9.13 -0.41,18.31 0.31,27.41 0.71,7.97 6.78,14.37 14.12,16.97 1.23,3.5 1.92,8.37 6.11,9.51 5.57,0.39 11.2,0.23 16.79,0.1 6.9,-1.09 11.34,-7.32 14.55,-12.99 0.85,-1.72 3.13,-1.6 4.66,-1 1.76,1.06 0.93,3.25 1.07,4.91 4.85,-0.2 9.72,0.21 14.56,-0.26 7.99,-0.84 15.05,-7.21 16.65,-15.09 1.23,-4.71 0.58,-9.62 0.75,-14.43 -1.92,-0.17 -5.15,-0.05 -5.07,-2.73 0.07,-5.16 -0.89,-10.39 0.37,-15.46 1.94,-0.18 4.82,-1.08 5.65,1.42 0.33,3.1 0.11,6.23 0.2,9.34 2.16,-0.67 3.69,-2.29 4.96,-4.1 1.2,-5.31 0.73,-10.79 0.75,-16.19 0.06,-4.55 -2.93,-9.1 -7.52,-10.07 -8.39,0.86 -16.87,0.28 -25.3,0.45 m -76.69,0.04 c 0.01,2.3 0.03,4.6 0.05,6.9 0.95,3.43 3.18,6.2 6.13,8.14 5.33,1.12 10.83,0.78 16.24,0.62 3.4,-0.15 6.42,-2.34 8.07,-5.25 2.03,-3.09 1.11,-6.96 1.33,-10.42 -10.61,-0.05 -21.22,-0.07 -31.82,0.01 m -242.72,9.53 c -1.37,1.18 -3.19,0.17 -4.44,-0.64 -5.04,-3.27 -10.62,-5.89 -16.57,-6.93 -3.71,1.8 -6.87,4.48 -10.04,7.07 8.53,2.91 12.54,11.92 14.46,20.06 2.76,10.03 2.97,20.6 1.81,30.89 -1.8,10.33 -4.33,22.31 -14.15,28.04 18.75,15.6 46.77,17.69 68.25,6.62 0.1,-0.26 0.3,-0.78 0.4,-1.04 -9.44,-0.39 -18.21,-5.2 -24.43,-12.16 -15.43,-17.37 -15.87,-45.9 -1.14,-63.83 7.1,-9.02 18.54,-14.28 30.02,-13.83 -1.6,-0.98 -3.22,-2.02 -5.1,-2.36 -13.4,-2.58 -27.87,0.25 -39.07,8.11 m 281.32,-9.57 c 0.04,2.56 -0.17,5.17 0.36,7.7 1.45,4.36 5.6,7.82 10.26,8.03 4.74,0.18 9.55,0.36 14.21,-0.67 1.89,-1.44 3.96,-2.8 5.21,-4.87 1.85,-3.04 1.74,-6.75 1.68,-10.17 -10.57,-0.05 -21.15,-0.01 -31.72,-0.02 m -259.48,18.4 c -15.89,15.18 -16.43,43.02 -1.78,59.21 6.4,7.19 16.31,11.41 25.95,9.92 -9.18,-1.03 -17.97,-6.13 -23.07,-13.89 -6.52,-9.26 -8.93,-21.18 -7.1,-32.31 1.35,-6.01 3.33,-11.98 7.01,-17 5.23,-7.72 13.79,-12.95 23.08,-13.96 -8.77,-1.37 -17.83,1.82 -24.09,8.03 m -59.29,-2.82 c 6.89,4.74 9.13,13.34 10.56,21.1 2.12,12.68 1.25,26.21 -4.06,38.01 -1.2,3.21 -4.12,5.13 -6.04,7.77 4.33,1.88 8.56,-1.56 10.54,-5.21 4.78,-8.31 6.18,-18.16 6.21,-27.62 0.12,-9.88 -1.23,-20.15 -6.11,-28.88 -2.11,-3.92 -6.52,-7.22 -11.1,-5.17 m 80.02,0.92 c -8.05,2.02 -14.56,8.29 -18.05,15.69 -6.57,13.26 -4.65,30.56 5.47,41.53 5.52,6.08 13.97,9.52 22.17,8.06 8.09,-1.26 15,-6.98 18.93,-14.01 7.91,-13.73 6.27,-32.75 -4.94,-44.22 -5.92,-6.23 -15.18,-9.34 -23.58,-7.05 M 159,189.84 c -3.65,1.38 -5.34,5.27 -6.62,8.66 -3.27,9.6 -3.53,20 -2.32,30 4.95,-0.1 9.9,-0.14 14.84,-0.11 1.54,4.29 -1.2,9.03 -4.31,11.93 -2.86,2.5 -6.45,0.29 -8.48,-2.09 1.67,2.9 2.89,6.4 5.92,8.19 3.57,1.71 6.59,-1.68 8.01,-4.56 4.87,-9.78 4.96,-21.11 4.22,-31.78 -0.86,-6.12 -2.03,-12.56 -5.75,-17.67 -1.35,-1.54 -3.29,-3.32 -5.51,-2.57 m -6.07,42.9 c 0.68,2.2 2.43,4.65 5.07,4.18 2.24,-0.11 3.34,-2.42 4.08,-4.23 -3.05,-0.02 -6.1,-0.01 -9.15,0.05 m 510.78,7.93 c 0.01,10.57 0.02,21.13 0,31.7 3.97,1.3 8.22,0.87 12.34,0.73 5.28,-0.97 9.56,-5.58 11.43,-10.43 0.35,-8.78 0.06,-17.6 0.13,-26.4 -7.38,3.65 -15.72,4.95 -23.9,4.4 m -159.95,8.26 c -4.5,3.2 -10.24,3.47 -15.56,3.28 0,2.58 -0.12,5.17 0.05,7.75 3.34,2.14 7.11,3.51 10.73,5.11 9.71,-4.67 19.47,-9.26 29.18,-13.93 0,-2.79 0,-5.58 0,-8.36 -5.75,0.08 -11.5,-0.16 -17.23,0.09 -2.59,1.77 -4.46,4.43 -7.17,6.06 m -2.11,22.05 c -0.04,2.38 -0.04,4.75 -0.01,7.13 11.84,-5.5 23.42,-11.55 35.26,-17.05 0.09,-2.31 0.12,-4.61 0.14,-6.91 -11.81,5.58 -23.59,11.23 -35.39,16.83 m -21.36,-7.17 c 0.01,1.96 -0.13,3.94 0.17,5.89 4.78,2.99 9.72,5.76 14.71,8.39 0.05,-2.46 0.06,-4.93 0.08,-7.39 -4.9,-2.47 -9.94,-4.65 -14.96,-6.89 m -30.57,25.2 c -0.17,14.49 -0.02,28.98 -0.07,43.48 3.72,0.04 7.45,0.03 11.18,-0.02 -0.13,-10.16 0.07,-20.32 -0.09,-30.48 -0.91,-3.31 -3.46,-5.94 -4.87,-9.07 0.72,-1.7 1.96,-3.74 4.18,-3.16 2.65,0.45 2.66,4.3 4.97,5.06 1.93,-1.31 3.05,-3.53 5,-4.83 2.39,-1.35 5.42,1.53 4.22,3.96 -1.75,3.19 -4.82,5.36 -6.81,8.37 -0.28,1.56 -0.23,3.16 -0.09,4.74 1.1,1.21 2.44,2.18 3.67,3.28 2.05,-1.7 4.1,-4 7.03,-3.76 2.94,-0.36 4.74,2.26 7.14,3.35 2.14,-1.35 4.02,-3.58 6.79,-3.37 2.91,-0.29 5.02,1.96 7.06,3.66 2.04,-1.64 4.08,-3.85 6.94,-3.69 2.85,-0.28 4.83,2 7.02,3.39 2.37,-1.12 4.16,-3.71 7.06,-3.41 2.89,-0.25 5,1.94 7.01,3.65 2.04,-1.64 4.07,-3.85 6.93,-3.67 2.85,-0.31 4.84,1.95 7.01,3.38 1.81,-0.81 3.12,-2.48 5.02,-3.15 1.93,-0.56 3.9,0.03 5.83,0.33 -0.24,-2.86 0.68,-6.14 -1.14,-8.63 -1.15,-2.11 -2.87,-3.97 -3.5,-6.33 -0.4,-2.27 1.95,-3.95 4.05,-3.53 2.14,1.22 2.98,3.66 4.24,5.63 1.94,-1.63 3.43,-3.72 5.39,-5.33 2.49,-1.37 5.48,1.58 4.27,4.11 -1.86,3.08 -5.06,5.24 -6.65,8.46 -0.24,10.33 -0.04,20.69 -0.08,31.04 7.89,-0.02 15.78,0.02 23.68,-0.03 -0.06,-14.16 0.13,-28.34 -0.09,-42.5 -0.16,-10.33 -7.85,-19.99 -17.95,-22.27 -7.88,-1.74 -16.02,-0.66 -24.01,-0.91 -12.5,5.84 -24.82,12.07 -37.2,18.18 -2.11,1 -4.65,2.79 -6.96,1.26 -6.77,-3.95 -13.61,-7.77 -20.36,-11.75 -2.72,-1.4 -1.62,-4.92 -1.9,-7.38 -12.18,-0.67 -23.41,9.83 -23.92,21.94 m 181.69,-19.58 c -0.5,2.83 -0.22,5.72 -0.26,8.58 0.01,6.33 -0.04,12.67 0.03,19 1.43,-2.98 3.39,-5.74 4.47,-8.87 0.61,-7.22 -0.82,-14.6 1.13,-21.68 -1.93,0.64 -4.5,0.77 -5.37,2.97 m 18.14,-2.6 c 1.46,4.63 3.25,9.39 6.9,12.78 4.72,4.88 12.1,6.45 18.62,5.14 10.01,-1.17 18.87,-8.52 22.31,-17.93 -1.48,-0.03 -2.95,-0.04 -4.42,-0.04 -2.31,3.91 -5.33,7.45 -9.08,10.05 -5.3,3.63 -12.13,4.71 -18.36,3.37 -6.34,-1.61 -10.39,-7.51 -12.18,-13.47 -0.95,0.02 -2.84,0.07 -3.79,0.1 m 39,19.96 c -8.51,4.81 -19.29,6.39 -28.51,2.75 -7.64,-2.99 -12.95,-10.07 -15.61,-17.62 -0.23,-1.16 -0.93,-1.83 -2.08,-1.99 -0.18,3.37 -0.13,6.75 -0.11,10.13 1.18,0.54 3.12,0.58 3.43,2.16 0.93,3.21 -2.13,5.47 -3.44,8.03 -4.78,8.04 -9.43,17.02 -8.85,26.64 1.26,3.82 6.21,3.97 9.58,4.56 17.34,0.74 34.73,0.04 52.09,0.38 1.97,-0.31 2.7,1.67 3.44,3.05 -0.31,0.67 -0.93,2.02 -1.24,2.69 -4.01,0.9 -8.12,0.47 -12.18,0.55 -14.61,-0.23 -29.25,0.52 -43.83,-0.48 -0.04,21.22 -0.03,42.44 0,63.66 4.35,0.01 8.71,0 13.07,0.03 1.36,-2.85 2.98,-5.85 5.93,-7.34 2.95,-1.85 6.56,-1.62 9.89,-1.38 4.63,0.61 8.09,4.46 9.55,8.72 10.38,-0.06 20.76,0.01 31.14,-0.04 0.03,-12.43 0,-24.86 0.02,-37.29 -0.07,-18.02 -0.15,-36.03 -0.13,-54.04 -1.82,1.06 -3.46,3.38 -5.79,2.78 -1.5,0.03 -1.96,-1.57 -2.56,-2.61 -0.02,-2.67 2.81,-3.72 4.32,-5.47 2.76,-2.3 3.48,-5.9 4.95,-8.99 1.75,-2.52 5.67,-0.49 5.63,2.23 0.14,14.89 0.01,29.78 0.06,44.66 7.62,-0.03 15.25,0.07 22.87,-0.06 -0.07,-14.16 0.06,-28.32 -0.05,-42.48 0,-9.51 -6.03,-19.1 -15.23,-22.11 -6.57,-1.93 -13.49,-0.81 -20.22,-1.14 -3.5,7.91 -8.38,15.69 -16.14,20.02 m -70.31,2.2 c -0.09,14.51 0.03,29.02 -0.06,43.53 2.13,0.03 4.27,0.04 6.42,0.07 0,-19.63 0.1,-39.26 -0.05,-58.89 -3.98,4.04 -6.25,9.63 -6.31,15.29 M 192.63,277.1 c -0.01,0.79 -0.03,2.37 -0.04,3.15 12.65,0.1 25.31,-0.01 37.97,0.06 0.09,-1.06 0.18,-2.12 0.27,-3.18 -12.73,-0.09 -25.46,-0.05 -38.2,-0.03 m -0.04,9.6 c 0.01,0.8 0.03,2.4 0.04,3.19 12.73,0.08 25.46,0.14 38.19,-0.02 -0.08,-1.08 -0.16,-2.15 -0.23,-3.22 -12.67,0.06 -25.34,-0.04 -38,0.05 m -26.55,3.74 c 1.82,2.85 3.06,6.04 3,9.47 0.15,11.03 0.04,22.08 0.06,33.12 -0.11,1.75 0.04,4.53 -2.37,4.64 -5.23,0.3 -10.49,0.04 -15.73,0.12 -8.96,-0.01 -17.91,0.02 -26.87,-0.02 -0.24,5.43 -0.09,10.87 -0.13,16.31 35,-0.1 70.01,0.18 105,-0.15 0.48,-1.13 0.98,-2.26 1.48,-3.38 0.63,-0.23 1.89,-0.7 2.52,-0.94 4.45,1.27 8.31,4.3 13.03,4.63 1.01,-2.85 2.33,-5.57 3.81,-8.21 -1.13,-1.04 -1.94,-2.98 -3.8,-2.58 -18.65,-0.05 -37.3,0.03 -55.95,-0.03 -1.69,0.17 -3.83,-0.72 -3.73,-2.68 -0.27,-8.25 0,-16.51 -0.12,-24.75 0.05,-2.04 -0.2,-4.14 0.45,-6.11 1.3,-1.61 3.49,-1.2 5.32,-1.29 24.32,0.09 48.64,-0.06 72.96,0.05 1.92,-0.27 3.77,1.35 3.43,3.33 0.1,7.95 0.02,15.91 0.02,23.86 2.13,-0.14 4.27,-0.29 6.41,-0.43 2.54,-7.11 4.33,-14.49 7.14,-21.48 2.27,-2.29 5.96,-0.85 8.83,-1.27 -3.64,-8.45 -10.31,-15.7 -18.88,-19.27 -10.84,-4.85 -22.96,-2.31 -34.42,-2.96 -1.24,3.08 -3.87,5.94 -7.47,5.79 -12.33,0.03 -24.68,0.09 -37.02,-0.03 -3.38,-0.02 -5.87,-2.72 -6.9,-5.74 -6.69,-0.02 -13.38,-0.01 -20.07,0 m -36.29,16.09 c -5.05,7.29 -6.23,16.43 -5.72,25.08 12.9,-0.05 25.79,-0.01 38.69,-0.02 0,-10.21 0,-20.42 0,-30.62 0.08,-2.64 -0.48,-5.51 -2.55,-7.33 -2.32,-2.43 -5.99,-2.32 -9.09,-2.16 -8.71,1.97 -16.48,7.59 -21.33,15.05 m 206.06,-7.65 c -2.44,4.65 -3.65,10.05 -6.77,14.29 -3.49,1.24 -7.43,0.27 -11.08,0.59 -1.63,4.33 -3.29,8.66 -5.04,12.94 2.68,0.13 5.37,0.15 8.07,0.14 9.2,-0.04 18.41,0.05 27.61,-0.03 1.46,-4.26 3.1,-8.46 4.66,-12.67 -3.62,0.02 -7.28,0.19 -10.82,-0.75 -1.27,-5.19 2.7,-9.55 3.55,-14.5 -3.4,0 -6.79,0.01 -10.18,-0.01 m 131.47,16.84 c 0.01,3.35 0,6.7 0.01,10.05 1.26,1.07 2.51,2.17 3.75,3.29 1.99,-1.76 4.04,-4.14 6.99,-3.8 2.92,-0.38 4.89,2.03 6.98,3.61 2.14,-1.52 4.09,-3.97 7.02,-3.62 2.94,-0.37 5.04,1.96 7,3.75 1.97,-1.73 4.03,-4.05 6.94,-3.77 2.96,-0.36 5.07,1.95 7.09,3.72 1.99,-1.7 4.02,-4.04 6.91,-3.73 2.97,-0.4 5.11,1.88 7.09,3.7 1.99,-1.72 4.02,-4.04 6.94,-3.71 3,-0.41 5.11,1.97 7.23,3.66 2.5,-3.32 6.65,-4.54 10.6,-3.17 -0.02,-3.29 -0.02,-6.59 0.03,-9.88 -1.19,-1.02 -2.31,-2.15 -3.69,-2.9 -2.24,1.42 -4.25,3.83 -7.18,3.5 -2.86,0.18 -4.88,-2.07 -6.89,-3.71 -2,1.75 -4.14,3.98 -7.05,3.73 -2.83,0.26 -4.72,-2.05 -6.86,-3.45 -2.33,1.24 -4.18,3.85 -7.13,3.46 -2.9,0.28 -4.97,-2 -7,-3.67 -2,1.77 -4.14,3.99 -7.06,3.7 -2.86,0.33 -4.65,-2.12 -6.84,-3.43 -2.35,1.24 -4.2,3.89 -7.2,3.44 -2.85,0.24 -4.88,-2.02 -6.9,-3.63 -2.72,3.06 -6.86,4.75 -10.78,2.86 M 251.46,314.4 c -0.72,1.14 0.18,3.17 1.62,3.15 0.98,-0.83 1.08,-1.82 0.31,-2.97 -0.48,-0.04 -1.44,-0.13 -1.93,-0.18 m 8.09,1.08 c 0.35,4.36 -1.18,9.36 2.08,12.97 0.66,-4.6 1.18,-9.64 -0.3,-14.11 -0.45,0.29 -1.33,0.85 -1.78,1.14 m -67.06,-0.25 c 0.31,7.27 -0.38,14.64 0.32,21.85 16.6,0.14 33.21,0.03 49.81,0.05 -2.89,-3.93 -6.25,-7.51 -8.75,-11.71 4.48,-3.29 8.79,-6.81 13.24,-10.14 -2.02,-0.23 -4.05,-0.5 -6.09,-0.48 -14.69,0.03 -29.38,0.01 -44.07,0.01 -1.5,0.01 -2.98,0.23 -4.46,0.42 M 249,437.04 c -0.47,1.51 -1.32,3.91 1.08,3.97 12.72,-39.57 25.89,-79.01 38.66,-118.56 6.36,-1.14 12.86,-0.04 19.26,-0.64 0.4,-0.84 0.75,-1.7 1.08,-2.57 -7.44,-0.13 -14.89,-0.04 -22.33,-0.11 -12.66,39.28 -25.08,78.64 -37.75,117.91 M 358.13,319.35 c -0.23,0.66 -0.71,1.98 -0.94,2.64 6.87,-0.09 13.75,0.04 20.63,-0.08 -0.41,-0.58 -1.25,-1.72 -1.67,-2.3 -5.98,-0.44 -12.02,-0.09 -18.02,-0.26 m -115.86,8.37 c 3.8,4.72 7.52,9.5 11.18,14.33 2.84,-1.46 5.57,-3.12 8.53,-4.34 -3.74,-5.52 -8.24,-10.45 -12.11,-15.87 -2.6,1.87 -5.14,3.82 -7.6,5.88 m 388.89,-3.31 c 0.2,8.27 -0.46,16.54 0.08,24.81 1.17,-0.01 2.34,-0.01 3.53,-0.01 0.02,-7.66 0.04,-15.33 -0.02,-22.99 -1.21,-0.6 -2.41,-1.2 -3.59,-1.81 m -337.52,3.82 c -12.83,38.69 -25.39,77.47 -38.09,116.2 26.63,0 53.26,0 79.89,0 4.94,-13.94 10.17,-27.77 15.07,-41.72 -1.83,-2.78 -6.17,-4.91 -5.12,-8.74 2.96,-3.99 5.98,-7.96 9.35,-11.63 0.79,0.06 2.37,0.19 3.16,0.25 6.42,-18.17 13.19,-36.22 19.61,-54.39 -7.57,0.04 -15.13,-0.02 -22.69,0.04 -0.92,2.21 -1.73,5.63 -4.87,5.09 -14.02,-0.02 -28.05,0.16 -42.07,-0.13 -2.69,-0.14 -2.92,-2.93 -2.68,-5 -3.85,0.02 -7.71,0 -11.56,0.03 m 247.31,6.9 c -2.88,0.1 -4.91,-2.13 -6.89,-3.85 -1.98,1.85 -4.12,4.13 -7.1,3.88 -2.89,0.14 -4.93,-2.14 -6.93,-3.85 -1.98,1.82 -4.07,4.14 -7.05,3.87 -2.9,0.15 -4.97,-2.09 -6.93,-3.86 -1.96,1.84 -4.09,4.12 -7.06,3.89 -2.93,0.19 -4.95,-2.12 -6.94,-3.87 -1.99,1.82 -4.11,4.12 -7.08,3.89 -2.9,0.14 -4.95,-2.09 -6.91,-3.86 -2.66,3.16 -6.8,5.03 -10.82,3.1 0.09,21.55 0.04,43.1 0.03,64.65 28.44,0.03 56.88,0.04 85.32,0.08 0.09,-13.75 0.13,-27.5 -0.02,-41.25 -1.38,-0.07 -2.74,-0.24 -4.08,-0.49 -1.51,-0.98 -1.06,-2.93 -1.2,-4.44 0.11,-6.39 -0.2,-12.8 0.23,-19.19 0.74,-0.56 1.48,-1.12 2.23,-1.67 -0.44,-0.21 -1.31,-0.61 -1.75,-0.82 -1.96,1.84 -4.09,4.07 -7.05,3.79 m -98.53,3.55 c -0.13,4.28 -0.1,8.58 -0.05,12.87 6.13,-0.02 12.27,-0.03 18.4,0 0.05,-4.12 0.04,-8.24 0.03,-12.36 -6.13,-0.08 -12.29,0.33 -18.38,-0.51 m 111.19,0.11 c -0.06,4.24 -0.05,8.49 -0.02,12.74 11.08,0 22.15,0.01 33.23,0 0.02,-4.25 0.06,-8.5 -0.05,-12.74 -11.05,-0.01 -22.1,0 -33.16,0 m 64.59,0.11 c 0.01,3.46 0.02,6.91 -0.02,10.37 2.12,-0.02 4.24,-0.03 6.38,-0.01 0.07,-3.45 0.07,-6.9 0.07,-10.34 -2.15,-0.01 -4.29,-0.02 -6.43,-0.02 m 99.23,0.06 c 0.06,29.33 -0.06,58.65 0.06,87.98 -0.32,1.47 1.11,1.93 2.21,2.39 0.17,-5.17 -0.13,-10.34 0.14,-15.49 0.2,-3.66 6.25,-3.53 6.41,0.04 0.25,6.22 -0.08,12.47 0.16,18.7 0.57,0.05 1.73,0.14 2.3,0.18 0.19,-6.28 -0.14,-12.56 0.16,-18.83 0.2,-3.55 5.87,-3.61 6.27,-0.12 0.32,6.07 -0.17,12.16 0.2,18.23 0.64,0.09 1.93,0.27 2.58,0.35 0.2,-31.16 -0.05,-62.32 -0.06,-93.49 -6.81,0.02 -13.62,-0.08 -20.43,0.06 m -464.75,15.88 c -0.17,1.08 -0.34,2.17 -0.5,3.26 2.7,1.49 4.09,-1.68 5.89,-3.04 3.47,-3.38 8.01,-5.28 12.62,-6.53 0.6,-2.12 1.29,-4.21 1.99,-6.29 -8.27,0.28 -16.96,4.47 -20,12.6 m 13.03,3.16 c 0.53,1.57 3.06,0.6 2.66,-0.92 -0.5,-1.51 -3.01,-0.5 -2.66,0.92 m 348.04,7.53 c -1.86,10.86 -4.26,21.63 -6.05,32.49 -0.25,4.28 4.19,6.63 7.99,5.84 -1.59,-5.25 -0.15,-10.62 0.14,-15.93 1.27,-10.88 1.96,-21.84 3.73,-32.67 -3.9,1.9 -5.11,6.36 -5.81,10.27 m 10.69,1.42 c -1.1,9.97 -2.09,19.96 -3.1,29.95 -0.39,2.41 0.45,4.73 1.33,6.94 4.01,0.04 8.03,-0.11 12.05,0.1 0.11,-16.11 0.05,-32.23 0.06,-48.34 -2.7,-0.03 -5.41,-0.03 -8.1,-0.02 -1.47,3.62 -2.12,7.48 -2.24,11.37 m -389.71,-9.59 c -4.39,9.83 -8.9,19.61 -12.94,29.59 6.61,3.04 13.08,6.43 19.86,9.09 4.37,-9.98 8.87,-19.91 13.12,-29.95 -6.77,-2.69 -13.35,-5.83 -20.04,-8.73 m 214.61,0.5 c 0.03,20.55 -0.18,41.1 0.11,61.65 0.57,0.12 1.7,0.35 2.27,0.47 0.1,-3.66 -0.16,-7.33 0.15,-10.98 0.44,-1.41 1.92,-1.87 3.03,-2.61 0.62,0.39 1.87,1.17 2.49,1.56 0.44,5.17 0.14,10.37 0.25,15.55 0.91,0.06 1.84,0.11 2.76,0.17 -0.21,-7.89 0.16,-15.76 0.38,-23.63 0.04,-14.06 0.05,-28.12 -0.01,-42.18 -3.81,-0.05 -7.62,-0.05 -11.43,0 m 109.32,-0.03 c -0.03,23.19 -0.1,46.38 0.04,69.57 0.89,0.11 1.78,0.22 2.68,0.33 0.08,-6.57 -0.24,-13.15 0.15,-19.69 0.69,-2.16 3.1,-1.53 4.82,-1.47 1.83,8.18 0.29,16.69 0.93,25.01 0.6,0.03 1.8,0.1 2.4,0.13 0.07,-7.61 -0.01,-15.21 0.04,-22.82 0.33,-0.58 0.98,-1.74 1.31,-2.33 1.69,-0.13 3.94,-0.25 4.42,1.84 0.42,7.68 0.01,15.4 0.2,23.1 0.91,-0.03 1.82,-0.05 2.73,-0.08 0.42,-8.48 -0.09,-16.98 0.3,-25.47 1.19,-0.64 2.4,-1.27 3.62,-1.88 0.36,-1.99 0.53,-4.01 0.5,-6.02 -0.08,-13.38 0.05,-26.76 -0.07,-40.13 -8.03,-0.07 -16.05,-0.1 -24.07,-0.09 m -424.81,2.56 c 1.79,7.17 8.63,12.83 16.15,12.42 7.48,0.25 14.2,-5.49 15.93,-12.63 -10.69,0.59 -21.39,-0.38 -32.08,0.21 m 39.8,0.04 c 9.88,13.93 20.03,27.68 30.25,41.36 0.69,-2.5 3.06,-3.17 5.37,-3.25 0.9,-2.1 1.81,-4.19 2.66,-6.3 -1.79,0 -3.58,0.02 -5.36,0.1 -2.31,-1.09 -2.65,-3.38 -1.99,-5.63 3.32,-1.14 6.84,-0.89 10.3,-0.87 0.9,-2.19 1.86,-4.34 2.8,-6.5 -3.83,-0.15 -7.7,0.28 -11.5,-0.24 -2.66,-0.77 -2.63,-5.03 -0.03,-5.85 4.83,-0.42 9.7,0.17 14.52,-0.45 1.75,-4.15 3.65,-8.23 5.38,-12.38 -17.47,-0.01 -34.93,-0.03 -52.4,0.01 m 87.08,0.46 c 0.61,1.04 1.26,2.07 1.93,3.08 -2.5,7.59 -6.31,14.66 -9.32,22.06 0.78,1.12 1.77,2.35 1.32,3.84 -0.29,2.17 -3.09,1.94 -4.51,3.07 -0.89,1.85 -1.54,3.8 -2.29,5.71 2.23,0.03 4.47,0.22 6.58,0.98 3.22,-10.61 6.69,-21.14 10.04,-31.71 1.46,-3.01 -1.95,-5.15 -3.75,-7.03 m -108.79,18.64 c 4.75,6.24 9.25,12.66 13.95,18.94 5.9,-4.3 12.01,-8.32 18.01,-12.49 -4.32,-6.27 -9.04,-12.24 -13.39,-18.47 -4.19,6.41 -10.81,11.24 -18.57,12.02 m -13.1,-2.65 c -0.05,19.77 -0.03,39.54 -0.01,59.31 5.59,0 11.18,-0.04 16.78,0.03 0.17,-13.42 0.19,-26.85 0,-40.25 -3.39,-5.41 -7.51,-10.35 -11.16,-15.59 -1.2,-2.05 -3.57,-2.66 -5.61,-3.5 m 525.93,12.07 c -3.68,0.84 -5.14,5.56 -3.21,8.61 2.93,4.82 12.81,2.9 11.83,-3.52 0.18,-4.44 -5.04,-6.19 -8.62,-5.09 m -312.46,6.2 c 4.74,5.24 9.24,10.69 14.11,15.82 0.78,-1 1.57,-1.99 2.36,-2.98 -4.28,-5.68 -8.37,-11.51 -12.8,-17.07 -1.32,1.32 -2.51,2.77 -3.67,4.23 m -182.37,8.37 c 3.97,6.73 9.21,12.62 13.58,19.11 0.96,1.01 1.44,2.77 2.91,3.13 3.55,-6.64 10.06,-11.42 17.53,-12.56 -5.42,-7.25 -10.71,-14.59 -16.05,-21.9 -6.06,3.97 -11.9,8.26 -17.97,12.22 M 218.89,393 c -2.48,5.7 -5.02,11.38 -7.48,17.09 -1.32,2.43 1.67,3.91 3.57,4.41 5.82,1.91 10.45,6.42 13.2,11.82 3.55,-8.06 7.4,-16 10.58,-24.21 -6.74,-2.78 -13.15,-6.29 -19.87,-9.11 m 422.32,4.61 c 0.03,40.66 -0.01,81.32 0.02,121.98 2.46,-0.01 4.94,-0.01 7.42,-0.01 0.01,-13.88 -0.02,-27.77 0.01,-41.65 -0.08,-1.63 0.39,-3.78 2.29,-4.1 2.54,-1.09 4.5,1.79 4.24,4.08 0.03,13.89 -0.01,27.78 0.01,41.68 7.48,-0.01 14.95,-0.01 22.43,-0.01 0.02,-20.54 -0.02,-41.09 0.02,-61.64 -0.46,-2.39 1.95,-4.53 4.26,-3.61 1.75,0.15 2.15,2.18 2.15,3.63 0.05,20.54 -0.01,41.09 0.03,61.64 13.45,-0.05 26.9,0.02 40.35,-0.04 -0.03,-26.92 0.01,-53.83 -0.01,-80.74 -1.33,-1.06 -2.62,-2.14 -3.87,-3.26 -4.03,0.28 -8.27,-2.03 -9.22,-6.13 -0.43,-5.47 -0.57,-10.96 -0.5,-16.44 0,-5.13 -0.02,-10.26 0,-15.4 -10.4,-0.02 -20.79,0.03 -31.18,-0.02 -0.95,2.28 -2.1,4.58 -4.08,6.16 -3.36,3.11 -8.38,3.03 -12.61,2.32 -4.25,-0.98 -7,-4.68 -8.64,-8.48 -4.38,0.03 -8.75,0 -13.12,0.04 m -479.03,7.22 c -0.06,11.07 0.04,22.14 -0.03,33.21 -0.02,1.74 -0.57,4.12 -2.7,4.24 -6.87,0.29 -13.76,0.02 -20.63,0.12 0,3.98 -0.01,7.96 0,11.95 18.07,-0.03 36.14,0.07 54.21,-0.05 -4.18,-3.69 -7.64,-8.5 -8.49,-14.12 -0.57,-2.62 0,-5.67 -1.98,-7.79 -6.87,-9.12 -13.4,-18.51 -20.38,-27.56 m 79.83,6.78 c 2.81,0.02 5.61,0.01 8.41,0.02 0.74,-2.16 1.48,-4.3 2.23,-6.45 -2.59,-0.07 -5.17,-0.08 -7.75,-0.09 -1,2.15 -1.97,4.32 -2.89,6.52 m 225.28,-6.07 c -0.02,3.68 -0.03,7.36 0.04,11.05 5.97,-0.06 11.95,-0.03 17.92,-0.02 -0.1,-3.68 -0.1,-7.36 0.01,-11.03 -5.99,0.01 -11.98,0 -17.97,0 m 24.27,5.47 c 0.2,1.8 -0.55,4.04 1,5.42 2.91,0.23 6.3,0.95 8.87,-0.83 -0.11,-3.04 -0.11,-6.08 -0.02,-9.11 -2.62,-1.48 -5.74,-0.97 -8.6,-0.82 -1.86,1.14 -1.03,3.54 -1.25,5.34 m 16.03,-5.47 c 0.09,3.69 0.09,7.38 0,11.08 15.02,-0.06 30.04,0.04 45.06,0.04 0,-3.71 0,-7.41 0,-11.11 -15.02,-0.01 -30.04,0 -45.06,-0.01 m -152.29,2.6 c -0.77,2.14 -1.52,4.28 -2.23,6.44 2.34,-0.38 4.69,-0.74 7.04,-1.13 -1.61,-1.77 -3.21,-3.54 -4.81,-5.31 m 262.51,2.33 c 0.15,5.81 -0.25,11.65 0.18,17.45 0.54,0.41 1.63,1.22 2.17,1.62 0.47,-5.48 -0.17,-11 0.37,-16.48 0.68,-2.78 5.57,-2.47 5.9,0.34 0.34,6.31 0.03,12.63 0.13,18.95 0.55,0.15 1.65,0.44 2.2,0.58 0.8,-6.61 0.01,-13.28 0.59,-19.89 0.75,-2.66 4.22,-1.49 6.19,-1.31 -0.6,-0.9 -1.42,-1.29 -2.46,-1.18 -5.09,-0.05 -10.18,0.04 -15.27,-0.08 m -378.61,7.77 c -1.21,1.95 -1.95,4.14 -2.87,6.24 3.34,0 6.69,0 10.03,0.01 0.74,-2.2 1.47,-4.41 2.2,-6.61 -3.11,0.15 -6.36,-0.48 -9.36,0.36 m -35.98,1.88 c -8.79,1.9 -14.52,11.84 -11.82,20.4 1.99,7.54 9.88,12.73 17.58,11.68 8.74,-0.67 15.74,-9.44 14.47,-18.12 -0.87,-9.42 -11.08,-16.58 -20.23,-13.96 m 236.38,14.42 c 0.9,0.01 2.69,0.01 3.59,0.02 0.19,-3.54 0.82,-7.01 1.39,-10.49 0.53,-1.65 -0.74,-3.03 -1.38,-4.4 -2.54,4.55 -3.29,9.75 -3.6,14.87 m 27.68,-11.41 c 0.08,49.38 -0.13,98.77 0.1,148.16 12.73,-0.05 25.46,-0.04 38.19,-0.01 0.16,-41.53 0.09,-83.07 0.03,-124.6 -2.71,-0.04 -5.46,0.25 -8.15,-0.18 -2.85,-0.63 -2.82,-5.28 -0.05,-5.93 3.87,-0.39 7.79,-0.2 11.68,-0.13 1.95,-0.27 3.08,1.95 3.13,3.6 0.13,42.41 -0.13,84.84 0.13,127.25 15.37,-0.07 30.75,-0.01 46.13,-0.03 0.06,-45.78 0.04,-91.56 0.01,-137.34 -4.16,-1.9 -6.43,-6.3 -5.97,-10.8 -28.41,0.1 -56.82,0.02 -85.23,0.01 m -15.43,2.75 c -0.47,2.87 -0.9,5.74 -1.28,8.63 3.37,0.03 6.75,0.05 10.13,0.14 -0.03,-1.68 -0.03,-3.36 -0.01,-5.03 -3.54,0.54 -6.46,-1.38 -8.84,-3.74 M 229.3,442.02 c -1.18,4.92 -4.25,9.15 -8.16,12.29 18.21,0.1 36.41,0 54.61,0.06 0.03,-1.22 0.06,-2.42 0.1,-3.62 -8.84,-0.2 -17.7,0.22 -26.53,-0.19 -2.31,-1.6 -3.78,-4.11 -5.64,-6.17 -0.87,-1.33 -2.56,-2.58 -2.12,-4.36 0.65,-3.17 1.89,-6.19 2.91,-9.25 -3.62,0 -7.23,0.01 -10.84,-0.03 -1.82,3.6 -3.51,7.29 -4.33,11.27 m 167.89,-2.36 c -0.05,10.1 0.25,20.22 -0.37,30.3 0.04,17.1 -0.14,34.2 -0.04,51.3 0.23,0.25 0.69,0.76 0.92,1.02 4.64,0.12 9.28,-0.02 13.92,0.09 0.46,-14.11 -0.29,-28.25 0.58,-42.33 0.01,-13.47 0.04,-26.93 0.05,-40.39 -5.02,-0.05 -10.04,-0.06 -15.06,0.01 m 21.36,82.67 c 14.09,0.07 28.18,0.13 42.27,0.12 -0.02,-27.59 -0.03,-55.18 0,-82.76 -14.15,-0.06 -28.29,-0.01 -42.44,-0.09 -0.03,27.58 0.12,55.16 0.17,82.73 m -279.69,-61.2 c 0,0.66 -0.01,1.98 -0.01,2.64 45.63,-0.01 91.27,-0.02 136.9,0 0.02,-0.65 0.06,-1.95 0.08,-2.6 -45.66,-0.15 -91.32,-0.07 -136.97,-0.04 m 7.05,11.61 c 41.4,-0.17 82.81,-0.05 124.21,-0.06 0.11,-0.6 0.34,-1.81 0.45,-2.41 -41.52,-0.16 -83.05,-0.06 -124.58,-0.06 -2.29,-1.1 -2.27,3.73 -0.08,2.53 m 5.12,9.02 c 37.95,0.04 75.89,0.02 113.84,0.01 0,-0.64 0.02,-1.91 0.03,-2.54 -37.95,-0.03 -75.9,-0.03 -113.84,0 -1.97,-0.91 -1.92,3.45 -0.03,2.53 m -12.21,7.11 c 0,0.64 0,1.91 0.01,2.54 45.61,-0.05 91.23,0.13 136.84,-0.09 0.07,-0.61 0.21,-1.82 0.28,-2.43 -45.71,-0.04 -91.42,-0.01 -137.13,-0.02 m 0.01,8.87 c 0.08,3.38 -0.33,6.82 0.34,10.16 1.43,4.6 6.29,7.54 10.99,7.57 18.3,0.09 36.6,-0.01 54.9,0.04 1.47,-0.23 2.8,0.41 3.57,1.68 0.41,3.92 0.09,7.89 0.18,11.84 -0.12,5.38 0.54,10.93 -1.24,16.13 -1.15,4.22 -3.77,7.77 -5.92,11.52 7.12,0.11 14.24,0.09 21.36,0.04 4.42,0.09 7.27,-4.09 9.09,-7.6 4.47,-9.46 2.75,-20.15 3.16,-30.23 -0.19,-1.6 1.01,-3.46 2.74,-3.33 8.87,-0.2 17.74,0.07 26.61,-0.1 4.05,-0.03 7.67,-2.6 9.75,-5.95 2.28,-3.5 1.21,-7.86 1.43,-11.77 -45.65,0 -91.31,0 -136.96,0 m 16.83,23.98 c -0.11,4.18 -0.25,8.42 1,12.47 1.49,-4.25 2.47,-8.76 5.16,-12.48 -2.06,0 -4.11,0.01 -6.16,0.01 m 33.55,-0.02 c 1.36,1.92 2.7,3.92 3.43,6.19 2.18,6.62 4.28,13.27 6.51,19.88 1.19,-0.33 1.28,-1.85 1.81,-2.75 2.82,-7.43 1.33,-15.57 1.59,-23.32 -4.45,0.02 -8.9,0.03 -13.34,0 m 470.17,71.98 c 7.12,-0.01 14.25,0.03 21.37,-0.03 0.03,-22.39 0.08,-44.79 -0.02,-67.18 -7.11,0.06 -14.22,0.03 -21.33,0.01 -0.06,22.4 -0.01,44.8 -0.02,67.2 m 28.07,-0.14 c 7.65,0.26 15.3,0.15 22.95,0.08 -0.04,-22.37 -0.01,-44.73 -0.01,-67.1 -7.65,-0.04 -15.29,0 -22.92,-0.03 -0.03,22.35 -0.01,44.7 -0.02,67.05 M 270.13,543.59 c 0.97,3.8 2.18,7.53 3.36,11.28 7.83,0.5 15.69,0.12 23.54,0.24 54.59,-0.1 109.19,0.21 163.78,-0.16 -0.01,-3.76 -0.02,-7.53 0.01,-11.29 -63.56,-0.16 -127.13,-0.02 -190.69,-0.07 m 294.79,0.01 c -0.02,3.81 -0.02,7.63 0.01,11.45 29.3,0.01 58.62,0.28 87.92,-0.14 -0.01,-3.76 -0.02,-7.51 0.01,-11.27 -29.32,-0.11 -58.63,-0.02 -87.94,-0.04 m 0.14,17.11 c -0.41,8.48 0.15,16.98 -0.28,25.46 0,1.51 -1.56,2.25 -2.43,3.25 -0.17,10.79 0.04,21.58 -0.1,32.37 19.22,-0.14 38.46,0.17 57.67,-0.15 9.12,-8.74 18.78,-16.94 28.07,-25.52 1.31,-1.37 3.05,-2.16 4.83,-2.79 0.05,-10.84 0.03,-21.68 0.01,-32.51 -29.26,-0.24 -58.52,-0.02 -87.77,-0.11 m -360.91,2.48 c 2.56,7.65 4.92,15.37 7.66,22.96 2.76,-7.56 4.92,-15.32 7.58,-22.91 -5.08,-0.09 -10.16,-0.05 -15.24,-0.05 m -12.37,2.88 c 0.03,18.74 0,37.48 0.02,56.23 8.33,0.03 16.66,-0.02 24.99,0.03 -6.03,-18.85 -12.2,-37.64 -18.46,-56.4 -2.18,0.03 -4.37,0.07 -6.55,0.14 m 72.09,-0.01 c 0.66,16.53 -0.41,33.08 0.26,49.61 7.45,-0.03 14.9,0 22.36,-0.01 -5.22,-16.57 -10.78,-33.04 -15.9,-49.63 -2.24,-0.04 -4.49,-0.03 -6.72,0.03 m 203.38,11.6 c 0.02,1.67 0.03,3.35 0.05,5.03 12.79,-0.01 25.58,0.01 38.37,-0.01 -0.02,-1.7 -0.03,-3.39 -0.05,-5.07 -12.79,0.05 -25.58,-0.05 -38.37,0.05 m 44.95,5.02 c 15.45,-0.02 30.89,0.09 46.34,-0.06 -0.03,-1.67 -0.05,-3.34 -0.07,-5 -15.39,-0.02 -30.77,0.04 -46.16,-0.03 -0.05,1.69 -0.08,3.39 -0.11,5.09 m -34.6,6.53 c 1.82,2.2 4.22,4.76 2.72,7.83 -3.92,2.05 -7.7,4.35 -11.51,6.61 -1.17,0.54 -2.37,1.5 -3.73,1.19 -2.33,-1.43 -4.4,-3.27 -6.92,-4.36 -1.62,2.51 -3.12,5.09 -4.39,7.79 13.07,0.1 26.15,0.06 39.23,0.02 2.42,-7.79 7.68,-14.38 14.21,-19.16 -9.87,0.03 -19.74,-0.13 -29.61,0.08 m 45.91,0 c 1.65,2.11 4.77,4.97 2.52,7.74 -3.46,2.42 -7.36,4.17 -10.89,6.49 -1.44,0.67 -3.15,2.22 -4.72,1.02 -2.04,-1.37 -3.98,-2.9 -6.17,-4.02 -1.74,2.49 -3.25,5.12 -4.57,7.85 18.72,0.07 37.44,0.02 56.16,0.03 0,-6.4 0,-12.8 0.01,-19.2 -10.78,0.04 -21.56,-0.12 -32.34,0.09 m -60.52,6.56 c 0.76,0.45 2.29,1.35 3.06,1.8 2.34,-1.08 5.35,-2.01 6.36,-4.64 -3.57,-1.44 -6.75,0.68 -9.42,2.84 m 46.12,-0.17 c 0.97,0.71 1.94,1.45 2.91,2.19 2.3,-1.33 4.61,-2.63 6.9,-3.98 -1.01,-0.48 -1.98,-1 -3.01,-1.37 -2.68,-0.26 -4.65,1.92 -6.8,3.16 m 144,4.45 c -6.91,6.5 -14.07,12.73 -21.13,19.07 5,0.08 10.01,0.05 15.01,0.06 2.21,0 4.63,-0.27 6.38,-1.77 6.65,-5.61 12.87,-11.71 19.52,-17.33 -6.6,-0.13 -13.19,-0.11 -19.78,-0.03 m 29.08,0.02 c -6.86,6.52 -14.06,12.65 -21.02,19.04 8.31,0.03 16.63,0.21 24.93,-0.06 4.16,-1.81 7.73,-4.78 11.93,-6.54 3.91,-0.5 3.95,3.97 3.81,6.66 4.25,0 8.51,-0.01 12.77,0.01 0.11,-6.38 0,-12.77 0.07,-19.15 -10.83,-0.02 -21.66,-0.11 -32.49,0.04 m -230.12,14.74 c -0.14,0.57 -0.42,1.72 -0.56,2.29 13.21,-0.01 26.42,0.14 39.62,-0.07 0.15,-0.58 0.44,-1.73 0.59,-2.31 -13.22,0.03 -26.44,-0.17 -39.65,0.09 m 46.13,-0.03 c -0.17,0.58 -0.49,1.74 -0.66,2.32 19.38,-0.01 38.76,0.15 58.13,-0.08 0.09,-0.57 0.29,-1.71 0.38,-2.29 -19.28,-0.02 -38.57,-0.14 -57.85,0.05 z"
         inkscape:connector-curvature="0"
         style="opacity:1;fill:#020202" />
      <path
         id="path7"
         d="m 755.45,148.49 c 4.35,-4.93 11.19,-6.58 17.53,-6.71 29.34,0 58.68,0.01 88.03,0 5.39,-0.04 10.93,-0.29 16.11,1.5 5.22,1.57 9.79,5.52 11.6,10.73 1.34,3.84 1.02,7.95 1.04,11.94 -0.03,15.7 -0.01,31.39 0,47.08 0.04,4.66 -1.53,9.45 -4.99,12.69 -4.56,4.73 -11.45,6.19 -17.79,6.11 -19.3,0.07 -38.63,-0.24 -57.91,0.14 -9.81,4.36 -19.21,9.68 -28.95,14.23 -2.77,1.36 -6.82,1.24 -8.49,-1.72 -2.26,-3.77 -1.24,-8.43 -1.52,-12.61 -4.78,-0.94 -9.89,-1.96 -13.51,-5.49 -3.74,-3.35 -5.65,-8.38 -5.57,-13.36 0,-17.36 0.02,-34.72 -0.01,-52.08 -0.06,-4.49 1.26,-9.15 4.43,-12.45 m 1.83,11.46 c 0,18.03 -0.02,36.05 0.01,54.08 -0.12,4.34 3,8.19 6.87,9.85 3.65,1.98 7.88,1.65 11.88,1.66 0.32,5.15 0.28,10.31 0.5,15.47 9.97,-4.83 19.8,-9.95 29.73,-14.84 2.73,-1.22 5.83,-0.45 8.73,-0.65 18.36,-0.01 36.72,0.03 55.08,-0.02 6.31,-0.07 13.44,-4.57 13.48,-11.45 0.05,-18.02 0.02,-36.06 0.02,-54.08 0.24,-7.06 -7.09,-11.9 -13.57,-11.76 -33.01,-0.02 -66.03,-0.02 -99.04,-0.01 -6.51,-0.2 -13.96,4.64 -13.69,11.75 z"
         inkscape:connector-curvature="0"
         style="opacity:1;fill:#020202" />
      <path
         id="path9"
         d="m 330.03,153.1 c 27.64,0.03 55.27,-0.39 82.91,-0.73 4.63,-0.17 9.52,0.56 13.37,3.32 4.91,3.39 7.36,9.49 7.42,15.31 0.1,10.35 -0.12,20.71 0.23,31.05 0.63,6.42 -1,13.51 -6.01,17.91 -3.65,3.28 -8.69,4.17 -13.43,4.47 0,3.52 0.34,7.08 -0.17,10.58 -0.67,3.95 -5.71,5.91 -8.92,3.55 -7.03,-4.29 -13.89,-8.86 -20.86,-13.24 -0.76,-0.56 -1.61,-0.84 -2.54,-0.83 -18,-0.15 -36.02,0.28 -54.02,0.24 -8.54,0.08 -15.96,-7.42 -16.53,-15.8 -0.35,-9.61 0.04,-19.24 -0.43,-28.85 -0.61,-6.64 -0.59,-13.97 3.33,-19.67 3.43,-5.04 9.67,-7.55 15.65,-7.31 m -1.98,5.65 c -6.43,-0.05 -11.69,6.01 -11.52,12.28 0.05,11.99 0.17,23.99 0.25,35.99 -0.09,6.52 5.48,12.64 12.17,12.32 16.7,-0.21 33.4,-0.04 50.1,-0.51 2.41,0.1 5.1,-0.53 7.2,1.03 7.52,4.8 15.13,9.5 22.57,14.43 0.05,-5.22 -0.04,-10.44 -0.06,-15.65 4.7,-0.34 9.94,0.91 14.13,-1.84 3.64,-2.26 5.7,-6.59 5.51,-10.82 -0.12,-12 -0.13,-24 -0.22,-35.99 -0.08,-5.94 -4.94,-11.91 -11.16,-11.75 -29.66,0.1 -59.32,0.31 -88.97,0.51 z"
         inkscape:connector-curvature="0"
         style="opacity:1;fill:#020202" />
      <path
         id="path11"
         d="m 772.96,169.34 c -3.74,0.05 -3.68,-6.22 0.15,-5.82 32.14,-0.14 64.29,-0.06 96.43,-0.04 1.36,1.12 2.09,2.61 1.77,4.39 -0.56,0.37 -1.67,1.12 -2.23,1.5 -32.04,0.04 -64.09,0.11 -96.12,-0.03 z"
         inkscape:connector-curvature="0"
         style="opacity:1;fill:#020202" />
      <path
         id="path13"
         d="m 328.59,172.52 c 13.48,-0.45 26.97,-0.2 40.46,-0.34 14.66,-0.67 29.35,-0.4 44.02,-0.52 0.46,0.32 1.37,0.98 1.82,1.3 0.17,1.95 -0.28,4.56 -2.87,4.3 -27.78,0.2 -55.56,0.46 -83.35,0.45 -1.13,-1.65 -1.13,-3.48 -0.08,-5.19 z"
         inkscape:connector-curvature="0"
         style="opacity:1;fill:#020202" />
      <path
         id="path15"
         d="m 660.64,184.24 c -0.49,-6.23 4.89,-12.46 11.37,-11.83 6.4,-0.33 10.85,6.04 10.61,11.98 -1.59,1.83 -3.89,2.46 -5.93,0.95 -0.77,-2.64 -1.07,-6.42 -4.55,-6.65 -3.84,-0.32 -5.25,3.67 -5.89,6.69 -1.95,1.32 -4.46,1.12 -5.61,-1.14 z"
         inkscape:connector-curvature="0"
         style="opacity:1;fill:#020202" />
      <path
         id="path17"
         d="m 453.35,176.43 c 3.89,-0.54 7.92,-0.75 11.81,0.09 0.34,0.65 1.02,1.96 1.36,2.62 -0.67,1.11 -1.16,2.44 -2.36,3.1 -3.44,0.22 -6.89,0.23 -10.31,0.01 -2.5,-0.89 -2.93,-4.65 -0.5,-5.82 z"
         inkscape:connector-curvature="0"
         style="opacity:1;fill:#020202" />
      <path
         id="path19"
         d="m 491.22,176.32 c 4.03,-0.72 8.17,-0.09 12.24,0.07 0.52,1.46 0.94,2.97 0.86,4.56 -0.54,0.34 -1.62,1.04 -2.16,1.39 -3.47,0.03 -6.93,0.02 -10.39,0.03 -0.58,-0.31 -1.73,-0.94 -2.31,-1.25 0.07,-1.71 -0.65,-4.46 1.76,-4.8 z"
         inkscape:connector-curvature="0"
         style="opacity:1;fill:#020202" />
      <path
         id="path21"
         d="m 770.26,178.65 c 1.5,-0.64 3.05,-1.3 4.74,-1.14 31.46,0 62.92,0.04 94.38,-0.02 1.56,1.1 2.26,2.8 2.1,4.71 -1.44,0.63 -2.9,1.36 -4.5,1.24 -27,-0.01 -54,-0.01 -81,-0.01 -4.67,-0.12 -9.37,0.28 -14.02,-0.21 -2.24,-0.48 -1.57,-2.9 -1.7,-4.57 z"
         inkscape:connector-curvature="0"
         style="opacity:1;fill:#020202" />
      <path
         id="path23"
         d="m 648.98,181.12 c 0.92,-2.74 6,-2.12 5.76,0.92 -0.22,4.8 -2.64,9.27 -5.25,13.22 2.77,1.74 8.64,2.2 7.17,6.75 -0.27,0.35 -0.8,1.05 -1.07,1.4 -4.91,0.83 -9.29,-2.94 -13.87,-4.34 -1.34,-3.57 1.97,-6 3.45,-8.86 1.79,-2.8 2.69,-6.01 3.81,-9.09 z"
         inkscape:connector-curvature="0"
         style="opacity:1;fill:#020202" />
      <path
         id="path25"
         d="m 329.96,184.72 c 23.34,-0.41 46.7,-0.32 70.05,-0.54 4.82,-0.19 9.84,-1.17 14.53,0.42 0.21,0.62 0.63,1.84 0.84,2.45 -0.32,0.57 -0.97,1.71 -1.29,2.27 -21.7,0.79 -43.44,-0.14 -65.12,0.9 -6.37,-0.07 -12.74,0.2 -19.1,-0.01 -3.07,-0.39 -2.99,-5.36 0.09,-5.49 z"
         inkscape:connector-curvature="0"
         style="opacity:1;fill:#020202" />
      <path
         id="path27"
         d="m 684.69,188.51 c 1.42,-1.79 4.57,-1.81 5.74,0.28 0.97,2.75 -1.55,4.65 -3.39,6.19 -3.29,2.41 -7.48,3.93 -11.58,3.44 -2.59,-0.91 -2.28,-4 -0.75,-5.74 3.6,-0.54 7.42,-1.33 9.98,-4.17 z"
         inkscape:connector-curvature="0"
         style="opacity:1;fill:#020202" />
      <path
         id="path29"
         d="m 770.37,192.59 c 1.5,-0.48 3.02,-1.02 4.64,-0.95 27.65,0.01 55.3,0 82.96,0.01 4.47,0.25 9.14,-0.73 13.46,0.85 0.23,0.66 0.71,1.97 0.94,2.63 -1.58,3.32 -5.46,2.33 -8.42,2.46 -28.31,-0.03 -56.63,-0.02 -84.94,-0.01 -2.46,-0.06 -4.96,0.23 -7.36,-0.32 -1.98,-0.75 -1.29,-3.06 -1.28,-4.67 z"
         inkscape:connector-curvature="0"
         style="opacity:1;fill:#020202" />
      <path
         id="path31"
         d="m 249.28,203.02 c 0.46,-3.27 3.67,-4.96 6.58,-5.65 3.82,-1.22 8.18,-0.76 11.57,1.43 4.33,3.2 4.47,9.82 1.59,14.02 -2.13,3.41 -6.51,5.43 -7.11,9.73 -0.36,1.85 -0.38,4.75 -2.96,4.74 -2.49,0.55 -4.06,-2.05 -3.56,-4.25 -0.24,-4.98 3.98,-8.23 6.73,-11.79 1.92,-2.08 2.37,-6.23 -0.55,-7.65 -2.98,-1.05 -5.97,0.52 -8.67,1.65 -0.44,-0.01 -1.31,-0.02 -1.75,-0.02 -0.47,-0.55 -1.4,-1.65 -1.87,-2.21 z"
         inkscape:connector-curvature="0"
         style="opacity:1;fill:#020202" />
      <path
         id="path33"
         d="m 328.19,199.14 c 0.36,-1.8 2.4,-1.7 3.82,-1.78 14.35,-0.26 28.72,0.04 43.06,-0.38 1.15,0.2 2.29,0.45 3.44,0.73 0.19,1.85 0.69,4.5 -1.88,4.77 -15.19,0.44 -30.42,0.27 -45.62,0.32 -1.93,0.4 -4.03,-1.89 -2.82,-3.66 z"
         inkscape:connector-curvature="0"
         style="opacity:1;fill:#020202" />
      <path
         id="path35"
         d="m 156.39,203.44 c 1.04,-0.32 2.45,-0.18 2.94,0.95 1.99,3.35 1.99,8.46 -1.14,11.13 -2.23,0.48 -3.39,-1.77 -3.78,-3.57 -0.46,-2.91 -0.5,-6.45 1.98,-8.51 z"
         inkscape:connector-curvature="0"
         style="opacity:1;fill:#020202" />
      <path
         id="path37"
         d="m 771.57,206.59 c 1.39,-0.51 2.91,-0.36 4.39,-0.41 16.37,0.07 32.74,-0.04 49.1,0.05 1.54,-0.12 3.75,0.89 3.41,2.75 0.42,1.86 -1.83,3.06 -3.41,2.83 -16,0.08 -32.01,-0.03 -48.01,0.05 -2.16,0.03 -4.31,-0.14 -6.43,-0.49 -0.07,-1.61 -0.97,-3.89 0.95,-4.78 z"
         inkscape:connector-curvature="0"
         style="opacity:1;fill:#020202" />
      <path
         id="path39"
         d="m 501.84,209.45 c 1.56,0.84 4.1,1.2 3.78,3.55 -0.72,5.94 -6.17,10.12 -11.35,12.34 -5.63,1.61 -12.26,1.34 -16.8,-2.74 -1.5,-1.51 -3.67,-3.21 -3.04,-5.62 0.13,-2.21 2.82,-2.33 4.5,-2.37 1.45,1.69 2.81,3.61 4.88,4.61 2.7,0.84 5.58,0.35 8.36,0.21 2.06,-1.25 4.41,-2.35 5.74,-4.47 1.17,-1.93 2.18,-4.01 3.93,-5.51 z"
         inkscape:connector-curvature="0"
         style="opacity:1;fill:#020202" />
      <path
         id="path41"
         d="m 644.39,209.58 c 3.7,-1.19 5.81,3.79 9.58,3.19 4.42,1.17 7.18,-4.25 11.39,-3.2 2.23,1.49 1.86,5.27 -0.65,6.26 -6.06,4.69 -15.18,4.59 -20.82,-0.71 -2.05,-1.31 -1.57,-4.6 0.5,-5.54 z"
         inkscape:connector-curvature="0"
         style="opacity:1;fill:#020202" />
      <path
         id="path43"
         d="m 255.85,231.78 c 2.44,-2.35 7.46,-0.4 6.93,3.21 0.58,4.09 -4.49,5.2 -7.35,3.49 -1.14,-2.06 -1.88,-5.14 0.42,-6.7 z"
         inkscape:connector-curvature="0"
         style="opacity:1;fill:#020202" />
      <path
         id="path45"
         d="m 198.38,319.58 c 5,-1.61 10.5,3.33 9.28,8.5 -0.65,5.53 -8.14,8.16 -12.18,4.39 -4.55,-3.55 -2.74,-11.63 2.9,-12.89 m 0.99,8.35 c 1.32,1.61 3.32,-1.01 2.11,-2.28 -1.4,-1.45 -3.39,0.92 -2.11,2.28 z"
         inkscape:connector-curvature="0"
         style="opacity:1;fill:#020202" />
    </g>
    <g
       id="#ffffffff">
      <path
         id="path48"
         d="m 209.06,109.87 c 2.19,-2.46 4.55,-4.77 7.12,-6.83 -1.08,2.53 -2.28,5.04 -4.06,7.16 -0.78,1.35 -2.13,0.04 -3.06,-0.33 z"
         inkscape:connector-curvature="0"
         style="opacity:1;fill:#ffffff" />
      <path
         id="path50"
         d="m 222.97,103.33 c 2.08,2.43 3.93,5.34 3.73,8.68 0.06,13.04 -14.16,24.1 -26.81,19.95 9.66,-7.67 18.13,-17.24 23.08,-28.63 z"
         inkscape:connector-curvature="0"
         style="opacity:1;fill:#ffffff" />
      <path
         id="path52"
         d="m 467.84,113.81 c 5.58,-1.65 11.45,-0.63 17.16,-1.02 5.67,-0.01 11.32,0.35 16.98,0.08 5.01,0.71 10.05,-0.56 15.05,0.39 8.78,0.69 16.54,6.6 20.58,14.27 1.63,0.66 3.3,0.39 4.88,-0.32 0.1,-1.77 0.34,-3.64 -0.63,-5.23 l 0.05,-0.07 c 2.21,-2.97 4.48,-5.89 6.79,-8.78 5.35,-0.47 11.3,1.31 14.11,6.23 2.22,3.1 2.15,6.99 2.07,10.62 -0.09,24.69 0.1,49.37 -0.01,74.05 0.09,4.74 1.2,10.53 -2.66,14.18 -2.16,2.6 -5.66,2.92 -8.8,3.18 0.33,-5.67 -0.05,-11.35 0.29,-17.01 3.28,-3.1 6.44,-6.76 6.75,-11.5 0.17,-6 0.2,-12.01 -0.12,-18 -1.36,-3.79 -3.35,-7.42 -6.68,-9.83 -0.08,-3.07 -0.15,-6.14 -0.35,-9.2 l -0.52,-0.77 c -0.44,-1.75 -0.96,-3.47 -1.48,-5.2 -4.41,-8.72 -13.42,-14.94 -23.31,-15.08 -19.96,-0.04 -39.92,-0.06 -59.87,-0.15 -3.01,-0.12 -5.49,-2.33 -7.04,-4.74 -3.14,-5.96 0.45,-14 6.76,-16.1 z"
         inkscape:connector-curvature="0"
         style="opacity:1;fill:#ffffff" />
      <path
         id="path54"
         d="m 197.36,126 c 2.14,-3.9 4.19,-8.22 7.63,-11.1 0.46,0.37 1.38,1.09 1.84,1.45 -2.17,4.01 -6.01,6.8 -9.47,9.65 z"
         inkscape:connector-curvature="0"
         style="opacity:1;fill:#ffffff" />
      <path
         id="path56"
         d="m 630.83,128.78 c 1.83,-3.23 5.26,-5.91 9.15,-5.63 15.62,0.05 31.24,-0.11 46.85,0.09 5.38,0.25 9.14,4.38 13.41,7.01 4.37,-1.28 7.89,-5.12 12.72,-4.9 9.54,0.07 16.71,9.52 16.82,18.58 0.09,23.68 -0.03,47.37 0.06,71.05 0.75,10.16 0.06,20.63 3.63,30.37 -13.06,0.01 -26.12,-0.05 -39.18,0.03 -0.06,-4.46 -0.26,-8.92 0.02,-13.37 7.21,-6.71 12.11,-16.03 12.44,-25.98 -0.26,-3.98 3.71,-6.2 4.46,-9.88 1.91,-7.22 1.41,-15.76 -3.77,-21.55 -0.59,-5.92 0.41,-12.3 -2.49,-17.79 -3.53,-7.58 -11.8,-12.16 -20.01,-12.3 -19.53,-0.25 -39.06,0.21 -58.59,0.05 0.81,-5.4 1.66,-11.01 4.48,-15.78 z"
         inkscape:connector-curvature="0"
         style="opacity:1;fill:#ffffff" />
      <path
         id="path58"
         d="m 460.6,148.75 c 2.84,-4.49 8.05,-7.46 13.39,-7.43 15.01,-0.04 30.02,0 45.03,-0.02 5.44,0.06 11.05,-0.46 16.28,1.4 4.23,2.18 7.95,5.54 10,9.88 1.45,3.03 1.71,6.44 2.19,9.72 -7.8,0.88 -15.66,0.37 -23.48,0.51 -22.13,-0.3 -44.27,0.13 -66.39,-0.24 0.32,-4.68 0.45,-9.7 2.98,-13.82 z"
         inkscape:connector-curvature="0"
         style="opacity:1;fill:#ffffff" />
      <path
         id="path60"
         d="m 757.28,159.95 c -0.27,-7.11 7.18,-11.95 13.69,-11.75 33.01,-0.01 66.03,-0.01 99.04,0.01 6.48,-0.14 13.81,4.7 13.57,11.76 0,18.02 0.03,36.06 -0.02,54.08 -0.04,6.88 -7.17,11.38 -13.48,11.45 -18.36,0.05 -36.72,0.01 -55.08,0.02 -2.9,0.2 -6,-0.57 -8.73,0.65 -9.93,4.89 -19.76,10.01 -29.73,14.84 -0.22,-5.16 -0.18,-10.32 -0.5,-15.47 -4,-0.01 -8.23,0.32 -11.88,-1.66 -3.87,-1.66 -6.99,-5.51 -6.87,-9.85 -0.03,-18.03 -0.01,-36.05 -0.01,-54.08 m 15.68,9.39 c 32.03,0.14 64.08,0.07 96.12,0.03 0.56,-0.38 1.67,-1.13 2.23,-1.5 0.32,-1.78 -0.41,-3.27 -1.77,-4.39 -32.14,-0.02 -64.29,-0.1 -96.43,0.04 -3.83,-0.4 -3.89,5.87 -0.15,5.82 m -2.7,9.31 c 0.13,1.67 -0.54,4.09 1.7,4.57 4.65,0.49 9.35,0.09 14.02,0.21 27,0 54,0 81,0.01 1.6,0.12 3.06,-0.61 4.5,-1.24 0.16,-1.91 -0.54,-3.61 -2.1,-4.71 -31.46,0.06 -62.92,0.02 -94.38,0.02 -1.69,-0.16 -3.24,0.5 -4.74,1.14 m 0.11,13.94 c -0.01,1.61 -0.7,3.92 1.28,4.67 2.4,0.55 4.9,0.26 7.36,0.32 28.31,-0.01 56.63,-0.02 84.94,0.01 2.96,-0.13 6.84,0.86 8.42,-2.46 -0.23,-0.66 -0.71,-1.97 -0.94,-2.63 -4.32,-1.58 -8.99,-0.6 -13.46,-0.85 -27.66,-0.01 -55.31,0 -82.96,-0.01 -1.62,-0.07 -3.14,0.47 -4.64,0.95 m 1.2,14 c -1.92,0.89 -1.02,3.17 -0.95,4.78 2.12,0.35 4.27,0.52 6.43,0.49 16,-0.08 32.01,0.03 48.01,-0.05 1.58,0.23 3.83,-0.97 3.41,-2.83 0.34,-1.86 -1.87,-2.87 -3.41,-2.75 -16.36,-0.09 -32.73,0.02 -49.1,-0.05 -1.48,0.05 -3,-0.1 -4.39,0.41 z"
         inkscape:connector-curvature="0"
         style="opacity:1;fill:#ffffff" />
      <path
         id="path62"
         d="m 651.23,151.33 c 11.58,-0.13 23.16,-0.05 34.74,-0.04 5.66,-0.2 11.09,3.47 13.3,8.63 1.97,3.76 1.3,8.12 1.4,12.2 -1.92,0.32 -4.78,1.41 -4.11,3.93 0.37,4.06 6.05,1.57 7.57,4.78 2.63,5.26 2.07,11.84 -0.48,17.05 -0.45,-1.74 -0.89,-3.48 -1.29,-5.22 -1.8,-1.46 -3.82,-0.86 -5.67,0.12 -0.23,3.47 -0.22,6.96 -0.02,10.44 1.34,0.52 2.66,1.08 4.01,1.64 -0.87,6.85 -2.8,13.92 -7.58,19.12 -6.63,7.64 -17.17,10.82 -27.04,10.41 -12.08,-0.63 -23.69,-6.99 -30.72,-16.84 -6.18,-8.11 -8.69,-18.47 -8.58,-28.53 0.12,-3.33 1.57,-6.41 2.86,-9.42 2.21,-0.97 4.45,-0.97 6.6,0.2 0.79,2.33 1.05,5.08 3.23,6.61 0.51,-0.02 1.52,-0.06 2.03,-0.08 3.45,-1.99 1.98,-6.49 0.27,-9.19 -2.54,-4.59 -9.12,-6.09 -13.54,-3.59 1.55,-4.1 2.51,-8.49 5.03,-12.17 3.81,-6.1 10.8,-9.96 17.99,-10.05 m 9.41,32.91 c 1.15,2.26 3.66,2.46 5.61,1.14 0.64,-3.02 2.05,-7.01 5.89,-6.69 3.48,0.23 3.78,4.01 4.55,6.65 2.04,1.51 4.34,0.88 5.93,-0.95 0.24,-5.94 -4.21,-12.31 -10.61,-11.98 -6.48,-0.63 -11.86,5.6 -11.37,11.83 m -11.66,-3.12 c -1.12,3.08 -2.02,6.29 -3.81,9.09 -1.48,2.86 -4.79,5.29 -3.45,8.86 4.58,1.4 8.96,5.17 13.87,4.34 0.27,-0.35 0.8,-1.05 1.07,-1.4 1.47,-4.55 -4.4,-5.01 -7.17,-6.75 2.61,-3.95 5.03,-8.42 5.25,-13.22 0.24,-3.04 -4.84,-3.66 -5.76,-0.92 m 35.71,7.39 c -2.56,2.84 -6.38,3.63 -9.98,4.17 -1.53,1.74 -1.84,4.83 0.75,5.74 4.1,0.49 8.29,-1.03 11.58,-3.44 1.84,-1.54 4.36,-3.44 3.39,-6.19 -1.17,-2.09 -4.32,-2.07 -5.74,-0.28 m -40.3,21.07 c -2.07,0.94 -2.55,4.23 -0.5,5.54 5.64,5.3 14.76,5.4 20.82,0.71 2.51,-0.99 2.88,-4.77 0.65,-6.26 -4.21,-1.05 -6.97,4.37 -11.39,3.2 -3.77,0.6 -5.88,-4.38 -9.58,-3.19 z"
         inkscape:connector-curvature="0"
         style="opacity:1;fill:#ffffff" />
      <path
         id="path64"
         d="m 193.77,153.7 c 11.97,-0.01 23.95,0.03 35.93,-0.02 -0.04,1.88 -0.08,3.77 -0.11,5.65 -11.71,-3.15 -24.13,-2.9 -35.83,0.12 -0.01,-1.92 0,-3.83 0.01,-5.75 z"
         inkscape:connector-curvature="0"
         style="opacity:1;fill:#ffffff" />
      <path
         id="path66"
         d="m 328.05,158.75 c 29.65,-0.2 59.31,-0.41 88.97,-0.51 6.22,-0.16 11.08,5.81 11.16,11.75 0.09,11.99 0.1,23.99 0.22,35.99 0.19,4.23 -1.87,8.56 -5.51,10.82 -4.19,2.75 -9.43,1.5 -14.13,1.84 0.02,5.21 0.11,10.43 0.06,15.65 -7.44,-4.93 -15.05,-9.63 -22.57,-14.43 -2.1,-1.56 -4.79,-0.93 -7.2,-1.03 -16.7,0.47 -33.4,0.3 -50.1,0.51 -6.69,0.32 -12.26,-5.8 -12.17,-12.32 -0.08,-12 -0.2,-24 -0.25,-35.99 -0.17,-6.27 5.09,-12.33 11.52,-12.28 m 0.54,13.77 c -1.05,1.71 -1.05,3.54 0.08,5.19 27.79,0.01 55.57,-0.25 83.35,-0.45 2.59,0.26 3.04,-2.35 2.87,-4.3 -0.45,-0.32 -1.36,-0.98 -1.82,-1.3 -14.67,0.12 -29.36,-0.15 -44.02,0.52 -13.49,0.14 -26.98,-0.11 -40.46,0.34 m 1.37,12.2 c -3.08,0.13 -3.16,5.1 -0.09,5.49 6.36,0.21 12.73,-0.06 19.1,0.01 21.68,-1.04 43.42,-0.11 65.12,-0.9 0.32,-0.56 0.97,-1.7 1.29,-2.27 -0.21,-0.61 -0.63,-1.83 -0.84,-2.45 -4.69,-1.59 -9.71,-0.61 -14.53,-0.42 -23.35,0.22 -46.71,0.13 -70.05,0.54 m -1.77,14.42 c -1.21,1.77 0.89,4.06 2.82,3.66 15.2,-0.05 30.43,0.12 45.62,-0.32 2.57,-0.27 2.07,-2.92 1.88,-4.77 -1.15,-0.28 -2.29,-0.53 -3.44,-0.73 -14.34,0.42 -28.71,0.12 -43.06,0.38 -1.42,0.08 -3.46,-0.02 -3.82,1.78 z"
         inkscape:connector-curvature="0"
         style="opacity:1;fill:#ffffff" />
      <path
         id="path68"
         d="m 188.08,167.64 c 8.57,-3.16 17.71,-4.9 26.87,-4.4 4,-0.13 7.81,1.32 11.79,1.3 -6.72,1.15 -13.48,2.49 -19.66,5.5 -2.36,1.01 -4.47,2.59 -6.93,3.36 -3.89,-2.19 -7.89,-4.18 -12.07,-5.76 z"
         inkscape:connector-curvature="0"
         style="opacity:1;fill:#ffffff" />
      <path
         id="path70"
         d="m 521.36,169.36 c 8.43,-0.17 16.91,0.41 25.3,-0.45 4.59,0.97 7.58,5.52 7.52,10.07 -0.02,5.4 0.45,10.88 -0.75,16.19 -1.27,1.81 -2.8,3.43 -4.96,4.1 -0.09,-3.11 0.13,-6.24 -0.2,-9.34 -0.83,-2.5 -3.71,-1.6 -5.65,-1.42 -1.26,5.07 -0.3,10.3 -0.37,15.46 -0.08,2.68 3.15,2.56 5.07,2.73 -0.17,4.81 0.48,9.72 -0.75,14.43 -1.6,7.88 -8.66,14.25 -16.65,15.09 -4.84,0.47 -9.71,0.06 -14.56,0.26 -0.14,-1.66 0.69,-3.85 -1.07,-4.91 -1.53,-0.6 -3.81,-0.72 -4.66,1 -3.21,5.67 -7.65,11.9 -14.55,12.99 -5.59,0.13 -11.22,0.29 -16.79,-0.1 -4.19,-1.14 -4.88,-6.01 -6.11,-9.51 -7.34,-2.6 -13.41,-9 -14.12,-16.97 -0.72,-9.1 -0.11,-18.28 -0.31,-27.41 3.7,-0.12 7.42,0.11 11.11,-0.25 4.47,-0.7 8.33,-3.48 11.2,-6.86 0.02,0.08 0.07,0.23 0.09,0.3 -1.7,4.22 -3.24,8.52 -4.67,12.84 -1.04,3.19 0.07,7.31 3.53,8.43 3.92,1.06 8,1.91 12.09,1.64 0.34,-0.66 1,-1.98 1.34,-2.65 -0.24,-0.65 -0.71,-1.96 -0.95,-2.62 -3.23,-1.05 -6.59,-1.61 -9.89,-2.34 0.98,-3.69 2.27,-7.3 3.69,-10.85 6.14,3 13.05,2.38 19.68,2.22 7.37,-0.44 14.02,-6.17 15.75,-13.33 0.87,-2.83 0.59,-5.83 0.64,-8.74 m -19.52,40.09 c -1.75,1.5 -2.76,3.58 -3.93,5.51 -1.33,2.12 -3.68,3.22 -5.74,4.47 -2.78,0.14 -5.66,0.63 -8.36,-0.21 -2.07,-1 -3.43,-2.92 -4.88,-4.61 -1.68,0.04 -4.37,0.16 -4.5,2.37 -0.63,2.41 1.54,4.11 3.04,5.62 4.54,4.08 11.17,4.35 16.8,2.74 5.18,-2.22 10.63,-6.4 11.35,-12.34 0.32,-2.35 -2.22,-2.71 -3.78,-3.55 z"
         inkscape:connector-curvature="0"
         style="opacity:1;fill:#ffffff" />
      <path
         id="path72"
         d="m 444.67,169.4 c 10.6,-0.08 21.21,-0.06 31.82,-0.01 -0.22,3.46 0.7,7.33 -1.33,10.42 -1.65,2.91 -4.67,5.1 -8.07,5.25 -5.41,0.16 -10.91,0.5 -16.24,-0.62 -2.95,-1.94 -5.18,-4.71 -6.13,-8.14 -0.02,-2.3 -0.04,-4.6 -0.05,-6.9 m 8.68,7.03 c -2.43,1.17 -2,4.93 0.5,5.82 3.42,0.22 6.87,0.21 10.31,-0.01 1.2,-0.66 1.69,-1.99 2.36,-3.1 -0.34,-0.66 -1.02,-1.97 -1.36,-2.62 -3.89,-0.84 -7.92,-0.63 -11.81,-0.09 z"
         inkscape:connector-curvature="0"
         style="opacity:1;fill:#ffffff" />
      <path
         id="path74"
         d="m 201.95,178.93 c 11.2,-7.86 25.67,-10.69 39.07,-8.11 1.88,0.34 3.5,1.38 5.1,2.36 -11.48,-0.45 -22.92,4.81 -30.02,13.83 -14.73,17.93 -14.29,46.46 1.14,63.83 6.22,6.96 14.99,11.77 24.43,12.16 -0.1,0.26 -0.3,0.78 -0.4,1.04 -21.48,11.07 -49.5,8.98 -68.25,-6.62 9.82,-5.73 12.35,-17.71 14.15,-28.04 1.16,-10.29 0.95,-20.86 -1.81,-30.89 -1.92,-8.14 -5.93,-17.15 -14.46,-20.06 3.17,-2.59 6.33,-5.27 10.04,-7.07 5.95,1.04 11.53,3.66 16.57,6.93 1.25,0.81 3.07,1.82 4.44,0.64 z"
         inkscape:connector-curvature="0"
         style="opacity:1;fill:#ffffff" />
      <path
         id="path76"
         d="m 483.27,169.36 c 10.57,0.01 21.15,-0.03 31.72,0.02 0.06,3.42 0.17,7.13 -1.68,10.17 -1.25,2.07 -3.32,3.43 -5.21,4.87 -4.66,1.03 -9.47,0.85 -14.21,0.67 -4.66,-0.21 -8.81,-3.67 -10.26,-8.03 -0.53,-2.53 -0.32,-5.14 -0.36,-7.7 m 7.95,6.96 c -2.41,0.34 -1.69,3.09 -1.76,4.8 0.58,0.31 1.73,0.94 2.31,1.25 3.46,-0.01 6.92,0 10.39,-0.03 0.54,-0.35 1.62,-1.05 2.16,-1.39 0.08,-1.59 -0.34,-3.1 -0.86,-4.56 -4.07,-0.16 -8.21,-0.79 -12.24,-0.07 z"
         inkscape:connector-curvature="0"
         style="opacity:1;fill:#ffffff" />
      <path
         id="path78"
         d="m 223.79,187.76 c 6.26,-6.21 15.32,-9.4 24.09,-8.03 -9.29,1.01 -17.85,6.24 -23.08,13.96 -3.68,5.02 -5.66,10.99 -7.01,17 -1.83,11.13 0.58,23.05 7.1,32.31 5.1,7.76 13.89,12.86 23.07,13.89 -9.64,1.49 -19.55,-2.73 -25.95,-9.92 -14.65,-16.19 -14.11,-44.03 1.78,-59.21 z"
         inkscape:connector-curvature="0"
         style="opacity:1;fill:#ffffff" />
      <path
         id="path80"
         d="m 164.5,184.94 c 4.58,-2.05 8.99,1.25 11.1,5.17 4.88,8.73 6.23,19 6.11,28.88 -0.03,9.46 -1.43,19.31 -6.21,27.62 -1.98,3.65 -6.21,7.09 -10.54,5.21 1.92,-2.64 4.84,-4.56 6.04,-7.77 5.31,-11.8 6.18,-25.33 4.06,-38.01 -1.43,-7.76 -3.67,-16.36 -10.56,-21.1 z"
         inkscape:connector-curvature="0"
         style="opacity:1;fill:#ffffff" />
      <path
         id="path82"
         d="m 244.52,185.86 c 8.4,-2.29 17.66,0.82 23.58,7.05 11.21,11.47 12.85,30.49 4.94,44.22 -3.93,7.03 -10.84,12.75 -18.93,14.01 -8.2,1.46 -16.65,-1.98 -22.17,-8.06 -10.12,-10.97 -12.04,-28.27 -5.47,-41.53 3.49,-7.4 10,-13.67 18.05,-15.69 m 4.76,17.16 c 0.47,0.56 1.4,1.66 1.87,2.21 0.44,0 1.31,0.01 1.75,0.02 2.7,-1.13 5.69,-2.7 8.67,-1.65 2.92,1.42 2.47,5.57 0.55,7.65 -2.75,3.56 -6.97,6.81 -6.73,11.79 -0.5,2.2 1.07,4.8 3.56,4.25 2.58,0.01 2.6,-2.89 2.96,-4.74 0.6,-4.3 4.98,-6.32 7.11,-9.73 2.88,-4.2 2.74,-10.82 -1.59,-14.02 -3.39,-2.19 -7.75,-2.65 -11.57,-1.43 -2.91,0.69 -6.12,2.38 -6.58,5.65 m 6.57,28.76 c -2.3,1.56 -1.56,4.64 -0.42,6.7 2.86,1.71 7.93,0.6 7.35,-3.49 0.53,-3.61 -4.49,-5.56 -6.93,-3.21 z"
         inkscape:connector-curvature="0"
         style="opacity:1;fill:#ffffff" />
      <path
         id="path84"
         d="m 159,189.84 c 2.22,-0.75 4.16,1.03 5.51,2.57 3.72,5.11 4.89,11.55 5.75,17.67 0.74,10.67 0.65,22 -4.22,31.78 -1.42,2.88 -4.44,6.27 -8.01,4.56 -3.03,-1.79 -4.25,-5.29 -5.92,-8.19 2.03,2.38 5.62,4.59 8.48,2.09 3.11,-2.9 5.85,-7.64 4.31,-11.93 -4.94,-0.03 -9.89,0.01 -14.84,0.11 -1.21,-10 -0.95,-20.4 2.32,-30 1.28,-3.39 2.97,-7.28 6.62,-8.66 m -2.61,13.6 c -2.48,2.06 -2.44,5.6 -1.98,8.51 0.39,1.8 1.55,4.05 3.78,3.57 3.13,-2.67 3.13,-7.78 1.14,-11.13 -0.49,-1.13 -1.9,-1.27 -2.94,-0.95 z"
         inkscape:connector-curvature="0"
         style="opacity:1;fill:#ffffff" />
      <path
         id="path86"
         d="m 152.93,232.74 c 3.05,-0.06 6.1,-0.07 9.15,-0.05 -0.74,1.81 -1.84,4.12 -4.08,4.23 -2.64,0.47 -4.39,-1.98 -5.07,-4.18 z"
         inkscape:connector-curvature="0"
         style="opacity:1;fill:#ffffff" />
      <path
         id="path88"
         d="m 663.71,240.67 c 8.18,0.55 16.52,-0.75 23.9,-4.4 -0.07,8.8 0.22,17.62 -0.13,26.4 -1.87,4.85 -6.15,9.46 -11.43,10.43 -4.12,0.14 -8.37,0.57 -12.34,-0.73 0.02,-10.57 0.01,-21.13 0,-31.7 z"
         inkscape:connector-curvature="0"
         style="opacity:1;fill:#ffffff" />
      <path
         id="path90"
         d="m 503.76,248.93 c 2.71,-1.63 4.58,-4.29 7.17,-6.06 5.73,-0.25 11.48,-0.01 17.23,-0.09 0,2.78 0,5.57 0,8.36 -9.71,4.67 -19.47,9.26 -29.18,13.93 -3.62,-1.6 -7.39,-2.97 -10.73,-5.11 -0.17,-2.58 -0.05,-5.17 -0.05,-7.75 5.32,0.19 11.06,-0.08 15.56,-3.28 z"
         inkscape:connector-curvature="0"
         style="opacity:1;fill:#ffffff" />
      <path
         id="path92"
         d="m 501.65,270.98 c 11.8,-5.6 23.58,-11.25 35.39,-16.83 -0.02,2.3 -0.05,4.6 -0.14,6.91 -11.84,5.5 -23.42,11.55 -35.26,17.05 -0.03,-2.38 -0.03,-4.75 0.01,-7.13 z"
         inkscape:connector-curvature="0"
         style="opacity:1;fill:#ffffff" />
      <path
         id="path94"
         d="m 480.29,263.81 c 5.02,2.24 10.06,4.42 14.96,6.89 -0.02,2.46 -0.03,4.93 -0.08,7.39 -4.99,-2.63 -9.93,-5.4 -14.71,-8.39 -0.3,-1.95 -0.16,-3.93 -0.17,-5.89 z"
         inkscape:connector-curvature="0"
         style="opacity:1;fill:#ffffff" />
      <path
         id="path96"
         d="m 449.72,289.01 c 0.51,-12.11 11.74,-22.61 23.92,-21.94 0.28,2.46 -0.82,5.98 1.9,7.38 6.75,3.98 13.59,7.8 20.36,11.75 2.31,1.53 4.85,-0.26 6.96,-1.26 12.38,-6.11 24.7,-12.34 37.2,-18.18 7.99,0.25 16.13,-0.83 24.01,0.91 10.1,2.28 17.79,11.94 17.95,22.27 0.22,14.16 0.03,28.34 0.09,42.5 -7.9,0.05 -15.79,0.01 -23.68,0.03 0.04,-10.35 -0.16,-20.71 0.08,-31.04 1.59,-3.22 4.79,-5.38 6.65,-8.46 1.21,-2.53 -1.78,-5.48 -4.27,-4.11 -1.96,1.61 -3.45,3.7 -5.39,5.33 -1.26,-1.97 -2.1,-4.41 -4.24,-5.63 -2.1,-0.42 -4.45,1.26 -4.05,3.53 0.63,2.36 2.35,4.22 3.5,6.33 1.82,2.49 0.9,5.77 1.14,8.63 -1.93,-0.3 -3.9,-0.89 -5.83,-0.33 -1.9,0.67 -3.21,2.34 -5.02,3.15 -2.17,-1.43 -4.16,-3.69 -7.01,-3.38 -2.86,-0.18 -4.89,2.03 -6.93,3.67 -2.01,-1.71 -4.12,-3.9 -7.01,-3.65 -2.9,-0.3 -4.69,2.29 -7.06,3.41 -2.19,-1.39 -4.17,-3.67 -7.02,-3.39 -2.86,-0.16 -4.9,2.05 -6.94,3.69 -2.04,-1.7 -4.15,-3.95 -7.06,-3.66 -2.77,-0.21 -4.65,2.02 -6.79,3.37 -2.4,-1.09 -4.2,-3.71 -7.14,-3.35 -2.93,-0.24 -4.98,2.06 -7.03,3.76 -1.23,-1.1 -2.57,-2.07 -3.67,-3.28 -0.14,-1.58 -0.19,-3.18 0.09,-4.74 1.99,-3.01 5.06,-5.18 6.81,-8.37 1.2,-2.43 -1.83,-5.31 -4.22,-3.96 -1.95,1.3 -3.07,3.52 -5,4.83 -2.31,-0.76 -2.32,-4.61 -4.97,-5.06 -2.22,-0.58 -3.46,1.46 -4.18,3.16 1.41,3.13 3.96,5.76 4.87,9.07 0.16,10.16 -0.04,20.32 0.09,30.48 -3.73,0.05 -7.46,0.06 -11.18,0.02 0.05,-14.5 -0.1,-28.99 0.07,-43.48 z"
         inkscape:connector-curvature="0"
         style="opacity:1;fill:#ffffff" />
      <path
         id="path98"
         d="m 631.41,269.43 c 0.87,-2.2 3.44,-2.33 5.37,-2.97 -1.95,7.08 -0.52,14.46 -1.13,21.68 -1.08,3.13 -3.04,5.89 -4.47,8.87 -0.07,-6.33 -0.02,-12.67 -0.03,-19 0.04,-2.86 -0.24,-5.75 0.26,-8.58 z"
         inkscape:connector-curvature="0"
         style="opacity:1;fill:#ffffff" />
      <path
         id="path100"
         d="m 649.55,266.83 c 0.95,-0.03 2.84,-0.08 3.79,-0.1 1.79,5.96 5.84,11.86 12.18,13.47 6.23,1.34 13.06,0.26 18.36,-3.37 3.75,-2.6 6.77,-6.14 9.08,-10.05 1.47,0 2.94,0.01 4.42,0.04 -3.44,9.41 -12.3,16.76 -22.31,17.93 -6.52,1.31 -13.9,-0.26 -18.62,-5.14 -3.65,-3.39 -5.44,-8.15 -6.9,-12.78 z"
         inkscape:connector-curvature="0"
         style="opacity:1;fill:#ffffff" />
      <path
         id="path102"
         d="m 688.55,286.79 c 7.76,-4.33 12.64,-12.11 16.14,-20.02 6.73,0.33 13.65,-0.79 20.22,1.14 9.2,3.01 15.23,12.6 15.23,22.11 0.11,14.16 -0.02,28.32 0.05,42.48 -7.62,0.13 -15.25,0.03 -22.87,0.06 -0.05,-14.88 0.08,-29.77 -0.06,-44.66 0.04,-2.72 -3.88,-4.75 -5.63,-2.23 -1.47,3.09 -2.19,6.69 -4.95,8.99 -1.51,1.75 -4.34,2.8 -4.32,5.47 0.6,1.04 1.06,2.64 2.56,2.61 2.33,0.6 3.97,-1.72 5.79,-2.78 -0.02,18.01 0.06,36.02 0.13,54.04 -0.02,12.43 0.01,24.86 -0.02,37.29 -10.38,0.05 -20.76,-0.02 -31.14,0.04 -1.46,-4.26 -4.92,-8.11 -9.55,-8.72 -3.33,-0.24 -6.94,-0.47 -9.89,1.38 -2.95,1.49 -4.57,4.49 -5.93,7.34 -4.36,-0.03 -8.72,-0.02 -13.07,-0.03 -0.03,-21.22 -0.04,-42.44 0,-63.66 14.58,1 29.22,0.25 43.83,0.48 4.06,-0.08 8.17,0.35 12.18,-0.55 0.31,-0.67 0.93,-2.02 1.24,-2.69 -0.74,-1.38 -1.47,-3.36 -3.44,-3.05 -17.36,-0.34 -34.75,0.36 -52.09,-0.38 -3.37,-0.59 -8.32,-0.74 -9.58,-4.56 -0.58,-9.62 4.07,-18.6 8.85,-26.64 1.31,-2.56 4.37,-4.82 3.44,-8.03 -0.31,-1.58 -2.25,-1.62 -3.43,-2.16 -0.02,-3.38 -0.07,-6.76 0.11,-10.13 1.15,0.16 1.85,0.83 2.08,1.99 2.66,7.55 7.97,14.63 15.61,17.62 9.22,3.64 20,2.06 28.51,-2.75 z"
         inkscape:connector-curvature="0"
         style="opacity:1;fill:#ffffff" />
      <path
         id="path104"
         d="m 618.24,288.99 c 0.06,-5.66 2.33,-11.25 6.31,-15.29 0.15,19.63 0.05,39.26 0.05,58.89 -2.15,-0.03 -4.29,-0.04 -6.42,-0.07 0.09,-14.51 -0.03,-29.02 0.06,-43.53 z"
         inkscape:connector-curvature="0"
         style="opacity:1;fill:#ffffff" />
      <path
         id="path106"
         d="m 192.63,277.1 c 12.74,-0.02 25.47,-0.06 38.2,0.03 -0.09,1.06 -0.18,2.12 -0.27,3.18 -12.66,-0.07 -25.32,0.04 -37.97,-0.06 0.01,-0.78 0.03,-2.36 0.04,-3.15 z"
         inkscape:connector-curvature="0"
         style="opacity:1;fill:#ffffff" />
      <path
         id="path108"
         d="m 192.59,286.7 c 12.66,-0.09 25.33,0.01 38,-0.05 0.07,1.07 0.15,2.14 0.23,3.22 -12.73,0.16 -25.46,0.1 -38.19,0.02 -0.01,-0.79 -0.03,-2.39 -0.04,-3.19 z"
         inkscape:connector-curvature="0"
         style="opacity:1;fill:#ffffff" />
      <path
         id="path110"
         d="m 166.04,290.44 c 6.69,-0.01 13.38,-0.02 20.07,0 1.03,3.02 3.52,5.72 6.9,5.74 12.34,0.12 24.69,0.06 37.02,0.03 3.6,0.15 6.23,-2.71 7.47,-5.79 11.46,0.65 23.58,-1.89 34.42,2.96 8.57,3.57 15.24,10.82 18.88,19.27 -2.87,0.42 -6.56,-1.02 -8.83,1.27 -2.81,6.99 -4.6,14.37 -7.14,21.48 -2.14,0.14 -4.28,0.29 -6.41,0.43 0,-7.95 0.08,-15.91 -0.02,-23.86 0.34,-1.98 -1.51,-3.6 -3.43,-3.33 -24.32,-0.11 -48.64,0.04 -72.96,-0.05 -1.83,0.09 -4.02,-0.32 -5.32,1.29 -0.65,1.97 -0.4,4.07 -0.45,6.11 0.12,8.24 -0.15,16.5 0.12,24.75 -0.1,1.96 2.04,2.85 3.73,2.68 18.65,0.06 37.3,-0.02 55.95,0.03 1.86,-0.4 2.67,1.54 3.8,2.58 -1.48,2.64 -2.8,5.36 -3.81,8.21 -4.72,-0.33 -8.58,-3.36 -13.03,-4.63 -0.63,0.24 -1.89,0.71 -2.52,0.94 -0.5,1.12 -1,2.25 -1.48,3.38 -34.99,0.33 -70,0.05 -105,0.15 0.04,-5.44 -0.11,-10.88 0.13,-16.31 8.96,0.04 17.91,0.01 26.87,0.02 5.24,-0.08 10.5,0.18 15.73,-0.12 2.41,-0.11 2.26,-2.89 2.37,-4.64 -0.02,-11.04 0.09,-22.09 -0.06,-33.12 0.06,-3.43 -1.18,-6.62 -3,-9.47 z"
         inkscape:connector-curvature="0"
         style="opacity:1;fill:#ffffff" />
      <path
         id="path112"
         d="m 129.75,306.53 c 4.85,-7.46 12.62,-13.08 21.33,-15.05 3.1,-0.16 6.77,-0.27 9.09,2.16 2.07,1.82 2.63,4.69 2.55,7.33 0,10.2 0,20.41 0,30.62 -12.9,0.01 -25.79,-0.03 -38.69,0.02 -0.51,-8.65 0.67,-17.79 5.72,-25.08 z"
         inkscape:connector-curvature="0"
         style="opacity:1;fill:#ffffff" />
      <path
         id="path114"
         d="m 335.81,298.88 c 3.39,0.02 6.78,0.01 10.18,0.01 -0.85,4.95 -4.82,9.31 -3.55,14.5 3.54,0.94 7.2,0.77 10.82,0.75 -1.56,4.21 -3.2,8.41 -4.66,12.67 -9.2,0.08 -18.41,-0.01 -27.61,0.03 -2.7,0.01 -5.39,-0.01 -8.07,-0.14 1.75,-4.28 3.41,-8.61 5.04,-12.94 3.65,-0.32 7.59,0.65 11.08,-0.59 3.12,-4.24 4.33,-9.64 6.77,-14.29 z"
         inkscape:connector-curvature="0"
         style="opacity:1;fill:#ffffff" />
      <path
         id="path116"
         d="m 467.28,315.72 c 3.92,1.89 8.06,0.2 10.78,-2.86 2.02,1.61 4.05,3.87 6.9,3.63 3,0.45 4.85,-2.2 7.2,-3.44 2.19,1.31 3.98,3.76 6.84,3.43 2.92,0.29 5.06,-1.93 7.06,-3.7 2.03,1.67 4.1,3.95 7,3.67 2.95,0.39 4.8,-2.22 7.13,-3.46 2.14,1.4 4.03,3.71 6.86,3.45 2.91,0.25 5.05,-1.98 7.05,-3.73 2.01,1.64 4.03,3.89 6.89,3.71 2.93,0.33 4.94,-2.08 7.18,-3.5 1.38,0.75 2.5,1.88 3.69,2.9 -0.05,3.29 -0.05,6.59 -0.03,9.88 -3.95,-1.37 -8.1,-0.15 -10.6,3.17 -2.12,-1.69 -4.23,-4.07 -7.23,-3.66 -2.92,-0.33 -4.95,1.99 -6.94,3.71 -1.98,-1.82 -4.12,-4.1 -7.09,-3.7 -2.89,-0.31 -4.92,2.03 -6.91,3.73 -2.02,-1.77 -4.13,-4.08 -7.09,-3.72 -2.91,-0.28 -4.97,2.04 -6.94,3.77 -1.96,-1.79 -4.06,-4.12 -7,-3.75 -2.93,-0.35 -4.88,2.1 -7.02,3.62 -2.09,-1.58 -4.06,-3.99 -6.98,-3.61 -2.95,-0.34 -5,2.04 -6.99,3.8 -1.24,-1.12 -2.49,-2.22 -3.75,-3.29 -0.01,-3.35 0,-6.7 -0.01,-10.05 z"
         inkscape:connector-curvature="0"
         style="opacity:1;fill:#ffffff" />
      <path
         id="path118"
         d="m 251.46,314.4 c 0.49,0.05 1.45,0.14 1.93,0.18 0.77,1.15 0.67,2.14 -0.31,2.97 -1.44,0.02 -2.34,-2.01 -1.62,-3.15 z"
         inkscape:connector-curvature="0"
         style="opacity:1;fill:#ffffff" />
      <path
         id="path120"
         d="m 259.55,315.48 c 0.45,-0.29 1.33,-0.85 1.78,-1.14 1.48,4.47 0.96,9.51 0.3,14.11 -3.26,-3.61 -1.73,-8.61 -2.08,-12.97 z"
         inkscape:connector-curvature="0"
         style="opacity:1;fill:#ffffff" />
      <path
         id="path122"
         d="m 192.49,315.23 c 1.48,-0.19 2.96,-0.41 4.46,-0.42 14.69,0 29.38,0.02 44.07,-0.01 2.04,-0.02 4.07,0.25 6.09,0.48 -4.45,3.33 -8.76,6.85 -13.24,10.14 2.5,4.2 5.86,7.78 8.75,11.71 -16.6,-0.02 -33.21,0.09 -49.81,-0.05 -0.7,-7.21 -0.01,-14.58 -0.32,-21.85 m 5.89,4.35 c -5.64,1.26 -7.45,9.34 -2.9,12.89 4.04,3.77 11.53,1.14 12.18,-4.39 1.22,-5.17 -4.28,-10.11 -9.28,-8.5 z"
         inkscape:connector-curvature="0"
         style="opacity:1;fill:#ffffff" />
      <path
         id="path124"
         d="m 249,437.04 c 12.67,-39.27 25.09,-78.63 37.75,-117.91 7.44,0.07 14.89,-0.02 22.33,0.11 -0.33,0.87 -0.68,1.73 -1.08,2.57 -6.4,0.6 -12.9,-0.5 -19.26,0.64 -12.77,39.55 -25.94,78.99 -38.66,118.56 -2.4,-0.06 -1.55,-2.46 -1.08,-3.97 z"
         inkscape:connector-curvature="0"
         style="opacity:1;fill:#ffffff" />
      <path
         id="path126"
         d="m 358.13,319.35 c 6,0.17 12.04,-0.18 18.02,0.26 0.42,0.58 1.26,1.72 1.67,2.3 -6.88,0.12 -13.76,-0.01 -20.63,0.08 0.23,-0.66 0.71,-1.98 0.94,-2.64 z"
         inkscape:connector-curvature="0"
         style="opacity:1;fill:#ffffff" />
      <path
         id="path128"
         d="m 242.27,327.72 c 2.46,-2.06 5,-4.01 7.6,-5.88 3.87,5.42 8.37,10.35 12.11,15.87 -2.96,1.22 -5.69,2.88 -8.53,4.34 -3.66,-4.83 -7.38,-9.61 -11.18,-14.33 z"
         inkscape:connector-curvature="0"
         style="opacity:1;fill:#ffffff" />
      <path
         id="path130"
         d="m 631.16,324.41 c 1.18,0.61 2.38,1.21 3.59,1.81 0.06,7.66 0.04,15.33 0.02,22.99 -1.19,0 -2.36,0 -3.53,0.01 -0.54,-8.27 0.12,-16.54 -0.08,-24.81 z"
         inkscape:connector-curvature="0"
         style="opacity:1;fill:#ffffff" />
      <path
         id="path132"
         d="m 199.37,327.93 c -1.28,-1.36 0.71,-3.73 2.11,-2.28 1.21,1.27 -0.79,3.89 -2.11,2.28 z"
         inkscape:connector-curvature="0"
         style="opacity:1;fill:#ffffff" />
      <path
         id="path134"
         d="m 293.64,328.23 c 3.85,-0.03 7.71,-0.01 11.56,-0.03 -0.24,2.07 -0.01,4.86 2.68,5 14.02,0.29 28.05,0.11 42.07,0.13 3.14,0.54 3.95,-2.88 4.87,-5.09 7.56,-0.06 15.12,0 22.69,-0.04 -6.42,18.17 -13.19,36.22 -19.61,54.39 -0.79,-0.06 -2.37,-0.19 -3.16,-0.25 -3.37,3.67 -6.39,7.64 -9.35,11.63 -1.05,3.83 3.29,5.96 5.12,8.74 -4.9,13.95 -10.13,27.78 -15.07,41.72 -26.63,0 -53.26,0 -79.89,0 12.7,-38.73 25.26,-77.51 38.09,-116.2 z"
         inkscape:connector-curvature="0"
         style="opacity:1;fill:#ffffff" />
      <path
         id="path136"
         d="m 540.95,335.13 c 2.96,0.28 5.09,-1.95 7.05,-3.79 0.44,0.21 1.31,0.61 1.75,0.82 -0.75,0.55 -1.49,1.11 -2.23,1.67 -0.43,6.39 -0.12,12.8 -0.23,19.19 0.14,1.51 -0.31,3.46 1.2,4.44 1.34,0.25 2.7,0.42 4.08,0.49 0.15,13.75 0.11,27.5 0.02,41.25 -28.44,-0.04 -56.88,-0.05 -85.32,-0.08 0.01,-21.55 0.06,-43.1 -0.03,-64.65 4.02,1.93 8.16,0.06 10.82,-3.1 1.96,1.77 4.01,4 6.91,3.86 2.97,0.23 5.09,-2.07 7.08,-3.89 1.99,1.75 4.01,4.06 6.94,3.87 2.97,0.23 5.1,-2.05 7.06,-3.89 1.96,1.77 4.03,4.01 6.93,3.86 2.98,0.27 5.07,-2.05 7.05,-3.87 2,1.71 4.04,3.99 6.93,3.85 2.98,0.25 5.12,-2.03 7.1,-3.88 1.98,1.72 4.01,3.95 6.89,3.85 z"
         inkscape:connector-curvature="0"
         style="opacity:1;fill:#ffffff" />
      <path
         id="path138"
         d="m 442.42,338.68 c 6.09,0.84 12.25,0.43 18.38,0.51 0.01,4.12 0.02,8.24 -0.03,12.36 -6.13,-0.03 -12.27,-0.02 -18.4,0 -0.05,-4.29 -0.08,-8.59 0.05,-12.87 z"
         inkscape:connector-curvature="0"
         style="opacity:1;fill:#ffffff" />
      <path
         id="path140"
         d="m 553.61,338.79 c 11.06,0 22.11,-0.01 33.16,0 0.11,4.24 0.07,8.49 0.05,12.74 -11.08,0.01 -22.15,0 -33.23,0 -0.03,-4.25 -0.04,-8.5 0.02,-12.74 z"
         inkscape:connector-curvature="0"
         style="opacity:1;fill:#ffffff" />
      <path
         id="path142"
         d="m 618.2,338.9 c 2.14,0 4.28,0.01 6.43,0.02 0,3.44 0,6.89 -0.07,10.34 -2.14,-0.02 -4.26,-0.01 -6.38,0.01 0.04,-3.46 0.03,-6.91 0.02,-10.37 z"
         inkscape:connector-curvature="0"
         style="opacity:1;fill:#ffffff" />
      <path
         id="path144"
         d="m 717.43,338.96 c 6.81,-0.14 13.62,-0.04 20.43,-0.06 0.01,31.17 0.26,62.33 0.06,93.49 -0.65,-0.08 -1.94,-0.26 -2.58,-0.35 -0.37,-6.07 0.12,-12.16 -0.2,-18.23 -0.4,-3.49 -6.07,-3.43 -6.27,0.12 -0.3,6.27 0.03,12.55 -0.16,18.83 -0.57,-0.04 -1.73,-0.13 -2.3,-0.18 -0.24,-6.23 0.09,-12.48 -0.16,-18.7 -0.16,-3.57 -6.21,-3.7 -6.41,-0.04 -0.27,5.15 0.03,10.32 -0.14,15.49 -1.1,-0.46 -2.53,-0.92 -2.21,-2.39 -0.12,-29.33 0,-58.65 -0.06,-87.98 z"
         inkscape:connector-curvature="0"
         style="opacity:1;fill:#ffffff" />
      <path
         id="path146"
         d="m 252.68,354.84 c 3.04,-8.13 11.73,-12.32 20,-12.6 -0.7,2.08 -1.39,4.17 -1.99,6.29 -4.61,1.25 -9.15,3.15 -12.62,6.53 -1.8,1.36 -3.19,4.53 -5.89,3.04 0.16,-1.09 0.33,-2.18 0.5,-3.26 z"
         inkscape:connector-curvature="0"
         style="opacity:1;fill:#ffffff" />
      <path
         id="path148"
         d="m 265.71,358 c -0.35,-1.42 2.16,-2.43 2.66,-0.92 0.4,1.52 -2.13,2.49 -2.66,0.92 z"
         inkscape:connector-curvature="0"
         style="opacity:1;fill:#ffffff" />
      <path
         id="path150"
         d="m 613.75,365.53 c 0.7,-3.91 1.91,-8.37 5.81,-10.27 -1.77,10.83 -2.46,21.79 -3.73,32.67 -0.29,5.31 -1.73,10.68 -0.14,15.93 -3.8,0.79 -8.24,-1.56 -7.99,-5.84 1.79,-10.86 4.19,-21.63 6.05,-32.49 z"
         inkscape:connector-curvature="0"
         style="opacity:1;fill:#ffffff" />
      <path
         id="path152"
         d="m 624.44,366.95 c 0.12,-3.89 0.77,-7.75 2.24,-11.37 2.69,-0.01 5.4,-0.01 8.1,0.02 -0.01,16.11 0.05,32.23 -0.06,48.34 -4.02,-0.21 -8.04,-0.06 -12.05,-0.1 -0.88,-2.21 -1.72,-4.53 -1.33,-6.94 1.01,-9.99 2,-19.98 3.1,-29.95 z"
         inkscape:connector-curvature="0"
         style="opacity:1;fill:#ffffff" />
      <path
         id="path154"
         d="m 234.73,357.36 c 6.69,2.9 13.27,6.04 20.04,8.73 -4.25,10.04 -8.75,19.97 -13.12,29.95 -6.78,-2.66 -13.25,-6.05 -19.86,-9.09 4.04,-9.98 8.55,-19.76 12.94,-29.59 z"
         inkscape:connector-curvature="0"
         style="opacity:1;fill:#ffffff" />
      <path
         id="path156"
         d="m 449.34,357.86 c 3.81,-0.05 7.62,-0.05 11.43,0 0.06,14.06 0.05,28.12 0.01,42.18 -0.22,7.87 -0.59,15.74 -0.38,23.63 -0.92,-0.06 -1.85,-0.11 -2.76,-0.17 -0.11,-5.18 0.19,-10.38 -0.25,-15.55 -0.62,-0.39 -1.87,-1.17 -2.49,-1.56 -1.11,0.74 -2.59,1.2 -3.03,2.61 -0.31,3.65 -0.05,7.32 -0.15,10.98 -0.57,-0.12 -1.7,-0.35 -2.27,-0.47 -0.29,-20.55 -0.08,-41.1 -0.11,-61.65 z"
         inkscape:connector-curvature="0"
         style="opacity:1;fill:#ffffff" />
      <path
         id="path158"
         d="m 558.66,357.83 c 8.02,-0.01 16.04,0.02 24.07,0.09 0.12,13.37 -0.01,26.75 0.07,40.13 0.03,2.01 -0.14,4.03 -0.5,6.02 -1.22,0.61 -2.43,1.24 -3.62,1.88 -0.39,8.49 0.12,16.99 -0.3,25.47 -0.91,0.03 -1.82,0.05 -2.73,0.08 -0.19,-7.7 0.22,-15.42 -0.2,-23.1 -0.48,-2.09 -2.73,-1.97 -4.42,-1.84 -0.33,0.59 -0.98,1.75 -1.31,2.33 -0.05,7.61 0.03,15.21 -0.04,22.82 -0.6,-0.03 -1.8,-0.1 -2.4,-0.13 -0.64,-8.32 0.9,-16.83 -0.93,-25.01 -1.72,-0.06 -4.13,-0.69 -4.82,1.47 -0.39,6.54 -0.07,13.12 -0.15,19.69 -0.9,-0.11 -1.79,-0.22 -2.68,-0.33 -0.14,-23.19 -0.07,-46.38 -0.04,-69.57 z"
         inkscape:connector-curvature="0"
         style="opacity:1;fill:#ffffff" />
      <path
         id="path160"
         d="m 133.85,360.39 c 10.69,-0.59 21.39,0.38 32.08,-0.21 -1.73,7.14 -8.45,12.88 -15.93,12.63 -7.52,0.41 -14.36,-5.25 -16.15,-12.42 z"
         inkscape:connector-curvature="0"
         style="opacity:1;fill:#ffffff" />
      <path
         id="path162"
         d="m 173.65,360.43 c 17.47,-0.04 34.93,-0.02 52.4,-0.01 -1.73,4.15 -3.63,8.23 -5.38,12.38 -4.82,0.62 -9.69,0.03 -14.52,0.45 -2.6,0.82 -2.63,5.08 0.03,5.85 3.8,0.52 7.67,0.09 11.5,0.24 -0.94,2.16 -1.9,4.31 -2.8,6.5 -3.46,-0.02 -6.98,-0.27 -10.3,0.87 -0.66,2.25 -0.32,4.54 1.99,5.63 1.78,-0.08 3.57,-0.1 5.36,-0.1 -0.85,2.11 -1.76,4.2 -2.66,6.3 -2.31,0.08 -4.68,0.75 -5.37,3.25 -10.22,-13.68 -20.37,-27.43 -30.25,-41.36 z"
         inkscape:connector-curvature="0"
         style="opacity:1;fill:#ffffff" />
      <path
         id="path164"
         d="m 260.73,360.89 c 1.8,1.88 5.21,4.02 3.75,7.03 -3.35,10.57 -6.82,21.1 -10.04,31.71 -2.11,-0.76 -4.35,-0.95 -6.58,-0.98 0.75,-1.91 1.4,-3.86 2.29,-5.71 1.42,-1.13 4.22,-0.9 4.51,-3.07 0.45,-1.49 -0.54,-2.72 -1.32,-3.84 3.01,-7.4 6.82,-14.47 9.32,-22.06 -0.67,-1.01 -1.32,-2.04 -1.93,-3.08 z"
         inkscape:connector-curvature="0"
         style="opacity:1;fill:#ffffff" />
      <path
         id="path166"
         d="m 151.94,379.53 c 7.76,-0.78 14.38,-5.61 18.57,-12.02 4.35,6.23 9.07,12.2 13.39,18.47 -6,4.17 -12.11,8.19 -18.01,12.49 -4.7,-6.28 -9.2,-12.7 -13.95,-18.94 z"
         inkscape:connector-curvature="0"
         style="opacity:1;fill:#ffffff" />
      <path
         id="path168"
         d="m 138.84,376.88 c 2.04,0.84 4.41,1.45 5.61,3.5 3.65,5.24 7.77,10.18 11.16,15.59 0.19,13.4 0.17,26.83 0,40.25 -5.6,-0.07 -11.19,-0.03 -16.78,-0.03 -0.02,-19.77 -0.04,-39.54 0.01,-59.31 z"
         inkscape:connector-curvature="0"
         style="opacity:1;fill:#ffffff" />
      <path
         id="path170"
         d="m 664.77,388.95 c 3.58,-1.1 8.8,0.65 8.62,5.09 0.98,6.42 -8.9,8.34 -11.83,3.52 -1.93,-3.05 -0.47,-7.77 3.21,-8.61 z"
         inkscape:connector-curvature="0"
         style="opacity:1;fill:#ffffff" />
      <path
         id="path172"
         d="m 352.31,395.15 c 1.16,-1.46 2.35,-2.91 3.67,-4.23 4.43,5.56 8.52,11.39 12.8,17.07 -0.79,0.99 -1.58,1.98 -2.36,2.98 -4.87,-5.13 -9.37,-10.58 -14.11,-15.82 z"
         inkscape:connector-curvature="0"
         style="opacity:1;fill:#ffffff" />
      <path
         id="path174"
         d="m 169.94,403.52 c 6.07,-3.96 11.91,-8.25 17.97,-12.22 5.34,7.31 10.63,14.65 16.05,21.9 -7.47,1.14 -13.98,5.92 -17.53,12.56 -1.47,-0.36 -1.95,-2.12 -2.91,-3.13 -4.37,-6.49 -9.61,-12.38 -13.58,-19.11 z"
         inkscape:connector-curvature="0"
         style="opacity:1;fill:#ffffff" />
      <path
         id="path176"
         d="m 218.89,393 c 6.72,2.82 13.13,6.33 19.87,9.11 -3.18,8.21 -7.03,16.15 -10.58,24.21 -2.75,-5.4 -7.38,-9.91 -13.2,-11.82 -1.9,-0.5 -4.89,-1.98 -3.57,-4.41 2.46,-5.71 5,-11.39 7.48,-17.09 z"
         inkscape:connector-curvature="0"
         style="opacity:1;fill:#ffffff" />
      <path
         id="path178"
         d="m 641.21,397.61 c 4.37,-0.04 8.74,-0.01 13.12,-0.04 1.64,3.8 4.39,7.5 8.64,8.48 4.23,0.71 9.25,0.79 12.61,-2.32 1.98,-1.58 3.13,-3.88 4.08,-6.16 10.39,0.05 20.78,0 31.18,0.02 -0.02,5.14 0,10.27 0,15.4 -0.07,5.48 0.07,10.97 0.5,16.44 0.95,4.1 5.19,6.41 9.22,6.13 1.25,1.12 2.54,2.2 3.87,3.26 0.02,26.91 -0.02,53.82 0.01,80.74 -13.45,0.06 -26.9,-0.01 -40.35,0.04 -0.04,-20.55 0.02,-41.1 -0.03,-61.64 0,-1.45 -0.4,-3.48 -2.15,-3.63 -2.31,-0.92 -4.72,1.22 -4.26,3.61 -0.04,20.55 0,41.1 -0.02,61.64 -7.48,0 -14.95,0 -22.43,0.01 -0.02,-13.9 0.02,-27.79 -0.01,-41.68 0.26,-2.29 -1.7,-5.17 -4.24,-4.08 -1.9,0.32 -2.37,2.47 -2.29,4.1 -0.03,13.88 0,27.77 -0.01,41.65 -2.48,0 -4.96,0 -7.42,0.01 -0.03,-40.66 0.01,-81.32 -0.02,-121.98 z"
         inkscape:connector-curvature="0"
         style="opacity:1;fill:#ffffff" />
      <path
         id="path180"
         d="m 162.18,404.83 c 6.98,9.05 13.51,18.44 20.38,27.56 1.98,2.12 1.41,5.17 1.98,7.79 0.85,5.62 4.31,10.43 8.49,14.12 -18.07,0.12 -36.14,0.02 -54.21,0.05 -0.01,-3.99 0,-7.97 0,-11.95 6.87,-0.1 13.76,0.17 20.63,-0.12 2.13,-0.12 2.68,-2.5 2.7,-4.24 0.07,-11.07 -0.03,-22.14 0.03,-33.21 z"
         inkscape:connector-curvature="0"
         style="opacity:1;fill:#ffffff" />
      <path
         id="path182"
         d="m 242.01,411.61 c 0.92,-2.2 1.89,-4.37 2.89,-6.52 2.58,0.01 5.16,0.02 7.75,0.09 -0.75,2.15 -1.49,4.29 -2.23,6.45 -2.8,-0.01 -5.6,0 -8.41,-0.02 z"
         inkscape:connector-curvature="0"
         style="opacity:1;fill:#ffffff" />
      <path
         id="path184"
         d="m 467.29,405.54 c 5.99,0 11.98,0.01 17.97,0 -0.11,3.67 -0.11,7.35 -0.01,11.03 -5.97,-0.01 -11.95,-0.04 -17.92,0.02 -0.07,-3.69 -0.06,-7.37 -0.04,-11.05 z"
         inkscape:connector-curvature="0"
         style="opacity:1;fill:#ffffff" />
      <path
         id="path186"
         d="m 491.56,411.01 c 0.22,-1.8 -0.61,-4.2 1.25,-5.34 2.86,-0.15 5.98,-0.66 8.6,0.82 -0.09,3.03 -0.09,6.07 0.02,9.11 -2.57,1.78 -5.96,1.06 -8.87,0.83 -1.55,-1.38 -0.8,-3.62 -1,-5.42 z"
         inkscape:connector-curvature="0"
         style="opacity:1;fill:#ffffff" />
      <path
         id="path188"
         d="m 507.59,405.54 c 15.02,0.01 30.04,0 45.06,0.01 0,3.7 0,7.4 0,11.11 -15.02,0 -30.04,-0.1 -45.06,-0.04 0.09,-3.7 0.09,-7.39 0,-11.08 z"
         inkscape:connector-curvature="0"
         style="opacity:1;fill:#ffffff" />
      <path
         id="path190"
         d="m 239.2,418.24 c 3,-0.84 6.25,-0.21 9.36,-0.36 -0.73,2.2 -1.46,4.41 -2.2,6.61 -3.34,-0.01 -6.69,-0.01 -10.03,-0.01 0.92,-2.1 1.66,-4.29 2.87,-6.24 z"
         inkscape:connector-curvature="0"
         style="opacity:1;fill:#ffffff" />
      <path
         id="path192"
         d="m 203.22,420.12 c 9.15,-2.62 19.36,4.54 20.23,13.96 1.27,8.68 -5.73,17.45 -14.47,18.12 -7.7,1.05 -15.59,-4.14 -17.58,-11.68 -2.7,-8.56 3.03,-18.5 11.82,-20.4 z"
         inkscape:connector-curvature="0"
         style="opacity:1;fill:#ffffff" />
      <path
         id="path194"
         d="m 439.6,434.54 c 0.31,-5.12 1.06,-10.32 3.6,-14.87 0.64,1.37 1.91,2.75 1.38,4.4 -0.57,3.48 -1.2,6.95 -1.39,10.49 -0.9,-0.01 -2.69,-0.01 -3.59,-0.02 z"
         inkscape:connector-curvature="0"
         style="opacity:1;fill:#ffffff" />
      <path
         id="path196"
         d="m 467.28,423.13 c 28.41,0.01 56.82,0.09 85.23,-0.01 -0.46,4.5 1.81,8.9 5.97,10.8 0.03,45.78 0.05,91.56 -0.01,137.34 -15.38,0.02 -30.76,-0.04 -46.13,0.03 -0.26,-42.41 0,-84.84 -0.13,-127.25 -0.05,-1.65 -1.18,-3.87 -3.13,-3.6 -3.89,-0.07 -7.81,-0.26 -11.68,0.13 -2.77,0.65 -2.8,5.3 0.05,5.93 2.69,0.43 5.44,0.14 8.15,0.18 0.06,41.53 0.13,83.07 -0.03,124.6 -12.73,-0.03 -25.46,-0.04 -38.19,0.01 -0.23,-49.39 -0.02,-98.78 -0.1,-148.16 z"
         inkscape:connector-curvature="0"
         style="opacity:1;fill:#ffffff" />
      <path
         id="path198"
         d="m 229.3,442.02 c 0.82,-3.98 2.51,-7.67 4.33,-11.27 3.61,0.04 7.22,0.03 10.84,0.03 -1.02,3.06 -2.26,6.08 -2.91,9.25 -0.44,1.78 1.25,3.03 2.12,4.36 1.86,2.06 3.33,4.57 5.64,6.17 8.83,0.41 17.69,-0.01 26.53,0.19 -0.04,1.2 -0.07,2.4 -0.1,3.62 -18.2,-0.06 -36.4,0.04 -54.61,-0.06 3.91,-3.14 6.98,-7.37 8.16,-12.29 z"
         inkscape:connector-curvature="0"
         style="opacity:1;fill:#ffffff" />
      <path
         id="path200"
         d="m 397.19,439.66 c 5.02,-0.07 10.04,-0.06 15.06,-0.01 -0.01,13.46 -0.04,26.92 -0.05,40.39 -0.87,14.08 -0.12,28.22 -0.58,42.33 -4.64,-0.11 -9.28,0.03 -13.92,-0.09 -0.23,-0.26 -0.69,-0.77 -0.92,-1.02 -0.1,-17.1 0.08,-34.2 0.04,-51.3 0.62,-10.08 0.32,-20.2 0.37,-30.3 z"
         inkscape:connector-curvature="0"
         style="opacity:1;fill:#ffffff" />
      <path
         id="path202"
         d="m 418.55,522.33 c -0.05,-27.57 -0.2,-55.15 -0.17,-82.73 14.15,0.08 28.29,0.03 42.44,0.09 -0.03,27.58 -0.02,55.17 0,82.76 -14.09,0.01 -28.18,-0.05 -42.27,-0.12 z"
         inkscape:connector-curvature="0"
         style="opacity:1;fill:#ffffff" />
      <path
         id="path204"
         d="m 138.86,461.13 c 45.65,-0.03 91.31,-0.11 136.97,0.04 -0.02,0.65 -0.06,1.95 -0.08,2.6 -45.63,-0.02 -91.27,-0.01 -136.9,0 0,-0.66 0.01,-1.98 0.01,-2.64 z"
         inkscape:connector-curvature="0"
         style="opacity:1;fill:#ffffff" />
      <path
         id="path206"
         d="m 145.91,472.74 c -2.19,1.2 -2.21,-3.63 0.08,-2.53 41.53,0 83.06,-0.1 124.58,0.06 -0.11,0.6 -0.34,1.81 -0.45,2.41 -41.4,0.01 -82.81,-0.11 -124.21,0.06 z"
         inkscape:connector-curvature="0"
         style="opacity:1;fill:#ffffff" />
      <path
         id="path208"
         d="m 151.03,481.76 c -1.89,0.92 -1.94,-3.44 0.03,-2.53 37.94,-0.03 75.89,-0.03 113.84,0 -0.01,0.63 -0.03,1.9 -0.03,2.54 -37.95,0.01 -75.89,0.03 -113.84,-0.01 z"
         inkscape:connector-curvature="0"
         style="opacity:1;fill:#ffffff" />
      <path
         id="path210"
         d="m 138.82,488.87 c 45.71,0.01 91.42,-0.02 137.13,0.02 -0.07,0.61 -0.21,1.82 -0.28,2.43 -45.61,0.22 -91.23,0.04 -136.84,0.09 -0.01,-0.63 -0.01,-1.9 -0.01,-2.54 z"
         inkscape:connector-curvature="0"
         style="opacity:1;fill:#ffffff" />
      <path
         id="path212"
         d="m 138.83,497.74 c 45.65,0 91.31,0 136.96,0 -0.22,3.91 0.85,8.27 -1.43,11.77 -2.08,3.35 -5.7,5.92 -9.75,5.95 -8.87,0.17 -17.74,-0.1 -26.61,0.1 -1.73,-0.13 -2.93,1.73 -2.74,3.33 -0.41,10.08 1.31,20.77 -3.16,30.23 -1.82,3.51 -4.67,7.69 -9.09,7.6 -7.12,0.05 -14.24,0.07 -21.36,-0.04 2.15,-3.75 4.77,-7.3 5.92,-11.52 1.78,-5.2 1.12,-10.75 1.24,-16.13 -0.09,-3.95 0.23,-7.92 -0.18,-11.84 -0.77,-1.27 -2.1,-1.91 -3.57,-1.68 -18.3,-0.05 -36.6,0.05 -54.9,-0.04 -4.7,-0.03 -9.56,-2.97 -10.99,-7.57 -0.67,-3.34 -0.26,-6.78 -0.34,-10.16 z"
         inkscape:connector-curvature="0"
         style="opacity:1;fill:#ffffff" />
      <path
         id="path214"
         d="m 171.46,522.58 c 5.97,-2.68 13.25,1.57 15.22,7.5 3.36,9.81 6.32,19.75 9.75,29.53 -3.1,0.16 -6.35,-0.44 -9.33,0.53 -2.11,0.63 -1.44,3.17 -1.65,4.84 0.07,20.01 -0.05,40.03 0.05,60.04 -0.43,2.17 1.58,3.59 3.58,3.49 9.93,0.13 19.86,-0.01 29.79,0.04 2.47,7.45 4.93,14.91 7.36,22.38 0.21,0.77 0.62,2.3 0.83,3.07 -4.74,-0.69 -9.45,-1.6 -14.23,-1.95 -22.25,-3.33 -44.51,-6.73 -66.75,-10.15 -5.25,-0.61 -10.43,-1.79 -15.7,-2.22 0.14,-0.68 0.42,-2.04 0.57,-2.73 11.19,-35.51 22.4,-71.01 33.59,-106.52 0.97,-3.49 3.49,-6.58 6.92,-7.85 z"
         inkscape:connector-curvature="0"
         style="opacity:1;fill:#ffffff" />
      <path
         id="path216"
         d="m 155.66,521.72 c 2.05,0 4.1,-0.01 6.16,-0.01 -2.69,3.72 -3.67,8.23 -5.16,12.48 -1.25,-4.05 -1.11,-8.29 -1,-12.47 z"
         inkscape:connector-curvature="0"
         style="opacity:1;fill:#ffffff" />
      <path
         id="path218"
         d="m 189.21,521.7 c 4.44,0.03 8.89,0.02 13.34,0 -0.26,7.75 1.23,15.89 -1.59,23.32 -0.53,0.9 -0.62,2.42 -1.81,2.75 -2.23,-6.61 -4.33,-13.26 -6.51,-19.88 -0.73,-2.27 -2.07,-4.27 -3.43,-6.19 z"
         inkscape:connector-curvature="0"
         style="opacity:1;fill:#ffffff" />
      <path
         id="path220"
         d="m 241.48,523.32 c 3.2,-1.1 6.71,-1.65 10.04,-0.74 3.76,1.26 6.66,4.54 7.71,8.34 3,9.6 6.1,19.16 9.27,28.7 -2.84,0.04 -5.69,-0.18 -8.5,0.24 -2.46,0.37 -2.22,3.28 -2.29,5.15 0.04,17.33 0.02,34.66 0,52 -0.05,1.79 0.1,4.6 2.47,4.73 9.49,0.51 19.02,-0.25 28.52,0.4 1.08,3.54 2.12,7.1 3.32,10.61 -10.02,-1.09 -20,-2.54 -30.02,-3.67 -5.33,-0.91 -10.74,-1.27 -16.11,-1.95 -7.2,-1.06 -14.44,-1.93 -21.67,-2.78 -2.67,-7.97 -5.23,-15.97 -7.92,-23.93 -0.5,-1.73 -1.38,-3.56 -0.65,-5.36 2.85,-9.13 6.04,-18.16 8.88,-27.29 0.8,-2.18 1.16,-4.97 3.68,-5.79 4.56,-2.16 7.93,-6.18 9.87,-10.77 4.17,-8.71 3.26,-18.53 3.4,-27.89 z"
         inkscape:connector-curvature="0"
         style="opacity:1;fill:#ffffff" />
      <path
         id="path222"
         d="m 659.38,593.68 c 0.01,-22.4 -0.04,-44.8 0.02,-67.2 7.11,0.02 14.22,0.05 21.33,-0.01 0.1,22.39 0.05,44.79 0.02,67.18 -7.12,0.06 -14.25,0.02 -21.37,0.03 z"
         inkscape:connector-curvature="0"
         style="opacity:1;fill:#ffffff" />
      <path
         id="path224"
         d="m 687.45,593.54 c 0.01,-22.35 -0.01,-44.7 0.02,-67.05 7.63,0.03 15.27,-0.01 22.92,0.03 0,22.37 -0.03,44.73 0.01,67.1 -7.65,0.07 -15.3,0.18 -22.95,-0.08 z"
         inkscape:connector-curvature="0"
         style="opacity:1;fill:#ffffff" />
      <path
         id="path226"
         d="m 191.78,566.07 c 2.18,-0.07 4.37,-0.11 6.55,-0.14 6.26,18.76 12.43,37.55 18.46,56.4 -8.33,-0.05 -16.66,0 -24.99,-0.03 -0.02,-18.75 0.01,-37.49 -0.02,-56.23 z"
         inkscape:connector-curvature="0"
         style="opacity:1;fill:#ffffff" />
      <path
         id="path228"
         d="m 263.87,566.06 c 2.23,-0.06 4.48,-0.07 6.72,-0.03 5.12,16.59 10.68,33.06 15.9,49.63 -7.46,0.01 -14.91,-0.02 -22.36,0.01 -0.67,-16.53 0.4,-33.08 -0.26,-49.61 z"
         inkscape:connector-curvature="0"
         style="opacity:1;fill:#ffffff" />
      <path
         id="path230"
         d="m 467.25,577.66 c 12.79,-0.1 25.58,0 38.37,-0.05 0.02,1.68 0.03,3.37 0.05,5.07 -12.79,0.02 -25.58,0 -38.37,0.01 -0.02,-1.68 -0.03,-3.36 -0.05,-5.03 z"
         inkscape:connector-curvature="0"
         style="opacity:1;fill:#ffffff" />
      <path
         id="path232"
         d="m 512.2,582.68 c 0.03,-1.7 0.06,-3.4 0.11,-5.09 15.39,0.07 30.77,0.01 46.16,0.03 0.02,1.66 0.04,3.33 0.07,5 -15.45,0.15 -30.89,0.04 -46.34,0.06 z"
         inkscape:connector-curvature="0"
         style="opacity:1;fill:#ffffff" />
      <path
         id="path234"
         d="m 477.6,589.21 c 9.87,-0.21 19.74,-0.05 29.61,-0.08 -6.53,4.78 -11.79,11.37 -14.21,19.16 -13.08,0.04 -26.16,0.08 -39.23,-0.02 1.27,-2.7 2.77,-5.28 4.39,-7.79 2.52,1.09 4.59,2.93 6.92,4.36 1.36,0.31 2.56,-0.65 3.73,-1.19 3.81,-2.26 7.59,-4.56 11.51,-6.61 1.5,-3.07 -0.9,-5.63 -2.72,-7.83 z"
         inkscape:connector-curvature="0"
         style="opacity:1;fill:#ffffff" />
      <path
         id="path236"
         d="m 523.51,589.21 c 10.78,-0.21 21.56,-0.05 32.34,-0.09 -0.01,6.4 -0.01,12.8 -0.01,19.2 -18.72,-0.01 -37.44,0.04 -56.16,-0.03 1.32,-2.73 2.83,-5.36 4.57,-7.85 2.19,1.12 4.13,2.65 6.17,4.02 1.57,1.2 3.28,-0.35 4.72,-1.02 3.53,-2.32 7.43,-4.07 10.89,-6.49 2.25,-2.77 -0.87,-5.63 -2.52,-7.74 z"
         inkscape:connector-curvature="0"
         style="opacity:1;fill:#ffffff" />
      <path
         id="path238"
         d="m 462.99,595.77 c 2.67,-2.16 5.85,-4.28 9.42,-2.84 -1.01,2.63 -4.02,3.56 -6.36,4.64 -0.77,-0.45 -2.3,-1.35 -3.06,-1.8 z"
         inkscape:connector-curvature="0"
         style="opacity:1;fill:#ffffff" />
      <path
         id="path240"
         d="m 509.11,595.6 c 2.15,-1.24 4.12,-3.42 6.8,-3.16 1.03,0.37 2,0.89 3.01,1.37 -2.29,1.35 -4.6,2.65 -6.9,3.98 -0.97,-0.74 -1.94,-1.48 -2.91,-2.19 z"
         inkscape:connector-curvature="0"
         style="opacity:1;fill:#ffffff" />
      <path
         id="path242"
         d="m 653.11,600.05 c 6.59,-0.08 13.18,-0.1 19.78,0.03 -6.65,5.62 -12.87,11.72 -19.52,17.33 -1.75,1.5 -4.17,1.77 -6.38,1.77 -5,-0.01 -10.01,0.02 -15.01,-0.06 7.06,-6.34 14.22,-12.57 21.13,-19.07 z"
         inkscape:connector-curvature="0"
         style="opacity:1;fill:#ffffff" />
      <path
         id="path244"
         d="m 682.19,600.07 c 10.83,-0.15 21.66,-0.06 32.49,-0.04 -0.07,6.38 0.04,12.77 -0.07,19.15 -4.26,-0.02 -8.52,-0.01 -12.77,-0.01 0.14,-2.69 0.1,-7.16 -3.81,-6.66 -4.2,1.76 -7.77,4.73 -11.93,6.54 -8.3,0.27 -16.62,0.09 -24.93,0.06 6.96,-6.39 14.16,-12.52 21.02,-19.04 z"
         inkscape:connector-curvature="0"
         style="opacity:1;fill:#ffffff" />
      <path
         id="path246"
         d="m 452.07,614.81 c 13.21,-0.26 26.43,-0.06 39.65,-0.09 -0.15,0.58 -0.44,1.73 -0.59,2.31 -13.2,0.21 -26.41,0.06 -39.62,0.07 0.14,-0.57 0.42,-1.72 0.56,-2.29 z"
         inkscape:connector-curvature="0"
         style="opacity:1;fill:#ffffff" />
    </g>
    <g
       id="#edededff">
      <path
         id="path249"
         d="m 617.81,410.47 c 5.09,0.12 10.18,0.03 15.27,0.08 1.04,-0.11 1.86,0.28 2.46,1.18 -1.97,-0.18 -5.44,-1.35 -6.19,1.31 -0.58,6.61 0.21,13.28 -0.59,19.89 -0.55,-0.14 -1.65,-0.43 -2.2,-0.58 -0.1,-6.32 0.21,-12.64 -0.13,-18.95 -0.33,-2.81 -5.22,-3.12 -5.9,-0.34 -0.54,5.48 0.1,11 -0.37,16.48 -0.54,-0.4 -1.63,-1.21 -2.17,-1.62 -0.43,-5.8 -0.03,-11.64 -0.18,-17.45 z"
         inkscape:connector-curvature="0"
         style="opacity:1;fill:#ededed" />
    </g>
    <g
       id="#00000030">
      <path
         id="path252"
         d="m 389.98,440.98 c -0.04,-1.5 0.29,-2.95 0.75,-4.35 0.75,13.43 0.15,26.92 0.36,40.38 -0.04,15.97 -0.06,31.94 -0.03,47.91 l -0.93,-0.01 c -0.3,-27.98 -0.01,-55.96 -0.15,-83.93 z"
         inkscape:connector-curvature="0"
         style="opacity:0.18999999;fill:#000000" />
    </g>
    <g
       id="#fefefeff">
      <path
         id="path255"
         d="m 498.2,614.78 c 19.28,-0.19 38.57,-0.07 57.85,-0.05 -0.09,0.58 -0.29,1.72 -0.38,2.29 -19.37,0.23 -38.75,0.07 -58.13,0.08 0.17,-0.58 0.49,-1.74 0.66,-2.32 z"
         inkscape:connector-curvature="0"
         style="opacity:1;fill:#fefefe" />
    </g>
    <g
       id="#7a7a7a91">
      <path
         id="path258"
         d="m 226.23,650.93 c 0.51,1.27 1.08,2.52 1.72,3.74 -5.02,-1.02 -10.19,-1.15 -15.12,-2.62 4.78,0.35 9.49,1.26 14.23,1.95 -0.21,-0.77 -0.62,-2.3 -0.83,-3.07 z"
         inkscape:connector-curvature="0"
         style="opacity:0.56999966;fill:#7a7a7a" />
    </g>
  </g>
</svg>
