<?xml version="1.0" encoding="UTF-8" standalone="no"?>
<svg
   xmlns:dc="http://purl.org/dc/elements/1.1/"
   xmlns:cc="http://creativecommons.org/ns#"
   xmlns:rdf="http://www.w3.org/1999/02/22-rdf-syntax-ns#"
   xmlns:svg="http://www.w3.org/2000/svg"
   xmlns="http://www.w3.org/2000/svg"
   xmlns:sodipodi="http://sodipodi.sourceforge.net/DTD/sodipodi-0.dtd"
   xmlns:inkscape="http://www.inkscape.org/namespaces/inkscape"
   width="730.255pt"
   height="559.78217pt"
   viewBox="0 0 730.255 559.78217"
   version="1.1"
   id="svg2"
   inkscape:version="0.91 r13725"
   sodipodi:docname="inform.svg">
  <metadata
     id="metadata262">
    <rdf:RDF>
      <cc:Work
         rdf:about="">
        <dc:format>image/svg+xml</dc:format>
        <dc:type
           rdf:resource="http://purl.org/dc/dcmitype/StillImage" />
        <dc:title></dc:title>
      </cc:Work>
    </rdf:RDF>
  </metadata>
  <defs
     id="defs260" />
  <sodipodi:namedview
     pagecolor="#ffffff"
     bordercolor="#666666"
     borderopacity="1"
     objecttolerance="10"
     gridtolerance="10"
     guidetolerance="10"
     inkscape:pageopacity="0"
     inkscape:pageshadow="2"
     inkscape:window-width="1920"
     inkscape:window-height="1021"
     id="namedview258"
     showgrid="false"
     fit-margin-top="0"
     fit-margin-left="0"
     fit-margin-right="0"
     fit-margin-bottom="0"
     inkscape:zoom="0.25422993"
     inkscape:cx="-31.766656"
     inkscape:cy="368.05444"
     inkscape:window-x="0"
     inkscape:window-y="0"
     inkscape:window-maximized="1"
     inkscape:current-layer="svg2" />
  <g
     id="g3590"
     transform="translate(-102.50889,-95.661418)">
    <g
       id="#060606fe">
      <path
         id="path5"
         d="m 206.27,96.26 c 1.6,-1.33 3.64,-0.1 5.3,0.4 0.11,1.88 0.23,3.76 0.32,5.65 3.71,0.89 7.82,1.38 10.8,4 2.75,2.25 2.74,7.06 -0.13,9.22 -2.87,2.55 -6.85,2.91 -10.42,3.85 0.02,1.68 0.04,3.37 0.06,5.06 4.71,0.98 10.07,1.2 13.82,4.57 2.58,2.14 2.3,6.58 -0.44,8.47 -3.84,2.87 -8.85,3.16 -13.4,4.04 -0.01,3.21 0,6.43 0.02,9.65 5.59,0.14 11.19,-0.03 16.79,0.06 1.63,-0.1 3.11,0.62 4.55,1.3 0.14,4.5 0.13,9 0.13,13.5 4.76,2.1 9.4,4.54 13.63,7.59 6.16,4.81 10.99,11.04 16.67,16.37 18.01,19.43 18.46,52.25 1.41,72.42 -3.78,4.64 -9.19,7.43 -13.58,11.41 -6.05,5.27 -12.87,9.87 -20.54,12.37 3.48,3.44 3.73,8.46 2.4,12.94 0.39,2.06 0.68,4.14 0.91,6.23 2.53,-0.02 5.05,-0.03 7.57,-0.02 9.84,-10.25 19.47,-20.69 29.11,-31.11 1.69,-1.58 3.12,-4.37 5.84,-3.79 3.61,2.52 6.25,6.2 9.96,8.59 5.1,-2.92 9.9,-6.51 15.63,-8.22 -5.5,-6.55 -8.19,-15.4 -6.96,-23.89 0.92,-5.86 4.96,-11.28 10.56,-13.4 4.1,-1.12 8.35,-1.48 12.54,-2.15 0.95,-9.74 -0.64,-19.7 1.72,-29.31 1.81,-8.86 5.96,-17.68 13.32,-23.22 8.52,-6.56 19.63,-8.65 30.17,-8.56 32.4,0.04 64.8,0.19 97.2,0.21 0.08,-7.5 -0.17,-15.01 0.1,-22.51 0.31,-6.63 4.18,-12.53 9.31,-16.52 -3.95,-2.94 -7.3,-7.26 -7.41,-12.39 -0.78,-9.47 7.27,-18.55 16.79,-18.81 14,-0.11 28.01,0 42.01,-0.05 5.66,-0.1 11.19,1.66 16.12,4.36 6.65,-4.74 15.2,-4.83 23,-4.11 8.95,1.24 16.21,9.52 16.21,18.58 0.09,17.24 0.01,34.49 0.02,51.74 14.47,0.1 28.93,0.05 43.39,0.13 0.14,-2.53 0.05,-5.13 0.84,-7.57 0.91,-2.46 2.88,-4.28 4.57,-6.21 0.24,-3.6 0.71,-7.19 1.53,-10.7 -3.15,-0.56 -8.43,1.63 -9.95,-2.24 -0.64,-10.15 2.58,-21.1 10.28,-28.08 5.92,-5.4 14.17,-7.27 21.99,-7.33 10.3,-0.01 20.61,-0.07 30.92,-0.1 4.81,-0.17 9.37,1.9 12.99,4.95 4.5,-3.36 10.46,-4.79 15.9,-3.13 12.14,3.88 20.99,15.82 21.44,28.53 0.28,10.76 -0.12,21.54 0.19,32.31 12.51,0 25.03,-0.22 37.54,0.05 12.34,0.69 25.61,2.94 35.13,11.47 8.74,7.74 12.4,19.7 12.61,31.07 0.74,64 0.41,128.03 0.63,192.04 -0.16,9.97 -1.58,21.07 -9.02,28.43 -7.28,6.82 -17.73,8.38 -27.29,9.05 -14.62,0.45 -29.25,0.02 -43.88,0.26 0.08,22.11 -0.03,44.23 0.06,66.34 -0.01,1.77 0.01,3.68 -1.11,5.18 -4.35,1.01 -8.88,0.31 -13.3,0.54 -0.01,3.18 0,6.35 0.01,9.54 19.38,0.08 38.77,-0.13 58.14,0.09 3.41,-0.26 3.54,5.67 0.1,5.58 -19.41,0.33 -38.83,0.04 -58.24,0.14 -0.01,3.78 -0.01,7.56 -0.04,11.35 35.74,0.23 71.49,-0.09 107.23,0.15 3.58,-0.22 3.68,5.89 0.01,5.61 -35.7,0.22 -71.41,0.08 -107.11,0.06 -0.21,10.24 -0.07,20.49 -0.08,30.74 1.79,0.15 3.65,0.13 5.4,0.67 0.75,1.63 0.64,3.48 0.7,5.25 -0.06,9.49 -0.03,18.99 -0.03,28.48 23.34,0.06 46.68,-0.08 70.02,0.07 2.88,-0.26 2.71,2.98 2.61,4.98 -1.84,0.36 -3.69,0.75 -5.55,0.77 -137.69,-0.03 -275.38,-0.01 -413.07,-0.01 -1.64,-0.04 -3.84,-0.18 -4.26,-2.13 -0.63,-2.05 1.17,-4.08 3.26,-3.64 23.49,-0.07 46.98,-0.04 70.47,0 0.45,-12.17 6.83,-24.02 17.2,-30.54 -0.66,-1.56 -1.32,-3.17 -1.2,-4.89 -0.02,-9.88 0,-19.76 0.05,-29.64 -59.26,-0.18 -118.53,0 -177.79,-0.08 -0.48,1.31 -0.62,2.82 -1.49,3.96 -3.67,0.84 -7.49,0.31 -11.22,0.48 6.27,22.84 13.09,45.53 19.46,68.35 0.44,1.75 0.84,4 -0.82,5.27 -8.51,-0.2 -16.85,-2.49 -25.35,-2.83 -4.71,-1.28 -9.61,-1.43 -14.36,-2.3 -1.39,-0.25 -2.79,-0.46 -4.18,-0.64 1.96,8.94 5.56,17.48 7.29,26.47 0.15,3.05 -4.84,3.7 -5.42,0.66 -8.79,-28.27 -16.77,-56.8 -25.28,-85.15 -0.24,18.82 0.06,37.66 -0.14,56.48 0.19,1.83 -1.31,3.2 -3.1,3.09 -9.36,0.15 -18.73,0.03 -28.1,0.05 -1.9,0.26 -4.2,-1 -3.74,-3.18 -0.07,-21.35 0.01,-42.7 -0.03,-64.05 0.01,-1.68 -0.15,-4.24 2.14,-4.37 9.8,-0.37 19.63,-0.02 29.44,-0.15 -3.54,-11.83 -6.96,-23.68 -10.53,-35.5 -1.1,-4.61 -5.44,-8.18 -10.21,-8.17 -5.07,0.24 -9.59,4.13 -10.81,9.04 -10.96,37.33 -22.1,74.61 -33.04,111.95 l -0.93,-0.38 c -0.05,5.08 -2.05,9.82 -3.33,14.66 -1.27,4.01 -2.11,8.18 -3.79,12.04 -1.37,2.77 -6.19,0.85 -5.16,-2.08 2.72,-10.34 6.08,-20.5 9.01,-30.78 4.43,-15.43 9.16,-30.76 13.62,-46.18 0.9,-3.53 2.83,-7.13 1.76,-10.84 -3.23,-12.35 -6.5,-24.68 -9.74,-37.02 -3.98,-0.29 -8.61,0.85 -12,-1.8 -3.07,-2.68 -1.59,-7.03 -1.11,-10.43 -2.81,1.68 -5.89,3.62 -6.8,7 -2.34,7.08 -4.29,14.29 -6.47,21.42 3.29,0.1 6.65,-0.32 9.91,0.32 1.74,1.18 1.15,3.47 1.33,5.27 -0.07,16.68 0.01,33.37 -0.03,50.06 0.23,1.71 -0.82,3.07 -1.8,4.35 -9.07,-0.23 -18.14,-0.04 -27.21,-0.11 -0.81,2.56 -1.58,5.13 -2.28,7.73 4.81,1.44 9.8,2.17 14.58,3.74 -1.99,0.12 -4.08,0.21 -5.92,-0.66 -2.91,-1.35 -6.2,-1.13 -9.19,-2.15 -1.56,6.41 -3.63,12.69 -5.45,19.04 -0.89,2.78 -1.46,5.71 -2.94,8.26 -1.6,0.82 -3.97,0.71 -4.71,-1.21 -0.2,-2.75 1.07,-5.33 1.74,-7.94 11.05,-36.7 21.84,-73.48 32.89,-110.18 1.69,-5.59 6.92,-8.68 11.85,-11.05 1.17,-2.38 -0.46,-5.28 -0.44,-7.84 -14.68,-4.77 -23.95,-20.04 -24.03,-35.08 -0.08,-36.75 0.08,-73.49 -0.08,-110.24 -3.36,-0.02 -6.75,0.29 -10.09,-0.17 -1.58,-0.31 -2.11,-2.12 -1.95,-3.53 0.05,-12.4 3.05,-25.11 10.26,-35.35 8.14,-12.01 22.69,-19.9 37.3,-18.78 4.72,0.44 7.72,4.26 10.79,7.36 3.12,0.29 6.25,0.08 9.37,0.05 0.73,-4.41 0.18,-8.84 0.15,-13.26 -0.06,-2.7 2.05,-4.51 3.88,-6.13 -7.86,-3.16 -15.06,-7.9 -21.14,-13.79 -2.66,-2.8 -7.22,-2.33 -9.76,-5.36 -3.71,-4.33 -7.91,-8.58 -9.79,-14.09 -4.04,-11.51 -4.64,-23.95 -3.45,-36.01 1.24,-7.92 2.5,-16.43 7.78,-22.81 2.55,-3.05 4.7,-6.65 8.31,-8.59 4.04,-2.21 6.65,-6.14 10.22,-8.94 4.97,-4.59 11,-7.79 17.14,-10.52 -0.04,-4.29 -0.48,-8.6 0.12,-12.86 0.76,-1.77 2.75,-1.61 4.34,-1.69 5.56,-0.09 11.13,0.12 16.69,-0.12 -0.01,-3.14 -0.02,-6.29 -0.06,-9.43 -5.45,-0.6 -11.38,-0.88 -16.07,-4.02 -3.15,-2.01 -3.22,-7.19 -0.02,-9.19 4.62,-3.3 10.64,-3.57 16.11,-4.11 0.01,-1.61 0.02,-3.22 0.04,-4.82 -4.08,-1.01 -8.73,-1.18 -11.98,-4.17 -2.72,-2.34 -2.54,-7.16 0.37,-9.27 3.19,-2.67 7.47,-3.08 11.41,-3.71 0.32,-2.07 -0.15,-4.78 1.84,-6.13 m 269.16,11.2 c -4.74,2.47 -7.4,8.32 -5.92,13.49 1.1,3.67 4.66,6.58 8.56,6.54 18.63,0.02 37.27,0.04 55.91,0.02 8.84,-0.25 17.76,4.35 22.34,11.99 4.03,6.04 4.04,13.58 3.89,20.56 1.7,1.57 3.53,3.09 4.66,5.16 3.15,5.37 1.66,11.91 1.9,17.82 0.12,4.91 -3.29,8.67 -6.49,11.92 -0.32,5.52 0.35,11.08 -0.62,16.56 5.75,0.85 11.98,-3.3 11.93,-9.43 0.1,-27.39 0.04,-54.78 0.03,-82.17 0.25,-6.93 -5.58,-13.57 -12.58,-13.74 -5.28,-0.06 -10.96,-0.5 -15.63,2.42 2.42,2.48 4.81,5.11 6.18,8.35 1.18,3.35 -4.1,5.22 -5.42,2.02 -3.88,-6.54 -10.5,-11.51 -18.1,-12.61 -13.34,-0.84 -26.7,0.02 -40.06,-0.22 -3.53,0.14 -7.39,-0.56 -10.58,1.32 m -277.47,3.37 c 2.13,0.85 4.35,1.49 6.61,1.92 0.01,-1.24 0.02,-2.48 0.03,-3.71 -2.25,0.47 -4.47,1.04 -6.64,1.79 m 14.24,-1.69 c 0.04,1.2 0.09,2.4 0.14,3.6 1.65,-0.64 3.3,-1.27 4.94,-1.93 -1.69,-0.58 -3.38,-1.13 -5.08,-1.67 m 417.94,13.16 c -4.44,5 -6.02,11.75 -6.66,18.23 22.84,0.08 45.68,-0.07 68.52,0.07 11.48,0.44 20.65,11.18 20.21,22.5 2.65,2.6 5.85,5.03 6.61,8.91 1.93,7.85 1.66,18.21 -6.01,22.97 -0.27,2.77 -0.63,5.53 -0.98,8.3 3.31,-0.49 6.9,-0.83 9.53,-3.13 3.3,-2.64 4.18,-7.07 4.14,-11.08 -0.02,-16.37 0.04,-32.74 -0.03,-49.11 -0.14,-11.17 -8.42,-22.24 -19.59,-24.32 -4.93,-0.65 -8.54,3.06 -11.93,5.99 -3.6,-2.4 -6.23,-6.77 -10.97,-6.96 -10.98,-0.17 -21.96,0.05 -32.94,0.01 -7.24,-0.14 -15.01,1.99 -19.9,7.62 m -435.13,11.01 c 3.06,1.19 6.37,1.34 9.61,1.58 -0.01,-1.23 -0.02,-2.46 -0.02,-3.69 -3.1,0.56 -7.3,-0.35 -9.59,2.11 m 17.2,-2.06 c 0.01,1.19 0.01,2.38 0.02,3.58 2.4,-0.45 4.78,-1 7.12,-1.72 -2.29,-0.96 -4.68,-1.58 -7.14,-1.86 m 256.78,10.88 c -2.95,5.51 -1.41,11.98 -1.79,17.95 3.93,-2.8 9.16,-3.77 13.72,-1.98 6.12,2.63 9.48,9.71 8.59,16.17 -7.24,1.92 -14.89,0.47 -22.31,0.92 0.11,12.66 -0.56,25.46 1.91,37.96 0.84,3.3 1.78,6.97 4.48,9.28 2.62,1.66 5.83,1.98 8.69,3.09 1.13,3.64 2.72,8.51 7.34,8.56 5.34,-0.23 12.47,1.67 16.06,-3.54 2.14,-2.51 0.97,-6.86 3.94,-8.71 2.85,-1.02 4.51,2.27 4.05,4.69 6.08,-0.12 12.16,-0.14 18.25,-0.15 7.17,0.53 14.86,-2.31 18.89,-8.49 4.49,-5.97 3.16,-13.77 3.35,-20.73 -1.63,-0.35 -4.64,0.17 -4.8,-2.19 -0.22,-3.28 -0.27,-6.6 0.05,-9.87 0.06,-2.09 2.7,-2.14 4.23,-1.79 2.24,1.74 1.33,5.01 1.73,7.47 2.71,-1.73 5.54,-4.17 5.47,-7.69 0.02,-4.37 0.32,-8.79 -0.23,-13.14 -1.05,-4.16 -5.29,-6.1 -9.2,-6.56 -2.57,0.03 -1.96,-2.97 -2.03,-4.66 1.58,-0.47 3.18,-0.89 4.81,-1.22 -0.08,-4.21 0.28,-8.71 -1.68,-12.59 -3.03,-7.13 -10.7,-11.83 -18.41,-11.51 -16.72,0.1 -33.43,0.02 -50.14,0 -6.1,-0.21 -12.21,3.25 -14.97,8.73 m 164.8,4.33 c -0.75,2.98 -1.36,6 -1.68,9.05 6.07,0.52 12.95,-1.51 18.3,2.25 3.2,2.1 4.24,5.91 5.59,9.26 0.79,-1.62 1.46,-3.31 2.23,-4.94 1.9,-4.01 6.26,-6.73 10.72,-6.55 4.35,-0.01 8.7,-0.11 13.05,0.06 4.74,0.22 8.44,3.88 10.38,7.95 4.65,-0.01 9.31,0.03 13.98,-0.04 0.57,-8.61 -6.44,-17.12 -15.28,-17.04 -19.1,-0.04 -38.19,-0.04 -57.29,0 m -443.22,11.26 c 0.01,1.91 0.03,3.82 0.06,5.72 11.66,-3.44 24.12,-3.33 35.77,0.08 -0.01,-1.93 -0.02,-3.85 -0.04,-5.78 -11.93,-0.01 -23.86,0.02 -35.79,-0.02 m 440.01,4.03 c -5.54,2.56 -5.47,12.62 0.34,14.83 4.34,0.4 8.72,0.23 13.08,0.14 8.1,-0.48 7.46,-15.92 -0.92,-15.3 -4.16,0.06 -8.39,-0.36 -12.5,0.33 m 35.99,0 c -3.3,1.26 -4.23,5.02 -3.85,8.21 -0.43,3.53 2.53,7.17 6.22,6.81 4.71,-0.04 9.45,0.28 14.15,-0.24 3.88,-1.51 4.01,-6.04 3.64,-9.56 0.09,-2.97 -2.62,-5.67 -5.59,-5.51 -4.85,0.01 -9.77,-0.42 -14.57,0.29 m -195.44,2.27 c 1.55,1.45 3.05,3.01 3.38,5.22 3.01,-0.01 6.03,0 9.05,-0.07 -1.08,-1.78 -1.85,-3.94 -3.74,-5.04 -2.59,-1.82 -5.9,-0.91 -8.69,-0.11 m -287,8.11 c 4.08,1.72 7.84,4.07 11.82,5.99 6.05,-3.49 12.39,-6.43 19.15,-8.27 2.64,-0.48 5.3,-0.91 7.98,-1.19 -1.71,-0.2 -3.42,-0.38 -5.08,-0.8 -11.42,-1.67 -23.27,-0.42 -33.87,4.27 m 508.85,-2.76 c -0.16,3.34 -0.79,6.9 -3.21,9.4 -2.87,3.43 -7.58,4.27 -11.82,4 -5.45,-0.3 -11.64,1.12 -16.34,-2.41 -2.87,-1.99 -4.12,-5.37 -4.87,-8.63 -0.48,5.54 -3.48,10.31 -5.66,15.28 2.1,0.87 4.28,1.62 6.29,2.71 2.47,1.56 0.65,6.01 -2.3,5.16 -3.42,-1.19 -7.62,-2.29 -9.23,-5.9 -0.78,-1.59 -0.29,-3.45 -0.39,-5.14 0.39,-0.33 1.18,-0.97 1.57,-1.29 -5.11,0.29 -10.22,0.21 -15.33,0.19 0.14,10.02 1.73,20.55 7.67,28.9 5.95,8.77 16.52,13.16 26.78,14.1 11.58,1.79 24.73,-0.83 32.91,-9.76 5.18,-5.49 7.53,-13.04 7.69,-20.47 -3.35,-2.05 -1.93,-6.33 -2.13,-9.55 -0.3,-2.1 2.29,-4.03 4.15,-2.79 2.36,1.05 1.48,4.19 1.99,6.22 3.57,-3.55 3.44,-8.92 2.95,-13.56 -0.28,-2.32 -1.19,-4.93 -3.3,-6.18 -5.78,-0.63 -11.63,-0.13 -17.42,-0.28 m -495.14,14.57 c -1.11,0.93 -2.86,1.02 -4.01,0.12 -5.1,-3.43 -10.6,-6.66 -16.69,-7.82 -4.11,1.93 -7.44,5.21 -10.73,8.28 3.83,2.1 6.97,5.34 8.87,9.28 3.53,7.17 4.8,15.18 5.9,23.02 0.48,6.78 0.47,13.58 0,20.35 -1.72,11.11 -3.25,24.07 -12.9,31.38 9.11,8.74 21.27,14.16 33.8,15.44 12.98,1.55 26.27,-1.78 37.47,-8.38 -6.89,-0.97 -14.1,-2.15 -19.76,-6.51 -13.6,-9.31 -19.75,-26.23 -20.03,-42.19 0.34,-14.57 5.3,-29.81 16.69,-39.49 7.32,-6.77 17.68,-9.41 27.46,-8.75 -2.95,-1.94 -6.24,-3.24 -9.73,-3.75 -12.67,-2.1 -26.06,1.38 -36.34,9.02 m 134.7,5.55 c -8.44,11.89 -6.87,27.2 -7,40.99 4.79,-1.01 9.66,-1.52 14.5,-2.26 9.26,-7.83 19.17,-14.87 28.46,-22.65 3.43,-3.4 8.54,-5.78 13.4,-4.39 6.55,1.45 11.26,6.84 14.68,12.29 8.04,13.29 10.27,29.44 8.42,44.69 -1.29,7.58 -4.03,15.71 -10.67,20.25 -2.75,1.97 -6.21,2.13 -9.42,2.66 -9.44,-3.15 -18.73,-6.73 -28.18,-9.87 -3.59,-1.26 -7.13,-2.7 -10.73,-3.92 -4.69,0.23 -9.11,2.16 -13.64,3.25 0.6,3.02 1.18,6.04 2.01,9.01 4.55,-0.32 9.14,-1.45 13.71,-0.87 0.3,0.31 0.91,0.94 1.21,1.25 0.58,4.32 0.99,8.68 1.26,13.04 -0.06,1.83 0.7,4.48 -1.61,5.22 -3.39,0.82 -6.87,1.25 -10.33,1.61 0.53,3.07 2.82,6.74 0.91,9.57 -4.23,2.5 -9.25,3.27 -14.09,3.34 -0.05,25.76 -0.12,51.52 -0.06,77.29 0.27,11.82 1.38,24.36 8.04,34.51 4.03,6.38 11.17,10.53 18.63,11.28 10.73,1.48 21.73,-0.17 32.39,1.81 0.43,1.78 0.86,3.57 0.83,5.42 0.12,14.3 0.3,28.59 0.43,42.89 0.32,-0.14 0.95,-0.43 1.27,-0.57 15.42,-14.7 31.19,-29.06 46.72,-43.66 2.22,-1.71 4.08,-4.71 7.24,-4.39 9.15,-0.05 18.3,0.02 27.45,-0.02 0.03,-0.68 0.1,-2.06 0.13,-2.74 -3.73,1.57 -7.87,0.28 -10.22,-2.95 -4.36,0.17 -8.61,-3.1 -8.87,-7.57 -0.16,-8.81 -0.04,-17.62 -0.04,-26.42 -1.19,-0.46 -2.4,-0.86 -3.52,-1.46 -0.81,-1.59 -0.49,-3.44 -0.57,-5.15 0.11,-5.62 -0.15,-11.26 0.11,-16.88 0.01,-2.06 2.58,-2.1 3.97,-2.81 -0.03,-30.42 -0.01,-60.84 -0.01,-91.25 -0.11,-8.28 3.48,-16.52 9.56,-22.11 5.56,-5.71 13.51,-8.03 21.2,-9.01 0.26,-1.6 0.23,-3.45 1.76,-4.45 2.66,-0.54 4.94,1.39 7.34,2.2 0.01,-2.18 0.01,-4.36 0.02,-6.54 -2.57,-0.62 -5.31,-1.23 -7.28,-3.13 -2.04,-1.78 -3.05,-4.33 -4.43,-6.58 -2.71,-1.22 -5.86,-1.66 -8.11,-3.75 -4.23,-3.62 -5.45,-9.35 -6.54,-14.54 -1.76,-11.54 -1.73,-23.25 -1.62,-34.9 -5.05,-0.74 -10.17,-0.31 -15.25,-0.42 -28,-0.01 -56.01,-0.2 -84.01,-0.17 -10.92,0.23 -22.86,3.46 -29.45,12.86 M 577.4,177.42 c -0.03,8.18 0.03,16.36 -0.02,24.54 0.2,6.4 -4.29,12.49 -10.3,14.52 -2.87,1.14 -6.01,0.7 -9,1.02 -3.45,6.11 -8.7,11.34 -15.5,13.55 -0.06,1.68 -0.09,3.36 -0.11,5.04 2.24,-0.61 5.13,-2.82 6.9,-0.17 0.9,4.41 0.18,9 0.41,13.47 9.87,0.58 20.29,-1.67 29.64,2.46 8.3,3.56 14.9,10.95 17.25,19.71 1.37,4.36 1.08,8.97 1.1,13.48 -0.01,28.79 0.01,57.58 -0.01,86.37 1.62,0.29 3.24,0.66 4.84,1.08 0.96,4.45 0.5,9.01 0.59,13.53 -0.07,5.51 0.57,11.37 -1.85,16.52 -0.99,2.31 -3.44,3.17 -5.56,4.12 -0.21,7.17 0.7,14.33 0.35,21.51 -0.64,3.18 -1.96,6.85 -5.14,8.26 -3.15,1.45 -6.32,-0.51 -8.99,-2.05 -3.19,1.04 -6.62,0.35 -8.91,-2.15 0.02,1.66 0.02,3.32 0.03,4.99 22.41,0.05 44.81,0.01 67.22,0.02 -0.01,-1.52 -0.01,-3.03 0,-4.54 -3.91,1.74 -8.79,1.32 -11.39,-2.4 -4.38,0.19 -8.86,-2.59 -9.38,-7.17 -0.6,-42.7 -0.28,-85.42 -0.36,-128.13 0.08,-6.37 -0.31,-12.76 0.56,-19.09 1.12,-4.03 2.34,-8.12 4.78,-11.58 4.12,-6.56 11.63,-10.97 19.43,-10.97 6.45,-0.09 12.9,0.01 19.35,-0.03 0.12,-7.34 -0.18,-14.69 0.19,-22.02 -11.95,-1.29 -23.71,-7.44 -30.14,-17.83 -6.25,-9.78 -7.48,-21.67 -7.57,-33.01 -1.08,-0.98 -2.14,-1.99 -3.19,-2.99 -15.07,0.02 -30.15,-0.05 -45.22,-0.06 m 152.07,21.66 c -1.38,3.54 -4.49,5.92 -7.58,7.91 2.84,4.29 5.11,9 5.99,14.11 1.98,11.25 -1.72,22.73 -7.69,32.21 5.01,-0.16 10.19,0.31 14.7,2.72 9.98,4.94 16.25,15.96 16.26,27 0.02,12.58 0.02,25.17 -0.01,37.75 2.61,0.1 7.34,-0.66 7.31,3.23 0.11,18.18 -0.04,36.37 0.07,54.55 -1.76,2.4 -4.81,1.73 -7.37,1.83 -0.03,5.55 0.07,11.1 -0.01,16.65 0.12,1.44 -0.92,2.56 -1.56,3.74 0.04,8.42 0.1,16.85 0.02,25.27 0.16,3.31 -2.59,6.03 -5.58,6.95 -2.28,0.84 -4.59,-0.25 -6.78,-0.78 -0.02,1.65 -0.04,3.31 -0.04,4.97 16.63,-0.25 33.31,0.69 49.89,-0.76 8.58,-0.81 17.89,-4.73 21.19,-13.32 1.85,-5.17 2.48,-10.65 2.38,-16.11 -0.06,-63.69 -0.18,-127.37 -0.27,-191.05 -0.18,-10.06 -2.48,-21.13 -10.35,-28.07 -8.35,-7.65 -20.16,-9.42 -31.04,-10.1 -12.53,-0.29 -25.06,0 -37.59,-0.11 -0.41,7.13 1.02,14.67 -1.94,21.41 m -503.4,-10.91 c -10.66,5.75 -16.79,17.25 -19.28,28.73 -1.98,12.26 -0.42,25.39 6.23,36.06 5.21,8.87 14.46,15.72 24.98,16.17 2.51,-0.32 5.02,-0.57 7.56,-0.57 0.78,-0.51 1.56,-1.03 2.35,-1.52 -8.68,2.23 -17.79,-1.91 -23.96,-7.95 -9.2,-9.02 -13.06,-22.47 -12.49,-35.1 1,-11.82 5.57,-24.03 15.2,-31.48 6.15,-5.05 14.33,-6.93 22.14,-6.06 -7.41,-2.37 -15.83,-2.22 -22.73,1.72 m -66.72,2.52 c 0.01,0.2 0.04,0.6 0.06,0.81 2.96,2.59 5.69,5.58 6.85,9.44 3.8,10.54 4.63,21.97 3.96,33.08 -0.94,7.94 -1.94,16.19 -5.91,23.29 -1.28,2.36 -3.7,3.78 -5.16,5.99 2.39,0.67 5.35,0.99 7.17,-1.1 5.14,-5.35 6.62,-13.05 8,-20.09 1.61,-10.96 1.52,-22.16 -0.52,-33.06 -1.43,-6.06 -2.93,-12.65 -7.47,-17.22 -1.79,-1.98 -4.64,-1.87 -6.98,-1.14 m 78.8,1.85 c -9.02,2.75 -15.49,10.73 -18.64,19.34 -4.28,11.87 -3.41,25.75 3.08,36.66 3.95,6.84 10.56,12.05 18.32,13.79 2.39,0.08 4.77,0.08 7.16,-0.01 3,-1.01 6.12,-1.84 8.8,-3.6 3.2,-1.99 5.5,-5.04 8.01,-7.78 -3.29,2.84 -7.41,4.96 -11.87,4.61 -7.83,0.08 -13.93,-6.03 -17.52,-12.42 0.61,-1.16 0.58,-3.48 2.37,-3.37 7.04,-0.45 14.12,-0.13 21.18,-0.28 3.71,0.12 7.58,-0.54 11.13,0.88 1.87,-6.25 1.92,-12.85 1.46,-19.3 -1,-9.9 -5.98,-19.56 -14.18,-25.37 -5.56,-3.77 -12.84,-5.37 -19.3,-3.15 m -85.44,4.18 c -2.55,2.13 -3.82,5.37 -4.83,8.45 -3.21,10.73 -3.07,22.11 -2.23,33.17 4.34,-0.04 8.69,-0.18 13.03,0.05 0.49,5.24 -1.44,10.82 -5.54,14.23 -1.92,-0.22 -3.62,-1.06 -5.11,-2.24 1.78,3.16 3.27,6.87 7,8.19 6.46,-3.3 7.55,-11.33 8.82,-17.74 1.69,-11.04 1.47,-22.5 -1.17,-33.38 -0.99,-3.61 -2.23,-7.35 -4.87,-10.12 -1.24,-1.43 -3.51,-1.41 -5.1,-0.61 m 221.02,11.92 c -3.54,3.78 -5.52,8.67 -6.51,13.69 7.35,1.02 14.56,3.21 22.02,3.22 5.17,3.33 7.06,9.57 7.97,15.32 0.67,5.32 0.22,11.51 -4.01,15.34 -6.26,1.99 -11.74,5.75 -17.48,8.84 -1.15,1.19 0.7,2.23 1.22,3.24 2.92,3.71 7.43,7.52 12.5,6.02 5.12,-1.89 6.98,-7.62 8.78,-12.26 1.51,-6.26 1.77,-12.75 1.34,-19.16 -1.02,-11.52 -4.42,-23.45 -12.38,-32.16 -2.19,-1.77 -4.54,-3.57 -7.38,-4.07 -2.25,-0.42 -4.17,1.05 -6.07,1.98 M 710,209.47 c -2.33,5.54 -6.05,10.31 -10.51,14.3 2.91,9.44 9.04,18.12 17.5,23.31 2.9,-5.26 4.8,-11.11 5.41,-17.1 0.71,-7.68 -1.79,-15.61 -6.9,-21.39 -1.82,0.38 -3.66,0.66 -5.5,0.88 M 347.02,230 c -2.56,1.86 -3.19,5.15 -4.44,7.87 -0.27,2.36 -0.52,4.73 -0.49,7.1 -0.25,6.66 3.18,13.09 8.01,17.48 6.52,2.72 13.34,4.67 19.92,7.26 -0.94,-3.04 -2.79,-5.66 -3.99,-8.58 -2.72,-6.03 -4.1,-12.55 -5.2,-19.04 -0.49,-6.3 -0.95,-12.75 0.38,-18.98 0.16,-1.19 0.47,-3.59 0.63,-4.78 -4.82,4.05 -9.96,7.68 -14.82,11.67 m 19.36,-1.83 c -0.72,10.94 1.21,21.98 5.56,32.03 4.3,-2.05 8.45,-4.39 12.52,-6.87 -4.69,-6.47 -4.85,-14.97 -3.72,-22.58 -4.78,-0.9 -9.55,-1.87 -14.36,-2.58 m 302.9,3.62 c 0.05,8.66 0.08,17.32 -0.02,25.97 2.86,4.63 5.36,9.47 8.3,14.06 4.76,-5 9.59,-9.94 14.48,-14.81 0.74,-0.89 1.93,-1.75 1.75,-3.06 0.05,-8.88 0.02,-17.77 -0.01,-26.65 -7.47,4.1 -16.12,5 -24.5,4.49 m -282.34,-0.72 c -2.36,6.44 -0.84,13.45 2.18,19.38 0.52,-0.3 1.55,-0.92 2.07,-1.23 1.03,-6.21 0.15,-13.35 -4.25,-18.15 m 124.62,1.32 c -3.12,5.92 -10.03,8.16 -16.36,7.61 0.01,3.05 -0.12,6.11 0.05,9.16 2.42,1.95 5.55,2.81 8.33,4.16 1.68,1.13 3.47,-0.16 5.05,-0.8 9.33,-4.53 18.74,-8.9 28.07,-13.43 0,-2.3 0.01,-4.59 0.02,-6.88 -8.39,0.08 -16.78,0.13 -25.16,0.18 m -202.78,6.28 c -3.82,1.6 -6.69,5.05 -7.28,9.18 -0.65,6.24 0.7,13 4.79,17.9 2.16,2.18 5.34,4.57 8.56,3.23 7.68,-2.08 15.41,-3.96 23.08,-6.11 1.15,-0.26 2.32,-0.51 3.49,-0.76 -0.71,-1.45 -1.41,-2.88 -2.14,-4.31 -4.09,-7.12 -3.58,-15.55 -2.32,-23.34 -9.36,1.57 -18.75,3.1 -28.18,4.21 m 390.94,-0.4 c -0.03,5.01 -0.03,10.03 0,15.04 5.08,0.05 10.17,-0.02 15.26,0.06 -5.86,-4.18 -11.16,-9.16 -15.26,-15.1 m -551.75,4.54 c 0.48,2.4 2.14,5.67 5.13,4.64 1.2,-1.23 2.15,-2.66 3.13,-4.05 -2.73,-0.5 -5.49,-0.68 -8.26,-0.59 m 359.68,16.81 c 0.01,2.51 0.01,5.03 0.02,7.54 5.87,-2.11 11.21,-5.41 16.9,-7.95 6.37,-3.36 13.12,-6.03 19.23,-9.86 0,-2.36 -0.01,-4.71 -0.04,-7.06 -11.99,5.86 -24.17,11.35 -36.11,17.33 M 243.08,245.35 c 5.22,6.17 15.22,6.03 20.46,-0.01 -6.81,-0.27 -13.64,-0.19 -20.46,0.01 m 243.23,6.59 c 0.29,2.21 -0.69,4.9 0.46,6.88 4.97,2.96 10.02,5.79 15.02,8.72 0.01,-2.85 0.02,-5.69 -0.04,-8.53 -5.2,-2.25 -10.24,-4.84 -15.44,-7.07 m -29.24,18.95 c -2.14,4.75 -1.66,10.06 -1.72,15.13 0.02,28.55 -0.01,57.11 0.02,85.66 4.15,-0.01 8.31,0 12.47,-0.01 -0.01,-26.23 -0.01,-52.46 0.01,-78.68 0.33,-4.32 -4.16,-6.93 -4.84,-10.99 0.34,-1.06 0.67,-2.45 2.01,-2.56 3.66,-1.1 4.67,3.55 6.28,5.8 2.75,-2.22 4.5,-6.98 8.77,-5.78 0.36,0.68 1.09,2.05 1.45,2.73 -1.86,3.78 -5.51,6.21 -7.65,9.78 -0.29,32.95 -0.05,65.91 -0.12,98.87 18.42,0 36.83,-0.1 55.25,-0.01 10.31,-0.02 20.61,0.04 30.92,-0.03 0.58,-4.24 -0.18,-8.48 -0.11,-12.73 -0.05,-3.43 1.6,-6.64 1.38,-10.09 -0.08,-25.05 0.06,-50.1 -0.06,-75.15 -1.47,-4.29 -4.87,-7.75 -6.72,-11.93 0.93,-2.39 3.25,-3.5 5.58,-2.18 0.98,1.84 2.05,3.63 3.12,5.43 2.63,-2.17 4.99,-7.96 9.07,-5.29 2.2,4.24 -3.15,6.99 -5.18,10.05 0.02,27.56 -0.04,55.12 0.03,82.67 8.25,-0.05 16.5,-0.01 24.75,-0.02 0,-30.84 0.04,-61.69 -0.02,-92.53 0.09,-10.1 -7.27,-19.58 -16.85,-22.51 -5.44,-1.97 -11.3,-1.04 -16.94,-1.24 -4.19,0.16 -8.45,-0.36 -12.59,0.25 -10.5,5.17 -20.97,10.4 -31.52,15.47 2.36,2.85 4.74,6.18 4.56,10.08 -0.03,4.82 -3.3,9.07 -7.49,11.18 4.65,18.26 9.8,36.41 14.79,54.58 0.46,2.49 2.3,5.72 -0.02,7.8 -6.27,6.74 -12.64,13.38 -19.01,20.03 -1.21,1.66 -4.01,1.57 -5.08,-0.18 -5.01,-6.03 -9.85,-12.2 -14.9,-18.2 -1.14,-1.51 -2.92,-3.14 -1.94,-5.2 5.23,-19.63 10.76,-39.18 15.84,-58.85 -3.95,-1.88 -7.19,-5.63 -7.35,-10.15 -0.53,-3.9 1.21,-7.58 3.79,-10.4 -5.26,-3.44 -11.09,-5.98 -16.19,-9.64 -0.98,-2.15 -0.39,-4.63 -0.6,-6.9 -9.89,0.09 -19.64,6.38 -23.19,15.74 m 178.39,-9.16 c -7.13,4.46 -10.32,13.17 -10.35,21.28 0,37.13 0,74.26 0,111.4 5.08,-0.01 10.17,0 15.26,-0.01 -0.37,-22.21 0.17,-44.43 -0.02,-66.64 -3.95,-1.79 -8.08,-4.93 -8.06,-9.7 -0.23,-10.27 4.24,-19.95 9.24,-28.67 1.92,-2.74 3.27,-6.17 6.28,-7.92 2.65,-0.31 4.52,3.1 2.64,5.09 -6.25,9.07 -11.9,19.27 -12.32,30.52 -0.15,2.81 2.5,4.63 4.94,5.27 6.06,1.37 12.33,1.21 18.51,1.16 0.67,-1.27 1.6,-2.6 3.22,-2.57 17.55,-0.48 35.13,-0.24 52.69,-0.31 -0.02,-9.51 0.03,-19.01 -0.03,-28.52 -2.06,1.38 -3.79,4.11 -6.62,3.51 -2.03,-0.9 -2.41,-4.14 -0.44,-5.28 3.88,-2.84 6.72,-6.94 7.55,-11.73 2.11,-1.73 5.66,-0.66 5.37,2.4 0.08,37.91 0.01,75.82 0.04,113.74 7.28,-0.07 14.58,0.15 21.87,-0.1 0.25,-36.88 0.02,-73.76 0.11,-110.64 0.06,-9.07 -4.62,-18.43 -12.87,-22.65 -6.87,-3.49 -14.83,-1.75 -22.21,-2.14 -8.53,8.87 -17.5,17.3 -26.13,26.07 -2.52,2.59 -5.08,5.17 -7.99,7.32 -0.62,-0.34 -1.84,-1.03 -2.45,-1.37 -6.6,-10.7 -13.3,-21.33 -19.92,-32.01 -6.12,0.17 -12.88,-1.07 -18.31,2.5 m 25.31,-2.81 c 4.79,8.8 10.59,17.01 15.66,25.64 8.58,-8.4 17.06,-16.89 25.57,-25.36 -1.36,0.01 -2.71,0.02 -4.06,0.04 -6.17,6.41 -12.37,12.8 -18.63,19.13 -1.08,1.45 -3.8,1.78 -4.74,0.01 -3.88,-6.19 -7.24,-12.72 -11.19,-18.87 -0.65,-0.15 -1.95,-0.44 -2.61,-0.59 M 321.28,273.4 c 0.24,3.46 0.54,6.92 1.14,10.34 2.08,-0.53 4.16,-1.06 6.26,-1.52 -0.86,-3.37 -1.61,-6.77 -2.25,-10.19 -1.73,0.41 -3.45,0.86 -5.15,1.37 M 305,276.01 c -4.79,1.94 -9.54,4.21 -13.49,7.6 4.78,4.37 9.63,8.66 14.31,13.13 7.5,-0.02 14.93,-1.02 22.4,-1.48 5.41,-0.86 10.85,-1.53 16.31,-2.04 -0.05,-2.89 -0.2,-5.78 -0.34,-8.66 -4.82,0.17 -9.6,0.92 -14.42,1.05 -7.57,1.02 -15.22,1.58 -22.85,1.92 -3.05,0.39 -3.57,-4.66 -0.88,-5.44 3.06,-1.31 6.33,-2.09 9.51,-3.09 0.03,-0.92 0.09,-2.76 0.12,-3.67 -3.55,0.05 -7.3,-0.85 -10.67,0.68 M 503.05,275 c -4.29,1.5 -5.27,7.94 -1.72,10.71 3.23,3.06 9.26,1.66 10.69,-2.61 2.31,-5.12 -4.12,-10.64 -8.97,-8.1 m -229.67,6.8 c 7.51,7.27 15.45,14.11 22.76,21.59 1.2,-1.34 2.95,-2.38 3.52,-4.15 -4.69,-4.59 -9.54,-9.07 -14.39,-13.52 -2.87,-2.39 -5.34,-5.23 -8.29,-7.52 -1.77,-0.31 -3.83,1.83 -3.6,3.6 m -28,28.77 c 0.07,0.39 0.22,1.18 0.29,1.57 3.61,1.98 8.62,2.4 11.6,-0.91 4.96,-5.35 10.1,-10.54 14.89,-16.05 1.09,-1.13 2.19,-2.24 3.32,-3.33 -2.24,-2.08 -4.52,-4.13 -6.62,-6.35 -7.85,8.34 -15.61,16.76 -23.48,25.07 m -59.05,-14.74 c 13.99,0.45 28.03,0.48 42.01,-0.03 -0.17,-1.36 -0.4,-2.71 -0.61,-4.06 -13.72,0.07 -27.44,0.01 -41.16,0.03 -0.09,1.35 -0.17,2.7 -0.24,4.06 m 75.64,19.12 c -4.45,4.91 -12.02,5.84 -17.86,3.01 -1.05,-0.89 -2.11,-1.77 -3.16,-2.65 -3.56,3.85 -6.97,7.87 -10.82,11.45 2.66,-0.08 5.33,-0.1 8,0.02 3.22,0.97 6.56,1.83 9.37,3.77 5.19,3.23 8.38,8.73 10.24,14.42 8.73,-10 18.09,-19.46 27.03,-29.28 2.47,-2.71 4.92,-5.46 7.65,-7.92 -3.9,-3.85 -8.03,-7.46 -11.97,-11.27 -0.32,-0.02 -0.96,-0.07 -1.29,-0.09 -5.81,6.1 -11.45,12.37 -17.19,18.54 m 243.79,-18.22 c -5.22,18.2 -9.86,36.56 -15.07,54.77 4.15,5.44 8.53,10.71 12.91,15.97 0.84,1.38 2.1,-0.4 2.8,-0.99 4.79,-5.05 9.49,-10.2 14.3,-15.23 -4.99,-18.18 -9.8,-36.39 -14.94,-54.52 m -181.48,5.06 c 0.08,1.66 0.16,3.32 0.27,4.98 3.1,-0.09 6.23,-0.26 9.23,-1.12 -0.2,-1.82 -0.41,-3.63 -0.61,-5.44 -3.04,0.01 -6.03,0.59 -8.89,1.58 M 186.4,302.1 c 0.02,1.42 0.06,2.84 0.11,4.27 13.89,0 27.78,0.09 41.67,-0.05 0,-1.41 0,-2.81 -0.01,-4.22 -13.92,-0.17 -27.85,-0.16 -41.77,0 m 119.53,0.64 c -1.33,0.08 -2.08,1.39 -3.02,2.17 -3.41,3.67 -6.94,7.22 -10.25,10.98 3.44,6.73 5.51,14.43 4.71,22.01 -1.46,2.79 -5.09,1.55 -7.6,1.91 1.6,5.26 1.06,10.79 1.12,16.2 0,19.03 0.01,38.05 -0.01,57.08 -0.1,4.7 2.11,9.16 1.63,13.89 -0.34,4.08 -2.44,7.85 -2.22,12.01 0.04,22.35 -0.17,44.71 -0.14,67.06 -0.07,1.44 0.04,3.01 -0.68,4.33 -2.21,1.72 -5.25,0.74 -7.82,1.01 2.05,4.53 4.13,9.06 5.45,13.87 60.43,0.11 120.87,0.04 181.31,0.04 0.02,-27.2 0.05,-54.41 -0.01,-81.61 -8.5,0.03 -17,-0.06 -25.49,0.01 -1.7,-0.21 -2.94,1.08 -4.12,2.06 -17.73,16.63 -35.58,33.12 -53.35,49.71 -1.22,1.44 -3.78,1.79 -4.98,0.16 -1.51,-1.48 -1.1,-3.76 -1.24,-5.65 0.19,-15.54 -0.67,-31.06 -0.51,-46.6 -4.55,-0.07 -9.09,-0.19 -13.62,-0.49 -5.69,-0.35 -11.46,0.07 -17.05,-1.27 -7.15,-1.52 -13.88,-5.41 -18.38,-11.23 -5.98,-7.57 -8.32,-17.2 -9.85,-26.53 -1.52,-12.57 -0.92,-25.25 -0.98,-37.87 -0.08,-21.34 0.33,-42.68 -0.25,-64 -4.21,0.43 -8.45,0.29 -12.65,0.75 m -174.04,12.1 c -9.14,9.14 -13.11,22.32 -13.59,34.98 17.81,0.02 35.63,0.02 53.44,0 0.19,-11.82 -0.27,-23.85 -3.62,-35.26 -1.59,-4.47 -3.97,-10.04 -9.2,-10.94 -10.08,-0.54 -20.12,3.99 -27.03,11.22 m 49.78,-3.64 c 3.91,4.18 7.3,8.85 9.38,14.23 8.01,0.31 15.99,1.13 24,1.46 2.11,0.37 4.25,0.5 6.38,0.64 5.34,-5.1 9.93,-10.93 15.26,-16.04 -4.62,-0.54 -9.11,1 -13.71,0.78 -12.33,-0.12 -24.67,0.13 -37,-0.13 -1.41,-0.41 -2.86,-0.69 -4.31,-0.94 m -7.63,2.07 c 0.76,3.71 1.66,7.4 2.37,11.12 2.66,0.18 5.31,0.33 7.98,0.38 -2.31,-4.72 -5.68,-8.95 -10.35,-11.5 m 107.44,14.62 c -0.74,1.81 -0.01,3.88 -0.01,5.78 3.33,0.02 6.67,0.03 10.01,-0.03 -0.55,-4.35 -1.31,-8.78 -3.37,-12.71 -2.32,2.21 -4.61,4.47 -6.63,6.96 m 386.2,-1.21 c -0.04,15.92 0,31.85 -0.02,47.77 0.65,0.02 1.94,0.06 2.58,0.08 0,-15.97 0.02,-31.93 -0.01,-47.9 -0.64,0.01 -1.91,0.04 -2.55,0.05 m 8.65,0.21 c -0.28,15.86 -0.02,31.73 -0.13,47.59 0.6,0.02 1.79,0.05 2.39,0.07 -0.01,-16.07 0.14,-32.15 -0.08,-48.22 -0.54,0.14 -1.64,0.42 -2.18,0.56 m 8.15,47.62 c 11,0.01 22.01,0.01 33.01,0 -0.02,-15.96 0.03,-31.92 -0.02,-47.87 -10.99,0 -21.98,0 -32.96,-0.01 -0.07,15.96 -0.02,31.92 -0.03,47.88 m 66.73,-47.9 c -0.13,14.45 0.01,28.9 -0.08,43.36 0,1.85 -0.15,3.81 0.95,5.45 0.52,-2.45 0.46,-4.95 0.46,-7.43 -0.06,-13.8 0.05,-27.6 -0.06,-41.41 l -1.27,0.03 m -104.88,2.51 c 0.02,13.79 -0.03,27.58 0.02,41.38 5.17,-0.02 10.35,-0.01 15.53,-0.01 -0.01,-13.69 0.02,-27.37 -0.01,-41.06 -5.19,0.1 -10.37,-0.08 -15.54,-0.31 m -466.27,1.45 c 0.85,2.11 1.61,4.5 3.67,5.78 3.22,2.44 7.48,1.9 11.26,2.13 6.3,0 12.52,1.29 18.82,1 1.3,-2.47 3.05,-4.68 5.02,-6.65 -12.95,-0.37 -25.85,-1.6 -38.77,-2.26 m 52.37,2.08 c -10.61,1.47 -18.23,13.05 -15.16,23.35 2.2,9.21 12.7,15.78 21.85,12.56 9.45,-2.42 15.26,-13.42 12.54,-22.65 -1.96,-8.37 -10.68,-14.52 -19.23,-13.26 m 26.26,19.8 c -1.93,5.71 -2.6,12 -6.1,17.09 -3.55,5.87 -10.66,10.31 -17.65,8.52 -4.37,-0.89 -7.41,-4.82 -11.95,-5.15 -5.94,-0.65 -11.97,-0.27 -17.88,-1.28 -3.64,-0.16 -7.27,-0.37 -10.91,-0.47 -0.01,37.7 0,75.39 -0.01,113.09 25.73,0.03 51.45,-0.03 77.18,0.03 3.14,-5.16 4.53,-11.24 4.39,-17.25 -0.06,-44.32 0.08,-88.64 -0.08,-132.96 -5.68,6.1 -11.44,12.16 -16.99,18.38 m -81.14,-14.11 c 0.23,5.34 0.11,10.68 -0.15,16.02 -1.05,0.49 -1.98,1.44 -3.22,1.36 -9.68,0.13 -19.36,-0.1 -29.04,0.1 2.05,3.13 4.89,6.29 8.88,6.55 4.18,0.31 8.38,0.36 12.52,1.05 3.81,0.22 7.64,0.16 11.42,0.71 12.68,0.57 25.32,1.77 38,2.4 -4.2,-6.08 -6.5,-13.82 -4.47,-21.12 -6.51,-0.28 -12.98,-0.95 -19.5,-1.07 -5.33,-0.08 -11.13,-1.45 -14.44,-6 m 104.5,1.11 c -0.33,8.39 -0.18,16.79 -0.08,25.18 1.09,-0.35 2.18,-0.7 3.27,-1.05 -0.05,-4.87 0,-9.74 -0.01,-14.6 -0.05,-3.38 -0.56,-7.13 -3.18,-9.53 m -151.25,16.3 c -0.01,36.1 0.02,72.2 -0.01,108.3 -0.22,7.11 1.8,14.12 5.43,20.21 17.33,-0.01 34.67,0 52,-0.02 0.01,-37.89 0.02,-75.78 0,-113.67 -3.35,-0.15 -6.72,-0.18 -10.03,-0.71 -8.37,-0.26 -16.68,-1.12 -25.03,-1.62 -6.71,-0.92 -12.19,-6.06 -14.14,-12.46 -2.74,-0.04 -5.48,-0.04 -8.22,-0.03 m 151.09,17.19 c -0.02,10.36 -0.04,20.73 0.01,31.09 -0.38,2.17 2,2.93 3.29,4.12 0.06,-12.78 0.05,-25.56 0.01,-38.33 -1.51,0.42 -3.82,0.97 -3.31,3.12 m 364.44,3.36 c 0,2.79 0,5.58 0,8.38 23.73,-0.02 47.46,0.03 71.18,-0.03 0,-1.06 -0.02,-3.2 -0.03,-4.26 -17.89,-0.02 -35.78,0.02 -53.67,-0.05 -0.43,-0.36 -1.29,-1.07 -1.72,-1.43 -0.08,-0.66 -0.24,-1.98 -0.32,-2.64 -5.15,0.05 -10.29,0.02 -15.44,0.03 m -195.09,1.32 c -0.02,4.53 -0.04,9.06 0.01,13.59 5.51,0 11.01,0 16.52,0 0.04,-4.53 0.03,-9.06 0.02,-13.58 -5.52,0 -11.04,0 -16.55,-0.01 m 114.88,0.01 c 0,4.53 -0.02,9.05 0.03,13.58 10.34,-0.01 20.68,0 31.02,0 0.02,-4.53 0.01,-9.05 0.01,-13.58 -10.35,0 -20.71,0 -31.06,0 m 80.24,132.72 c 2.69,-0.02 5.38,-0.02 8.08,-0.03 0.08,-14.09 -0.07,-28.18 0.07,-42.27 -0.11,-2.66 3.04,-2.79 4.97,-2.59 0.48,1.47 0.98,2.96 0.91,4.54 0.01,13.43 -0.05,26.86 0.02,40.3 7.82,-0.05 15.63,-0.09 23.45,-0.09 0.12,-20.44 -0.03,-40.88 0.07,-61.32 -0.22,-1.81 1.03,-3.94 3.12,-3.47 1.84,-0.13 2.76,1.97 2.59,3.55 0.07,20.39 -0.02,40.79 0.05,61.18 13.87,-0.1 27.74,-0.38 41.61,-0.28 -0.02,-25.48 0.06,-50.96 -0.04,-76.44 -1.7,-1.01 -3.23,-2.25 -4.61,-3.64 -4.54,0.58 -9.2,-2.98 -9.15,-7.68 -0.1,-10.5 -0.02,-21.01 -0.01,-31.51 -23.71,-0.01 -47.43,0.01 -71.14,-0.01 -0.03,39.92 -0.04,79.84 0.01,119.76 M 455.46,396.87 c -0.19,8.67 -0.13,17.35 -0.06,26.02 -0.22,1.37 0.79,2.31 1.96,2.8 0.39,-5.68 0.1,-11.38 0.16,-17.07 1.52,-1.83 4.86,-2.44 5.78,0.3 0.38,6.61 0.01,13.24 0.17,19.86 0.57,0.04 1.71,0.14 2.28,0.18 0.13,-6.38 -0.11,-12.77 0.11,-19.14 0,-1.3 1.27,-2.02 1.93,-2.97 0.07,-3.33 0.09,-6.67 -0.1,-9.99 -4.08,0.05 -8.16,0.04 -12.23,0.01 m 18.76,-0.08 c -0.05,4.32 -0.03,8.65 -0.03,12.97 6.88,0.03 13.76,-0.07 20.64,0.06 -0.34,-4.34 -0.22,-8.69 -0.18,-13.04 -6.81,0.02 -13.62,0 -20.43,0.01 m 26.43,0.62 c 0.09,3.54 -0.39,7.14 0.28,10.64 3.07,1.5 7.07,0.28 10.48,0.7 1.62,-3.53 0.68,-7.5 0.91,-11.23 -3.78,-1.13 -7.87,-1.03 -11.67,-0.11 m 17.54,-0.63 c 0.08,4.32 0.17,8.65 -0.42,12.94 15.21,0.07 30.41,0.07 45.62,-0.01 -0.03,-4.14 -0.04,-8.28 0.01,-12.42 -1.8,-0.3 -3.62,-0.55 -5.44,-0.52 -13.26,0.03 -26.51,0.02 -39.77,0.01 m 51.34,0.41 c -0.01,7.95 0,15.91 -0.02,23.87 -0.08,1.61 0.23,3.21 0.77,4.73 0.73,-1.17 1.98,-2.23 1.83,-3.74 0.13,-5.74 -0.33,-11.51 0.37,-17.22 0.81,-0.41 1.63,-0.81 2.45,-1.2 0.79,0.41 1.58,0.82 2.39,1.23 1.26,8.07 -0.23,16.28 1.12,24.35 0.71,-0.76 2.26,-1.03 2.27,-2.27 0.44,-7.37 -0.42,-14.81 0.75,-22.14 0.87,-0.43 1.74,-0.86 2.62,-1.29 1.09,0.88 2.58,1.73 2.41,3.38 0.25,6.35 0.11,12.72 0.2,19.08 -0.12,1.89 0.5,3.69 1.19,5.44 1,-1.28 2.19,-2.6 1.93,-4.37 0.16,-8.05 -0.44,-16.13 0.06,-24.17 1.64,-2.85 6.47,-1.44 7.2,-5.44 -9.17,-0.53 -18.36,-0.1 -27.54,-0.24 m 55.84,3.03 c 0.06,7.25 -0.14,14.5 0.08,21.75 -0.18,1.6 1.55,1.93 2.69,2.43 0.23,-5.44 -0.15,-10.9 0.19,-16.34 0.09,-2.67 5.16,-2.72 5.52,-0.15 0.43,6.41 -0.08,12.85 0.23,19.26 0.62,0.32 1.86,0.96 2.48,1.28 0.59,-6.64 -0.04,-13.31 0.34,-19.94 0.32,-1.74 2.15,-2.29 3.47,-3.09 -0.02,-1.73 -0.03,-3.46 -0.02,-5.18 -5,-0.04 -9.99,-0.02 -14.98,-0.02 m 97.95,0.34 c 0.07,7.08 -0.16,14.17 0.09,21.25 -0.3,1.79 1.54,1.71 2.78,1.98 0.03,-5.67 -0.05,-11.34 0.06,-17 1.66,-1.26 4.47,-1.95 5.38,0.54 0.62,6.71 -0.47,13.51 0.62,20.18 0.59,0.01 1.77,0.01 2.36,0.01 0.21,-6.48 -0.1,-12.97 0.15,-19.45 0.45,-2.71 4.66,-3.48 5.59,-0.65 0.54,6.68 -0.03,13.42 0.29,20.12 0.65,-0.12 1.94,-0.35 2.59,-0.47 0.95,-8.74 0.2,-17.69 0.32,-26.51 -6.75,-0.01 -13.49,-0.01 -20.23,0 m -441.34,12.97 c -0.07,7.88 -0.41,15.8 0.25,23.67 1.75,-2.66 3.55,-5.42 4.12,-8.61 1.18,-5.38 -0.74,-11.04 -4.37,-15.06 m 192.21,2.27 c 0,49.88 0,99.75 0,149.63 1.68,-0.02 3.36,-0.03 5.04,-0.03 0.14,-8.69 -0.26,-17.39 0.2,-26.06 1.59,-1.19 4.73,-1.54 5.78,0.53 0.28,8.51 0,17.04 0.13,25.56 9.48,-0.02 18.97,0 28.46,-0.01 -0.01,-42.39 0,-84.78 0,-127.17 -2.91,-0.04 -5.83,0.17 -8.71,-0.16 -2.44,-0.89 -2.28,-5.04 0.34,-5.48 2.85,-0.34 5.73,-0.14 8.6,-0.19 1.8,0.13 4.14,-0.39 5.29,1.43 0.64,2.33 0.32,4.78 0.39,7.17 -0.02,41.46 -0.01,82.93 0,124.39 1.98,0.01 3.96,0.01 5.95,0.02 0.05,-13.82 0.01,-27.64 0.01,-41.46 0.04,-1.49 -0.11,-3.3 1.41,-4.15 1.5,-1.2 3.13,0.13 4.55,0.74 0.3,14.94 0.05,29.89 0.13,44.84 11.87,0.05 23.73,0.02 35.59,0.02 0.01,-44.84 0.03,-89.67 -0.01,-134.5 -1.33,-1.56 -2.93,-3.03 -3.66,-4.98 -0.58,-3.32 -0.24,-6.71 -0.31,-10.06 -29.72,-0.08 -59.45,-0.09 -89.18,-0.08 m -192.31,37.98 c 0.63,-0.01 1.9,-0.03 2.53,-0.04 0.01,-3.67 0.04,-7.33 -0.06,-10.99 -4,2.3 -2.02,7.31 -2.47,11.03 m 291.27,-10.1 c -0.04,27.21 -0.05,54.42 0,81.63 28.48,0.04 56.96,-0.08 85.44,0.06 0.12,-3.08 0.14,-6.17 0.15,-9.24 -5.27,-0.13 -10.55,0.27 -15.81,-0.08 -2.21,0.16 -2.62,-2.31 -2.57,-3.98 -0.03,-22.8 0.03,-45.6 -0.03,-68.4 -22.39,0 -44.79,-0.01 -67.18,0.01 m -291.16,16.19 c -0.27,7.45 0.54,15.26 -2.65,22.26 -1.52,2.78 -1.42,6.46 -4.09,8.52 -0.03,1.25 -0.05,2.51 -0.07,3.78 3.04,0.02 6.07,0.05 9.11,0.05 -0.01,-11.75 0.18,-23.51 0.01,-35.26 -0.58,0.16 -1.74,0.49 -2.31,0.65 m -140.44,30.39 c 3.91,2.92 8.46,5.37 13.48,5.34 11.07,0.08 22.15,0.08 33.22,-0.01 -0.02,-1.83 -0.03,-3.64 -0.04,-5.46 -15.55,0.05 -31.11,-0.2 -46.66,0.13 m 52.66,-0.16 c -0.01,1.84 -0.02,3.69 -0.02,5.54 19.93,-0.02 39.87,0.07 59.81,-0.04 4.81,0.06 9.12,-2.42 12.77,-5.33 -24.18,-0.37 -48.37,-0.04 -72.56,-0.17 m 66.04,10.56 c -0.02,1.61 -0.03,3.21 -0.04,4.83 8,-0.08 16.01,0.04 24.02,0.01 0.02,-1.71 0.05,-3.41 0.09,-5.11 -8.02,0.11 -16.08,-0.57 -24.07,0.27 m -105.69,1.08 c 0.07,0.67 0.22,2.01 0.3,2.68 12.37,0.35 24.77,0.03 37.15,0.16 2.99,0.47 5.3,-1.67 7.79,-2.9 -15.08,0.11 -30.16,0.01 -45.24,0.06 m 56.33,0.02 c 1.99,1.02 3.74,2.91 6.12,2.8 12.51,-0.01 25.02,0.08 37.52,-0.06 -0.05,-0.94 -0.09,-1.88 -0.13,-2.81 -14.51,0.11 -29.01,-0.02 -43.51,0.07 m -56.18,8.03 c 0,0.88 -0.01,2.63 -0.01,3.5 11.37,0.05 22.74,0 34.11,0.03 0.49,-1.2 1,-2.39 1.52,-3.57 -11.88,0.02 -23.75,-0.05 -35.62,0.04 m 64.83,-0.04 c 0.47,1.17 0.93,2.35 1.4,3.54 11.17,0.04 22.35,0.04 33.53,0 -0.01,-1.18 -0.02,-2.34 -0.03,-3.5 -11.64,-0.09 -23.27,-0.02 -34.9,-0.04 m 45.75,1.58 c 2.25,4.05 3.19,8.62 4.4,13.06 1.55,-0.31 3.12,-0.3 4.68,0.01 2.32,7.39 3.93,14.98 6.14,22.41 0.97,-0.01 2.91,-0.03 3.89,-0.04 -0.62,-12.22 -2.76,-25.04 -9.91,-35.26 -3.05,-0.39 -6.14,-0.12 -9.2,-0.18 m -5.55,12.46 c -1.05,2.23 -3.57,3.19 -5.9,3.33 -4.55,0.15 -9.1,-0.04 -13.65,0.07 -2.35,7.6 -4.27,15.32 -6.53,22.94 -0.76,2.19 -0.7,4.58 0.07,6.76 6.33,21.11 12.31,42.32 18.81,63.38 7.12,1.02 14.37,0.98 21.4,2.62 2.49,0.58 5.28,-0.07 7.54,1.41 2.14,0.15 4.36,-0.15 6.45,0.5 1.55,0.28 3.1,0.55 4.66,0.82 -2.31,-9.07 -5.33,-17.96 -7.56,-27.05 -8.77,-0.32 -17.56,0.09 -26.34,-0.2 -1.09,-0.71 -2.25,-1.88 -2,-3.3 -0.1,-18.18 0.09,-36.36 -0.1,-54.54 2.6,-3.51 7.45,-1.43 11.14,-1.98 -2.75,-8.17 -4.15,-16.83 -7.77,-24.68 -0.77,3.3 1.18,6.7 -0.22,9.92 m 404.91,-7.71 c 0.02,21.03 -0.05,42.06 0.03,63.09 7.54,0 15.08,0 22.63,0 0.09,-21.05 0.01,-42.1 0.04,-63.15 -7.57,-0.05 -15.14,0 -22.7,0.06 m 28.69,-0.06 c 0.02,20.91 0.02,41.83 0,62.74 7.94,0.16 15.95,1.04 23.86,-0.08 -0.18,-20.85 0.03,-41.7 0,-62.56 -7.95,-0.35 -15.91,-0.06 -23.86,-0.1 m -538.66,2.48 c 0.01,0.9 0.04,2.7 0.06,3.6 10.53,0.03 21.07,0 31.61,0.02 0.25,-1.24 0.5,-2.47 0.76,-3.69 -10.81,0.03 -21.62,-0.1 -32.43,0.07 m 67.62,-0.01 c 0.79,1.13 0.42,4.03 2.56,3.6 9.85,0.06 19.71,0.01 29.56,0.01 0.02,-0.9 0.07,-2.69 0.09,-3.58 -10.74,-0.18 -21.48,-0.12 -32.21,-0.03 m -53.65,8.69 c 2.52,9.39 4.8,18.86 7.61,28.18 3.3,-9.24 5.48,-18.83 8.55,-28.15 -5.39,-0.09 -10.77,-0.06 -16.16,-0.03 m 56.42,0 c 1.38,5.33 3.09,10.57 4.54,15.89 1.41,-5.32 3.04,-10.58 4.4,-15.91 -2.98,-0.01 -5.96,-0.01 -8.94,0.02 m 63.5,3.91 c 0.7,3.8 1.1,7.64 1.58,11.48 59.43,-0.1 118.86,0.07 178.3,-0.09 -0.03,-3.79 -0.03,-7.57 -0.04,-11.35 -59.95,-0.04 -119.89,0.04 -179.84,-0.04 m 284.55,0.03 c -0.01,3.81 -0.01,7.63 0.05,11.45 28.51,-0.05 57.02,-0.02 85.53,-0.01 0.01,-3.82 0.02,-7.63 0.02,-11.43 -28.53,-0.02 -57.06,-0.01 -85.6,-0.01 m -310.54,13.27 c -0.04,16.06 -0.01,32.12 -0.02,48.19 6.82,0.02 13.65,0.04 20.48,-0.02 -4.27,-16.14 -9.21,-32.1 -13.71,-48.19 -2.25,0.01 -4.5,0.01 -6.75,0.02 m 310.57,3.93 c -0.09,10.25 0.06,20.5 -0.05,30.76 0.3,2.38 -2.52,3.59 -2.47,5.87 -0.14,9.49 0.03,18.98 -0.03,28.48 17.56,0.05 35.11,-0.06 52.66,0.05 8.78,-8.98 17.37,-18.13 26.17,-27.09 2.9,-2.82 5.2,-6.61 9.27,-7.84 0.03,-10.08 0.01,-20.15 0.01,-30.22 -28.52,-0.01 -57.04,0.02 -85.56,-0.01 m -438.62,0.94 c -4.82,16.01 -9.61,32.03 -14.31,48.07 7.13,0.04 14.27,0.02 21.4,0.01 0.01,-16.02 0.01,-32.04 0,-48.07 -2.36,-0.01 -4.73,-0.01 -7.09,-0.01 m 65.51,7.04 c -0.21,20.02 -0.11,40.04 -0.13,60.07 7.83,0.04 15.65,0.01 23.48,0.02 0.02,-20.03 -0.02,-40.05 0.01,-60.07 -7.78,-0.06 -15.57,-0.03 -23.36,-0.02 m 274.16,14.99 c -0.01,1.83 -0.02,3.67 -0.01,5.51 8.29,-0.09 16.59,0.28 24.88,0 4.92,-0.26 9.84,0.79 14.73,-0.04 -0.01,-1.83 -0.01,-3.65 0,-5.47 -13.21,0 -26.4,0 -39.6,0 m 45.48,0.04 c 0.01,1.81 0.02,3.64 0.04,5.48 7.09,0 14.19,0 21.28,0.01 4.67,-0.02 9.33,-0.02 14,0 4.13,0 8.26,0.03 12.39,-0.08 -0.02,-1.81 -0.04,-3.62 -0.04,-5.42 -15.89,-0.05 -31.78,-0.06 -47.67,0.01 m -35.23,12.02 c 1.72,2.01 4.44,4.34 3.13,7.3 -4.08,2.98 -8.65,5.23 -13.02,7.76 -3.71,1.73 -5.88,-3.93 -9.38,-3.66 -2.08,2.44 -3.69,5.31 -4.5,8.44 8.12,-0.23 16.24,-0.4 24.37,-0.06 5.28,-0.8 10.61,0.55 15.88,-0.41 2.62,-8.13 8.16,-15.06 15.17,-19.87 -10.54,0.13 -21.15,-0.64 -31.65,0.5 m 46.69,-0.01 c 1.47,2.09 4.05,3.99 3.43,6.87 -2.88,2.72 -6.69,4.14 -9.98,6.29 -1.8,0.92 -3.51,2.55 -5.67,2.3 -2.36,-1.45 -4.49,-3.25 -6.97,-4.5 -1.84,2.67 -3.47,5.47 -4.98,8.33 4.32,0.66 8.68,0.55 13.03,0.25 5.33,0.5 10.68,-0.13 16.02,0.34 9.57,-1.09 19.18,0.46 28.76,-0.45 -0.05,-6.66 0.01,-13.31 -0.04,-19.96 -11.19,0.24 -22.45,-0.64 -33.6,0.53 m 101,29.42 c 5.51,-0.12 11.04,0.26 16.54,-0.16 7.03,-4.18 13.94,-8.58 20.84,-12.97 4.64,-4.51 8.55,-9.75 12.77,-14.65 -7.78,-0.17 -15.56,-0.06 -23.34,-0.07 -9.01,9.22 -17.81,18.62 -26.81,27.85 m 57.03,-26.72 c -7.57,8.9 -15.11,17.83 -22.73,26.68 6.41,0.07 12.83,0.06 19.26,0.02 6.2,-5.7 12.17,-11.66 18.42,-17.3 1.46,-1.82 3.7,-0.96 5.26,0.19 0.06,5.71 0.02,11.42 0.03,17.13 4.58,0 9.16,0.03 13.75,-0.03 0.05,-9.18 -0.04,-18.36 0.05,-27.54 -9.73,-0.65 -19.49,-0.11 -29.23,-0.32 -1.62,0.13 -3.75,-0.41 -4.81,1.17 m -220.66,3.29 c 1.62,0.94 3.22,1.9 4.8,2.92 2.63,-1.34 5.21,-2.8 7.71,-4.38 -2.5,-1.3 -5.27,-1.89 -7.99,-2.55 -1.48,1.36 -2.99,2.7 -4.52,4.01 m 47.77,0.69 c 1.27,0.75 2.55,1.53 3.8,2.33 2.15,-1.31 4.4,-2.45 6.52,-3.82 0.03,-0.32 0.09,-0.96 0.12,-1.27 -3.77,-2.52 -7.48,0.46 -10.44,2.76 m 184.85,16.13 c -0.03,2.45 -0.02,4.91 0.03,7.37 0.6,-0.03 1.81,-0.07 2.41,-0.1 0.02,-3.11 0.02,-6.22 0,-9.32 -0.82,0.68 -1.65,1.35 -2.44,2.05 m -242.26,2.58 c -0.08,0.78 -0.22,2.35 -0.3,3.13 13.58,-0.06 27.16,0.02 40.74,-0.04 0.03,-0.78 0.11,-2.32 0.15,-3.09 -13.53,0.01 -27.06,-0.01 -40.59,0 m 46.26,3.08 c 19.89,0.06 39.77,0.02 59.66,0.02 -0.03,-0.77 -0.07,-2.32 -0.1,-3.1 -19.7,-0.01 -39.41,0.02 -59.11,-0.01 -0.16,1.02 -0.31,2.05 -0.45,3.09 z"
         inkscape:connector-curvature="0"
         style="opacity:1;fill:#060606" />
      <path
         id="path7"
         d="m 513.82,157.6 c 3.99,-0.47 8.47,-0.82 11.82,1.86 4.45,3.36 7.33,9.44 5.99,15.01 -8.23,1.56 -16.68,0.24 -25,0.83 -4.06,-1.67 -2.12,-6.4 -0.99,-9.45 1.36,-3.84 4.67,-6.46 8.18,-8.25 m -0.31,6.75 c 1.32,1.37 2.33,2.97 2.73,4.86 3.21,0.03 6.42,0.03 9.63,-0.04 -1.11,-1.89 -2.04,-4.04 -4.01,-5.2 -2.58,-1.59 -5.8,-0.91 -8.35,0.38 z"
         inkscape:connector-curvature="0"
         style="opacity:1;fill:#060606" />
      <path
         id="path9"
         d="m 630.15,166.04 c 2.04,-1.73 5.79,0.17 5.44,2.89 0.32,3.22 -4.54,4.73 -6.15,1.98 -1.48,-1.48 -0.87,-3.78 0.71,-4.87 z"
         inkscape:connector-curvature="0"
         style="opacity:1;fill:#060606" />
      <path
         id="path11"
         d="m 665.5,169.05 c -0.36,-2.13 2.19,-2.73 3.52,-3.7 2.06,0.98 4.78,3.29 2.87,5.69 -1.56,2.97 -6.96,1.51 -6.39,-1.99 z"
         inkscape:connector-curvature="0"
         style="opacity:1;fill:#060606" />
      <path
         id="path13"
         d="m 490.65,170.89 c 1.03,-1.72 2.98,-1.55 4.73,-1.49 0.23,0.65 0.7,1.94 0.93,2.59 -1.59,6.52 -4.57,12.64 -6.24,19.15 3.35,0.08 6.76,-0.35 10.07,0.34 2.15,1.33 1.55,5.24 -1.12,5.34 -4.65,0.16 -9.32,0.21 -13.96,-0.03 -1.46,-0.05 -1.85,-1.62 -2.56,-2.58 2.62,-7.15 4.85,-14.45 7.86,-21.45 0.07,-0.47 0.21,-1.4 0.29,-1.87 z"
         inkscape:connector-curvature="0"
         style="opacity:1;fill:#060606" />
      <path
         id="path15"
         d="m 691.98,177.8 c 1.64,-1.61 3.77,-0.97 5.55,0.05 -0.07,6.67 -5.21,12.69 -11.47,14.63 -2.81,0.87 -6.34,1.54 -8.42,-1.06 -0.01,-0.51 -0.03,-1.55 -0.04,-2.07 2.08,-2.76 5.89,-1.56 8.59,-3.21 3.18,-1.61 5.01,-4.98 5.79,-8.34 z"
         inkscape:connector-curvature="0"
         style="opacity:1;fill:#060606" />
      <path
         id="path17"
         d="m 533.47,185.49 c 1.31,-2.01 4.3,-0.59 5.04,1.34 -0.74,8.18 -8.25,15.59 -16.68,15.03 -2.43,-0.19 -3.23,-3.27 -1.88,-5.07 2.88,-1.04 6.41,-0.77 8.71,-3.1 2.63,-2.04 3.24,-5.45 4.81,-8.2 z"
         inkscape:connector-curvature="0"
         style="opacity:1;fill:#060606" />
      <path
         id="path19"
         d="m 415.75,201.42 c 1.2,-0.02 2.41,-0.03 3.62,-0.02 12.57,12.67 17.22,31.15 16.54,48.58 0.47,10.74 -3.01,21.14 -7.69,30.66 -1.57,-0.01 -3.13,-0.06 -4.68,-0.15 -1.05,-3.74 1.36,-6.95 2.54,-10.32 1.58,-4.23 2.86,-8.6 3.37,-13.1 1,-11.39 0.16,-23.05 -3.52,-33.94 -1.7,-4.39 -3.93,-8.55 -6.65,-12.39 -1.55,-1.79 -3.12,-3.55 -4.67,-5.33 0,-0.6 -0.01,-1.79 -0.01,-2.39 0.29,-0.4 0.86,-1.2 1.15,-1.6 z"
         inkscape:connector-curvature="0"
         style="opacity:1;fill:#060606" />
      <path
         id="path21"
         d="m 507.92,203.79 c 1.75,-3.1 6.59,0.04 4.84,3.06 -3.95,9.04 -16.54,11.51 -24.67,7.02 -2.67,-1.66 -6.87,-5.93 -3.07,-8.56 3.25,-1.14 4.42,2.78 6.84,4.02 5.76,2.15 13.37,0.47 16.06,-5.54 z"
         inkscape:connector-curvature="0"
         style="opacity:1;fill:#060606" />
      <path
         id="path23"
         d="m 645.43,204.63 c 2.1,-0.71 4.3,-1.06 6.53,-0.94 6.06,0.15 12.13,-0.19 18.19,0.17 1.53,0.38 1.8,2.1 2.47,3.29 -3.43,4.33 -7.71,8.97 -13.62,9.25 -5.43,0.38 -9.88,-3.47 -12.87,-7.59 -1.03,-1.15 -0.54,-2.8 -0.7,-4.18 m 5.69,3.15 c 2.04,1.64 3.97,3.98 6.82,4.01 3.32,0.35 6.17,-1.74 8.36,-3.99 -5.06,-0.14 -10.12,-0.1 -15.18,-0.02 z"
         inkscape:connector-curvature="0"
         style="opacity:1;fill:#060606" />
      <path
         id="path25"
         d="m 250.94,223.24 c -6.38,-2.39 -6.03,-12 -0.16,-14.83 3.71,-0.64 7.88,1.09 8.91,4.96 2.17,5.19 -3.08,11.95 -8.75,9.87 z"
         inkscape:connector-curvature="0"
         style="opacity:1;fill:#060606" />
      <path
         id="path27"
         d="m 149.88,211.98 c 0.76,-0.54 1.51,-1.08 2.27,-1.63 3.24,3.52 3.05,8.82 1.31,13.01 -0.38,0.24 -1.14,0.73 -1.52,0.97 -0.7,-0.42 -1.4,-0.84 -2.1,-1.25 -0.92,-3.65 -0.99,-7.47 0.04,-11.1 z"
         inkscape:connector-curvature="0"
         style="opacity:1;fill:#060606" />
      <path
         id="path29"
         d="m 405.34,217.83 c 0.66,-0.27 1.99,-0.81 2.66,-1.08 0.53,0.23 1.6,0.7 2.13,0.93 6.05,9.59 7.29,21.28 7.04,32.37 -0.37,6.02 -1.48,12.04 -3.75,17.64 -1.24,-0.01 -2.47,-0.02 -3.68,-0.04 -0.37,-0.86 -0.74,-1.71 -1.1,-2.55 1.66,-4.87 2.92,-9.93 2.98,-15.11 0.15,-7.9 -0.16,-16.09 -3.24,-23.49 -1.13,-2.87 -3.59,-5.36 -3.04,-8.67 z"
         inkscape:connector-curvature="0"
         style="opacity:1;fill:#060606" />
      <path
         id="path31"
         d="m 141.59,390 c -0.39,-2.07 1.28,-4.14 3.44,-3.75 9.97,-0.01 19.95,-0.07 29.92,0.03 2.13,-0.28 3.22,1.75 2.92,3.63 0.02,26.38 0.01,52.77 -0.01,79.15 0.46,2.16 -1.89,3.54 -3.79,3.23 -10.11,0 -20.21,-0.03 -30.31,0.01 -0.51,-0.34 -1.53,-1.02 -2.04,-1.35 -0.3,-26.98 -0.07,-53.97 -0.13,-80.95 m 5.99,2.16 c 0,0.83 0,2.51 -0.01,3.35 8.11,0.03 16.21,-0.01 24.31,0.03 0.01,-1.13 0.03,-2.26 0.04,-3.37 -8.11,-0.02 -16.22,0 -24.34,-0.01 m 0,9.37 c 0,21.62 -0.01,43.24 0,64.86 8.18,-0.01 16.35,0.03 24.53,-0.03 -0.23,-21.63 0.34,-43.26 -0.26,-64.88 -8.09,-0.05 -16.19,-0.11 -24.27,0.05 z"
         inkscape:connector-curvature="0"
         style="opacity:1;fill:#060606" />
      <path
         id="path33"
         d="m 235.79,392.73 c 1.81,-0.02 3.62,-0.01 5.44,0.02 8.09,1.56 15.05,6.95 19.07,14.07 7.09,11.82 8.22,26.72 4.16,39.77 -2.68,8.24 -7.69,16.2 -15.46,20.45 -6.66,3.8 -15.35,3.61 -21.89,-0.38 -7.86,-4.65 -12.76,-13.02 -15.22,-21.62 -3.71,-13.62 -1.95,-29.07 6.25,-40.76 4.18,-5.92 10.48,-10.24 17.65,-11.55 M 227,403.06 c -5.19,4.65 -8.46,11.15 -9.83,17.93 2.25,-6.91 8.27,-13.26 15.89,-13.55 6.61,-0.24 12.39,4.4 15.32,10.05 5.52,10.09 4.82,23.42 -2.17,32.63 -3.66,4.83 -10.03,7.93 -16.1,6.31 -4.78,-1.07 -8.13,-4.86 -11.12,-8.46 2.33,5.24 5.63,10.3 10.6,13.39 4.18,2.79 9.68,3.14 14.4,1.64 6.84,-2.77 11.57,-9.15 14.13,-15.88 3.49,-9.54 3.63,-20.26 0.61,-29.95 -2.56,-7.62 -7.63,-15.32 -15.66,-17.84 -5.54,-1.95 -11.72,0.07 -16.07,3.73 m 2.38,11.35 c -7.44,4.57 -9.57,14.66 -8,22.76 1.19,6.11 5.01,13.24 11.9,13.88 4.09,0.04 7.46,-2.96 9.51,-6.24 3.4,-5.73 4.39,-12.87 2.54,-19.29 -1.21,-4.42 -3.55,-8.96 -7.77,-11.16 -2.46,-1.46 -5.74,-1.42 -8.18,0.05 z"
         inkscape:connector-curvature="0"
         style="opacity:1;fill:#060606" />
      <path
         id="path35"
         d="m 157.58,450.73 c 5.36,-2.4 12.02,2.85 10.44,8.58 -0.94,5.09 -7.65,7.92 -11.79,4.63 -4.79,-3.02 -3.94,-11.18 1.35,-13.21 m 1.66,8.47 c 0.63,0.01 1.88,0.03 2.5,0.04 -0.12,-1.32 0.57,-3.65 -1.58,-2.94 -1.56,-0.32 -0.56,2.04 -0.92,2.9 z"
         inkscape:connector-curvature="0"
         style="opacity:1;fill:#060606" />
    </g>
    <g
       id="#ffffffff">
      <path
         id="path38"
         d="m 475.43,107.46 c 3.19,-1.88 7.05,-1.18 10.58,-1.32 13.36,0.24 26.72,-0.62 40.06,0.22 7.6,1.1 14.22,6.07 18.1,12.61 1.32,3.2 6.6,1.33 5.42,-2.02 -1.37,-3.24 -3.76,-5.87 -6.18,-8.35 4.67,-2.92 10.35,-2.48 15.63,-2.42 7,0.17 12.83,6.81 12.58,13.74 0.01,27.39 0.07,54.78 -0.03,82.17 0.05,6.13 -6.18,10.28 -11.93,9.43 0.97,-5.48 0.3,-11.04 0.62,-16.56 3.2,-3.25 6.61,-7.01 6.49,-11.92 -0.24,-5.91 1.25,-12.45 -1.9,-17.82 -1.13,-2.07 -2.96,-3.59 -4.66,-5.16 0.15,-6.98 0.14,-14.52 -3.89,-20.56 -4.58,-7.64 -13.5,-12.24 -22.34,-11.99 -18.64,0.02 -37.28,0 -55.91,-0.02 -3.9,0.04 -7.46,-2.87 -8.56,-6.54 -1.48,-5.17 1.18,-11.02 5.92,-13.49 z"
         inkscape:connector-curvature="0"
         style="opacity:1;fill:#ffffff" />
      <path
         id="path40"
         d="m 630.14,122.3 c 4.89,-5.63 12.66,-7.76 19.9,-7.62 10.98,0.04 21.96,-0.18 32.94,-0.01 4.74,0.19 7.37,4.56 10.97,6.96 3.39,-2.93 7,-6.64 11.93,-5.99 11.17,2.08 19.45,13.15 19.59,24.32 0.07,16.37 0.01,32.74 0.03,49.11 0.04,4.01 -0.84,8.44 -4.14,11.08 -2.63,2.3 -6.22,2.64 -9.53,3.13 0.35,-2.77 0.71,-5.53 0.98,-8.3 7.67,-4.76 7.94,-15.12 6.01,-22.97 -0.76,-3.88 -3.96,-6.31 -6.61,-8.91 0.44,-11.32 -8.73,-22.06 -20.21,-22.5 -22.84,-0.14 -45.68,0.01 -68.52,-0.07 0.64,-6.48 2.22,-13.23 6.66,-18.23 z"
         inkscape:connector-curvature="0"
         style="opacity:1;fill:#ffffff" />
      <path
         id="path42"
         d="m 468.99,142.13 c 2.76,-5.48 8.87,-8.94 14.97,-8.73 16.71,0.02 33.42,0.1 50.14,0 7.71,-0.32 15.38,4.38 18.41,11.51 1.96,3.88 1.6,8.38 1.68,12.59 -1.63,0.33 -3.23,0.75 -4.81,1.22 0.07,1.69 -0.54,4.69 2.03,4.66 3.91,0.46 8.15,2.4 9.2,6.56 0.55,4.35 0.25,8.77 0.23,13.14 0.07,3.52 -2.76,5.96 -5.47,7.69 -0.4,-2.46 0.51,-5.73 -1.73,-7.47 -1.53,-0.35 -4.17,-0.3 -4.23,1.79 -0.32,3.27 -0.27,6.59 -0.05,9.87 0.16,2.36 3.17,1.84 4.8,2.19 -0.19,6.96 1.14,14.76 -3.35,20.73 -4.03,6.18 -11.72,9.02 -18.89,8.49 -6.09,0.01 -12.17,0.03 -18.25,0.15 0.46,-2.42 -1.2,-5.71 -4.05,-4.69 -2.97,1.85 -1.8,6.2 -3.94,8.71 -3.59,5.21 -10.72,3.31 -16.06,3.54 -4.62,-0.05 -6.21,-4.92 -7.34,-8.56 -2.86,-1.11 -6.07,-1.43 -8.69,-3.09 -2.7,-2.31 -3.64,-5.98 -4.48,-9.28 -2.47,-12.5 -1.8,-25.3 -1.91,-37.96 7.42,-0.45 15.07,1 22.31,-0.92 0.89,-6.46 -2.47,-13.54 -8.59,-16.17 -4.56,-1.79 -9.79,-0.82 -13.72,1.98 0.38,-5.97 -1.16,-12.44 1.79,-17.95 m 44.83,15.47 c -3.51,1.79 -6.82,4.41 -8.18,8.25 -1.13,3.05 -3.07,7.78 0.99,9.45 8.32,-0.59 16.77,0.73 25,-0.83 1.34,-5.57 -1.54,-11.65 -5.99,-15.01 -3.35,-2.68 -7.83,-2.33 -11.82,-1.86 m -23.17,13.29 c -0.08,0.47 -0.22,1.4 -0.29,1.87 -3.01,7 -5.24,14.3 -7.86,21.45 0.71,0.96 1.1,2.53 2.56,2.58 4.64,0.24 9.31,0.19 13.96,0.03 2.67,-0.1 3.27,-4.01 1.12,-5.34 -3.31,-0.69 -6.72,-0.26 -10.07,-0.34 1.67,-6.51 4.65,-12.63 6.24,-19.15 -0.23,-0.65 -0.7,-1.94 -0.93,-2.59 -1.75,-0.06 -3.7,-0.23 -4.73,1.49 m 42.82,14.6 c -1.57,2.75 -2.18,6.16 -4.81,8.2 -2.3,2.33 -5.83,2.06 -8.71,3.1 -1.35,1.8 -0.55,4.88 1.88,5.07 8.43,0.56 15.94,-6.85 16.68,-15.03 -0.74,-1.93 -3.73,-3.35 -5.04,-1.34 m -25.55,18.3 c -2.69,6.01 -10.3,7.69 -16.06,5.54 -2.42,-1.24 -3.59,-5.16 -6.84,-4.02 -3.8,2.63 0.4,6.9 3.07,8.56 8.13,4.49 20.72,2.02 24.67,-7.02 1.75,-3.02 -3.09,-6.16 -4.84,-3.06 z"
         inkscape:connector-curvature="0"
         style="opacity:1;fill:#ffffff" />
      <path
         id="path44"
         d="m 633.79,146.46 c 19.1,-0.04 38.19,-0.04 57.29,0 8.84,-0.08 15.85,8.43 15.28,17.04 -4.67,0.07 -9.33,0.03 -13.98,0.04 -1.94,-4.07 -5.64,-7.73 -10.38,-7.95 -4.35,-0.17 -8.7,-0.07 -13.05,-0.06 -4.46,-0.18 -8.82,2.54 -10.72,6.55 -0.77,1.63 -1.44,3.32 -2.23,4.94 -1.35,-3.35 -2.39,-7.16 -5.59,-9.26 -5.35,-3.76 -12.23,-1.73 -18.3,-2.25 0.32,-3.05 0.93,-6.07 1.68,-9.05 z"
         inkscape:connector-curvature="0"
         style="opacity:1;fill:#ffffff" />
      <path
         id="path46"
         d="m 190.57,157.72 c 11.93,0.04 23.86,0.01 35.79,0.02 0.02,1.93 0.03,3.85 0.04,5.78 -11.65,-3.41 -24.11,-3.52 -35.77,-0.08 -0.03,-1.9 -0.05,-3.81 -0.06,-5.72 z"
         inkscape:connector-curvature="0"
         style="opacity:1;fill:#ffffff" />
      <path
         id="path48"
         d="m 630.58,161.75 c 4.11,-0.69 8.34,-0.27 12.5,-0.33 8.38,-0.62 9.02,14.82 0.92,15.3 -4.36,0.09 -8.74,0.26 -13.08,-0.14 -5.81,-2.21 -5.88,-12.27 -0.34,-14.83 m -0.43,4.29 c -1.58,1.09 -2.19,3.39 -0.71,4.87 1.61,2.75 6.47,1.24 6.15,-1.98 0.35,-2.72 -3.4,-4.62 -5.44,-2.89 z"
         inkscape:connector-curvature="0"
         style="opacity:1;fill:#ffffff" />
      <path
         id="path50"
         d="m 666.57,161.75 c 4.8,-0.71 9.72,-0.28 14.57,-0.29 2.97,-0.16 5.68,2.54 5.59,5.51 0.37,3.52 0.24,8.05 -3.64,9.56 -4.7,0.52 -9.44,0.2 -14.15,0.24 -3.69,0.36 -6.65,-3.28 -6.22,-6.81 -0.38,-3.19 0.55,-6.95 3.85,-8.21 m -1.07,7.3 c -0.57,3.5 4.83,4.96 6.39,1.99 1.91,-2.4 -0.81,-4.71 -2.87,-5.69 -1.33,0.97 -3.88,1.57 -3.52,3.7 z"
         inkscape:connector-curvature="0"
         style="opacity:1;fill:#ffffff" />
      <path
         id="path52"
         d="m 471.13,164.02 c 2.79,-0.8 6.1,-1.71 8.69,0.11 1.89,1.1 2.66,3.26 3.74,5.04 -3.02,0.07 -6.04,0.06 -9.05,0.07 -0.33,-2.21 -1.83,-3.77 -3.38,-5.22 z"
         inkscape:connector-curvature="0"
         style="opacity:1;fill:#ffffff" />
      <path
         id="path54"
         d="m 513.51,164.35 c 2.55,-1.29 5.77,-1.97 8.35,-0.38 1.97,1.16 2.9,3.31 4.01,5.2 -3.21,0.07 -6.42,0.07 -9.63,0.04 -0.4,-1.89 -1.41,-3.49 -2.73,-4.86 z"
         inkscape:connector-curvature="0"
         style="opacity:1;fill:#ffffff" />
      <path
         id="path56"
         d="m 184.13,172.13 c 10.6,-4.69 22.45,-5.94 33.87,-4.27 1.66,0.42 3.37,0.6 5.08,0.8 -2.68,0.28 -5.34,0.71 -7.98,1.19 -6.76,1.84 -13.1,4.78 -19.15,8.27 -3.98,-1.92 -7.74,-4.27 -11.82,-5.99 z"
         inkscape:connector-curvature="0"
         style="opacity:1;fill:#ffffff" />
      <path
         id="path58"
         d="m 692.98,169.37 c 5.79,0.15 11.64,-0.35 17.42,0.28 2.11,1.25 3.02,3.86 3.3,6.18 0.49,4.64 0.62,10.01 -2.95,13.56 -0.51,-2.03 0.37,-5.17 -1.99,-6.22 -1.86,-1.24 -4.45,0.69 -4.15,2.79 0.2,3.22 -1.22,7.5 2.13,9.55 -0.16,7.43 -2.51,14.98 -7.69,20.47 -8.18,8.93 -21.33,11.55 -32.91,9.76 -10.26,-0.94 -20.83,-5.33 -26.78,-14.1 -5.94,-8.35 -7.53,-18.88 -7.67,-28.9 5.11,0.02 10.22,0.1 15.33,-0.19 -0.39,0.32 -1.18,0.96 -1.57,1.29 0.1,1.69 -0.39,3.55 0.39,5.14 1.61,3.61 5.81,4.71 9.23,5.9 2.95,0.85 4.77,-3.6 2.3,-5.16 -2.01,-1.09 -4.19,-1.84 -6.29,-2.71 2.18,-4.97 5.18,-9.74 5.66,-15.28 0.75,3.26 2,6.64 4.87,8.63 4.7,3.53 10.89,2.11 16.34,2.41 4.24,0.27 8.95,-0.57 11.82,-4 2.42,-2.5 3.05,-6.06 3.21,-9.4 m -1,8.43 c -0.78,3.36 -2.61,6.73 -5.79,8.34 -2.7,1.65 -6.51,0.45 -8.59,3.21 0.01,0.52 0.03,1.56 0.04,2.07 2.08,2.6 5.61,1.93 8.42,1.06 6.26,-1.94 11.4,-7.96 11.47,-14.63 -1.78,-1.02 -3.91,-1.66 -5.55,-0.05 m -46.55,26.83 c 0.16,1.38 -0.33,3.03 0.7,4.18 2.99,4.12 7.44,7.97 12.87,7.59 5.91,-0.28 10.19,-4.92 13.62,-9.25 -0.67,-1.19 -0.94,-2.91 -2.47,-3.29 -6.06,-0.36 -12.13,-0.02 -18.19,-0.17 -2.23,-0.12 -4.43,0.23 -6.53,0.94 z"
         inkscape:connector-curvature="0"
         style="opacity:1;fill:#ffffff" />
      <path
         id="path60"
         d="m 197.84,183.94 c 10.28,-7.64 23.67,-11.12 36.34,-9.02 3.49,0.51 6.78,1.81 9.73,3.75 -9.78,-0.66 -20.14,1.98 -27.46,8.75 -11.39,9.68 -16.35,24.92 -16.69,39.49 0.28,15.96 6.43,32.88 20.03,42.19 5.66,4.36 12.87,5.54 19.76,6.51 -11.2,6.6 -24.49,9.93 -37.47,8.38 -12.53,-1.28 -24.69,-6.7 -33.8,-15.44 9.65,-7.31 11.18,-20.27 12.9,-31.38 0.47,-6.77 0.48,-13.57 0,-20.35 -1.1,-7.84 -2.37,-15.85 -5.9,-23.02 -1.9,-3.94 -5.04,-7.18 -8.87,-9.28 3.29,-3.07 6.62,-6.35 10.73,-8.28 6.09,1.16 11.59,4.39 16.69,7.82 1.15,0.9 2.9,0.81 4.01,-0.12 z"
         inkscape:connector-curvature="0"
         style="opacity:1;fill:#ffffff" />
      <path
         id="path62"
         d="m 332.54,189.49 c 6.59,-9.4 18.53,-12.63 29.45,-12.86 28,-0.03 56.01,0.16 84.01,0.17 5.08,0.11 10.2,-0.32 15.25,0.42 -0.11,11.65 -0.14,23.36 1.62,34.9 1.09,5.19 2.31,10.92 6.54,14.54 2.25,2.09 5.4,2.53 8.11,3.75 1.38,2.25 2.39,4.8 4.43,6.58 1.97,1.9 4.71,2.51 7.28,3.13 -0.01,2.18 -0.01,4.36 -0.02,6.54 -2.4,-0.81 -4.68,-2.74 -7.34,-2.2 -1.53,1 -1.5,2.85 -1.76,4.45 -7.69,0.98 -15.64,3.3 -21.2,9.01 -6.08,5.59 -9.67,13.83 -9.56,22.11 0,30.41 -0.02,60.83 0.01,91.25 -1.39,0.71 -3.96,0.75 -3.97,2.81 -0.26,5.62 0,11.26 -0.11,16.88 0.08,1.71 -0.24,3.56 0.57,5.15 1.12,0.6 2.33,1 3.52,1.46 0,8.8 -0.12,17.61 0.04,26.42 0.26,4.47 4.51,7.74 8.87,7.57 2.35,3.23 6.49,4.52 10.22,2.95 -0.03,0.68 -0.1,2.06 -0.13,2.74 -9.15,0.04 -18.3,-0.03 -27.45,0.02 -3.16,-0.32 -5.02,2.68 -7.24,4.39 -15.53,14.6 -31.3,28.96 -46.72,43.66 -0.32,0.14 -0.95,0.43 -1.27,0.57 -0.13,-14.3 -0.31,-28.59 -0.43,-42.89 0.03,-1.85 -0.4,-3.64 -0.83,-5.42 -10.66,-1.98 -21.66,-0.33 -32.39,-1.81 -7.46,-0.75 -14.6,-4.9 -18.63,-11.28 -6.66,-10.15 -7.77,-22.69 -8.04,-34.51 -0.06,-25.77 0.01,-51.53 0.06,-77.29 4.84,-0.07 9.86,-0.84 14.09,-3.34 1.91,-2.83 -0.38,-6.5 -0.91,-9.57 3.46,-0.36 6.94,-0.79 10.33,-1.61 2.31,-0.74 1.55,-3.39 1.61,-5.22 -0.27,-4.36 -0.68,-8.72 -1.26,-13.04 -0.3,-0.31 -0.91,-0.94 -1.21,-1.25 -4.57,-0.58 -9.16,0.55 -13.71,0.87 -0.83,-2.97 -1.41,-5.99 -2.01,-9.01 4.53,-1.09 8.95,-3.02 13.64,-3.25 3.6,1.22 7.14,2.66 10.73,3.92 9.45,3.14 18.74,6.72 28.18,9.87 3.21,-0.53 6.67,-0.69 9.42,-2.66 6.64,-4.54 9.38,-12.67 10.67,-20.25 1.85,-15.25 -0.38,-31.4 -8.42,-44.69 -3.42,-5.45 -8.13,-10.84 -14.68,-12.29 -4.86,-1.39 -9.97,0.99 -13.4,4.39 -9.29,7.78 -19.2,14.82 -28.46,22.65 -4.84,0.74 -9.71,1.25 -14.5,2.26 0.13,-13.79 -1.44,-29.1 7,-40.99 m 83.21,11.93 c -0.29,0.4 -0.86,1.2 -1.15,1.6 0,0.6 0.01,1.79 0.01,2.39 1.55,1.78 3.12,3.54 4.67,5.33 2.72,3.84 4.95,8 6.65,12.39 3.68,10.89 4.52,22.55 3.52,33.94 -0.51,4.5 -1.79,8.87 -3.37,13.1 -1.18,3.37 -3.59,6.58 -2.54,10.32 1.55,0.09 3.11,0.14 4.68,0.15 4.68,-9.52 8.16,-19.92 7.69,-30.66 0.68,-17.43 -3.97,-35.91 -16.54,-48.58 -1.21,-0.01 -2.42,0 -3.62,0.02 m -10.41,16.41 c -0.55,3.31 1.91,5.8 3.04,8.67 3.08,7.4 3.39,15.59 3.24,23.49 -0.06,5.18 -1.32,10.24 -2.98,15.11 0.36,0.84 0.73,1.69 1.1,2.55 1.21,0.02 2.44,0.03 3.68,0.04 2.27,-5.6 3.38,-11.62 3.75,-17.64 0.25,-11.09 -0.99,-22.78 -7.04,-32.37 -0.53,-0.23 -1.6,-0.7 -2.13,-0.93 -0.67,0.27 -2,0.81 -2.66,1.08 z"
         inkscape:connector-curvature="0"
         style="opacity:1;fill:#ffffff" />
      <path
         id="path64"
         d="m 577.4,177.42 c 15.07,0.01 30.15,0.08 45.22,0.06 1.05,1 2.11,2.01 3.19,2.99 0.09,11.34 1.32,23.23 7.57,33.01 6.43,10.39 18.19,16.54 30.14,17.83 -0.37,7.33 -0.07,14.68 -0.19,22.02 -6.45,0.04 -12.9,-0.06 -19.35,0.03 -7.8,0 -15.31,4.41 -19.43,10.97 -2.44,3.46 -3.66,7.55 -4.78,11.58 -0.87,6.33 -0.48,12.72 -0.56,19.09 0.08,42.71 -0.24,85.43 0.36,128.13 0.52,4.58 5,7.36 9.38,7.17 2.6,3.72 7.48,4.14 11.39,2.4 -0.01,1.51 -0.01,3.02 0,4.54 -22.41,-0.01 -44.81,0.03 -67.22,-0.02 -0.01,-1.67 -0.01,-3.33 -0.03,-4.99 2.29,2.5 5.72,3.19 8.91,2.15 2.67,1.54 5.84,3.5 8.99,2.05 3.18,-1.41 4.5,-5.08 5.14,-8.26 0.35,-7.18 -0.56,-14.34 -0.35,-21.51 2.12,-0.95 4.57,-1.81 5.56,-4.12 2.42,-5.15 1.78,-11.01 1.85,-16.52 -0.09,-4.52 0.37,-9.08 -0.59,-13.53 -1.6,-0.42 -3.22,-0.79 -4.84,-1.08 0.02,-28.79 0,-57.58 0.01,-86.37 -0.02,-4.51 0.27,-9.12 -1.1,-13.48 -2.35,-8.76 -8.95,-16.15 -17.25,-19.71 -9.35,-4.13 -19.77,-1.88 -29.64,-2.46 -0.23,-4.47 0.49,-9.06 -0.41,-13.47 -1.77,-2.65 -4.66,-0.44 -6.9,0.17 0.02,-1.68 0.05,-3.36 0.11,-5.04 6.8,-2.21 12.05,-7.44 15.5,-13.55 2.99,-0.32 6.13,0.12 9,-1.02 6.01,-2.03 10.5,-8.12 10.3,-14.52 0.05,-8.18 -0.01,-16.36 0.02,-24.54 z"
         inkscape:connector-curvature="0"
         style="opacity:1;fill:#ffffff" />
      <path
         id="path66"
         d="m 729.47,199.08 c 2.96,-6.74 1.53,-14.28 1.94,-21.41 12.53,0.11 25.06,-0.18 37.59,0.11 10.88,0.68 22.69,2.45 31.04,10.1 7.87,6.94 10.17,18.01 10.35,28.07 0.09,63.68 0.21,127.36 0.27,191.05 0.1,5.46 -0.53,10.94 -2.38,16.11 -3.3,8.59 -12.61,12.51 -21.19,13.32 -16.58,1.45 -33.26,0.51 -49.89,0.76 0,-1.66 0.02,-3.32 0.04,-4.97 2.19,0.53 4.5,1.62 6.78,0.78 2.99,-0.92 5.74,-3.64 5.58,-6.95 0.08,-8.42 0.02,-16.85 -0.02,-25.27 0.64,-1.18 1.68,-2.3 1.56,-3.74 0.08,-5.55 -0.02,-11.1 0.01,-16.65 2.56,-0.1 5.61,0.57 7.37,-1.83 -0.11,-18.18 0.04,-36.37 -0.07,-54.55 0.03,-3.89 -4.7,-3.13 -7.31,-3.23 0.03,-12.58 0.03,-25.17 0.01,-37.75 -0.01,-11.04 -6.28,-22.06 -16.26,-27 -4.51,-2.41 -9.69,-2.88 -14.7,-2.72 5.97,-9.48 9.67,-20.96 7.69,-32.21 -0.88,-5.11 -3.15,-9.82 -5.99,-14.11 3.09,-1.99 6.2,-4.37 7.58,-7.91 z"
         inkscape:connector-curvature="0"
         style="opacity:1;fill:#ffffff" />
      <path
         id="path68"
         d="m 226.07,188.17 c 6.9,-3.94 15.32,-4.09 22.73,-1.72 -7.81,-0.87 -15.99,1.01 -22.14,6.06 -9.63,7.45 -14.2,19.66 -15.2,31.48 -0.57,12.63 3.29,26.08 12.49,35.1 6.17,6.04 15.28,10.18 23.96,7.95 -0.79,0.49 -1.57,1.01 -2.35,1.52 -2.54,0 -5.05,0.25 -7.56,0.57 -10.52,-0.45 -19.77,-7.3 -24.98,-16.17 -6.65,-10.67 -8.21,-23.8 -6.23,-36.06 2.49,-11.48 8.62,-22.98 19.28,-28.73 z"
         inkscape:connector-curvature="0"
         style="opacity:1;fill:#ffffff" />
      <path
         id="path70"
         d="m 159.35,190.69 c 2.34,-0.73 5.19,-0.84 6.98,1.14 4.54,4.57 6.04,11.16 7.47,17.22 2.04,10.9 2.13,22.1 0.52,33.06 -1.38,7.04 -2.86,14.74 -8,20.09 -1.82,2.09 -4.78,1.77 -7.17,1.1 1.46,-2.21 3.88,-3.63 5.16,-5.99 3.97,-7.1 4.97,-15.35 5.91,-23.29 0.67,-11.11 -0.16,-22.54 -3.96,-33.08 -1.16,-3.86 -3.89,-6.85 -6.85,-9.44 -0.02,-0.21 -0.05,-0.61 -0.06,-0.81 z"
         inkscape:connector-curvature="0"
         style="opacity:1;fill:#ffffff" />
      <path
         id="path72"
         d="m 238.15,192.54 c 6.46,-2.22 13.74,-0.62 19.3,3.15 8.2,5.81 13.18,15.47 14.18,25.37 0.46,6.45 0.41,13.05 -1.46,19.3 -3.55,-1.42 -7.42,-0.76 -11.13,-0.88 -7.06,0.15 -14.14,-0.17 -21.18,0.28 -1.79,-0.11 -1.76,2.21 -2.37,3.37 3.59,6.39 9.69,12.5 17.52,12.42 4.46,0.35 8.58,-1.77 11.87,-4.61 -2.51,2.74 -4.81,5.79 -8.01,7.78 -2.68,1.76 -5.8,2.59 -8.8,3.6 -2.39,0.09 -4.77,0.09 -7.16,0.01 -7.76,-1.74 -14.37,-6.95 -18.32,-13.79 -6.49,-10.91 -7.36,-24.79 -3.08,-36.66 3.15,-8.61 9.62,-16.59 18.64,-19.34 m 12.79,30.7 c 5.67,2.08 10.92,-4.68 8.75,-9.87 -1.03,-3.87 -5.2,-5.6 -8.91,-4.96 -5.87,2.83 -6.22,12.44 0.16,14.83 z"
         inkscape:connector-curvature="0"
         style="opacity:1;fill:#ffffff" />
      <path
         id="path74"
         d="m 152.71,196.72 c 1.59,-0.8 3.86,-0.82 5.1,0.61 2.64,2.77 3.88,6.51 4.87,10.12 2.64,10.88 2.86,22.34 1.17,33.38 -1.27,6.41 -2.36,14.44 -8.82,17.74 -3.73,-1.32 -5.22,-5.03 -7,-8.19 1.49,1.18 3.19,2.02 5.11,2.24 4.1,-3.41 6.03,-8.99 5.54,-14.23 -4.34,-0.23 -8.69,-0.09 -13.03,-0.05 -0.84,-11.06 -0.98,-22.44 2.23,-33.17 1.01,-3.08 2.28,-6.32 4.83,-8.45 m -2.83,15.26 c -1.03,3.63 -0.96,7.45 -0.04,11.1 0.7,0.41 1.4,0.83 2.1,1.25 0.38,-0.24 1.14,-0.73 1.52,-0.97 1.74,-4.19 1.93,-9.49 -1.31,-13.01 -0.76,0.55 -1.51,1.09 -2.27,1.63 z"
         inkscape:connector-curvature="0"
         style="opacity:1;fill:#ffffff" />
      <path
         id="path76"
         d="m 373.73,208.64 c 1.9,-0.93 3.82,-2.4 6.07,-1.98 2.84,0.5 5.19,2.3 7.38,4.07 7.96,8.71 11.36,20.64 12.38,32.16 0.43,6.41 0.17,12.9 -1.34,19.16 -1.8,4.64 -3.66,10.37 -8.78,12.26 -5.07,1.5 -9.58,-2.31 -12.5,-6.02 -0.52,-1.01 -2.37,-2.05 -1.22,-3.24 5.74,-3.09 11.22,-6.85 17.48,-8.84 4.23,-3.83 4.68,-10.02 4.01,-15.34 -0.91,-5.75 -2.8,-11.99 -7.97,-15.32 -7.46,-0.01 -14.67,-2.2 -22.02,-3.22 0.99,-5.02 2.97,-9.91 6.51,-13.69 z"
         inkscape:connector-curvature="0"
         style="opacity:1;fill:#ffffff" />
      <path
         id="path78"
         d="m 651.12,207.78 c 5.06,-0.08 10.12,-0.12 15.18,0.02 -2.19,2.25 -5.04,4.34 -8.36,3.99 -2.85,-0.03 -4.78,-2.37 -6.82,-4.01 z"
         inkscape:connector-curvature="0"
         style="opacity:1;fill:#ffffff" />
      <path
         id="path80"
         d="m 710,209.47 c 1.84,-0.22 3.68,-0.5 5.5,-0.88 5.11,5.78 7.61,13.71 6.9,21.39 -0.61,5.99 -2.51,11.84 -5.41,17.1 -8.46,-5.19 -14.59,-13.87 -17.5,-23.31 4.46,-3.99 8.18,-8.76 10.51,-14.3 z"
         inkscape:connector-curvature="0"
         style="opacity:1;fill:#ffffff" />
      <path
         id="path82"
         d="m 347.02,230 c 4.86,-3.99 10,-7.62 14.82,-11.67 -0.16,1.19 -0.47,3.59 -0.63,4.78 -1.33,6.23 -0.87,12.68 -0.38,18.98 1.1,6.49 2.48,13.01 5.2,19.04 1.2,2.92 3.05,5.54 3.99,8.58 -6.58,-2.59 -13.4,-4.54 -19.92,-7.26 -4.83,-4.39 -8.26,-10.82 -8.01,-17.48 -0.03,-2.37 0.22,-4.74 0.49,-7.1 1.25,-2.72 1.88,-6.01 4.44,-7.87 z"
         inkscape:connector-curvature="0"
         style="opacity:1;fill:#ffffff" />
      <path
         id="path84"
         d="m 366.38,228.17 c 4.81,0.71 9.58,1.68 14.36,2.58 -1.13,7.61 -0.97,16.11 3.72,22.58 -4.07,2.48 -8.22,4.82 -12.52,6.87 -4.35,-10.05 -6.28,-21.09 -5.56,-32.03 z"
         inkscape:connector-curvature="0"
         style="opacity:1;fill:#ffffff" />
      <path
         id="path86"
         d="m 669.28,231.79 c 8.38,0.51 17.03,-0.39 24.5,-4.49 0.03,8.88 0.06,17.77 0.01,26.65 0.18,1.31 -1.01,2.17 -1.75,3.06 -4.89,4.87 -9.72,9.81 -14.48,14.81 -2.94,-4.59 -5.44,-9.43 -8.3,-14.06 0.1,-8.65 0.07,-17.31 0.02,-25.97 z"
         inkscape:connector-curvature="0"
         style="opacity:1;fill:#ffffff" />
      <path
         id="path88"
         d="m 386.94,231.07 c 4.4,4.8 5.28,11.94 4.25,18.15 -0.52,0.31 -1.55,0.93 -2.07,1.23 -3.02,-5.93 -4.54,-12.94 -2.18,-19.38 z"
         inkscape:connector-curvature="0"
         style="opacity:1;fill:#ffffff" />
      <path
         id="path90"
         d="m 511.56,232.39 c 8.38,-0.05 16.77,-0.1 25.16,-0.18 -0.01,2.29 -0.02,4.58 -0.02,6.88 -9.33,4.53 -18.74,8.9 -28.07,13.43 -1.58,0.64 -3.37,1.93 -5.05,0.8 -2.78,-1.35 -5.91,-2.21 -8.33,-4.16 -0.17,-3.05 -0.04,-6.11 -0.05,-9.16 6.33,0.55 13.24,-1.69 16.36,-7.61 z"
         inkscape:connector-curvature="0"
         style="opacity:1;fill:#ffffff" />
      <path
         id="path92"
         d="m 308.78,238.67 c 9.43,-1.11 18.82,-2.64 28.18,-4.21 -1.26,7.79 -1.77,16.22 2.32,23.34 0.73,1.43 1.43,2.86 2.14,4.31 -1.17,0.25 -2.34,0.5 -3.49,0.76 -7.67,2.15 -15.4,4.03 -23.08,6.11 -3.22,1.34 -6.4,-1.05 -8.56,-3.23 -4.09,-4.9 -5.44,-11.66 -4.79,-17.9 0.59,-4.13 3.46,-7.58 7.28,-9.18 z"
         inkscape:connector-curvature="0"
         style="opacity:1;fill:#ffffff" />
      <path
         id="path94"
         d="m 699.72,238.27 c 4.1,5.94 9.4,10.92 15.26,15.1 -5.09,-0.08 -10.18,-0.01 -15.26,-0.06 -0.03,-5.01 -0.03,-10.03 0,-15.04 z"
         inkscape:connector-curvature="0"
         style="opacity:1;fill:#ffffff" />
      <path
         id="path96"
         d="m 147.97,242.81 c 2.77,-0.09 5.53,0.09 8.26,0.59 -0.98,1.39 -1.93,2.82 -3.13,4.05 -2.99,1.03 -4.65,-2.24 -5.13,-4.64 z"
         inkscape:connector-curvature="0"
         style="opacity:1;fill:#ffffff" />
      <path
         id="path98"
         d="m 507.65,259.62 c 11.94,-5.98 24.12,-11.47 36.11,-17.33 0.03,2.35 0.04,4.7 0.04,7.06 -6.11,3.83 -12.86,6.5 -19.23,9.86 -5.69,2.54 -11.03,5.84 -16.9,7.95 -0.01,-2.51 -0.01,-5.03 -0.02,-7.54 z"
         inkscape:connector-curvature="0"
         style="opacity:1;fill:#ffffff" />
      <path
         id="path100"
         d="m 243.08,245.35 c 6.82,-0.2 13.65,-0.28 20.46,-0.01 -5.24,6.04 -15.24,6.18 -20.46,0.01 z"
         inkscape:connector-curvature="0"
         style="opacity:1;fill:#ffffff" />
      <path
         id="path102"
         d="m 486.31,251.94 c 5.2,2.23 10.24,4.82 15.44,7.07 0.06,2.84 0.05,5.68 0.04,8.53 -5,-2.93 -10.05,-5.76 -15.02,-8.72 -1.15,-1.98 -0.17,-4.67 -0.46,-6.88 z"
         inkscape:connector-curvature="0"
         style="opacity:1;fill:#ffffff" />
      <path
         id="path104"
         d="m 457.07,270.89 c 3.55,-9.36 13.3,-15.65 23.19,-15.74 0.21,2.27 -0.38,4.75 0.6,6.9 5.1,3.66 10.93,6.2 16.19,9.64 -2.58,2.82 -4.32,6.5 -3.79,10.4 0.16,4.52 3.4,8.27 7.35,10.15 -5.08,19.67 -10.61,39.22 -15.84,58.85 -0.98,2.06 0.8,3.69 1.94,5.2 5.05,6 9.89,12.17 14.9,18.2 1.07,1.75 3.87,1.84 5.08,0.18 6.37,-6.65 12.74,-13.29 19.01,-20.03 2.32,-2.08 0.48,-5.31 0.02,-7.8 -4.99,-18.17 -10.14,-36.32 -14.79,-54.58 4.19,-2.11 7.46,-6.36 7.49,-11.18 0.18,-3.9 -2.2,-7.23 -4.56,-10.08 10.55,-5.07 21.02,-10.3 31.52,-15.47 4.14,-0.61 8.4,-0.09 12.59,-0.25 5.64,0.2 11.5,-0.73 16.94,1.24 9.58,2.93 16.94,12.41 16.85,22.51 0.06,30.84 0.02,61.69 0.02,92.53 -8.25,0.01 -16.5,-0.03 -24.75,0.02 -0.07,-27.55 -0.01,-55.11 -0.03,-82.67 2.03,-3.06 7.38,-5.81 5.18,-10.05 -4.08,-2.67 -6.44,3.12 -9.07,5.29 -1.07,-1.8 -2.14,-3.59 -3.12,-5.43 -2.33,-1.32 -4.65,-0.21 -5.58,2.18 1.85,4.18 5.25,7.64 6.72,11.93 0.12,25.05 -0.02,50.1 0.06,75.15 0.22,3.45 -1.43,6.66 -1.38,10.09 -0.07,4.25 0.69,8.49 0.11,12.73 -10.31,0.07 -20.61,0.01 -30.92,0.03 -18.42,-0.09 -36.83,0.01 -55.25,0.01 0.07,-32.96 -0.17,-65.92 0.12,-98.87 2.14,-3.57 5.79,-6 7.65,-9.78 -0.36,-0.68 -1.09,-2.05 -1.45,-2.73 -4.27,-1.2 -6.02,3.56 -8.77,5.78 -1.61,-2.25 -2.62,-6.9 -6.28,-5.8 -1.34,0.11 -1.67,1.5 -2.01,2.56 0.68,4.06 5.17,6.67 4.84,10.99 -0.02,26.22 -0.02,52.45 -0.01,78.68 -4.16,0.01 -8.32,0 -12.47,0.01 -0.03,-28.55 0,-57.11 -0.02,-85.66 0.06,-5.07 -0.42,-10.38 1.72,-15.13 z"
         inkscape:connector-curvature="0"
         style="opacity:1;fill:#ffffff" />
      <path
         id="path106"
         d="m 635.46,261.73 c 5.43,-3.57 12.19,-2.33 18.31,-2.5 6.62,10.68 13.32,21.31 19.92,32.01 0.61,0.34 1.83,1.03 2.45,1.37 2.91,-2.15 5.47,-4.73 7.99,-7.32 8.63,-8.77 17.6,-17.2 26.13,-26.07 7.38,0.39 15.34,-1.35 22.21,2.14 8.25,4.22 12.93,13.58 12.87,22.65 -0.09,36.88 0.14,73.76 -0.11,110.64 -7.29,0.25 -14.59,0.03 -21.87,0.1 -0.03,-37.92 0.04,-75.83 -0.04,-113.74 0.29,-3.06 -3.26,-4.13 -5.37,-2.4 -0.83,4.79 -3.67,8.89 -7.55,11.73 -1.97,1.14 -1.59,4.38 0.44,5.28 2.83,0.6 4.56,-2.13 6.62,-3.51 0.06,9.51 0.01,19.01 0.03,28.52 -17.56,0.07 -35.14,-0.17 -52.69,0.31 -1.62,-0.03 -2.55,1.3 -3.22,2.57 -6.18,0.05 -12.45,0.21 -18.51,-1.16 -2.44,-0.64 -5.09,-2.46 -4.94,-5.27 0.42,-11.25 6.07,-21.45 12.32,-30.52 1.88,-1.99 0.01,-5.4 -2.64,-5.09 -3.01,1.75 -4.36,5.18 -6.28,7.92 -5,8.72 -9.47,18.4 -9.24,28.67 -0.02,4.77 4.11,7.91 8.06,9.7 0.19,22.21 -0.35,44.43 0.02,66.64 -5.09,0.01 -10.18,0 -15.26,0.01 0,-37.14 0,-74.27 0,-111.4 0.03,-8.11 3.22,-16.82 10.35,-21.28 z"
         inkscape:connector-curvature="0"
         style="opacity:1;fill:#ffffff" />
      <path
         id="path108"
         d="m 660.77,258.92 c 0.66,0.15 1.96,0.44 2.61,0.59 3.95,6.15 7.31,12.68 11.19,18.87 0.94,1.77 3.66,1.44 4.74,-0.01 6.26,-6.33 12.46,-12.72 18.63,-19.13 1.35,-0.02 2.7,-0.03 4.06,-0.04 -8.51,8.47 -16.99,16.96 -25.57,25.36 -5.07,-8.63 -10.87,-16.84 -15.66,-25.64 z"
         inkscape:connector-curvature="0"
         style="opacity:1;fill:#ffffff" />
      <path
         id="path110"
         d="m 321.28,273.4 c 1.7,-0.51 3.42,-0.96 5.15,-1.37 0.64,3.42 1.39,6.82 2.25,10.19 -2.1,0.46 -4.18,0.99 -6.26,1.52 -0.6,-3.42 -0.9,-6.88 -1.14,-10.34 z"
         inkscape:connector-curvature="0"
         style="opacity:1;fill:#ffffff" />
      <path
         id="path112"
         d="m 305,276.01 c 3.37,-1.53 7.12,-0.63 10.67,-0.68 -0.03,0.91 -0.09,2.75 -0.12,3.67 -3.18,1 -6.45,1.78 -9.51,3.09 -2.69,0.78 -2.17,5.83 0.88,5.44 7.63,-0.34 15.28,-0.9 22.85,-1.92 4.82,-0.13 9.6,-0.88 14.42,-1.05 0.14,2.88 0.29,5.77 0.34,8.66 -5.46,0.51 -10.9,1.18 -16.31,2.04 -7.47,0.46 -14.9,1.46 -22.4,1.48 -4.68,-4.47 -9.53,-8.76 -14.31,-13.13 3.95,-3.39 8.7,-5.66 13.49,-7.6 z"
         inkscape:connector-curvature="0"
         style="opacity:1;fill:#ffffff" />
      <path
         id="path114"
         d="m 503.05,275 c 4.85,-2.54 11.28,2.98 8.97,8.1 -1.43,4.27 -7.46,5.67 -10.69,2.61 -3.55,-2.77 -2.57,-9.21 1.72,-10.71 z"
         inkscape:connector-curvature="0"
         style="opacity:1;fill:#ffffff" />
      <path
         id="path116"
         d="m 273.38,281.8 c -0.23,-1.77 1.83,-3.91 3.6,-3.6 2.95,2.29 5.42,5.13 8.29,7.52 4.85,4.45 9.7,8.93 14.39,13.52 -0.57,1.77 -2.32,2.81 -3.52,4.15 -7.31,-7.48 -15.25,-14.32 -22.76,-21.59 z"
         inkscape:connector-curvature="0"
         style="opacity:1;fill:#ffffff" />
      <path
         id="path118"
         d="m 245.38,310.57 c 7.87,-8.31 15.63,-16.73 23.48,-25.07 2.1,2.22 4.38,4.27 6.62,6.35 -1.13,1.09 -2.23,2.2 -3.32,3.33 -4.79,5.51 -9.93,10.7 -14.89,16.05 -2.98,3.31 -7.99,2.89 -11.6,0.91 -0.07,-0.39 -0.22,-1.18 -0.29,-1.57 z"
         inkscape:connector-curvature="0"
         style="opacity:1;fill:#ffffff" />
      <path
         id="path120"
         d="m 186.33,295.83 c 0.07,-1.36 0.15,-2.71 0.24,-4.06 13.72,-0.02 27.44,0.04 41.16,-0.03 0.21,1.35 0.44,2.7 0.61,4.06 -13.98,0.51 -28.02,0.48 -42.01,0.03 z"
         inkscape:connector-curvature="0"
         style="opacity:1;fill:#ffffff" />
      <path
         id="path122"
         d="m 261.97,314.95 c 5.74,-6.17 11.38,-12.44 17.19,-18.54 0.33,0.02 0.97,0.07 1.29,0.09 3.94,3.81 8.07,7.42 11.97,11.27 -2.73,2.46 -5.18,5.21 -7.65,7.92 -8.94,9.82 -18.3,19.28 -27.03,29.28 -1.86,-5.69 -5.05,-11.19 -10.24,-14.42 -2.81,-1.94 -6.15,-2.8 -9.37,-3.77 -2.67,-0.12 -5.34,-0.1 -8,-0.02 3.85,-3.58 7.26,-7.6 10.82,-11.45 1.05,0.88 2.11,1.76 3.16,2.65 5.84,2.83 13.41,1.9 17.86,-3.01 z"
         inkscape:connector-curvature="0"
         style="opacity:1;fill:#ffffff" />
      <path
         id="path124"
         d="m 505.76,296.73 c 5.14,18.13 9.95,36.34 14.94,54.52 -4.81,5.03 -9.51,10.18 -14.3,15.23 -0.7,0.59 -1.96,2.37 -2.8,0.99 -4.38,-5.26 -8.76,-10.53 -12.91,-15.97 5.21,-18.21 9.85,-36.57 15.07,-54.77 z"
         inkscape:connector-curvature="0"
         style="opacity:1;fill:#ffffff" />
      <path
         id="path126"
         d="m 324.28,301.79 c 2.86,-0.99 5.85,-1.57 8.89,-1.58 0.2,1.81 0.41,3.62 0.61,5.44 -3,0.86 -6.13,1.03 -9.23,1.12 -0.11,-1.66 -0.19,-3.32 -0.27,-4.98 z"
         inkscape:connector-curvature="0"
         style="opacity:1;fill:#ffffff" />
      <path
         id="path128"
         d="m 186.4,302.1 c 13.92,-0.16 27.85,-0.17 41.77,0 0.01,1.41 0.01,2.81 0.01,4.22 -13.89,0.14 -27.78,0.05 -41.67,0.05 -0.05,-1.43 -0.09,-2.85 -0.11,-4.27 z"
         inkscape:connector-curvature="0"
         style="opacity:1;fill:#ffffff" />
      <path
         id="path130"
         d="m 131.89,314.84 c 6.91,-7.23 16.95,-11.76 27.03,-11.22 5.23,0.9 7.61,6.47 9.2,10.94 3.35,11.41 3.81,23.44 3.62,35.26 -17.81,0.02 -35.63,0.02 -53.44,0 0.48,-12.66 4.45,-25.84 13.59,-34.98 z"
         inkscape:connector-curvature="0"
         style="opacity:1;fill:#ffffff" />
      <path
         id="path132"
         d="m 181.67,311.2 c 1.45,0.25 2.9,0.53 4.31,0.94 12.33,0.26 24.67,0.01 37,0.13 4.6,0.22 9.09,-1.32 13.71,-0.78 -5.33,5.11 -9.92,10.94 -15.26,16.04 -2.13,-0.14 -4.27,-0.27 -6.38,-0.64 -8.01,-0.33 -15.99,-1.15 -24,-1.46 -2.08,-5.38 -5.47,-10.05 -9.38,-14.23 z"
         inkscape:connector-curvature="0"
         style="opacity:1;fill:#ffffff" />
      <path
         id="path134"
         d="m 174.04,313.27 c 4.67,2.55 8.04,6.78 10.35,11.5 -2.67,-0.05 -5.32,-0.2 -7.98,-0.38 -0.71,-3.72 -1.61,-7.41 -2.37,-11.12 z"
         inkscape:connector-curvature="0"
         style="opacity:1;fill:#ffffff" />
      <path
         id="path136"
         d="m 281.48,327.89 c 2.02,-2.49 4.31,-4.75 6.63,-6.96 2.06,3.93 2.82,8.36 3.37,12.71 -3.34,0.06 -6.68,0.05 -10.01,0.03 0,-1.9 -0.73,-3.97 0.01,-5.78 z"
         inkscape:connector-curvature="0"
         style="opacity:1;fill:#ffffff" />
      <path
         id="path138"
         d="m 667.68,326.68 c 0.64,-0.01 1.91,-0.04 2.55,-0.05 0.03,15.97 0.01,31.93 0.01,47.9 -0.64,-0.02 -1.93,-0.06 -2.58,-0.08 0.02,-15.92 -0.02,-31.85 0.02,-47.77 z"
         inkscape:connector-curvature="0"
         style="opacity:1;fill:#ffffff" />
      <path
         id="path140"
         d="m 676.33,326.89 c 0.54,-0.14 1.64,-0.42 2.18,-0.56 0.22,16.07 0.07,32.15 0.08,48.22 -0.6,-0.02 -1.79,-0.05 -2.39,-0.07 0.11,-15.86 -0.15,-31.73 0.13,-47.59 z"
         inkscape:connector-curvature="0"
         style="opacity:1;fill:#ffffff" />
      <path
         id="path142"
         d="m 684.48,374.51 c 0.01,-15.96 -0.04,-31.92 0.03,-47.88 10.98,0.01 21.97,0.01 32.96,0.01 0.05,15.95 0,31.91 0.02,47.87 -11,0.01 -22.01,0.01 -33.01,0 z"
         inkscape:connector-curvature="0"
         style="opacity:1;fill:#ffffff" />
      <path
         id="path144"
         d="m 751.21,326.61 1.27,-0.03 c 0.11,13.81 0,27.61 0.06,41.41 0,2.48 0.06,4.98 -0.46,7.43 -1.1,-1.64 -0.95,-3.6 -0.95,-5.45 0.09,-14.46 -0.05,-28.91 0.08,-43.36 z"
         inkscape:connector-curvature="0"
         style="opacity:1;fill:#ffffff" />
      <path
         id="path146"
         d="m 646.33,329.12 c 5.17,0.23 10.35,0.41 15.54,0.31 0.03,13.69 0,27.37 0.01,41.06 -5.18,0 -10.36,-0.01 -15.53,0.01 -0.05,-13.8 0,-27.59 -0.02,-41.38 z"
         inkscape:connector-curvature="0"
         style="opacity:1;fill:#ffffff" />
      <path
         id="path148"
         d="m 180.06,330.57 c 12.92,0.66 25.82,1.89 38.77,2.26 -1.97,1.97 -3.72,4.18 -5.02,6.65 -6.3,0.29 -12.52,-1 -18.82,-1 -3.78,-0.23 -8.04,0.31 -11.26,-2.13 -2.06,-1.28 -2.82,-3.67 -3.67,-5.78 z"
         inkscape:connector-curvature="0"
         style="opacity:1;fill:#ffffff" />
      <path
         id="path150"
         d="m 232.43,332.65 c 8.55,-1.26 17.27,4.89 19.23,13.26 2.72,9.23 -3.09,20.23 -12.54,22.65 -9.15,3.22 -19.65,-3.35 -21.85,-12.56 -3.07,-10.3 4.55,-21.88 15.16,-23.35 z"
         inkscape:connector-curvature="0"
         style="opacity:1;fill:#ffffff" />
      <path
         id="path152"
         d="m 258.69,352.45 c 5.55,-6.22 11.31,-12.28 16.99,-18.38 0.16,44.32 0.02,88.64 0.08,132.96 0.14,6.01 -1.25,12.09 -4.39,17.25 -25.73,-0.06 -51.45,0 -77.18,-0.03 0.01,-37.7 0,-75.39 0.01,-113.09 3.64,0.1 7.27,0.31 10.91,0.47 5.91,1.01 11.94,0.63 17.88,1.28 4.54,0.33 7.58,4.26 11.95,5.15 6.99,1.79 14.1,-2.65 17.65,-8.52 3.5,-5.09 4.17,-11.38 6.1,-17.09 m -22.9,40.28 c -7.17,1.31 -13.47,5.63 -17.65,11.55 -8.2,11.69 -9.96,27.14 -6.25,40.76 2.46,8.6 7.36,16.97 15.22,21.62 6.54,3.99 15.23,4.18 21.89,0.38 7.77,-4.25 12.78,-12.21 15.46,-20.45 4.06,-13.05 2.93,-27.95 -4.16,-39.77 -4.02,-7.12 -10.98,-12.51 -19.07,-14.07 -1.82,-0.03 -3.63,-0.04 -5.44,-0.02 z"
         inkscape:connector-curvature="0"
         style="opacity:1;fill:#ffffff" />
      <path
         id="path154"
         d="m 177.55,338.34 c 3.31,4.55 9.11,5.92 14.44,6 6.52,0.12 12.99,0.79 19.5,1.07 -2.03,7.3 0.27,15.04 4.47,21.12 -12.68,-0.63 -25.32,-1.83 -38,-2.4 -3.78,-0.55 -7.61,-0.49 -11.42,-0.71 -4.14,-0.69 -8.34,-0.74 -12.52,-1.05 -3.99,-0.26 -6.83,-3.42 -8.88,-6.55 9.68,-0.2 19.36,0.03 29.04,-0.1 1.24,0.08 2.17,-0.87 3.22,-1.36 0.26,-5.34 0.38,-10.68 0.15,-16.02 z"
         inkscape:connector-curvature="0"
         style="opacity:1;fill:#ffffff" />
      <path
         id="path156"
         d="m 282.05,339.45 c 2.62,2.4 3.13,6.15 3.18,9.53 0.01,4.86 -0.04,9.73 0.01,14.6 -1.09,0.35 -2.18,0.7 -3.27,1.05 -0.1,-8.39 -0.25,-16.79 0.08,-25.18 z"
         inkscape:connector-curvature="0"
         style="opacity:1;fill:#ffffff" />
      <path
         id="path158"
         d="m 130.8,355.75 c 2.74,-0.01 5.48,-0.01 8.22,0.03 1.95,6.4 7.43,11.54 14.14,12.46 8.35,0.5 16.66,1.36 25.03,1.62 3.31,0.53 6.68,0.56 10.03,0.71 0.02,37.89 0.01,75.78 0,113.67 -17.33,0.02 -34.67,0.01 -52,0.02 -3.63,-6.09 -5.65,-13.1 -5.43,-20.21 0.03,-36.1 0,-72.2 0.01,-108.3 M 141.59,390 c 0.06,26.98 -0.17,53.97 0.13,80.95 0.51,0.33 1.53,1.01 2.04,1.35 10.1,-0.04 20.2,-0.01 30.31,-0.01 1.9,0.31 4.25,-1.07 3.79,-3.23 0.02,-26.38 0.03,-52.77 0.01,-79.15 0.3,-1.88 -0.79,-3.91 -2.92,-3.63 -9.97,-0.1 -19.95,-0.04 -29.92,-0.03 -2.16,-0.39 -3.83,1.68 -3.44,3.75 z"
         inkscape:connector-curvature="0"
         style="opacity:1;fill:#ffffff" />
      <path
         id="path160"
         d="m 281.89,372.94 c -0.51,-2.15 1.8,-2.7 3.31,-3.12 0.04,12.77 0.05,25.55 -0.01,38.33 -1.29,-1.19 -3.67,-1.95 -3.29,-4.12 -0.05,-10.36 -0.03,-20.73 -0.01,-31.09 z"
         inkscape:connector-curvature="0"
         style="opacity:1;fill:#ffffff" />
      <path
         id="path162"
         d="m 646.33,376.3 c 5.15,-0.01 10.29,0.02 15.44,-0.03 0.08,0.66 0.24,1.98 0.32,2.64 0.43,0.36 1.29,1.07 1.72,1.43 17.89,0.07 35.78,0.03 53.67,0.05 0.01,1.06 0.03,3.2 0.03,4.26 -23.72,0.06 -47.45,0.01 -71.18,0.03 0,-2.8 0,-5.59 0,-8.38 z"
         inkscape:connector-curvature="0"
         style="opacity:1;fill:#ffffff" />
      <path
         id="path164"
         d="m 451.24,377.62 c 5.51,0.01 11.03,0.01 16.55,0.01 0.01,4.52 0.02,9.05 -0.02,13.58 -5.51,0 -11.01,0 -16.52,0 -0.05,-4.53 -0.03,-9.06 -0.01,-13.59 z"
         inkscape:connector-curvature="0"
         style="opacity:1;fill:#ffffff" />
      <path
         id="path166"
         d="m 566.12,377.63 c 10.35,0 20.71,0 31.06,0 0,4.53 0.01,9.05 -0.01,13.58 -10.34,0 -20.68,-0.01 -31.02,0 -0.05,-4.53 -0.03,-9.05 -0.03,-13.58 z"
         inkscape:connector-curvature="0"
         style="opacity:1;fill:#ffffff" />
      <path
         id="path168"
         d="m 646.36,510.35 c -0.05,-39.92 -0.04,-79.84 -0.01,-119.76 23.71,0.02 47.43,0 71.14,0.01 -0.01,10.5 -0.09,21.01 0.01,31.51 -0.05,4.7 4.61,8.26 9.15,7.68 1.38,1.39 2.91,2.63 4.61,3.64 0.1,25.48 0.02,50.96 0.04,76.44 -13.87,-0.1 -27.74,0.18 -41.61,0.28 -0.07,-20.39 0.02,-40.79 -0.05,-61.18 0.17,-1.58 -0.75,-3.68 -2.59,-3.55 -2.09,-0.47 -3.34,1.66 -3.12,3.47 -0.1,20.44 0.05,40.88 -0.07,61.32 -7.82,0 -15.63,0.04 -23.45,0.09 -0.07,-13.44 -0.01,-26.87 -0.02,-40.3 0.07,-1.58 -0.43,-3.07 -0.91,-4.54 -1.93,-0.2 -5.08,-0.07 -4.97,2.59 -0.14,14.09 0.01,28.18 -0.07,42.27 -2.7,0.01 -5.39,0.01 -8.08,0.03 z"
         inkscape:connector-curvature="0"
         style="opacity:1;fill:#ffffff" />
      <path
         id="path170"
         d="m 147.58,392.16 c 8.12,0.01 16.23,-0.01 24.34,0.01 -0.01,1.11 -0.03,2.24 -0.04,3.37 -8.1,-0.04 -16.2,0 -24.31,-0.03 0.01,-0.84 0.01,-2.52 0.01,-3.35 z"
         inkscape:connector-curvature="0"
         style="opacity:1;fill:#ffffff" />
      <path
         id="path172"
         d="m 455.46,396.87 c 4.07,0.03 8.15,0.04 12.23,-0.01 0.19,3.32 0.17,6.66 0.1,9.99 -0.66,0.95 -1.93,1.67 -1.93,2.97 -0.22,6.37 0.02,12.76 -0.11,19.14 -0.57,-0.04 -1.71,-0.14 -2.28,-0.18 -0.16,-6.62 0.21,-13.25 -0.17,-19.86 -0.92,-2.74 -4.26,-2.13 -5.78,-0.3 -0.06,5.69 0.23,11.39 -0.16,17.07 -1.17,-0.49 -2.18,-1.43 -1.96,-2.8 -0.07,-8.67 -0.13,-17.35 0.06,-26.02 z"
         inkscape:connector-curvature="0"
         style="opacity:1;fill:#ffffff" />
      <path
         id="path174"
         d="m 474.22,396.79 c 6.81,-0.01 13.62,0.01 20.43,-0.01 -0.04,4.35 -0.16,8.7 0.18,13.04 -6.88,-0.13 -13.76,-0.03 -20.64,-0.06 0,-4.32 -0.02,-8.65 0.03,-12.97 z"
         inkscape:connector-curvature="0"
         style="opacity:1;fill:#ffffff" />
      <path
         id="path176"
         d="m 500.65,397.41 c 3.8,-0.92 7.89,-1.02 11.67,0.11 -0.23,3.73 0.71,7.7 -0.91,11.23 -3.41,-0.42 -7.41,0.8 -10.48,-0.7 -0.67,-3.5 -0.19,-7.1 -0.28,-10.64 z"
         inkscape:connector-curvature="0"
         style="opacity:1;fill:#ffffff" />
      <path
         id="path178"
         d="m 518.19,396.78 c 13.26,0.01 26.51,0.02 39.77,-0.01 1.82,-0.03 3.64,0.22 5.44,0.52 -0.05,4.14 -0.04,8.28 -0.01,12.42 -15.21,0.08 -30.41,0.08 -45.62,0.01 0.59,-4.29 0.5,-8.62 0.42,-12.94 z"
         inkscape:connector-curvature="0"
         style="opacity:1;fill:#ffffff" />
      <path
         id="path180"
         d="m 569.53,397.19 c 9.18,0.14 18.37,-0.29 27.54,0.24 -0.73,4 -5.56,2.59 -7.2,5.44 -0.5,8.04 0.1,16.12 -0.06,24.17 0.26,1.77 -0.93,3.09 -1.93,4.37 -0.69,-1.75 -1.31,-3.55 -1.19,-5.44 -0.09,-6.36 0.05,-12.73 -0.2,-19.08 0.17,-1.65 -1.32,-2.5 -2.41,-3.38 -0.88,0.43 -1.75,0.86 -2.62,1.29 -1.17,7.33 -0.31,14.77 -0.75,22.14 -0.01,1.24 -1.56,1.51 -2.27,2.27 -1.35,-8.07 0.14,-16.28 -1.12,-24.35 -0.81,-0.41 -1.6,-0.82 -2.39,-1.23 -0.82,0.39 -1.64,0.79 -2.45,1.2 -0.7,5.71 -0.24,11.48 -0.37,17.22 0.15,1.51 -1.1,2.57 -1.83,3.74 -0.54,-1.52 -0.85,-3.12 -0.77,-4.73 0.02,-7.96 0.01,-15.92 0.02,-23.87 z"
         inkscape:connector-curvature="0"
         style="opacity:1;fill:#ffffff" />
      <path
         id="path182"
         d="m 227,403.06 c 4.35,-3.66 10.53,-5.68 16.07,-3.73 8.03,2.52 13.1,10.22 15.66,17.84 3.02,9.69 2.88,20.41 -0.61,29.95 -2.56,6.73 -7.29,13.11 -14.13,15.88 -4.72,1.5 -10.22,1.15 -14.4,-1.64 -4.97,-3.09 -8.27,-8.15 -10.6,-13.39 2.99,3.6 6.34,7.39 11.12,8.46 6.07,1.62 12.44,-1.48 16.1,-6.31 6.99,-9.21 7.69,-22.54 2.17,-32.63 -2.93,-5.65 -8.71,-10.29 -15.32,-10.05 -7.62,0.29 -13.64,6.64 -15.89,13.55 1.37,-6.78 4.64,-13.28 9.83,-17.93 z"
         inkscape:connector-curvature="0"
         style="opacity:1;fill:#ffffff" />
      <path
         id="path184"
         d="m 625.37,400.22 c 4.99,0 9.98,-0.02 14.98,0.02 -0.01,1.72 0,3.45 0.02,5.18 -1.32,0.8 -3.15,1.35 -3.47,3.09 -0.38,6.63 0.25,13.3 -0.34,19.94 -0.62,-0.32 -1.86,-0.96 -2.48,-1.28 -0.31,-6.41 0.2,-12.85 -0.23,-19.26 -0.36,-2.57 -5.43,-2.52 -5.52,0.15 -0.34,5.44 0.04,10.9 -0.19,16.34 -1.14,-0.5 -2.87,-0.83 -2.69,-2.43 -0.22,-7.25 -0.02,-14.5 -0.08,-21.75 z"
         inkscape:connector-curvature="0"
         style="opacity:1;fill:#ffffff" />
      <path
         id="path186"
         d="m 723.32,400.56 c 6.74,-0.01 13.48,-0.01 20.23,0 -0.12,8.82 0.63,17.77 -0.32,26.51 -0.65,0.12 -1.94,0.35 -2.59,0.47 -0.32,-6.7 0.25,-13.44 -0.29,-20.12 -0.93,-2.83 -5.14,-2.06 -5.59,0.65 -0.25,6.48 0.06,12.97 -0.15,19.45 -0.59,0 -1.77,0 -2.36,-0.01 -1.09,-6.67 0,-13.47 -0.62,-20.18 -0.91,-2.49 -3.72,-1.8 -5.38,-0.54 -0.11,5.66 -0.03,11.33 -0.06,17 -1.24,-0.27 -3.08,-0.19 -2.78,-1.98 -0.25,-7.08 -0.02,-14.17 -0.09,-21.25 z"
         inkscape:connector-curvature="0"
         style="opacity:1;fill:#ffffff" />
      <path
         id="path188"
         d="m 147.58,401.53 c 8.08,-0.16 16.18,-0.1 24.27,-0.05 0.6,21.62 0.03,43.25 0.26,64.88 -8.18,0.06 -16.35,0.02 -24.53,0.03 -0.01,-21.62 0,-43.24 0,-64.86 m 10,49.2 c -5.29,2.03 -6.14,10.19 -1.35,13.21 4.14,3.29 10.85,0.46 11.79,-4.63 1.58,-5.73 -5.08,-10.98 -10.44,-8.58 z"
         inkscape:connector-curvature="0"
         style="opacity:1;fill:#ffffff" />
      <path
         id="path190"
         d="m 229.38,414.41 c 2.44,-1.47 5.72,-1.51 8.18,-0.05 4.22,2.2 6.56,6.74 7.77,11.16 1.85,6.42 0.86,13.56 -2.54,19.29 -2.05,3.28 -5.42,6.28 -9.51,6.24 -6.89,-0.64 -10.71,-7.77 -11.9,-13.88 -1.57,-8.1 0.56,-18.19 8,-22.76 z"
         inkscape:connector-curvature="0"
         style="opacity:1;fill:#ffffff" />
      <path
         id="path192"
         d="m 281.98,413.53 c 3.63,4.02 5.55,9.68 4.37,15.06 -0.57,3.19 -2.37,5.95 -4.12,8.61 -0.66,-7.87 -0.32,-15.79 -0.25,-23.67 z"
         inkscape:connector-curvature="0"
         style="opacity:1;fill:#ffffff" />
      <path
         id="path194"
         d="m 474.19,415.8 c 29.73,-0.01 59.46,0 89.18,0.08 0.07,3.35 -0.27,6.74 0.31,10.06 0.73,1.95 2.33,3.42 3.66,4.98 0.04,44.83 0.02,89.66 0.01,134.5 -11.86,0 -23.72,0.03 -35.59,-0.02 -0.08,-14.95 0.17,-29.9 -0.13,-44.84 -1.42,-0.61 -3.05,-1.94 -4.55,-0.74 -1.52,0.85 -1.37,2.66 -1.41,4.15 0,13.82 0.04,27.64 -0.01,41.46 -1.99,-0.01 -3.97,-0.01 -5.95,-0.02 -0.01,-41.46 -0.02,-82.93 0,-124.39 -0.07,-2.39 0.25,-4.84 -0.39,-7.17 -1.15,-1.82 -3.49,-1.3 -5.29,-1.43 -2.87,0.05 -5.75,-0.15 -8.6,0.19 -2.62,0.44 -2.78,4.59 -0.34,5.48 2.88,0.33 5.8,0.12 8.71,0.16 0,42.39 -0.01,84.78 0,127.17 -9.49,0.01 -18.98,-0.01 -28.46,0.01 -0.13,-8.52 0.15,-17.05 -0.13,-25.56 -1.05,-2.07 -4.19,-1.72 -5.78,-0.53 -0.46,8.67 -0.06,17.37 -0.2,26.06 -1.68,0 -3.36,0.01 -5.04,0.03 0,-49.88 0,-99.75 0,-149.63 z"
         inkscape:connector-curvature="0"
         style="opacity:1;fill:#ffffff" />
      <path
         id="path196"
         d="m 281.88,453.78 c 0.45,-3.72 -1.53,-8.73 2.47,-11.03 0.1,3.66 0.07,7.32 0.06,10.99 -0.63,0.01 -1.9,0.03 -2.53,0.04 z"
         inkscape:connector-curvature="0"
         style="opacity:1;fill:#ffffff" />
      <path
         id="path198"
         d="m 159.24,459.2 c 0.36,-0.86 -0.64,-3.22 0.92,-2.9 2.15,-0.71 1.46,1.62 1.58,2.94 -0.62,-0.01 -1.87,-0.03 -2.5,-0.04 z"
         inkscape:connector-curvature="0"
         style="opacity:1;fill:#ffffff" />
      <path
         id="path200"
         d="m 281.99,459.87 c 0.57,-0.16 1.73,-0.49 2.31,-0.65 0.17,11.75 -0.02,23.51 -0.01,35.26 -3.04,0 -6.07,-0.03 -9.11,-0.05 0.02,-1.27 0.04,-2.53 0.07,-3.78 2.67,-2.06 2.57,-5.74 4.09,-8.52 3.19,-7 2.38,-14.81 2.65,-22.26 z"
         inkscape:connector-curvature="0"
         style="opacity:1;fill:#ffffff" />
      <path
         id="path202"
         d="m 141.55,490.26 c 15.55,-0.33 31.11,-0.08 46.66,-0.13 0.01,1.82 0.02,3.63 0.04,5.46 -11.07,0.09 -22.15,0.09 -33.22,0.01 -5.02,0.03 -9.57,-2.42 -13.48,-5.34 z"
         inkscape:connector-curvature="0"
         style="opacity:1;fill:#ffffff" />
      <path
         id="path204"
         d="m 194.21,490.1 c 24.19,0.13 48.38,-0.2 72.56,0.17 -3.65,2.91 -7.96,5.39 -12.77,5.33 -19.94,0.11 -39.88,0.02 -59.81,0.04 0,-1.85 0.01,-3.7 0.02,-5.54 z"
         inkscape:connector-curvature="0"
         style="opacity:1;fill:#ffffff" />
      <path
         id="path206"
         d="m 260.25,500.66 c 7.99,-0.84 16.05,-0.16 24.07,-0.27 -0.04,1.7 -0.07,3.4 -0.09,5.11 -8.01,0.03 -16.02,-0.09 -24.02,-0.01 0.01,-1.62 0.02,-3.22 0.04,-4.83 z"
         inkscape:connector-curvature="0"
         style="opacity:1;fill:#ffffff" />
      <path
         id="path208"
         d="m 154.56,501.74 c 15.08,-0.05 30.16,0.05 45.24,-0.06 -2.49,1.23 -4.8,3.37 -7.79,2.9 -12.38,-0.13 -24.78,0.19 -37.15,-0.16 -0.08,-0.67 -0.23,-2.01 -0.3,-2.68 z"
         inkscape:connector-curvature="0"
         style="opacity:1;fill:#ffffff" />
      <path
         id="path210"
         d="m 210.89,501.76 c 14.5,-0.09 29,0.04 43.51,-0.07 0.04,0.93 0.08,1.87 0.13,2.81 -12.5,0.14 -25.01,0.05 -37.52,0.06 -2.38,0.11 -4.13,-1.78 -6.12,-2.8 z"
         inkscape:connector-curvature="0"
         style="opacity:1;fill:#ffffff" />
      <path
         id="path212"
         d="m 194.22,515.83 c 1.22,-4.91 5.74,-8.8 10.81,-9.04 4.77,-0.01 9.11,3.56 10.21,8.17 3.57,11.82 6.99,23.67 10.53,35.5 -9.81,0.13 -19.64,-0.22 -29.44,0.15 -2.29,0.13 -2.13,2.69 -2.14,4.37 0.04,21.35 -0.04,42.7 0.03,64.05 -0.46,2.18 1.84,3.44 3.74,3.18 9.37,-0.02 18.74,0.1 28.1,-0.05 1.79,0.11 3.29,-1.26 3.1,-3.09 0.2,-18.82 -0.1,-37.66 0.14,-56.48 8.51,28.35 16.49,56.88 25.28,85.15 0.02,0.05 0.06,0.14 0.08,0.19 -1.52,-1.14 -3.46,-1.23 -5.22,-1.66 -12.56,-2.27 -25.06,-4.8 -37.61,-7.11 -16.9,-3.43 -33.94,-6.25 -50.79,-9.91 l -0.79,-1.85 0.93,0.38 c 10.94,-37.34 22.08,-74.62 33.04,-111.95 z"
         inkscape:connector-curvature="0"
         style="opacity:1;fill:#ffffff" />
      <path
         id="path214"
         d="m 154.71,509.79 c 11.87,-0.09 23.74,-0.02 35.62,-0.04 -0.52,1.18 -1.03,2.37 -1.52,3.57 -11.37,-0.03 -22.74,0.02 -34.11,-0.03 0,-0.87 0.01,-2.62 0.01,-3.5 z"
         inkscape:connector-curvature="0"
         style="opacity:1;fill:#ffffff" />
      <path
         id="path216"
         d="m 219.54,509.75 c 11.63,0.02 23.26,-0.05 34.9,0.04 0.01,1.16 0.02,2.32 0.03,3.5 -11.18,0.04 -22.36,0.04 -33.53,0 -0.47,-1.19 -0.93,-2.37 -1.4,-3.54 z"
         inkscape:connector-curvature="0"
         style="opacity:1;fill:#ffffff" />
      <path
         id="path218"
         d="m 265.29,511.33 c 3.06,0.06 6.15,-0.21 9.2,0.18 7.15,10.22 9.29,23.04 9.91,35.26 -0.98,0.01 -2.92,0.03 -3.89,0.04 -2.21,-7.43 -3.82,-15.02 -6.14,-22.41 -1.56,-0.31 -3.13,-0.32 -4.68,-0.01 -1.21,-4.44 -2.15,-9.01 -4.4,-13.06 z"
         inkscape:connector-curvature="0"
         style="opacity:1;fill:#ffffff" />
      <path
         id="path220"
         d="m 259.74,523.79 c 1.4,-3.22 -0.55,-6.62 0.22,-9.92 3.62,7.85 5.02,16.51 7.77,24.68 -3.69,0.55 -8.54,-1.53 -11.14,1.98 0.19,18.18 0,36.36 0.1,54.54 -0.25,1.42 0.91,2.59 2,3.3 8.78,0.29 17.57,-0.12 26.34,0.2 2.23,9.09 5.25,17.98 7.56,27.05 -1.56,-0.27 -3.11,-0.54 -4.66,-0.82 -2.09,-0.65 -4.31,-0.35 -6.45,-0.5 -2.26,-1.48 -5.05,-0.83 -7.54,-1.41 -7.03,-1.64 -14.28,-1.6 -21.4,-2.62 -6.5,-21.06 -12.48,-42.27 -18.81,-63.38 -0.77,-2.18 -0.83,-4.57 -0.07,-6.76 2.26,-7.62 4.18,-15.34 6.53,-22.94 4.55,-0.11 9.1,0.08 13.65,-0.07 2.33,-0.14 4.85,-1.1 5.9,-3.33 z"
         inkscape:connector-curvature="0"
         style="opacity:1;fill:#ffffff" />
      <path
         id="path222"
         d="m 142.71,521.97 c 0.91,-3.38 3.99,-5.32 6.8,-7 -0.48,3.4 -1.96,7.75 1.11,10.43 3.39,2.65 8.02,1.51 12,1.8 3.24,12.34 6.51,24.67 9.74,37.02 1.07,3.71 -0.86,7.31 -1.76,10.84 -4.46,15.42 -9.19,30.75 -13.62,46.18 -4.38,-0.99 -8.72,-2.15 -13.11,-3.11 -4.26,-1.22 -8.64,-1.95 -12.86,-3.29 l -0.27,-0.09 c -4.78,-1.57 -9.77,-2.3 -14.58,-3.74 0.7,-2.6 1.47,-5.17 2.28,-7.73 9.07,0.07 18.14,-0.12 27.21,0.11 0.98,-1.28 2.03,-2.64 1.8,-4.35 0.04,-16.69 -0.04,-33.38 0.03,-50.06 -0.18,-1.8 0.41,-4.09 -1.33,-5.27 -3.26,-0.64 -6.62,-0.22 -9.91,-0.32 2.18,-7.13 4.13,-14.34 6.47,-21.42 z"
         inkscape:connector-curvature="0"
         style="opacity:1;fill:#ffffff" />
      <path
         id="path224"
         d="m 664.65,516.08 c 7.56,-0.06 15.13,-0.11 22.7,-0.06 -0.03,21.05 0.05,42.1 -0.04,63.15 -7.55,0 -15.09,0 -22.63,0 -0.08,-21.03 -0.01,-42.06 -0.03,-63.09 z"
         inkscape:connector-curvature="0"
         style="opacity:1;fill:#ffffff" />
      <path
         id="path226"
         d="m 693.34,516.02 c 7.95,0.04 15.91,-0.25 23.86,0.1 0.03,20.86 -0.18,41.71 0,62.56 -7.91,1.12 -15.92,0.24 -23.86,0.08 0.02,-20.91 0.02,-41.83 0,-62.74 z"
         inkscape:connector-curvature="0"
         style="opacity:1;fill:#ffffff" />
      <path
         id="path228"
         d="m 154.68,518.5 c 10.81,-0.17 21.62,-0.04 32.43,-0.07 -0.26,1.22 -0.51,2.45 -0.76,3.69 -10.54,-0.02 -21.08,0.01 -31.61,-0.02 -0.02,-0.9 -0.05,-2.7 -0.06,-3.6 z"
         inkscape:connector-curvature="0"
         style="opacity:1;fill:#ffffff" />
      <path
         id="path230"
         d="m 222.3,518.49 c 10.73,-0.09 21.47,-0.15 32.21,0.03 -0.02,0.89 -0.07,2.68 -0.09,3.58 -9.85,0 -19.71,0.05 -29.56,-0.01 -2.14,0.43 -1.77,-2.47 -2.56,-3.6 z"
         inkscape:connector-curvature="0"
         style="opacity:1;fill:#ffffff" />
      <path
         id="path232"
         d="m 262.58,544.39 c 2.25,-0.01 4.5,-0.01 6.75,-0.02 4.5,16.09 9.44,32.05 13.71,48.19 -6.83,0.06 -13.66,0.04 -20.48,0.02 0.01,-16.07 -0.02,-32.13 0.02,-48.19 z"
         inkscape:connector-curvature="0"
         style="opacity:1;fill:#ffffff" />
      <path
         id="path234"
         d="m 134.53,549.26 c 2.36,0 4.73,0 7.09,0.01 0.01,16.03 0.01,32.05 0,48.07 -7.13,0.01 -14.27,0.03 -21.4,-0.01 4.7,-16.04 9.49,-32.06 14.31,-48.07 z"
         inkscape:connector-curvature="0"
         style="opacity:1;fill:#ffffff" />
      <path
         id="path236"
         d="m 200.04,556.3 c 7.79,-0.01 15.58,-0.04 23.36,0.02 -0.03,20.02 0.01,40.04 -0.01,60.07 -7.83,-0.01 -15.65,0.02 -23.48,-0.02 0.02,-20.03 -0.08,-40.05 0.13,-60.07 z"
         inkscape:connector-curvature="0"
         style="opacity:1;fill:#ffffff" />
      <path
         id="path238"
         d="m 474.2,571.29 c 13.2,0 26.39,0 39.6,0 -0.01,1.82 -0.01,3.64 0,5.47 -4.89,0.83 -9.81,-0.22 -14.73,0.04 -8.29,0.28 -16.59,-0.09 -24.88,0 -0.01,-1.84 0,-3.68 0.01,-5.51 z"
         inkscape:connector-curvature="0"
         style="opacity:1;fill:#ffffff" />
      <path
         id="path240"
         d="m 519.68,571.33 c 15.89,-0.07 31.78,-0.06 47.67,-0.01 0,1.8 0.02,3.61 0.04,5.42 -4.13,0.11 -8.26,0.08 -12.39,0.08 -4.67,-0.02 -9.33,-0.02 -14,0 -7.09,-0.01 -14.19,-0.01 -21.28,-0.01 -0.02,-1.84 -0.03,-3.67 -0.04,-5.48 z"
         inkscape:connector-curvature="0"
         style="opacity:1;fill:#ffffff" />
      <path
         id="path242"
         d="m 484.45,583.35 c 10.5,-1.14 21.11,-0.37 31.65,-0.5 -7.01,4.81 -12.55,11.74 -15.17,19.87 -5.27,0.96 -10.6,-0.39 -15.88,0.41 -8.13,-0.34 -16.25,-0.17 -24.37,0.06 0.81,-3.13 2.42,-6 4.5,-8.44 3.5,-0.27 5.67,5.39 9.38,3.66 4.37,-2.53 8.94,-4.78 13.02,-7.76 1.31,-2.96 -1.41,-5.29 -3.13,-7.3 z"
         inkscape:connector-curvature="0"
         style="opacity:1;fill:#ffffff" />
      <path
         id="path244"
         d="m 531.14,583.34 c 11.15,-1.17 22.41,-0.29 33.6,-0.53 0.05,6.65 -0.01,13.3 0.04,19.96 -9.58,0.91 -19.19,-0.64 -28.76,0.45 -5.34,-0.47 -10.69,0.16 -16.02,-0.34 -4.35,0.3 -8.71,0.41 -13.03,-0.25 1.51,-2.86 3.14,-5.66 4.98,-8.33 2.48,1.25 4.61,3.05 6.97,4.5 2.16,0.25 3.87,-1.38 5.67,-2.3 3.29,-2.15 7.1,-3.57 9.98,-6.29 0.62,-2.88 -1.96,-4.78 -3.43,-6.87 z"
         inkscape:connector-curvature="0"
         style="opacity:1;fill:#ffffff" />
      <path
         id="path246"
         d="m 632.14,612.76 c 9,-9.23 17.8,-18.63 26.81,-27.85 7.78,0.01 15.56,-0.1 23.34,0.07 -4.22,4.9 -8.13,10.14 -12.77,14.65 -6.9,4.39 -13.81,8.79 -20.84,12.97 -5.5,0.42 -11.03,0.04 -16.54,0.16 z"
         inkscape:connector-curvature="0"
         style="opacity:1;fill:#ffffff" />
      <path
         id="path248"
         d="m 689.17,586.04 c 1.06,-1.58 3.19,-1.04 4.81,-1.17 9.74,0.21 19.5,-0.33 29.23,0.32 -0.09,9.18 0,18.36 -0.05,27.54 -4.59,0.06 -9.17,0.03 -13.75,0.03 -0.01,-5.71 0.03,-11.42 -0.03,-17.13 -1.56,-1.15 -3.8,-2.01 -5.26,-0.19 -6.25,5.64 -12.22,11.6 -18.42,17.3 -6.43,0.04 -12.85,0.05 -19.26,-0.02 7.62,-8.85 15.16,-17.78 22.73,-26.68 z"
         inkscape:connector-curvature="0"
         style="opacity:1;fill:#ffffff" />
      <path
         id="path250"
         d="m 468.51,589.33 c 1.53,-1.31 3.04,-2.65 4.52,-4.01 2.72,0.66 5.49,1.25 7.99,2.55 -2.5,1.58 -5.08,3.04 -7.71,4.38 -1.58,-1.02 -3.18,-1.98 -4.8,-2.92 z"
         inkscape:connector-curvature="0"
         style="opacity:1;fill:#ffffff" />
      <path
         id="path252"
         d="m 516.28,590.02 c 2.96,-2.3 6.67,-5.28 10.44,-2.76 -0.03,0.31 -0.09,0.95 -0.12,1.27 -2.12,1.37 -4.37,2.51 -6.52,3.82 -1.25,-0.8 -2.53,-1.58 -3.8,-2.33 z"
         inkscape:connector-curvature="0"
         style="opacity:1;fill:#ffffff" />
      <path
         id="path254"
         d="m 458.87,608.73 c 13.53,-0.01 27.06,0.01 40.59,0 -0.04,0.77 -0.12,2.31 -0.15,3.09 -13.58,0.06 -27.16,-0.02 -40.74,0.04 0.08,-0.78 0.22,-2.35 0.3,-3.13 z"
         inkscape:connector-curvature="0"
         style="opacity:1;fill:#ffffff" />
      <path
         id="path256"
         d="m 505.13,611.81 c 0.14,-1.04 0.29,-2.07 0.45,-3.09 19.7,0.03 39.41,0 59.11,0.01 0.03,0.78 0.07,2.33 0.1,3.1 -19.89,0 -39.77,0.04 -59.66,-0.02 z"
         inkscape:connector-curvature="0"
         style="opacity:1;fill:#ffffff" />
    </g>
  </g>
</svg>
