<?xml version="1.0" encoding="UTF-8" standalone="no"?>
<!-- Generator: Adobe Illustrator 19.0.0, SVG Export Plug-In . SVG Version: 6.00 Build 0)  -->

<svg
   xmlns:dc="http://purl.org/dc/elements/1.1/"
   xmlns:cc="http://creativecommons.org/ns#"
   xmlns:rdf="http://www.w3.org/1999/02/22-rdf-syntax-ns#"
   xmlns:svg="http://www.w3.org/2000/svg"
   xmlns="http://www.w3.org/2000/svg"
   xmlns:sodipodi="http://sodipodi.sourceforge.net/DTD/sodipodi-0.dtd"
   xmlns:inkscape="http://www.inkscape.org/namespaces/inkscape"
   version="1.1"
   id="Layer_2"
   x="0px"
   y="0px"
   viewBox="163 59.9 728 562.32642"
   xml:space="preserve"
   inkscape:version="0.91 r13725"
   sodipodi:docname="invite.svg"
   width="728"
   height="562.32642"><metadata
     id="metadata369"><rdf:RDF><cc:Work
         rdf:about=""><dc:format>image/svg+xml</dc:format><dc:type
           rdf:resource="http://purl.org/dc/dcmitype/StillImage" /><dc:title></dc:title></cc:Work></rdf:RDF></metadata><defs
     id="defs367" /><sodipodi:namedview
     pagecolor="#ffffff"
     bordercolor="#666666"
     borderopacity="1"
     objecttolerance="10"
     gridtolerance="10"
     guidetolerance="10"
     inkscape:pageopacity="0"
     inkscape:pageshadow="2"
     inkscape:window-width="1920"
     inkscape:window-height="1021"
     id="namedview365"
     showgrid="false"
     fit-margin-top="0"
     fit-margin-left="0"
     fit-margin-right="0"
     fit-margin-bottom="0"
     inkscape:zoom="0.31778742"
     inkscape:cx="-49.904437"
     inkscape:cy="281.2"
     inkscape:window-x="0"
     inkscape:window-y="0"
     inkscape:window-maximized="1"
     inkscape:current-layer="Layer_2" /><style
     type="text/css"
     id="style3">
	.st0{fill:#FFFFFF;}
	.st1{fill:#040404;}
	.st2{fill:none;}
	.st3{fill:none;stroke:#312B80;stroke-width:4;stroke-linecap:round;stroke-linejoin:round;stroke-miterlimit:10;}
</style><path
     class="st0"
     d="m 232.1,279.32644 -0.5,-15.4 -30.8,-16.9 -5.3,-5 -6.3,-6 -6.5,-12.3 0,-16.1 0,-15.9 1.8,-9.8 4.9,-5.7 3.9,-5 7.5,-9.3 c 0,0 8.2,-8 11,-8.5 2.8,-0.5 9.5,-4.8 9.5,-4.8 l 3.2,-2.3 0,-6.5 1.3,-2.7 1.3,-2.9 10.6,0 6.8,0 0,-16.3 -7.1,-2.9 -5.3,-2.7 -0.5,-6.9 0,-6.399998 c 0,0 1.1,-5.4 3.1,-6 2,-0.7 9.8,-7.7 9.8,-7.7 l 3.6,-4.3 8.5,-2 4.1,2 2.5,6.4 c 0,0 0.2,0.9 0,4.4 -0.2,3.5 -1.3,8.499998 -2.5,9.999998 -1.2,1.5 -2.1,0.7 -3.1,3.6 -1,2.9 -2.2,5.2 -3.3,6.9 -1.1,1.7 -6.3,8.7 -6.3,8.7 l 0,6.8 0,6.5 16,0 6.1,0 -2.4,8.3 0,6.2 11.7,6.5 6.6,8.4 8.4,6.2 12.6,10.7 4,9.9 c 0,0 -0.2,8.7 1.4,11.2 1.6,2.4 2,8.1 2,8.1 l -2,13.3 -5.4,9.1 c 0,0 -5.9,11 -7.7,12.3 -1.8,1.3 -17.8,10.7 -17.8,10.7 l -5.9,5.8 -5.6,1.2 0,5.1 0,8.3 0,5.9 -37.9,-2.2 z"
     id="path5"
     inkscape:connector-curvature="0"
     style="fill:#ffffff" /><path
     class="st1"
     d="m 302.5,169.22644 c -3.4,-3.7 -7.6,-6.5 -10.9,-10.4 -5.6,-6.1 -12.7,-10.4 -20.2,-13.7 0,-4 0.3,-8 0,-12 0,-1 -0.7,-2.1 -1.8,-2.3 -6.4,-1 -13.1,0.6 -19.5,-0.9 0.2,-3.4 0,-6.7 0.2,-10.1 0.2,-1.2 1.6,-1.5 2.4,-2.2 8.6,-5.1 14.4,-14.5 14.7,-24.499998 -0.1,-7.1 -3.6,-14.9 -10.5,-17.7 -1.7,-0.6 -3.8,-1.9 -5.4,-0.7 -3.8,2.6 -7.4,5.5 -10.4,9 -0.8,0.6 -1.5,2.1 -2.7,1.6 -2.4,-1.3 -3.9,-3.8 -6.5,-4.7 -2.3,-0.5 -4.3,1.8 -3.6,4 1.5,2.6 4,4.3 6.3,6.1 -1.6,3.6 -4.3,6.6 -6,10.199998 -1.9,3.3 -2.9,7 -3.8,10.8 3.3,6.9 11.1,9.8 18.4,9.5 0,2.9 0,5.7 0.1,8.6 -5.9,1.4 -12,0.2 -18.1,0.6 -1,0.3 -3.1,0 -3.1,1.5 -0.6,4.1 -0.2,8.3 -0.3,12.4 -9.3,4.2 -18,10.1 -24.5,18.1 -3.5,4.2 -7.7,7.8 -11.3,11.9 -5.7,9.2 -7,20.4 -6.9,31 -0.2,7.3 0.9,14.7 2.9,21.7 1.2,4 2.8,8.1 6,10.9 3,2.5 5.2,6 8.7,8 1.7,1 3.4,2.2 4.8,3.6 6.2,6 13.6,10.9 21.7,13.9 -2.1,4.3 0.6,9 -0.9,13.3 0,2.1 0.1,4.1 0.3,6.2 0.1,0 0.2,0 0.3,0 1.7,1.7 3.7,3.6 6.3,3.4 12.7,0 25.3,0 38,0 2.6,0.3 4.6,-1.6 6.2,-3.4 l 0,0 0,-6.1 c 0,-0.5 0.1,-1 0.2,-1.4 -0.2,-0.5 -0.4,-1.1 -0.6,-1.6 1.4,-3.8 1.3,-8.1 -0.9,-11.6 6.3,-2.6 11.9,-6.6 17,-10.9 3.9,-2.9 8.4,-5.1 11.9,-8.6 9.8,-10.2 15.6,-24.2 15.7,-38.4 -0.5,-12.7 -5.4,-25.5 -14.2,-35.1 z M 251.3,82.926442 c -1.2,2.7 -2.7,5.3 -4.2,7.9 -0.3,0.2 -0.8,0.7 -1,0.9 -0.8,-0.5 -1.7,-1.1 -2.5,-1.6 2.4,-2.5 4.6,-5.4 7.7,-7.2 z m -19.2,24.799998 c 0.6,-1.1 1.2,-2.2 1.8,-3.3 1.6,-3 3.3,-5.999998 5.5,-8.599998 1.2,-0.5 2.1,1.2 3.1,1.6 -2.9,2.899998 -5.2,6.499998 -8.5,8.999998 -0.6,0.4 -1.3,0.8 -1.9,1.3 z m 5.3,7.2 c -0.7,-0.3 -2,-1 -2.7,-1.3 9.2,-7 16.2,-16.599998 21.5,-26.899998 0.5,-1.3 1.1,-2.5 1.6,-3.7 4.2,5.1 4.5,12.6 1.6,18.399998 -3.6,8.4 -12.5,15.2 -22,13.5 z m -8.5,22.2 c 11.8,-0.1 23.5,0 35.3,0 0,1.8 0,3.6 -0.1,5.4 -6.1,-1 -12.1,-2.7 -18.3,-2.4 -5.8,-0.3 -11.3,1.5 -17,2.3 0.1,-1.9 0.1,-3.6 0.1,-5.3 z m -3.4,12.9 c 0.9,-0.4 1.8,-0.7 2.7,-1.1 8.9,-3.1 18.4,-3 27.7,-2.2 l 0.1,1.7 c -6.4,1.6 -12.8,3.6 -18.4,7.2 -1.3,0.7 -2.8,2.1 -4.2,0.9 -3.4,-2.3 -7.1,-4 -10.8,-5.7 1,-0.2 1.9,-0.5 2.9,-0.8 z m -28.8,85.9 c -5.4,0.9 -7.4,-5 -9.3,-8.8 1.7,1.8 3.9,3.3 6.6,3.1 4.4,-3 6.8,-8.6 6.1,-13.8 -5,-0.2 -9.9,0 -14.9,0 -1.2,-11.3 -1,-23.2 2.9,-34 1.3,-3.1 2.9,-7.1 6.7,-7.6 3.6,0.1 5.2,3.9 6.8,6.7 1,2.9 1.9,5.7 2.4,8.7 l 0.4,0.5 c 1.6,11.1 1.8,22.5 -1.1,33.4 -1.2,4.3 -3,8.8 -6.6,11.8 z m -8.7,-15 c 3.1,-0.1 6.3,-0.1 9.4,0 -1.3,1.9 -2.7,4.8 -5.5,4.5 -2,-0.8 -3.2,-2.6 -3.9,-4.5 z m 10.8,19.8 c 7.2,-4.4 9.3,-13.2 10.8,-20.9 2.1,-12.9 1.6,-26.4 -2.5,-38.9 -1.7,-4.2 -3.9,-8.9 -8.3,-10.8 0.8,-0.4 1.6,-0.8 2.4,-1.3 0.8,0 2.4,0 3.1,0 5.5,2.7 7.4,8.9 9.3,14.2 3.8,14.9 3.9,30.9 -0.5,45.7 -1.8,5.3 -4.3,11.9 -10.6,13.1 -1.2,-0.3 -2.4,-0.7 -3.7,-1.1 z m 69.1,40.1 c -13.1,0 -26.3,0 -39.4,0 -0.1,-1.4 -0.1,-2.7 -0.1,-4.1 13.2,-0.1 26.4,-0.1 39.6,0 0,1.4 -0.1,2.7 -0.1,4.1 z m -39.5,-13.8 c 4.6,-0.1 9.2,0.1 13.7,0.8 5.6,0.8 11.2,-0.7 16.8,-0.8 3,-0.1 6.1,0 9.1,0 0,1.3 0,2.5 0,3.8 -13.2,0.1 -26.4,0 -39.5,0 -0.1,-1 -0.1,-2.9 -0.1,-3.8 z m 43.5,-11.2 c -14.8,7.5 -33,8 -48.2,1.4 -6,-2.4 -11.3,-6.2 -16.4,-10.2 6.2,-3.8 10,-10.4 11.8,-17.3 4.3,-15.1 4.4,-31.3 0.7,-46.6 -2.1,-8.1 -5.8,-17.7 -14.6,-20.3 3.5,-2.8 6.6,-6.4 10.9,-8.1 5.8,1.6 11.4,4.2 16.2,7.7 1.2,1 3.1,1.3 4.3,0.3 5.5,-4.1 11.9,-7 18.6,-8.5 6.7,-1.4 13.7,-1.3 20.4,0 1.9,1 3.8,2.1 5.6,3.2 -8.3,-0.7 -16.8,1.7 -23.4,6.8 -5.2,3.9 -9,9.2 -12.2,14.8 -7.7,15.8 -7.9,35 -0.5,50.9 4.2,8.4 10.7,15.9 19.4,19.9 4.1,1.7 8.5,2.3 12.8,3.4 -1.9,0.9 -3.7,1.7 -5.4,2.6 z m 11.3,-9.4 c -8.7,1.7 -18.1,-1.3 -24.3,-7.5 -5.6,-5.2 -9,-12.3 -11.3,-19.5 -1.4,-6.7 -2.8,-13.6 -1.4,-20.4 1.2,-11.6 6.5,-23.3 16.1,-30.3 5.4,-4.1 12.5,-6 19.3,-5.1 -2.2,1.5 -4.9,1.6 -7.3,2.6 -8.3,3.2 -14.6,10.4 -18.3,18.3 -5.9,13 -5.8,28.4 0,41.4 4.3,8.9 11.6,16.9 21.5,19.2 2.4,1 5,0.8 7.5,0.3 -0.6,0.4 -1.4,0.8 -1.8,1 z m 24,-29.1 c -9.6,-0.1 -19.2,-0.1 -28.8,0.1 -0.8,1 -2.6,1.9 -1.9,3.5 2.9,7.4 10.5,13.2 18.7,12.7 1.9,-0.7 3.8,-1.3 5.7,-1.8 1.2,-0.9 2.3,-1.9 3.5,-2.8 -4.5,6.7 -12,12 -20.4,11.7 -6.8,0.2 -13.2,-3.4 -17.6,-8.3 -5.6,-6.4 -8.5,-14.7 -9.5,-23 -0.9,-12.1 2.6,-25.4 12,-33.6 5.7,-5.3 14.2,-7.5 21.6,-5 8.1,2.6 14.1,9.6 17.4,17.3 4,9.6 4.5,20.5 1.5,30.4 -0.8,-0.5 -1.5,-0.8 -2.2,-1.2 z m -3.9,5.5 c -2.2,1.9 -4.2,4.2 -7.1,4.9 -3.7,1.2 -7.7,-0.2 -10.7,-2.5 -0.8,-0.8 -1.6,-1.6 -2.4,-2.4 6.8,0.1 13.5,-0.1 20.2,0 z"
     id="path7"
     inkscape:connector-curvature="0"
     style="fill:#040404" /><path
     class="st1"
     d="m 289.4,187.52644 c 2.3,-1.3 5.6,-1.7 7.6,0.3 3.7,3 3.3,9.2 0.2,12.5 -2.6,1.4 -6.2,1.8 -8.4,-0.5 -2.8,-2.6 -3.1,-6.9 -1.3,-10.1 0.6,-0.8 1.2,-1.5 1.9,-2.2 z"
     id="path9"
     inkscape:connector-curvature="0"
     style="fill:#040404" /><path
     class="st1"
     d="m 189.8,191.42644 c 0.6,-1.4 1.7,-2.6 3.3,-2.3 2.9,2.3 2.5,6.5 2.1,9.8 -0.4,1.7 -1.8,4.5 -3.9,3 -0.4,-0.5 -1.2,-1.4 -1.6,-1.8 -0.3,-2.9 -0.7,-5.8 0.1,-8.7 z"
     id="path11"
     inkscape:connector-curvature="0"
     style="fill:#040404" /><g
     id="XMLID_1928_"
     transform="translate(-127,-79.873558)"><g
       id="XMLID_4062_"><line
         id="XMLID_3312_"
         class="st2"
         x1="432.5"
         y1="605.70001"
         x2="967.70001"
         y2="605.70001"
         style="fill:none" /><path
         id="XMLID_3313_"
         d="m 967.7,608.9 -535.1,0 c -1.7,0 -3.2,-1.2 -3.3,-2.9 -0.2,-1.9 1.3,-3.5 3.2,-3.5 l 535.1,0 c 1.7,0 3.2,1.2 3.4,2.9 0.1,1.9 -1.4,3.5 -3.3,3.5 z"
         inkscape:connector-curvature="0" /></g><g
       id="XMLID_1963_"><line
         id="XMLID_3309_"
         class="st2"
         x1="435.29999"
         y1="621.79999"
         x2="1014.8"
         y2="621.79999"
         style="fill:none" /><path
         id="XMLID_3311_"
         d="m 1014.8,625 -579.5,0 c -1.8,0 -3.2,-1.4 -3.2,-3.2 0,-1.8 1.4,-3.2 3.2,-3.2 l 579.5,0 c 1.8,0 3.2,1.4 3.2,3.2 0,1.8 -1.4,3.2 -3.2,3.2 z"
         inkscape:connector-curvature="0" /></g></g><g
     id="XMLID_3408_"
     transform="translate(-127,-79.873558)"><path
       id="XMLID_3409_"
       d="m 976.9,679.7 -202.3,0 c -1.8,0 -3.2,-1.4 -3.2,-3.2 0,-1.8 1.4,-3.2 3.2,-3.2 l 202.2,0 c 1.8,0 3.2,1.4 3.2,3.2 0,1.8 -1.3,3.2 -3.1,3.2 z"
       inkscape:connector-curvature="0" /></g><g
     id="XMLID_4019_"
     transform="translate(-127,-79.873558)"><g
       id="XMLID_4045_"><path
         id="XMLID_3330_"
         class="st0"
         d="m 704.2,681.7 0,-108.5 -26.3,0 0,98.9 c 11.1,4.5 14.8,6.1 26.3,9.6 z"
         inkscape:connector-curvature="0"
         style="fill:#ffffff" /></g><g
       id="XMLID_4047_"><path
         id="XMLID_3329_"
         d="m 681.2,679.3 0,-102.8 19.8,0 0,118.8 c 0,4.6 6.4,4.4 6.4,-0.3 l 0,-121.8 c 0,-1.8 -1.4,-3.2 -3.2,-3.2 l -26.3,0 c -1.8,0 -3.2,1.4 -3.2,3.2 l 0,106.5 c 0,4.2 6.5,4.2 6.5,-0.4 z"
         inkscape:connector-curvature="0" /></g></g><g
     id="XMLID_3961_"
     transform="translate(-127,-79.873558)"><g
       id="XMLID_3965_"><path
         id="XMLID_3966_"
         class="st0"
         d="m 500.9,683.5 0,-108.9 -26.3,0 0,99.2 c 11.2,4.6 18.1,7 26.3,9.7 z"
         inkscape:connector-curvature="0"
         style="fill:#ffffff" /></g><g
       id="XMLID_3962_"><path
         id="XMLID_3963_"
         d="m 477.8,678.8 0,-101 19.9,0 0,110.3 c 0,3.5 6.4,3.7 6.4,0.2 l 0,-113.7 c 0,-1.8 -1.4,-3.2 -3.2,-3.2 l -26.3,0 c -1.8,0 -3.2,1.4 -3.2,3.2 l 0,104.7 c 0,3.3 6.4,2.8 6.4,-0.5 z"
         inkscape:connector-curvature="0" /></g></g><g
     id="XMLID_4017_"
     transform="translate(-127,-79.873558)"><path
       id="XMLID_3305_"
       class="st0"
       d="m 667,210.9 -176,0 c -16.1,0 -29.3,14.1 -29.3,31.4 l 0,53.5 c 0,16.3 11.7,29.7 26.5,31.2 l 0,26.1 35.7,-25.9 143.1,0 c 16.1,0 29.3,-14.1 29.3,-31.4 l 0,-53.5 C 696.2,225 683.1,210.9 667,210.9 Z"
       inkscape:connector-curvature="0"
       style="fill:#ffffff" /><path
       id="XMLID_3306_"
       d="m 488.2,356.3 c -0.5,0 -1,-0.1 -1.5,-0.4 -1.1,-0.5 -1.8,-1.7 -1.8,-2.9 l 0,-23.3 c -15.1,-3 -26.5,-17.4 -26.5,-34 l 0,-53.5 c 0,-19.1 14.6,-34.6 32.5,-34.6 l 176.1,0 c 17.9,0 32.5,15.5 32.5,34.6 l 0,53.5 c 0,19.1 -14.6,34.6 -32.5,34.6 l -142,0 -34.9,25.4 c -0.5,0.4 -1.2,0.6 -1.9,0.6 z M 491,214.1 c -14.4,0 -26.1,12.6 -26.1,28.2 l 0,53.5 c 0,14.4 10.4,26.7 23.6,28 1.6,0.2 2.9,1.5 2.9,3.2 l 0,19.8 30.5,-22.2 c 0.6,-0.4 1.2,-0.6 1.9,-0.6 l 143.2,0 c 14.4,0 26.1,-12.6 26.1,-28.2 l 0,-53.5 c 0,-15.5 -11.7,-28.2 -26.1,-28.2 l -176,0 0,0 z"
       inkscape:connector-curvature="0" /></g><g
     id="XMLID_3941_"
     transform="translate(-127,-79.873558)"><g
       id="XMLID_3944_"><polyline
         id="XMLID_3946_"
         class="st0"
         points="401.6,535.3 765,535.3 765,573.1 403.4,573.1   "
         style="fill:#ffffff" /><path
         id="XMLID_3945_"
         d="m 765,576.3 -361.6,0 c -1.8,0 -3.2,-1.4 -3.2,-3.2 0,-1.8 1.4,-3.2 3.2,-3.2 l 358.4,0 0,-31.4 -360.2,0 c -1.8,0 -3.2,-1.4 -3.2,-3.2 0,-1.8 1.4,-3.2 3.2,-3.2 l 363.4,0 c 1.8,0 3.2,1.4 3.2,3.2 l 0,37.8 c 0.1,1.8 -1.4,3.2 -3.2,3.2 z"
         inkscape:connector-curvature="0" /></g><g
       id="XMLID_3942_"><path
         id="XMLID_3943_"
         d="m 765,557 -363.4,0 c -1.8,0 -3.2,-1.4 -3.2,-3.2 0,-1.8 1.4,-3.2 3.2,-3.2 l 363.4,0 c 1.8,0 3.2,1.4 3.2,3.2 0,1.8 -1.4,3.2 -3.2,3.2 z"
         inkscape:connector-curvature="0" /></g></g><g
     id="XMLID_3237_"
     transform="translate(-127,-79.873558)"><g
       id="XMLID_3982_"><rect
         id="XMLID_3290_"
         x="398.29999"
         y="497.89999"
         transform="matrix(0.01492764,0.9999,-0.9999,0.01492764,947.9602,69.9879)"
         class="st0"
         width="80.300003"
         height="36.400002"
         style="fill:#ffffff" /><path
         id="XMLID_3293_"
         d="m 419.6,559.6 c -1.1,-0.5 -1.9,-1.6 -2,-2.9 l -1.2,-80.3 c 0,-1.8 1.4,-3.2 3.2,-3.3 l 36.4,-0.5 c 0.9,0 1.7,0.3 2.3,0.9 0.6,0.6 1,1.4 1,2.3 l 1.2,80.3 c 0,0.9 -0.3,1.7 -0.9,2.3 -0.6,0.6 -1.4,1 -2.3,1 l -36.4,0.5 c -0.4,0 -0.9,-0.1 -1.3,-0.3 z m 3.3,-80.1 1.1,73.9 29.9,-0.4 -1.1,-73.9 -29.9,0.4 z"
         inkscape:connector-curvature="0" /></g><g
       id="XMLID_3981_"><path
         id="XMLID_3292_"
         d="m 441.5,547.6 c -1.1,-0.5 -1.9,-1.6 -2,-2.9 L 439,518 c -0.1,-4 1.5,-7.9 4.4,-10.6 2.8,-2.7 6.5,-4.1 10.3,-3.9 l 0.3,0 c 1.8,0.1 3.1,1.6 3,3.4 -0.1,1.8 -1.6,3.1 -3.4,3 l -0.1,0 c -2.1,-0.1 -4,0.7 -5.5,2.1 -1.6,1.5 -2.5,3.7 -2.4,5.9 l 0.5,26.7 c 0,1.8 -1.4,3.2 -3.2,3.3 -0.5,0 -1,-0.1 -1.4,-0.3 z"
         inkscape:connector-curvature="0" /></g><g
       id="XMLID_3979_"><path
         id="XMLID_3291_"
         d="m 419.5,548.3 c -1.1,-0.5 -1.9,-1.6 -2,-2.9 -0.1,-1.8 1.3,-3.3 3.1,-3.3 l 35.7,-1.1 c 1.8,-0.1 3.3,1.3 3.3,3.1 0.1,1.8 -1.3,3.3 -3.1,3.3 l -35.7,1.1 c -0.5,0.1 -0.9,0 -1.3,-0.2 z"
         inkscape:connector-curvature="0" /></g><g
       id="XMLID_3978_"><path
         id="XMLID_3256_"
         class="st0"
         d="m 443.6,611.7 -13.6,0.4 c 0,0 -4,-36.6 -1.6,-55.6 L 445,556 c 0,0 11.3,11.7 12.1,39.6 l -8.8,0.2 -6.3,-21.9 1.6,37.8 z"
         inkscape:connector-curvature="0"
         style="fill:#ffffff" /><path
         id="XMLID_3287_"
         d="m 429.4,615 c -1,-0.4 -1.8,-1.4 -1.9,-2.6 -0.2,-1.5 -3.8,-37.2 -1.3,-56.3 0.2,-1.6 1.5,-2.8 3.1,-2.8 l 16.6,-0.4 c 0.9,0 1.8,0.3 2.4,1 0.5,0.5 12.1,12.9 12.8,41.8 0,1.8 -1.4,3.3 -3.1,3.3 l -8.8,0.2 c -0.8,0 -1.5,-0.2 -2.1,-0.7 l 0.5,13.2 c 0,0.9 -0.3,1.7 -0.9,2.3 -0.6,0.6 -1.4,1 -2.3,1 l -13.6,0.3 c -0.6,0 -1,-0.1 -1.4,-0.3 z m 2.8,-55.4 c -1.4,15.6 0.6,40.6 1.4,49.1 l 7.4,-0.2 -1.3,-34.5 c -0.1,-1.6 1.1,-3 2.7,-3.3 1.6,-0.3 3.2,0.7 3.6,2.3 l 5.5,19.5 3,-0.1 c -1.1,-19.6 -7.7,-30.1 -10.1,-33.2 l -12.2,0.4 z"
         inkscape:connector-curvature="0" /></g><g
       id="XMLID_3285_"><path
         id="XMLID_3247_"
         class="st0"
         d="m 415.5,442.6 -0.1,-55.3 c 0,-10.4 8.4,-18.8 18.8,-18.9 l 0,0 c 10.4,0 18.8,8.4 18.9,18.8 l 0.1,55.3 c 0,5.5 -4.5,10 -10,10 l -17.7,0 c -5.5,0.1 -9.9,-4.4 -10,-9.9 z"
         inkscape:connector-curvature="0"
         style="fill:#ffffff" /><path
         id="XMLID_3249_"
         d="m 456.7,456.2 c -0.1,0 -0.3,0 -0.4,0 l -37.7,0.1 c -1.8,0 -3.2,-1.4 -3.2,-3.2 l -0.1,-68.5 c 0,-10.4 8.4,-18.9 18.8,-18.9 l 6.3,0 c 5,0 9.8,1.9 13.4,5.5 3.6,3.6 5.5,8.3 5.5,13.3 l 0.1,68.5 c 0,0.9 -0.3,1.7 -0.9,2.3 -0.5,0.5 -1.1,0.9 -1.8,0.9 z m -34.9,-6.3 31.2,0 -0.1,-65.3 c 0,-3.3 -1.3,-6.4 -3.7,-8.8 -2.4,-2.3 -5.5,-3.6 -8.8,-3.6 l -6.3,0 c -6.9,0 -12.4,5.6 -12.4,12.5 l 0.1,65.2 z"
         inkscape:connector-curvature="0" /></g><g
       id="XMLID_3261_"><path
         id="XMLID_3248_"
         d="m 435.3,456.4 c -0.1,0 -0.3,0 -0.4,0 -1.8,-0.2 -3,-1.9 -2.8,-3.6 l 5.4,-39.8 c 0.5,-4 2.8,-7.7 6.1,-10.1 3.3,-2.3 7.5,-3.2 11.5,-2.4 1.7,0.4 2.9,2.1 2.5,3.8 -0.4,1.7 -2.1,2.9 -3.8,2.5 -2.3,-0.5 -4.6,0 -6.5,1.3 -1.9,1.3 -3.1,3.4 -3.4,5.7 l -5.4,39.8 c -0.2,1.7 -1.6,2.8 -3.2,2.8 z"
         inkscape:connector-curvature="0" /></g><g
       id="XMLID_3238_"><path
         id="XMLID_3242_"
         class="st0"
         d="m 451.1,479.1 c 9.1,-6.6 11.3,-19.2 5,-28.1 -6.3,-8.9 -18.8,-10.8 -27.8,-4.2 -9.1,6.6 -11.3,19.2 -5,28.1 6.3,8.9 18.7,10.8 27.8,4.2 z"
         inkscape:connector-curvature="0"
         style="fill:#ffffff" /><path
         id="XMLID_3243_"
         d="m 439.1,486.3 c -1.3,0 -2.5,-0.1 -3.8,-0.3 -6,-1 -11.2,-4.2 -14.7,-9.2 -7.3,-10.3 -4.7,-24.9 5.8,-32.6 5.2,-3.8 11.5,-5.3 17.7,-4.3 6,1 11.2,4.2 14.7,9.2 7.3,10.3 4.7,24.9 -5.8,32.6 -4.2,3 -9,4.6 -13.9,4.6 z m 1.2,-40.2 c -3.6,0 -7.1,1.1 -10.1,3.3 -7.7,5.6 -9.6,16.2 -4.3,23.7 2.5,3.5 6.2,5.8 10.5,6.5 4.5,0.7 9,-0.4 12.8,-3.1 7.7,-5.6 9.6,-16.2 4.3,-23.7 -2.5,-3.5 -6.2,-5.8 -10.5,-6.5 -0.9,-0.1 -1.8,-0.2 -2.7,-0.2 z"
         inkscape:connector-curvature="0" /></g></g><g
     id="XMLID_3862_"
     transform="translate(-127,-79.873558)"><g
       id="XMLID_3896_"><path
         id="XMLID_3900_"
         class="st0"
         d="m 439.7,372.4 c 5.5,6.8 8.4,15.2 8.4,23.9 l -0.3,94 c 0,14.7 -11.9,26.7 -26.7,26.7 L 320,517 c -14.7,0 -26.7,-11.9 -26.7,-26.7 l 0,-92.6 c 0,-9.9 3.9,-19.4 10.8,-26.4 l 1.6,-1.6 c 7.1,-7.2 16.8,-11.3 26.9,-11.3 l 77.8,0 c 11.4,0 22.1,5.1 29.3,14 l 0,0 z"
         inkscape:connector-curvature="0"
         style="fill:#ffffff" /><path
         id="XMLID_3897_"
         d="m 421.1,520.1 -101.1,0 c -16.5,0 -29.9,-13.4 -29.9,-29.9 l 0,-92.5 c 0,-10.8 4.2,-21 11.7,-28.7 l 1.6,-1.6 c 7.7,-7.8 18.3,-12.3 29.2,-12.3 l 77.8,0 c 12.4,0 24,5.5 31.8,15.2 5.9,7.3 9.2,16.5 9.1,25.9 l -0.3,94 c 0,16.5 -13.4,29.9 -29.9,29.9 z M 332.6,361.6 c -9.2,0 -18.2,3.8 -24.6,10.3 l -1.6,1.6 c -6.4,6.5 -9.9,15.1 -9.9,24.2 l 0,92.5 c 0,12.9 10.5,23.5 23.5,23.5 l 101.1,0 c 12.9,0 23.5,-10.5 23.5,-23.5 l 0.3,-94 c 0,-7.9 -2.7,-15.7 -7.7,-21.8 l 0,0 c -6.6,-8.1 -16.4,-12.8 -26.8,-12.8 l -77.8,0 0,0 z"
         inkscape:connector-curvature="0" /></g><g
       id="XMLID_3893_"><polyline
         id="XMLID_3895_"
         class="st0"
         points="351.5,358.8 385.3,388.5 408.8,358.4   "
         style="fill:#ffffff" /><path
         id="XMLID_3894_"
         d="m 385.3,391.8 c -0.8,0 -1.5,-0.3 -2.1,-0.8 l -33.8,-29.7 c -1.3,-1.2 -1.5,-3.2 -0.3,-4.5 1.2,-1.3 3.2,-1.5 4.5,-0.3 l 31.3,27.5 21.4,-27.4 c 1.1,-1.4 3.1,-1.7 4.5,-0.6 1.4,1.1 1.7,3.1 0.6,4.5 l -23.5,30.1 c -0.5,0.7 -1.4,1.1 -2.2,1.2 -0.2,0 -0.3,0 -0.4,0 z"
         inkscape:connector-curvature="0" /></g><g
       id="XMLID_3888_"><path
         id="XMLID_3892_"
         class="st0"
         d="m 293.3,468.7 37.3,0 0,30.8 -33.6,0 c -2.1,0 -3.7,-1.7 -3.7,-3.7 l 0,-27.1 0,0 z"
         inkscape:connector-curvature="0"
         style="fill:#ffffff" /><path
         id="XMLID_3889_"
         d="m 330.6,502.7 -31.3,0 c -5.1,0 -9.2,-4.1 -9.2,-9.2 l 0,-24.8 c 0,-1.8 1.4,-3.2 3.2,-3.2 l 37.3,0 c 1.8,0 3.2,1.4 3.2,3.2 l 0,30.8 c 0,1.8 -1.4,3.2 -3.2,3.2 z m -34.1,-30.8 0,21.6 c 0,1.5 1.2,2.8 2.8,2.8 l 28.1,0 0,-24.4 -30.9,0 z"
         inkscape:connector-curvature="0" /></g><g
       id="XMLID_3883_"><rect
         id="XMLID_3887_"
         x="303"
         y="468.70001"
         class="st0"
         width="27.6"
         height="30.799999"
         style="fill:#ffffff" /><path
         id="XMLID_3884_"
         d="m 330.6,502.7 -27.6,0 c -1.8,0 -3.2,-1.4 -3.2,-3.2 l 0,-30.8 c 0,-1.8 1.4,-3.2 3.2,-3.2 l 27.6,0 c 1.8,0 3.2,1.4 3.2,3.2 l 0,30.8 c 0,1.8 -1.4,3.2 -3.2,3.2 z m -24.4,-6.4 21.2,0 0,-24.4 -21.2,0 0,24.4 z"
         inkscape:connector-curvature="0" /></g><g
       id="XMLID_3873_"><g
         id="XMLID_3880_"><line
           id="XMLID_3882_"
           class="st2"
           x1="349.70001"
           y1="454.5"
           x2="426.79999"
           y2="454.5"
           style="fill:none" /><path
           id="XMLID_3881_"
           d="m 426.8,457.7 -77.1,0 c -1.8,0 -3.2,-1.4 -3.2,-3.2 0,-1.8 1.4,-3.2 3.2,-3.2 l 77.1,0 c 1.8,0 3.2,1.4 3.2,3.2 0,1.8 -1.5,3.2 -3.2,3.2 z"
           inkscape:connector-curvature="0" /></g><g
         id="XMLID_3877_"><line
           id="XMLID_3879_"
           class="st2"
           x1="349.70001"
           y1="443"
           x2="426.79999"
           y2="443"
           style="fill:none" /><path
           id="XMLID_3878_"
           d="m 426.8,446.2 -77.1,0 c -1.8,0 -3.2,-1.4 -3.2,-3.2 0,-1.8 1.4,-3.2 3.2,-3.2 l 77.1,0 c 1.8,0 3.2,1.4 3.2,3.2 0,1.8 -1.5,3.2 -3.2,3.2 z"
           inkscape:connector-curvature="0" /></g><g
         id="XMLID_3874_"><line
           id="XMLID_3876_"
           class="st2"
           x1="349.70001"
           y1="431.5"
           x2="426.79999"
           y2="431.5"
           style="fill:none" /><path
           id="XMLID_3875_"
           d="m 426.8,434.7 -77.1,0 c -1.8,0 -3.2,-1.4 -3.2,-3.2 0,-1.8 1.4,-3.2 3.2,-3.2 l 77.1,0 c 1.8,0 3.2,1.4 3.2,3.2 0,1.8 -1.5,3.2 -3.2,3.2 z"
           inkscape:connector-curvature="0" /></g></g><g
       id="XMLID_3863_"><g
         id="XMLID_3869_"><path
           id="XMLID_3870_"
           d="m 423.8,414.2 -66.5,0 c -1.8,0 -3.2,-1.4 -3.2,-3.2 l 0,-13.3 c 0,-1.8 1.4,-3.2 3.2,-3.2 l 58.3,0 c 9.2,0 10.7,10.4 11.4,16 0.1,0.9 -0.2,1.9 -0.8,2.6 -0.6,0.6 -1.5,1.1 -2.4,1.1 z m -63.3,-6.5 59.5,0 c -1.1,-5.6 -2.5,-6.8 -4.4,-6.8 l -55.1,0 0,6.8 z"
           inkscape:connector-curvature="0" /></g><g
         id="XMLID_3867_"><path
           id="XMLID_3868_"
           d="m 420,424.5 -62.7,0 c -1.8,0 -3.2,-1.4 -3.2,-3.2 l 0,-10.4 c 0,-1.8 1.4,-3.2 3.2,-3.2 1.8,0 3.2,1.4 3.2,3.2 l 0,7.2 56.3,0 0,-7.2 c 0,-1.8 1.4,-3.2 3.2,-3.2 1.8,0 3.2,1.4 3.2,3.2 l 0,10.4 c 0,1.8 -1.4,3.2 -3.2,3.2 z"
           inkscape:connector-curvature="0" /></g><g
         id="XMLID_3864_"><path
           id="XMLID_3866_"
           class="st0"
           d="m 358.6,398.3 5,0 c 3.2,0 6,3.1 6.7,7.6 l 0.6,3.8"
           inkscape:connector-curvature="0"
           style="fill:#ffffff" /><path
           id="XMLID_3865_"
           d="m 370.8,412.9 c -1.6,0 -2.9,-1.1 -3.2,-2.7 l -0.6,-3.8 c -0.5,-3 -2.1,-4.8 -3.5,-4.8 l -5,0 c -1.8,0 -3.2,-1.4 -3.2,-3.2 0,-1.8 1.4,-3.2 3.2,-3.2 l 5,0 c 4.9,0 8.9,4.2 9.9,10.3 l 0.6,3.8 c 0.3,1.8 -0.9,3.4 -2.7,3.7 -0.2,-0.1 -0.3,-0.1 -0.5,-0.1 z"
           inkscape:connector-curvature="0" /></g></g></g><g
     id="XMLID_4016_"
     transform="translate(-127,-79.873558)"><path
       id="XMLID_3166_"
       d="m 638.6,235 -119.2,0 c -1.8,0 -3.2,-1.4 -3.2,-3.2 0,-1.8 1.4,-3.2 3.2,-3.2 l 119.2,0 c 1.8,0 3.2,1.4 3.2,3.2 0,1.8 -1.4,3.2 -3.2,3.2 z"
       inkscape:connector-curvature="0" /></g><g
     id="XMLID_3810_"
     transform="translate(-127,-79.873558)"><g
       id="XMLID_3811_"><path
         id="XMLID_3812_"
         d="m 353.6,351.9 c -0.4,0 -0.8,0.4 -0.8,0.8 l 0,1.7 c 0,0.4 0.4,0.8 0.8,0.8 l 37.3,0 c 0.4,0 0.8,-0.4 0.8,-0.8 l 0,-1.7 c 0,-0.4 -0.4,-0.8 -0.8,-0.8 l -37.3,0 z"
         inkscape:connector-curvature="0" /></g></g><g
     id="XMLID_2062_"
     transform="translate(-127,-79.873558)"><g
       id="XMLID_3970_"><path
         id="XMLID_3153_"
         class="st0"
         d="m 428.9,526.7 -116.8,0 c -1.4,0 -2.5,-1.1 -2.5,-2.5 l 0,-4.7 c 0,-1.4 1.1,-2.5 2.5,-2.5 l 116.8,0 c 1.4,0 2.5,1.1 2.5,2.5 l 0,4.7 c 0,1.3 -1.1,2.5 -2.5,2.5 z"
         inkscape:connector-curvature="0"
         style="fill:#ffffff" /><path
         id="XMLID_3154_"
         d="m 427.4,529.9 -113.7,0 c -4,0 -7.2,-3.2 -7.2,-7.2 l 0,-1.7 c 0,-4 3.2,-7.2 7.2,-7.2 l 113.7,0 c 4,0 7.2,3.2 7.2,7.2 l 0,1.7 c 0,3.9 -3.2,7.2 -7.2,7.2 z m -113.7,-9.8 c -0.4,0 -0.8,0.4 -0.8,0.8 l 0,1.7 c 0,0.4 0.4,0.8 0.8,0.8 l 113.7,0 c 0.4,0 0.8,-0.4 0.8,-0.8 l 0,-1.7 c 0,-0.4 -0.4,-0.8 -0.8,-0.8 l -113.7,0 z"
         inkscape:connector-curvature="0" /></g><g
       id="XMLID_3969_"><path
         id="XMLID_3149_"
         class="st0"
         d="m 428.9,536.4 -116.8,0 c -1.4,0 -2.5,-1.1 -2.5,-2.5 l 0,-4.7 c 0,-1.4 1.1,-2.5 2.5,-2.5 l 116.8,0 c 1.4,0 2.5,1.1 2.5,2.5 l 0,4.7 c 0,1.4 -1.1,2.5 -2.5,2.5 z"
         inkscape:connector-curvature="0"
         style="fill:#ffffff" /><path
         id="XMLID_3150_"
         d="m 427.4,539.6 -113.7,0 c -4,0 -7.2,-3.2 -7.2,-7.2 l 0,-1.7 c 0,-4 3.2,-7.2 7.2,-7.2 l 113.7,0 c 4,0 7.2,3.2 7.2,7.2 l 0,1.7 c 0,4 -3.2,7.2 -7.2,7.2 z m -113.7,-9.7 c -0.4,0 -0.8,0.4 -0.8,0.8 l 0,1.7 c 0,0.4 0.4,0.8 0.8,0.8 l 113.7,0 c 0.4,0 0.8,-0.4 0.8,-0.8 l 0,-1.7 c 0,-0.4 -0.4,-0.8 -0.8,-0.8 l -113.7,0 z"
         inkscape:connector-curvature="0" /></g></g><polygon
     id="XMLID_1599_"
     class="st0"
     points="355.5,586.1 355.5,690.9 306.2,672.3 306.5,586.1 "
     style="fill:#ffffff"
     transform="translate(-127,-79.873558)" /><polygon
     id="XMLID_1602_"
     class="st0"
     points="433.8,588.9 384.3,589.9 382.3,669 433.4,685.4 "
     style="fill:#ffffff"
     transform="translate(-127,-79.873558)" /><polygon
     id="XMLID_2031_"
     class="st0"
     points="827.3,338.1 824.3,356.3 826,419 936.4,419 936.4,351.5 911.8,327.2 902.6,327.2 900.8,302.8 870.4,309.7 868.7,327.1 845.5,327.2 "
     style="fill:#ffffff"
     transform="translate(-127,-79.873558)" /><g
     id="XMLID_2063_"
     transform="translate(-127,-79.873558)"><g
       id="XMLID_1625_"><polyline
         id="XMLID_3145_"
         class="st0"
         points="355.5,667.1 336.2,667.1 336.2,613.5 355.5,613.5   "
         style="fill:#ffffff" /><path
         id="XMLID_3146_"
         d="m 355.5,670.3 -19.3,0 c -1.8,0 -3.2,-1.4 -3.2,-3.2 l 0,-53.6 c 0,-1.8 1.4,-3.2 3.2,-3.2 l 19.3,0 c 1.8,0 3.2,1.4 3.2,3.2 0,1.8 -1.4,3.2 -3.2,3.2 l -16.1,0 0,47.2 16.1,0 c 1.8,0 3.2,1.4 3.2,3.2 0,1.8 -1.4,3.2 -3.2,3.2 z"
         inkscape:connector-curvature="0" /></g><g
       id="XMLID_3968_"><line
         id="XMLID_3143_"
         class="st2"
         x1="306.5"
         y1="586.09998"
         x2="306.5"
         y2="679.40002"
         style="fill:none" /><path
         id="XMLID_3144_"
         d="m 306.5,682.6 c -1.8,0 -3.2,-1.4 -3.2,-3.2 l 0,-93.3 c 0,-1.8 1.4,-3.2 3.2,-3.2 1.8,0 3.2,1.4 3.2,3.2 l 0,93.3 c 0,1.8 -1.4,3.2 -3.2,3.2 z"
         inkscape:connector-curvature="0" /></g><g
       id="XMLID_3967_"><line
         id="XMLID_3141_"
         class="st2"
         x1="355.5"
         y1="586.09998"
         x2="355.5"
         y2="698.90002"
         style="fill:none" /><path
         id="XMLID_3142_"
         d="m 355.5,702.1 c -1.8,0 -3.2,-1.4 -3.2,-3.2 l 0,-112.8 c 0,-1.8 1.4,-3.2 3.2,-3.2 1.8,0 3.2,1.4 3.2,3.2 l 0,112.8 c 0,1.7 -1.4,3.2 -3.2,3.2 z"
         inkscape:connector-curvature="0" /></g><g
       id="XMLID_3964_"><line
         id="XMLID_3139_"
         class="st2"
         x1="306.5"
         y1="597.70001"
         x2="355.5"
         y2="597.70001"
         style="fill:none" /><path
         id="XMLID_3140_"
         d="m 355.5,600.9 -49,0 c -1.8,0 -3.2,-1.4 -3.2,-3.2 0,-1.8 1.4,-3.2 3.2,-3.2 l 49,0 c 1.8,0 3.2,1.4 3.2,3.2 0,1.8 -1.4,3.2 -3.2,3.2 z"
         inkscape:connector-curvature="0" /></g></g><g
     id="XMLID_3161_"
     transform="translate(-127,-79.873558)"><g
       id="XMLID_3787_"><line
         id="XMLID_3791_"
         class="st2"
         x1="432"
         y1="586.09998"
         x2="432"
         y2="683.90002"
         style="fill:none" /><path
         id="XMLID_3790_"
         d="m 432,687.1 c -1.8,0 -3.2,-1.4 -3.2,-3.2 l 0,-97.8 c 0,-1.8 1.4,-3.2 3.2,-3.2 1.8,0 3.2,1.4 3.2,3.2 l 0,97.8 c 0,1.7 -1.5,3.2 -3.2,3.2 z"
         inkscape:connector-curvature="0" /></g><g
       id="XMLID_3762_"><g
         id="XMLID_3769_"><path
           id="XMLID_3770_"
           d="m 431.5,670.3 -19.3,0 c -1.8,0 -3.2,-1.4 -3.2,-3.2 l 0,-53.6 c 0,-1.8 1.4,-3.2 3.2,-3.2 l 19.3,0 c 1.8,0 3.2,1.4 3.2,3.2 0,1.8 -1.4,3.2 -3.2,3.2 l -16.1,0 0,47.2 16.1,0 c 1.8,0 3.2,1.4 3.2,3.2 0,1.8 -1.4,3.2 -3.2,3.2 z"
           inkscape:connector-curvature="0" /></g><g
         id="XMLID_3766_"><line
           id="XMLID_3768_"
           class="st2"
           x1="382.89999"
           y1="586.09998"
           x2="382.89999"
           y2="688.29999"
           style="fill:none" /><path
           id="XMLID_3767_"
           d="m 382.9,691.5 c -1.8,0 -3.2,-1.4 -3.2,-3.2 l 0,-102.2 c 0,-1.8 1.4,-3.2 3.2,-3.2 1.8,0 3.2,1.4 3.2,3.2 l 0,102.2 c 0,1.7 -1.4,3.2 -3.2,3.2 z"
           inkscape:connector-curvature="0" /></g><g
         id="XMLID_3763_"><line
           id="XMLID_3765_"
           class="st2"
           x1="384.10001"
           y1="597.70001"
           x2="432"
           y2="597.70001"
           style="fill:none" /><path
           id="XMLID_3764_"
           d="m 432,600.9 -47.8,0 c -1.8,0 -3.2,-1.4 -3.2,-3.2 0,-1.8 1.4,-3.2 3.2,-3.2 l 47.8,0 c 1.8,0 3.2,1.4 3.2,3.2 0,1.8 -1.5,3.2 -3.2,3.2 z"
           inkscape:connector-curvature="0" /></g></g></g><g
     id="XMLID_3953_"
     transform="translate(-127,-79.873558)"><g
       id="XMLID_3958_"><path
         id="XMLID_3056_"
         d="m 431.4,502.7 -81.7,0 c -1.8,0 -3.2,-1.4 -3.2,-3.2 l 0,-30.8 c 0,-1.8 1.4,-3.2 3.2,-3.2 l 81.7,0 c 1.8,0 3.2,1.4 3.2,3.2 l 0,30.8 c 0,1.8 -1.4,3.2 -3.2,3.2 z m -78.5,-6.4 75.3,0 0,-24.4 -75.3,0 0,24.4 0,0 z"
         inkscape:connector-curvature="0" /></g><g
       id="XMLID_3957_"><path
         id="XMLID_3053_"
         d="m 409.1,492.7 c -4.3,0 -7.9,-3.5 -7.9,-7.9 0,-4.4 3.5,-7.9 7.9,-7.9 4.3,0 7.9,3.5 7.9,7.9 0,4.4 -3.5,7.9 -7.9,7.9 z m 0,-9.2 c -0.8,0 -1.4,0.6 -1.4,1.4 0,0.8 0.6,1.4 1.4,1.4 0.8,0 1.4,-0.6 1.4,-1.4 0,-0.8 -0.6,-1.4 -1.4,-1.4 z"
         inkscape:connector-curvature="0" /></g><g
       id="XMLID_3956_"><path
         id="XMLID_3022_"
         d="m 385.3,492.7 c -4.3,0 -7.9,-3.5 -7.9,-7.9 0,-4.4 3.5,-7.9 7.9,-7.9 4.3,0 7.9,3.5 7.9,7.9 0,4.4 -3.6,7.9 -7.9,7.9 z m 0,-9.2 c -0.8,0 -1.4,0.6 -1.4,1.4 0,0.8 0.6,1.4 1.4,1.4 0.8,0 1.4,-0.6 1.4,-1.4 0,-0.8 -0.6,-1.4 -1.4,-1.4 z"
         inkscape:connector-curvature="0" /></g><g
       id="XMLID_3955_"><path
         id="XMLID_3019_"
         d="m 361.5,492.7 c -4.3,0 -7.9,-3.5 -7.9,-7.9 0,-4.4 3.5,-7.9 7.9,-7.9 4.4,0 7.9,3.5 7.9,7.9 0,4.4 -3.6,7.9 -7.9,7.9 z m 0,-9.2 c -0.8,0 -1.4,0.6 -1.4,1.4 0,0.8 0.6,1.4 1.4,1.4 0.8,0 1.4,-0.6 1.4,-1.4 0,-0.8 -0.6,-1.4 -1.4,-1.4 z"
         inkscape:connector-curvature="0" /></g><g
       id="XMLID_3954_"><path
         id="XMLID_3018_"
         d="m 421.9,502.7 c -1.8,0 -3.2,-1.4 -3.2,-3.2 l 0,-30.8 c 0,-1.8 1.4,-3.2 3.2,-3.2 1.8,0 3.2,1.4 3.2,3.2 l 0,30.8 c 0,1.8 -1.4,3.2 -3.2,3.2 z"
         inkscape:connector-curvature="0" /></g></g><g
     id="XMLID_3717_"
     transform="translate(-127,-79.873558)"><g
       id="XMLID_3725_"><path
         id="XMLID_3729_"
         class="st0"
         d="m 429.4,586.1 -117.9,0 c -10.1,0 -18.3,-8.2 -18.3,-18.3 l 0,-23.9 c 0,-4.1 3.3,-7.4 7.4,-7.4 l 139.7,0 c 4.1,0 7.4,3.3 7.4,7.4 l 0,23.9 c 0,10.1 -8.2,18.3 -18.3,18.3 z"
         inkscape:connector-curvature="0"
         style="fill:#ffffff" /><path
         id="XMLID_3726_"
         d="m 430.2,589.3 -119.4,0 C 299.3,589.3 290,580 290,568.5 l 0,-32.1 c 0,-1.8 1.4,-3.2 3.2,-3.2 l 154.5,0 c 1.8,0 3.2,1.4 3.2,3.2 l 0,32.1 c 0.1,11.5 -9.3,20.8 -20.7,20.8 z m -133.8,-49.6 0,28.9 c 0,7.9 6.4,14.3 14.3,14.3 l 119.4,0 c 7.9,0 14.3,-6.4 14.3,-14.3 l 0,-28.9 -148,0 z"
         inkscape:connector-curvature="0" /></g><g
       id="XMLID_3722_"><line
         id="XMLID_3724_"
         class="st2"
         x1="293.20001"
         y1="545.79999"
         x2="447.70001"
         y2="545.79999"
         style="fill:none" /><path
         id="XMLID_3723_"
         d="m 447.7,549 -154.5,0 c -1.8,0 -3.2,-1.4 -3.2,-3.2 0,-1.8 1.4,-3.2 3.2,-3.2 l 154.5,0 c 1.8,0 3.2,1.4 3.2,3.2 0,1.8 -1.4,3.2 -3.2,3.2 z"
         inkscape:connector-curvature="0" /></g><g
       id="XMLID_3720_"><path
         id="XMLID_3721_"
         d="m 345,589.3 c -1.8,0 -3.2,-1.4 -3.2,-3.2 0,-1.8 1.4,-3.2 3.2,-3.2 3.5,0 6.2,-1.1 8.3,-3.3 3.3,-3.5 4.5,-9.3 4.8,-13.3 l -32.9,0 c -0.9,11.6 -6.9,23 -18.8,23 -1.8,0 -3.2,-1.4 -3.2,-3.2 0,-1.8 1.4,-3.2 3.2,-3.2 9.9,0 12.5,-12.9 12.5,-19.8 0,-1.8 1.4,-3.2 3.2,-3.2 l 39.3,0 c 1.7,0 3.1,1.4 3.2,3.1 0,0.5 0.5,13.5 -6.7,21.1 -3.2,3.5 -7.6,5.2 -12.9,5.2 z"
         inkscape:connector-curvature="0" /></g><g
       id="XMLID_3718_"><path
         id="XMLID_3719_"
         d="m 420.7,589.3 c -1.8,0 -3.2,-1.4 -3.2,-3.2 0,-1.8 1.4,-3.2 3.2,-3.2 3.5,0 6.2,-1.1 8.3,-3.3 3.3,-3.5 4.5,-9.3 4.8,-13.3 l -32.9,0 c -0.9,11.6 -6.9,23 -18.8,23 -1.8,0 -3.2,-1.4 -3.2,-3.2 0,-1.8 1.4,-3.2 3.2,-3.2 9.9,0 12.5,-12.9 12.5,-19.8 0,-1.8 1.4,-3.2 3.2,-3.2 l 39.3,0 c 1.7,0 3.1,1.4 3.2,3.1 0,0.5 0.5,13.5 -6.7,21.1 -3.3,3.5 -7.7,5.2 -12.9,5.2 z"
         inkscape:connector-curvature="0" /></g></g><g
     id="XMLID_3635_"
     transform="translate(-127,-79.873558)"><g
       id="XMLID_3646_"><polygon
         id="XMLID_3650_"
         class="st0"
         points="381.4,359.1 353.8,343.8 353.8,374.7 "
         style="fill:#ffffff" /><path
         id="XMLID_3647_"
         d="m 353.8,377.9 c -0.6,0 -1.1,-0.1 -1.6,-0.4 -1,-0.6 -1.6,-1.6 -1.6,-2.8 l 0,-30.9 c 0,-1.1 0.6,-2.2 1.6,-2.8 1,-0.6 2.2,-0.6 3.2,0 l 27.6,15.3 c 1,0.6 1.7,1.6 1.7,2.8 0,1.2 -0.6,2.2 -1.6,2.8 l -27.6,15.6 c -0.6,0.3 -1.1,0.4 -1.7,0.4 z m 3.3,-28.6 0,19.9 17.8,-10 -17.8,-9.9 z"
         inkscape:connector-curvature="0" /></g><g
       id="XMLID_3641_"><polygon
         id="XMLID_3645_"
         class="st0"
         points="387.8,359.4 415.4,374.7 415.4,343.8 "
         style="fill:#ffffff" /><path
         id="XMLID_3642_"
         d="m 415.4,377.9 c -0.5,0 -1.1,-0.1 -1.6,-0.4 l -27.6,-15.3 c -1,-0.6 -1.7,-1.6 -1.7,-2.8 0,-1.2 0.6,-2.2 1.6,-2.8 L 413.7,341 c 1,-0.6 2.2,-0.6 3.2,0 1,0.6 1.6,1.6 1.6,2.8 l 0,30.9 c 0,1.1 -0.6,2.2 -1.6,2.8 -0.4,0.3 -1,0.4 -1.5,0.4 z m -21,-18.5 17.8,9.9 0,-19.9 -17.8,10 z"
         inkscape:connector-curvature="0" /></g><g
       id="XMLID_3636_"><circle
         id="XMLID_3640_"
         class="st0"
         cx="384.39999"
         cy="359.20001"
         r="9.6999998"
         style="fill:#ffffff" /><path
         id="XMLID_3637_"
         d="m 384.4,372.2 c -7.1,0 -12.9,-5.8 -12.9,-12.9 0,-7.1 5.8,-12.9 12.9,-12.9 7.1,0 12.9,5.8 12.9,12.9 0.1,7.1 -5.7,12.9 -12.9,12.9 z m 0,-19.4 c -3.6,0 -6.5,2.9 -6.5,6.5 0,3.6 2.9,6.5 6.5,6.5 3.6,0 6.5,-2.9 6.5,-6.5 0,-3.6 -2.9,-6.5 -6.5,-6.5 z"
         inkscape:connector-curvature="0" /></g></g><g
     id="XMLID_1290_"
     transform="translate(-127,-79.873558)"><g
       id="XMLID_3974_"><rect
         id="XMLID_2776_"
         x="305.39999"
         y="479.60001"
         transform="matrix(0.6145,0.7889,-0.7889,0.6145,525.9079,-80.7085)"
         class="st0"
         width="80.300003"
         height="36.400002"
         style="fill:#ffffff" /><path
         id="XMLID_2779_"
         d="m 355.9,543.9 c -1,0 -1.9,-0.4 -2.5,-1.2 L 304,479.3 c -0.5,-0.7 -0.8,-1.5 -0.7,-2.4 0.1,-0.8 0.5,-1.6 1.2,-2.1 l 28.7,-22.4 c 1.4,-1.1 3.4,-0.8 4.5,0.6 l 49.4,63.4 c 0.5,0.7 0.8,1.5 0.7,2.4 -0.1,0.8 -0.5,1.6 -1.2,2.1 l -28.7,22.4 c -0.6,0.4 -1.3,0.6 -2,0.6 z m -44.8,-66 45.4,58.3 23.6,-18.4 -45.4,-58.3 -23.6,18.4 z"
         inkscape:connector-curvature="0" /></g><g
       id="XMLID_3973_"><path
         id="XMLID_2778_"
         d="m 366.2,521.1 c -1,0 -1.9,-0.4 -2.5,-1.2 l -16.4,-21 c -2.5,-3.1 -3.5,-7.2 -2.9,-11.1 0.6,-3.9 2.7,-7.2 5.8,-9.3 1.5,-1 3.6,-0.7 4.6,0.8 1,1.5 0.7,3.4 -0.8,4.4 l -0.2,0.1 c -1.7,1.1 -2.8,2.9 -3.1,5 -0.3,2.2 0.3,4.4 1.6,6.2 l 16.4,21 c 1.1,1.4 0.9,3.4 -0.5,4.5 -0.6,0.4 -1.3,0.6 -2,0.6 z"
         inkscape:connector-curvature="0" /></g><g
       id="XMLID_3972_"><path
         id="XMLID_2777_"
         d="m 349,535 c -0.9,0 -1.9,-0.4 -2.5,-1.2 -1.1,-1.4 -0.9,-3.4 0.5,-4.5 l 27.8,-22.4 c 1.4,-1.1 3.4,-0.9 4.5,0.5 1.1,1.4 0.9,3.4 -0.5,4.5 L 351,534.3 c -0.6,0.5 -1.3,0.7 -2,0.7 z"
         inkscape:connector-curvature="0" /></g><g
       id="XMLID_3971_"><path
         id="XMLID_2770_"
         class="st0"
         d="m 407.8,570.6 -10.7,8.5 c 0,0 -25.1,-26.9 -34.6,-43.5 l 13,-10.3 c 0,0 16,2.6 33.4,24.4 l -6.9,5.5 -18.1,-13.8 23.9,29.2 z"
         inkscape:connector-curvature="0"
         style="fill:#ffffff" /><path
         id="XMLID_2771_"
         d="m 397.1,582.3 c -0.9,0 -1.7,-0.3 -2.4,-1 -1,-1.1 -25.5,-27.4 -35,-44.1 -0.8,-1.4 -0.4,-3.1 0.8,-4.1 l 13,-10.3 c 0.7,-0.6 1.6,-0.8 2.5,-0.7 0.7,0.1 17.5,3 35.4,25.6 1.1,1.4 0.9,3.4 -0.5,4.5 l -6.9,5.5 c -0.6,0.5 -1.4,0.7 -2.1,0.7 l 8.3,10.2 c 0.5,0.7 0.8,1.5 0.7,2.4 -0.1,0.9 -0.5,1.6 -1.2,2.2 l -10.7,8.5 c -0.5,0.3 -1.2,0.6 -1.9,0.6 z m -30.4,-46 c 8.3,13.3 24.9,32.1 30.7,38.4 l 5.8,-4.6 -21.8,-26.7 c -1,-1.3 -1,-3.1 0.2,-4.3 1.1,-1.2 3,-1.3 4.3,-0.3 l 16.2,12.3 2.3,-1.9 c -12.8,-15.1 -24.3,-19.4 -28,-20.5 l -9.7,7.6 z"
         inkscape:connector-curvature="0" /></g><g
       id="XMLID_3960_"><path
         id="XMLID_2563_"
         class="st0"
         d="m 301.3,453.1 -7.8,-74 c -0.6,-5.3 3.3,-10.1 8.7,-10.7 l 18.1,-1.9 c 5.3,-0.6 10.1,3.3 10.7,8.7 l 7.8,74 -37.5,3.9 z"
         inkscape:connector-curvature="0"
         style="fill:#ffffff" /><path
         id="XMLID_2767_"
         d="m 301.3,456.3 c -0.7,0 -1.4,-0.3 -2,-0.7 -0.7,-0.5 -1.1,-1.3 -1.2,-2.2 l -7.2,-68.1 c -1.1,-10.3 6.4,-19.7 16.8,-20.7 l 6.3,-0.7 c 10.4,-1.1 19.7,6.4 20.7,16.8 l 7.2,68.1 c 0.2,1.8 -1.1,3.4 -2.9,3.5 l -37.4,3.9 c -0.1,0.1 -0.2,0.1 -0.3,0.1 z M 316,370.2 c -0.4,0 -0.9,0 -1.3,0.1 l -6.3,0.7 c -6.8,0.7 -11.8,6.9 -11.1,13.7 l 6.8,64.9 31,-3.3 -6.8,-64.9 c -0.6,-6.4 -6,-11.2 -12.3,-11.2 z"
         inkscape:connector-curvature="0" /></g><g
       id="XMLID_3959_"><path
         id="XMLID_2564_"
         d="m 326.7,453.6 c -1.6,0 -3,-1.2 -3.2,-2.9 l -4.4,-39.9 c -0.4,-4.1 0.8,-8.1 3.5,-11.2 2.7,-3.1 6.5,-4.9 10.6,-5.1 1.8,-0.1 3.3,1.3 3.3,3.1 0.1,1.8 -1.3,3.3 -3.1,3.3 -2.3,0.1 -4.4,1.1 -6,2.9 -1.5,1.8 -2.2,4 -2,6.3 l 4.4,39.9 c 0.2,1.8 -1.1,3.4 -2.8,3.6 0,0 -0.1,0 -0.3,0 z"
         inkscape:connector-curvature="0" /></g><g
       id="XMLID_3952_"><path
         id="XMLID_2524_"
         class="st0"
         d="m 335.1,474.4 c 7.2,-8.6 6.4,-21.4 -1.9,-28.5 -8.3,-7.1 -20.8,-5.9 -28,2.7 -7.2,8.6 -6.4,21.4 1.9,28.5 8.3,7.1 20.8,5.9 28,-2.7 z"
         inkscape:connector-curvature="0"
         style="fill:#ffffff" /><path
         id="XMLID_2525_"
         d="m 319.6,484.9 c -5.4,0 -10.5,-1.9 -14.6,-5.4 -9.6,-8.3 -10.6,-23.1 -2.3,-33 4.1,-4.9 9.8,-7.9 16.1,-8.4 6.1,-0.5 11.9,1.4 16.5,5.4 9.6,8.3 10.6,23.1 2.3,33 l 0,0 c -4.1,4.9 -9.8,7.9 -16.1,8.4 -0.6,0 -1.3,0 -1.9,0 z m 1.1,-40.5 c -0.4,0 -0.9,0 -1.3,0.1 -4.5,0.4 -8.7,2.5 -11.7,6.1 -6.1,7.3 -5.4,18 1.6,24 3.3,2.8 7.4,4.2 11.8,3.8 4.5,-0.4 8.7,-2.5 11.7,-6.1 l 0,0 c 6.1,-7.3 5.4,-18 -1.6,-24 -3,-2.5 -6.7,-3.9 -10.5,-3.9 z"
         inkscape:connector-curvature="0" /></g></g><g
     id="XMLID_3567_"
     transform="translate(-127,-79.873558)"><g
       id="XMLID_3587_"><rect
         id="XMLID_3591_"
         x="535.5"
         y="486.70001"
         class="st0"
         width="119.4"
         height="48.099998"
         style="fill:#ffffff" /><path
         id="XMLID_3588_"
         d="m 654.9,538 -119.4,0 c -1.8,0 -3.2,-1.4 -3.2,-3.2 l 0,-48.1 c 0,-1.8 1.4,-3.2 3.2,-3.2 l 119.4,0 c 1.8,0 3.2,1.4 3.2,3.2 l 0,48 c 0,1.8 -1.5,3.3 -3.2,3.3 z m -116.2,-6.5 113,0 0,-41.6 -113,0 0,41.6 z"
         inkscape:connector-curvature="0" /></g><g
       id="XMLID_3582_"><rect
         id="XMLID_3586_"
         x="548.5"
         y="447.79999"
         class="st0"
         width="93.300003"
         height="38.700001"
         style="fill:#ffffff" /><path
         id="XMLID_3583_"
         d="m 641.8,489.7 -93.3,0 c -1.8,0 -3.2,-1.4 -3.2,-3.2 l 0,-38.7 c 0,-1.8 1.4,-3.2 3.2,-3.2 l 93.3,0 c 1.8,0 3.2,1.4 3.2,3.2 l 0,38.7 c 0,1.8 -1.4,3.2 -3.2,3.2 z m -90.1,-6.4 86.9,0 0,-32.2 -86.9,0 0,32.2 z"
         inkscape:connector-curvature="0" /></g><g
       id="XMLID_3577_"><rect
         id="XMLID_3581_"
         x="564.79999"
         y="413.29999"
         class="st0"
         width="60.799999"
         height="34"
         style="fill:#ffffff" /><path
         id="XMLID_3578_"
         d="m 625.6,450.5 -60.8,0 c -1.8,0 -3.2,-1.4 -3.2,-3.2 l 0,-34 c 0,-1.8 1.4,-3.2 3.2,-3.2 l 60.8,0 c 1.8,0 3.2,1.4 3.2,3.2 l 0,34 c 0,1.8 -1.5,3.2 -3.2,3.2 z m -57.6,-6.4 54.4,0 0,-27.5 -54.4,0 0,27.5 z"
         inkscape:connector-curvature="0" /></g><g
       id="XMLID_3574_"><line
         id="XMLID_3576_"
         class="st2"
         x1="535.40002"
         y1="524.59998"
         x2="653.59998"
         y2="524.59998"
         style="fill:none" /><path
         id="XMLID_3575_"
         d="m 653.6,527.9 -118.2,0 c -1.8,0 -3.2,-1.4 -3.2,-3.2 0,-1.8 1.4,-3.2 3.2,-3.2 l 118.2,0 c 1.8,0 3.2,1.4 3.2,3.2 0,1.8 -1.4,3.2 -3.2,3.2 z"
         inkscape:connector-curvature="0" /></g><g
       id="XMLID_3571_"><line
         id="XMLID_3573_"
         class="st2"
         x1="548.5"
         y1="477.39999"
         x2="640.40002"
         y2="477.39999"
         style="fill:none" /><path
         id="XMLID_3572_"
         d="m 640.4,480.7 -91.8,0 c -1.8,0 -3.2,-1.4 -3.2,-3.2 0,-1.8 1.4,-3.2 3.2,-3.2 l 91.8,0 c 1.8,0 3.2,1.4 3.2,3.2 0,1.8 -1.5,3.2 -3.2,3.2 z"
         inkscape:connector-curvature="0" /></g><g
       id="XMLID_3568_"><line
         id="XMLID_3570_"
         class="st2"
         x1="565.79999"
         y1="438.10001"
         x2="625.59998"
         y2="438.10001"
         style="fill:none" /><path
         id="XMLID_3569_"
         d="m 625.6,441.3 -59.7,0 c -1.8,0 -3.2,-1.4 -3.2,-3.2 0,-1.8 1.4,-3.2 3.2,-3.2 l 59.7,0 c 1.8,0 3.2,1.4 3.2,3.2 0,1.8 -1.5,3.2 -3.2,3.2 z"
         inkscape:connector-curvature="0" /></g></g><g
     id="XMLID_1241_"
     transform="translate(-127,-79.873558)"><g
       id="XMLID_4024_"><path
         id="XMLID_3318_"
         d="m 544.6,507.9 c -3.5,0 -5.4,-2 -6.7,-3.3 -1.1,-1.1 -1.5,-1.5 -2.5,-1.5 l 0,0 c -1.6,0 -2.9,-1.3 -2.9,-2.9 0,-1.6 1.3,-2.9 2.9,-2.9 l 0,0 c 3.5,0 5.4,2 6.7,3.3 1.1,1.1 1.5,1.5 2.5,1.5 l 0,0 c 1,0 1.4,-0.4 2.5,-1.5 1.3,-1.3 3.1,-3.3 6.7,-3.3 l 0,0 c 3.5,0 5.4,2 6.7,3.3 1.1,1.1 1.5,1.5 2.5,1.5 l 0,0 c 1,0 1.4,-0.4 2.5,-1.5 1.3,-1.3 3.1,-3.3 6.7,-3.3 l 0,0 c 3.5,0 5.4,2 6.7,3.3 1.1,1.1 1.5,1.5 2.5,1.5 l 0,0 c 1,0 1.4,-0.4 2.5,-1.5 1.3,-1.3 3.1,-3.3 6.7,-3.3 l 0,0 c 3.5,0 5.4,2 6.7,3.3 1.1,1.1 1.5,1.5 2.5,1.5 1.1,0 1.4,-0.4 2.5,-1.5 1.3,-1.3 3.1,-3.3 6.7,-3.3 l 0,0 c 3.5,0 5.4,2 6.7,3.3 1.1,1.1 1.5,1.5 2.5,1.5 l 0,0 c 1,0 1.4,-0.4 2.5,-1.5 1.3,-1.3 3.1,-3.3 6.7,-3.3 l 0,0 c 3.5,0 5.4,2 6.7,3.3 1.1,1.1 1.5,1.5 2.5,1.5 l 0,0 c 1,0 1.4,-0.4 2.5,-1.5 1.3,-1.3 3.1,-3.3 6.7,-3.3 l 0,0 c 3.5,0 5.4,2 6.7,3.3 1.1,1.1 1.5,1.5 2.5,1.5 l 0,0 c 1.6,0 2.9,1.3 2.9,2.9 0,1.6 -1.3,2.9 -2.9,2.9 l 0,0 c -3.5,0 -5.4,-2 -6.7,-3.3 -1.1,-1.1 -1.5,-1.5 -2.5,-1.5 -1,0 -1.4,0.4 -2.5,1.5 -1.3,1.3 -3.1,3.3 -6.7,3.3 l 0,0 c -3.5,0 -5.4,-2 -6.7,-3.3 -1.1,-1.1 -1.5,-1.5 -2.5,-1.5 -1,0.1 -1.4,0.4 -2.5,1.5 -1.3,1.3 -3.1,3.3 -6.7,3.3 l 0,0 c -3.5,0 -5.4,-2 -6.7,-3.3 -1.1,-1.1 -1.5,-1.5 -2.5,-1.5 l 0,0 c -1,0 -1.4,0.4 -2.5,1.5 -1.3,1.3 -3.1,3.3 -6.7,3.3 l 0,0 c -3.5,0 -5.4,-2 -6.7,-3.3 -1.1,-1.1 -1.5,-1.5 -2.5,-1.5 l 0,0 c -1,0 -1.4,0.4 -2.5,1.5 -1.3,1.3 -3.1,3.3 -6.7,3.3 l 0,0 c -3.5,0 -5.4,-2 -6.7,-3.3 -1.1,-1.1 -1.5,-1.5 -2.5,-1.5 l 0,0 c -1,0 -1.4,0.4 -2.5,1.5 -1.3,1.3 -3.1,3.3 -6.7,3.3 l 0,0 c -3.5,0 -5.4,-2 -6.7,-3.3 -1.1,-1.1 -1.5,-1.5 -2.5,-1.5 l 0,0 c -1,0 -1.4,0.4 -2.5,1.5 -1.3,1.4 -3.2,3.3 -6.7,3.3 l 0,0 z"
         inkscape:connector-curvature="0" /></g></g><g
     id="XMLID_3536_"
     transform="translate(-127,-79.873558)"><g
       id="XMLID_3537_"><path
         id="XMLID_3538_"
         d="m 640.6,468.7 c 0.4,-2.6 0.6,-5.2 0.7,-7.8 -1,0.6 -1.8,1.4 -2.4,2.1 -1.1,1.1 -1.5,1.5 -2.5,1.5 l 0,0 c -1,0 -1.4,-0.4 -2.5,-1.5 -1.3,-1.3 -3.1,-3.3 -6.7,-3.3 l 0,0 c -3.5,0 -5.4,2 -6.7,3.3 -1.1,1.1 -1.5,1.5 -2.5,1.5 l 0,0 c -1,0 -1.4,-0.4 -2.5,-1.5 -1.3,-1.3 -3.1,-3.3 -6.7,-3.3 l 0,0 c -3.5,0 -5.4,2 -6.7,3.3 -1.1,1.1 -1.5,1.5 -2.5,1.5 l 0,0 c -1,0 -1.4,-0.4 -2.5,-1.5 -1.3,-1.3 -3.1,-3.3 -6.7,-3.3 l 0,0 c -3.5,0 -5.4,2 -6.7,3.3 -1.1,1.1 -1.5,1.5 -2.5,1.5 l 0,0 c -1,0 -1.4,-0.4 -2.5,-1.5 -1.3,-1.3 -3.1,-3.3 -6.7,-3.3 l 0,0 c -3.5,0 -5.4,2 -6.7,3.3 -1.1,1.1 -1.5,1.5 -2.5,1.5 l 0,0 c -1,0 -1.4,-0.4 -2.5,-1.5 -1.3,-1.3 -3.1,-3.3 -6.7,-3.3 l 0,0 c -1.9,0 -3.3,0.6 -4.5,1.3 -0.1,0.4 -0.2,0.8 -0.3,1.2 -0.3,1.2 -0.5,2.3 -0.8,3.5 -0.1,0.7 -0.7,4.2 -0.3,1.5 -0.1,0.9 -0.3,1.8 -0.6,2.6 1.8,-0.7 3,-1.9 3.9,-2.8 1.1,-1.1 1.5,-1.5 2.5,-1.5 l 0,0 c 1,0 1.4,0.4 2.5,1.5 1.3,1.3 3.1,3.3 6.7,3.3 l 0,0 c 3.5,0 5.4,-2 6.7,-3.3 1.1,-1.1 1.5,-1.5 2.5,-1.5 l 0,0 c 1,0 1.4,0.4 2.5,1.5 1.3,1.3 3.1,3.3 6.7,3.3 l 0,0 c 3.5,0 5.4,-2 6.7,-3.3 1.1,-1.1 1.5,-1.5 2.5,-1.5 1,0 1.4,0.4 2.5,1.5 1.3,1.3 3.1,3.3 6.7,3.3 l 0,0 c 3.5,0 5.4,-2 6.7,-3.3 1.1,-1.1 1.5,-1.5 2.5,-1.5 l 0,0 c 1,0 1.4,0.4 2.5,1.5 1.3,1.3 3.1,3.3 6.7,3.3 l 0,0 c 3.5,0 5.4,-2 6.7,-3.3 1.1,-1.1 1.5,-1.5 2.5,-1.5 1,0 1.4,0.4 2.5,1.5 1.3,1.3 3.1,3.3 6.7,3.3 l 0,0 c 1.7,0 3.1,-0.5 4.2,-1.1 0.1,-0.2 0.1,-0.4 0.1,-0.5 z"
         inkscape:connector-curvature="0" /></g></g><g
     id="XMLID_1213_"
     transform="translate(-127,-79.873558)"><g
       id="XMLID_4101_"><path
         id="XMLID_3316_"
         d="m 623.4,423.1 c -1.3,0.7 -2.2,1.6 -2.9,2.4 -1.1,1.1 -1.5,1.5 -2.5,1.5 l 0,0 c -1,0 -1.4,-0.4 -2.5,-1.5 -1.3,-1.3 -3.1,-3.3 -6.7,-3.3 l 0,0 c -3.5,0 -5.4,2 -6.7,3.3 -1.1,1.1 -1.5,1.5 -2.5,1.5 l 0,0 c -1,0 -1.4,-0.4 -2.5,-1.5 -1.3,-1.3 -3.1,-3.3 -6.7,-3.3 l 0,0 c -3.5,0 -5.4,2 -6.7,3.3 -1.1,1.1 -1.5,1.5 -2.5,1.5 l 0,0 c -1,0 -1.4,-0.4 -2.5,-1.5 -1.3,-1.3 -3.1,-3.3 -6.7,-3.3 l 0,0 c -3.5,0 -5.4,2 -6.7,3.3 -0.5,0.5 -0.9,0.9 -1.2,1.1 0.9,1.7 1.3,3.6 1.4,5.7 1.9,-0.7 3.1,-1.9 4,-2.8 1.1,-1.1 1.5,-1.5 2.5,-1.5 l 0,0 c 1,0 1.4,0.4 2.5,1.5 1.3,1.3 3.1,3.3 6.7,3.3 l 0,0 c 3.5,0 5.4,-2 6.7,-3.3 1.1,-1.1 1.5,-1.5 2.5,-1.5 l 0,0 c 1,0 1.4,0.4 2.5,1.5 1.3,1.3 3.1,3.3 6.7,3.3 l 0,0 c 3.5,0 5.4,-2 6.7,-3.3 1.1,-1.1 1.5,-1.5 2.5,-1.5 l 0,0 c 1,0 1.4,0.4 2.5,1.5 1.3,1.3 3.1,3.3 6.7,3.3 l 0,0 c 2.7,0 4.4,-1.1 5.6,-2.2 -0.3,-2.5 -0.3,-5.1 -0.2,-7.5 z"
         inkscape:connector-curvature="0" /></g></g><g
     id="XMLID_3525_"
     transform="translate(-127,-79.873558)"><path
       id="XMLID_3529_"
       class="st0"
       d="m 594.3,389.1 -0.1,-0.2 c -2.2,-3.3 -6.8,-4.1 -9.8,-1.5 -2.6,2.2 -3.6,6 -1.5,9.5 L 594.3,413.4 606,396 c 1.5,-2.8 1,-5.8 -0.7,-7.9 -2.9,-3.8 -8.8,-3.1 -11,1 l 0,0 z"
       inkscape:connector-curvature="0"
       style="fill:#ffffff" /><path
       id="XMLID_3526_"
       d="m 594.3,416.6 c -1.1,0 -2,-0.5 -2.6,-1.4 l -11.5,-16.5 c -2.9,-4.6 -2,-10.2 2,-13.7 2.1,-1.8 4.8,-2.6 7.6,-2.2 1.6,0.2 3.1,0.8 4.4,1.7 1.5,-1.1 3.3,-1.9 5.3,-2 3.3,-0.3 6.4,1.1 8.4,3.6 2.6,3.3 3,7.7 1,11.4 -0.1,0.1 -0.1,0.2 -0.2,0.3 L 597,415.1 c -0.6,0.9 -1.6,1.5 -2.7,1.5 l 0,0 z m -5.8,-27.5 c -0.6,0 -1.3,0.1 -2,0.7 -1.3,1.1 -2.2,3.1 -0.9,5.3 l 8.7,12.5 9,-13.4 c 1,-2.1 0,-3.7 -0.4,-4.3 -0.9,-1.2 -2.2,-1.2 -2.7,-1.1 -1.2,0.1 -2.3,0.8 -2.9,1.8 -0.5,1 -1.6,1.6 -2.7,1.7 -1.1,0 -2.2,-0.5 -2.8,-1.4 l -0.1,-0.2 c -0.6,-0.9 -1.5,-1.4 -2.5,-1.6 -0.4,0 -0.6,0 -0.7,0 z"
       inkscape:connector-curvature="0" /></g><g
     id="XMLID_1879_"
     transform="translate(-127,-79.873558)"><g
       id="XMLID_4080_"><polyline
         id="XMLID_2478_"
         class="st0"
         points="919.5,642.7 919.5,577.4 891.9,577.5 891.9,642.7   "
         style="fill:#ffffff" /><path
         id="XMLID_2479_"
         d="m 919.5,646 c -1.8,0 -3.2,-1.4 -3.2,-3.2 l 0,-62.1 -21.3,0.1 0,62 c 0,1.8 -1.4,3.2 -3.2,3.2 -1.8,0 -3.2,-1.4 -3.2,-3.2 l 0,-65.2 c 0,-1.8 1.4,-3.2 3.2,-3.2 l 27.7,-0.2 0,0 c 0.9,0 1.7,0.3 2.3,0.9 0.6,0.6 0.9,1.4 0.9,2.3 l 0,65.3 c 0.1,1.8 -1.4,3.3 -3.2,3.3 z"
         inkscape:connector-curvature="0" /></g><g
       id="XMLID_4079_"><polyline
         id="XMLID_2476_"
         class="st0"
         points="865.3,642.1 865.3,577.9 891.9,578 891.9,642.2   "
         style="fill:#ffffff" /><path
         id="XMLID_2477_"
         d="m 891.9,645.4 c -1.8,0 -3.2,-1.4 -3.2,-3.2 l 0,-61 -20.1,-0.1 0,60.9 c 0,1.8 -1.4,3.2 -3.2,3.2 -1.8,0 -3.2,-1.4 -3.2,-3.2 l 0,-64.2 c 0,-0.9 0.3,-1.7 0.9,-2.3 0.6,-0.6 1.4,-0.9 2.3,-0.9 l 0,0 26.6,0.1 c 1.8,0 3.2,1.4 3.2,3.2 l 0,64.3 c -0.1,1.8 -1.6,3.2 -3.3,3.2 z"
         inkscape:connector-curvature="0" /></g></g><g
     id="XMLID_3372_"
     transform="translate(-127,-79.873558)"><g
       id="XMLID_3389_"><path
         id="XMLID_3391_"
         class="st0"
         d="m 852.6,488.9 c -47.3,0 -67.7,20.2 -67.7,42.6 0,22.4 13.4,21.1 25.4,21.1 20.4,0 53.3,0 53.3,0"
         inkscape:connector-curvature="0"
         style="fill:#ffffff" /><path
         id="XMLID_3390_"
         d="m 806.8,555.9 c -6.8,0 -14.1,-0.4 -19.2,-5.5 -4,-4 -6,-10.2 -6,-18.9 0,-22.2 18.6,-45.8 70.9,-45.8 1.8,0 3.2,1.4 3.2,3.2 0,1.8 -1.4,3.2 -3.2,3.2 -47.5,0 -64.5,20.3 -64.5,39.4 0,6.9 1.3,11.6 4.1,14.3 3.7,3.6 9.8,3.6 16.4,3.6 l 1.8,0 53.3,0 c 1.8,0 3.2,1.4 3.2,3.2 0,1.8 -1.4,3.2 -3.2,3.2 l -55.1,0 c -0.5,0.1 -1.1,0.1 -1.7,0.1 z"
         inkscape:connector-curvature="0" /></g><g
       id="XMLID_3373_"><path
         id="XMLID_3385_"
         class="st0"
         d="m 840.7,467.9 c -6.3,0 -10.3,3 -13.4,7.6 -3.3,4.7 -5.2,10.3 -5.9,15.9 l -2.5,19.2 -15.4,0.1 7.3,-30.3 c 1.8,-7.3 5.8,-13.9 11.9,-18.3 4.8,-3.5 10.9,-5.8 18.1,-5.8 l -0.1,11.6 0,0 z"
         inkscape:connector-curvature="0"
         style="fill:#ffffff" /><path
         id="XMLID_3374_"
         d="m 803.4,514 c -1,0 -1.9,-0.4 -2.5,-1.2 -0.6,-0.8 -0.8,-1.8 -0.6,-2.8 l 7.3,-30.3 c 2,-8.3 6.7,-15.5 13.2,-20.1 5.8,-4.2 12.7,-6.5 20,-6.5 1.8,0 3.2,1.4 3.2,3.2 l 0,11.5 c 0,1.8 -1.4,3.2 -3.2,3.2 -4.6,0 -7.8,1.8 -10.8,6.2 -2.8,4 -4.7,9 -5.4,14.5 l -2.5,19.2 c -0.2,1.6 -1.6,2.8 -3.2,2.8 l -15.5,0.3 0,0 z m 34.1,-54.2 c -4.7,0.5 -9,2.2 -13,5.1 -5.2,3.8 -9,9.6 -10.7,16.4 l -6.3,26.2 8.5,-0.1 2.2,-16.4 c 0.9,-6.5 3.1,-12.5 6.5,-17.4 3.5,-5.1 7.7,-7.9 12.8,-8.7 l 0,-5.1 z"
         inkscape:connector-curvature="0" /></g></g><g
     id="XMLID_1891_"
     transform="translate(-127,-79.873558)"><polygon
       id="XMLID_2386_"
       class="st0"
       points="840.7,473.4 942.6,473.1 952.8,579.7 828.5,579.7 "
       style="fill:#ffffff" /><path
       id="XMLID_2393_"
       d="m 952.8,582.9 -124.3,0 c -0.9,0 -1.8,-0.4 -2.4,-1.1 -0.6,-0.7 -0.9,-1.6 -0.8,-2.5 l 12.2,-106.2 c 0.2,-1.6 1.6,-2.8 3.2,-2.9 l 101.9,-0.3 0,0 c 1.7,0 3,1.3 3.2,2.9 L 956,579.4 c 0.1,0.9 -0.2,1.8 -0.8,2.5 -0.6,0.6 -1.5,1 -2.4,1 z m -120.7,-6.5 117.2,0 -9.6,-100.1 -96.1,0.3 -11.5,99.8 z"
       inkscape:connector-curvature="0" /></g><g
     id="XMLID_3351_"
     transform="translate(-127,-79.873558)"><polyline
       id="XMLID_3353_"
       class="st0"
       points="840.7,409.8 840.7,473.4 942.6,473.1 942.6,421.3  "
       style="fill:#ffffff" /><path
       id="XMLID_3352_"
       d="m 840.7,476.6 c -0.9,0 -1.7,-0.3 -2.3,-0.9 -0.6,-0.6 -0.9,-1.4 -0.9,-2.3 l 0,-63.6 c 0,-1.8 1.4,-3.2 3.2,-3.2 1.8,0 3.2,1.4 3.2,3.2 l 0,60.4 95.4,-0.3 0,-48.6 c 0,-1.8 1.4,-3.2 3.2,-3.2 1.8,0 3.2,1.4 3.2,3.2 l 0,51.8 c 0,1.8 -1.4,3.2 -3.2,3.2 l -101.8,0.3 0,0 z"
       inkscape:connector-curvature="0" /></g><g
     id="XMLID_4038_"
     transform="translate(-127,-79.873558)"><line
       id="XMLID_2363_"
       class="st2"
       x1="840.70001"
       y1="457.70001"
       x2="942.59998"
       y2="457.70001"
       style="fill:none" /><path
       id="XMLID_2365_"
       d="m 942.6,460.9 -101.9,0 c -1.8,0 -3.2,-1.4 -3.2,-3.2 0,-1.8 1.4,-3.2 3.2,-3.2 l 101.9,0 c 1.8,0 3.2,1.4 3.2,3.2 0,1.8 -1.4,3.2 -3.2,3.2 z"
       inkscape:connector-curvature="0" /></g><g
     id="XMLID_3342_"
     transform="translate(-127,-79.873558)"><path
       id="XMLID_3345_"
       d="m 885.4,266.4 c -1.7,0 -3.1,-1.4 -3.2,-3.1 -0.1,-1.8 1.3,-3.3 3.1,-3.3 0.1,0 5.9,-0.3 9.1,-4.4 1.1,-1.4 3.1,-1.6 4.5,-0.5 1.4,1.1 1.6,3.1 0.5,4.5 -5.1,6.4 -13.5,6.8 -14,6.8 l 0,0 z"
       inkscape:connector-curvature="0" /></g><g
     id="XMLID_2012_"
     transform="translate(-127,-79.873558)"><g
       id="XMLID_1130_"><path
         id="XMLID_2358_"
         class="st0"
         d="m 822.9,372.9 0,101.9 c 0,1.8 0.7,3.5 2,4.7 l 0,0 c 1.4,1.3 3.5,1.3 4.9,0 l 0,0 c 0.8,-0.7 1.2,-1.7 1.2,-2.7 l 0,-15.1 0,18.6 c 0,1.4 0.7,2.7 1.8,3.5 l 0.1,0.1 c 1.5,1.1 3.5,1 4.9,-0.1 l 0,0 c 0.9,-0.7 1.4,-1.8 1.4,-2.9 l 0,-19.1 0,18.8 c 0,1.2 0.6,2.3 1.6,3 l 0,0 c 1.7,1.2 4,0.9 5.4,-0.6 l 0.2,-0.2 c 0.8,-0.8 1.3,-2 1.3,-3.1 l 0,-21.2 -0.1,-84.5"
         inkscape:connector-curvature="0"
         style="fill:#ffffff" /><path
         id="XMLID_2360_"
         d="m 835.4,487.8 c -1.5,0 -3,-0.5 -4.3,-1.4 -1.1,-0.8 -1.9,-1.8 -2.4,-2.9 -2,0.4 -4.2,-0.2 -5.8,-1.7 -2,-1.8 -3.1,-4.4 -3.1,-7 l 0,-101.9 c 0,-1.8 1.4,-3.2 3.2,-3.2 1.8,0 3.2,1.4 3.2,3.2 l 0,101.9 c 0,0.9 0.4,1.7 1,2.3 0.2,0.1 0.4,0.1 0.6,0 0.1,-0.1 0.1,-0.2 0.1,-0.3 l 0,-15.1 c 0,-1.8 1.4,-3.2 3.2,-3.2 1.8,0 3.2,1.4 3.2,3.2 l 0,18.6 c 0,0.3 0.2,0.7 0.4,0.9 0.4,0.3 0.9,0.3 1.2,0.1 0.1,-0.1 0.2,-0.2 0.2,-0.3 l 0,-19.1 c 0,-1.8 1.4,-3.2 3.2,-3.2 1.8,0 3.2,1.4 3.2,3.2 l 0,18.8 c 0,0.1 0.1,0.3 0.2,0.3 0.4,0.3 0.9,0.2 1.3,-0.1 l 0.2,-0.2 c 0.2,-0.2 0.4,-0.6 0.4,-0.9 l 0,-21.2 -0.1,-84.5 c 0,-1.8 1.4,-3.2 3.2,-3.2 l 0,0 c 1.8,0 3.2,1.4 3.2,3.2 l 0.1,105.8 c 0,2 -0.8,3.9 -2.2,5.4 l -0.2,0.2 c -2.4,2.5 -6.2,3 -9.1,1.2 -1.3,0.7 -2.7,1.1 -4.1,1.1 z"
         inkscape:connector-curvature="0" /></g><g
       id="XMLID_4009_"><path
         id="XMLID_2359_"
         d="m 822.9,452.7 c -1.8,0 -3.2,-1.4 -3.2,-3.2 l 0,-93.6 c 0,-17.6 13.2,-31.9 29.4,-31.9 l 19.6,0 c 1.8,0 3.2,1.4 3.2,3.2 0,1.8 -1.4,3.2 -3.2,3.2 l -19.6,0 c -12.6,0 -22.9,11.4 -22.9,25.4 l 0,93.6 c -0.1,1.8 -1.5,3.3 -3.3,3.3 z"
         inkscape:connector-curvature="0" /></g></g><g
     id="XMLID_3333_"
     transform="translate(-127,-79.873558)"><path
       id="XMLID_3335_"
       class="st0"
       d="m 914.2,242.5 0,-5.9 c 0,-12.2 -9.9,-22.1 -22.1,-22.1 -25.8,0 -63.4,0 -63.4,0 0,0 -0.3,-29.9 18.3,-29.9 l 40.7,0 c 5.7,0 11.3,2.2 15.8,6.3 l 1.3,1.2 4.4,-2.5 c 0.4,-0.3 0.9,-0.5 1.4,-0.7 13.9,-6.5 29,5.9 29,23.1 l 0,68.2 c 0,10.9 -0.5,31.9 6.7,38.4 l -45.1,0"
       inkscape:connector-curvature="0"
       style="fill:#ffffff" /><path
       id="XMLID_3334_"
       d="m 946.1,321.6 -45.1,0 c -1.8,0 -3.2,-1.4 -3.2,-3.2 0,-1.8 1.4,-3.2 3.2,-3.2 l 39.1,0 c -3.6,-8.1 -3.9,-20.7 -3.9,-33.3 l 0,-1.9 0,-68.2 c 0,-7.9 -3.7,-15.3 -9.8,-19.1 -4.6,-2.9 -9.8,-3.3 -14.7,-1.1 -0.4,0.2 -0.8,0.4 -1.1,0.6 l -4.4,2.5 c -1.2,0.7 -2.7,0.5 -3.8,-0.4 l -1.3,-1.2 c -3.9,-3.5 -8.7,-5.5 -13.6,-5.5 l -40.7,0 c -3.2,0 -5.8,1.1 -8,3.3 -4.9,4.9 -6.5,14.5 -6.9,20.2 9.7,0 38.8,0 60,0 l 0,0 c 6.8,0 13.1,2.6 17.9,7.4 4.8,4.8 7.4,11.2 7.4,17.9 l 0,5.9 c 0,1.8 -1.4,3.2 -3.2,3.2 -1.8,0 -3.2,-1.4 -3.2,-3.2 l 0,-5.9 c 0,-5.1 -2,-9.8 -5.5,-13.4 -3.6,-3.6 -8.3,-5.5 -13.3,-5.5 l 0,0 c -25.8,0 -63.4,0 -63.4,0 -1.8,0 -3.2,-1.4 -3.2,-3.2 0,-0.8 -0.1,-18.9 8.9,-28 3.4,-3.4 7.6,-5.2 12.6,-5.2 l 40.7,0 c 6.3,0 12.5,2.4 17.5,6.7 l 2.3,-1.4 c 0.5,-0.3 1.1,-0.6 1.6,-0.9 6.8,-3.2 14.4,-2.6 20.8,1.5 7.9,5 12.7,14.4 12.7,24.5 l 0,70.1 c 0,9.4 -0.1,28.9 5.6,34.1 1,0.9 1.3,2.3 0.8,3.5 -0.2,1.6 -1.4,2.4 -2.8,2.4 z"
       inkscape:connector-curvature="0" /></g><g
     id="XMLID_1106_"
     transform="translate(-127,-79.873558)"><path
       id="XMLID_2348_"
       class="st0"
       d="m 914.7,271.7 c 0,29.8 -22.5,38.7 -38.2,38.7 -31.1,0 -47.3,-22 -47.3,-49.2 0,-21.7 4.6,-46.6 32.2,-46.6 l 31.7,0 c 11.7,0 21.2,9.4 21.3,21.1 l 0.3,36"
       inkscape:connector-curvature="0"
       style="fill:#ffffff" /><path
       id="XMLID_2353_"
       d="m 876.5,313.6 c -30.7,0 -50.5,-20.6 -50.5,-52.4 0,-33.1 11.9,-49.8 35.4,-49.8 l 31.7,0 c 13.4,0 24.4,10.9 24.5,24.3 l 0.3,36 0,0 c 0,29 -20.8,41.9 -41.4,41.9 z m -15.1,-95.8 c -19.8,0 -29,13.8 -29,43.4 0,27.9 17.3,46 44,46 16.1,0 35,-9.3 35,-35.5 l -0.3,-36 c -0.1,-9.9 -8.2,-17.9 -18,-17.9 l -31.7,0 z"
       inkscape:connector-curvature="0" /></g><g
     id="XMLID_3281_"
     transform="translate(-127,-79.873558)"><path
       id="XMLID_3282_"
       d="m 861.4,273.3 c -0.4,0 -0.8,-0.1 -1.2,-0.2 l -9.9,-4.1 c -0.9,-0.4 -1.6,-1.2 -1.9,-2.2 -0.3,-1 0,-2 0.6,-2.8 5.7,-7.3 7,-13.9 7,-14 0.3,-1.7 2,-2.9 3.8,-2.6 1.7,0.3 2.9,2 2.6,3.7 -0.1,0.3 -1.2,6.2 -5.9,13.3 l 6.1,2.6 c 1.6,0.7 2.4,2.6 1.7,4.2 -0.5,1.4 -1.7,2.1 -2.9,2.1 z"
       inkscape:connector-curvature="0" /></g><g
     id="XMLID_4000_"
     transform="translate(-127,-79.873558)"><path
       id="XMLID_3315_"
       class="st3"
       d="M 877.7,277.8"
       inkscape:connector-curvature="0"
       style="fill:none;stroke:#312b80;stroke-width:4;stroke-linecap:round;stroke-linejoin:round;stroke-miterlimit:10" /></g><g
     id="XMLID_3236_"
     transform="translate(-127,-79.873558)"><path
       id="XMLID_3252_"
       d="m 862.2,288.4 c -5.3,0 -9.5,-2.6 -11.7,-4.7 -1.3,-1.3 -1.3,-3.3 0,-4.6 1.3,-1.3 3.3,-1.3 4.5,0 0.7,0.7 6.8,6.2 14.9,-0.2 1.4,-1.1 3.4,-0.9 4.5,0.5 1.1,1.4 0.9,3.4 -0.5,4.5 -4.1,3.3 -8.1,4.5 -11.7,4.5 z"
       inkscape:connector-curvature="0" /></g><g
     id="XMLID_2014_"
     transform="translate(-127,-79.873558)"><g
       id="XMLID_3998_"><path
         id="XMLID_2350_"
         d="m 888.5,255.3 c -1.7,0 -3.1,-1.3 -3.2,-3.1 -0.1,-1.1 -0.6,-4.9 -4.8,-4.9 -4.5,0 -5.2,4.3 -5.3,5.2 -0.2,1.8 -1.8,3 -3.6,2.8 -1.8,-0.2 -3,-1.8 -2.8,-3.5 0.4,-3.8 3.3,-10.9 11.7,-10.9 7.9,0 11,6.6 11.3,11.1 0.1,1.8 -1.3,3.3 -3.1,3.4 -0.1,-0.1 -0.1,-0.1 -0.2,-0.1 z"
         inkscape:connector-curvature="0" /></g><g
       id="XMLID_3997_"><path
         id="XMLID_2349_"
         d="m 847.1,255.3 c -1.7,0 -3.1,-1.3 -3.2,-3.1 -0.1,-1.1 -0.6,-4.9 -4.8,-4.9 -4.5,0 -5.2,4.3 -5.3,5.2 -0.2,1.8 -1.8,3 -3.6,2.8 -1.8,-0.2 -3,-1.8 -2.8,-3.5 0.4,-3.8 3.3,-10.9 11.7,-10.9 7.9,0 11,6.6 11.3,11.1 0.1,1.8 -1.3,3.3 -3.1,3.4 -0.1,-0.1 -0.2,-0.1 -0.2,-0.1 z"
         inkscape:connector-curvature="0" /></g></g><g
     id="XMLID_3167_"
     transform="translate(-127,-79.873558)"><g
       id="XMLID_3207_"><line
         id="XMLID_3212_"
         class="st2"
         x1="900.79999"
         y1="302.79999"
         x2="900.79999"
         y2="327.20001"
         style="fill:none" /><path
         id="XMLID_3211_"
         d="m 900.8,330.5 c -1.8,0 -3.2,-1.4 -3.2,-3.2 l 0,-24.5 c 0,-1.8 1.4,-3.2 3.2,-3.2 1.8,0 3.2,1.4 3.2,3.2 l 0,24.5 c 0,1.7 -1.4,3.2 -3.2,3.2 z"
         inkscape:connector-curvature="0" /></g><g
       id="XMLID_3168_"><line
         id="XMLID_3170_"
         class="st2"
         x1="868.70001"
         y1="327.10001"
         x2="868.70001"
         y2="309.70001"
         style="fill:none" /><path
         id="XMLID_3169_"
         d="m 868.7,330.3 c -1.8,0 -3.2,-1.4 -3.2,-3.2 l 0,-17.4 c 0,-1.8 1.4,-3.2 3.2,-3.2 1.8,0 3.2,1.4 3.2,3.2 l 0,17.4 c 0,1.8 -1.4,3.2 -3.2,3.2 z"
         inkscape:connector-curvature="0" /></g></g><g
     id="XMLID_3994_"
     transform="translate(-127,-79.873558)"><path
       id="XMLID_2342_"
       class="st0"
       d="m 849.5,353.7 c 0,0 -13.7,18 -13.7,34.4 0,8.6 10.3,9.8 23.3,9.8 12,0 46.1,0 46.1,0"
       inkscape:connector-curvature="0"
       style="fill:#ffffff" /><path
       id="XMLID_2343_"
       d="m 905.1,401.2 -46.1,0 c -9.3,0 -26.5,0 -26.5,-13.1 0,-17.3 13.8,-35.6 14.4,-36.3 1.1,-1.4 3.1,-1.7 4.5,-0.6 1.4,1.1 1.7,3.1 0.6,4.5 -0.1,0.2 -13.1,17.4 -13.1,32.4 0,4 3.4,6.6 20.1,6.6 l 46.1,0 c 1.8,0 3.2,1.4 3.2,3.2 0,1.8 -1.5,3.3 -3.2,3.3 z"
       inkscape:connector-curvature="0" /></g><g
     id="XMLID_2522_"
     transform="translate(-127,-79.873558)"><g
       id="XMLID_2992_"><polygon
         id="XMLID_3162_"
         class="st0"
         points="847.7,416.2 838,369.1 777.7,369.1 787.4,416.2 "
         style="fill:#ffffff" /><path
         id="XMLID_3012_"
         d="m 848.7,417 -62,0 -10,-48.7 62,0 10,48.7 z m -60.7,-1.6 58.7,0 -9.4,-45.5 -58.7,0 9.4,45.5 z"
         inkscape:connector-curvature="0" /></g><g
       id="XMLID_2798_"><line
         id="XMLID_2991_"
         class="st2"
         x1="776.29999"
         y1="368.20001"
         x2="837.79999"
         y2="368.20001"
         style="fill:none" /><path
         id="XMLID_2988_"
         d="m 837.8,371.4 -61.5,0 c -1.8,0 -3.2,-1.4 -3.2,-3.2 0,-1.8 1.4,-3.2 3.2,-3.2 l 61.5,0 c 1.8,0 3.2,1.4 3.2,3.2 0,1.8 -1.4,3.2 -3.2,3.2 z"
         inkscape:connector-curvature="0" /></g><g
       id="XMLID_2523_"><polygon
         id="XMLID_2795_"
         class="st0"
         points="849.4,417.6 786.5,417.6 776.3,368.2 807.6,391.7 839.2,368.2 "
         style="fill:#ffffff" /><path
         id="XMLID_2787_"
         d="m 849.4,420.8 -62.9,0 c -1.5,0 -2.8,-1.1 -3.2,-2.6 l -10.2,-49.4 c -0.3,-1.3 0.3,-2.7 1.4,-3.4 1.1,-0.7 2.6,-0.7 3.7,0.1 l 29.3,22 29.7,-22 c 0.9,-0.7 2,-0.8 3.1,-0.4 1,0.4 1.8,1.3 2,2.4 l 10.2,49.4 c 0.2,0.9 0,1.9 -0.7,2.7 -0.5,0.8 -1.4,1.2 -2.4,1.2 z m -60.3,-6.4 56.3,0 -8.4,-40.6 -27.6,20.5 c -1.1,0.9 -2.7,0.8 -3.8,0 l -24.5,-18.4 8,38.5 z"
         inkscape:connector-curvature="0" /></g></g><g
     id="XMLID_4023_"
     transform="translate(-127,-79.873558)"><line
       id="XMLID_2330_"
       class="st2"
       x1="855.90002"
       y1="579.70001"
       x2="861.5"
       y2="517.90002"
       style="fill:none" /><path
       id="XMLID_2331_"
       d="m 855.9,582.9 c -0.1,0 -0.2,0 -0.3,0 -1.8,-0.2 -3.1,-1.7 -2.9,-3.5 l 5.6,-61.8 c 0.2,-1.8 1.7,-3.1 3.5,-2.9 1.8,0.2 3.1,1.7 2.9,3.5 l -5.6,61.8 c -0.2,1.7 -1.6,2.9 -3.2,2.9 z"
       inkscape:connector-curvature="0" /></g><g
     id="XMLID_2516_"
     transform="translate(-127,-79.873558)"><line
       id="XMLID_2518_"
       class="st2"
       x1="889"
       y1="578.40002"
       x2="889"
       y2="507.89999"
       style="fill:none" /><path
       id="XMLID_2517_"
       d="m 889,581.6 c -1.8,0 -3.2,-1.4 -3.2,-3.2 l 0,-70.4 c 0,-1.8 1.4,-3.2 3.2,-3.2 1.8,0 3.2,1.4 3.2,3.2 l 0,70.4 c 0,1.7 -1.5,3.2 -3.2,3.2 z"
       inkscape:connector-curvature="0" /></g><g
     id="XMLID_4078_"
     transform="translate(-127,-79.873558)"><polygon
       id="XMLID_2324_"
       class="st0"
       points="899.3,676.5 877.6,676.5 877.6,661.6 853.7,676.5 831.2,676.5 861.5,644.9 899.3,644.9 "
       style="fill:#ffffff" /><path
       id="XMLID_2325_"
       d="m 899.3,679.7 -21.7,0 c -1.8,0 -3.2,-1.4 -3.2,-3.2 l 0,-9.1 -18.9,11.8 c -0.5,0.3 -1.1,0.5 -1.7,0.5 l -22.5,0 c -1.3,0 -2.5,-0.8 -3,-2 -0.5,-1.2 -0.3,-2.6 0.6,-3.5 l 30.3,-31.6 c 0.6,-0.6 1.4,-1 2.3,-1 l 37.7,0 c 1.8,0 3.2,1.4 3.2,3.2 l 0,31.6 c 0.1,1.8 -1.3,3.3 -3.1,3.3 z m -18.5,-6.5 15.2,0 0,-25.2 -33.1,0 -24.1,25.2 14,0 23.1,-14.4 c 1,-0.6 2.2,-0.7 3.3,-0.1 1,0.6 1.7,1.6 1.7,2.8 l -0.1,11.7 0,0 z"
       inkscape:connector-curvature="0" /></g><g
     id="XMLID_2475_"
     transform="translate(-127,-79.873558)"><polygon
       id="XMLID_2502_"
       class="st0"
       points="925.2,676.5 907,676.5 907,663.5 888.6,676.5 863.7,676.5 890.5,644.9 925.2,644.9 "
       style="fill:#ffffff" /><path
       id="XMLID_2480_"
       d="m 925.2,679.7 -18.2,0 c -1.8,0 -3.2,-1.4 -3.2,-3.2 l 0,-6.8 -13.3,9.4 c -0.5,0.4 -1.2,0.6 -1.8,0.6 l -24.9,0 c -1.3,0 -2.4,-0.7 -2.9,-1.9 -0.5,-1.1 -0.3,-2.5 0.5,-3.4 l 26.8,-31.6 c 0.6,-0.7 1.5,-1.1 2.5,-1.1 l 34.7,0 c 1.8,0 3.2,1.4 3.2,3.2 l 0,31.6 c -0.1,1.7 -1.6,3.2 -3.4,3.2 z m -15,-6.5 11.8,0 0,-25.2 -30,0 -21.4,25.2 16.9,0 17.6,-12.3 c 1,-0.7 2.3,-0.8 3.3,-0.2 1.1,0.6 1.7,1.7 1.7,2.9 l 0.1,9.6 0,0 z"
       inkscape:connector-curvature="0" /></g><g
     id="XMLID_3255_"
     transform="translate(-127,-79.873558)"><path
       id="XMLID_2316_"
       class="st0"
       d="m 900.8,327.2 27.8,0 c 14.4,0 26.2,12.8 26.2,28.7 l -0.1,19.9 -27,0 0,-22.9 c 0,0 -0.9,7.4 -8.9,12.8"
       inkscape:connector-curvature="0"
       style="fill:#ffffff" /><path
       id="XMLID_2319_"
       d="m 927.7,379.1 c -0.9,0 -1.7,-0.3 -2.3,-0.9 -0.6,-0.6 -0.9,-1.4 -0.9,-2.3 l 0,-10.6 c -1.1,1.1 -2.3,2.1 -3.8,3.1 -1.5,1 -3.5,0.6 -4.5,-0.9 -1,-1.5 -0.6,-3.5 0.9,-4.5 6.5,-4.4 7.5,-10.4 7.5,-10.5 0.2,-1.7 1.7,-2.9 3.4,-2.8 1.7,0.1 3,1.5 3,3.2 l 0,19.7 20.5,0 0,-16.7 c 0,-14 -10.3,-25.4 -22.9,-25.4 l -27.8,0 c -1.8,0 -3.2,-1.4 -3.2,-3.2 0,-1.8 1.4,-3.2 3.2,-3.2 l 27.8,0 c 16.2,0 29.4,14.3 29.4,31.9 l -0.1,20 c 0,1.8 -1.4,3.2 -3.2,3.2 l -27,-0.1 z"
       inkscape:connector-curvature="0" /></g><g
     id="XMLID_2347_"
     transform="translate(-127,-79.873558)"><g
       id="XMLID_2356_"><path
         id="XMLID_2357_"
         d="m 879,345.3 c -12.8,0 -18,-11.3 -18.9,-17.3 -0.3,-1.8 0.9,-3.4 2.7,-3.7 1.8,-0.3 3.4,0.9 3.7,2.7 0.1,0.5 2.1,11.9 12.6,11.9 13.3,0 18.6,-12.4 18.8,-12.9 0.7,-1.6 2.6,-2.4 4.2,-1.7 1.6,0.7 2.4,2.5 1.8,4.2 -0.4,0.6 -7.2,16.8 -24.9,16.8 z"
         inkscape:connector-curvature="0" /></g><g
       id="XMLID_2351_"><path
         id="XMLID_2352_"
         d="m 879.3,354.8 c -20.9,0 -28.5,-17.6 -29.7,-26.9 -0.2,-1.8 1,-3.4 2.8,-3.6 1.8,-0.2 3.4,1 3.6,2.8 0.1,0.9 3,21.2 23.3,21.2 22.1,0 27.1,-18.6 27.3,-19.4 0.4,-1.7 2.2,-2.8 3.9,-2.3 1.7,0.4 2.8,2.2 2.3,3.9 0,0.2 -6.3,24.3 -33.5,24.3 z"
         inkscape:connector-curvature="0" /></g></g><g
     id="XMLID_1926_"
     transform="translate(-127,-79.873558)"><g
       id="XMLID_1884_"><path
         id="XMLID_2303_"
         class="st0"
         d="m 954.7,375.8 0,8.6 c -1.6,35.6 -16.8,51.6 -45,51.6 -24.2,0 -61.2,-23.2 -61.2,-23.2 l -1.1,-0.7 c 0,0 -0.5,-2.5 -5.5,-1.6 -4.9,0.9 -7.7,-1.9 -7.7,-5 0,-3.1 8.6,-5.3 8.6,-5.3 0,0 -9.2,1.1 -9.2,-3.9 0,-5 8.3,-6 8.3,-6 0,0 -9,1.5 -9,-3.5 0,-5 5,-6.3 11,-6.3 8.3,0 14.8,10.6 14.8,10.6 l 3.7,2.3 c 0,0 34.3,19 46.3,19 18.7,0 18.9,-27.8 18.9,-27.8 l 0,-8.6 27.1,-0.2 z"
         inkscape:connector-curvature="0"
         style="fill:#ffffff" /><path
         id="XMLID_2305_"
         d="m 909.7,439.2 c -24.8,0 -61.4,-22.7 -62.9,-23.7 l -1.2,-0.8 c -0.5,-0.3 -0.8,-0.7 -1.1,-1.2 -0.3,-0.1 -1,-0.1 -2,0.1 -3.3,0.6 -6.4,-0.1 -8.5,-1.9 -1.9,-1.6 -2.9,-3.8 -2.9,-6.3 0,-1.6 0.7,-2.9 1.9,-4 -0.1,-0.1 -0.3,-0.2 -0.4,-0.3 -1.4,-1.3 -2.1,-2.9 -2.1,-4.8 0,-1.9 0.6,-3.4 1.6,-4.6 l 0,0 c -1.4,-1.2 -2.2,-2.9 -2.2,-4.9 0,-4.3 2.5,-9.5 14.2,-9.5 8.7,0 15.4,8.8 17.1,11.4 l 3.1,1.9 c 9.2,5.1 35.5,18.5 44.7,18.5 15.3,0 15.7,-24.4 15.7,-24.6 l 0,-8.5 c 0,-1.8 1.4,-3.2 3.2,-3.2 l 27,-0.1 0,0 c 0.9,0 1.7,0.3 2.3,0.9 0.6,0.6 0.9,1.4 0.9,2.3 l 0,8.6 c -1.9,36.9 -17.6,54.7 -48.4,54.7 z m -59.9,-29.3 0.4,0.3 c 0.3,0.2 36.5,22.7 59.5,22.7 27,0 40.3,-15.4 41.8,-48.5 l 0,-5.2 -20.5,0 0,5.4 c -0.1,10.7 -4.8,31 -22.1,31 -12.5,0 -44.3,-17.4 -47.9,-19.4 l -3.8,-2.3 c -0.4,-0.3 -0.8,-0.6 -1.1,-1.1 -1.6,-2.5 -6.8,-9.1 -12.1,-9.1 -7.7,0 -7.7,2.2 -7.7,3.1 0.4,0.4 2.8,0.6 4.7,0.4 0.2,0 0.4,-0.1 0.7,-0.1 1.7,-0.2 3.3,1 3.6,2.7 0.3,1.7 -0.9,3.3 -2.7,3.6 -0.1,0 -0.3,0 -0.5,0.1 -2,0.3 -5.1,1.5 -5.1,2.8 0.5,0.6 3.4,1 5.6,0.7 1.7,-0.2 3.2,0.9 3.5,2.6 0.3,1.7 -0.7,3.3 -2.4,3.7 -2.4,0.6 -5.2,1.8 -6.1,2.6 0.1,0.4 0.3,0.7 0.6,0.9 0.7,0.6 1.8,0.7 3.3,0.5 5,-0.9 7.3,1 8.3,2.6 z"
         inkscape:connector-curvature="0" /></g><g
       id="XMLID_1128_"><path
         id="XMLID_2304_"
         d="m 865.2,423.5 c -0.8,0 -1.6,-0.3 -2.3,-0.9 -1.3,-1.2 -1.3,-3.3 0,-4.6 0.1,-0.1 8.4,-8.7 10.9,-19.9 0.4,-1.7 2.1,-2.8 3.8,-2.4 1.7,0.4 2.8,2.1 2.4,3.8 -2.9,13.1 -12.2,22.6 -12.6,23 -0.5,0.7 -1.3,1 -2.2,1 z"
         inkscape:connector-curvature="0" /></g><g
       id="XMLID_1108_"><ellipse
         id="XMLID_2266_"
         class="st0"
         cx="876.90002"
         cy="402.29999"
         rx="6.0999999"
         ry="6.1999998"
         style="fill:#ffffff" /><path
         id="XMLID_2267_"
         d="m 876.9,411.7 c -5.1,0 -9.3,-4.2 -9.3,-9.4 0,-5.2 4.2,-9.4 9.3,-9.4 5.1,0 9.3,4.2 9.3,9.4 0.1,5.1 -4.1,9.4 -9.3,9.4 z m 0,-12.4 c -1.6,0 -2.9,1.3 -2.9,3 0,1.6 1.3,3 2.9,3 1.6,0 2.9,-1.3 2.9,-3 0,-1.7 -1.3,-3 -2.9,-3 z"
         inkscape:connector-curvature="0" /></g></g><g
     id="XMLID_2122_"
     transform="translate(-127,-79.873558)"><path
       id="XMLID_2124_"
       class="st0"
       d="m 910.8,244.2 c 0,0 9.9,-1.9 9.9,14 0,15.9 -9.9,13.4 -9.9,13.4 l 0,-6.9"
       inkscape:connector-curvature="0"
       style="fill:#ffffff" /><path
       id="XMLID_2123_"
       d="m 912.2,274.9 c -1.2,0 -2,-0.2 -2.2,-0.2 -1.4,-0.4 -2.4,-1.6 -2.4,-3.1 l 0,-6.9 c 0,-1.8 1.4,-3.2 3.2,-3.2 1.8,0 3.2,1.4 3.2,3.2 l 0,3.4 c 0.2,-0.1 0.5,-0.3 0.7,-0.4 1.8,-1.4 2.7,-4.8 2.7,-9.5 0,-4.8 -1,-8.2 -2.8,-9.8 -1.5,-1.3 -3.2,-1 -3.3,-1 -1.7,0.3 -3.4,-0.9 -3.7,-2.6 -0.3,-1.7 0.8,-3.4 2.5,-3.7 0.5,-0.1 4.7,-0.8 8.5,2.3 3.5,2.9 5.2,7.9 5.2,14.8 0,7 -1.8,11.9 -5.3,14.6 -2.2,1.7 -4.6,2.1 -6.3,2.1 z"
       inkscape:connector-curvature="0" /></g><g
     id="XMLID_2024_"
     transform="translate(-127,-79.873558)"><g
       id="XMLID_1091_"><polygon
         id="XMLID_2257_"
         class="st0"
         points="737.4,495 737.4,534.1 682.4,534.1 682.4,495 716.5,495 "
         style="fill:#ffffff" /><path
         id="XMLID_2258_"
         d="m 737.4,537.3 -55,0 c -1.8,0 -3.2,-1.4 -3.2,-3.2 l 0,-39.2 c 0,-1.8 1.4,-3.2 3.2,-3.2 l 55,0 c 1.8,0 3.2,1.4 3.2,3.2 l 0,39.2 c 0,1.8 -1.4,3.2 -3.2,3.2 z m -51.8,-6.4 48.6,0 0,-32.7 -48.6,0 0,32.7 z"
         inkscape:connector-curvature="0" /></g><g
       id="XMLID_1062_"><line
         id="XMLID_2244_"
         class="st2"
         x1="714.59998"
         y1="495"
         x2="714.59998"
         y2="532.79999"
         style="fill:none" /><path
         id="XMLID_2256_"
         d="m 714.6,536 c -1.8,0 -3.2,-1.4 -3.2,-3.2 l 0,-37.9 c 0,-1.8 1.4,-3.2 3.2,-3.2 1.8,0 3.2,1.4 3.2,3.2 l 0,37.9 c 0,1.8 -1.4,3.2 -3.2,3.2 z"
         inkscape:connector-curvature="0" /></g><g
       id="XMLID_1058_"><line
         id="XMLID_2242_"
         class="st2"
         x1="682.40002"
         y1="506.39999"
         x2="713"
         y2="506.39999"
         style="fill:none" /><path
         id="XMLID_2243_"
         d="m 713,509.6 -30.6,0 c -1.8,0 -3.2,-1.4 -3.2,-3.2 0,-1.8 1.4,-3.2 3.2,-3.2 l 30.6,0 c 1.8,0 3.2,1.4 3.2,3.2 0,1.8 -1.4,3.2 -3.2,3.2 z"
         inkscape:connector-curvature="0" /></g></g><g
     id="XMLID_2788_"
     transform="translate(-127,-79.873558)"><polygon
       id="XMLID_2792_"
       class="st0"
       points="752.8,520.7 668.7,520.7 678.8,534.1 742.4,534.1 "
       style="fill:#ffffff" /><path
       id="XMLID_2789_"
       d="m 742.4,537.3 -63.6,0 c -1,0 -2,-0.5 -2.6,-1.3 l -10.1,-13.4 c -0.7,-1 -0.9,-2.3 -0.3,-3.4 0.5,-1.1 1.7,-1.8 2.9,-1.8 l 84,0 c 1.2,0 2.4,0.7 2.9,1.8 0.5,1.1 0.4,2.4 -0.3,3.4 L 745,536 c -0.7,0.9 -1.6,1.3 -2.6,1.3 z m -62,-6.4 60.4,0 5.4,-7 -71,0 5.2,7 z"
       inkscape:connector-curvature="0" /></g><g
     id="XMLID_1858_"
     transform="translate(-127,-79.873558)"><g
       id="XMLID_3983_"><path
         id="XMLID_2100_"
         class="st0"
         d="m 533.8,174.7 71.1,0 c 6.9,0 12.5,5.6 12.5,12.5 l 0,62.3 -35.1,22.1 -40.8,-23.1 0,-63.5 c 0,-2.6 -1,-5 -2.7,-6.9 l 0,0 c -3.7,-3.9 -5.8,-4.5 -10.1,-1.2 l 0,0 c -2.5,1.9 -8.4,10.5 0.5,18.5 l 12.4,0"
         inkscape:connector-curvature="0"
         style="fill:#ffffff" /><path
         id="XMLID_2105_"
         d="m 582.3,274.7 c -0.5,0 -1.1,-0.1 -1.6,-0.4 l -40.8,-23.1 c -1,-0.6 -1.6,-1.6 -1.6,-2.8 l 0,-49.8 -9.2,0 c -0.8,0 -1.6,-0.3 -2.2,-0.8 -5,-4.5 -5.9,-9.1 -5.8,-12.3 0.2,-5.6 3.7,-9.8 5.5,-11.2 2.6,-2 4.8,-2.8 6.7,-2.8 l 0,0 c 0.1,0 0.2,0 0.3,0 l 71.1,0 c 8.7,0 15.7,7 15.7,15.7 l 0,62.3 c 0,1.1 -0.6,2.1 -1.5,2.7 l -34.9,22 c -0.5,0.3 -1.1,0.5 -1.7,0.5 z m -37.6,-28.2 37.5,21.2 31.9,-20.1 0,-60.5 c 0,-5.1 -4.2,-9.3 -9.3,-9.3 l -62.1,0 c 1.3,2.1 2,4.5 2,7 l 0,61.7 0,0 z m -14.3,-54.4 7.9,0 0,-7.2 c 0,-1.7 -0.7,-3.4 -1.9,-4.7 -2.8,-3 -3.1,-2.9 -5.8,-0.8 -0.9,0.7 -2.9,3.2 -3,6.3 -0.1,2.2 0.9,4.4 2.8,6.4 z"
         inkscape:connector-curvature="0" /></g><g
       id="XMLID_4039_"><g
         id="XMLID_4046_"><path
           id="XMLID_3314_"
           d="m 578.8,258.6 c 1.4,1.3 1.9,1.9 1.9,3.1 l 0,0 c 0,1.3 -0.5,1.8 -1.9,3.1 -0.7,0.7 -1.6,1.6 -2.4,2.7 1.4,0 2.9,0.4 4.5,1.3 0.9,0.5 1.8,1 2.7,1.4 0.1,-0.1 0.1,-0.1 0.2,-0.2 1.6,-1.6 4.1,-3.9 4.1,-8.4 l 0,0 c 0,-4.4 -2.5,-6.8 -4.1,-8.4 -1.4,-1.3 -1.9,-1.9 -1.9,-3.1 l 0,0 c 0,-1.3 0.5,-1.8 1.9,-3.1 1.6,-1.6 4.1,-3.9 4.1,-8.4 l 0,0 c 0,-4.4 -2.5,-6.8 -4.1,-8.4 -0.7,-0.7 -1.1,-1.1 -1.4,-1.6 -2.2,1.1 -4.6,1.7 -7.1,1.8 0.8,2.4 2.4,3.9 3.6,5 1.4,1.3 1.9,1.9 1.9,3.1 l 0,0 c 0,1.3 -0.5,1.8 -1.9,3.1 -1.6,1.6 -4.1,3.9 -4.1,8.4 l 0,0 c -0.2,4.7 2.3,7 4,8.6 z"
           inkscape:connector-curvature="0" /></g></g><g
       id="XMLID_4036_"><path
         id="XMLID_2101_"
         d="m 580.1,234.3 c -0.8,0 -1.6,-0.3 -2.2,-0.9 -1.9,-1.7 -18.3,-17.2 -18.3,-27.9 0,-11.3 9.2,-20.5 20.5,-20.5 11.3,0 20.5,9.2 20.5,20.5 0,10.7 -16.5,26.2 -18.3,27.9 -0.6,0.6 -1.4,0.9 -2.2,0.9 z m 0,-42.8 c -7.8,0 -14.1,6.3 -14.1,14.1 0,5.3 7.9,14.9 14.1,21.1 6.2,-6.2 14.1,-15.8 14.1,-21.1 0,-7.8 -6.3,-14.1 -14.1,-14.1 z"
         inkscape:connector-curvature="0" /></g></g><g
     id="XMLID_2384_"
     transform="translate(-127,-79.873558)"><polygon
       id="XMLID_2472_"
       class="st0"
       points="640.8,306.8 519.4,306.8 519.4,231.7 582.3,267.4 640.8,231.7 "
       style="fill:#ffffff" /><path
       id="XMLID_2385_"
       d="m 640.8,310 -121.4,0 c -1.8,0 -3.2,-1.4 -3.2,-3.2 l 0,-75 c 0,-1.1 0.6,-2.2 1.6,-2.8 1,-0.6 2.2,-0.6 3.2,0 l 61.2,34.7 56.9,-34.7 c 1,-0.6 2.2,-0.6 3.3,-0.1 1,0.6 1.6,1.6 1.6,2.8 l 0,75 c 0,1.9 -1.4,3.3 -3.2,3.3 z m -118.2,-6.4 115,0 0,-66.1 -53.7,32.7 c -1,0.6 -2.2,0.6 -3.3,0.1 l -58.1,-32.9 0.1,66.2 0,0 z"
       inkscape:connector-curvature="0" /></g><g
     id="XMLID_645_"
     transform="translate(-127,-79.873558)"><line
       id="XMLID_2094_"
       class="st2"
       x1="490.10001"
       y1="531.5"
       x2="510.20001"
       y2="531.5"
       style="fill:none" /><path
       id="XMLID_2095_"
       d="m 510.2,534.7 -20.1,0 c -1.8,0 -3.2,-1.4 -3.2,-3.2 0,-1.8 1.4,-3.2 3.2,-3.2 l 20.1,0 c 1.8,0 3.2,1.4 3.2,3.2 0,1.8 -1.4,3.2 -3.2,3.2 z"
       inkscape:connector-curvature="0" /></g><g
     id="XMLID_2338_"
     transform="translate(-127,-79.873558)"><path
       id="XMLID_2344_"
       class="st0"
       d="m 777.6,275.2 c 3.6,9.6 8.9,17.5 15.4,22.8 -9.2,5.7 -11.8,14.7 -15.4,24.3 -3.6,-9.6 -8.9,-19.1 -15.4,-24.3 6.5,-5.3 11.9,-13.2 15.4,-22.8 z"
       inkscape:connector-curvature="0"
       style="fill:#ffffff" /><path
       id="XMLID_2339_"
       d="m 777.6,325.5 0,0 c -1.3,0 -2.6,-0.8 -3,-2.1 -3.8,-10.2 -9,-18.6 -14.4,-23 -0.8,-0.6 -1.2,-1.5 -1.2,-2.5 0,-1 0.4,-1.9 1.2,-2.5 6.1,-4.9 11,-12.3 14.4,-21.4 0.5,-1.3 1.7,-2.1 3,-2.1 1.3,0 2.6,0.8 3,2.1 3.4,9.1 8.3,16.5 14.4,21.4 0.8,0.7 1.3,1.7 1.2,2.7 -0.1,1 -0.6,2 -1.5,2.5 -7.5,4.6 -10.1,11.9 -13.2,20.4 l -0.9,2.4 c -0.4,1.3 -1.6,2.1 -3,2.1 z M 767,298 c 4.5,4.6 7.9,10.4 10.4,15.6 2.3,-5.8 5.2,-11.5 10.5,-15.9 -4,-3.9 -7.5,-8.8 -10.3,-14.4 -2.9,5.7 -6.5,10.7 -10.6,14.7 z"
       inkscape:connector-curvature="0" /></g><g
     id="XMLID_2091_"
     transform="translate(-127,-79.873558)"><path
       id="XMLID_2097_"
       class="st0"
       d="m 746.4,225.9 c 4.3,11.6 10.7,21.1 18.6,27.5 -7.8,6.3 -14.3,15.9 -18.6,27.5 -4.3,-11.6 -10.7,-21.1 -18.6,-27.5 7.9,-6.4 14.3,-15.9 18.6,-27.5 z"
       inkscape:connector-curvature="0"
       style="fill:#ffffff" /><path
       id="XMLID_2092_"
       d="m 746.4,284 0,0 c -1.3,0 -2.6,-0.8 -3,-2.1 -4.1,-11.1 -10.2,-20.1 -17.6,-26.1 -0.8,-0.6 -1.2,-1.5 -1.2,-2.5 0,-1 0.4,-1.9 1.2,-2.5 7.4,-6 13.5,-15 17.6,-26.1 0.5,-1.3 1.7,-2.1 3,-2.1 1.3,0 2.6,0.8 3,2.1 4.1,11.1 10.2,20.1 17.6,26.1 0.8,0.6 1.2,1.5 1.2,2.5 0,1 -0.4,1.9 -1.2,2.5 -7.4,6 -13.5,15 -17.6,26.1 -0.4,1.3 -1.6,2.1 -3,2.1 z m -13.7,-30.6 c 5.4,5.1 10,11.6 13.7,19.2 3.7,-7.6 8.3,-14.1 13.7,-19.2 -5.4,-5.1 -10,-11.6 -13.7,-19.2 -3.6,7.6 -8.3,14.1 -13.7,19.2 z"
       inkscape:connector-curvature="0" /></g><g
     id="XMLID_2322_"
     transform="translate(-127,-79.873558)"><path
       id="XMLID_2332_"
       class="st0"
       d="m 786.3,211 c 2.6,7.1 6.6,13 11.4,16.8 -4.8,3.9 -8.8,9.7 -11.4,16.8 -2.6,-7.1 -6.6,-13 -11.4,-16.8 4.9,-3.8 8.8,-9.7 11.4,-16.8 z"
       inkscape:connector-curvature="0"
       style="fill:#ffffff" /><path
       id="XMLID_2323_"
       d="m 786.3,247.9 0,0 c -1.3,0 -2.6,-0.8 -3,-2.1 -2.4,-6.6 -6,-11.9 -10.4,-15.5 -0.8,-0.6 -1.2,-1.5 -1.2,-2.5 0,-1 0.4,-1.9 1.2,-2.5 4.4,-3.5 8,-8.9 10.4,-15.5 0.5,-1.3 1.7,-2.1 3,-2.1 1.3,0 2.6,0.8 3,2.1 2.4,6.6 6,11.9 10.4,15.5 0.8,0.6 1.2,1.5 1.2,2.5 0,1 -0.4,1.9 -1.2,2.5 -4.4,3.5 -8,8.9 -10.4,15.5 -0.4,1.3 -1.6,2.1 -3,2.1 z m -6.6,-20.1 c 2.5,2.5 4.7,5.6 6.6,9 1.9,-3.5 4.1,-6.5 6.6,-9 -2.5,-2.5 -4.7,-5.6 -6.6,-9 -1.8,3.5 -4.1,6.5 -6.6,9 z"
       inkscape:connector-curvature="0" /></g><g
     id="XMLID_4042_"
     transform="translate(-127,-79.873558)"><path
       id="XMLID_2082_"
       d="m 625.9,168.6 c -0.8,0 -1.6,-0.3 -2.2,-0.9 -1.3,-1.2 -1.4,-3.3 -0.1,-4.6 l 20.9,-22.3 c 1.2,-1.3 3.3,-1.4 4.6,-0.1 1.3,1.2 1.4,3.3 0.1,4.6 l -20.9,22.3 c -0.6,0.7 -1.5,1 -2.4,1 z"
       inkscape:connector-curvature="0" /></g><g
     id="XMLID_2163_"
     transform="translate(-127,-79.873558)"><path
       id="XMLID_2318_"
       d="m 648.1,185.2 -15.7,0 c -1.8,0 -3.2,-1.4 -3.2,-3.2 0,-1.8 1.4,-3.2 3.2,-3.2 l 15.7,0 c 1.8,0 3.2,1.4 3.2,3.2 0,1.7 -1.5,3.2 -3.2,3.2 z"
       inkscape:connector-curvature="0" /></g><g
     id="XMLID_2066_"
     transform="translate(-127,-79.873558)"><g
       id="XMLID_1039_"><line
         id="XMLID_2074_"
         class="st2"
         x1="500.10001"
         y1="534.09998"
         x2="500.10001"
         y2="508.10001"
         style="fill:none" /><path
         id="XMLID_2075_"
         d="m 500.1,537.3 c -1.8,0 -3.2,-1.4 -3.2,-3.2 l 0,-26 c 0,-1.8 1.4,-3.2 3.2,-3.2 1.8,0 3.2,1.4 3.2,3.2 l 0,26 c 0.1,1.8 -1.4,3.2 -3.2,3.2 z"
         inkscape:connector-curvature="0" /></g><g
       id="XMLID_1017_"><polygon
         id="XMLID_2069_"
         class="st0"
         points="481.8,484.9 500.1,517.9 517.2,484.9 "
         style="fill:#ffffff" /><path
         id="XMLID_2070_"
         d="m 500.1,521.1 c -1.2,0 -2.2,-0.6 -2.8,-1.7 l -18.3,-33 c -0.6,-1 -0.5,-2.2 0,-3.2 0.6,-1 1.6,-1.6 2.8,-1.6 l 35.4,0 c 1.1,0 2.2,0.6 2.8,1.5 0.6,1 0.6,2.2 0.1,3.2 l -17.1,33 c -0.5,1.2 -1.6,1.8 -2.9,1.8 0.1,0 0.1,0 0,0 z m -12.8,-33 12.7,23 11.9,-23 -24.6,0 z"
         inkscape:connector-curvature="0" /></g><g
       id="XMLID_4020_"><line
         id="XMLID_1886_"
         class="st2"
         x1="487.70001"
         y1="495.5"
         x2="510.20001"
         y2="495.5"
         style="fill:none" /><path
         id="XMLID_2067_"
         d="m 510.2,498.7 -22.5,0 c -1.8,0 -3.2,-1.4 -3.2,-3.2 0,-1.8 1.4,-3.2 3.2,-3.2 l 22.5,0 c 1.8,0 3.2,1.4 3.2,3.2 0,1.8 -1.4,3.2 -3.2,3.2 z"
         inkscape:connector-curvature="0" /></g></g></svg>