<?xml version="1.0" encoding="UTF-8" standalone="no"?>
<svg
   xmlns:dc="http://purl.org/dc/elements/1.1/"
   xmlns:cc="http://creativecommons.org/ns#"
   xmlns:rdf="http://www.w3.org/1999/02/22-rdf-syntax-ns#"
   xmlns:svg="http://www.w3.org/2000/svg"
   xmlns="http://www.w3.org/2000/svg"
   xmlns:sodipodi="http://sodipodi.sourceforge.net/DTD/sodipodi-0.dtd"
   xmlns:inkscape="http://www.inkscape.org/namespaces/inkscape"
   width="705.41071pt"
   height="552.00018pt"
   viewBox="0 0 705.41071 552.00018"
   version="1.1"
   id="svg2"
   inkscape:version="0.91 r13725"
   sodipodi:docname="notif.svg">
  <metadata
     id="metadata222">
    <rdf:RDF>
      <cc:Work
         rdf:about="">
        <dc:format>image/svg+xml</dc:format>
        <dc:type
           rdf:resource="http://purl.org/dc/dcmitype/StillImage" />
        <dc:title></dc:title>
      </cc:Work>
    </rdf:RDF>
  </metadata>
  <defs
     id="defs220" />
  <sodipodi:namedview
     pagecolor="#ffffff"
     bordercolor="#666666"
     borderopacity="1"
     objecttolerance="10"
     gridtolerance="10"
     guidetolerance="10"
     inkscape:pageopacity="0"
     inkscape:pageshadow="2"
     inkscape:window-width="640"
     inkscape:window-height="480"
     id="namedview218"
     showgrid="false"
     fit-margin-top="0"
     fit-margin-left="0"
     fit-margin-right="0"
     fit-margin-bottom="0"
     inkscape:zoom="0.25422993"
     inkscape:cx="-65.437826"
     inkscape:cy="386.77625"
     inkscape:window-x="0"
     inkscape:window-y="0"
     inkscape:window-maximized="0"
     inkscape:current-layer="svg2" />
  <g
     id="#020202ff"
     transform="translate(-123.15231,-118.42084)">
    <path
       d="m 720.5,119.67 c 1.97,-1.32 4.35,-1.32 6.63,-1.2 4.13,3.61 8.57,6.87 12.11,11.11 3.41,-0.6 5.04,-5.46 8.88,-5 1.27,0.64 2.9,1.73 2.45,3.42 -0.15,2.22 -2.47,3.41 -3.91,4.81 -0.94,1.05 -3.41,1.95 -2.06,3.64 3.87,6.3 9.17,12.81 8.73,20.6 -3.39,6.4 -10.98,9.13 -17.91,8.57 0.02,3.07 0.01,6.13 -0.04,9.2 6.88,0.33 13.99,-0.47 20.71,1 2.36,4.28 0.76,9.51 1.14,14.2 4.2,1.9 8.37,3.91 12.21,6.48 6.9,4.67 12.46,10.96 17.93,17.17 2.57,3.07 6.28,5.13 8.18,8.77 2.82,5.17 4.14,11 5.13,16.76 2,13.77 1.25,28.28 -4,41.29 -1.7,4.72 -6.14,7.38 -9.27,11.02 -2.16,2.61 -5.54,3.64 -7.92,5.96 -6.82,6.82 -15.04,12.38 -24.19,15.51 1.14,1.21 2.28,2.44 3.42,3.68 5.09,-2 10.24,-3.87 15.39,-5.72 1.57,-0.7 3.36,-0.38 4.47,1 0.64,4.92 0.18,9.91 0.24,14.86 14.12,-0.02 29.08,3.73 39.27,14.04 7.12,6.82 10.59,16.76 10.47,26.52 -2.6,3.4 -7.28,1.73 -10.93,2.09 0.44,5.04 -2.52,9.54 -2.25,14.55 0.09,34.98 -0.02,69.97 0.06,104.95 -0.2,1.77 0.42,4.14 -1.5,5.15 -3.49,0.67 -7.09,0.25 -10.62,0.29 0.02,2.54 -0.27,5.07 -0.9,7.53 1.07,3.25 1.03,6.67 -0.02,9.92 0.87,2.61 0.93,5.37 0.84,8.1 3.64,0.2 7.58,-0.78 11.04,0.71 2.19,2.87 0.76,6.98 1.15,10.37 0.6,7.63 -4.9,14.19 -11.59,17.11 5.93,4.45 10.52,11.27 10.32,18.93 0.06,22.31 0.01,44.63 0.03,66.95 -0.16,1.36 0.16,3.18 -1.28,3.97 -2.09,1.76 -5.58,-0.2 -5.09,-2.94 -0.14,-8.32 0.05,-16.64 -0.09,-24.95 0.13,-12.69 0,-25.38 0.07,-38.06 -0.03,-3 0.15,-6.04 -0.66,-8.95 -1.96,-8.03 -10.96,-13.51 -19,-11.5 -7.02,1.5 -12.53,8.14 -12.42,15.37 -0.01,27.02 -0.07,54.05 0.03,81.07 -0.15,2.17 0.43,4.79 -1.25,6.52 -1.76,0.64 -4.94,0.6 -5,-1.88 -0.64,-7.92 0.5,-15.93 -0.58,-23.82 0.6,-2.9 0.42,-5.89 0.44,-8.83 -0.05,-17.01 0.01,-34.03 -0.03,-51.04 -0.49,-6.58 1.99,-13.04 6.45,-17.85 -6.91,0.18 -13.83,-0.13 -20.73,0.14 -7.55,0.48 -13.94,7.22 -14.28,14.73 -0.23,4.87 -0.01,9.75 -0.08,14.64 3.37,-0.01 6.75,0 10.14,-0.03 0.95,1.27 1.94,2.65 1.73,4.35 0.01,19.35 -0.01,38.7 0.01,58.05 0.12,1.67 -0.26,3.62 -2.03,4.28 -3.26,0.52 -6.57,0.19 -9.84,0.25 -0.01,4.01 -0.03,8.02 0.01,12.04 -0.02,2.81 0.16,5.64 -0.2,8.45 -0.4,2.97 -4.88,3.19 -5.94,0.63 -0.64,-2.86 -0.28,-5.82 -0.35,-8.71 -0.02,-16.74 0.1,-33.47 -0.07,-50.2 0.1,-5.11 0.08,-10.21 0.09,-15.31 -8.05,-0.51 -16.37,1.08 -24.2,-1.26 -6.59,-2.1 -12.1,-8.12 -12.51,-15.18 -0.31,-6.33 0.12,-12.68 -0.25,-19.01 -1.2,2.84 -2.39,5.79 -2.28,8.93 0.02,28.38 -0.06,56.76 0.05,85.15 -0.14,2 0.3,4.29 -0.91,6.06 -1.69,1.02 -4.45,0.92 -5.23,-1.18 -0.56,-3.45 -0.21,-6.95 -0.27,-10.41 -3.6,-0.58 -8.83,1.58 -11.18,-1.95 -0.64,-11.28 0.06,-22.63 -0.37,-33.93 0.35,-9.24 -0.05,-18.49 0.19,-27.73 -0.11,-1.29 0.64,-2.4 1.71,-3.05 3.19,-0.48 6.43,-0.22 9.65,-0.25 0.14,-5.55 -0.34,-11.13 0.29,-16.66 0.62,-4.99 3.53,-9.24 6.87,-12.84 -6.98,0.17 -13.97,-0.1 -20.94,0.11 -8,0.31 -14.95,7.67 -14.66,15.7 0.01,20.65 -0.04,41.29 0.03,61.94 -0.12,2.43 0.43,5.18 -1.1,7.29 -1.24,1.14 -3.06,0.97 -4.44,0.24 -1.3,-1.51 -1.03,-3.57 -1.11,-5.39 0.06,-10.31 0,-20.62 0.04,-30.93 -16.85,-0.61 -33.74,-0.1 -50.61,-0.27 -125.01,-0.03 -250.02,0.09 -375.03,-0.04 -2.48,0.46 -4.28,-2.69 -2.87,-4.65 0.69,-1.5 2.41,-1.68 3.85,-1.63 141.54,0.02 283.08,-0.03 424.61,0.02 0.1,-8.82 -0.03,-17.64 0.05,-26.45 0,-3.08 0.8,-6.07 1.77,-8.97 -158.81,-0.03 -317.62,-0.01 -476.43,-0.01 -2.38,0.42 -5.54,-1.15 -4.64,-3.99 0.13,-2.23 2.89,-2.48 4.62,-2.46 159.68,0.02 319.37,0.01 479.05,0 2.48,0.13 4.2,-2.05 5.87,-3.58 -2.72,-2.82 -6.57,-4.94 -8.56,-8.63 -175.78,-0.18 -351.57,0.03 -527.34,-0.11 -4.54,0.51 -4.63,-6.85 -0.05,-6.45 175.09,-0.2 350.2,0 525.3,-0.1 0.25,-3.97 -0.67,-8.17 0.65,-11.98 3.51,-1.44 7.43,-0.73 11.13,-0.94 -0.19,-0.52 -0.57,-1.56 -0.75,-2.08 -29.06,0.04 -58.12,0.01 -87.18,0.02 -8.02,0.06 -16.06,-0.29 -24.06,0.56 -20.68,0.19 -41.37,0.11 -62.06,-0.02 -13.27,-1.01 -26.59,-0.36 -39.89,-0.54 -99.71,0 -199.42,0.01 -299.13,-0.01 -1.4,-0.08 -3.4,-0.06 -3.71,-1.81 -1.26,-1.92 0.71,-4.64 2.86,-4.45 5.67,-0.17 11.36,0.03 17.04,-0.05 0.03,-13.86 -0.05,-27.71 0.03,-41.56 -0.14,-1.83 0.68,-4 2.82,-4.03 9.32,-0.39 18.67,-0.01 28,-0.18 2.15,0.15 5.35,-0.47 6.35,2.06 0.49,2.98 0.2,6.03 0.3,9.04 4.88,1.02 9.17,4.54 10.77,9.31 0.93,3.59 1.01,7.46 -0.03,11.05 -1.63,4.76 -5.9,8.19 -10.76,9.24 -0.02,1.68 -0.03,3.36 -0.04,5.06 8.45,0.02 16.9,0.03 25.34,0 0,-40.15 -0.04,-80.29 0.02,-120.44 -0.18,-9.03 4.96,-17.97 13.07,-22.05 7.39,-4.17 16.13,-2.27 24.19,-2.74 0.92,-1.51 1.85,-3.01 2.81,-4.49 -0.64,-3.95 -2.62,-7.65 -2.71,-11.67 -0.09,-2.05 2.33,-2.36 3.68,-3.21 -3.11,-9.69 -6.76,-19.19 -9.9,-28.85 -3.28,-10.26 -0.04,-22.36 8.61,-29 -1.78,-5.44 -4.39,-10.62 -5.5,-16.27 1.78,-1.02 3.62,-1.95 5.5,-2.79 -1.73,-4.86 -3.65,-9.64 -5.52,-14.44 -0.89,-2.93 -4.91,-4.15 -4.59,-7.53 0.04,-4.67 6.91,-7.07 9.65,-3.07 2.66,2.44 -0.5,6.05 1.1,8.88 1.8,4.64 3.75,9.21 5.49,13.87 1.94,-0.72 3.92,-1.37 5.76,-2.33 0.94,-1.59 0.56,-3.52 0.67,-5.27 -0.17,-18.35 0.01,-36.7 -0.04,-55.05 -0.47,-8.8 5.66,-17.12 13.86,-20 5.79,-1.92 12.07,-1.38 18.03,-0.63 3.79,0.43 7.18,2.4 9.97,4.93 5.66,-3.51 12.22,-5.55 18.9,-5.56 15.02,-0.02 30.03,-0.01 45.05,0 6.27,-0.08 12.66,2.77 16.31,7.96 3.95,5.25 5.2,12.75 2.11,18.71 -1.4,2.98 -3.94,5.15 -6.38,7.25 5.21,3.9 9.1,9.64 10,16.16 1.1,6.75 -0.95,13.84 1.47,20.39 -0.46,1.92 -1.32,3.78 -1.19,5.81 0.07,13 -0.02,26 0.03,39.01 0,8.11 -3.79,16.11 -10.06,21.25 -1.98,1.67 -4.54,2.52 -6.41,4.31 -1.6,3.03 -2.67,6.52 -5.44,8.75 -2.77,2.51 -6.61,3.06 -10.2,3.17 0,1.76 0,3.53 -0.01,5.3 1.97,-0.93 4.09,-1.46 6.28,-1.5 0.71,1.58 1.21,3.25 1.53,4.96 6.92,0.3 13.93,1.95 19.61,6.08 8.71,5.84 13.66,16.28 13.56,26.67 0.01,34.9 -0.01,69.79 0.01,104.68 11.18,5.18 23.41,8.37 35.79,8.1 2.12,0.08 5.82,0.06 5.73,3.05 0.3,5.86 0,11.74 0.11,17.61 7.71,-0.01 15.42,0.06 23.13,-0.04 4.35,-23.16 8.7,-46.32 13.03,-69.48 0.21,-1.64 1.06,-3.75 3.05,-3.6 20.99,-0.51 42,-0.25 62.99,-0.11 1.71,-0.04 3.98,0.1 4.53,2.11 0.29,2.78 -0.67,5.51 -1.16,8.22 -3.41,16.74 -6.58,33.52 -9.98,50.26 -0.97,4.24 0.27,8.52 1.14,12.66 35.54,-0.01 71.09,-0.05 106.64,0.02 -0.97,-3.16 -0.87,-6.47 0.1,-9.62 -0.64,-2.45 -0.89,-4.96 -0.84,-7.47 -3.44,0.07 -6.88,0.05 -10.31,-0.2 -0.19,-21.09 0.03,-42.18 -0.11,-63.26 -7.12,-3.87 -14.35,-7.56 -21.33,-11.67 -1.94,-1 -0.87,-3.42 -1.02,-5.09 -14.02,0.87 -28.12,0.27 -42.11,-0.83 -1.36,-4.67 -0.82,-9.59 -0.92,-14.38 -0.09,-1.62 0.41,-3.84 2.38,-3.95 4.11,-0.51 8.27,-0.09 12.41,-0.14 -0.07,-4.02 -0.72,-8.14 0.18,-12.1 1.7,-1.65 4.23,-1 6.36,-1.1 11.93,0.6 24.35,2.93 34.21,10.08 0.92,-1.06 1.78,-2.17 2.84,-3.09 2.65,-1.01 4.89,1.5 7.26,2.32 -0.67,-1.78 -2.64,-2.28 -4.09,-3.22 -6.25,-3.19 -10.48,-9.54 -11.71,-16.38 -2.47,-1.97 -4.95,-3.95 -7.8,-5.33 -1.53,-1.73 -3.07,-3.46 -4.88,-4.9 -8.85,-7.15 -17.67,-14.35 -26.45,-21.58 -0.26,4.28 -0.67,8.55 -1.04,12.82 -3.16,0.45 -6.36,0.47 -9.55,0.37 -1.95,4.38 -7.09,2.67 -10.86,2.85 -2.09,4.53 -7.46,2.61 -11.37,2.7 -0.42,1.16 -0.83,2.32 -1.23,3.49 -14.44,-0.45 -28.86,-0.89 -43.3,-1.29 -10.1,-0.7 -20.25,-1.23 -30.38,-1.02 -10.26,-0.03 -20.53,-0.38 -30.76,-1.12 -0.31,-0.54 -0.93,-1.61 -1.23,-2.15 1.39,-42.35 2.97,-84.69 4.39,-127.04 -1.16,-0.59 -2.56,-0.92 -3.37,-2 -0.73,-8.75 0.72,-17.49 0.64,-26.24 0.11,-3.02 -0.11,-6.09 0.51,-9.06 0.26,-1.47 1.75,-2.22 3.14,-2.21 17.47,0.5 34.94,1.11 52.4,1.77 3.68,-6.13 6.12,-13.08 10.51,-18.73 4.56,-0.02 8.73,2.41 13.21,3.14 3.15,5.35 5.11,11.31 8.2,16.69 17.55,0.75 35.14,1.18 52.69,2 2.32,-0.04 3.22,2.49 2.91,4.45 -0.32,9.98 -0.66,19.97 -1.15,29.94 -2.11,11.22 -0.74,22.7 -1.94,34.01 -0.23,10.95 -0.84,21.92 -0.55,32.88 15.07,12.01 29.86,24.36 44.85,36.46 9.59,-5.65 20.95,-9.38 32.15,-7.55 3.93,0.57 7.41,2.62 10.3,5.27 0.13,-5.04 -0.27,-10.1 0.22,-15.12 0.86,-1.99 3.72,-2.26 5.29,-0.97 4.51,3.33 8.45,7.41 13.23,10.39 -0.47,-2.41 -1.27,-4.88 -0.81,-7.34 0.62,-1.49 1.69,-2.72 2.6,-4.03 -6.93,-2.53 -13.37,-6.35 -19.01,-11.1 -4.84,-4.28 -11.1,-6.71 -15.44,-11.59 -9.17,-10.55 -15.09,-24.24 -15.04,-38.34 0.33,-12.29 4.99,-24.25 12.44,-33.97 3.8,-5.13 9.39,-8.48 13.51,-13.32 5.75,-6.53 13.45,-10.79 21.26,-14.35 0.32,-4.96 -1.58,-10.54 1.28,-15 6.76,-0.06 13.51,-0.34 20.28,-0.51 -0.12,-3.64 -0.14,-7.29 -0.12,-10.94 -8.15,-4.45 -14.94,-11.99 -16.71,-21.31 -2.2,-8.38 0.9,-18.74 8.97,-22.85 m 6.56,6.59 c 1.51,3.13 2.81,6.44 4.98,9.21 0.63,-0.04 1.9,-0.1 2.53,-0.13 -0.63,-4.13 -4.89,-6.25 -7.51,-9.08 m -9.64,14.91 c 1.71,8.11 7.94,14.88 15.63,17.82 3.13,0.77 6.36,0.54 9.55,0.25 0.04,-0.77 0.07,-1.54 0.07,-2.31 -9.56,-7.89 -16.97,-18.32 -22,-29.62 -3.96,3.34 -3.88,9.15 -3.25,13.86 m 18.83,0.61 c 3.37,3.52 6.31,7.53 10.38,10.33 -0.24,-0.39 -0.7,-1.17 -0.93,-1.56 -1.65,-4.11 -4.33,-7.65 -6.72,-11.33 -0.91,0.85 -1.84,1.7 -2.73,2.56 m -205.73,38.54 c -3.75,7.06 -7.32,14.2 -11.11,21.23 1.88,0.63 3.77,1.23 5.68,1.82 3.16,-7.62 6.62,-15.1 9.67,-22.76 -1.4,-0.04 -2.87,-0.81 -4.24,-0.29 m 183.74,7.53 c 11.54,-3.31 23.98,-3.43 35.55,-0.16 -0.03,-2.03 -0.06,-4.07 -0.11,-6.1 -11.81,0.02 -23.62,0.12 -35.42,-0.05 0.03,2.1 -0.22,4.2 -0.02,6.31 m -177.27,4.18 c 1.6,0.08 3.21,0.17 4.82,0.25 -0.82,-1.81 -1.64,-3.61 -2.48,-5.4 -0.79,1.71 -1.58,3.42 -2.34,5.15 m -237.21,-1.37 c -5.86,2.25 -10.49,7.87 -10.29,14.32 -0.04,19.24 -0.02,38.49 -0.01,57.74 0.4,-0.11 1.2,-0.35 1.6,-0.46 1.1,-0.43 2.2,-0.86 3.31,-1.29 1.03,-5.03 3.56,-9.72 7.89,-12.63 0.11,-5.41 -0.58,-11.03 1.27,-16.23 3.52,-10.73 14.18,-18.6 25.49,-18.72 18.33,-0.08 36.66,0.05 54.99,-0.2 4.94,-0.25 10.66,1.33 14.82,-2.16 4.16,-3.08 4.95,-9.19 2.48,-13.57 -2.21,-4.56 -7.26,-7.45 -12.28,-7.33 -15,-0.02 -30,-0.02 -45,0 -9.2,-0.07 -18.18,4.8 -23.26,12.46 -1.05,1.28 -1.74,3.49 -3.79,3.19 -2.13,0.36 -3.89,-1.85 -3.27,-3.86 1.47,-3.32 4.03,-5.95 6.2,-8.81 -5.94,-3.86 -13.45,-3.21 -20.15,-2.45 m 418.2,2.38 c 9.57,1.13 18.34,5.28 26.69,9.83 3.6,-2.75 7.76,-4.6 11.96,-6.22 l 0,-0.31 c -12.13,-5.11 -25.82,-6.26 -38.65,-3.3 m -249.8,3.21 c -0.64,8.75 -0.75,17.53 -0.94,26.29 33.79,1.27 67.61,2.28 101.4,3.64 0.05,-8.84 0.76,-17.64 0.85,-26.48 -11.82,-0.19 -23.62,-0.7 -35.43,-1.03 -1.4,3.49 -2.97,6.92 -4.35,10.42 1.68,0.05 3.38,0.1 5.07,0.13 2.33,-3.43 7.22,-5.25 10.83,-2.62 4.85,2.8 4.13,11.05 -1.15,12.96 -3.8,1.85 -7.99,-0.48 -9.97,-3.83 -11.28,-0.42 -22.55,-1 -33.83,-1.2 -2.45,3.71 -7.88,5.56 -11.46,2.3 -4.49,-3.22 -3.25,-10.8 1.91,-12.57 3.92,-1.98 7.8,0.89 10.03,3.98 6.67,0.05 13.34,0.57 20.01,0.22 -2.84,-0.55 -5.65,-1.22 -8.42,-2.02 -0.37,-0.6 -1.11,-1.81 -1.48,-2.41 0.79,-2.13 1.74,-4.19 2.72,-6.23 -15.28,-0.24 -30.52,-1.15 -45.79,-1.55 m 227.81,7.2 c 3.7,-0.17 7.47,-0.22 11.08,0.78 12.03,2.45 21.24,12.17 26.46,22.86 5.06,11.5 7.24,24.65 4.36,37.02 -2.35,13.39 -9.84,26.32 -21.79,33.26 -4.62,2.88 -10.11,3.62 -15.36,4.54 8.62,5.71 18.99,8.65 29.29,9.02 15.57,0.84 31.07,-5.11 42.75,-15.31 -6.31,-3.39 -9.93,-10.04 -11.86,-16.68 -5.28,-17.78 -5.13,-37.22 0.68,-54.85 2.17,-6.47 6.34,-13.24 13.32,-15.14 -3.36,-3.22 -7.01,-6.13 -10.93,-8.62 -6.27,1.65 -12.16,4.48 -17.44,8.22 -1.21,1.08 -3.1,1.1 -4.32,0.04 -5.74,-4.17 -12.29,-7.29 -19.28,-8.66 -8.93,-1.44 -19.37,-2.4 -26.96,3.52 m -120.1,-3.23 c -0.35,8.7 -0.61,17.41 -0.73,26.13 7.06,0.32 14.15,0.24 21.2,0.85 0.25,-0.13 0.76,-0.4 1.02,-0.53 0.5,-8.61 0.65,-17.24 0.97,-25.85 -7.49,-0.2 -14.97,-0.61 -22.46,-0.6 m 117.4,10.25 c 7.7,-0.16 15.08,3.37 20.64,8.54 16.67,17.04 17.24,46.81 2.01,64.96 -5.54,6.43 -13.61,10.14 -21.98,11.04 4.35,0.76 8.92,0.91 13.17,-0.48 8.8,-2.51 15.65,-9.48 19.89,-17.37 5.47,-10.06 6.68,-21.91 5.27,-33.13 -1.63,-10.97 -6.76,-21.77 -15.62,-28.7 -6.51,-4.97 -15.43,-7.55 -23.38,-4.86 m 76.94,9.69 c -4.33,7.11 -5.74,15.54 -6.66,23.69 -0.84,13.4 -0.26,27.56 5.87,39.78 2.07,4.45 6.97,8.49 11.98,5.59 -3.48,-2.69 -6.56,-6 -7.96,-10.25 -5.36,-15.3 -5.64,-32.31 -1.55,-47.95 1.32,-5.6 3.97,-11.09 8.78,-14.49 0.39,-1.49 -1.7,-1.33 -2.56,-1.77 -3.55,-0.31 -6.16,2.7 -7.9,5.4 m -88.27,-1.26 c -7,3.98 -11.72,11.03 -14.35,18.49 -3.95,11.62 -3.29,24.92 2.42,35.85 3.56,7.02 9.64,13.08 17.35,15.26 7.29,2.38 15.43,-0.16 21.14,-4.98 6.01,-4.95 9.57,-12.11 11.67,-19.47 1.84,-8.55 1.85,-17.61 -0.98,-25.94 -2.42,-7.77 -7.32,-14.98 -14.41,-19.17 -6.85,-4.15 -15.99,-4.24 -22.84,-0.04 m -369.37,9.68 c -3.87,4.95 -4.24,11.48 -3.95,17.5 2.58,-0.27 4.91,0.41 5.94,2.94 -0.82,1.24 -1.17,3.24 -3.02,3.23 -3.58,0.23 -6.81,1.91 -9.22,4.52 0.93,0 2.8,0 3.73,0 0.51,0.28 1.53,0.82 2.04,1.1 3.49,8.94 6.68,17.99 10.12,26.95 4.14,11.61 8.97,22.99 12.67,34.75 4.5,1.05 9.15,0.35 13.72,0.56 -1.06,-1.71 -1.55,-3.65 -1.29,-5.65 1.73,-1 4.5,-1.96 5.7,0.31 3.65,6 8.02,12.76 15.14,14.82 6.28,0.25 12.62,0.3 18.9,-0.04 4.39,-1.29 4.85,-6.39 6.61,-9.88 2.04,-1.36 4.4,-2.19 6.41,-3.62 5.12,-3.63 8.68,-9.68 8.63,-16.04 0.07,-9.23 0.01,-18.46 0.03,-27.68 -7.03,-0.02 -14.05,0.03 -21.08,-0.03 -0.45,-0.75 -0.89,-1.48 -1.34,-2.22 0.5,3.73 2.06,7.17 3.11,10.75 1.42,4.33 -1.89,9.3 -6.34,9.9 -3.34,0.23 -6.72,0.28 -10.05,-0.04 -2.64,-0.9 -2.83,-4.91 -0.22,-5.98 3.51,-0.58 7.12,-0.04 10.65,-0.53 -1.58,-6.68 -4.15,-13.06 -6.19,-19.6 -0.36,-1.45 -1.26,-3.12 -0.31,-4.52 1.03,-1.9 4.14,-2.3 5.28,-0.32 1.66,3.1 2.49,6.59 3.13,10.03 1.1,-5.64 3.2,-11.96 8.7,-14.74 4.79,-2.71 10.51,-1.46 15.22,0.76 -2.47,-3.68 -6.55,-5.8 -9.88,-8.59 -1.61,-2.5 0.1,-4.9 2.53,-5.85 2.43,1.39 4.67,3.09 6.76,4.95 -0.27,-5.7 1.08,-11.94 -1.91,-17.14 -3.04,-5.7 -9.36,-9.43 -15.82,-9.34 -18.98,-0.04 -37.97,-0.02 -56.96,-0.01 -6.78,-0.09 -13.52,3.19 -17.44,8.75 m 472.39,-7.82 c -5.08,1.85 -6.7,7.64 -8.13,12.31 -3.22,13.44 -3.2,27.84 0.64,41.15 1.45,3.8 3,8.84 7.41,10.02 4.73,-0.08 6.66,-5.44 8.12,-9.15 4.23,-13.71 4.27,-28.69 0.76,-42.56 -1.43,-4.58 -3.27,-10.93 -8.8,-11.77 m -314.51,8.61 c -0.17,5.52 -0.02,11.07 -0.63,16.57 -0.39,10.01 -0.21,20.04 -1.11,30.02 -0.27,18.78 -1.52,37.51 -1.57,56.3 7.63,0.23 15.26,0.38 22.88,0.66 9.59,0.98 19.3,0.13 28.87,1.22 13.92,0.29 27.82,0.86 41.73,1.3 0.37,-11.8 0.97,-23.6 1.1,-35.42 1.01,-10.93 0.46,-21.95 1.41,-32.88 0.58,-9.97 0,-20.02 1.07,-29.95 0.04,-1.56 0.08,-3.12 0.14,-4.67 -4.62,-0.42 -9.26,-0.18 -13.88,-0.39 -9.44,-1.01 -18.96,-0.39 -28.42,-1.13 -17.2,-0.46 -34.38,-1.49 -51.59,-1.63 m 96.77,102.42 c 1.5,0.01 3,0.02 4.51,0.03 0.9,-33.06 2.49,-66.11 3.3,-99.17 -1.1,0.04 -3.3,0.12 -4.4,0.17 -1.04,32.99 -2.32,65.97 -3.41,98.97 m 14.35,-98.65 c -0.21,6.95 -0.2,13.92 -0.8,20.86 -0.5,8.63 0.05,17.33 -0.93,25.92 -0.28,16.3 -1.16,32.57 -1.58,48.87 1.41,0.08 2.84,0.14 4.28,0.16 0.32,-14.39 1.12,-28.76 1.24,-43.16 l 0.4,-0.65 c 0.34,-9.69 0.17,-19.41 0.91,-29.08 0.22,-7.63 0.38,-15.27 0.56,-22.91 -1.37,0 -2.73,-0.01 -4.08,-0.01 m 8.7,60.91 c -0.83,10.73 -0.83,21.5 -1.11,32.25 1.02,0.02 3.06,0.06 4.08,0.08 1.01,-30.95 2.06,-61.87 3.23,-92.82 -1.03,-0.04 -3.11,-0.12 -4.14,-0.16 -0.71,20.21 -1.69,40.42 -2.06,60.65 M 388.98,265.73 c 3.07,0.13 6.14,0.11 9.21,0.1 0.2,-0.7 0.59,-2.12 0.79,-2.82 0.46,-0.29 1.36,-0.87 1.81,-1.16 -0.07,-1.65 -2.28,-1.64 -3.46,-2.01 -3.9,-0.54 -6.89,2.62 -8.35,5.89 m -88.82,-0.23 c 1.74,4.41 3.19,8.95 5.01,13.34 1.19,3.38 2.43,6.75 3.75,10.08 2.16,4.08 2.95,8.7 5.23,12.73 1.63,6.63 4.46,12.87 6.65,19.33 1.33,-0.25 2.72,-0.48 3.75,-1.46 -0.87,-1.84 -1.62,-3.71 -2.34,-5.6 -1.52,-3.93 -2.91,-7.9 -4.45,-11.81 -2.02,-5.32 -3.89,-10.7 -5.95,-16 -1.01,-2.67 -1.93,-5.36 -3,-8.01 -1.72,-4.48 -3.32,-9 -5.02,-13.49 -1.24,0.05 -2.45,0.35 -3.63,0.89 m -21.31,8.32 c -1.63,0.81 -3.34,1.44 -5.08,1.99 -0.28,0.24 -0.84,0.72 -1.12,0.96 1.7,2.9 2.61,6.16 3.87,9.26 4.83,-1.86 9.47,-4.2 14.36,-5.89 2.93,-1.12 6.04,-0.04 8.76,1.15 -2.5,-4.08 -3.57,-8.82 -5.42,-13.2 -5.23,1.59 -10.28,3.72 -15.37,5.73 m 7.96,14.87 c -5.1,2.47 -11.18,3.65 -15,8.16 -4.81,5.45 -5.58,13.58 -3.27,20.3 3.12,9.32 6.45,18.57 9.74,27.84 7.73,-2.04 15.36,-4.44 23.01,-6.79 -0.06,-0.7 -0.11,-1.41 -0.15,-2.1 -3.96,0.36 -7.77,1.5 -11.61,2.42 -1.56,-2.06 -2.42,-4.54 -3.49,-6.86 -1.84,0.16 -3.68,0.12 -5.45,-0.42 -0.83,-2.78 0.31,-5.21 2.99,-6.24 0.82,-2.77 -0.48,-5.77 0.94,-8.4 7.54,-3.13 15.16,-6.12 22.58,-9.53 2.48,-0.39 1.54,-4.82 -0.9,-3.91 -6.45,2.39 -12.75,5.23 -19.1,7.88 -1.19,0.44 -2.48,1.04 -3.74,0.5 -2.35,-0.73 -2.86,-4.7 -0.38,-5.62 7.24,-3.58 15.01,-5.98 22.19,-9.7 -0.51,-0.73 -1.52,-2.2 -2.03,-2.93 -6.35,2 -12.32,5.12 -18.54,7.51 -1.8,0.59 -3.62,1.85 -5.59,1.36 -1.84,-1.04 -2.33,-3.56 -1.12,-5.25 6.06,-3.61 13.29,-4.91 19.16,-8.88 -2.81,-3.76 -6.98,-0.56 -10.24,0.66 M 600.74,304 c -0.6,4 -0.45,8.05 -0.62,12.08 -0.63,4.98 -0.35,10.02 -0.59,15.03 2.78,2.41 5.65,4.72 8.52,7.03 4.81,-5.54 9.86,-10.91 14.27,-16.79 -7.31,-5.64 -14.23,-11.77 -21.58,-17.35 m -310.19,17.49 c 0.11,3.67 1.86,6.98 3.1,10.35 7.02,-2.6 13.91,-5.58 21.04,-7.86 -0.59,-3.99 -2.6,-7.56 -3.69,-11.41 -6.79,3.02 -13.97,5.33 -20.45,8.92 m 422.51,-3.78 c -0.1,0.62 -0.3,1.86 -0.4,2.48 10.78,0.09 21.56,-0.01 32.34,0.06 2.3,0.08 4.56,-0.33 6.81,-0.83 -0.04,-0.47 -0.1,-1.4 -0.13,-1.87 -12.88,0.14 -25.76,-0.18 -38.62,0.16 m 6,20.36 c -0.11,5.21 -0.07,10.42 -0.02,15.63 14.38,-5.42 28.74,-10.9 43.12,-16.31 4.69,-1.07 6.38,-6.21 10.4,-8.43 0.02,-3.55 0.02,-7.09 -0.02,-10.63 -17.82,6.58 -35.61,13.28 -53.48,19.74 m -24.01,-15.04 c -0.1,4.36 -0.12,8.72 -0.01,13.09 5.89,4.92 11.55,10.12 17.44,15.05 0.11,-4.59 0.05,-9.18 0.06,-13.76 -5.88,-4.74 -11.64,-9.61 -17.49,-14.38 m 18,2.76 c -0.1,0.61 -0.29,1.84 -0.39,2.45 6.94,-0.31 14.45,1.39 20.71,-2.47 -6.77,-0.18 -13.56,-0.28 -20.32,0.02 m -85.55,0.11 c -4.79,5.46 -9.53,10.96 -14.27,16.45 5.41,4.59 11.06,8.89 16.38,13.58 1.83,-7.33 5.51,-14.2 11.11,-19.34 -4.32,-3.67 -8.64,-7.35 -13.22,-10.69 m -298.71,0.67 c 0,2.56 0,5.13 -0.03,7.7 0.3,0.47 0.89,1.4 1.18,1.87 10.31,4.65 20.45,9.68 30.8,14.22 3.9,-1.87 7.82,-3.71 11.82,-5.35 0.15,-2.88 0.14,-5.76 0.13,-8.63 -3.87,-0.15 -7.95,0.58 -11.62,-0.96 -4.9,-1.55 -8.34,-5.5 -12.08,-8.77 -6.73,-0.28 -13.47,-0.06 -20.2,-0.08 m -21.51,6.93 c -0.02,0.51 -0.06,1.51 -0.09,2.02 1.63,0.4 3.27,0.79 4.92,1.14 0.44,1.2 0.89,2.4 1.36,3.61 0.19,-2.74 0.04,-5.51 0.49,-8.22 1.92,-3.7 5.89,-0.49 8.51,0.6 0.03,-1.58 0.05,-3.15 0.08,-4.71 -5.3,1.25 -10.18,3.72 -15.27,5.56 m 333.23,13.1 c -2.46,4.09 -4.92,8.92 -4.42,13.8 10.75,-0.15 21.51,-0.04 32.27,-0.06 1.12,-9.74 3.31,-21.96 13.44,-26.24 0.02,-0.36 0.07,-1.1 0.09,-1.46 -5.3,-2.51 -11.42,-2.38 -17.02,-1.02 -9.41,2.17 -18.74,6.86 -24.36,14.98 m -51.77,-14.02 c -0.16,4.59 -0.3,9.18 -0.43,13.77 1.05,0.03 3.15,0.09 4.19,0.12 0.12,-4.62 0.26,-9.22 0.3,-13.83 -1.36,-0.03 -2.72,-0.05 -4.06,-0.06 m 189.01,1.09 c -2.12,1.18 -4.38,2.34 -5.64,4.5 -4.76,7.34 -5.13,16.46 -4.94,24.94 18.19,-0.01 36.38,0.01 54.57,-0.01 -0.53,-8.05 -4.94,-15.54 -11.29,-20.41 -9.17,-7.13 -21.25,-9.95 -32.7,-9.02 M 577.6,349.31 c 1.01,0.03 3.03,0.1 4.04,0.14 0.22,-4.62 0.76,-9.21 0.75,-13.83 -1.03,-0.07 -3.09,-0.2 -4.12,-0.26 -0.84,4.6 -0.51,9.29 -0.67,13.95 M 466.59,338.55 c -0.13,4.59 -0.28,9.19 -0.35,13.79 5.93,0.22 11.88,0.23 17.81,0.59 9.93,0.8 19.96,0.18 29.86,1.21 15.3,0.27 30.57,0.95 45.85,1.49 0.74,-4.56 0.53,-9.19 0.7,-13.78 -31.29,-1.08 -62.59,-2.2 -93.87,-3.3 m 100.18,-0.72 c -0.19,2.86 -0.3,5.73 -0.07,8.59 -0.18,1.83 -0.2,3.67 -0.25,5.51 1.6,0.2 3.21,0.36 4.83,0.53 0.19,-4.76 0.38,-9.52 0.51,-14.28 -1.68,-0.13 -3.36,-0.25 -5.02,-0.35 m -246.51,0.93 c -0.05,2.39 -0.06,4.78 -0.06,7.18 12.49,6.02 24.99,12.04 37.49,18.04 0.04,-2.61 0.04,-5.21 -0.01,-7.81 -12.47,-5.81 -24.9,-11.72 -37.42,-17.41 m 361.07,2.88 -0.4,0.04 c -4.87,6.79 -5.91,15.24 -6.52,23.34 -0.32,0.34 -0.96,1.02 -1.28,1.35 -4.5,0.65 -9.09,0.12 -13.62,0.28 -0.02,9.17 -0.02,18.35 0.01,27.52 5.83,2.67 12.43,0.33 18.53,1.58 3.04,2.03 1.25,6.3 1.77,9.34 6.95,3.38 13.49,7.54 20.45,10.92 3.62,-12.72 6.78,-25.56 10.27,-38.32 -5.51,-3.11 -7.96,-9.91 -5.9,-15.88 1.22,-1.86 2.54,-3.64 4.05,-5.28 -5.7,-5.07 -11.5,-10.01 -17.2,-15.07 -0.83,-0.76 -1.65,-1.52 -2.46,-2.28 -2.65,0.41 -5.58,0.62 -7.7,2.46 m -406.05,11.11 c 1.16,4.02 2.46,7.99 3.6,12.02 10.81,-2.83 21.38,-6.5 32.15,-9.47 -1.11,-4.1 -2.35,-8.17 -3.7,-12.2 -10.67,3.24 -21.34,6.5 -32.05,9.65 m 450.86,5.12 c 2.01,2.6 3.62,5.72 3.34,9.12 0.02,5.13 -3.74,9.5 -8.33,11.37 2.78,10.42 5.65,20.82 8.39,31.25 13.47,-11.9 26.85,-23.89 40.34,-35.77 -0.03,-1.47 -0.05,-2.94 -0.06,-4.4 -2.98,-0.36 -7.76,1.37 -8.89,-2.51 -0.7,-7.62 -0.21,-15.37 1.56,-22.83 -12.1,4.64 -24.22,9.22 -36.35,13.77 m -362.02,-2.04 c -0.01,2.74 -0.01,5.48 0.05,8.22 5.44,-2.93 10.71,-6.17 16.19,-9.03 0.01,-2.19 0.02,-4.38 0.02,-6.57 -5.43,2.43 -10.87,4.85 -16.26,7.38 m 22.65,-3.7 c -0.28,2.56 0.96,6.23 -1.94,7.64 -4.47,2.73 -9.17,5.05 -13.67,7.73 0.41,2.95 3.39,5.22 3.19,8.47 0.69,5.38 -2.55,10.39 -7.02,13.11 4.85,18.38 10.02,36.67 14.95,55.02 0.79,1.81 0.07,3.65 -1.37,4.86 -6.3,6.37 -12.22,13.1 -18.49,19.48 -1.21,1.52 -3.83,1.62 -4.94,-0.05 -5.18,-6.06 -10.05,-12.38 -15.17,-18.48 -1.06,-1.36 -2.62,-2.87 -1.91,-4.76 4.98,-18.7 10.11,-37.37 15.14,-56.06 -2.91,-2.03 -5.72,-4.61 -6.65,-8.16 -1.44,-4.36 0.02,-9.09 2.86,-12.54 -9.08,-4.66 -18.37,-8.9 -27.54,-13.37 -2.07,-1.2 -4.51,-0.72 -6.77,-0.76 0.36,1.29 0.73,2.56 1.1,3.86 -0.67,0.81 -1.33,1.61 -1.99,2.43 5.87,22.07 11.55,44.2 16.7,66.46 3.17,15.73 -4.56,33.07 -19.03,40.36 -10.81,4.9 -23.62,4.29 -34.5,-0.09 0.03,7.76 0,15.53 0.02,23.3 13.89,-1.16 27.39,-6.13 38.98,-13.84 8.42,-4.13 18.16,-3.02 27.24,-3.72 4.35,-0.54 8.7,0.26 13.05,0.25 11.91,0.38 23.82,-0.36 35.73,0.2 0.03,-28.09 0.06,-56.18 -0.02,-84.27 -2.34,-2.84 -5.09,-5.34 -7.29,-8.29 -1.54,-3.14 1.75,-5.65 4.64,-4.43 1.55,1.89 3.11,3.81 4.93,5.47 2.47,-1.34 2.66,-5.58 5.94,-5.83 1.76,-0.06 2.62,1.6 3.68,2.7 -1.37,4.61 -6.23,7.96 -5.4,13.14 0.04,27.12 0.01,54.24 0.01,81.37 4.56,0.79 8.6,3.1 12.33,5.73 0.09,-34.38 0.05,-68.76 0.02,-103.14 -0.09,-13.59 -13.37,-25.19 -26.81,-23.79 m 323.58,14.84 c 0.19,4.4 5.75,7.12 9.45,4.84 2,-0.8 2.7,-3.02 3.59,-4.78 -0.62,-2.43 -1.59,-5.31 -4.31,-6.04 -3.95,-1.78 -9.16,1.57 -8.73,5.98 m -427.83,3.75 c 6.56,22.19 11.81,44.77 17.26,67.25 0.78,1.82 0.16,3.68 -0.56,5.39 -3.4,0.41 -6.82,0.4 -10.22,0.24 -0.58,-0.56 -1.15,-1.1 -1.73,-1.63 0.05,-1.13 0.18,-2.24 0.38,-3.33 1.34,-1.51 3.49,-1.21 5.29,-1.44 -4.73,-21.1 -10.46,-41.97 -15.85,-62.91 -0.26,-1.9 -2.06,-2.78 -3.34,-3.94 -1.76,4.33 -2.69,9 -2.59,13.68 0.05,17.34 -0.05,34.68 0.05,52.02 0.22,7.47 1.15,15.65 6.37,21.44 4.62,5.15 11.85,6.51 18.45,6.86 6.94,0.38 14.21,-1.25 19.73,-5.65 8.75,-6.56 12.96,-18.14 11.43,-28.85 -1.42,-7.37 -3.41,-14.61 -5.06,-21.92 -3.49,-13.24 -6.64,-26.57 -10.26,-39.78 -0.5,-1.99 -1.02,-3.98 -1.54,-5.96 -9.29,2.8 -18.63,5.42 -27.81,8.53 m 362.08,-4.04 c -0.19,6.66 3.59,12.99 9.46,16.09 0.03,-5.37 0.01,-10.74 0.01,-16.11 -3.16,-0.01 -6.32,-0.02 -9.47,0.02 m 131.64,2.81 c 0.14,3.12 0.56,6.33 2.25,9.04 4.12,7.69 14.54,11.01 22.39,7.26 6.54,-2.54 10.33,-9.45 10.44,-16.27 -11.7,-0.15 -23.39,-0.08 -35.08,-0.03 m -421.06,5.75 c -1.74,4.15 2.39,9.32 6.87,8.5 3.68,0.04 5.63,-3.53 6.26,-6.69 -0.76,-2.1 -1.5,-4.48 -3.66,-5.54 -3.42,-2.23 -8.42,-0.14 -9.47,3.73 m -117.45,10.72 c -0.93,11.95 -0.18,23.98 -0.42,35.96 0.01,29.85 -0.02,59.7 0.02,89.55 3.03,-0.01 6.06,-0.01 9.1,-0.02 0.01,-40.5 -0.02,-80.99 0.01,-121.48 -0.13,-6.66 3.16,-12.76 7.61,-17.49 -7.58,0.7 -14.08,6.27 -16.32,13.48 m 15.06,3.93 c -0.07,40.52 -0.01,81.04 -0.03,121.56 4.64,0.02 9.28,0.01 13.92,0.01 0.44,-6.55 -0.94,-13.36 0.84,-19.73 0.59,-0.24 1.76,-0.71 2.34,-0.95 1.15,-0.04 2.31,-0.07 3.47,-0.09 0,-8.94 -0.02,-17.88 0,-26.82 -1.85,-3.9 -4.65,-7.31 -5.98,-11.45 -2.32,-6.88 -2.9,-14.24 -2.56,-21.45 0.04,-16.32 0,-32.63 0.01,-48.95 0.02,-3.01 0.57,-5.97 1.05,-8.93 -7.22,2.35 -12.89,9.08 -13.06,16.8 m 501.18,7.16 c 4.1,5.81 9.94,10.37 14.38,16.01 7.72,-6.13 14.81,-13.05 22.33,-19.43 -7.8,-1.15 -15.06,-5.97 -18.53,-13.14 -5.88,5.71 -12.42,10.74 -18.18,16.56 m -47.86,22.47 c 0.75,0.34 2.26,1.01 3.01,1.35 3.51,-1.31 7.09,-2.51 10.87,-2.74 1.28,-1.63 4.41,-2.68 3.7,-5.17 -2.42,-9.95 -5.49,-19.74 -7.75,-29.73 -3.55,12.01 -6.64,24.17 -9.83,36.29 m -96.95,-31.89 c -0.04,0.98 -0.08,1.96 -0.12,2.96 5.97,1.6 12.03,2.82 17.99,4.48 1.91,0.3 2.79,2.33 2.35,4.11 -1.48,2.57 -4.93,1.36 -7.35,1.86 -9.13,-0.5 -18.29,-0.14 -27.43,-0.29 -0.03,2.35 -0.03,4.7 -0.02,7.05 13.76,0.7 27.6,1.44 41.33,0.05 1.6,-3.58 4.55,-6.87 4.33,-11 -0.94,-1.49 -2.56,-2.28 -4.05,-3.07 -8.4,-4.08 -17.75,-5.81 -27.03,-6.15 m 191.89,5.29 c -6.89,7.07 -15.1,12.9 -21.79,20.07 -0.17,25.1 -0.1,50.22 -0.03,75.33 9.83,-0.01 19.66,-0.04 29.49,0.02 0.22,-12.45 -0.01,-24.9 0.12,-37.34 -0.05,-17 -0.05,-34 0.01,-51 0.01,-3.81 -0.12,-7.62 -0.02,-11.43 -2.34,1.89 -5.17,2.96 -7.78,4.35 m -453.26,49.24 c -0.19,1.36 -1.14,2.97 -0.07,4.21 3.61,4.4 7.26,8.79 10.84,13.22 0.55,0.86 1.87,2.03 2.69,0.7 4.83,-5.11 9.67,-10.22 14.55,-15.3 -4.81,-17.44 -9.23,-35.01 -14.45,-52.33 -4.6,16.47 -8.99,33.02 -13.56,49.5 m 291.38,-26.82 c 9.54,5.24 19.04,10.61 28.74,15.53 3.17,-4.39 5.02,-9.66 7.74,-14.35 0.63,-1.7 2.32,-3.29 1.99,-5.16 -9.24,-5.12 -18.57,-10.1 -27.85,-15.15 -3.6,6.34 -7,12.79 -10.62,19.13 m 109.38,-13.8 c -6.59,6.19 -13.77,11.76 -20.09,18.23 7.22,2.55 12.43,8.97 14.38,16.27 6.94,-6.11 13.79,-12.33 20.77,-18.39 -4.87,-5.51 -9.95,-10.83 -15.06,-16.11 m -74.54,32.88 c 8.08,4.33 16.2,8.61 24.14,13.21 -2.48,-7.84 0.25,-16.16 5.12,-22.45 -6.52,-3.28 -12.81,-7 -19.31,-10.33 -3.26,6.55 -6.93,12.9 -9.95,19.57 m 84.23,-3.35 c -0.26,12.74 -0.1,25.48 -0.08,38.22 4.9,-0.02 9.8,-0.02 14.71,0 0.07,-17.02 0.07,-34.04 0,-51.05 -4.86,4.29 -9.66,8.66 -14.63,12.83 m -39.6,-6.18 c -5.41,0.63 -10.59,3.87 -12.95,8.87 -4.63,8.37 0.04,20.21 9.31,22.87 9.78,3.8 21.52,-4.17 21.66,-14.64 0.8,-9.66 -8.48,-18.28 -18.02,-17.1 m -59.9,8.71 c -0.01,11.89 -0.02,23.79 0.01,35.68 4.84,0 9.69,0 14.54,0 0.05,-9.2 -0.02,-18.41 0.04,-27.61 -4.74,-2.9 -9.71,-5.42 -14.59,-8.07 m 84.28,11.26 c -1.07,5.89 -4.26,11.5 -9.25,14.93 -6.86,5.12 -16.63,5.72 -24.17,1.75 -9.72,-5.88 -19.88,-10.99 -29.81,-16.49 -0.07,9.02 0.06,18.04 -0.05,27.07 0.27,1.56 -0.91,2.54 -1.93,3.46 -6.1,-0.05 -12.2,-0.01 -18.3,-0.02 -0.01,4.25 -0.03,8.5 0.02,12.75 37.73,0 75.45,-0.01 113.18,0.01 0.08,-4.26 0.06,-8.51 0.03,-12.76 -5.93,-0.04 -11.87,0.07 -17.79,-0.03 -1.56,0.27 -2.41,-1.1 -3.37,-2 0.12,-12.13 0.02,-24.27 0.05,-36.4 -2.92,2.52 -5.84,5.04 -8.61,7.73 M 503.9,444.72 c -3.81,22.38 -8.42,44.61 -12.4,66.96 1.02,0.01 2.04,0.02 3.07,0.04 4.43,-22.37 8.89,-44.73 13.27,-67.11 -0.98,0.03 -2.95,0.09 -3.94,0.11 m -2.68,66.97 c 8.88,0.02 17.75,0 26.63,0.01 -2.08,-15.01 -5.17,-29.87 -7.49,-44.85 -0.4,-1.69 0.89,-3.64 2.71,-3.53 7.64,-0.2 15.3,-0.02 22.96,-0.09 1.55,0.08 3.67,-0.21 4.19,1.73 1.59,6.29 2.13,12.8 3.64,19.12 2.45,-13.17 5.28,-26.26 7.68,-39.44 -15.67,0 -31.35,0.01 -47.03,-0.01 -4.61,22.32 -8.94,44.69 -13.29,67.06 m 26.07,-42.11 c 2.37,14.03 4.92,28.03 7.25,42.07 5.77,0.09 11.55,0.04 17.32,0.04 -2.28,-14.06 -4.64,-28.13 -7.3,-42.13 -5.76,0.03 -11.51,0 -17.27,0.02 M 174.89,501 c -0.08,3.18 -0.2,6.39 0.29,9.56 7.86,-0.06 15.71,-0.02 23.57,-0.03 0.02,-12.64 -0.01,-25.28 0.01,-37.92 -7.84,-0.06 -15.68,0.05 -23.52,-0.06 -0.86,9.45 -0.27,18.97 -0.35,28.45 M 357,481.89 c -14.61,9.75 -31.97,15.31 -49.54,15.54 -0.01,4.39 0,8.79 -0.01,13.18 23.59,-0.01 47.17,0.09 70.76,-0.05 -0.16,-6.5 0.24,-13.02 -0.19,-19.5 -1.35,-9.25 -13.32,-14.77 -21.02,-9.17 m 22.16,-2.27 c 0.8,0.97 1.6,1.93 2.41,2.91 0.71,-0.99 1.44,-1.96 2.18,-2.92 -1.54,-0.01 -3.07,-0.01 -4.59,0.01 m -60.57,4.78 c -3.91,2.42 -8.08,4.35 -12.17,6.43 0,0.08 0,0.22 0,0.29 3.48,-0.74 7.08,-0.44 10.58,-1.08 10.19,-1.73 20.1,-5.25 29,-10.51 -9.18,0.42 -19.59,-0.97 -27.41,4.87 m 66.06,8.59 c -0.1,5.87 0.01,11.75 -0.03,17.63 23.6,0.01 47.21,0 70.81,0 0,-4.4 0,-8.79 0,-13.18 -15.72,-0.33 -31.42,-4.6 -44.92,-12.74 -3.61,-2.04 -7.07,-5.09 -11.46,-5.03 -7.36,-0.4 -14.19,5.97 -14.4,13.32 m -179.01,-9.06 c -0.13,5.1 -0.13,10.19 0.01,15.29 6.28,-2.48 6.26,-12.78 -0.01,-15.29 m 465.49,11.38 c 0,1.14 -0.01,2.28 -0.01,3.43 41.86,0 83.73,0.08 125.6,-0.04 -0.01,-1.13 -0.02,-2.24 -0.03,-3.35 -41.85,-0.12 -83.71,-0.05 -125.56,-0.04 m -397.41,2.13 c 0,4.38 0,8.77 0,13.17 9.16,-0.03 18.32,0.13 27.48,-0.09 -0.34,-4.29 0.56,-8.92 -0.44,-13 -9.01,-0.25 -18.03,-0.05 -27.04,-0.08 m 397.41,7.8 c -0.01,0.77 -0.04,2.32 -0.05,3.09 41.9,0.05 83.8,0.08 125.7,-0.01 -0.02,-0.77 -0.06,-2.3 -0.08,-3.06 -41.86,-0.08 -83.71,-0.04 -125.57,-0.02 m -0.13,9.7 c 0.35,1.32 -0.64,4.13 1.84,3.45 41.27,0.03 82.55,0.04 123.82,-0.01 0.01,-0.87 0.04,-2.59 0.05,-3.45 -41.9,-0.04 -83.81,-0.07 -125.71,0.01 m -11.53,11.46 c 0.13,2.85 -0.39,5.9 0.97,8.55 1.99,4.97 7.25,8.24 12.56,8.18 9.31,0.11 18.64,-0.13 27.95,0.09 1.94,-0.15 3.17,1.93 2.99,3.68 0.11,10.06 -0.06,20.12 0.06,30.18 -0.02,6.22 6.18,10.49 11.91,10.84 5.58,0.25 11.18,0.05 16.77,0.09 -0.06,-14.17 0.1,-28.35 -0.08,-42.52 0.94,-0.92 1.7,-2.52 3.3,-2.3 7.72,-0.22 15.46,0.2 23.17,-0.28 4.65,-0.59 9.71,-2.41 12.22,-6.65 2.07,-2.86 1.33,-6.57 1.49,-9.87 -37.77,0.01 -75.54,-0.01 -113.31,0.01 m 119.72,-0.01 c 0.44,5.99 -0.52,12.4 -5.03,16.77 4.95,-0.04 9.91,-0.02 14.87,-0.02 5.84,0.11 12.72,0.56 17.06,-4.16 3.46,-3.27 2.67,-8.31 2.72,-12.59 -9.87,0 -19.75,0.01 -29.62,0 m -39.93,23.11 c -0.01,1.15 0,2.31 0.02,3.47 0.96,-1.14 1.93,-2.28 2.9,-3.41 -0.73,-0.01 -2.19,-0.04 -2.92,-0.06 m -55.7,37.76 c 0.16,17.95 0.01,35.91 0.08,53.87 1.65,-0.02 3.32,-0.03 5,-0.05 0.02,-17.99 -0.02,-35.98 0.02,-53.97 -1.71,0 -3.41,0.17 -5.1,0.15 m 57.13,-0.12 c 0.03,17.99 0.03,35.99 -0.25,53.98 1.94,-0.01 3.88,-0.01 5.84,-0.01 0.02,-17.96 -0.02,-35.92 0.01,-53.87 -1.87,-0.05 -3.74,-0.09 -5.6,-0.1 z"
       id="path5"
       inkscape:connector-curvature="0"
       style="opacity:1;fill:#020202" />
    <path
       d="m 175.03,192.97 c 11.99,-1.66 24.53,0.17 35.35,5.66 13.21,6.5 23.85,18.01 29.23,31.72 6.05,14.98 5.63,32.42 -1.2,47.07 -6.29,13.96 -18.18,25.3 -32.43,30.89 -14.56,5.95 -31.49,5.78 -45.95,-0.39 -13.37,-5.54 -24.52,-16.15 -30.84,-29.16 -7.07,-14.23 -7.91,-31.38 -2.63,-46.33 7.23,-20.76 26.61,-36.74 48.47,-39.46 m -4.51,7.85 c -19.57,4.67 -35.63,21.36 -39.42,41.13 -1.74,10.01 -1.21,20.63 2.69,30.1 5.58,14.32 17.78,25.91 32.34,30.81 11.55,4.08 24.53,3.92 35.97,-0.44 14.37,-5.18 26.09,-17 31.48,-31.26 4.67,-12.48 4.45,-26.7 -0.66,-39.01 -5.05,-12.01 -14.55,-22.14 -26.35,-27.7 -11.09,-5.4 -24.11,-6.61 -36.05,-3.63 z"
       id="path7"
       inkscape:connector-curvature="0"
       style="opacity:1;fill:#020202" />
    <path
       d="m 176.64,204.77 c 12,-1.81 24.65,1.28 34.62,8.18 8.54,6.11 15.24,14.88 18.34,24.96 3.54,11.25 2.82,23.8 -2.05,34.55 -5.84,12.96 -17.72,23.06 -31.5,26.59 -11.9,3.3 -25.06,1.71 -35.83,-4.3 -11.76,-6.41 -20.78,-17.88 -23.73,-31 -3.46,-13.47 -0.35,-28.31 7.77,-39.52 7.56,-10.55 19.54,-17.67 32.38,-19.46 m -1.94,7.14 c -18.71,3.84 -33.51,21.83 -32.72,41.07 -0.43,21.37 18.58,40.97 40.03,40.77 12.55,0.88 25.13,-4.86 33.15,-14.44 8.07,-9.21 11.65,-22.19 9.32,-34.22 -2.01,-11.09 -8.79,-21.27 -18.3,-27.34 -9.15,-6.14 -20.75,-7.96 -31.48,-5.84 z"
       id="path9"
       inkscape:connector-curvature="0"
       style="opacity:1;fill:#020202" />
    <path
       d="m 680.22,235.84 c -0.28,-2.46 2.14,-3.3 3.83,-4.35 1.19,0.98 2.36,2 3.42,3.14 -0.17,9.13 0.09,18.26 -0.11,27.38 -0.02,1.7 -1.43,3.74 -3.31,3.52 -2.55,0.48 -4.05,-2.3 -3.88,-4.49 -0.03,-8.4 -0.13,-16.81 0.05,-25.2 z"
       id="path11"
       inkscape:connector-curvature="0"
       style="opacity:1;fill:#020202" />
    <path
       d="m 786.59,235.39 c 0.91,-0.01 1.83,-0.01 2.76,0 0.65,9.24 0.49,18.56 0.1,27.81 -0.36,0.3 -1.08,0.89 -1.44,1.19 -0.53,-0.44 -1.05,-0.88 -1.55,-1.3 -0.33,-9.22 -0.57,-18.5 0.13,-27.7 z"
       id="path13"
       inkscape:connector-curvature="0"
       style="opacity:1;fill:#020202" />
    <path
       d="m 206.96,242.96 c 1.27,-0.41 2.52,0.22 3.75,0.44 0.65,1.75 1.26,4.69 -1.11,5.37 -6.81,2.27 -13.9,3.64 -20.77,5.75 -1.31,2.03 -3.22,4.03 -5.85,3.93 -2.35,0.28 -4.06,-1.53 -5.56,-3.04 -9.91,-0.21 -19.84,0.11 -29.75,-0.15 -3.27,-0.65 -3.09,-5.95 0.32,-6.26 5.32,-0.42 10.68,-0.06 16.01,-0.14 4.64,-0.12 9.3,0.14 13.94,-0.13 2.86,-1.53 6.24,-2.27 9.2,-0.5 6.63,-1.67 13.2,-3.56 19.82,-5.27 z"
       id="path15"
       inkscape:connector-curvature="0"
       style="opacity:1;fill:#020202" />
    <path
       d="m 344.58,242.73 c 3.1,-2.17 6.95,2.41 3.94,4.89 -5.38,3.99 -11.12,7.52 -16.69,11.25 -1.92,1.56 -4.36,0.23 -5.2,-1.8 -0.54,-2.48 1.96,-3.65 3.6,-4.88 4.87,-3.02 9.45,-6.5 14.35,-9.46 z"
       id="path17"
       inkscape:connector-curvature="0"
       style="opacity:1;fill:#020202" />
    <path
       d="m 338.08,269.09 c 0.33,-6.17 3.9,-12.7 9.96,-14.85 4.06,-1.28 8.82,-1 12.39,1.47 4.36,2.94 6.67,8.24 7.13,13.34 0.26,1.55 -1.18,2.44 -2.12,3.36 -8.19,-0.2 -16.37,0.09 -24.55,-0.13 -1.68,-0.01 -3.04,-1.51 -2.81,-3.19 m 12.87,-9.03 c -2.92,0.59 -4.44,3.33 -5.88,5.65 3.28,0.18 6.57,0.17 9.86,0.02 0.46,-1.73 1.4,-3.25 2.37,-4.73 -2.05,-0.61 -4.21,-1.71 -6.35,-0.94 z"
       id="path19"
       inkscape:connector-curvature="0"
       style="opacity:1;fill:#020202" />
    <path
       d="m 486.37,257.37 c 2.43,-2.1 5.84,-1.77 8.81,-1.55 6.63,0.85 13.34,0.22 19.99,0.84 1.91,0.23 3.12,1.84 4.42,3.08 0.16,2.51 0.25,5.27 -1.87,7.05 -4.63,4.37 -9.47,8.53 -14.34,12.62 3.4,0.68 6.73,1.74 9.86,3.25 6.3,4.27 8.26,12.48 6.1,19.53 -2.42,6.52 -8.39,11.54 -15.38,12.23 -6.55,0.5 -13.66,0.47 -19.48,-3.01 -2.22,-1.36 -4.39,-3.6 -4.18,-6.41 -0.36,-3.09 2.47,-6.22 5.66,-5.66 4.85,0.72 9.04,4.32 14.18,3.45 5.35,0.18 7.34,-7.44 3.85,-10.78 -3.25,-2.33 -7.46,-2.29 -11.28,-2.57 -3.86,-1.83 -5.28,-6.86 -2.59,-10.3 3.76,-4.1 8.65,-7.03 12.24,-11.32 -4.58,-0.4 -9.22,0.04 -13.77,-0.69 -4.4,-0.66 -5.42,-7.14 -2.22,-9.76 z"
       id="path21"
       inkscape:connector-curvature="0"
       style="opacity:1;fill:#020202" />
    <path
       d="m 521.43,272.38 c 5.98,-5.41 11.44,-11.63 18.34,-15.88 2.74,0.09 6.23,0.29 7.54,3.18 0.23,1.43 0.78,2.8 0.86,4.27 -1.12,9.3 -0.4,18.73 -1.17,28.07 -0.37,3.83 -0.34,7.68 -0.51,11.53 1.94,0.87 4.61,1.45 5.28,3.81 1.26,2.91 -0.01,6.36 -2.59,8.08 -6.11,0.35 -12.22,-0.19 -18.33,-0.14 -1.58,-0.77 -3.69,-1.04 -4.55,-2.77 -1.66,-2.4 -0.49,-5.36 0.6,-7.71 1.99,-0.9 4.1,-1.46 6.29,-1.55 0.2,-8.98 0.48,-17.95 0.58,-26.93 -2.88,2.53 -5.85,5.85 -9.96,5.95 -4.87,-0.45 -5.86,-7.13 -2.38,-9.91 z"
       id="path23"
       inkscape:connector-curvature="0"
       style="opacity:1;fill:#020202" />
    <path
       d="m 786.55,268.42 c 0.36,-1.68 3.06,-0.9 3.08,0.62 1.05,2.25 0.74,7.62 -2.84,6.41 -1,-2.19 -1.44,-4.83 -0.24,-7.03 z"
       id="path25"
       inkscape:connector-curvature="0"
       style="opacity:1;fill:#020202" />
    <path
       d="m 332.47,271.31 c 0.98,-1.59 3.15,-0.79 4.67,-0.7 0.92,2.29 1.55,5.14 4.06,6.25 1.9,1.25 4.97,0.71 6,3.08 0.91,2.08 -0.82,4.6 -3.09,4.43 -4.87,-0.39 -9.61,-3.35 -11.59,-7.88 -0.67,-1.63 -1.39,-3.68 -0.05,-5.18 z"
       id="path27"
       inkscape:connector-curvature="0"
       style="opacity:1;fill:#020202" />
    <path
       d="m 680.27,271.18 c 1.1,-1.67 3.19,-1.53 4.96,-1.65 0.51,0.37 1.54,1.1 2.05,1.46 0.81,1.98 1.56,4.36 -0.05,6.19 -1.44,2.27 -4.3,1.27 -6.47,1.13 -1.08,-2.16 -2.33,-5.02 -0.49,-7.13 z"
       id="path29"
       inkscape:connector-curvature="0"
       style="opacity:1;fill:#020202" />
    <path
       d="m 369.65,297.8 c 6.23,-0.91 12.71,4.6 11.86,11.1 -0.18,7.11 -8.96,11.77 -15.09,8.39 -5.28,-2.33 -7.48,-9.39 -4.49,-14.32 1.61,-2.82 4.61,-4.52 7.72,-5.17 m -0.26,5.71 c -4.57,1.26 -4.12,8.88 0.75,9.22 3.27,0.81 5.56,-1.94 6.35,-4.75 -0.94,-2.99 -3.72,-5.75 -7.1,-4.47 z"
       id="path31"
       inkscape:connector-curvature="0"
       style="opacity:1;fill:#020202" />
  </g>
  <g
     id="#fafafaff"
     transform="translate(-123.15231,-118.42084)">
    <path
       d="m 727.06,126.26 c 2.62,2.83 6.88,4.95 7.51,9.08 -0.63,0.03 -1.9,0.09 -2.53,0.13 -2.17,-2.77 -3.47,-6.08 -4.98,-9.21 z"
       id="path34"
       inkscape:connector-curvature="0"
       style="opacity:1;fill:#fafafa" />
  </g>
  <g
     id="#ffffffff"
     transform="translate(-123.15231,-118.42084)">
    <path
       d="m 717.42,141.17 c -0.63,-4.71 -0.71,-10.52 3.25,-13.86 5.03,11.3 12.44,21.73 22,29.62 0,0.77 -0.03,1.54 -0.07,2.31 -3.19,0.29 -6.42,0.52 -9.55,-0.25 -7.69,-2.94 -13.92,-9.71 -15.63,-17.82 z"
       id="path37"
       inkscape:connector-curvature="0"
       style="opacity:1;fill:#ffffff" />
    <path
       d="m 530.52,180.32 c 1.37,-0.52 2.84,0.25 4.24,0.29 -3.05,7.66 -6.51,15.14 -9.67,22.76 -1.91,-0.59 -3.8,-1.19 -5.68,-1.82 3.79,-7.03 7.36,-14.17 11.11,-21.23 z"
       id="path39"
       inkscape:connector-curvature="0"
       style="opacity:1;fill:#ffffff" />
    <path
       d="m 714.26,187.85 c -0.2,-2.11 0.05,-4.21 0.02,-6.31 11.8,0.17 23.61,0.07 35.42,0.05 0.05,2.03 0.08,4.07 0.11,6.1 -11.57,-3.27 -24.01,-3.15 -35.55,0.16 z"
       id="path41"
       inkscape:connector-curvature="0"
       style="opacity:1;fill:#ffffff" />
    <path
       d="m 299.78,190.66 c 6.7,-0.76 14.21,-1.41 20.15,2.45 -2.17,2.86 -4.73,5.49 -6.2,8.81 -0.62,2.01 1.14,4.22 3.27,3.86 2.05,0.3 2.74,-1.91 3.79,-3.19 5.08,-7.66 14.06,-12.53 23.26,-12.46 15,-0.02 30,-0.02 45,0 5.02,-0.12 10.07,2.77 12.28,7.33 2.47,4.38 1.68,10.49 -2.48,13.57 -4.16,3.49 -9.88,1.91 -14.82,2.16 -18.33,0.25 -36.66,0.12 -54.99,0.2 -11.31,0.12 -21.97,7.99 -25.49,18.72 -1.85,5.2 -1.16,10.82 -1.27,16.23 -4.33,2.91 -6.86,7.6 -7.89,12.63 -1.11,0.43 -2.21,0.86 -3.31,1.29 -0.4,0.11 -1.2,0.35 -1.6,0.46 -0.01,-19.25 -0.03,-38.5 0.01,-57.74 -0.2,-6.45 4.43,-12.07 10.29,-14.32 z"
       id="path43"
       inkscape:connector-curvature="0"
       style="opacity:1;fill:#ffffff" />
    <path
       d="m 717.98,193.04 c 12.83,-2.96 26.52,-1.81 38.65,3.3 l 0,0.31 c -4.2,1.62 -8.36,3.47 -11.96,6.22 -8.35,-4.55 -17.12,-8.7 -26.69,-9.83 z"
       id="path45"
       inkscape:connector-curvature="0"
       style="opacity:1;fill:#ffffff" />
    <path
       d="m 468.18,196.25 c 15.27,0.4 30.51,1.31 45.79,1.55 -0.98,2.04 -1.93,4.1 -2.72,6.23 0.37,0.6 1.11,1.81 1.48,2.41 2.77,0.8 5.58,1.47 8.42,2.02 -6.67,0.35 -13.34,-0.17 -20.01,-0.22 -2.23,-3.09 -6.11,-5.96 -10.03,-3.98 -5.16,1.77 -6.4,9.35 -1.91,12.57 3.58,3.26 9.01,1.41 11.46,-2.3 11.28,0.2 22.55,0.78 33.83,1.2 1.98,3.35 6.17,5.68 9.97,3.83 5.28,-1.91 6,-10.16 1.15,-12.96 -3.61,-2.63 -8.5,-0.81 -10.83,2.62 -1.69,-0.03 -3.39,-0.08 -5.07,-0.13 1.38,-3.5 2.95,-6.93 4.35,-10.42 11.81,0.33 23.61,0.84 35.43,1.03 -0.09,8.84 -0.8,17.64 -0.85,26.48 -33.79,-1.36 -67.61,-2.37 -101.4,-3.64 0.19,-8.76 0.3,-17.54 0.94,-26.29 z"
       id="path47"
       inkscape:connector-curvature="0"
       style="opacity:1;fill:#ffffff" />
    <path
       d="m 695.99,203.45 c 7.59,-5.92 18.03,-4.96 26.96,-3.52 6.99,1.37 13.54,4.49 19.28,8.66 1.22,1.06 3.11,1.04 4.32,-0.04 5.28,-3.74 11.17,-6.57 17.44,-8.22 3.92,2.49 7.57,5.4 10.93,8.62 -6.98,1.9 -11.15,8.67 -13.32,15.14 -5.81,17.63 -5.96,37.07 -0.68,54.85 1.93,6.64 5.55,13.29 11.86,16.68 -11.68,10.2 -27.18,16.15 -42.75,15.31 -10.3,-0.37 -20.67,-3.31 -29.29,-9.02 5.25,-0.92 10.74,-1.66 15.36,-4.54 11.95,-6.94 19.44,-19.87 21.79,-33.26 2.88,-12.37 0.7,-25.52 -4.36,-37.02 -5.22,-10.69 -14.43,-20.41 -26.46,-22.86 -3.61,-1 -7.38,-0.95 -11.08,-0.78 z"
       id="path49"
       inkscape:connector-curvature="0"
       style="opacity:1;fill:#ffffff" />
    <path
       d="m 170.52,200.82 c 11.94,-2.98 24.96,-1.77 36.05,3.63 11.8,5.56 21.3,15.69 26.35,27.7 5.11,12.31 5.33,26.53 0.66,39.01 -5.39,14.26 -17.11,26.08 -31.48,31.26 -11.44,4.36 -24.42,4.52 -35.97,0.44 -14.56,-4.9 -26.76,-16.49 -32.34,-30.81 -3.9,-9.47 -4.43,-20.09 -2.69,-30.1 3.79,-19.77 19.85,-36.46 39.42,-41.13 m 6.12,3.95 c -12.84,1.79 -24.82,8.91 -32.38,19.46 -8.12,11.21 -11.23,26.05 -7.77,39.52 2.95,13.12 11.97,24.59 23.73,31 10.77,6.01 23.93,7.6 35.83,4.3 13.78,-3.53 25.66,-13.63 31.5,-26.59 4.87,-10.75 5.59,-23.3 2.05,-34.55 -3.1,-10.08 -9.8,-18.85 -18.34,-24.96 -9.97,-6.9 -22.62,-9.99 -34.62,-8.18 z"
       id="path51"
       inkscape:connector-curvature="0"
       style="opacity:1;fill:#ffffff" />
    <path
       d="m 575.89,200.22 c 7.49,-0.01 14.97,0.4 22.46,0.6 -0.32,8.61 -0.47,17.24 -0.97,25.85 -0.26,0.13 -0.77,0.4 -1.02,0.53 -7.05,-0.61 -14.14,-0.53 -21.2,-0.85 0.12,-8.72 0.38,-17.43 0.73,-26.13 z"
       id="path53"
       inkscape:connector-curvature="0"
       style="opacity:1;fill:#ffffff" />
    <path
       d="m 693.29,210.47 c 7.95,-2.69 16.87,-0.11 23.38,4.86 8.86,6.93 13.99,17.73 15.62,28.7 1.41,11.22 0.2,23.07 -5.27,33.13 -4.24,7.89 -11.09,14.86 -19.89,17.37 -4.25,1.39 -8.82,1.24 -13.17,0.48 8.37,-0.9 16.44,-4.61 21.98,-11.04 15.23,-18.15 14.66,-47.92 -2.01,-64.96 -5.56,-5.17 -12.94,-8.7 -20.64,-8.54 z"
       id="path55"
       inkscape:connector-curvature="0"
       style="opacity:1;fill:#ffffff" />
    <path
       d="m 174.7,211.91 c 10.73,-2.12 22.33,-0.3 31.48,5.84 9.51,6.07 16.29,16.25 18.3,27.34 2.33,12.03 -1.25,25.01 -9.32,34.22 -8.02,9.58 -20.6,15.32 -33.15,14.44 -21.45,0.2 -40.46,-19.4 -40.03,-40.77 -0.79,-19.24 14.01,-37.23 32.72,-41.07 m 32.26,31.05 c -6.62,1.71 -13.19,3.6 -19.82,5.27 -2.96,-1.77 -6.34,-1.03 -9.2,0.5 -4.64,0.27 -9.3,0.01 -13.94,0.13 -5.33,0.08 -10.69,-0.28 -16.01,0.14 -3.41,0.31 -3.59,5.61 -0.32,6.26 9.91,0.26 19.84,-0.06 29.75,0.15 1.5,1.51 3.21,3.32 5.56,3.04 2.63,0.1 4.54,-1.9 5.85,-3.93 6.87,-2.11 13.96,-3.48 20.77,-5.75 2.37,-0.68 1.76,-3.62 1.11,-5.37 -1.23,-0.22 -2.48,-0.85 -3.75,-0.44 z"
       id="path57"
       inkscape:connector-curvature="0"
       style="opacity:1;fill:#ffffff" />
    <path
       d="m 770.23,220.16 c 1.74,-2.7 4.35,-5.71 7.9,-5.4 0.86,0.44 2.95,0.28 2.56,1.77 -4.81,3.4 -7.46,8.89 -8.78,14.49 -4.09,15.64 -3.81,32.65 1.55,47.95 1.4,4.25 4.48,7.56 7.96,10.25 -5.01,2.9 -9.91,-1.14 -11.98,-5.59 -6.13,-12.22 -6.71,-26.38 -5.87,-39.78 0.92,-8.15 2.33,-16.58 6.66,-23.69 z"
       id="path59"
       inkscape:connector-curvature="0"
       style="opacity:1;fill:#ffffff" />
    <path
       d="m 681.96,218.9 c 6.85,-4.2 15.99,-4.11 22.84,0.04 7.09,4.19 11.99,11.4 14.41,19.17 2.83,8.33 2.82,17.39 0.98,25.94 -2.1,7.36 -5.66,14.52 -11.67,19.47 -5.71,4.82 -13.85,7.36 -21.14,4.98 -7.71,-2.18 -13.79,-8.24 -17.35,-15.26 -5.71,-10.93 -6.37,-24.23 -2.42,-35.85 2.63,-7.46 7.35,-14.51 14.35,-18.49 m -1.74,16.94 c -0.18,8.39 -0.08,16.8 -0.05,25.2 -0.17,2.19 1.33,4.97 3.88,4.49 1.88,0.22 3.29,-1.82 3.31,-3.52 0.2,-9.12 -0.06,-18.25 0.11,-27.38 -1.06,-1.14 -2.23,-2.16 -3.42,-3.14 -1.69,1.05 -4.11,1.89 -3.83,4.35 m 0.05,35.34 c -1.84,2.11 -0.59,4.97 0.49,7.13 2.17,0.14 5.03,1.14 6.47,-1.13 1.61,-1.83 0.86,-4.21 0.05,-6.19 -0.51,-0.36 -1.54,-1.09 -2.05,-1.46 -1.77,0.12 -3.86,-0.02 -4.96,1.65 z"
       id="path61"
       inkscape:connector-curvature="0"
       style="opacity:1;fill:#ffffff" />
    <path
       d="m 312.59,228.58 c 3.92,-5.56 10.66,-8.84 17.44,-8.75 18.99,-0.01 37.98,-0.03 56.96,0.01 6.46,-0.09 12.78,3.64 15.82,9.34 2.99,5.2 1.64,11.44 1.91,17.14 -2.09,-1.86 -4.33,-3.56 -6.76,-4.95 -2.43,0.95 -4.14,3.35 -2.53,5.85 3.33,2.79 7.41,4.91 9.88,8.59 -4.71,-2.22 -10.43,-3.47 -15.22,-0.76 -5.5,2.78 -7.6,9.1 -8.7,14.74 -0.64,-3.44 -1.47,-6.93 -3.13,-10.03 -1.14,-1.98 -4.25,-1.58 -5.28,0.32 -0.95,1.4 -0.05,3.07 0.31,4.52 2.04,6.54 4.61,12.92 6.19,19.6 -3.53,0.49 -7.14,-0.05 -10.65,0.53 -2.61,1.07 -2.42,5.08 0.22,5.98 3.33,0.32 6.71,0.27 10.05,0.04 4.45,-0.6 7.76,-5.57 6.34,-9.9 -1.05,-3.58 -2.61,-7.02 -3.11,-10.75 0.45,0.74 0.89,1.47 1.34,2.22 7.03,0.06 14.05,0.01 21.08,0.03 -0.02,9.22 0.04,18.45 -0.03,27.68 0.05,6.36 -3.51,12.41 -8.63,16.04 -2.01,1.43 -4.37,2.26 -6.41,3.62 -1.76,3.49 -2.22,8.59 -6.61,9.88 -6.28,0.34 -12.62,0.29 -18.9,0.04 -7.12,-2.06 -11.49,-8.82 -15.14,-14.82 -1.2,-2.27 -3.97,-1.31 -5.7,-0.31 -0.26,2 0.23,3.94 1.29,5.65 -4.57,-0.21 -9.22,0.49 -13.72,-0.56 -3.7,-11.76 -8.53,-23.14 -12.67,-34.75 -3.44,-8.96 -6.63,-18.01 -10.12,-26.95 -0.51,-0.28 -1.53,-0.82 -2.04,-1.1 -0.93,0 -2.8,0 -3.73,0 2.41,-2.61 5.64,-4.29 9.22,-4.52 1.85,0.01 2.2,-1.99 3.02,-3.23 -1.03,-2.53 -3.36,-3.21 -5.94,-2.94 -0.29,-6.02 0.08,-12.55 3.95,-17.5 m 31.99,14.15 c -4.9,2.96 -9.48,6.44 -14.35,9.46 -1.64,1.23 -4.14,2.4 -3.6,4.88 0.84,2.03 3.28,3.36 5.2,1.8 5.57,-3.73 11.31,-7.26 16.69,-11.25 3.01,-2.48 -0.84,-7.06 -3.94,-4.89 m -6.5,26.36 c -0.23,1.68 1.13,3.18 2.81,3.19 8.18,0.22 16.36,-0.07 24.55,0.13 0.94,-0.92 2.38,-1.81 2.12,-3.36 -0.46,-5.1 -2.77,-10.4 -7.13,-13.34 -3.57,-2.47 -8.33,-2.75 -12.39,-1.47 -6.06,2.15 -9.63,8.68 -9.96,14.85 m -5.61,2.22 c -1.34,1.5 -0.62,3.55 0.05,5.18 1.98,4.53 6.72,7.49 11.59,7.88 2.27,0.17 4,-2.35 3.09,-4.43 -1.03,-2.37 -4.1,-1.83 -6,-3.08 -2.51,-1.11 -3.14,-3.96 -4.06,-6.25 -1.52,-0.09 -3.69,-0.89 -4.67,0.7 m 37.18,26.49 c -3.11,0.65 -6.11,2.35 -7.72,5.17 -2.99,4.93 -0.79,11.99 4.49,14.32 6.13,3.38 14.91,-1.28 15.09,-8.39 0.85,-6.5 -5.63,-12.01 -11.86,-11.1 z"
       id="path63"
       inkscape:connector-curvature="0"
       style="opacity:1;fill:#ffffff" />
    <path
       d="m 784.98,220.76 c 5.53,0.84 7.37,7.19 8.8,11.77 3.51,13.87 3.47,28.85 -0.76,42.56 -1.46,3.71 -3.39,9.07 -8.12,9.15 -4.41,-1.18 -5.96,-6.22 -7.41,-10.02 -3.84,-13.31 -3.86,-27.71 -0.64,-41.15 1.43,-4.67 3.05,-10.46 8.13,-12.31 m 1.61,14.63 c -0.7,9.2 -0.46,18.48 -0.13,27.7 0.5,0.42 1.02,0.86 1.55,1.3 0.36,-0.3 1.08,-0.89 1.44,-1.19 0.39,-9.25 0.55,-18.57 -0.1,-27.81 -0.93,-0.01 -1.85,-0.01 -2.76,0 m -0.04,33.03 c -1.2,2.2 -0.76,4.84 0.24,7.03 3.58,1.21 3.89,-4.16 2.84,-6.41 -0.02,-1.52 -2.72,-2.3 -3.08,-0.62 z"
       id="path65"
       inkscape:connector-curvature="0"
       style="opacity:1;fill:#ffffff" />
    <path
       d="m 470.47,229.37 c 17.21,0.14 34.39,1.17 51.59,1.63 9.46,0.74 18.98,0.12 28.42,1.13 4.62,0.21 9.26,-0.03 13.88,0.39 -0.06,1.55 -0.1,3.11 -0.14,4.67 -1.07,9.93 -0.49,19.98 -1.07,29.95 -0.95,10.93 -0.4,21.95 -1.41,32.88 -0.13,11.82 -0.73,23.62 -1.1,35.42 -13.91,-0.44 -27.81,-1.01 -41.73,-1.3 -9.57,-1.09 -19.28,-0.24 -28.87,-1.22 -7.62,-0.28 -15.25,-0.43 -22.88,-0.66 0.05,-18.79 1.3,-37.52 1.57,-56.3 0.9,-9.98 0.72,-20.01 1.11,-30.02 0.61,-5.5 0.46,-11.05 0.63,-16.57 m 15.9,28 c -3.2,2.62 -2.18,9.1 2.22,9.76 4.55,0.73 9.19,0.29 13.77,0.69 -3.59,4.29 -8.48,7.22 -12.24,11.32 -2.69,3.44 -1.27,8.47 2.59,10.3 3.82,0.28 8.03,0.24 11.28,2.57 3.49,3.34 1.5,10.96 -3.85,10.78 -5.14,0.87 -9.33,-2.73 -14.18,-3.45 -3.19,-0.56 -6.02,2.57 -5.66,5.66 -0.21,2.81 1.96,5.05 4.18,6.41 5.82,3.48 12.93,3.51 19.48,3.01 6.99,-0.69 12.96,-5.71 15.38,-12.23 2.16,-7.05 0.2,-15.26 -6.1,-19.53 -3.13,-1.51 -6.46,-2.57 -9.86,-3.25 4.87,-4.09 9.71,-8.25 14.34,-12.62 2.12,-1.78 2.03,-4.54 1.87,-7.05 -1.3,-1.24 -2.51,-2.85 -4.42,-3.08 -6.65,-0.62 -13.36,0.01 -19.99,-0.84 -2.97,-0.22 -6.38,-0.55 -8.81,1.55 m 35.06,15.01 c -3.48,2.78 -2.49,9.46 2.38,9.91 4.11,-0.1 7.08,-3.42 9.96,-5.95 -0.1,8.98 -0.38,17.95 -0.58,26.93 -2.19,0.09 -4.3,0.65 -6.29,1.55 -1.09,2.35 -2.26,5.31 -0.6,7.71 0.86,1.73 2.97,2 4.55,2.77 6.11,-0.05 12.22,0.49 18.33,0.14 2.58,-1.72 3.85,-5.17 2.59,-8.08 -0.67,-2.36 -3.34,-2.94 -5.28,-3.81 0.17,-3.85 0.14,-7.7 0.51,-11.53 0.77,-9.34 0.05,-18.77 1.17,-28.07 -0.08,-1.47 -0.63,-2.84 -0.86,-4.27 -1.31,-2.89 -4.8,-3.09 -7.54,-3.18 -6.9,4.25 -12.36,10.47 -18.34,15.88 z"
       id="path67"
       inkscape:connector-curvature="0"
       style="opacity:1;fill:#ffffff" />
    <path
       d="m 567.24,331.79 c 1.09,-33 2.37,-65.98 3.41,-98.97 1.1,-0.05 3.3,-0.13 4.4,-0.17 -0.81,33.06 -2.4,66.11 -3.3,99.17 -1.51,-0.01 -3.01,-0.02 -4.51,-0.03 z"
       id="path69"
       inkscape:connector-curvature="0"
       style="opacity:1;fill:#ffffff" />
    <path
       d="m 581.59,233.14 c 1.35,0 2.71,0.01 4.08,0.01 -0.18,7.64 -0.34,15.28 -0.56,22.91 -0.74,9.67 -0.57,19.39 -0.91,29.08 l -0.4,0.65 c -0.12,14.4 -0.92,28.77 -1.24,43.16 -1.44,-0.02 -2.87,-0.08 -4.28,-0.16 0.42,-16.3 1.3,-32.57 1.58,-48.87 0.98,-8.59 0.43,-17.29 0.93,-25.92 0.6,-6.94 0.59,-13.91 0.8,-20.86 z"
       id="path71"
       inkscape:connector-curvature="0"
       style="opacity:1;fill:#ffffff" />
    <path
       d="m 590.29,294.05 c 0.37,-20.23 1.35,-40.44 2.06,-60.65 1.03,0.04 3.11,0.12 4.14,0.16 -1.17,30.95 -2.22,61.87 -3.23,92.82 -1.02,-0.02 -3.06,-0.06 -4.08,-0.08 0.28,-10.75 0.28,-21.52 1.11,-32.25 z"
       id="path73"
       inkscape:connector-curvature="0"
       style="opacity:1;fill:#ffffff" />
    <path
       d="m 350.95,260.06 c 2.14,-0.77 4.3,0.33 6.35,0.94 -0.97,1.48 -1.91,3 -2.37,4.73 -3.29,0.15 -6.58,0.16 -9.86,-0.02 1.44,-2.32 2.96,-5.06 5.88,-5.65 z"
       id="path75"
       inkscape:connector-curvature="0"
       style="opacity:1;fill:#ffffff" />
    <path
       d="m 388.98,265.73 c 1.46,-3.27 4.45,-6.43 8.35,-5.89 1.18,0.37 3.39,0.36 3.46,2.01 -0.45,0.29 -1.35,0.87 -1.81,1.16 -0.2,0.7 -0.59,2.12 -0.79,2.82 -3.07,0.01 -6.14,0.03 -9.21,-0.1 z"
       id="path77"
       inkscape:connector-curvature="0"
       style="opacity:1;fill:#ffffff" />
    <path
       d="m 300.16,265.5 c 1.18,-0.54 2.39,-0.84 3.63,-0.89 1.7,4.49 3.3,9.01 5.02,13.49 1.07,2.65 1.99,5.34 3,8.01 2.06,5.3 3.93,10.68 5.95,16 1.54,3.91 2.93,7.88 4.45,11.81 0.72,1.89 1.47,3.76 2.34,5.6 -1.03,0.98 -2.42,1.21 -3.75,1.46 -2.19,-6.46 -5.02,-12.7 -6.65,-19.33 -2.28,-4.03 -3.07,-8.65 -5.23,-12.73 -1.32,-3.33 -2.56,-6.7 -3.75,-10.08 -1.82,-4.39 -3.27,-8.93 -5.01,-13.34 z"
       id="path79"
       inkscape:connector-curvature="0"
       style="opacity:1;fill:#ffffff" />
    <path
       d="m 278.85,273.82 c 5.09,-2.01 10.14,-4.14 15.37,-5.73 1.85,4.38 2.92,9.12 5.42,13.2 -2.72,-1.19 -5.83,-2.27 -8.76,-1.15 -4.89,1.69 -9.53,4.03 -14.36,5.89 -1.26,-3.1 -2.17,-6.36 -3.87,-9.26 0.28,-0.24 0.84,-0.72 1.12,-0.96 1.74,-0.55 3.45,-1.18 5.08,-1.99 z"
       id="path81"
       inkscape:connector-curvature="0"
       style="opacity:1;fill:#ffffff" />
    <path
       d="m 286.81,288.69 c 3.26,-1.22 7.43,-4.42 10.24,-0.66 -5.87,3.97 -13.1,5.27 -19.16,8.88 -1.21,1.69 -0.72,4.21 1.12,5.25 1.97,0.49 3.79,-0.77 5.59,-1.36 6.22,-2.39 12.19,-5.51 18.54,-7.51 0.51,0.73 1.52,2.2 2.03,2.93 -7.18,3.72 -14.95,6.12 -22.19,9.7 -2.48,0.92 -1.97,4.89 0.38,5.62 1.26,0.54 2.55,-0.06 3.74,-0.5 6.35,-2.65 12.65,-5.49 19.1,-7.88 2.44,-0.91 3.38,3.52 0.9,3.91 -7.42,3.41 -15.04,6.4 -22.58,9.53 -1.42,2.63 -0.12,5.63 -0.94,8.4 -2.68,1.03 -3.82,3.46 -2.99,6.24 1.77,0.54 3.61,0.58 5.45,0.42 1.07,2.32 1.93,4.8 3.49,6.86 3.84,-0.92 7.65,-2.06 11.61,-2.42 0.04,0.69 0.09,1.4 0.15,2.1 -7.65,2.35 -15.28,4.75 -23.01,6.79 -3.29,-9.27 -6.62,-18.52 -9.74,-27.84 -2.31,-6.72 -1.54,-14.85 3.27,-20.3 3.82,-4.51 9.9,-5.69 15,-8.16 z"
       id="path83"
       inkscape:connector-curvature="0"
       style="opacity:1;fill:#ffffff" />
    <path
       d="m 369.39,303.51 c 3.38,-1.28 6.16,1.48 7.1,4.47 -0.79,2.81 -3.08,5.56 -6.35,4.75 -4.87,-0.34 -5.32,-7.96 -0.75,-9.22 z"
       id="path85"
       inkscape:connector-curvature="0"
       style="opacity:1;fill:#ffffff" />
    <path
       d="m 600.74,304 c 7.35,5.58 14.27,11.71 21.58,17.35 -4.41,5.88 -9.46,11.25 -14.27,16.79 -2.87,-2.31 -5.74,-4.62 -8.52,-7.03 0.24,-5.01 -0.04,-10.05 0.59,-15.03 0.17,-4.03 0.02,-8.08 0.62,-12.08 z"
       id="path87"
       inkscape:connector-curvature="0"
       style="opacity:1;fill:#ffffff" />
    <path
       d="m 290.55,321.49 c 6.48,-3.59 13.66,-5.9 20.45,-8.92 1.09,3.85 3.1,7.42 3.69,11.41 -7.13,2.28 -14.02,5.26 -21.04,7.86 -1.24,-3.37 -2.99,-6.68 -3.1,-10.35 z"
       id="path89"
       inkscape:connector-curvature="0"
       style="opacity:1;fill:#ffffff" />
    <path
       d="m 719.06,338.07 c 17.87,-6.46 35.66,-13.16 53.48,-19.74 0.04,3.54 0.04,7.08 0.02,10.63 -4.02,2.22 -5.71,7.36 -10.4,8.43 -14.38,5.41 -28.74,10.89 -43.12,16.31 -0.05,-5.21 -0.09,-10.42 0.02,-15.63 z"
       id="path91"
       inkscape:connector-curvature="0"
       style="opacity:1;fill:#ffffff" />
    <path
       d="m 695.05,323.03 c 5.85,4.77 11.61,9.64 17.49,14.38 -0.01,4.58 0.05,9.17 -0.06,13.76 -5.89,-4.93 -11.55,-10.13 -17.44,-15.05 -0.11,-4.37 -0.09,-8.73 0.01,-13.09 z"
       id="path93"
       inkscape:connector-curvature="0"
       style="opacity:1;fill:#ffffff" />
    <path
       d="m 627.5,325.9 c 4.58,3.34 8.9,7.02 13.22,10.69 -5.6,5.14 -9.28,12.01 -11.11,19.34 -5.32,-4.69 -10.97,-8.99 -16.38,-13.58 4.74,-5.49 9.48,-10.99 14.27,-16.45 z"
       id="path95"
       inkscape:connector-curvature="0"
       style="opacity:1;fill:#ffffff" />
    <path
       d="m 328.79,326.57 c 6.73,0.02 13.47,-0.2 20.2,0.08 3.74,3.27 7.18,7.22 12.08,8.77 3.67,1.54 7.75,0.81 11.62,0.96 0.01,2.87 0.02,5.75 -0.13,8.63 -4,1.64 -7.92,3.48 -11.82,5.35 -10.35,-4.54 -20.49,-9.57 -30.8,-14.22 -0.29,-0.47 -0.88,-1.4 -1.18,-1.87 0.03,-2.57 0.03,-5.14 0.03,-7.7 z"
       id="path97"
       inkscape:connector-curvature="0"
       style="opacity:1;fill:#ffffff" />
    <path
       d="m 640.51,346.6 c 5.62,-8.12 14.95,-12.81 24.36,-14.98 5.6,-1.36 11.72,-1.49 17.02,1.02 -0.02,0.36 -0.07,1.1 -0.09,1.46 -10.13,4.28 -12.32,16.5 -13.44,26.24 -10.76,0.02 -21.52,-0.09 -32.27,0.06 -0.5,-4.88 1.96,-9.71 4.42,-13.8 z"
       id="path99"
       inkscape:connector-curvature="0"
       style="opacity:1;fill:#ffffff" />
    <path
       d="m 588.74,332.58 c 1.34,0.01 2.7,0.03 4.06,0.06 -0.04,4.61 -0.18,9.21 -0.3,13.83 -1.04,-0.03 -3.14,-0.09 -4.19,-0.12 0.13,-4.59 0.27,-9.18 0.43,-13.77 z"
       id="path101"
       inkscape:connector-curvature="0"
       style="opacity:1;fill:#ffffff" />
    <path
       d="m 777.75,333.67 c 11.45,-0.93 23.53,1.89 32.7,9.02 6.35,4.87 10.76,12.36 11.29,20.41 -18.19,0.02 -36.38,0 -54.57,0.01 -0.19,-8.48 0.18,-17.6 4.94,-24.94 1.26,-2.16 3.52,-3.32 5.64,-4.5 z"
       id="path103"
       inkscape:connector-curvature="0"
       style="opacity:1;fill:#ffffff" />
    <path
       d="m 577.6,349.31 c 0.16,-4.66 -0.17,-9.35 0.67,-13.95 1.03,0.06 3.09,0.19 4.12,0.26 0.01,4.62 -0.53,9.21 -0.75,13.83 -1.01,-0.04 -3.03,-0.11 -4.04,-0.14 z"
       id="path105"
       inkscape:connector-curvature="0"
       style="opacity:1;fill:#ffffff" />
    <path
       d="m 466.59,338.55 c 31.28,1.1 62.58,2.22 93.87,3.3 -0.17,4.59 0.04,9.22 -0.7,13.78 -15.28,-0.54 -30.55,-1.22 -45.85,-1.49 -9.9,-1.03 -19.93,-0.41 -29.86,-1.21 -5.93,-0.36 -11.88,-0.37 -17.81,-0.59 0.07,-4.6 0.22,-9.2 0.35,-13.79 z"
       id="path107"
       inkscape:connector-curvature="0"
       style="opacity:1;fill:#ffffff" />
    <path
       d="m 320.26,338.76 c 12.52,5.69 24.95,11.6 37.42,17.41 0.05,2.6 0.05,5.2 0.01,7.81 -12.5,-6 -25,-12.02 -37.49,-18.04 0,-2.4 0.01,-4.79 0.06,-7.18 z"
       id="path109"
       inkscape:connector-curvature="0"
       style="opacity:1;fill:#ffffff" />
    <path
       d="m 567.65,338.71 c 0.82,0.05 2.46,0.15 3.28,0.21 -0.01,4.2 -0.12,8.4 -0.41,12.6 -1.01,0.1 -3.05,0.31 -4.07,0.41 0.05,-1.84 0.07,-3.68 0.25,-5.51 0.3,-2.57 0.65,-5.14 0.95,-7.71 z"
       id="path111"
       inkscape:connector-curvature="0"
       style="opacity:1;fill:#ffffff" />
    <path
       d="m 681.33,341.64 c 3.36,-0.39 6.79,-0.77 10.16,-0.18 5.7,5.06 11.5,10 17.2,15.07 -1.51,1.64 -2.83,3.42 -4.05,5.28 -2.06,5.97 0.39,12.77 5.9,15.88 -3.49,12.76 -6.65,25.6 -10.27,38.32 -6.96,-3.38 -13.5,-7.54 -20.45,-10.92 -0.52,-3.04 1.27,-7.31 -1.77,-9.34 -6.1,-1.25 -12.7,1.09 -18.53,-1.58 -0.03,-9.17 -0.03,-18.35 -0.01,-27.52 4.53,-0.16 9.12,0.37 13.62,-0.28 0.32,-0.33 0.96,-1.01 1.28,-1.35 0.61,-8.1 1.65,-16.55 6.52,-23.34 l 0.4,-0.04 z"
       id="path113"
       inkscape:connector-curvature="0"
       style="opacity:1;fill:#ffffff" />
    <path
       d="m 275.28,352.75 c 10.71,-3.15 21.38,-6.41 32.05,-9.65 1.35,4.03 2.59,8.1 3.7,12.2 -10.77,2.97 -21.34,6.64 -32.15,9.47 -1.14,-4.03 -2.44,-8 -3.6,-12.02 z"
       id="path115"
       inkscape:connector-curvature="0"
       style="opacity:1;fill:#ffffff" />
    <path
       d="m 726.14,357.87 c 12.13,-4.55 24.25,-9.13 36.35,-13.77 -1.77,7.46 -2.26,15.21 -1.56,22.83 1.13,3.88 5.91,2.15 8.89,2.51 0.01,1.46 0.03,2.93 0.06,4.4 -13.49,11.88 -26.87,23.87 -40.34,35.77 -2.74,-10.43 -5.61,-20.83 -8.39,-31.25 4.59,-1.87 8.35,-6.24 8.33,-11.37 0.28,-3.4 -1.33,-6.52 -3.34,-9.12 z"
       id="path117"
       inkscape:connector-curvature="0"
       style="opacity:1;fill:#ffffff" />
    <path
       d="m 364.12,355.83 c 5.39,-2.53 10.83,-4.95 16.26,-7.38 0,2.19 -0.01,4.38 -0.02,6.57 -5.48,2.86 -10.75,6.1 -16.19,9.03 -0.06,-2.74 -0.06,-5.48 -0.05,-8.22 z"
       id="path119"
       inkscape:connector-curvature="0"
       style="opacity:1;fill:#ffffff" />
    <path
       d="m 386.77,352.13 c 13.44,-1.4 26.72,10.2 26.81,23.79 0.03,34.38 0.07,68.76 -0.02,103.14 -3.73,-2.63 -7.77,-4.94 -12.33,-5.73 0,-27.13 0.03,-54.25 -0.01,-81.37 -0.83,-5.18 4.03,-8.53 5.4,-13.14 -1.06,-1.1 -1.92,-2.76 -3.68,-2.7 -3.28,0.25 -3.47,4.49 -5.94,5.83 -1.82,-1.66 -3.38,-3.58 -4.93,-5.47 -2.89,-1.22 -6.18,1.29 -4.64,4.43 2.2,2.95 4.95,5.45 7.29,8.29 0.08,28.09 0.05,56.18 0.02,84.27 -11.91,-0.56 -23.82,0.18 -35.73,-0.2 -4.35,0.01 -8.7,-0.79 -13.05,-0.25 -9.08,0.7 -18.82,-0.41 -27.24,3.72 -11.59,7.71 -25.09,12.68 -38.98,13.84 -0.02,-7.77 0.01,-15.54 -0.02,-23.3 10.88,4.38 23.69,4.99 34.5,0.09 14.47,-7.29 22.2,-24.63 19.03,-40.36 -5.15,-22.26 -10.83,-44.39 -16.7,-66.46 0.66,-0.82 1.32,-1.62 1.99,-2.43 -0.37,-1.3 -0.74,-2.57 -1.1,-3.86 2.26,0.04 4.7,-0.44 6.77,0.76 9.17,4.47 18.46,8.71 27.54,13.37 -2.84,3.45 -4.3,8.18 -2.86,12.54 0.93,3.55 3.74,6.13 6.65,8.16 -5.03,18.69 -10.16,37.36 -15.14,56.06 -0.71,1.89 0.85,3.4 1.91,4.76 5.12,6.1 9.99,12.42 15.17,18.48 1.11,1.67 3.73,1.57 4.94,0.05 6.27,-6.38 12.19,-13.11 18.49,-19.48 1.44,-1.21 2.16,-3.05 1.37,-4.86 -4.93,-18.35 -10.1,-36.64 -14.95,-55.02 4.47,-2.72 7.71,-7.73 7.02,-13.11 0.2,-3.25 -2.78,-5.52 -3.19,-8.47 4.5,-2.68 9.2,-5 13.67,-7.73 2.9,-1.41 1.66,-5.08 1.94,-7.64 z"
       id="path121"
       inkscape:connector-curvature="0"
       style="opacity:1;fill:#ffffff" />
    <path
       d="m 710.35,366.97 c -0.43,-4.41 4.78,-7.76 8.73,-5.98 2.72,0.73 3.69,3.61 4.31,6.04 -0.89,1.76 -1.59,3.98 -3.59,4.78 -3.7,2.28 -9.26,-0.44 -9.45,-4.84 z"
       id="path123"
       inkscape:connector-curvature="0"
       style="opacity:1;fill:#ffffff" />
    <path
       d="m 282.52,370.72 c 9.18,-3.11 18.52,-5.73 27.81,-8.53 0.52,1.98 1.04,3.97 1.54,5.96 3.62,13.21 6.77,26.54 10.26,39.78 1.65,7.31 3.64,14.55 5.06,21.92 1.53,10.71 -2.68,22.29 -11.43,28.85 -5.52,4.4 -12.79,6.03 -19.73,5.65 -6.6,-0.35 -13.83,-1.71 -18.45,-6.86 -5.22,-5.79 -6.15,-13.97 -6.37,-21.44 -0.1,-17.34 0,-34.68 -0.05,-52.02 -0.1,-4.68 0.83,-9.35 2.59,-13.68 1.28,1.16 3.08,2.04 3.34,3.94 5.39,20.94 11.12,41.81 15.85,62.91 -1.8,0.23 -3.95,-0.07 -5.29,1.44 -0.2,1.09 -0.33,2.2 -0.38,3.33 0.58,0.53 1.15,1.07 1.73,1.63 3.4,0.16 6.82,0.17 10.22,-0.24 0.72,-1.71 1.34,-3.57 0.56,-5.39 -5.45,-22.48 -10.7,-45.06 -17.26,-67.25 z"
       id="path125"
       inkscape:connector-curvature="0"
       style="opacity:1;fill:#ffffff" />
    <path
       d="m 644.6,366.68 c 3.15,-0.04 6.31,-0.03 9.47,-0.02 0,5.37 0.02,10.74 -0.01,16.11 -5.87,-3.1 -9.65,-9.43 -9.46,-16.09 z"
       id="path127"
       inkscape:connector-curvature="0"
       style="opacity:1;fill:#ffffff" />
    <path
       d="m 776.24,369.49 c 11.69,-0.05 23.38,-0.12 35.08,0.03 -0.11,6.82 -3.9,13.73 -10.44,16.27 -7.85,3.75 -18.27,0.43 -22.39,-7.26 -1.69,-2.71 -2.11,-5.92 -2.25,-9.04 z"
       id="path129"
       inkscape:connector-curvature="0"
       style="opacity:1;fill:#ffffff" />
    <path
       d="m 355.18,375.24 c 1.05,-3.87 6.05,-5.96 9.47,-3.73 2.16,1.06 2.9,3.44 3.66,5.54 -0.63,3.16 -2.58,6.73 -6.26,6.69 -4.48,0.82 -8.61,-4.35 -6.87,-8.5 z"
       id="path131"
       inkscape:connector-curvature="0"
       style="opacity:1;fill:#ffffff" />
    <path
       d="m 237.73,385.96 c 2.24,-7.21 8.74,-12.78 16.32,-13.48 -4.45,4.73 -7.74,10.83 -7.61,17.49 -0.03,40.49 0,80.98 -0.01,121.48 -3.04,0.01 -6.07,0.01 -9.1,0.02 -0.04,-29.85 -0.01,-59.7 -0.02,-89.55 0.24,-11.98 -0.51,-24.01 0.42,-35.96 z"
       id="path133"
       inkscape:connector-curvature="0"
       style="opacity:1;fill:#ffffff" />
    <path
       d="m 252.79,389.89 c 0.17,-7.72 5.84,-14.45 13.06,-16.8 -0.48,2.96 -1.03,5.92 -1.05,8.93 -0.01,16.32 0.03,32.63 -0.01,48.95 -0.34,7.21 0.24,14.57 2.56,21.45 1.33,4.14 4.13,7.55 5.98,11.45 -0.02,8.94 0,17.88 0,26.82 -1.16,0.02 -2.32,0.05 -3.47,0.09 -0.58,0.24 -1.75,0.71 -2.34,0.95 -1.78,6.37 -0.4,13.18 -0.84,19.73 -4.64,0 -9.28,0.01 -13.92,-0.01 0.02,-40.52 -0.04,-81.04 0.03,-121.56 z"
       id="path135"
       inkscape:connector-curvature="0"
       style="opacity:1;fill:#ffffff" />
    <path
       d="m 753.97,397.05 c 5.76,-5.82 12.3,-10.85 18.18,-16.56 3.47,7.17 10.73,11.99 18.53,13.14 -7.52,6.38 -14.61,13.3 -22.33,19.43 -4.44,-5.64 -10.28,-10.2 -14.38,-16.01 z"
       id="path137"
       inkscape:connector-curvature="0"
       style="opacity:1;fill:#ffffff" />
    <path
       d="m 706.11,419.52 c 3.19,-12.12 6.28,-24.28 9.83,-36.29 2.26,9.99 5.33,19.78 7.75,29.73 0.71,2.49 -2.42,3.54 -3.7,5.17 -3.78,0.23 -7.36,1.43 -10.87,2.74 -0.75,-0.34 -2.26,-1.01 -3.01,-1.35 z"
       id="path139"
       inkscape:connector-curvature="0"
       style="opacity:1;fill:#ffffff" />
    <path
       d="m 609.16,387.63 c 9.28,0.34 18.63,2.07 27.03,6.15 1.49,0.79 3.11,1.58 4.05,3.07 0.22,4.13 -2.73,7.42 -4.33,11 -13.73,1.39 -27.57,0.65 -41.33,-0.05 -0.01,-2.35 -0.01,-4.7 0.02,-7.05 9.14,0.15 18.3,-0.21 27.43,0.29 2.42,-0.5 5.87,0.71 7.35,-1.86 0.44,-1.78 -0.44,-3.81 -2.35,-4.11 -5.96,-1.66 -12.02,-2.88 -17.99,-4.48 0.04,-1 0.08,-1.98 0.12,-2.96 z"
       id="path141"
       inkscape:connector-curvature="0"
       style="opacity:1;fill:#ffffff" />
    <path
       d="m 801.05,392.92 c 2.61,-1.39 5.44,-2.46 7.78,-4.35 -0.1,3.81 0.03,7.62 0.02,11.43 -0.06,17 -0.06,34 -0.01,51 -0.13,12.44 0.1,24.89 -0.12,37.34 -9.83,-0.06 -19.66,-0.03 -29.49,-0.02 -0.07,-25.11 -0.14,-50.23 0.03,-75.33 6.69,-7.17 14.9,-13 21.79,-20.07 z"
       id="path143"
       inkscape:connector-curvature="0"
       style="opacity:1;fill:#ffffff" />
    <path
       d="m 347.79,442.16 c 4.57,-16.48 8.96,-33.03 13.56,-49.5 5.22,17.32 9.64,34.89 14.45,52.33 -4.88,5.08 -9.72,10.19 -14.55,15.3 -0.82,1.33 -2.14,0.16 -2.69,-0.7 -3.58,-4.43 -7.23,-8.82 -10.84,-13.22 -1.07,-1.24 -0.12,-2.85 0.07,-4.21 z"
       id="path145"
       inkscape:connector-curvature="0"
       style="opacity:1;fill:#ffffff" />
    <path
       d="m 639.17,415.34 c 3.62,-6.34 7.02,-12.79 10.62,-19.13 9.28,5.05 18.61,10.03 27.85,15.15 0.33,1.87 -1.36,3.46 -1.99,5.16 -2.72,4.69 -4.57,9.96 -7.74,14.35 -9.7,-4.92 -19.2,-10.29 -28.74,-15.53 z"
       id="path147"
       inkscape:connector-curvature="0"
       style="opacity:1;fill:#ffffff" />
    <path
       d="m 748.55,401.54 c 5.11,5.28 10.19,10.6 15.06,16.11 -6.98,6.06 -13.83,12.28 -20.77,18.39 -1.95,-7.3 -7.16,-13.72 -14.38,-16.27 6.32,-6.47 13.5,-12.04 20.09,-18.23 z"
       id="path149"
       inkscape:connector-curvature="0"
       style="opacity:1;fill:#ffffff" />
    <path
       d="m 674.01,434.42 c 3.02,-6.67 6.69,-13.02 9.95,-19.57 6.5,3.33 12.79,7.05 19.31,10.33 -4.87,6.29 -7.6,14.61 -5.12,22.45 -7.94,-4.6 -16.06,-8.88 -24.14,-13.21 z"
       id="path151"
       inkscape:connector-curvature="0"
       style="opacity:1;fill:#ffffff" />
    <path
       d="m 758.24,431.07 c 4.97,-4.17 9.77,-8.54 14.63,-12.83 0.07,17.01 0.07,34.03 0,51.05 -4.91,-0.02 -9.81,-0.02 -14.71,0 -0.02,-12.74 -0.18,-25.48 0.08,-38.22 z"
       id="path153"
       inkscape:connector-curvature="0"
       style="opacity:1;fill:#ffffff" />
    <path
       d="m 718.64,424.89 c 9.54,-1.18 18.82,7.44 18.02,17.1 -0.14,10.47 -11.88,18.44 -21.66,14.64 -9.27,-2.66 -13.94,-14.5 -9.31,-22.87 2.36,-5 7.54,-8.24 12.95,-8.87 z"
       id="path155"
       inkscape:connector-curvature="0"
       style="opacity:1;fill:#ffffff" />
    <path
       d="m 658.74,433.6 c 4.88,2.65 9.85,5.17 14.59,8.07 -0.06,9.2 0.01,18.41 -0.04,27.61 -4.85,0 -9.7,0 -14.54,0 -0.03,-11.89 -0.02,-23.79 -0.01,-35.68 z"
       id="path157"
       inkscape:connector-curvature="0"
       style="opacity:1;fill:#ffffff" />
    <path
       d="m 743.02,444.86 c 2.77,-2.69 5.69,-5.21 8.61,-7.73 -0.03,12.13 0.07,24.27 -0.05,36.4 0.96,0.9 1.81,2.27 3.37,2 5.92,0.1 11.86,-0.01 17.79,0.03 0.03,4.25 0.05,8.5 -0.03,12.76 -37.73,-0.02 -75.45,-0.01 -113.18,-0.01 -0.05,-4.25 -0.03,-8.5 -0.02,-12.75 6.1,0.01 12.2,-0.03 18.3,0.02 1.02,-0.92 2.2,-1.9 1.93,-3.46 0.11,-9.03 -0.02,-18.05 0.05,-27.07 9.93,5.5 20.09,10.61 29.81,16.49 7.54,3.97 17.31,3.37 24.17,-1.75 4.99,-3.43 8.18,-9.04 9.25,-14.93 z"
       id="path159"
       inkscape:connector-curvature="0"
       style="opacity:1;fill:#ffffff" />
    <path
       d="m 503.9,444.72 c 0.99,-0.02 2.96,-0.08 3.94,-0.11 -4.38,22.38 -8.84,44.74 -13.27,67.11 -1.03,-0.02 -2.05,-0.03 -3.07,-0.04 3.98,-22.35 8.59,-44.58 12.4,-66.96 z"
       id="path161"
       inkscape:connector-curvature="0"
       style="opacity:1;fill:#ffffff" />
    <path
       d="m 501.22,511.69 c 4.35,-22.37 8.68,-44.74 13.29,-67.06 15.68,0.02 31.36,0.01 47.03,0.01 -2.4,13.18 -5.23,26.27 -7.68,39.44 -1.51,-6.32 -2.05,-12.83 -3.64,-19.12 -0.52,-1.94 -2.64,-1.65 -4.19,-1.73 -7.66,0.07 -15.32,-0.11 -22.96,0.09 -1.82,-0.11 -3.11,1.84 -2.71,3.53 2.32,14.98 5.41,29.84 7.49,44.85 -8.88,-0.01 -17.75,0.01 -26.63,-0.01 z"
       id="path163"
       inkscape:connector-curvature="0"
       style="opacity:1;fill:#ffffff" />
    <path
       d="m 527.29,469.58 c 5.76,-0.02 11.51,0.01 17.27,-0.02 2.66,14 5.02,28.07 7.3,42.13 -5.77,0 -11.55,0.05 -17.32,-0.04 -2.33,-14.04 -4.88,-28.04 -7.25,-42.07 z"
       id="path165"
       inkscape:connector-curvature="0"
       style="opacity:1;fill:#ffffff" />
    <path
       d="m 174.89,501 c 0.08,-9.48 -0.51,-19 0.35,-28.45 7.84,0.11 15.68,0 23.52,0.06 -0.02,12.64 0.01,25.28 -0.01,37.92 -7.86,0.01 -15.71,-0.03 -23.57,0.03 -0.49,-3.17 -0.37,-6.38 -0.29,-9.56 z"
       id="path167"
       inkscape:connector-curvature="0"
       style="opacity:1;fill:#ffffff" />
    <path
       d="m 357,481.89 c 7.7,-5.6 19.67,-0.08 21.02,9.17 0.43,6.48 0.03,13 0.19,19.5 -23.59,0.14 -47.17,0.04 -70.76,0.05 0.01,-4.39 0,-8.79 0.01,-13.18 17.57,-0.23 34.93,-5.79 49.54,-15.54 z"
       id="path169"
       inkscape:connector-curvature="0"
       style="opacity:1;fill:#ffffff" />
    <path
       d="m 318.59,484.4 c 7.82,-5.84 18.23,-4.45 27.41,-4.87 -8.9,5.26 -18.81,8.78 -29,10.51 -3.5,0.64 -7.1,0.34 -10.58,1.08 0,-0.07 0,-0.21 0,-0.29 4.09,-2.08 8.26,-4.01 12.17,-6.43 z"
       id="path171"
       inkscape:connector-curvature="0"
       style="opacity:1;fill:#ffffff" />
    <path
       d="m 384.65,492.99 c 0.21,-7.35 7.04,-13.72 14.4,-13.32 4.39,-0.06 7.85,2.99 11.46,5.03 13.5,8.14 29.2,12.41 44.92,12.74 0,4.39 0,8.78 0,13.18 -23.6,0 -47.21,0.01 -70.81,0 0.04,-5.88 -0.07,-11.76 0.03,-17.63 z"
       id="path173"
       inkscape:connector-curvature="0"
       style="opacity:1;fill:#ffffff" />
    <path
       d="m 671.13,495.31 c 41.85,-0.01 83.71,-0.08 125.56,0.04 0.01,1.11 0.02,2.22 0.03,3.35 -41.87,0.12 -83.74,0.04 -125.6,0.04 0,-1.15 0.01,-2.29 0.01,-3.43 z"
       id="path175"
       inkscape:connector-curvature="0"
       style="opacity:1;fill:#ffffff" />
    <path
       d="m 273.72,497.44 c 9.01,0.03 18.03,-0.17 27.04,0.08 1,4.08 0.1,8.71 0.44,13 -9.16,0.22 -18.32,0.06 -27.48,0.09 0,-4.4 0,-8.79 0,-13.17 z"
       id="path177"
       inkscape:connector-curvature="0"
       style="opacity:1;fill:#ffffff" />
    <path
       d="m 671.13,505.24 c 41.86,-0.02 83.71,-0.06 125.57,0.02 0.02,0.76 0.06,2.29 0.08,3.06 -41.9,0.09 -83.8,0.06 -125.7,0.01 0.01,-0.77 0.04,-2.32 0.05,-3.09 z"
       id="path179"
       inkscape:connector-curvature="0"
       style="opacity:1;fill:#ffffff" />
    <path
       d="m 671,514.94 c 41.9,-0.08 83.81,-0.05 125.71,-0.01 -0.01,0.86 -0.04,2.58 -0.05,3.45 -41.27,0.05 -82.55,0.04 -123.82,0.01 -2.48,0.68 -1.49,-2.13 -1.84,-3.45 z"
       id="path181"
       inkscape:connector-curvature="0"
       style="opacity:1;fill:#ffffff" />
    <path
       d="m 659.47,526.4 c 37.77,-0.02 75.54,0 113.31,-0.01 -0.16,3.3 0.58,7.01 -1.49,9.87 -2.51,4.24 -7.57,6.06 -12.22,6.65 -7.71,0.48 -15.45,0.06 -23.17,0.28 -1.6,-0.22 -2.36,1.38 -3.3,2.3 0.18,14.17 0.02,28.35 0.08,42.52 -5.59,-0.04 -11.19,0.16 -16.77,-0.09 -5.73,-0.35 -11.93,-4.62 -11.91,-10.84 -0.12,-10.06 0.05,-20.12 -0.06,-30.18 0.18,-1.75 -1.05,-3.83 -2.99,-3.68 -9.31,-0.22 -18.64,0.02 -27.95,-0.09 -5.31,0.06 -10.57,-3.21 -12.56,-8.18 -1.36,-2.65 -0.84,-5.7 -0.97,-8.55 z"
       id="path183"
       inkscape:connector-curvature="0"
       style="opacity:1;fill:#ffffff" />
    <path
       d="m 779.19,526.39 c 9.87,0.01 19.75,0 29.62,0 -0.05,4.28 0.74,9.32 -2.72,12.59 -4.34,4.72 -11.22,4.27 -17.06,4.16 -4.96,0 -9.92,-0.02 -14.87,0.02 4.51,-4.37 5.47,-10.78 5.03,-16.77 z"
       id="path185"
       inkscape:connector-curvature="0"
       style="opacity:1;fill:#ffffff" />
    <path
       d="m 660.2,566.93 c -0.29,-8.03 6.66,-15.39 14.66,-15.7 6.97,-0.21 13.96,0.06 20.94,-0.11 -3.34,3.6 -6.25,7.85 -6.87,12.84 -0.63,5.53 -0.15,11.11 -0.29,16.66 -3.22,0.03 -6.46,-0.23 -9.65,0.25 -1.07,0.65 -1.82,1.76 -1.71,3.05 -0.24,9.24 0.16,18.49 -0.19,27.73 -5.77,5.58 -11.33,11.39 -16.86,17.22 -0.07,-20.65 -0.02,-41.29 -0.03,-61.94 z"
       id="path187"
       inkscape:connector-curvature="0"
       style="opacity:1;fill:#ffffff" />
    <path
       d="m 740.77,565.99 c 0.34,-7.51 6.73,-14.25 14.28,-14.73 6.9,-0.27 13.82,0.04 20.73,-0.14 -4.46,4.81 -6.94,11.27 -6.45,17.85 0.04,17.01 -0.02,34.03 0.03,51.04 -0.02,2.94 0.16,5.93 -0.44,8.83 -9.23,11.95 -18.08,24.19 -27.27,36.18 -0.1,-1.85 -0.17,-3.7 -0.21,-5.54 l -0.73,0.09 c -0.04,-4.02 -0.02,-8.03 -0.01,-12.04 3.27,-0.06 6.58,0.27 9.84,-0.25 1.77,-0.66 2.15,-2.61 2.03,-4.28 -0.02,-19.35 0,-38.7 -0.01,-58.05 0.21,-1.7 -0.78,-3.08 -1.73,-4.35 -3.39,0.03 -6.77,0.02 -10.14,0.03 0.07,-4.89 -0.15,-9.77 0.08,-14.64 z"
       id="path189"
       inkscape:connector-curvature="0"
       style="opacity:1;fill:#ffffff" />
    <path
       d="m 775.72,566.95 c -0.11,-7.23 5.4,-13.87 12.42,-15.37 8.04,-2.01 17.04,3.47 19,11.5 0.81,2.91 0.63,5.95 0.66,8.95 -0.07,12.68 0.06,25.37 -0.07,38.06 -10.78,12.54 -21.33,25.28 -31.98,37.93 -0.1,-27.02 -0.04,-54.05 -0.03,-81.07 z"
       id="path191"
       inkscape:connector-curvature="0"
       style="opacity:1;fill:#ffffff" />
    <path
       d="m 695,567.91 c -0.11,-3.14 1.08,-6.09 2.28,-8.93 0.37,6.33 -0.06,12.68 0.25,19.01 0.41,7.06 5.92,13.08 12.51,15.18 7.83,2.34 16.15,0.75 24.2,1.26 -0.01,5.1 0.01,10.2 -0.09,15.31 -13.32,14.17 -25.98,28.95 -39.1,43.32 -0.11,-28.39 -0.03,-56.77 -0.05,-85.15 z"
       id="path193"
       inkscape:connector-curvature="0"
       style="opacity:1;fill:#ffffff" />
    <path
       d="m 683.56,587.26 c 1.69,0.02 3.39,-0.15 5.1,-0.15 -0.04,17.99 0,35.98 -0.02,53.97 -1.68,0.02 -3.35,0.03 -5,0.05 -0.07,-17.96 0.08,-35.92 -0.08,-53.87 z"
       id="path195"
       inkscape:connector-curvature="0"
       style="opacity:1;fill:#ffffff" />
    <path
       d="m 740.69,587.14 c 1.86,0.01 3.73,0.05 5.6,0.1 -0.03,17.95 0.01,35.91 -0.01,53.87 -1.96,0 -3.9,0 -5.84,0.01 0.28,-17.99 0.28,-35.99 0.25,-53.98 z"
       id="path197"
       inkscape:connector-curvature="0"
       style="opacity:1;fill:#ffffff" />
  </g>
  <g
     id="#fefefeff"
     transform="translate(-123.15231,-118.42084)">
    <path
       d="m 736.25,141.78 c 0.89,-0.86 1.82,-1.71 2.73,-2.56 2.39,3.68 5.07,7.22 6.72,11.33 0.23,0.39 0.69,1.17 0.93,1.56 -4.07,-2.8 -7.01,-6.81 -10.38,-10.33 z"
       id="path200"
       inkscape:connector-curvature="0"
       style="opacity:1;fill:#fefefe" />
    <path
       d="m 713.06,317.71 c 12.86,-0.34 25.74,-0.02 38.62,-0.16 0.03,0.47 0.09,1.4 0.13,1.87 -2.25,0.5 -4.51,0.91 -6.81,0.83 -10.78,-0.07 -21.56,0.03 -32.34,-0.06 0.1,-0.62 0.3,-1.86 0.4,-2.48 z"
       id="path202"
       inkscape:connector-curvature="0"
       style="opacity:1;fill:#fefefe" />
    <path
       d="m 379.16,479.62 c 1.52,-0.02 3.05,-0.02 4.59,-0.01 -0.74,0.96 -1.47,1.93 -2.18,2.92 -0.81,-0.98 -1.61,-1.94 -2.41,-2.91 z"
       id="path204"
       inkscape:connector-curvature="0"
       style="opacity:1;fill:#fefefe" />
  </g>
  <g
     id="#fbfbfbff"
     transform="translate(-123.15231,-118.42084)">
    <path
       d="m 713.05,325.79 c 6.76,-0.3 13.55,-0.2 20.32,-0.02 -6.26,3.86 -13.77,2.16 -20.71,2.47 0.1,-0.61 0.29,-1.84 0.39,-2.45 z"
       id="path207"
       inkscape:connector-curvature="0"
       style="opacity:1;fill:#fbfbfb" />
  </g>
  <g
     id="#a0a0a0ff"
     transform="translate(-123.15231,-118.42084)">
    <path
       d="m 566.77,337.83 c 1.66,0.1 3.34,0.22 5.02,0.35 -0.13,4.76 -0.32,9.52 -0.51,14.28 -1.62,-0.17 -3.23,-0.33 -4.83,-0.53 1.02,-0.1 3.06,-0.31 4.07,-0.41 0.29,-4.2 0.4,-8.4 0.41,-12.6 -0.82,-0.06 -2.46,-0.16 -3.28,-0.21 -0.3,2.57 -0.65,5.14 -0.95,7.71 -0.23,-2.86 -0.12,-5.73 0.07,-8.59 z"
       id="path210"
       inkscape:connector-curvature="0"
       style="opacity:1;fill:#a0a0a0" />
  </g>
  <g
     id="#24242424"
     transform="translate(-123.15231,-118.42084)">
    <path
       d="m 681.33,341.64 c 2.12,-1.84 5.05,-2.05 7.7,-2.46 0.81,0.76 1.63,1.52 2.46,2.28 -3.37,-0.59 -6.8,-0.21 -10.16,0.18 z"
       id="path213"
       inkscape:connector-curvature="0"
       style="opacity:0.13999999;fill:#242424" />
  </g>
  <g
     id="#0101018f"
     transform="translate(-123.15231,-118.42084)">
    <path
       d="m 491.65,359.51 c 10.13,-0.21 20.28,0.32 30.38,1.02 14.44,0.4 28.86,0.84 43.3,1.29 -3.37,0.91 -6.88,0.55 -10.32,0.46 -18.33,-0.99 -36.67,-1.32 -55.01,-1.91 -2.81,-0.02 -5.65,0 -8.35,-0.86 z"
       id="path216"
       inkscape:connector-curvature="0"
       style="opacity:0.56000001;fill:#010101" />
  </g>
</svg>
