<?xml version="1.0" encoding="UTF-8" standalone="no"?>
<!-- Generator: Adobe Illustrator 19.0.0, SVG Export Plug-In . SVG Version: 6.00 Build 0)  -->

<svg
   xmlns:dc="http://purl.org/dc/elements/1.1/"
   xmlns:cc="http://creativecommons.org/ns#"
   xmlns:rdf="http://www.w3.org/1999/02/22-rdf-syntax-ns#"
   xmlns:svg="http://www.w3.org/2000/svg"
   xmlns="http://www.w3.org/2000/svg"
   xmlns:sodipodi="http://sodipodi.sourceforge.net/DTD/sodipodi-0.dtd"
   xmlns:inkscape="http://www.inkscape.org/namespaces/inkscape"
   version="1.1"
   id="Layer_1"
   x="0px"
   y="0px"
   viewBox="232 -25 827.29468 661.28436"
   xml:space="preserve"
   inkscape:version="0.91 r13725"
   sodipodi:docname="sell.svg"
   width="827.29468"
   height="661.28436"><metadata
     id="metadata197"><rdf:RDF><cc:Work
         rdf:about=""><dc:format>image/svg+xml</dc:format><dc:type
           rdf:resource="http://purl.org/dc/dcmitype/StillImage" /><dc:title></dc:title></cc:Work></rdf:RDF></metadata><defs
     id="defs195" /><sodipodi:namedview
     pagecolor="#ffffff"
     bordercolor="#666666"
     borderopacity="1"
     objecttolerance="10"
     gridtolerance="10"
     guidetolerance="10"
     inkscape:pageopacity="0"
     inkscape:pageshadow="2"
     inkscape:window-width="640"
     inkscape:window-height="480"
     id="namedview193"
     showgrid="false"
     fit-margin-top="0"
     fit-margin-left="0"
     fit-margin-right="0"
     fit-margin-bottom="0"
     inkscape:zoom="0.27255814"
     inkscape:cx="453.98951"
     inkscape:cy="322.43991"
     inkscape:window-x="0"
     inkscape:window-y="0"
     inkscape:window-maximized="0"
     inkscape:current-layer="Layer_1" /><style
     type="text/css"
     id="style3">
	.st0{fill:#FFFFFF;}
	.st1{fill:#020202;}
</style><polygon
     class="st0"
     points="784.5,165.6 786.8,149.2 727.6,149.2 727.6,165.1 764,163.5 "
     id="polygon5"
     style="fill:#ffffff"
     transform="translate(-83.510493,-82.155556)" /><g
     id="_x23_020202ff"
     transform="translate(-83.510493,-82.155556)"><path
       class="st1"
       d="m 910.8,86 c 0.2,-15.4 13.9,-28.8 29.3,-28.8 57.4,-0.1 114.8,0 172.1,0 8.6,-0.2 17.1,3.5 22.8,9.9 5.2,5.6 7.9,13.2 7.8,20.8 0,39.4 0,78.7 0,118 0.2,10.5 -5.4,20.9 -14.4,26.2 -4.8,3 -10.6,4.4 -16.2,4.4 -33.3,0 -66.7,0 -100,0 -2.8,0.2 -6,-0.7 -8.4,1.1 -15.4,9.6 -30.8,19.2 -46.2,28.8 -4.3,2.5 -8.3,5.6 -12.9,7.7 -0.2,-12.5 -0.5,-25 -0.8,-37.5 -6.1,0.2 -12.3,-0.7 -17.7,-3.8 -9.3,-5 -15.5,-15.3 -15.5,-25.9 0.1,-40.3 0,-80.6 0.1,-120.9 m 21.8,-16.6 c -6.8,3 -11.4,10.1 -11.4,17.5 0,38.3 0,76.7 0,115 0,3.7 -0.2,7.5 1.1,11 2.4,7.2 9.3,12.6 16.9,13 5,0.2 9.9,0 14.9,0.1 0.2,9.9 0.5,19.8 0.7,29.8 14.7,-9.1 29.3,-18.3 44,-27.4 1.7,-1 3.3,-2.6 5.4,-2.4 36.3,0 72.7,0 109,0 10.2,0.1 19.2,-9 19.2,-19.2 0,-40 0,-80 0,-120 0.1,-10.2 -9,-19.3 -19.2,-19.3 -56.6,-0.1 -113.3,0 -170,0 -3.6,0 -7.3,0.3 -10.6,1.9 z"
       id="path8"
       inkscape:connector-curvature="0"
       style="fill:#020202" /><path
       class="st1"
       d="m 753.6,61.4 c 2.3,-1.5 6.2,-1.5 7.9,1 1.4,2.3 0.9,5.2 1,7.7 7,1.1 15.6,2 19.6,8.7 2.3,3.5 0.5,8.2 -2.5,10.7 -4.8,4.1 -11.3,4.7 -17.2,5.7 0,2.4 0,4.9 0,7.3 7.8,0.6 15.9,1.3 22.9,5.1 2.9,1.4 4.2,4.5 5,7.4 -0.7,4 -3.6,7.3 -7.3,8.8 -6.5,2.7 -13.6,3.5 -20.6,4 0,4.7 -0.1,9.3 0,14 8.5,-0.2 17,-0.1 25.5,-0.1 2.2,-0.2 4.1,1.1 5.5,2.6 0.2,6.3 0.2,12.6 -0.1,18.9 12.7,5.4 24.3,13.4 33.6,23.7 2,2.7 5.2,3.7 8.1,5.1 3,-7.3 9.7,-13.9 18,-14.1 10.1,0.6 20.3,4.1 28,10.9 7.4,6.5 12.1,16.1 12.7,26 0.4,6.7 0,13.4 0.3,20.1 4.5,3.6 8.3,7.9 11.8,12.4 2.1,-1.6 4.1,-3.4 6.4,-4.6 2.2,-1.1 4.8,0 6,2 21.3,28.7 42.3,57.6 63.7,86.1 5.7,2.2 11.8,4.2 16.2,8.7 11.4,10.2 14.1,28.5 6.2,41.7 -5.8,10.3 -17.5,17 -29.4,16.6 -2.1,0 -4.3,-0.5 -6,1 -26.9,18.7 -53.8,37.3 -80.6,55.9 20.6,20.4 41.4,40.7 62,61.2 30.5,-19 60.6,-38.5 91,-57.6 -14.8,-12.9 -20.8,-35.5 -12.4,-53.5 2.2,-5.9 6.3,-11.8 12.8,-13.3 17.9,-5.1 37.2,14.3 31.4,32.2 4.8,2.2 10,3.7 14.5,6.5 3.5,4.7 5.3,10.4 6.1,16.1 10.9,-6.6 25.4,-1.3 32.4,8.5 5.7,7.4 7.3,18.8 1.3,26.4 -8.4,8.5 -20.2,14.2 -32.4,13.7 -8.5,-0.2 -16.7,-3.5 -23.2,-8.8 -1.3,0.8 -2.6,1.6 -3.8,2.5 1.5,2.3 3.2,4.6 4.3,7.2 0.8,2.6 -1.1,4.9 -3.2,6 -19.8,12.4 -39.4,25.2 -59.3,37.5 5.8,2.4 11.9,4.6 16.2,9.5 4.3,4.5 6.7,10.7 6.7,16.9 -0.1,13 0,25.9 -0.1,38.9 0.1,2.5 -2.1,4.8 -4.6,4.7 -7.2,0.2 -14.5,0 -21.7,0.1 0,12.2 0.1,24.5 -0.1,36.7 28.6,0.3 57.2,0 85.8,0.1 3.3,-0.1 5.9,3.4 5.2,6.6 -0.5,2.8 -3.3,4.6 -6,4.4 -246.7,0 -493.4,0 -740.1,0 -3.7,0.2 -6.6,-4 -5.2,-7.4 0.9,-2.6 3.7,-3.8 6.3,-3.6 29,0.1 57.9,-0.1 86.9,0.1 0.3,-12.1 0.1,-24.3 0.1,-36.4 -4,0 -8,0.2 -12,-0.1 -2.6,0 -4.8,-2.5 -4.6,-5 -0.1,-12 0,-24.1 0,-36.1 -0.2,-4.8 0.5,-9.7 2.8,-14 4.5,-8.5 13.6,-13.3 22.7,-15.2 13.4,-2.8 27,-1 40.6,-1.7 -18.9,-12.7 -38.5,-24.5 -57.6,-36.9 -2,-1.2 -2.9,-4 -1.8,-6.1 1.2,-2.3 2.7,-4.3 3.8,-6.6 -4.9,-2.7 -9.2,-6.5 -13.1,-10.6 -11.2,0.2 -22.8,3 -33.6,-1.2 -15.2,-5.4 -25,-21 -26.2,-36.7 0,-4 1.9,-7.8 4.2,-10.9 9.4,-11.7 29.2,-12.7 39.6,-1.9 2.4,2.3 3.6,5.5 4.8,8.6 3.1,0.5 2.8,-4.7 5.3,-5.9 4.3,-2.2 8.8,-3.9 13.3,-5.7 2.7,-1.4 6.6,0.5 6.7,3.7 0,2.2 -0.4,4.4 -0.6,6.5 1.4,-0.1 2.9,-0.3 4.3,-0.4 0.6,-5.2 3.3,-10 7.4,-13.2 8.7,-7.1 21.9,-8.1 31.5,-2.3 5.7,3.4 10.2,9.7 9.6,16.6 -1.1,11.6 -6.8,22.7 -15.7,30.3 26.7,17 53.4,34 80.2,50.8 19.4,-19.2 38.8,-38.3 58.2,-57.4 -18.2,-12.6 -36.4,-25.3 -54.6,-37.9 -4.2,-2.7 -8.1,-6 -12.5,-8.4 -5.7,0.2 -11.5,0 -16.8,-2.3 -11.4,-4.3 -19.8,-15.3 -21.1,-27.3 -2.1,-14.9 7.3,-30.5 21.6,-35.4 2.1,-0.9 4.8,-1 6.2,-3 20.9,-28.4 41.8,-56.8 62.8,-85.1 1.3,-2 4.1,-3.1 6.3,-1.8 2.2,1.3 4.2,3 6.2,4.5 3.4,-4.6 7.3,-8.8 11.7,-12.4 0.4,-7.2 -0.1,-14.4 0.4,-21.6 1,-10.6 6.7,-20.5 15.3,-26.8 7.1,-5.4 16,-8 24.8,-8.7 5.4,-0.3 10.2,2.9 13.9,6.5 4.8,-5.6 11.7,-8.9 16.5,-14.6 7.8,-8.6 17.8,-15 28.3,-19.8 0.5,-0.3 1.5,-1 2,-1.4 0.2,-5.5 -0.2,-10.9 0.1,-16.4 0,-2.7 2.6,-5 5.3,-5.1 8.9,-0.3 17.8,0.1 26.7,-0.2 -0.3,-4.7 -0.1,-9.4 -0.1,-14 -6.9,-1.1 -14.5,-1.6 -20.2,-6.1 -3.8,-2.7 -4.2,-8.9 -0.7,-11.9 5.5,-5.3 13.7,-5.6 20.9,-6.9 0,-2.6 0,-5.1 0,-7.6 -5.5,-1.2 -11.6,-1.9 -15.8,-6 -1.9,-1.6 -2.5,-4 -3.3,-6.2 1.1,-9.3 11.5,-11.4 19,-12.6 0,-2.7 -0.8,-6.4 1.7,-8.6 m -9.8,21.3 c 2.6,1.1 5.3,2 8,2.3 0,-1.6 -0.1,-3.2 -0.1,-4.8 -2.7,0.5 -5.4,1.2 -7.9,2.5 M 762.5,80 c 0,1.8 0.1,3.6 0.2,5.4 3.3,-0.7 6.7,-1.1 9.5,-2.9 -3,-1.3 -6.3,-2.1 -9.7,-2.5 m 0.1,32.4 c 0,1.8 -0.1,3.6 -0.1,5.4 5.3,-0.1 10.6,-0.9 15.7,-2.6 -4.9,-2 -10.3,-2.4 -15.6,-2.8 m -22.4,2.8 c 3.7,1.3 7.6,2 11.5,2.4 0,-1.6 0.1,-3.1 0.1,-4.7 -4,0 -7.8,1 -11.6,2.3 m -9.4,36.1 c -0.2,2.9 0,5.8 0,8.7 9.6,-2.6 19.5,-4.3 29.5,-3.8 7.7,0.2 15.3,1.8 22.8,3.6 0,-1 0,-1 0.5,-3.6 0.2,2.7 -0.4,1.1 -0.1,3.8 0.1,-2.8 0.1,-5.6 0.2,-8.4 -17.8,-0.2 -35.4,0.3 -52.9,-0.3 m 5.1,16.1 c 13.3,2 26.2,6.7 37.4,14 l 1,0 c 5.6,-3.7 11.6,-6.8 17.9,-9.2 -5.9,-2.2 -11.8,-4.4 -18,-5.5 -12.7,-2.6 -25.8,-1.7 -38.3,0.7 m -21.2,9.9 c -3.7,0.6 -6.5,3.2 -9.6,5.1 13.9,-1.7 28,4 38.1,13.4 10.4,9.9 17.5,23.1 20.3,37.2 4.5,17.3 2.6,35.8 -3.7,52.4 -5.6,14.1 -15.8,26.7 -29.4,33.7 -6,2.9 -12.6,4.2 -19.2,5 14.3,8.8 31.1,13.6 47.9,13.1 20.6,-0.3 40.8,-8.5 56,-22.3 -4.5,-2.7 -8,-6.7 -10.7,-11.1 -1.2,-1.9 -2.3,-3.8 -3,-5.9 -1.3,-2.9 -2.3,-5.9 -3.1,-9 -0.9,-2.6 -1.5,-5.3 -1.9,-8 -1,-4 -1.8,-8 -2,-12.1 -1.3,-5.5 -0.6,-11.2 -0.9,-16.7 0.3,-4.9 -0.4,-10 0.9,-14.8 0.2,-1.8 0.3,-3.5 0.5,-5.3 1.2,-5 1.9,-10 3.5,-14.9 0.1,-0.6 0.3,-1.7 0.4,-2.3 0.5,-1.3 1,-2.5 1.5,-3.8 0.8,-2.4 1.8,-4.7 3.1,-6.9 3.3,-5.9 8,-11.6 14.6,-13.8 -4.7,-4.7 -10,-8.9 -15.6,-12.4 -8.9,2.6 -17.7,6.3 -25.1,11.9 -1.5,1.4 -3.9,1.6 -5.7,0.6 -15.9,-12.2 -37.2,-17.3 -56.9,-13.1 m 135.8,11.1 c -4.7,2.2 -7,7.6 -7.3,12.5 2.8,5.2 7.6,9.5 8.8,15.6 3.3,1.3 6.6,-0.7 8.6,-3.3 4.8,-6.2 4.7,-15.6 0,-21.7 -2.3,-2.9 -6.5,-4.8 -10.1,-3.1 m -151.9,4 c 7.4,0.6 15,1.8 21.6,5.5 11.1,5.9 18.9,16.6 23.5,28.1 5,13.3 6.7,28 3.5,41.9 -3,14.8 -10.5,29.3 -23.2,37.9 -7.5,5.3 -16.8,7.7 -26,7.6 6.9,1.6 14.2,2.3 21.1,0.3 12.8,-3.4 22.9,-13.4 29.1,-24.8 9.7,-18.2 11.2,-40.3 5,-59.9 -4.7,-14.8 -14.6,-28.9 -29.3,-35.1 -7.9,-3.5 -16.9,-3.4 -25.3,-1.5 m 163.2,32.3 c 7.7,-1.3 15.6,0.4 22.6,3.9 -0.4,-6.9 0.7,-14.1 -1.8,-20.8 -1.8,-5.6 -5.8,-10 -10.1,-13.8 3.3,11.1 -0.2,24.8 -10.7,30.7 m -48.9,-19 c -0.5,0.8 -0.9,1.7 -1.4,2.5 -0.5,0.9 -1,1.8 -1.6,2.8 -0.5,1.4 -1.1,2.8 -1.5,4.1 -1.6,3.8 -2.3,7.8 -3.5,11.7 -0.5,4.1 -1.5,8.1 -1.6,12.2 -1.4,8.9 -0.7,18.1 -0.4,27 0.9,2.6 0.7,5.4 1,8.1 0.7,1.5 0.8,3.3 1,4.9 0.8,2.6 1.4,5.4 2.1,8 2.4,6.9 5,14.6 11.4,18.9 3,2.1 6.8,1.3 10,-0.2 -3.9,-2.9 -7.3,-6.4 -9.5,-10.7 -1.5,-3.3 -2.8,-6.6 -3.8,-10.1 -3.2,-12.1 -4.5,-24.6 -4.2,-37.1 0.3,-4.1 1,-8.1 1.1,-12.2 0.8,-1.9 0.8,-3.9 1.1,-5.9 1.7,-6.7 3,-13.6 6.5,-19.7 2,-3.6 4.7,-6.8 8.3,-8.8 0.9,-1.6 -1.8,-1.7 -2.8,-2.2 -5.3,-1.3 -9.5,2.8 -12.2,6.7 m -125.6,-1.8 c -9.1,4.3 -15.9,12.3 -20.2,21.2 -7,14.6 -7.8,31.7 -3.5,47.2 1.8,-0.6 3.6,-1.1 5.5,-1 12.3,0 24.6,0.1 37,0.2 2.1,0 4.3,0.2 6,1.4 1.1,2.5 0.3,5.3 -1.2,7.5 -3.9,5.8 -9.1,11.2 -15.9,13.3 -7.6,2.7 -17,1.3 -22.9,-4.5 4.9,6.7 11.8,12.4 19.9,14.8 8.8,2.7 18.7,1.1 26.4,-3.9 10.2,-6.5 16.9,-17.5 20.1,-29 4.2,-15.3 3,-32.2 -4,-46.5 -4.4,-9 -11.5,-17.1 -20.9,-21.2 -8.3,-3.7 -18.1,-3.5 -26.3,0.5 m -31.8,-0.6 c -9.2,6 -9,22 0.5,27.7 2.4,-8.5 5.7,-16.9 10.8,-24.2 -2.3,-3.6 -7.2,-6.1 -11.3,-3.5 m 172.4,8.3 c -1,1.7 -2,3.4 -2.9,5.2 -0.5,1.4 -1,2.8 -1.6,4.2 -1.1,2.8 -1.5,5.9 -2.4,8.8 -0.2,1.4 -0.3,2.8 -0.5,4.2 -1.4,3.4 -0.3,7.3 -1.5,10.8 0,6.6 -0.8,13.3 0.5,19.8 0.2,2.4 -0.1,4.9 0.8,7.2 0.4,3.4 1,6.7 2,10 0.5,2 1.1,4.1 2,6 0.5,1.1 0.9,2.3 1.4,3.4 2,3.5 4.9,7.9 9.5,7.4 4.2,-0.9 6.3,-5 8.2,-8.4 0.7,-1.8 1.5,-3.5 2.8,-5 -1.4,0.3 -1.6,1.9 -2.2,2.9 -2.2,1.5 -5.2,3.2 -7.8,1.4 -4.7,-2.9 -6.4,-8.7 -7.8,-13.7 -0.4,-2 -1,-5.6 1.6,-6.2 6.4,-0.4 12.8,0.3 19.2,-0.1 0.5,-9.7 0.9,-19.7 0.1,-29.5 -0.7,-2.3 -0.7,-4.7 -1,-7 -1,-4.3 -1.6,-8.8 -3.4,-12.9 -0.5,-1.4 -1,-2.8 -1.6,-4.1 -1.9,-3.4 -4.1,-7.4 -8.2,-8.2 -2.9,-0.6 -5.5,1.6 -7.2,3.8 m -197.3,9.8 c -2.8,6.9 -1.8,14.4 -2.1,21.7 7,-3.4 15,-5.6 22.7,-3.6 -10.4,-6.1 -14.1,-19.5 -11,-30.7 -4.1,3.4 -7.8,7.5 -9.6,12.6 m 226.2,15.1 c 0.1,1.6 0.2,3.1 0.3,4.7 11.2,0.3 22.7,4.4 30.1,13.1 2.4,-1.8 4.8,-3.6 7.3,-5.3 -5.7,-6.7 -13.2,-12.4 -21.9,-14.4 -5.3,-1.3 -11,-0.5 -15.8,1.9 m -238.5,26.8 c 2.5,1.8 5,3.6 7.5,5.4 6.7,-8 16.9,-12.2 27.2,-12.9 0,-2.1 0,-4.1 0.1,-6.2 -4.2,-1.4 -8.8,-1.7 -13.1,-0.6 -8.6,2.1 -15.8,7.9 -21.7,14.3 m 243.2,-12.1 c 0,2 0,4.1 0,6.1 9.7,5.1 14.1,17.1 12.1,27.6 5.1,-5.3 8.8,-11.9 10.2,-19.2 -2.8,-2.7 -4.6,-6.3 -7.8,-8.6 -4,-3.5 -9.3,-5.1 -14.5,-5.9 m 33.9,15.9 c -3.6,2.1 -3.3,6.9 -5,10.3 8.6,11.4 17,23 25.5,34.4 8.5,-6.6 17,-13.2 25.4,-19.8 -9.4,-12.6 -18.7,-25.4 -28.1,-38 -6,4.3 -11.9,8.8 -17.8,13.1 m -258.5,4.4 c -3.2,2.4 -5.1,5.9 -7.9,8.7 1.4,7.1 5,13.7 10,18.9 -1.6,-10.4 2.6,-22.2 12.3,-27.3 0,-2 0,-4.1 0,-6.1 -5.1,0.7 -10.3,2.4 -14.4,5.8 M 857,266 c 0,6 -1.5,11.9 -3,17.6 -0.9,3.3 -1.5,6.9 -3.7,9.6 3.4,2.9 8.4,0.8 10.7,-2.5 5.6,-7.3 4.6,-20.2 -4,-24.7 m -285.4,40.4 c 8.3,6.8 16.9,13.3 25.4,19.9 8.5,-11.5 17,-23 25.5,-34.5 -1.1,-2.8 -1.8,-5.7 -2.9,-8.4 -6.3,-5.3 -13.3,-9.7 -19.7,-14.9 -9.7,12.5 -18.7,25.4 -28.3,37.9 m 260.7,-30 c 1.4,2.6 2.7,5.8 5.8,6.8 4.1,0.5 6,-3.8 7.6,-6.7 -4.4,0 -8.9,0 -13.4,-0.1 m -160.1,2.9 c 3.7,4 8.3,7.8 14,7.8 6.3,0.5 12.2,-2.9 16.1,-7.6 -10,-0.1 -20,0 -30.1,-0.2 M 649,299.1 c 1.1,4.8 4.8,10.2 10.3,10 4.4,-0.3 7.3,-4.2 9,-7.9 -4.7,-6.5 -8.3,-13.7 -10.7,-21.4 -7.8,2.5 -10.5,12 -8.6,19.3 m 220.8,0.4 c -7.5,3.7 -16.8,7.1 -24.7,2.4 -3.1,4.5 -5.5,9.8 -10.5,12.4 -3.1,2.5 -7.6,1.8 -10.6,4.3 -8,7.8 -17.3,14.4 -27.5,19.1 0.4,3.8 0.6,7.8 -1.3,11.3 0.4,1 0.7,2 1.1,3 6.8,-5.4 15,-9.2 23.8,-9.6 5.3,-0.2 10.7,-0.1 16.1,0 15.8,0.5 31.4,10 38.2,24.4 4.5,8.6 9,17.2 13.5,25.7 16.6,-11.6 33.3,-23 49.9,-34.7 -17.5,-23.8 -35.1,-47.6 -52.7,-71.4 -4.3,5.2 -9.3,10 -15.3,13.1 m -294.7,73 c 18.4,12.6 36.6,25.3 54.9,38 0,-10.9 -0.1,-21.7 0.1,-32.6 0.5,-16.1 12,-30.9 27.2,-35.8 7.7,-2.7 16,-1.9 24,-2 5.7,0 11.4,-0.3 17,0.9 8.7,1.8 17.2,6.2 22.1,13.9 0.4,-2 1,-3.9 1.7,-5.8 -1.7,-3.1 -1.7,-6.7 -1.6,-10.2 -8.6,-3.6 -16.6,-8.6 -23.8,-14.5 -1.8,-1.5 -3.5,-3.2 -5.6,-4.3 -5.9,-2.8 -11.4,-6.5 -16,-11.1 -3.8,5.9 -10.7,10.7 -18,9.7 -11.5,-2 -22.2,-8.4 -29.2,-17.8 -17.6,23.9 -35.4,47.6 -52.8,71.6 m 346.5,-52.8 c 7.7,10.4 15.3,20.8 23,31.2 4.3,-10.4 14.3,-17.9 25.4,-19.8 -7.7,-10.4 -15.3,-20.8 -23,-31.2 -8.4,6.6 -16.9,13.1 -25.4,19.8 m -378.8,25.8 c 11,1.8 20.6,9.2 25.4,19.3 l 0.5,-0.1 c 7.6,-10.1 15,-20.4 22.6,-30.5 -8.5,-6.6 -17,-13.2 -25.4,-19.8 -7.8,10.3 -15.4,20.8 -23.1,31.1 m 232.4,-1.1 c 3.9,-0.5 7.9,-0.2 11.9,-0.4 0,-0.7 0,-2 0.1,-2.7 -4,1.2 -8,2.1 -12,3.1 m 194.2,-3.3 c -7.4,1.9 -13.7,7.6 -16.3,14.8 -3.1,8 -1.4,17.5 4.2,24 5.9,7.1 16.2,10.2 25.1,7.4 11.9,-3.3 19.6,-16.6 16.5,-28.5 -2.7,-12.8 -17,-21.3 -29.5,-17.7 m -309.1,10.2 c -9.7,3.1 -17.4,11.5 -19.8,21.4 -1.2,4.6 -0.9,9.4 -0.9,14.2 0,28.9 0,57.7 0,86.6 5,4.8 10,9.7 15.1,14.4 -0.1,-26.3 0,-52.7 -0.1,-79 -0.3,-2.7 1.6,-5.5 4.4,-5.6 5.3,-0.2 10.7,0 16,-0.1 0,-13.5 0,-26.9 0,-40.4 -0.4,-2.9 2.1,-5.6 5.1,-5.4 10,-0.1 20,0 30,0 -7.3,-7.3 -18.2,-8.1 -28,-7.6 -7.2,0.3 -14.7,-0.9 -21.8,1.5 m 151.8,2.6 c -11.2,4 -19.4,15 -20,26.9 -0.3,8.3 0,16.6 -0.1,24.8 5.7,0 11.5,-0.1 17.2,0 2.6,0 4.7,2.5 4.5,5.1 0,28 0,55.9 0.1,83.9 7,-5.7 14,-11.6 21.1,-17.2 0.3,-9.5 0,-19.1 0.1,-28.6 0.1,-6.6 1.7,-13.2 5.4,-18.7 4.3,-6.7 11.3,-11.2 18.8,-13.6 9.3,-3.2 19.3,-1.8 29,-2.3 -7.9,-15.2 -15.9,-30.4 -23.8,-45.5 -6.1,-10.4 -18.2,-16.8 -30.3,-16.7 -7.3,0.1 -15,-0.8 -22,1.9 m -81.8,0.2 c -0.1,1.4 -0.2,2.7 -0.2,4.1 19,0.2 38.1,0.2 57.1,0 -0.1,-1.4 -0.2,-2.7 -0.3,-4.1 -18.8,-0.2 -37.7,-0.2 -56.6,0 m -198.6,1.4 c -7.1,1.7 -13.4,6.9 -16.3,13.6 -3,6.6 -2.7,14.6 0.8,21 3.3,6.4 9.7,11.1 16.8,12.4 7.6,1.5 15.7,-1.1 21.2,-6.5 5,-4.9 7.7,-12 7.1,-19 -0.5,-7.3 -4.7,-14.4 -10.9,-18.3 -5.4,-3.6 -12.4,-4.7 -18.7,-3.2 m 153.1,12.6 c 0,50.2 0,100.5 -0.1,150.7 0.3,4 -5.1,6.5 -7.9,3.7 -7.5,-7.1 -15,-14.2 -22.3,-21.4 0.2,12.4 -0.1,24.8 0.2,37.2 14.2,-0.2 28.3,0 42.5,-0.1 0,-39.8 0,-79.5 0,-119.3 -0.1,-1.8 0.5,-3.8 2.1,-4.8 2.1,-1.3 4.6,-0.7 6.9,-0.8 17.3,-0.3 34.7,-0.1 52,-0.2 2.1,-0.2 4.5,0.4 5.7,2.4 1.1,2.4 0.7,5 0.8,7.5 0,39 0,78 0,117 0.3,2.7 -1.3,6.1 -4.4,6.1 -7.4,0.2 -14.8,0 -22.2,0.1 3.5,2.5 6.9,5.3 9.4,8.8 4.3,5.8 6,13 6.6,20.1 22.2,0 44.5,0.1 66.7,-0.1 -0.1,-24.4 0,-48.7 0,-73.1 -10.4,8.2 -20.4,16.8 -30.8,25 -2.9,2.3 -7.7,-0.2 -7.5,-3.9 -0.1,-46.3 0,-92.6 0,-138.9 -0.1,-5.3 0.8,-10.6 2.6,-15.5 -33.5,0.1 -66.9,-0.7 -100.3,-0.5 m 225,21 c 6.4,8.7 12.6,17.5 19.1,26 10,-7.2 20.2,-14.1 30.4,-21.1 -9.8,-5.4 -16.7,-15.8 -17.3,-27 -10.9,7.1 -21.4,14.7 -32.2,22.1 M 571,381.4 c -0.9,11.3 -7.6,21.8 -17.6,27.2 10.3,6.8 20.4,14.1 30.6,21 6.4,-8.6 12.6,-17.3 19,-25.9 -10.6,-7.5 -21.3,-14.9 -32,-22.3 m 321.4,19.7 c 2.6,5.2 5.5,10.3 8,15.5 1.6,2.7 -0.2,6.6 -3.3,6.9 -5.1,0.4 -10.3,0.2 -15.4,0.4 4.2,5.4 6.8,12 7.4,18.8 10.6,-7.4 21.3,-14.6 31.8,-22.2 -6.4,-8.6 -12.7,-17.3 -19,-25.9 -3.2,2.2 -6.3,4.4 -9.5,6.5 m 151.1,0.2 c -3.3,1.4 -4.9,5.2 -4.4,8.6 1.1,8.6 9.3,15.9 18,15.5 4,-0.1 7.5,-3.5 7.6,-7.6 0.3,-10.2 -11.1,-20.1 -21.2,-16.5 M 592,435.1 c 7.4,5.3 15.1,10.4 22.5,15.7 -2,-11.5 2.7,-23.7 11.6,-31.2 -5.1,-3.4 -10.1,-6.9 -15.1,-10.4 -6.3,8.6 -12.6,17.2 -19,25.9 m 72.3,-22.2 c 0,27.7 0,55.4 0,83 -0.2,1.4 1.1,2.2 1.9,3.1 3,2.8 5.9,5.7 8.9,8.5 0,-31.5 0,-63.1 0,-94.6 -3.6,0 -7.2,0 -10.8,0 m 127.9,2.4 c -0.3,32.4 -0.1,64.8 -0.1,97.2 4,-3.3 8,-6.6 12.1,-9.9 0,-29.1 0.1,-58.2 -0.1,-87.3 -4,0.1 -7.9,0.1 -11.9,0 m -85.4,7.6 c 0,37.8 0,75.6 0,113.4 0.7,0 2,0 2.6,0 0,-37.8 0,-75.6 0,-113.4 -0.6,0 -1.9,0 -2.6,0 m 12.3,0 c 0,37.7 0,75.4 0,113.1 11.8,0 23.7,0 35.5,0 0,-37.7 0,-75.4 0,-113.1 -11.9,0 -23.7,0 -35.5,0 m -263.5,2.7 c -4.9,1.7 -10,7 -7.6,12.6 3.3,6.6 12.1,8.2 18.6,6.4 4.3,-1.2 8.6,-4.1 9.8,-8.6 0.9,-3.4 -1.1,-6.8 -3.8,-8.7 -4.9,-3.5 -11.5,-3.8 -17,-1.7 m 389.7,18.2 c -1.1,7.6 -0.4,15.4 -0.5,23 4.3,1.7 8.9,2.7 13.5,2 9.8,-1.2 18.3,-9.2 20,-18.9 2,-9.5 -2.7,-20.1 -11.2,-24.9 -10.2,0.3 -20.2,8.4 -21.8,18.8 m 189.6,-19.5 c 0.4,5.2 1.6,10.4 4,15.1 4.3,8.9 12.7,14.4 19.5,21.1 6.5,-5.5 9.5,-14 9.7,-22.3 -1.6,-1.5 -3.2,-2.9 -4.8,-4.4 -10.4,3.7 -21.7,-1.3 -28.4,-9.5 m -655.6,5.9 c -4.1,1.3 -8.3,4.2 -9.2,8.7 -0.8,3.8 1.9,7.3 5.1,9.1 5.9,3.3 13.7,2.9 19.3,-0.9 2.7,-1.9 5,-4.9 4.8,-8.4 -0.2,-3 -2.3,-5.5 -4.8,-7 -4.6,-2.7 -10.2,-3.1 -15.2,-1.5 M 623.9,443 c -0.8,6.8 1.8,13.5 6.1,18.7 0,-10.9 0,-21.7 0,-32.5 -3.2,3.9 -5.7,8.7 -6.1,13.8 m -203.7,-5.3 c -3.2,5.7 -4.1,12.8 -2,19.1 2.6,8.4 8.9,15.1 15.7,20.6 1.5,-2.6 3.3,-5 4.7,-7.7 -1.2,-1.7 -3.2,-2.9 -4.6,-4.5 -7.3,-7.7 -10.4,-18.7 -10.3,-29.1 -1.3,0.5 -2.5,0.9 -3.5,1.6 m 657.6,-1.6 c 0.3,12.6 -4.7,25.8 -15.1,33.5 1.6,2.6 3.3,5.2 4.9,7.8 9.3,-7.3 18,-18 16.6,-30.5 -0.9,-4.1 -1.5,-9.9 -6.4,-10.8 m -643.9,8.1 c 1.1,5 3,9.9 6.4,13.7 2.6,3.2 6.5,5 9.6,7.7 7,-2 13.3,-6.1 18.3,-11.4 -10.3,2.4 -22.5,-1 -28.3,-10.3 -2,0.1 -4,0.2 -6,0.3 m -26.3,1.7 c -4.8,11.2 -18.4,15.8 -29.8,13.5 3.8,4.2 8.6,7.6 14.2,9 6.8,2 13.9,0.5 20.9,0.3 -4,-6.8 -6.4,-14.9 -5.3,-22.8 m 694,7.6 c -3.6,1 -5.9,4.8 -5.5,8.5 0.7,9.2 9.9,17.2 19.2,15.9 4.2,-0.6 7,-4.9 6.5,-8.9 -1,-9.4 -10.8,-17.7 -20.2,-15.5 m -503.9,30 c 7.5,7.7 14.7,15.6 22,23.4 6.7,-6.6 13.4,-13.2 20.1,-19.8 -2.8,-2.8 -5.8,-5.4 -8.5,-8.2 -1.3,-1.2 -1.1,-3.1 -1.4,-4.7 -4.4,-3 -8.4,-6.8 -11.1,-11.5 -7,6.9 -14.2,13.7 -21.1,20.8 m 285.9,-19.7 c -6.3,10.1 -18.3,16.1 -30.2,15.5 9.6,9 18.8,18.4 28.2,27.6 7.4,-7.8 14.6,-15.7 22,-23.5 -6.6,-6.6 -13.2,-13.2 -20,-19.6 m 119.6,30.6 c 6.1,8.8 12,17.8 18,26.6 13.3,-8.4 26.6,-16.9 40,-25.3 -5.7,-9.1 -11.5,-18.1 -17.2,-27.2 -13.7,8.5 -27.3,17.1 -40.8,25.9 m 76.4,-14.4 c 6.3,4.4 14.3,6.4 21.9,5 -5.9,-3.6 -11.1,-8.8 -13.6,-15.3 -2.5,3.7 -5.4,7 -8.3,10.3 m -626.1,-5 c -4.7,6.7 -8.6,13.8 -13.3,20.5 13.2,8.8 26.7,17 40,25.5 6,-8.9 12,-17.8 17.9,-26.8 -12.1,-7.6 -24.2,-15.3 -36.1,-23 -2.8,1.4 -5.9,2.1 -8.5,3.8 m 377,19 c -0.2,27 0,53.9 -0.1,80.9 12.8,0 25.6,0 38.5,0 0.1,-4.8 2,-9.3 2.4,-14 0,-16.9 0.1,-33.9 0,-50.8 -9.2,-9.1 -18.5,-18.1 -27.6,-27.2 -4.5,3.7 -9.3,7 -13.2,11.1 m -267.4,23.6 c 10.9,2.9 19.8,11.5 23.3,22.1 8.8,-8.7 17.6,-17.4 26.4,-26 -7.3,-7.8 -14.7,-15.7 -22,-23.5 -9.2,9.1 -18.6,18.1 -27.7,27.4 m 325.5,-3.9 c 7.7,7.6 15.4,15.2 23.1,22.8 1,1.3 2.5,1.3 4,1.3 3.9,-9.8 12.5,-17.5 22.7,-20.2 -9.3,-9.1 -18.5,-18.3 -27.8,-27.4 -7.3,7.8 -14.7,15.6 -22,23.5 m -279.5,17.2 c -6.9,7 -14.3,13.7 -21,20.9 -1,9.1 -4.9,18.1 -12.1,24 -8,6.9 -19.3,9.4 -29.6,7.1 11.7,19.6 22.6,40.5 25.3,63.5 17.3,0 34.6,0 51.9,0 0,-12.1 0.1,-24.2 -0.1,-36.3 -6.8,0 -13.7,0.2 -20.5,-0.1 -2.6,-0.1 -4.5,-2.6 -4.3,-5.1 -0.1,-13 0,-26 0,-39 -0.1,-9.4 5.8,-18.1 13.9,-22.4 9.8,-5.4 21.3,-5.3 32.1,-5.5 -0.1,-14.1 -0.1,-28.2 0,-42.3 -11.8,11.7 -23.6,23.5 -35.6,35.2 m -120.7,-4.7 c 6.5,4 12.8,8.3 19.4,12.1 4.6,1.3 9.3,2.3 13.7,4.5 2,-9.7 8.7,-18.2 17.4,-22.7 -10.9,-6.8 -21.7,-13.9 -32.7,-20.6 -5.8,8.9 -11.9,17.8 -17.8,26.7 m 474.1,-6.1 c 7.2,3.7 12.9,10.1 16,17.6 5.3,0 10.6,0.1 16,0 6.5,-3.3 12.3,-7.7 18.6,-11.5 -6,-8.9 -12,-17.7 -17.9,-26.7 -11.1,6.7 -21.8,13.8 -32.7,20.6 M 881,519.9 c -0.1,9.6 0,19.3 0,28.9 5.9,-4.2 12.1,-8.3 19.3,-9.9 -6.4,-6.5 -12.8,-12.8 -19.3,-19 m -342,11.7 c -5.1,4.2 -8.1,10.5 -8.7,17 3.6,3 7.1,6.5 9.2,10.8 2,3.8 2.9,8.1 3.9,12.2 5.2,2.3 11.1,3.3 16.7,1.8 9.8,-2.3 17.5,-11.3 18.1,-21.4 0.8,-9.2 -4.2,-18.5 -12.3,-22.9 -8.4,-4.8 -19.6,-3.8 -26.9,2.5 m 387.4,5.9 c 13.8,0.2 27.6,0.1 41.3,0.1 -4.3,-6.6 -11.5,-11.3 -19.5,-11.5 -8.7,-0.6 -17,4.3 -21.8,11.4 m -42,21.7 c -4.6,5 -5.9,12.1 -6.1,18.7 -0.1,7.3 0,14.7 -0.1,22 12.3,0 24.5,0 36.8,0 0,-9 -0.1,-18 0,-27 -0.2,-2.8 2.3,-5.3 5,-5 27,-0.1 54.1,0 81.1,0 2.8,-0.3 5.3,2.3 5.1,5 -0.1,9 -0.3,18 -0.4,27 5.7,0 11.4,0 17.1,0 0,-11.3 0,-22.7 0,-34 0.2,-6 -3.9,-11.4 -9.1,-14 -7,-3.7 -15.1,-4.4 -22.8,-4.5 -27,0 -54,0 -81,0 -9.7,-0.1 -18.9,4.8 -25.6,11.8 m -444.1,-6.3 c -4.6,2.7 -8.2,7.6 -8.1,13 0,11.5 0,23 0,34.5 2.5,0 5,0 7.5,0 -0.1,-9.2 -0.4,-18.4 -0.4,-27.6 0,-2.5 2.4,-4.6 4.9,-4.4 15.9,0 31.9,0 47.8,0 2.5,-0.2 4.8,2 4.8,4.5 0.2,9.2 0,18.3 0.1,27.5 12.4,0 24.8,0 37.1,0 -0.1,-7.5 0.1,-15 -0.1,-22.5 -0.2,-6.6 -1.7,-13.6 -6.3,-18.5 -4.1,-4.1 -9.1,-7.5 -14.5,-9.5 -6.7,-2.5 -13.9,-2 -20.9,-2 -10,0 -20,-0.1 -30,0.1 -7.5,0.1 -15.3,1 -21.9,4.9 m 176.5,-0.5 c -4.8,2.7 -8.3,8 -8.3,13.6 0,11.5 -0.1,23 0,34.5 5.2,-0.1 10.4,0 15.6,0 -0.1,-9.2 -0.4,-18.3 -0.4,-27.5 -0.1,-2.8 2.7,-4.9 5.4,-4.6 25.4,0 50.7,0 76.1,0 2.6,-0.2 5.1,1.9 5,4.5 0.2,9.2 0,18.3 0.1,27.5 11.4,0.1 22.8,0 34.2,0 0,-7.5 0.1,-15 -0.1,-22.4 -0.2,-6.6 -1.5,-13.5 -5.9,-18.6 -6,-6.5 -14.3,-11.4 -23.4,-11.5 -25,-0.2 -50,0 -74.9,-0.1 -7.9,0 -16.3,0.6 -23.4,4.6 M 449.2,578 c -0.3,11 1,22 -0.3,32.9 0,11.7 0,23.4 0,35 37.7,0 75.4,0 113.2,0 -2.2,-17.5 -10.2,-33.6 -18.4,-49 0.1,3.3 0.4,6.6 -0.1,9.9 -0.7,2.2 -3.1,3.4 -5.3,3.3 -15.3,0 -30.6,0.1 -45.9,0 -2.8,0.2 -5.1,-2.4 -5,-5.1 -0.1,-9 0,-18 0,-27 -12.9,0 -25.6,0 -38.2,0 m 184.4,0 c -0.1,11 0.8,22 -0.2,32.9 0,11.7 0,23.3 0,35 45.3,0.1 90.6,0 135.9,0 -1.8,-15.7 -8.1,-30.4 -15,-44.5 -0.3,2.4 0.4,5.3 -1.4,7.2 -1.4,1.7 -3.8,1.5 -5.7,1.6 -13.7,-0.1 -27.3,0 -41,0 -3,0.4 -5.8,-2.1 -5.5,-5.2 -0.1,-9 0,-17.9 0,-26.9 C 678.3,577.9 656,578 633.6,578 m 291.2,-0.5 c 0,9.1 0.1,18.2 -0.1,27.3 0.1,2.5 -2.1,4.8 -4.6,4.7 -14.7,0.1 -29.3,0 -44,0.1 -2.1,-0.1 -4.6,0.2 -6.2,-1.5 -2.1,-2.3 -1.2,-5.7 -1.3,-8.5 -7.5,14.4 -14.7,29.6 -16.5,45.9 48.2,-0.1 96.4,0 144.6,0 0,-11.9 0,-23.7 0,-35.6 -1.1,-10.8 -0.1,-21.6 -0.3,-32.5 -23.8,0.1 -47.7,0.1 -71.6,0.1 m -168.6,7 c 4.8,8.3 9,16.8 12.8,25.5 12.4,0 24.9,0 37.3,0 4,-8.5 7.7,-17 11.7,-25.5 -20.6,0.1 -41.2,0.1 -61.8,0 m 60.9,25.5 c 11.9,-0.1 23.9,0.2 35.8,-0.2 3.8,-8.8 8.4,-17.2 13.3,-25.3 -12.4,0 -24.9,0.1 -37.3,0 -4.2,8.3 -7.9,17 -11.8,25.5 m -43.6,12.2 c 0.5,1.5 1.1,3.1 1.6,4.6 23.7,0 47.4,0 71.1,0 0.6,-1.5 1.1,-3.1 1.7,-4.7 -24.7,0 -49.6,-0.1 -74.4,0.1 m 4.1,14.4 c 0.3,1.4 0.5,2.9 0.8,4.3 21.5,0 43,0 64.5,0 0.3,-1.4 0.5,-2.9 0.8,-4.3 -22,0 -44,0 -66.1,0 z"
       id="path10"
       inkscape:connector-curvature="0"
       style="fill:#020202" /><path
       class="st1"
       d="m 939.4,99.9 c -0.3,-3.1 2.8,-5.4 5.8,-5.1 55.4,0 110.8,-0.1 166.2,0.1 4.3,0 5.3,4.6 4.3,8.1 -1.1,0.7 -2.2,1.5 -3.3,2.3 -56.5,0 -113,-0.1 -169.4,0.1 -1.9,-1.3 -3.9,-3 -3.6,-5.5 z"
       id="path12"
       inkscape:connector-curvature="0"
       style="fill:#020202" /><path
       class="st1"
       d="m 390.7,109.4 c 4.3,-2.6 9.4,-3.7 14.4,-3.7 58,0 116,0 174,0 5,-0.1 10.1,0.4 14.7,2.6 10.4,4.8 17,16.3 16.8,27.6 0,24.3 0,48.6 0,72.9 0,11.6 -7,23 -17.8,27.5 -6.9,3.1 -14.6,2 -21.9,2.2 0,11.8 0,23.6 0,35.5 -18,-11.3 -35.6,-23.1 -53.4,-34.6 -1,-0.7 -2.1,-1 -3.3,-0.9 -36.4,0 -72.7,0 -109.1,0 -7.3,0.2 -14.6,-2.7 -19.9,-7.8 -6.2,-5.9 -9.5,-14.4 -9.3,-22.9 0,-24 0,-48 0,-72.1 -0.1,-10.4 5.5,-21 14.8,-26.3 m -4.9,25.6 c -0.1,24.6 0,49.3 0,73.9 0,7.3 4.3,14.4 10.9,17.6 4.2,2.1 8.9,1.8 13.5,1.8 35.7,0 71.3,0 107,0 1.3,-0.2 2.5,0.4 3.6,1.1 13.4,8.8 26.9,17.5 40.4,26.2 0,-9.1 -0.1,-18.3 0,-27.4 7.3,0 14.6,0.1 21.9,-0.1 7.7,-0.3 14.5,-6.1 16.7,-13.3 1.3,-3.8 1,-7.9 1,-11.8 0,-20.7 0,-41.4 0,-62.1 0,-4.3 0.2,-8.8 -1.5,-12.9 -2.8,-7.2 -10.3,-12.3 -18,-11.9 -59,0 -118,-0.1 -177.1,0 -10,0 -18.3,9.1 -18.4,18.9 z"
       id="path14"
       inkscape:connector-curvature="0"
       style="fill:#020202" /><path
       class="st1"
       d="m 939.4,124.9 c -0.3,-2.5 1.7,-4.2 3.6,-5.3 56.1,0.2 112.1,0 168.2,0.1 2.4,-0.3 4.2,1.4 5.6,3.1 -0.2,1.7 0.1,3.4 -0.6,5 -1.5,1.7 -3.8,2.4 -6.1,2.2 -55,0 -110,0 -165.1,0 -2.8,0.3 -5.9,-2 -5.6,-5.1 z"
       id="path16"
       inkscape:connector-curvature="0"
       style="fill:#020202" /><path
       class="st1"
       d="m 404.5,141.1 c 1.2,-1.9 3.6,-2.3 5.7,-2.2 54.4,0.1 108.7,0 163.1,0 2.6,-0.3 4.4,1.7 5.5,3.7 0.3,3.1 -1.4,5.7 -4.3,6.6 -55.1,-0.2 -110.2,0 -165.3,-0.1 -1.5,0 -2.8,-0.7 -4.1,-1.1 -1.4,-1.9 -2.3,-4.8 -0.6,-6.9 z"
       id="path18"
       inkscape:connector-curvature="0"
       style="fill:#020202" /><path
       class="st1"
       d="m 943,144.5 c 55.4,0 110.8,0 166.2,0 2.8,-0.4 5.1,1.7 6.4,4 0,0.8 0,1.7 0,2.5 -1,2.6 -3.5,4.3 -6.3,4 -55,0 -110.1,0.1 -165.1,0 -3.5,0.1 -6.2,-3.9 -4.8,-7.1 0.5,-1.6 2.2,-2.4 3.6,-3.4 z"
       id="path20"
       inkscape:connector-curvature="0"
       style="fill:#020202" /><path
       class="st1"
       d="m 405.1,164.7 c 1.7,-0.6 3.3,-1.2 5.1,-1.1 55,0 110.1,0 165.1,0 2.3,0.9 4.8,2.6 4.3,5.4 0.5,3.5 -3.4,5.5 -6.5,5.2 -54.7,0 -109.4,0 -164.1,0 -5.1,0.6 -7.6,-6.2 -3.9,-9.5 z"
       id="path22"
       inkscape:connector-curvature="0"
       style="fill:#020202" /><path
       class="st1"
       d="m 944,170.6 c 31.1,-0.1 62.2,-0.1 93.3,0 1.4,0.9 3.2,1.6 3.7,3.4 1.7,3.2 -1.2,7.4 -4.7,7.3 -30.6,0 -61.3,0.1 -91.9,0 -3.8,-0.1 -5.5,-4.2 -4.5,-7.5 0.4,-0.5 1.1,-1.5 1.4,-1.9 0.9,-0.5 1.8,-0.9 2.7,-1.3 z"
       id="path24"
       inkscape:connector-curvature="0"
       style="fill:#020202" /><path
       class="st1"
       d="m 404.5,192.1 c 1.1,-2 3.4,-2.8 5.6,-2.6 29.7,0 59.4,0 89.1,0 2.3,-0.3 4.1,1.3 5.5,2.9 -0.1,2 0.6,4.5 -1.2,6 -1.4,1.5 -3.6,1.1 -5.4,1.2 -30,-0.1 -59.9,0.1 -89.9,-0.1 -3.6,0.2 -5.6,-4.6 -3.7,-7.4 z"
       id="path26"
       inkscape:connector-curvature="0"
       style="fill:#020202" /><path
       class="st1"
       d="m 684.4,226.2 c 6.8,-2.6 13.7,4 13.3,10.7 0.4,6.8 -7,13.4 -13.7,10.4 -8.8,-3.5 -8.6,-18.1 0.4,-21.1 z"
       id="path28"
       inkscape:connector-curvature="0"
       style="fill:#020202" /><path
       class="st1"
       d="m 838.6,229.5 c 2.6,-0.5 3.8,2.6 4.4,4.6 1.1,4.5 1,9.9 -1.8,13.8 -1.2,1.6 -3.6,1.1 -4.5,-0.5 -2.5,-4.2 -2.5,-9.5 -1.2,-14 0.6,-1.5 1.3,-3.5 3.1,-3.9 z"
       id="path30"
       inkscape:connector-curvature="0"
       style="fill:#020202" /><path
       class="st1"
       d="m 731.4,434.1 c 6.5,-2.9 14.9,1.7 15.9,8.8 1.3,6.3 -3.5,13 -9.9,13.6 -6,1 -12.2,-3.5 -13.1,-9.5 -1.1,-5.3 2.1,-10.9 7.1,-12.9 m 3.2,9.3 c -2,1.4 0.3,4.8 2.4,3.3 2,-1.6 -0.4,-5 -2.4,-3.3 z"
       id="path32"
       inkscape:connector-curvature="0"
       style="fill:#020202" /><path
       class="st1"
       d="m 730.7,469.5 c 6.1,-3.1 14.2,0.3 16.2,6.8 2.2,6.1 -1.8,13.5 -8.1,15 -5.9,1.7 -12.6,-2 -14.2,-7.9 -1.7,-5.3 1,-11.5 6.1,-13.9 m 3.8,9 c -2,1.5 0.4,4.8 2.4,3.2 2.1,-1.5 -0.4,-5 -2.4,-3.2 z"
       id="path34"
       inkscape:connector-curvature="0"
       style="fill:#020202" /><path
       class="st1"
       d="m 730.6,504.6 c 6.3,-3.3 14.8,0.6 16.4,7.4 2,6.5 -3,13.9 -9.7,14.6 -6.1,1 -12.3,-3.7 -13.1,-9.7 -0.8,-4.9 1.9,-10.1 6.4,-12.3 m 4,8.9 c -2.2,1.4 0.3,5 2.4,3.2 2,-1.5 -0.4,-4.8 -2.4,-3.2 z"
       id="path36"
       inkscape:connector-curvature="0"
       style="fill:#020202" /><path
       class="st1"
       d="m 320.6,678.5 c 105.2,-0.3 210.4,0 315.6,-0.1 157.7,0 315.3,0 473,0 3.6,0.1 8.4,-0.8 10.4,3 2.2,3.7 -1.4,8.3 -5.4,8 -264,0.1 -528.1,0 -792.1,0 -2.8,0.2 -5.9,-1.6 -6.5,-4.5 -0.6,-3.1 1.9,-6.1 5,-6.4 z"
       id="path38"
       inkscape:connector-curvature="0"
       style="fill:#020202" /><path
       class="st1"
       d="m 416.6,707.6 c 48.1,-0.4 96.3,-0.1 144.5,-0.2 153,0 306.1,0 459.1,0 3.6,-0.3 6.6,3.6 5.5,7.1 -0.7,2.8 -3.7,4.2 -6.4,3.9 -200.4,-0.1 -400.7,0 -601.1,0 -6.4,0.6 -7.8,-9.7 -1.6,-10.8 z"
       id="path40"
       inkscape:connector-curvature="0"
       style="fill:#020202" /></g><g
     id="_x23_ffffffff"
     transform="translate(-83.510493,-82.155556)"><path
       class="st0"
       d="m 932.6,69.4 c 3.3,-1.6 7,-1.9 10.6,-1.8 56.6,0 113.3,-0.1 170,0 10.2,-0.1 19.3,9.1 19.2,19.3 0,40 0,80 0,120 0.1,10.2 -9,19.2 -19.2,19.2 -36.3,0 -72.7,0 -109,0 -2.1,-0.2 -3.7,1.4 -5.4,2.4 -14.6,9.1 -29.3,18.4 -44,27.4 -0.2,-9.9 -0.5,-19.8 -0.7,-29.8 -5,-0.1 -9.9,0.1 -14.9,-0.1 -7.6,-0.5 -14.5,-5.9 -16.9,-13 -1.3,-3.5 -1.1,-7.3 -1.1,-11 0,-38.3 0,-76.7 0,-115 -0.1,-7.5 4.6,-14.6 11.4,-17.6 m 6.8,30.5 c -0.3,2.5 1.7,4.2 3.6,5.4 56.5,-0.1 113,0 169.4,-0.1 1.1,-0.8 2.2,-1.5 3.3,-2.3 0.9,-3.4 0,-8.1 -4.3,-8.1 -55.4,-0.2 -110.8,0 -166.2,-0.1 -3,-0.2 -6.1,2.1 -5.8,5.2 m 0,25 c -0.3,3.1 2.8,5.4 5.8,5.1 55,0 110,0 165.1,0 2.2,0.1 4.5,-0.5 6.1,-2.2 0.7,-1.6 0.4,-3.4 0.6,-5 -1.4,-1.7 -3.2,-3.4 -5.6,-3.1 -56.1,-0.1 -112.1,0.1 -168.2,-0.1 -2.1,1.1 -4.1,2.8 -3.8,5.3 m 3.6,19.6 c -1.4,0.9 -3.1,1.8 -3.6,3.5 -1.5,3.2 1.3,7.2 4.8,7.1 55,0.1 110.1,0 165.1,0 2.8,0.3 5.3,-1.4 6.3,-4 0,-0.9 0,-1.7 0,-2.5 -1.2,-2.3 -3.5,-4.4 -6.4,-4 -55.4,-0.1 -110.8,-0.1 -166.2,-0.1 m 1,26.1 c -0.9,0.4 -1.9,0.8 -2.8,1.2 -0.3,0.5 -1.1,1.5 -1.4,1.9 -0.9,3.3 0.7,7.4 4.5,7.5 30.6,0.1 61.3,0 91.9,0 3.5,0.1 6.4,-4.2 4.7,-7.3 -0.5,-1.7 -2.3,-2.5 -3.7,-3.4 -31,0 -62.1,0 -93.2,0.1 z"
       id="path43"
       inkscape:connector-curvature="0"
       style="fill:#ffffff" /><path
       class="st0"
       d="m 385.8,135 c 0,-9.8 8.4,-18.9 18.3,-18.9 59,-0.1 118.1,0 177.1,0 7.8,-0.4 15.3,4.7 18,11.9 1.8,4.1 1.6,8.5 1.5,12.9 0,20.7 0,41.4 0,62.1 0,4 0.3,8 -1,11.8 -2.2,7.3 -9,13.1 -16.7,13.3 -7.3,0.2 -14.6,0 -21.9,0.1 -0.1,9.1 0,18.3 0,27.4 -13.5,-8.7 -26.9,-17.5 -40.4,-26.2 -1.1,-0.8 -2.3,-1.3 -3.6,-1.1 -35.7,0 -71.3,0 -107,0 -4.5,0 -9.3,0.3 -13.5,-1.8 -6.6,-3.1 -10.9,-10.3 -10.9,-17.6 0.1,-24.7 0.1,-49.3 0.1,-73.9 m 18.7,6.1 c -1.7,2.1 -0.8,5 0.6,7 1.4,0.4 2.7,1.1 4.1,1.1 55.1,0.1 110.2,-0.1 165.3,0.1 2.9,-0.9 4.6,-3.5 4.3,-6.6 -1.2,-2 -3,-4 -5.5,-3.7 -54.4,-0.1 -108.7,0 -163.1,0 -2.1,-0.2 -4.5,0.2 -5.7,2.1 m 0.6,23.6 c -3.7,3.3 -1.2,10.2 4,9.4 54.7,0 109.4,0 164.1,0 3,0.3 6.9,-1.7 6.5,-5.2 0.5,-2.8 -2.1,-4.5 -4.3,-5.4 -55,0.1 -110.1,0 -165.1,0 -1.9,-0.1 -3.5,0.6 -5.2,1.2 m -0.6,27.4 c -1.9,2.8 0.1,7.6 3.7,7.5 30,0.2 59.9,0 89.9,0.1 1.8,-0.1 4.1,0.3 5.4,-1.2 1.8,-1.5 1.1,-4 1.2,-6 -1.5,-1.6 -3.2,-3.2 -5.5,-2.9 -29.7,-0.1 -59.4,0 -89.1,0 -2.1,-0.3 -4.5,0.5 -5.6,2.5 z"
       id="path45"
       inkscape:connector-curvature="0"
       style="fill:#ffffff" /><path
       class="st0"
       d="m 735.9,167.4 c 12.6,-2.5 25.6,-3.4 38.2,-0.7 6.2,1.1 12.1,3.3 18,5.5 -6.3,2.4 -12.3,5.5 -17.9,9.2 l -1,0 c -11.2,-7.3 -24.1,-12 -37.3,-14 z"
       id="path47"
       inkscape:connector-curvature="0"
       style="fill:#ffffff" /><path
       class="st0"
       d="m 714.7,177.3 c 19.6,-4.2 40.9,0.9 56.8,13.1 1.8,1 4.2,0.8 5.7,-0.6 7.5,-5.6 16.2,-9.3 25.1,-11.9 5.6,3.5 10.9,7.7 15.6,12.4 -6.6,2.3 -11.3,7.9 -14.6,13.8 -1.3,2.2 -2.2,4.5 -3.1,6.9 -0.5,1.3 -1,2.5 -1.5,3.8 -0.1,0.6 -0.3,1.7 -0.4,2.3 -1.6,4.9 -2.3,9.9 -3.5,14.9 -0.2,1.8 -0.3,3.5 -0.5,5.3 -1.3,4.8 -0.6,9.9 -0.9,14.8 0.2,5.6 -0.4,11.3 0.9,16.7 0.2,4.1 0.9,8.2 2,12.1 0.4,2.7 1,5.4 1.9,8 0.7,3.1 1.8,6.1 3.1,9 0.8,2.1 1.8,4 3,5.9 2.7,4.4 6.2,8.4 10.7,11.1 -15.2,13.8 -35.4,22 -56,22.3 -16.8,0.5 -33.6,-4.3 -47.9,-13.1 6.6,-0.8 13.2,-2.1 19.2,-5 13.6,-7 23.8,-19.6 29.4,-33.7 6.3,-16.6 8.2,-35.1 3.7,-52.4 -2.9,-14.1 -9.9,-27.3 -20.3,-37.2 -10.1,-9.4 -24.2,-15.1 -38.1,-13.4 3.2,-1.9 6,-4.5 9.7,-5.1 z"
       id="path49"
       inkscape:connector-curvature="0"
       style="fill:#ffffff" /><path
       class="st0"
       d="m 850.5,188.4 c 3.6,-1.7 7.8,0.1 10,3.1 4.7,6.2 4.8,15.6 0,21.7 -2,2.6 -5.3,4.5 -8.6,3.3 -1.1,-6.1 -5.9,-10.4 -8.8,-15.6 0.4,-4.9 2.7,-10.2 7.4,-12.5 z"
       id="path51"
       inkscape:connector-curvature="0"
       style="fill:#ffffff" /><path
       class="st0"
       d="m 698.6,192.4 c 8.4,-1.9 17.4,-2 25.4,1.6 14.7,6.2 24.6,20.3 29.3,35.1 6.2,19.6 4.7,41.7 -5,59.9 -6.2,11.4 -16.3,21.4 -29.1,24.8 -6.9,2 -14.2,1.3 -21.1,-0.3 9.1,0.1 18.5,-2.2 26,-7.6 12.7,-8.6 20.2,-23.1 23.2,-37.9 3.2,-13.9 1.5,-28.6 -3.5,-41.9 -4.6,-11.5 -12.3,-22.2 -23.5,-28.1 -6.6,-3.8 -14.2,-5 -21.7,-5.6 z"
       id="path53"
       inkscape:connector-curvature="0"
       style="fill:#ffffff" /><path
       class="st0"
       d="m 861.8,224.7 c 10.5,-5.9 14,-19.6 10.7,-30.7 4.3,3.8 8.3,8.2 10.1,13.8 2.5,6.7 1.4,13.9 1.8,20.8 -6.9,-3.4 -14.9,-5.2 -22.6,-3.9 z"
       id="path55"
       inkscape:connector-curvature="0"
       style="fill:#ffffff" /><path
       class="st0"
       d="m 812.9,205.7 c 2.7,-3.8 7,-7.9 12.1,-6.5 1,0.5 3.7,0.6 2.8,2.2 -3.6,2.1 -6.3,5.2 -8.3,8.8 -3.5,6.1 -4.8,13 -6.5,19.7 -0.3,2 -0.3,4 -1.1,5.9 0,4.1 -0.8,8.1 -1.1,12.2 -0.3,12.5 1,25 4.2,37.1 1,3.5 2.3,6.8 3.8,10.1 2.2,4.4 5.6,7.8 9.5,10.7 -3.1,1.4 -6.9,2.3 -10,0.2 -6.4,-4.3 -9,-12 -11.4,-18.9 -0.7,-2.7 -1.3,-5.4 -2.1,-8 -0.2,-1.7 -0.2,-3.4 -1,-4.9 -0.3,-2.7 -0.1,-5.5 -1,-8.1 -0.3,-9 -1,-18.1 0.4,-27 0.1,-4.1 1,-8.1 1.6,-12.2 1.2,-3.9 1.9,-7.9 3.5,-11.7 0.5,-1.4 1,-2.8 1.5,-4.1 0.5,-0.9 1,-1.8 1.6,-2.8 0.6,-1.1 1,-1.9 1.5,-2.7 z"
       id="path57"
       inkscape:connector-curvature="0"
       style="fill:#ffffff" /><path
       class="st0"
       d="m 687.3,203.9 c 8.1,-3.9 18,-4.1 26.3,-0.4 9.3,4.1 16.4,12.2 20.9,21.2 7,14.3 8.2,31.2 4,46.5 -3.2,11.5 -9.9,22.5 -20.1,29 -7.7,5 -17.6,6.6 -26.4,3.9 -8.1,-2.4 -14.9,-8 -19.9,-14.8 5.8,5.8 15.3,7.2 22.9,4.5 6.8,-2.1 12,-7.6 15.9,-13.3 1.5,-2.1 2.4,-4.9 1.2,-7.5 -1.7,-1.3 -3.9,-1.4 -6,-1.4 -12.3,-0.1 -24.6,-0.2 -37,-0.2 -1.9,-0.1 -3.7,0.4 -5.5,1 -4.4,-15.5 -3.6,-32.6 3.5,-47.2 4.4,-9 11.2,-17 20.2,-21.3 m -2.9,22.3 c -9,3 -9.2,17.6 -0.4,21.1 6.7,3 14,-3.5 13.7,-10.4 0.4,-6.8 -6.5,-13.4 -13.3,-10.7 z"
       id="path59"
       inkscape:connector-curvature="0"
       style="fill:#ffffff" /><path
       class="st0"
       d="m 655.5,203.3 c 4,-2.6 8.9,-0.1 11.4,3.5 -5.1,7.3 -8.4,15.7 -10.8,24.2 -9.5,-5.7 -9.8,-21.7 -0.6,-27.7 z"
       id="path61"
       inkscape:connector-curvature="0"
       style="fill:#ffffff" /><path
       class="st0"
       d="m 827.9,211.6 c 1.7,-2.2 4.3,-4.4 7.3,-4 4.1,0.8 6.3,4.9 8.2,8.2 0.5,1.4 1.1,2.8 1.6,4.1 1.8,4.1 2.4,8.6 3.4,12.9 0.3,2.3 0.2,4.7 1,7 0.8,9.8 0.4,19.8 -0.1,29.5 -6.4,0.4 -12.8,-0.3 -19.2,0.1 -2.6,0.6 -2,4.2 -1.6,6.2 1.4,5 3.1,10.8 7.8,13.7 2.6,1.8 5.5,0.1 7.8,-1.4 0.7,-1 0.9,-2.6 2.2,-2.9 -1.3,1.5 -2.1,3.2 -2.8,5 -1.9,3.4 -4,7.5 -8.2,8.4 -4.6,0.6 -7.5,-3.9 -9.5,-7.4 -0.5,-1.1 -1,-2.3 -1.4,-3.4 -0.9,-1.9 -1.5,-3.9 -2,-6 -1,-3.3 -1.6,-6.6 -2,-10 -0.9,-2.3 -0.6,-4.8 -0.8,-7.2 -1.4,-6.5 -0.6,-13.2 -0.5,-19.8 1.2,-3.5 0,-7.4 1.5,-10.8 0.2,-1.4 0.3,-2.8 0.5,-4.2 0.9,-2.9 1.3,-6 2.4,-8.8 0.5,-1.4 1,-2.8 1.6,-4.2 0.8,-1.5 1.8,-3.3 2.8,-5 m 10.7,17.9 c -1.7,0.4 -2.5,2.5 -3.1,3.9 -1.4,4.5 -1.3,9.8 1.2,14 0.9,1.6 3.3,2.1 4.5,0.5 2.8,-3.9 2.9,-9.3 1.8,-13.8 -0.7,-2 -1.8,-5.1 -4.4,-4.6 z"
       id="path63"
       inkscape:connector-curvature="0"
       style="fill:#ffffff" /><path
       class="st0"
       d="m 630.6,221.4 c 1.8,-5.1 5.5,-9.2 9.6,-12.7 -3,11.2 0.7,24.6 11,30.7 -7.7,-1.9 -15.8,0.3 -22.7,3.6 0.3,-7.1 -0.8,-14.7 2.1,-21.6 z"
       id="path65"
       inkscape:connector-curvature="0"
       style="fill:#ffffff" /><path
       class="st0"
       d="m 856.8,236.5 c 4.9,-2.4 10.5,-3.2 15.8,-1.9 8.7,2 16.2,7.7 21.9,14.4 -2.5,1.7 -4.9,3.5 -7.3,5.3 -7.5,-8.7 -18.9,-12.8 -30.1,-13.1 -0.2,-1.6 -0.3,-3.2 -0.3,-4.7 z"
       id="path67"
       inkscape:connector-curvature="0"
       style="fill:#ffffff" /><path
       class="st0"
       d="m 618.3,263.3 c 5.9,-6.4 13,-12.2 21.7,-14.2 4.3,-1.1 8.9,-0.8 13.1,0.6 -0.1,2.1 -0.1,4.1 -0.1,6.2 -10.3,0.6 -20.5,4.9 -27.2,12.9 -2.5,-1.8 -5,-3.7 -7.5,-5.5 z"
       id="path69"
       inkscape:connector-curvature="0"
       style="fill:#ffffff" /><path
       class="st0"
       d="m 861.5,251.2 c 5.2,0.8 10.5,2.4 14.6,5.9 3.2,2.3 5,5.9 7.8,8.6 -1.4,7.2 -5.2,13.9 -10.2,19.2 2,-10.5 -2.5,-22.4 -12.1,-27.6 -0.1,-2 -0.1,-4.1 -0.1,-6.1 z"
       id="path71"
       inkscape:connector-curvature="0"
       style="fill:#ffffff" /><path
       class="st0"
       d="m 895.4,267.1 c 6,-4.3 11.9,-8.8 17.8,-13.1 9.4,12.7 18.7,25.4 28.1,38 -8.4,6.7 -17,13.2 -25.4,19.8 -8.5,-11.5 -16.9,-23.1 -25.5,-34.4 1.7,-3.4 1.3,-8.2 5,-10.3 z"
       id="path73"
       inkscape:connector-curvature="0"
       style="fill:#ffffff" /><path
       class="st0"
       d="m 636.9,271.5 c 4.1,-3.4 9.3,-5 14.5,-5.8 0,2 0,4.1 0,6.1 -9.7,5.1 -13.9,16.9 -12.3,27.3 -5,-5.2 -8.6,-11.8 -10,-18.9 2.7,-2.8 4.6,-6.4 7.8,-8.7 z"
       id="path75"
       inkscape:connector-curvature="0"
       style="fill:#ffffff" /><path
       class="st0"
       d="m 857,266 c 8.6,4.5 9.6,17.4 4,24.7 -2.3,3.3 -7.3,5.4 -10.7,2.5 2.2,-2.7 2.8,-6.3 3.7,-9.6 1.5,-5.7 3,-11.6 3,-17.6 z"
       id="path77"
       inkscape:connector-curvature="0"
       style="fill:#ffffff" /><path
       class="st0"
       d="m 571.6,306.4 c 9.6,-12.5 18.6,-25.5 28.3,-38 6.4,5.2 13.4,9.6 19.7,14.9 1.1,2.7 1.8,5.7 2.9,8.4 -8.5,11.5 -17,23 -25.5,34.5 -8.5,-6.5 -17.1,-13 -25.4,-19.8 z"
       id="path79"
       inkscape:connector-curvature="0"
       style="fill:#ffffff" /><path
       class="st0"
       d="m 832.3,276.4 c 4.5,0 8.9,0.1 13.4,0.1 -1.6,2.9 -3.5,7.2 -7.6,6.7 -3,-0.9 -4.4,-4.2 -5.8,-6.8 z"
       id="path81"
       inkscape:connector-curvature="0"
       style="fill:#ffffff" /><path
       class="st0"
       d="m 672.2,279.3 c 10,0.2 20,0.1 30,0.2 -3.9,4.7 -9.8,8.2 -16.1,7.6 -5.6,0 -10.2,-3.8 -13.9,-7.8 z"
       id="path83"
       inkscape:connector-curvature="0"
       style="fill:#ffffff" /><path
       class="st0"
       d="m 649,299.1 c -1.8,-7.2 0.8,-16.8 8.6,-19.3 2.4,7.7 6,14.9 10.7,21.4 -1.7,3.7 -4.6,7.6 -9,7.9 -5.6,0.1 -9.2,-5.2 -10.3,-10 z"
       id="path85"
       inkscape:connector-curvature="0"
       style="fill:#ffffff" /><path
       class="st0"
       d="m 921.6,319.7 c 8.5,-6.6 16.9,-13.2 25.4,-19.8 7.7,10.4 15.3,20.8 23,31.2 -11,1.9 -21,9.4 -25.4,19.8 -7.6,-10.4 -15.3,-20.8 -23,-31.2 z"
       id="path87"
       inkscape:connector-curvature="0"
       style="fill:#ffffff" /><path
       class="st0"
       d="m 542.8,345.5 c 7.8,-10.3 15.4,-20.8 23.1,-31.2 8.5,6.6 16.9,13.2 25.4,19.8 -7.6,10.1 -15,20.4 -22.6,30.5 l -0.5,0.1 c -4.8,-9.9 -14.4,-17.4 -25.4,-19.2 z"
       id="path89"
       inkscape:connector-curvature="0"
       style="fill:#ffffff" /><path
       class="st0"
       d="m 775.2,344.4 c 4,-1 8,-1.9 11.9,-3.1 0,0.7 0,2 -0.1,2.7 -3.9,0.2 -7.9,-0.1 -11.8,0.4 z"
       id="path91"
       inkscape:connector-curvature="0"
       style="fill:#ffffff" /><path
       class="st0"
       d="m 969.4,341.1 c 12.5,-3.7 26.8,4.9 29.5,17.7 3.1,11.9 -4.7,25.3 -16.5,28.5 -8.9,2.8 -19.1,-0.3 -25.1,-7.4 -5.6,-6.5 -7.3,-16 -4.2,-24 2.5,-7.2 8.9,-12.8 16.3,-14.8 z"
       id="path93"
       inkscape:connector-curvature="0"
       style="fill:#ffffff" /><path
       class="st0"
       d="m 660.3,351.3 c 7,-2.4 14.6,-1.3 21.9,-1.5 9.7,-0.5 20.7,0.3 28,7.6 -10,0.1 -20,-0.1 -30,0 -2.9,-0.3 -5.5,2.5 -5.1,5.4 0,13.5 0,26.9 0,40.4 -5.4,0.1 -10.7,-0.1 -16,0.1 -2.8,0 -4.8,2.9 -4.4,5.6 0,26.3 -0.1,52.7 0.1,79 -5.1,-4.8 -10.1,-9.6 -15.1,-14.4 0,-28.9 0,-57.7 0,-86.6 0,-4.7 -0.2,-9.5 0.9,-14.2 2.3,-9.8 10.1,-18.2 19.7,-21.4 z"
       id="path95"
       inkscape:connector-curvature="0"
       style="fill:#ffffff" /><path
       class="st0"
       d="m 812.1,353.9 c 7,-2.7 14.6,-1.8 22,-2 12,-0.1 24.1,6.2 30.3,16.7 8,15.2 15.9,30.3 23.8,45.5 -9.7,0.5 -19.7,-0.8 -29,2.3 -7.5,2.4 -14.4,7 -18.8,13.6 -3.7,5.5 -5.3,12.2 -5.4,18.7 -0.2,9.5 0.1,19.1 -0.1,28.6 -7.2,5.6 -14.1,11.5 -21.1,17.2 0,-28 0,-55.9 -0.1,-83.9 0.2,-2.6 -1.9,-5.1 -4.5,-5.1 -5.7,-0.1 -11.5,0 -17.2,0 0.1,-8.3 -0.1,-16.6 0.1,-24.8 0.6,-11.7 8.9,-22.7 20,-26.8 z"
       id="path97"
       inkscape:connector-curvature="0"
       style="fill:#ffffff" /><path
       class="st0"
       d="m 730.3,354.1 c 18.9,-0.2 37.7,-0.2 56.6,0 0.1,1.3 0.2,2.7 0.3,4.1 -19,0.2 -38.1,0.2 -57.1,0 0.1,-1.4 0.1,-2.8 0.2,-4.1 z"
       id="path99"
       inkscape:connector-curvature="0"
       style="fill:#ffffff" /><path
       class="st0"
       d="m 531.7,355.5 c 6.3,-1.6 13.2,-0.4 18.7,3.2 6.2,3.9 10.4,10.9 10.9,18.3 0.6,7 -2.1,14.1 -7.1,19 -5.5,5.4 -13.6,7.9 -21.2,6.5 -7.1,-1.3 -13.5,-6 -16.8,-12.4 -3.5,-6.4 -3.8,-14.4 -0.8,-21 3,-6.7 9.2,-11.9 16.3,-13.6 z"
       id="path101"
       inkscape:connector-curvature="0"
       style="fill:#ffffff" /><path
       class="st0"
       d="m 684.8,368.1 c 33.4,-0.1 66.8,0.6 100.3,0.3 -1.8,5 -2.7,10.2 -2.6,15.5 0,46.3 0,92.6 0,138.9 -0.2,3.7 4.6,6.1 7.5,3.9 10.4,-8.2 20.4,-16.8 30.8,-25 0,24.4 -0.1,48.7 0,73.1 -22.2,0.2 -44.5,0 -66.7,0.1 -0.6,-7.1 -2.3,-14.3 -6.6,-20.1 -2.5,-3.5 -5.9,-6.3 -9.4,-8.8 7.4,0 14.8,0.2 22.2,-0.1 3.1,0.1 4.7,-3.3 4.4,-6.1 0,-39 0,-78 0,-117 -0.1,-2.5 0.3,-5.2 -0.8,-7.5 -1.2,-1.9 -3.6,-2.5 -5.7,-2.4 -17.3,0.1 -34.7,-0.1 -52,0.2 -2.3,0.1 -4.9,-0.4 -6.9,0.8 -1.6,1 -2.3,3 -2.1,4.8 0,39.8 0,79.5 0,119.3 -14.2,0 -28.3,-0.1 -42.5,0.1 -0.3,-12.4 0,-24.8 -0.2,-37.2 7.4,7.2 14.8,14.4 22.3,21.4 2.8,2.8 8.3,0.3 7.9,-3.7 0.1,-50.1 0,-100.3 0.1,-150.5 z"
       id="path103"
       inkscape:connector-curvature="0"
       style="fill:#ffffff" /><path
       class="st0"
       d="m 909.8,389.1 c 10.8,-7.3 21.3,-15 32.2,-22.1 0.6,11.2 7.6,21.6 17.3,27 -10.1,7.1 -20.3,14 -30.4,21.1 -6.5,-8.6 -12.7,-17.3 -19.1,-26 z"
       id="path105"
       inkscape:connector-curvature="0"
       style="fill:#ffffff" /><path
       class="st0"
       d="m 571,381.4 c 10.7,7.5 21.4,14.8 32.1,22.3 -6.4,8.6 -12.7,17.3 -19,25.9 -10.2,-7 -20.3,-14.2 -30.6,-21 9.9,-5.5 16.6,-16 17.5,-27.2 z"
       id="path107"
       inkscape:connector-curvature="0"
       style="fill:#ffffff" /><path
       class="st0"
       d="m 892.4,401.1 c 3.2,-2.1 6.3,-4.3 9.5,-6.5 6.4,8.6 12.6,17.3 19,25.9 -10.5,7.5 -21.2,14.7 -31.8,22.2 -0.6,-6.8 -3.2,-13.3 -7.4,-18.8 5.1,-0.1 10.3,0.1 15.4,-0.4 3.1,-0.3 4.9,-4.3 3.3,-6.9 -2.5,-5.2 -5.4,-10.3 -8,-15.5 z"
       id="path109"
       inkscape:connector-curvature="0"
       style="fill:#ffffff" /><path
       class="st0"
       d="m 1043.5,401.3 c 10.1,-3.6 21.5,6.2 21.2,16.5 -0.1,4 -3.6,7.4 -7.6,7.6 -8.7,0.4 -16.9,-6.9 -18,-15.5 -0.4,-3.4 1.2,-7.2 4.4,-8.6 z"
       id="path111"
       inkscape:connector-curvature="0"
       style="fill:#ffffff" /><path
       class="st0"
       d="m 592,435.1 c 6.4,-8.6 12.7,-17.3 19,-25.9 5,3.5 10,7 15.1,10.4 -8.9,7.5 -13.6,19.7 -11.6,31.2 -7.4,-5.4 -15.1,-10.4 -22.5,-15.7 z"
       id="path113"
       inkscape:connector-curvature="0"
       style="fill:#ffffff" /><path
       class="st0"
       d="m 664.3,412.9 c 3.6,0 7.2,0 10.8,0 0,31.5 0,63.1 0,94.6 -3,-2.8 -5.9,-5.7 -8.9,-8.5 -0.8,-0.9 -2.1,-1.7 -1.9,-3.1 0,-27.6 0,-55.3 0,-83 z"
       id="path115"
       inkscape:connector-curvature="0"
       style="fill:#ffffff" /><path
       class="st0"
       d="m 792.2,415.3 c 3.9,0.1 7.9,0.1 11.8,0 0.2,29.1 0.1,58.2 0.1,87.3 -4,3.3 -8,6.6 -12.1,9.9 0.2,-32.4 -0.1,-64.8 0.2,-97.2 z"
       id="path117"
       inkscape:connector-curvature="0"
       style="fill:#ffffff" /><path
       class="st0"
       d="m 706.8,422.9 c 0.7,0 2,0 2.6,0 0,37.8 0,75.6 0,113.4 -0.7,0 -2,0 -2.6,0 0,-37.8 0,-75.6 0,-113.4 z"
       id="path119"
       inkscape:connector-curvature="0"
       style="fill:#ffffff" /><path
       class="st0"
       d="m 719.1,422.9 c 11.8,0 23.7,0 35.5,0 0,37.7 0,75.4 0,113.1 -11.8,0 -23.7,0 -35.5,0 0,-37.7 0,-75.4 0,-113.1 m 12.3,11.2 c -5,1.9 -8.1,7.6 -7.1,12.8 0.9,6 7.1,10.5 13.1,9.5 6.4,-0.7 11.2,-7.3 9.9,-13.6 -1.1,-7 -9.4,-11.6 -15.9,-8.7 m -0.7,35.4 c -5.1,2.3 -7.8,8.6 -6.1,13.9 1.6,5.9 8.3,9.6 14.2,7.9 6.3,-1.5 10.3,-8.8 8.1,-15 -2,-6.5 -10.2,-9.9 -16.2,-6.8 m -0.1,35.1 c -4.5,2.1 -7.3,7.4 -6.4,12.3 0.8,6.1 7,10.7 13.1,9.7 6.8,-0.7 11.7,-8.1 9.7,-14.6 -1.6,-6.8 -10.1,-10.7 -16.4,-7.4 z"
       id="path121"
       inkscape:connector-curvature="0"
       style="fill:#ffffff" /><path
       class="st0"
       d="m 455.6,425.6 c 5.5,-2.1 12.1,-1.7 17,1.7 2.7,1.9 4.7,5.3 3.8,8.7 -1.2,4.5 -5.5,7.3 -9.8,8.6 -6.6,1.8 -15.4,0.2 -18.6,-6.4 -2.4,-5.6 2.7,-10.9 7.6,-12.6 z"
       id="path123"
       inkscape:connector-curvature="0"
       style="fill:#ffffff" /><path
       class="st0"
       d="m 845.3,443.8 c 1.6,-10.4 11.6,-18.5 21.9,-18.9 8.5,4.8 13.2,15.4 11.2,24.9 -1.8,9.7 -10.2,17.7 -20,18.9 -4.6,0.7 -9.2,-0.3 -13.5,-2 0,-7.5 -0.7,-15.3 0.4,-22.9 z"
       id="path125"
       inkscape:connector-curvature="0"
       style="fill:#ffffff" /><path
       class="st0"
       d="m 1034.9,424.3 c 6.7,8.1 18,13.2 28.4,9.6 1.6,1.4 3.2,2.9 4.8,4.4 -0.2,8.3 -3.2,16.8 -9.7,22.3 -6.8,-6.8 -15.3,-12.3 -19.5,-21.1 -2.4,-4.7 -3.6,-9.9 -4,-15.2 z"
       id="path127"
       inkscape:connector-curvature="0"
       style="fill:#ffffff" /><path
       class="st0"
       d="m 379.3,430.2 c 4.9,-1.6 10.6,-1.2 15.1,1.5 2.5,1.5 4.6,4 4.8,7 0.3,3.5 -2,6.5 -4.8,8.4 -5.6,3.8 -13.4,4.1 -19.3,0.9 -3.2,-1.8 -5.9,-5.3 -5.1,-9.1 1.1,-4.5 5.2,-7.4 9.3,-8.7 z"
       id="path129"
       inkscape:connector-curvature="0"
       style="fill:#ffffff" /><path
       class="st0"
       d="m 623.9,443 c 0.4,-5.2 2.9,-9.9 6.1,-13.9 0,10.8 0,21.7 0,32.5 -4.4,-5 -6.9,-11.8 -6.1,-18.6 z"
       id="path131"
       inkscape:connector-curvature="0"
       style="fill:#ffffff" /><path
       class="st0"
       d="m 420.2,437.7 c 1,-0.7 2.3,-1.1 3.4,-1.6 -0.1,10.5 3,21.4 10.3,29.1 1.4,1.6 3.4,2.8 4.6,4.5 -1.4,2.6 -3.2,5.1 -4.7,7.7 -6.8,-5.4 -13,-12.1 -15.7,-20.6 -2,-6.3 -1.2,-13.3 2.1,-19.1 z"
       id="path133"
       inkscape:connector-curvature="0"
       style="fill:#ffffff" /><path
       class="st0"
       d="m 1077.8,436.1 c 5,0.9 5.6,6.7 6.4,10.8 1.4,12.5 -7.3,23.3 -16.6,30.5 -1.6,-2.6 -3.3,-5.2 -4.9,-7.8 10.4,-7.7 15.4,-20.9 15.1,-33.5 z"
       id="path135"
       inkscape:connector-curvature="0"
       style="fill:#ffffff" /><path
       class="st0"
       d="m 734.6,443.4 c 2.1,-1.6 4.4,1.8 2.4,3.3 -2.2,1.5 -4.5,-1.9 -2.4,-3.3 z"
       id="path137"
       inkscape:connector-curvature="0"
       style="fill:#ffffff" /><path
       class="st0"
       d="m 433.9,444.2 c 2,-0.1 4,-0.3 6.1,-0.4 5.8,9.3 18,12.7 28.3,10.3 -4.9,5.4 -11.3,9.5 -18.3,11.4 -3.2,-2.6 -7,-4.4 -9.6,-7.7 -3.5,-3.7 -5.5,-8.6 -6.5,-13.6 z"
       id="path139"
       inkscape:connector-curvature="0"
       style="fill:#ffffff" /><path
       class="st0"
       d="m 407.6,445.9 c -1.2,7.9 1.3,16 5.3,22.8 -7,0.2 -14.1,1.7 -20.9,-0.3 -5.5,-1.4 -10.3,-4.8 -14.2,-9 11.4,2.3 25.1,-2.3 29.8,-13.5 z"
       id="path141"
       inkscape:connector-curvature="0"
       style="fill:#ffffff" /><path
       class="st0"
       d="m 1101.6,453.5 c 9.4,-2.2 19.2,6.1 20.1,15.4 0.5,4.1 -2.3,8.3 -6.5,8.9 -9.3,1.3 -18.5,-6.7 -19.2,-15.9 -0.3,-3.6 2,-7.4 5.6,-8.4 z"
       id="path143"
       inkscape:connector-curvature="0"
       style="fill:#ffffff" /><path
       class="st0"
       d="m 597.7,483.5 c 6.8,-7.1 14.1,-13.9 21,-20.9 2.7,4.6 6.7,8.4 11.1,11.5 0.3,1.6 0.1,3.5 1.4,4.7 2.7,2.9 5.7,5.5 8.5,8.2 -6.6,6.7 -13.4,13.2 -20.1,19.8 -7.2,-7.7 -14.4,-15.6 -21.9,-23.3 z"
       id="path145"
       inkscape:connector-curvature="0"
       style="fill:#ffffff" /><path
       class="st0"
       d="m 883.6,463.8 c 6.8,6.4 13.4,13 20,19.7 -7.4,7.8 -14.7,15.7 -22,23.5 -9.4,-9.2 -18.6,-18.6 -28.2,-27.6 11.9,0.5 23.9,-5.5 30.2,-15.6 z"
       id="path147"
       inkscape:connector-curvature="0"
       style="fill:#ffffff" /><path
       class="st0"
       d="m 1003.2,494.4 c 13.5,-8.8 27.1,-17.4 40.8,-25.9 5.6,9.1 11.5,18.1 17.2,27.2 -13.3,8.4 -26.6,16.9 -40,25.3 -6.1,-8.9 -11.9,-17.9 -18,-26.6 z"
       id="path149"
       inkscape:connector-curvature="0"
       style="fill:#ffffff" /><path
       class="st0"
       d="m 1079.6,480 c 2.9,-3.3 5.9,-6.6 8.3,-10.4 2.5,6.6 7.7,11.7 13.6,15.3 -7.7,1.5 -15.6,-0.5 -21.9,-4.9 z"
       id="path151"
       inkscape:connector-curvature="0"
       style="fill:#ffffff" /><path
       class="st0"
       d="m 453.5,475 c 2.6,-1.7 5.7,-2.4 8.5,-3.8 12,7.7 24.1,15.3 36.1,23 -6,8.9 -12,17.8 -17.9,26.8 -13.3,-8.6 -26.8,-16.8 -40,-25.5 4.7,-6.7 8.6,-13.9 13.3,-20.5 z"
       id="path153"
       inkscape:connector-curvature="0"
       style="fill:#ffffff" /><path
       class="st0"
       d="m 734.5,478.5 c 2,-1.8 4.5,1.7 2.4,3.2 -2,1.5 -4.4,-1.8 -2.4,-3.2 z"
       id="path155"
       inkscape:connector-curvature="0"
       style="fill:#ffffff" /><path
       class="st0"
       d="m 830.5,494 c 3.9,-4.1 8.8,-7.4 13.1,-11.1 9.2,9.1 18.4,18.2 27.6,27.2 0.1,16.9 0,33.9 0,50.8 -0.4,4.7 -2.3,9.2 -2.4,14 -12.8,0 -25.6,0 -38.5,0 0.1,-27 0,-53.9 0.2,-80.9 z"
       id="path157"
       inkscape:connector-curvature="0"
       style="fill:#ffffff" /><path
       class="st0"
       d="m 563.1,517.6 c 9.2,-9.2 18.5,-18.3 27.7,-27.4 7.3,7.9 14.7,15.7 22,23.5 -8.8,8.7 -17.6,17.3 -26.4,26 -3.5,-10.6 -12.4,-19.3 -23.3,-22.1 z"
       id="path159"
       inkscape:connector-curvature="0"
       style="fill:#ffffff" /><path
       class="st0"
       d="m 888.6,513.7 c 7.3,-7.8 14.7,-15.6 22,-23.5 9.3,9.1 18.5,18.3 27.8,27.4 -10.2,2.7 -18.8,10.4 -22.7,20.2 -1.5,0 -3,0 -4,-1.3 -7.7,-7.6 -15.4,-15.3 -23.1,-22.8 z"
       id="path161"
       inkscape:connector-curvature="0"
       style="fill:#ffffff" /><path
       class="st0"
       d="m 488.4,526.2 c 6,-8.9 12,-17.7 17.9,-26.7 11,6.7 21.8,13.8 32.7,20.6 -8.8,4.5 -15.5,13 -17.4,22.7 -4.3,-2.1 -9.1,-3.2 -13.7,-4.5 -6.7,-3.8 -13,-8.2 -19.5,-12.1 z"
       id="path163"
       inkscape:connector-curvature="0"
       style="fill:#ffffff" /><path
       class="st0"
       d="m 962.5,520.1 c 10.9,-6.8 21.7,-13.9 32.7,-20.6 5.9,9 11.9,17.8 17.9,26.7 -6.3,3.7 -12.1,8.2 -18.6,11.5 -5.3,0.1 -10.6,0 -16,0 -3.1,-7.6 -8.8,-13.9 -16,-17.6 z"
       id="path165"
       inkscape:connector-curvature="0"
       style="fill:#ffffff" /><path
       class="st0"
       d="m 734.6,513.5 c 2,-1.5 4.3,1.7 2.4,3.2 -2.1,1.7 -4.6,-1.9 -2.4,-3.2 z"
       id="path167"
       inkscape:connector-curvature="0"
       style="fill:#ffffff" /><path
       class="st0"
       d="m 539,531.6 c 7.3,-6.3 18.6,-7.3 26.9,-2.5 8.1,4.4 13.1,13.7 12.3,22.9 -0.6,10 -8.3,19.1 -18.1,21.4 -5.6,1.5 -11.5,0.5 -16.7,-1.8 -1,-4.1 -1.8,-8.4 -3.9,-12.2 -2.1,-4.3 -5.5,-7.8 -9.2,-10.8 0.5,-6.5 3.6,-12.8 8.7,-17 z"
       id="path169"
       inkscape:connector-curvature="0"
       style="fill:#ffffff" /><path
       class="st0"
       d="m 926.4,537.5 c 4.8,-7.1 13.1,-12 21.8,-11.4 8,0.3 15.2,4.9 19.5,11.5 -13.8,0 -27.5,0.2 -41.3,-0.1 z"
       id="path171"
       inkscape:connector-curvature="0"
       style="fill:#ffffff" /><path
       class="st0"
       d="m 884.4,559.2 c 6.7,-7 15.9,-11.9 25.7,-11.8 27,-0.1 54,0 81,0 7.8,0 15.8,0.8 22.8,4.5 5.2,2.6 9.3,8 9.1,14 0,11.3 0,22.7 0,34 -5.7,0 -11.4,0 -17.1,0 0.1,-9 0.3,-18 0.4,-27 0.3,-2.8 -2.3,-5.3 -5.1,-5 -27,0 -54.1,-0.1 -81.1,0 -2.8,-0.3 -5.3,2.2 -5,5 -0.1,9 0,18 0,27 -12.3,0 -24.5,0 -36.8,0 0,-7.3 -0.1,-14.7 0.1,-22 0.2,-6.6 1.5,-13.7 6,-18.7 z"
       id="path173"
       inkscape:connector-curvature="0"
       style="fill:#ffffff" /><path
       class="st0"
       d="m 440.3,552.9 c 6.6,-3.9 14.4,-4.8 21.9,-5 10,-0.1 20,0 30,-0.1 7,0 14.2,-0.5 20.9,2 5.5,2 10.4,5.5 14.5,9.5 4.7,4.9 6.1,11.9 6.3,18.5 0.2,7.5 0,15 0.1,22.5 -12.4,0 -24.8,0 -37.1,0 -0.1,-9.2 0.1,-18.3 -0.1,-27.5 0,-2.5 -2.3,-4.7 -4.8,-4.5 -15.9,0 -31.9,0 -47.8,0 -2.5,-0.2 -4.9,1.9 -4.9,4.4 0,9.2 0.3,18.4 0.4,27.6 -2.5,0 -5,0 -7.5,0 0,-11.5 0,-23 0,-34.5 0,-5.3 3.6,-10.2 8.1,-12.9 z"
       id="path175"
       inkscape:connector-curvature="0"
       style="fill:#ffffff" /><path
       class="st0"
       d="m 616.8,552.4 c 7.1,-4 15.5,-4.6 23.5,-4.6 25,0 50,-0.1 74.9,0.1 9.1,0.1 17.4,4.9 23.4,11.5 4.4,5.1 5.7,12.1 5.9,18.6 0.2,7.5 0,15 0.1,22.4 -11.4,0 -22.8,0 -34.2,0 0,-9.2 0.1,-18.3 -0.1,-27.5 0,-2.6 -2.5,-4.8 -5,-4.5 -25.4,0 -50.7,0 -76.1,0 -2.7,-0.3 -5.5,1.8 -5.4,4.6 0,9.1 0.3,18.3 0.4,27.5 -5.2,0 -10.4,0 -15.6,0 -0.1,-11.5 0,-23 0,-34.5 -0.1,-5.7 3.4,-10.9 8.2,-13.6 z"
       id="path177"
       inkscape:connector-curvature="0"
       style="fill:#ffffff" /><path
       class="st0"
       d="m 449.2,578 c 12.7,0 25.4,0 38.1,0 0,9 -0.1,18 0,27 -0.2,2.7 2.2,5.3 5,5.1 15.3,0.1 30.6,0 45.9,0 2.2,0.2 4.6,-1 5.3,-3.3 0.5,-3.3 0.2,-6.6 0.1,-9.9 8.2,15.4 16.2,31.5 18.4,49 -37.7,0 -75.4,0 -113.2,0 0,-11.7 0,-23.4 0,-35 1.4,-10.9 0.1,-22 0.4,-32.9 z"
       id="path179"
       inkscape:connector-curvature="0"
       style="fill:#ffffff" /><path
       class="st0"
       d="m 633.6,578 c 22.4,0.1 44.8,0 67.1,0 0,9 -0.1,17.9 0,26.9 -0.3,3 2.5,5.6 5.5,5.2 13.7,0.1 27.3,0 41,0 2,0 4.3,0.1 5.7,-1.6 1.9,-1.9 1.1,-4.8 1.4,-7.2 6.9,14.1 13.2,28.8 15,44.5 -45.3,0 -90.6,0 -135.9,0 0,-11.7 0,-23.3 0,-35 1,-10.9 0.1,-21.9 0.2,-32.8 z"
       id="path181"
       inkscape:connector-curvature="0"
       style="fill:#ffffff" /><path
       class="st0"
       d="m 924.8,577.5 c 23.9,0 47.7,0 71.6,0 0.2,10.8 -0.8,21.7 0.3,32.5 0,11.9 0,23.7 0,35.6 -48.2,0 -96.4,-0.1 -144.6,0 1.8,-16.4 9,-31.5 16.5,-45.9 0.1,2.8 -0.8,6.2 1.3,8.5 1.6,1.7 4.1,1.4 6.2,1.5 14.7,-0.1 29.3,0.1 44,-0.1 2.5,0 4.7,-2.2 4.6,-4.7 0.2,-9.2 0.1,-18.3 0.1,-27.4 z"
       id="path183"
       inkscape:connector-curvature="0"
       style="fill:#ffffff" /><path
       class="st0"
       d="m 756.2,584.5 c 20.6,0.1 41.2,0.1 61.8,0 -3.9,8.5 -7.7,17.1 -11.7,25.5 -12.5,0 -24.9,0 -37.3,0 -3.8,-8.7 -8,-17.2 -12.8,-25.5 z"
       id="path185"
       inkscape:connector-curvature="0"
       style="fill:#ffffff" /><path
       class="st0"
       d="m 817.1,610 c 4,-8.5 7.6,-17.2 11.8,-25.5 12.4,0.2 24.9,0.1 37.3,0 -4.9,8.2 -9.5,16.6 -13.3,25.3 -11.9,0.4 -23.9,0.1 -35.8,0.2 z"
       id="path187"
       inkscape:connector-curvature="0"
       style="fill:#ffffff" /><path
       class="st0"
       d="m 773.5,622.2 c 24.8,-0.2 49.6,-0.1 74.5,-0.1 -0.6,1.5 -1.1,3.1 -1.7,4.7 -23.7,0 -47.4,0 -71.1,0 -0.6,-1.5 -1.1,-3.1 -1.7,-4.6 z"
       id="path189"
       inkscape:connector-curvature="0"
       style="fill:#ffffff" /><path
       class="st0"
       d="m 777.6,636.6 c 22,0 44.1,0 66.1,0 -0.3,1.4 -0.5,2.8 -0.8,4.3 -21.5,0 -43,0 -64.5,0 -0.3,-1.4 -0.5,-2.9 -0.8,-4.3 z"
       id="path191"
       inkscape:connector-curvature="0"
       style="fill:#ffffff" /></g></svg>