<?xml version="1.0" encoding="UTF-8" standalone="no"?>
<svg
   xmlns:dc="http://purl.org/dc/elements/1.1/"
   xmlns:cc="http://creativecommons.org/ns#"
   xmlns:rdf="http://www.w3.org/1999/02/22-rdf-syntax-ns#"
   xmlns:svg="http://www.w3.org/2000/svg"
   xmlns="http://www.w3.org/2000/svg"
   xmlns:sodipodi="http://sodipodi.sourceforge.net/DTD/sodipodi-0.dtd"
   xmlns:inkscape="http://www.inkscape.org/namespaces/inkscape"
   width="721.00873pt"
   height="592.90955pt"
   viewBox="0 0 721.00873 592.90955"
   version="1.1"
   id="svg2"
   inkscape:version="0.91 r13725"
   sodipodi:docname="verification.svg">
  <metadata
     id="metadata244">
    <rdf:RDF>
      <cc:Work
         rdf:about="">
        <dc:format>image/svg+xml</dc:format>
        <dc:type
           rdf:resource="http://purl.org/dc/dcmitype/StillImage" />
        <dc:title></dc:title>
      </cc:Work>
    </rdf:RDF>
  </metadata>
  <defs
     id="defs242" />
  <sodipodi:namedview
     pagecolor="#ffffff"
     bordercolor="#666666"
     borderopacity="1"
     objecttolerance="10"
     gridtolerance="10"
     guidetolerance="10"
     inkscape:pageopacity="0"
     inkscape:pageshadow="2"
     inkscape:window-width="640"
     inkscape:window-height="480"
     id="namedview240"
     showgrid="false"
     fit-margin-top="0"
     fit-margin-left="0"
     fit-margin-right="0"
     fit-margin-bottom="0"
     inkscape:zoom="0.25422993"
     inkscape:cx="434.11094"
     inkscape:cy="371.95341"
     inkscape:window-x="0"
     inkscape:window-y="0"
     inkscape:window-maximized="0"
     inkscape:current-layer="svg2" />
  <g
     id="#040404fe"
     transform="translate(-113.71125,-65.653182)">
    <path
       d="m 212.23,66.22 c 1.79,-1.35 4.04,0.05 5.83,0.71 7.43,3.07 11.23,11.39 11.29,19.07 -0.35,10.74 -6.63,20.94 -15.85,26.39 -0.88,0.75 -2.42,1.05 -2.62,2.36 -0.25,3.62 -0.03,7.26 -0.26,10.88 6.87,1.59 14.03,-0.16 20.96,0.95 1.1,0.25 1.91,1.35 1.9,2.47 0.34,4.29 0.02,8.6 -0.02,12.9 8.08,3.55 15.74,8.23 21.75,14.77 3.54,4.13 8.12,7.16 11.77,11.16 9.46,10.35 14.73,24.14 15.34,38.09 -0.08,15.28 -6.32,30.31 -16.86,41.34 -3.84,3.68 -8.62,6.1 -12.87,9.22 -5.56,4.71 -11.58,8.97 -18.34,11.78 2.38,3.77 2.56,8.37 1,12.5 0.44,1.21 0.89,2.43 1.35,3.66 21.47,-0.14 42.94,-0.01 64.41,-0.07 1.82,-0.23 4.34,0.5 4.46,2.68 0.29,6.46 -0.06,12.93 0.15,19.4 12.27,-8.04 26.84,-11.91 41.36,-12.9 1.38,-0.15 2.5,0.32 3.37,1.41 0.68,4 0.79,8.07 1.07,12.12 -0.31,0.47 -0.94,1.41 -1.25,1.88 5.27,-0.35 10.53,-1 15.8,-1.3 1.66,-0.35 3.13,1.16 3.21,2.75 0.6,5.62 1.02,11.28 1.23,16.93 -1.24,0.7 -2.44,1.58 -3.89,1.77 -14.85,2.02 -29.76,3.83 -44.75,4.37 -11.82,12.62 -23.63,25.25 -35.4,37.92 -0.57,0.8 -1.77,1.58 -1.09,2.7 2.6,0.16 5.22,-0.09 7.83,0.22 2.15,1.01 1.33,3.73 1.77,5.62 5.42,2.87 8.45,8.84 8.86,14.82 4.37,0.74 8.81,0.36 13.21,0.43 21.18,0.06 42.35,-0.12 63.53,0.09 1.45,-3.87 -0.06,-8.06 1.01,-11.95 0.6,-1.91 2.74,-1.96 4.4,-1.94 26.15,-0.01 52.3,0.04 78.45,-0.02 -0.45,-1.81 -0.87,-3.63 -1.27,-5.45 -2.95,1.01 -5.85,2.77 -9.06,2.48 -2.44,-0.24 -3.89,-2.38 -5.37,-4.05 -16.53,-0.07 -33.06,-0.08 -49.58,-0.12 -4.62,0.07 -9.29,-1.54 -12.74,-4.62 -3.68,-3.92 -4.47,-9.52 -4.51,-14.68 -0.03,-43 -0.05,-86 -0.1,-129 0.06,-3 -0.31,-6.06 0.34,-9.02 1.42,-1.07 3.29,-1.11 5,-1.15 57.66,0.04 115.31,0 172.97,0.02 5.1,0.19 10.34,-0.66 15.31,0.87 0.4,38.26 0.03,76.52 0.31,114.77 10.08,-4.41 21.18,-4.5 31.97,-4.04 0.56,-2.92 0.32,-5.89 0.1,-8.83 -9.69,-2.33 -17.82,-10.54 -19.18,-20.54 -0.78,-7.39 0.12,-14.84 -0.31,-22.25 -1.18,-1.24 -2.87,-1.8 -4.25,-2.76 -5.15,-3.33 -7.15,-10.19 -5.97,-15.98 1.79,-3.75 6.93,-1.87 10.24,-2.37 -0.12,-4.18 0.73,-8.32 2.65,-12.05 -1.51,-0.72 -3.7,-0.76 -4.4,-2.55 -0.98,-7.59 -0.06,-15.69 4.02,-22.31 3.51,-6.23 9.72,-10.65 16.47,-12.76 12.93,-3.79 27.24,-2.71 39.21,3.61 8.64,-6.14 22.01,-6.42 29.7,1.45 5.58,5.81 7.23,14.18 7.24,21.98 -0.01,24.98 0,49.97 -0.01,74.95 -0.25,8.17 4.6,15.21 8.94,21.71 1.13,1.95 -0.81,3.48 -2.01,4.72 -0.8,0 -2.39,-0.02 -3.19,-0.02 2.18,4.33 3.61,9.03 3.49,13.92 4.4,0.09 8.84,-0.32 13.22,0.23 2.71,1.47 1.8,4.89 1.98,7.41 0.14,13.37 -0.4,26.78 0.27,40.12 3.56,0.24 7.15,0.27 10.72,0.05 0.19,-0.19 0.57,-0.58 0.76,-0.78 0.23,-14.82 -0.09,-29.65 0.14,-44.46 -0.2,-1.94 1.55,-3.6 3.46,-3.41 9.68,-0.16 19.37,0.02 29.06,-0.08 1.93,0 4.6,-0.16 5.45,2.06 0.52,3.01 0.23,6.09 0.34,9.14 5.12,1.28 9.82,4.99 11.11,10.28 1.12,5.12 0.77,11.12 -2.93,15.16 -2.06,2.58 -5.22,3.81 -8.22,4.88 0.04,2.29 -0.34,4.67 0.28,6.91 2.57,0.76 5.34,0.28 8,0.39 13.7,0.04 27.4,-0.12 41.1,0.06 2.45,-0.24 3.88,2.67 3.08,4.75 -0.89,1.38 -2.43,2.39 -4.11,2.26 -6.39,0.1 -12.78,-0.03 -19.16,0.03 -26.46,0 -52.92,-0.04 -79.38,0.02 0.01,5.03 -0.01,10.05 0.04,15.08 20.8,0.03 41.61,0.01 62.41,0.01 0.29,-0.24 0.86,-0.72 1.14,-0.97 1.16,1.53 3.27,0.79 4.91,1.01 18.98,-0.02 37.98,-0.12 56.96,0.04 2.12,-0.23 2.75,2.13 3.74,3.51 -1.1,1.69 -2.29,3.94 -4.69,3.5 -23.33,0.07 -46.66,-0.05 -69.98,0.06 -18.17,-0.08 -36.34,-0.04 -54.51,-0.03 -0.02,1.7 -0.02,3.39 -0.02,5.1 16.27,0.06 32.55,0.04 48.82,0.01 13.26,0.13 26.53,-0.15 39.78,0.13 4.46,-0.05 4.41,7.35 -0.08,7 -24.25,0.28 -48.53,-0.16 -72.78,0.28 0.13,54.17 -0.15,108.35 0.14,162.51 15.83,-0.07 31.68,-0.18 47.5,0.04 4.13,0.37 3.36,7.37 -0.83,6.85 -40.34,0.19 -80.68,-0.16 -121.02,0.22 -114.62,-0.12 -229.24,-0.18 -343.87,-0.16 2.27,7.77 4.7,15.49 7.04,23.24 0.42,1.5 0.94,3.68 -0.7,4.66 -1.4,1.45 -3.72,0.6 -4.68,-0.91 -2.57,-7.74 -4.65,-15.64 -7.09,-23.43 -8.94,-0.05 -17.88,0.08 -26.81,-0.05 -1.98,0.11 -4.74,-0.65 -4.46,-3.14 -0.13,-17.64 0.02,-35.29 -0.07,-52.92 0.13,-1.77 -0.33,-4.17 1.66,-5.06 3.61,-0.81 7.38,-0.25 11.06,-0.4 -2.85,-9.37 -5.46,-18.83 -8.73,-28.07 0.55,3.37 1.66,6.94 0.42,10.3 -1.02,2.72 -3.89,4.31 -6.71,4.38 -5.47,0.19 -10.95,0.01 -16.42,0.04 -2.15,6.67 -4.05,13.42 -6.24,20.08 -0.61,2.12 -1.64,4.35 -0.9,6.59 6.43,21.39 12.98,42.76 19.38,64.17 2.62,8.62 5.24,17.23 7.87,25.85 0.62,2.08 1.58,5.03 -0.85,6.37 -3.1,1.42 -4.85,-2.16 -5.22,-4.63 -7.99,-27.08 -16.53,-53.99 -24.32,-81.13 -0.76,17.19 0.11,34.43 -0.45,51.62 -0.05,2.7 -2.93,2.58 -4.9,2.58 -9.7,-0.06 -19.41,0.03 -29.11,-0.04 -2.09,0.32 -3.9,-1.48 -3.52,-3.56 -0.06,-22.03 -0.02,-44.07 -0.02,-66.1 -0.22,-1.68 0.62,-3.79 2.57,-3.8 9.78,-0.32 19.58,-0.02 29.37,-0.13 -3.47,-11.31 -6.74,-22.69 -10.32,-33.97 -1.24,-4.9 -6.03,-8.29 -10.98,-8.38 -4.13,0.35 -8.33,2.43 -10.38,6.17 -1.67,3.16 -2.36,6.72 -3.49,10.09 -10.82,34.98 -21.36,70.04 -32.37,104.96 l -0.17,0.48 c -1.17,4.41 -2.3,8.88 -4.16,13.07 -1.79,2.26 -6.13,0.48 -5.25,-2.47 1.11,-5.6 3.25,-10.93 4.79,-16.41 7.07,-22.89 14.07,-45.8 21.14,-68.68 0.59,-2.06 1.47,-4.25 0.68,-6.38 -1.57,-5.46 -3.33,-10.87 -5.03,-16.29 -4.65,-0.2 -9.32,0.29 -13.94,-0.29 -3.04,-0.33 -5.57,-2.88 -5.96,-5.9 -0.44,-3.51 0.99,-6.93 0.66,-10.44 -1.67,1.35 -3.17,3 -3.73,5.15 -2.61,8.24 -5.13,16.51 -7.65,24.78 3.73,0.37 8.01,-0.98 11.36,0.98 1.41,2.53 0.56,5.67 0.78,8.46 -0.03,15.67 -0.02,31.35 0.01,47.03 -0.06,1.5 0.08,3.19 -1.06,4.37 -3.62,1.23 -7.53,0.58 -11.28,0.72 -6.23,0.12 -12.49,-0.3 -18.71,0.21 -1.19,2.84 -1.86,5.87 -2.81,8.8 -1.52,4.31 -2.21,8.98 -4.36,13.04 -1.95,2.81 -6.52,-0.08 -5.16,-3.07 10.31,-33.98 20.85,-67.9 31.26,-101.86 1.13,-3.68 1.92,-7.63 4.41,-10.69 1.82,-2.46 4.49,-4.06 7.09,-5.58 -1.05,-3.7 -1.28,-7.62 -0.05,-11.31 -4.62,-0.07 -9.31,0.43 -13.88,-0.43 -7.47,-1.6 -13.25,-8.61 -13.46,-16.24 -0.23,-34.68 -0.22,-69.37 -0.07,-104.05 0.09,-1.35 -0.08,-2.87 0.77,-4.03 1.8,-1.11 4.26,-0.13 5.98,-1.3 0.78,-4.18 0.58,-8.42 0.25,-12.63 0.57,-4.11 0.33,-8.23 -0.42,-12.3 -8.97,-0.14 -17.1,-7.66 -17.26,-16.74 -0.22,-13.96 0.01,-27.94 -0.11,-41.9 0.1,-1.78 -0.22,-4.01 1.47,-5.16 1.57,-0.63 3.33,-0.4 4.99,-0.48 18.52,0.13 37.04,-0.12 55.55,0.13 2.15,-4.82 -1.15,-10.04 1.22,-14.91 -8.72,-3.27 -16.68,-8.47 -23.34,-14.96 -1.56,-1.54 -3.35,-2.79 -5.22,-3.9 -3.73,-2.12 -6.09,-5.84 -9.32,-8.57 -3.49,-3.02 -5.16,-7.49 -6.49,-11.78 -2.18,-7.59 -3.33,-15.49 -3.14,-23.39 -0.03,-11.41 1.34,-23.51 7.46,-33.39 3.89,-4.41 8.43,-8.24 12.21,-12.78 7.06,-8.56 16.39,-14.92 26.43,-19.49 0.08,-4.46 -0.38,-8.95 0.27,-13.37 0.07,-1.66 2.25,-1.39 3.38,-1.66 6.47,-0.51 13.08,0.76 19.44,-0.7 -0.13,-3.09 -0.13,-6.17 -0.11,-9.26 -7.81,0.31 -16.21,-2.85 -19.77,-10.23 0.96,-3.99 2,-8.02 4.09,-11.58 1.84,-3.85 4.79,-7.06 6.46,-10.99 -2.5,-1.9 -5.2,-3.78 -6.79,-6.55 -0.74,-2.41 1.35,-4.9 3.86,-4.35 2.81,0.88 4.47,3.64 7.02,5.01 1.3,0.54 2.07,-1.01 2.89,-1.7 3.23,-3.77 7.15,-6.89 11.2,-9.74 m -8.8,16.5 c 0.94,0.5 1.81,1.14 2.72,1.7 0.28,-0.25 0.85,-0.74 1.13,-0.99 1.64,-2.75 3.27,-5.52 4.55,-8.46 -3.35,1.95 -5.67,5.1 -8.4,7.75 m 13.78,-3.67 c -5.72,11.03 -13.28,21.37 -23.2,28.96 0.72,0.35 2.16,1.07 2.88,1.43 10.22,1.85 19.84,-5.53 23.78,-14.55 3.07,-6.29 2.84,-14.33 -1.73,-19.86 -0.58,1.34 -1.18,2.67 -1.73,4.02 m -18.17,9.74 c -2.35,2.81 -4.14,6.04 -5.88,9.26 -0.66,1.2 -1.32,2.39 -1.98,3.59 0.67,-0.48 1.35,-0.95 2.05,-1.41 3.58,-2.72 6.03,-6.53 9.18,-9.68 -1.1,-0.5 -2.1,-2.27 -3.37,-1.76 m -11.3,44.56 c -0.01,1.85 -0.01,3.71 -0.02,5.56 6.11,-0.79 12.08,-2.73 18.31,-2.43 6.68,-0.33 13.13,1.55 19.66,2.61 0.02,-1.93 0.04,-3.85 0.07,-5.77 -12.67,0.03 -25.35,-0.03 -38.02,0.03 M 187,146.1 c -0.98,0.37 -1.95,0.75 -2.91,1.15 -1.05,0.31 -2.09,0.62 -3.14,0.93 4.04,1.74 7.99,3.67 11.67,6.1 1.53,1.26 3.16,-0.22 4.51,-0.98 6.01,-3.91 12.94,-6.03 19.84,-7.76 l -0.14,-1.78 c -9.97,-0.9 -20.26,-0.97 -29.83,2.34 m 28.98,5.88 c -7.21,1.57 -14.07,4.69 -19.98,9.11 -1.34,1.13 -3.38,0.78 -4.65,-0.29 -5.24,-3.82 -11.22,-6.61 -17.47,-8.29 -4.57,1.84 -7.95,5.66 -11.71,8.71 9.55,2.75 13.53,13.07 15.75,21.81 3.99,16.41 3.89,33.88 -0.76,50.14 -1.89,7.44 -6.02,14.53 -12.7,18.61 5.43,4.3 11.15,8.36 17.63,10.95 16.43,7.04 35.95,6.52 51.94,-1.53 1.87,-0.98 3.81,-1.86 5.82,-2.54 -4.61,-1.21 -9.39,-1.81 -13.79,-3.68 -9.28,-4.33 -16.37,-12.36 -20.84,-21.45 -8.06,-17.15 -7.8,-37.83 0.5,-54.85 3.43,-5.99 7.57,-11.74 13.14,-15.91 7.07,-5.54 16.27,-8.08 25.18,-7.34 -1.96,-1.27 -3.98,-2.45 -6.08,-3.48 -7.25,-1.4 -14.74,-1.53 -21.98,0.03 m 7.58,15.47 c -10.34,7.51 -15.98,20.11 -17.3,32.58 -1.49,7.36 0.04,14.8 1.53,22.02 2.47,7.75 6.15,15.37 12.21,20.95 6.78,6.73 16.86,9.97 26.22,8.12 0.44,-0.25 1.31,-0.75 1.74,-1 -2.69,0.47 -5.47,0.7 -8.07,-0.35 -10.67,-2.45 -18.6,-11.12 -23.19,-20.67 -6.23,-13.99 -6.37,-30.63 0.01,-44.59 3.99,-8.58 10.76,-16.27 19.73,-19.76 2.56,-1.08 5.53,-1.16 7.86,-2.76 -7.28,-0.98 -14.88,1.04 -20.74,5.46 m -68.29,1.49 c 4.77,2.06 7.18,7.05 8.96,11.62 4.51,13.41 4.97,27.96 2.74,41.86 -1.66,8.3 -3.89,17.74 -11.63,22.53 1.32,0.41 2.64,0.84 3.95,1.29 6.72,-1.23 9.41,-8.4 11.38,-14.1 4.81,-15.93 4.66,-33.19 0.57,-49.26 -2.03,-5.76 -4.14,-12.41 -10.02,-15.34 -0.85,0.01 -2.54,0.04 -3.39,0.05 -0.86,0.45 -1.7,0.91 -2.56,1.35 m 75.51,6.02 c -10.13,8.87 -13.89,23.12 -12.97,36.2 1.02,8.97 4.16,17.94 10.22,24.78 4.79,5.31 11.65,9.2 18.96,8.98 9.01,0.33 17.07,-5.44 21.97,-12.64 -1.26,1.03 -2.51,2.06 -3.78,3.06 -2.08,0.6 -4.14,1.23 -6.17,1.96 -8.85,0.52 -16.95,-5.73 -20.12,-13.71 -0.69,-1.68 1.17,-2.67 2.06,-3.74 10.35,-0.25 20.72,-0.2 31.07,-0.14 0.78,0.4 1.57,0.8 2.36,1.2 3.28,-10.69 2.69,-22.43 -1.61,-32.74 -3.55,-8.24 -9.92,-15.84 -18.69,-18.63 -8,-2.68 -17.21,-0.32 -23.3,5.42 m -87,7.02 c -4.2,11.66 -4.46,24.39 -3.14,36.6 5.34,-0.04 10.68,-0.22 16.02,0.01 0.71,5.67 -1.78,11.71 -6.57,14.91 -2.84,0.27 -5.19,-1.32 -7.06,-3.29 2.07,4.1 4.18,10.48 10,9.5 3.89,-3.22 5.85,-8.06 7.04,-12.83 3.12,-11.74 2.85,-24.06 1.18,-36 l -0.42,-0.53 c -0.47,-3.23 -1.46,-6.35 -2.56,-9.42 -1.66,-2.94 -3.4,-7.01 -7.31,-7.17 -4.05,0.62 -5.79,4.88 -7.18,8.22 m 466.54,28.87 c -6.48,1.75 -12.34,6.04 -15.26,12.17 -1.52,4.09 -1.97,8.45 -2.47,12.75 5.78,0.19 11.57,-0.29 17.35,-0.14 6.5,0.29 12.37,4.43 15.4,10.09 2.41,5.07 0.03,11.1 3.11,15.92 1.82,3.39 1.34,7.39 1.25,11.09 -0.1,2.92 -2.35,5.29 -2.19,8.25 -0.21,9.65 -0.19,19.31 -0.23,28.97 -0.25,8.57 6.88,16.92 15.62,17.23 13.33,0.31 26.63,-0.72 39.97,-0.51 -3.48,-5.96 -6.61,-12.52 -6.55,-19.57 0.08,-24.71 0.09,-49.41 0.2,-74.11 0.07,-4.82 -0.2,-9.84 -2.39,-14.23 -2.08,-4.46 -6.26,-7.8 -10.99,-9.07 -3.95,-0.84 -7.87,0.53 -11.22,2.56 1.07,2.12 2.83,3.74 4.45,5.44 1.99,2.51 4.21,5.71 1.94,8.81 -1.25,-0.03 -2.6,0.44 -3.77,-0.08 -2.31,-3.01 -4.4,-6.22 -7.27,-8.73 -10.07,-8.59 -24.49,-10.23 -36.95,-6.84 m -221.96,11.57 c -0.01,45.2 -0.05,90.4 0.02,135.6 -0.21,5.08 4.51,9.7 9.57,9.56 17.13,-0.07 34.28,0.23 51.39,-0.15 3.24,-6.18 9.12,-10.41 15.6,-12.69 7.76,-1.75 16.15,-1.83 23.48,1.59 12.49,6.19 26.73,9.11 40.61,6.9 9.14,-1.87 17.93,-5.88 24.65,-12.47 0.47,-0.39 0.95,-0.78 1.44,-1.18 -53.49,-0.22 -107,0.42 -160.48,-0.01 -1.23,-4.09 -0.83,-8.36 -0.86,-12.56 -0.04,-32.34 -0.04,-64.68 -0.06,-97.03 0.01,-3.24 -0.3,-6.57 0.86,-9.66 4.1,-0.72 8.26,-0.42 12.39,-0.46 50.01,-0.02 100.01,-0.04 150.02,-0.15 1.53,-0.1 3,0.35 4.44,0.85 0.15,37.08 0.07,74.17 0.2,111.25 1.98,-2.13 4.26,-3.95 6.49,-5.83 1.13,-0.98 0.51,-2.74 0.72,-4.03 0.07,-14.32 -0.12,-28.64 0.03,-42.95 -0.09,-9.33 -0.06,-18.67 -0.02,-28 -0.04,-4 -0.03,-8 0.01,-12 -0.06,-3.67 -0.04,-7.34 -0.02,-11 -0.01,-5.21 0.42,-10.4 -0.11,-15.6 -60.12,0.04 -120.25,0.01 -180.37,0.02 m -244.73,1.14 c 0.75,2.08 2.06,4.07 4.23,4.86 3,0.33 4.49,-2.81 5.9,-4.86 -3.37,-0.14 -6.76,-0.1 -10.13,0 m 102.63,2.12 c 0.87,0.82 1.71,1.67 2.54,2.54 3.2,2.51 7.46,4.01 11.48,2.71 3.12,-0.73 5.27,-3.24 7.6,-5.25 -7.21,-0.14 -14.42,0.04 -21.62,0 m 153.99,10.18 c -0.04,35.94 -0.01,71.89 -0.02,107.83 51.84,0.03 103.67,-0.05 155.51,0.04 0.53,-4.23 0.47,-8.49 0.36,-12.73 0.18,-31.76 0.04,-63.52 0.16,-95.29 -52.01,-0.01 -104.01,0.03 -156.01,0.15 m 194.18,18.75 c 8.69,0.27 17.39,0.12 26.08,-0.02 0.13,-5.34 -3.26,-10.54 -8.44,-12.06 -3.68,-0.45 -7.51,-0.45 -11.11,0.4 -4.75,1.75 -6.18,7.15 -6.53,11.68 m -9.33,7.07 c -0.03,2.52 1.34,4.47 3.15,6.08 0.02,-1.98 0.03,-3.95 0.03,-5.93 -1.06,-0.05 -2.13,-0.1 -3.18,-0.15 m 9.48,0.29 c 0.02,8.68 -0.02,17.37 -0.07,26.05 3.37,0.28 5.71,-2 7.41,-4.62 2.65,-0.46 4.62,1.13 5.44,3.55 -1.93,5.48 -7.47,8.02 -12.86,8.7 0.06,0.44 0.18,1.31 0.24,1.74 1.53,5.96 5.49,11.43 11.27,13.85 4.44,2.29 9.6,1.24 14.39,1.47 -0.16,-9.67 -0.04,-19.35 -0.07,-29.02 -1.6,-0.16 -3.3,0.19 -4.8,-0.45 -1.86,-1.14 -1.13,-3.52 -0.92,-5.28 0.58,-0.3 1.74,-0.91 2.32,-1.21 0.65,-0.05 1.97,-0.14 2.62,-0.18 4.05,-2.4 3.54,-7.67 2.77,-11.66 -1.01,-2.49 -3.88,-3.32 -6.33,-3.12 -7.14,0.06 -14.28,-0.24 -21.41,0.18 M 201.97,274.1 c -4.89,-0.73 -9.84,-1.02 -14.78,-0.89 0.01,1.03 0.02,3.09 0.03,4.12 14.2,0 28.39,0.04 42.58,-0.02 0.01,-1.36 0.01,-2.72 0.02,-4.08 -3.27,-0.04 -6.54,-0.1 -9.81,0.01 -6.03,0.1 -12,1.73 -18.04,0.86 m -14.82,9.6 c 0.04,1.47 0.08,2.94 0.14,4.41 14.15,0 28.29,0.02 42.44,-0.01 0.04,-1.47 0.08,-2.94 0.11,-4.4 -14.23,-0.06 -28.46,-0.06 -42.69,0 m -62.41,6.9 c -0.01,3.08 -0.01,6.16 0,9.24 8.44,0 16.88,0 25.33,0 4.15,0.04 8.34,-0.31 12.43,0.61 0.48,1.8 0.83,3.65 0.75,5.54 -0.08,8.03 0.06,16.06 -0.06,24.1 0.16,2.17 -2.32,3.25 -4.15,3.13 -11.43,0.03 -22.86,-0.02 -34.29,0.01 1.37,5.04 5.87,9.18 11.25,9.14 37.8,0.04 75.6,-0.06 113.41,0.05 4.7,-4.64 8.93,-9.72 13.55,-14.44 2.87,-3.09 5.96,-6.02 8.47,-9.42 0.38,-6.01 0.03,-12.06 0.14,-18.08 5.52,-0.05 11.03,0.06 16.54,-0.06 3.51,-2.79 7.36,1.11 11.29,0.11 0.01,-3.32 0.01,-6.63 -0.01,-9.93 -21.24,-0.01 -42.48,0.02 -63.72,-0.02 -1.75,1.92 -3.86,3.93 -6.7,3.64 -13.63,0.03 -27.27,0.03 -40.91,0 -2.86,0.3 -4.98,-1.75 -6.8,-3.63 -18.84,0.01 -37.68,0 -56.52,0.01 m 182.74,22.39 c 5.26,4.7 10.25,9.72 15.58,14.36 1.05,-0.05 2.11,-0.1 3.17,-0.15 12.55,-1.05 25.1,-2.1 37.57,-3.95 -0.06,-3.02 -0.2,-6.03 -0.38,-9.04 -13.16,0.7 -26.25,2.4 -39.39,3.17 -3.03,0.23 -3.93,-4.48 -1.37,-5.71 7.34,-2.68 14.87,-4.88 22.21,-7.56 -0.01,-1.36 -0.05,-2.73 -0.12,-4.08 -13.18,1.21 -26.57,4.88 -37.27,12.96 m -181.82,-6.73 c 0.03,6.8 0,13.6 0.02,20.4 10.39,0.18 20.8,0.03 31.2,0.09 0,-6.85 0.01,-13.7 -0.01,-20.54 -10.4,0.04 -20.81,-0.05 -31.21,0.05 m 152.12,0.45 c 0,1.74 0,3.48 0.02,5.23 1.73,-1.7 3.39,-3.47 5.06,-5.23 -1.7,-0.01 -3.39,-0.01 -5.08,0 m 9.93,3.63 c 4.5,5.17 9.99,9.35 14.78,14.24 3.47,3.02 6.51,6.6 10.27,9.26 1.38,-1.21 2.6,-2.59 3.86,-3.91 -8.29,-7.55 -16.35,-15.37 -24.73,-22.81 -1.83,0.12 -2.77,2.23 -4.18,3.22 m -29.72,31.97 c 3.49,3.68 9.68,3.81 13.25,0.18 6.5,-6.82 12.76,-13.87 19.32,-20.64 -2.37,-2.27 -4.82,-4.45 -7.27,-6.63 -8.37,9.09 -16.77,18.15 -25.3,27.09 m 356.38,-23.14 c 0.01,2.72 -0.01,5.43 0.06,8.15 4.47,-0.02 8.95,0 13.43,-0.03 -2.43,-2.32 -4.04,-5.27 -5.9,-8 -2.33,-1.11 -5.11,-0.28 -7.59,-0.12 m -333.79,22.39 c -3.28,3.63 -6.51,7.91 -11.51,9.15 -5.31,1.82 -11.2,-0.03 -15.23,-3.75 -3.94,4.08 -7.79,8.25 -11.66,12.4 4.95,-0.33 10.15,-0.6 14.77,1.58 7.34,2.98 12.41,9.79 14.61,17.25 11.95,-12.93 24.12,-25.66 35.96,-38.69 1.24,-0.99 -0.55,-2.11 -1.14,-2.84 -3.84,-3.52 -7.66,-7.05 -11.41,-10.65 -4.73,5.24 -9.5,10.45 -14.39,15.55 m 306.24,-7.02 c -8.65,1.81 -17.39,5.93 -22.31,13.59 -6.26,9.38 -15.72,16.64 -26.6,19.73 -10.8,2.83 -22.39,3.55 -33.28,0.77 -3.88,2.38 -8.11,5.55 -8.95,10.32 -0.05,4.95 1.16,9.86 2.76,14.52 5.15,0.98 10.33,2.08 15.6,2.08 15.91,0.18 32.23,-1.32 46.97,-7.72 9.23,-4.08 17.91,-11.42 19.88,-21.79 1.12,-0.65 2.37,-1.49 2.28,-3 0.81,-8.74 9.04,-16.12 17.85,-15.72 27.31,-0.21 54.62,0.12 81.93,-0.01 -0.15,-2.89 0.29,-6.13 -1.58,-8.57 -1.9,-3.17 -5.69,-4.67 -9.27,-4.5 -22.01,-0.16 -44.02,-0.54 -66.03,-0.6 -6.42,0.1 -12.94,-0.61 -19.25,0.9 M 142.48,348.6 c -0.04,1.36 -0.06,2.72 -0.08,4.09 32.51,0.06 65.02,0.03 97.53,0.01 1.27,-1.38 2.55,-2.76 3.83,-4.12 -33.76,0 -67.52,-0.05 -101.28,0.02 m 582.03,4.8 c -0.01,12.86 0.01,25.72 -0.01,38.59 8.02,0.24 16.06,0.11 24.09,0.07 -0.06,-12.89 0.03,-25.78 -0.01,-38.66 -8.02,-0.01 -16.05,-0.02 -24.07,0 m -107.9,0.88 c 0.16,42.77 0.07,85.55 0,128.32 1.1,0.12 2.22,0.25 3.35,0.37 26.27,-0.48 52.58,-0.05 78.86,-0.21 0.02,-10.92 -0.01,-21.84 0.03,-32.76 -0.04,-24 -0.04,-47.99 0,-71.99 -0.05,-8.11 0,-16.23 -0.03,-24.34 -24.6,0 -49.2,0.06 -73.8,0.07 -2.81,0.06 -5.66,-0.13 -8.41,0.54 m -27.01,8.52 c -0.18,26.19 0.2,52.39 -0.19,78.57 -3.34,1.31 -6.95,0.84 -10.44,0.89 -14.68,-0.04 -29.36,-0.11 -44.04,-0.1 -5.66,-0.11 -10.75,5.18 -10.58,10.82 -0.14,9.94 -0.12,19.88 -0.21,29.83 28.78,0.01 57.55,0.01 86.33,0.02 0.01,-42.91 0,-85.81 0,-128.72 -4.14,0.09 -8.31,-0.21 -12.43,0.24 -4.29,0.76 -6.93,4.67 -8.44,8.45 m -447.16,-3.53 c 0,1.04 0,3.12 0.01,4.17 2.06,0.04 4.12,0.06 6.19,0.09 1.18,-1.44 2.37,-2.87 3.56,-4.3 -3.26,0 -6.51,-0.01 -9.76,0.04 m 331.2,3.18 c -3.42,4.42 -4.16,10.51 -2.8,15.83 0.9,2.84 4.45,2.54 6.71,3.56 -0.03,-2.64 0,-5.27 0.2,-7.89 1.3,-4.37 3.59,-8.45 7.26,-11.25 -1.89,-0.73 -3.83,-1.38 -5.74,-2.03 -2,-0.05 -4.24,0.13 -5.63,1.78 m -321,7.64 c -0.72,4.94 -1.12,9.93 -1.24,14.93 -0.18,3.8 1.88,7.51 4.88,9.76 4.2,3.13 9.79,2.22 14.68,2.71 18.83,1.38 37.68,2.48 56.52,3.83 -4.87,-6.36 -6.79,-14.81 -4.96,-22.63 -7.89,-0.14 -15.72,-1.08 -23.6,-1.37 -4.98,-0.17 -9.97,-2.39 -12.87,-6.54 -1.97,-2.35 -2.32,-5.53 -3.48,-8.19 -6.19,-0.45 -12.39,-1.06 -18.59,-1.25 -5.18,-0.15 -10.09,3.77 -11.34,8.75 m 303.11,1.07 c 3.56,-1.5 8.33,-2.96 9.12,-7.33 0.2,-0.39 0.61,-1.18 0.82,-1.58 -4.33,1.49 -8.31,4.51 -9.94,8.91 m -266.67,-7.94 c 1.28,4.21 4.93,7.84 9.53,7.87 8.77,0.33 17.49,1.34 26.27,1.52 1.41,-2.55 3.25,-4.82 5.2,-6.97 -13.68,-0.55 -27.31,-2.18 -41,-2.42 m 53.49,2.53 c -8.78,2.29 -15.16,11.23 -14.39,20.28 0,10.9 11.08,20.3 21.85,17.94 8.84,-1.63 15.75,-9.97 15.89,-18.93 0.34,-7.4 -3.93,-14.9 -10.7,-18.04 -3.85,-2.06 -8.47,-2.15 -12.65,-1.25 m 242.6,8.72 c -1.48,5.23 -0.02,10.76 1.41,15.85 1.12,0.21 2.25,0.42 3.38,0.63 -0.57,-4.65 -1.71,-9.27 -1.31,-14 1.37,-4.36 4.17,-7.97 7.29,-11.22 -0.74,-0.11 -2.22,-0.34 -2.96,-0.45 -3.23,2.43 -6.69,5.1 -7.81,9.19 M 755.74,365 c -0.08,5.22 -0.13,10.45 0.08,15.67 6.06,-2.84 6.32,-13.08 -0.08,-15.67 m -613.28,4.66 c -0.02,1.37 -0.06,2.76 0.06,4.14 0.99,0.27 2,0.43 3.01,0.63 0.25,-1.6 0.49,-3.19 0.73,-4.78 -1.27,0 -2.53,0 -3.8,0.01 M 580.55,384 c 0.03,17.22 0.01,34.45 0.02,51.67 0.97,0.14 1.94,-0.23 2.75,-0.74 -0.39,-17.3 -0.01,-34.62 -0.19,-51.92 -0.05,-1.94 0.02,-3.88 0.5,-5.76 -1.46,2 -3.48,4.05 -3.08,6.75 m -309.03,4.06 c 5.67,0.12 11.35,0.08 17.02,0.02 -0.02,-2.6 -0.02,-5.2 -0.02,-7.79 -3.51,-0.02 -7.02,-0.05 -10.52,0.13 -2.24,2.47 -4.82,4.7 -6.48,7.64 M 135.5,380.27 c -0.01,3.04 -0.01,6.09 0,9.13 3.32,0.01 6.65,0 9.98,0.02 -0.22,-2.99 -0.21,-5.99 -0.06,-8.98 -3.31,-0.08 -6.62,-0.18 -9.92,-0.17 m 159.24,7.67 c -0.11,8.86 -0.01,17.71 -0.05,26.57 0.99,-0.29 1.97,-0.58 2.96,-0.85 -0.13,-6.26 0.13,-12.52 -0.12,-18.77 0.01,-2.61 -1.38,-4.87 -2.79,-6.95 m 93.62,0.56 c -0.01,2.24 0,4.48 0.07,6.73 8.06,-0.02 16.12,-0.03 24.19,0.01 0.05,-2.25 0.06,-4.5 0.04,-6.74 -8.1,0.03 -16.2,0.02 -24.3,0 m 31.98,-0.03 c -0.23,2.13 -1.97,6.72 1.53,6.71 20.34,0.09 40.68,0.03 61.03,0.02 -1.21,-1.81 -2.13,-3.87 -3.78,-5.32 -3.77,-1.8 -8.04,-1.31 -12.08,-1.37 -15.57,-0.02 -31.14,0.07 -46.7,-0.04 m 140.91,6.32 c 4.07,0.03 8.19,0.08 12.28,0.05 -0.02,-2.24 -0.04,-4.48 -0.07,-6.72 -3.79,2.71 -7.92,4.89 -12.21,6.67 m -291.09,-0.42 c -0.81,1.78 -1.87,3.56 -1.61,5.6 0.04,19.8 -0.02,39.6 0.03,59.4 7.23,0 14.46,0.04 21.69,-0.02 0.03,-21.64 -0.02,-43.28 0.02,-64.91 -6.71,-0.16 -13.42,-0.05 -20.13,-0.07 m -134.51,1.23 c -0.01,21.54 -0.07,43.08 0.03,64.62 10.91,0.03 21.82,0.01 32.72,0.01 0.02,-18.86 0.01,-37.73 0.01,-56.59 -3.3,-0.28 -6.65,-0.33 -9.9,-1.02 -4.15,-1.04 -7.48,-3.9 -10.24,-7.04 -4.2,0.03 -8.41,0.01 -12.62,0.02 m 168.03,6.79 c 0.07,5.01 -0.09,10.02 0.17,15.03 89.88,0.07 179.75,0 269.63,0.03 0.06,-5.03 0,-10.07 0.05,-15.1 -89.95,-0.02 -179.9,-0.11 -269.85,0.04 m -128.98,1.77 c -0.06,19.6 0.05,39.2 -0.05,58.8 0.32,2.06 -1.62,3.68 -3.6,3.45 -11.85,0.04 -23.71,-0.01 -35.56,0.01 0,3.25 -0.01,6.5 0.04,9.75 50.99,0.01 101.97,0.01 152.96,0.01 0.05,-3.54 0.04,-7.08 0.03,-10.61 -7.49,-0.04 -14.99,0.06 -22.49,-0.03 -2.06,0.13 -3.95,-1.49 -3.6,-3.64 -0.05,-18.97 -0.01,-37.94 -0.02,-56.91 -1.85,1.51 -4.77,2.19 -6.11,4.08 -0.24,17.32 0.67,34.65 0.73,51.98 0.18,1.32 -0.79,2.36 -1.38,3.44 -9.96,0.19 -19.92,0.56 -29.88,0.38 -0.8,-1.48 -1.4,-3.07 -1.25,-4.77 -0.17,-17.61 -0.66,-35.21 -0.86,-52.82 -16.31,-1.13 -32.62,-2.37 -48.96,-3.12 m 54.89,3.44 c 0.08,17.23 0.54,34.44 0.93,51.67 6.93,-0.75 13.88,-0.4 20.82,-0.67 -1.04,-16.06 -0.6,-32.2 -1.08,-48.28 -7.17,1.31 -13.59,-3 -20.67,-2.72 m 65.06,13.92 c 0.06,12.33 0.11,24.67 -0.02,37 0.97,0.65 1.95,1.29 2.94,1.92 0,-13.52 0.01,-27.03 0.02,-40.55 -0.99,0.53 -1.97,1.07 -2.94,1.63 m 9.07,3.05 c -0.02,1.68 -0.03,3.36 -0.04,5.05 89.95,0.12 179.91,0.1 269.87,0.01 -0.03,-1.7 -0.05,-3.39 -0.06,-5.09 -89.93,0.02 -179.85,-0.03 -269.77,0.03 m -0.02,12.54 c -0.02,9.63 0.02,19.25 -0.04,28.87 -0.22,4.79 2.23,9.24 1.86,14.04 0.05,4.48 -2.66,8.47 -2.31,12.99 0.12,24.96 -0.2,49.93 -0.47,74.88 -0.67,4.04 -6.02,2.15 -8.86,2.6 4.67,9.05 7.51,18.93 8.61,29.04 26.18,0 52.36,-0.04 78.55,0.02 1,-0.33 3.68,0.55 3.24,-1.35 0.16,-53.61 -0.14,-107.22 0.14,-160.82 -5.42,-0.98 -10.95,-0.29 -16.42,-0.51 -21.43,0.14 -42.88,-0.25 -64.3,0.24 m 116.99,-0.21 c -0.08,38.03 -0.01,76.05 -0.04,114.08 -0.16,15.71 0.34,31.43 -0.25,47.13 12.51,0.69 25.08,0.4 37.62,0.17 3.65,0.45 6.44,-2.15 9.27,-4 8.16,-5.58 16.34,-11.11 24.6,-16.53 -0.79,-0.76 -1.58,-1.51 -2.35,-2.26 -0.25,-34.5 -0.03,-69 -0.11,-103.5 -0.25,-9.04 3.68,-18.1 10.57,-23.98 6.03,-5.32 14.22,-7.74 22.19,-7.31 1.65,-1.14 3.3,-2.29 4.94,-3.46 -9.68,-1.01 -19.4,0.27 -29.09,-0.34 -25.78,-0.05 -51.57,-0.02 -77.35,0 m 284.82,1.44 c 0.01,16.27 0.07,32.55 -0.03,48.83 -0.37,0.52 -1.1,1.57 -1.47,2.09 -2.8,0.22 -5.6,0.23 -8.38,0.21 0.51,4.56 -1.96,8.44 -3.34,12.52 -0.11,32.47 -0.13,64.95 0.02,97.42 7.11,-0.03 14.23,-0.11 21.35,0.05 0.33,-1.48 0.63,-2.98 0.6,-4.49 -0.08,-47.66 0.05,-95.31 -0.14,-142.97 0.19,-4.59 0.18,-9.21 -0.46,-13.77 -2.72,0.07 -5.44,0.08 -8.15,0.11 M 391.5,599.36 c 7.3,-0.03 14.6,0 21.9,-0.02 0.06,-53.52 0.04,-107.04 0.01,-160.56 -7.3,-0.02 -14.6,0.02 -21.9,-0.02 -0.11,53.53 -0.09,107.07 -0.01,160.6 M 496.51,470.99 c -0.03,33.14 -0.03,66.29 -0.01,99.43 11.25,0.01 22.49,0.12 33.73,-0.02 0.03,-22.86 -0.03,-45.72 0.04,-68.57 -2.08,-3.81 -3.73,-7.89 -3.65,-12.3 -3.23,-0.07 -6.77,0.51 -9.45,-1.71 -3.67,-1.29 -8.01,-2.83 -9.6,-6.72 -0.45,-2.36 1.82,-3.53 3.44,-4.61 1.41,0.8 2.83,1.64 3.98,2.82 0.81,0.23 1.62,0.47 2.45,0.71 0.09,-10.78 -0.29,-21.58 0.27,-32.35 -11.64,1.11 -21.36,11.57 -21.2,23.32 m -201.78,-3.97 c -0.21,5.99 0.29,12 -0.22,17.99 -0.47,4.4 -3.24,8.08 -6.32,11.08 5.69,-2.72 9.75,-8 11.09,-14.14 0.57,-5.34 -1.04,-10.85 -4.55,-14.93 M 135.26,482.4 c 0.54,5.99 5.62,11.35 11.83,11.09 43.3,0.02 86.61,0.03 129.92,-0.01 6.13,0.24 11.36,-5.08 11.73,-11.08 -51.15,-0.11 -102.32,-0.12 -153.48,0 m 398.82,7.04 c -1,5.44 3.42,11.16 9.02,11.11 19.29,0.1 38.59,0 57.88,-0.03 5.64,0.34 9.9,-5.52 9.49,-10.83 -25.46,-0.36 -50.93,-0.15 -76.39,-0.25 m 82.84,0.4 c -0.19,3.73 -0.58,7.54 -2.71,10.73 21.56,-0.07 43.11,0.06 64.67,0 5.72,0.14 10.25,-5.55 9.75,-11.07 -23.9,0.15 -47.83,-0.46 -71.71,0.34 m -345.51,12.69 c 0.09,2.87 -0.42,5.69 -0.89,8.51 1.37,2.84 4.4,4.51 5.74,7.42 2.08,4.36 3.01,9.15 4.28,13.79 0.74,-5.1 -0.55,-10.72 2.43,-15.3 2.69,-4.98 8.26,-7.83 13.85,-7.71 -0.02,-3.77 -0.01,-7.54 -0.03,-11.31 -6.99,5.67 -16.85,7.66 -25.38,4.6 m -109.09,4.71 c 11.88,-0.05 23.76,-0.02 35.64,-0.01 4.22,0.2 7.72,-3.15 12.02,-2.73 4.62,-0.49 8.4,3.23 13,2.74 14.07,-0.06 28.14,0.02 42.21,-0.04 -0.13,-1.51 -0.33,-2.99 -0.5,-4.47 -34.1,0.11 -68.19,0.05 -102.28,0.03 -0.09,1.49 -0.11,2.98 -0.09,4.48 m 375.06,64.03 c 9.66,0.14 19.28,-0.29 28.92,-0.62 -0.08,-20.99 -0.1,-41.98 -0.16,-62.97 -7.4,-0.08 -14.8,0.02 -22.2,-0.04 -2.26,0.04 -4.46,-0.54 -6.61,-1.16 -0.13,21.59 -0.23,43.2 0.05,64.79 m 97.74,-63.38 c 0,25.5 -0.05,50.99 -0.02,76.48 5.64,0.11 11.81,-0.68 16.77,2.64 4.82,2.51 7.46,7.51 9.01,12.51 7.97,-0.04 15.94,0.11 23.91,-0.09 -0.1,-30.8 -0.04,-61.59 -0.03,-92.39 -16.5,1.47 -33.11,-0.02 -49.64,0.85 m -62.39,-0.22 c -0.03,22.13 0.04,44.26 -0.04,66.39 0.33,2.54 -2.49,3.4 -4.47,3.68 0.24,7.52 -0.58,15.11 0.49,22.58 2.78,-2.74 2.98,-7.08 5.86,-9.79 4.89,-5.74 12.85,-6.76 19.94,-6.03 0.07,-25.52 0.02,-51.04 0.03,-76.56 -7.28,0.11 -14.54,-0.44 -21.81,-0.27 m 28.92,0.25 c 0,25.49 0,50.97 0,76.46 8.72,0.06 17.44,0.02 26.16,0.02 -0.01,-25.51 0,-51.03 0,-76.54 -8.72,0.02 -17.44,-0.08 -26.16,0.06 m -439.37,5.51 c -0.03,1.39 -0.05,2.8 -0.06,4.21 10.07,0.09 20.14,0.02 30.2,0.04 0.59,-1.45 1.2,-2.87 1.77,-4.31 -10.64,0.05 -21.27,-0.06 -31.91,0.06 m 63.13,0.01 c 0.65,1.4 1.29,2.82 1.92,4.24 12.58,-0.01 25.16,0.03 37.74,-0.02 -0.31,-1.33 1,-4.25 -1.14,-4.24 -12.84,-0.07 -25.68,-0.09 -38.52,0.02 m 61.73,10.45 c -0.23,9.52 -0.03,19.06 -0.09,28.59 3.22,0.04 6.43,0.06 9.65,0.13 0.01,-12.46 0.23,-24.92 -0.04,-37.37 -4.75,0.15 -9.21,3.76 -9.52,8.65 m -124.9,0.75 c -0.02,1.36 -0.02,2.72 -0.01,4.1 8.95,0.13 17.9,0.06 26.86,0.04 0.41,-1.4 0.83,-2.81 1.27,-4.19 -9.37,0.01 -18.74,-0.08 -28.12,0.05 m 67.08,-0.06 c 0.4,1.4 0.8,2.81 1.22,4.22 11.47,-0.01 22.94,0.03 34.41,-0.02 0.09,-1.38 0.16,-2.75 0.23,-4.12 -11.95,-0.19 -23.91,-0.03 -35.86,-0.08 m -46.12,10.67 c 0.66,1.96 1.35,3.91 2.11,5.83 0.61,-1.95 1.17,-3.91 1.7,-5.89 -1.28,0.02 -2.54,0.04 -3.81,0.06 m 49.27,0.11 c 1.56,4.55 2.75,9.22 4.24,13.8 1.56,-4.61 3.05,-9.25 4.28,-13.96 -2.84,-0.03 -5.68,0 -8.52,0.16 m -89,19.34 c -5.47,16.23 -10,32.75 -15.31,49.03 7.64,0.16 15.28,0.03 22.93,0.08 0.01,-16.36 0.01,-32.72 0,-49.07 -2.54,-0.01 -5.08,-0.01 -7.62,-0.04 m 129.16,0.03 c -0.01,16.36 -0.01,32.72 0,49.08 7.74,-0.04 15.48,0.05 23.22,-0.05 -5.01,-16.31 -9.87,-32.67 -14.82,-49 -2.8,-0.04 -5.6,-0.04 -8.4,-0.03 m -67,4.52 c -0.09,20.42 0,40.84 -0.04,61.26 8.43,0.05 16.86,-0.02 25.29,0.03 0.05,-20.42 0.02,-40.84 0.02,-61.26 -8.42,-0.01 -16.84,0.03 -25.27,-0.03 m 83.23,-0.57 c 0.5,1.9 1.07,3.8 1.71,5.67 2.04,-0.01 4.09,-0.02 6.14,-0.02 0,-1.88 -0.01,-3.75 -0.02,-5.62 -2.62,-0.03 -5.22,-0.05 -7.83,-0.03 m 213.36,20.54 c -8.78,5.91 -17.54,11.85 -26.34,17.73 -0.9,0.51 -1.53,1.33 -1.92,2.27 6.69,-0.6 14.08,1.68 20.13,-2.06 3.63,-1.94 7.5,-3.44 10.97,-5.68 1.56,-0.01 3,0.56 4.38,1.25 0.49,2.11 -0.45,4.85 1.28,6.46 3.91,0.07 7.88,0.37 11.73,-0.5 -0.19,-6.98 -0.02,-13.97 -0.11,-20.96 -5.49,0 -10.97,-0.06 -16.46,-0.01 -1.42,-0.16 -2.54,0.8 -3.66,1.5 m 27.15,0.17 c -0.04,5.41 -0.15,10.83 0.1,16.25 0.29,-0.26 0.87,-0.77 1.15,-1.02 2.85,-0.98 5.48,-2.72 8.48,-3.16 3.82,0.46 2.91,5.08 3.31,7.82 6.07,-0.06 12.14,-0.1 18.21,0.02 0.96,-7.16 0.78,-14.55 0.09,-21.74 -8.89,0.2 -17.78,-0.08 -26.66,0.13 -1.76,-0.12 -3.21,0.94 -4.68,1.7 m 48.35,20.18 c 25.16,0.01 50.33,0.07 75.49,-0.03 -1.28,-4.88 -6.18,-8.4 -11.2,-8.1 -17.95,0.02 -35.9,-0.01 -53.85,0.02 -4.74,0 -9.48,3.35 -10.44,8.11 m -157.79,-0.48 c 6.64,0.92 13.37,0.22 20.06,0.43 7.01,-0.22 14.09,0.53 21.06,-0.51 -6.99,-0.91 -14.03,-0.34 -21.05,-0.47 -6.69,0.14 -13.42,-0.44 -20.07,0.55 z"
       id="path5"
       inkscape:connector-curvature="0"
       style="opacity:1;fill:#040404" />
    <path
       d="m 302.16,118.12 c 6.43,-3.41 13.92,-2.04 20.88,-2.03 30.65,0.08 61.3,0.34 91.95,0.5 24.27,0.35 48.55,-0.21 72.8,0.74 8.56,0.42 15.17,8.31 15.4,16.65 0.15,17.37 -0.23,34.75 -0.42,52.13 -0.04,3.7 -1.03,7.42 -3.1,10.51 -3.09,4.9 -9.01,7.5 -14.69,7.43 -36.66,-0.2 -73.32,-0.51 -109.98,-0.7 -10.62,0.1 -21.27,-0.36 -31.87,0.06 -8.03,4.32 -15.28,10.01 -23.23,14.49 -2.89,1.49 -7.35,-0.55 -7.36,-4.04 -0.33,-3.63 -0.13,-7.28 -0.22,-10.91 -5.84,0.14 -12.06,-1.62 -15.64,-6.54 -4.1,-5.19 -4.14,-12.1 -3.87,-18.39 0.1,-14.34 0.39,-28.67 0.41,-43.01 -0.17,-6.68 2.95,-13.58 8.94,-16.89 m 2.13,5.06 c -3.17,1.82 -4.61,5.32 -5.59,8.66 -0.06,17.75 -0.24,35.49 -0.34,53.23 -0.13,4.27 2.16,8.57 5.8,10.81 4.09,2.5 9.07,1.42 13.6,1.63 0,5.14 -0.04,10.28 0.02,15.42 8.05,-5.03 15.95,-10.31 24,-15.35 46.4,0.32 92.79,0.75 139.19,0.94 3.17,-0.08 6.52,0.43 9.51,-0.92 4.36,-2.03 6.99,-6.88 6.91,-11.62 0.14,-17 0.27,-34 0.32,-51.01 0.42,-6.03 -4.53,-12 -10.62,-12.37 -28.7,-0.54 -57.42,0.01 -86.1,-0.77 -29.32,-0.19 -58.65,-0.26 -87.97,-0.45 -3,-0.11 -6.2,-0.03 -8.73,1.8 z"
       id="path7"
       inkscape:connector-curvature="0"
       style="opacity:1;fill:#040404" />
    <path
       d="m 334.93,144 c 1.93,-2.44 5.21,-4.23 8.11,-2.24 0.38,1.07 0.78,2.14 1.19,3.2 0.11,10.73 0.1,21.46 0.18,32.19 1.74,0.45 3.93,0.84 4.54,2.82 0.96,1.38 -0.47,2.97 -0.65,4.41 -4.32,1.38 -8.91,0.79 -13.36,0.89 -2.42,0.26 -5.13,-1.65 -4.59,-4.3 -0.02,-2.8 3.09,-3.47 5.26,-3.71 -0.01,-7.55 -0.01,-15.09 -0.12,-22.64 -2.37,1.72 -4.2,4.94 -7.43,4.87 -2.09,0.04 -2.76,-2.01 -3.64,-3.47 2.28,-4.94 7.04,-7.99 10.51,-12.02 z"
       id="path9"
       inkscape:connector-curvature="0"
       style="opacity:1;fill:#040404" />
    <path
       d="m 355.58,144.65 c 4.06,-3.12 9.42,-4.31 14.47,-3.89 4.27,0.37 8.8,2.71 10.21,7 2.53,5.78 -0.14,12.75 -5.05,16.36 -4.52,4.15 -11.11,6.75 -12.98,13.12 5.62,0.13 11.25,-0.16 16.88,0.06 3.03,0.02 4.37,4.27 2.37,6.35 -1.31,1.6 -3.66,1.13 -5.48,1.26 -6.32,-0.24 -12.67,0.7 -18.96,0 -3.7,-0.46 -3.81,-4.98 -3.21,-7.82 0.93,-6.86 6.52,-11.58 11.8,-15.39 2.87,-2.27 6.67,-4.71 6.91,-8.72 0.31,-2.52 -2.33,-3.84 -4.42,-4.2 -3.96,-0.24 -7.37,2.38 -11.21,2.7 -3.42,-0.27 -3.86,-5.09 -1.33,-6.83 z"
       id="path11"
       inkscape:connector-curvature="0"
       style="opacity:1;fill:#040404" />
    <path
       d="m 438.04,142.03 c 1.86,-2.85 7.26,-2.1 7.45,1.6 0.38,6.81 0.05,13.66 0.23,20.49 2.24,0.06 5.25,1.09 4.84,3.92 0.32,2.84 -2.78,3.51 -4.78,4.34 -0.23,3.21 0.23,6.45 -0.23,9.65 -1.15,3.64 -7.22,3.27 -7.95,-0.47 -0.4,-3.21 -0.15,-6.45 -0.23,-9.67 -5.13,-0.08 -10.29,0.35 -15.41,-0.1 -2.92,-0.6 -3.77,-4.52 -1.92,-6.63 5.95,-7.75 12.04,-15.39 18,-23.13 m -8.25,22.39 c 2.52,0.02 5.04,0 7.56,-0.04 -0.01,-3.19 -0.02,-6.38 -0.07,-9.58 -2.54,3.18 -5.17,6.28 -7.49,9.62 z"
       id="path13"
       inkscape:connector-curvature="0"
       style="opacity:1;fill:#040404" />
    <path
       d="m 389.5,142.41 c 1.43,-1.5 3.59,-1.14 5.45,-1.23 5.3,0.11 10.62,-0.19 15.93,0.11 3.24,0.31 3.7,5.02 1.62,6.95 -3.02,3.34 -6.25,6.49 -9.29,9.81 3.36,0.65 6.9,1.75 9.21,4.44 4.49,5.59 3.69,14.64 -1.69,19.38 -4.59,3.72 -10.96,4.24 -16.57,3.08 -2.85,-0.69 -6.07,-1.87 -7.5,-4.65 -0.83,-1.62 0.01,-3.46 1.14,-4.68 3.02,-1.42 5.91,0.98 8.8,1.59 2.94,0.56 6.78,0.78 8.74,-1.97 1.45,-2.65 1.62,-6.78 -1.28,-8.52 -3.22,-1.85 -7.19,-0.84 -10.51,-2.35 -1.84,-1.8 -1.39,-4.73 0.24,-6.5 2.63,-3 5.46,-5.81 8.14,-8.76 -3.59,-0.23 -7.32,0.58 -10.83,-0.45 -2.68,-0.59 -3.41,-4.38 -1.6,-6.25 z"
       id="path15"
       inkscape:connector-curvature="0"
       style="opacity:1;fill:#040404" />
    <path
       d="m 698.36,157.39 c 1.49,-0.59 3.01,-1.2 4.66,-1.11 41.35,0.03 82.71,-0.01 124.07,0.03 2.68,-0.4 4.75,2.09 4.28,4.69 -0.02,28.35 0.02,56.71 -0.02,85.06 0.28,1.83 -1.08,3.1 -2.12,4.39 -42.41,-0.09 -84.83,0.02 -127.24,-0.06 -2.47,0.37 -4.36,-2.03 -4.08,-4.36 -0.08,-26.02 0.01,-52.04 -0.04,-78.06 -0.08,-3.54 -0.01,-7.08 0.49,-10.58 m 5.77,87.18 c 40.4,-0.07 80.81,-0.06 121.21,-0.19 -0.11,-27.29 -0.25,-54.59 -0.24,-81.89 -40.22,0 -80.44,0.2 -120.65,0.28 -0.31,27.26 -0.33,54.54 -0.32,81.8 z"
       id="path17"
       inkscape:connector-curvature="0"
       style="opacity:1;fill:#040404" />
    <path
       d="m 710.86,171 c -0.23,-2.27 1.84,-4.17 4.07,-3.76 33.35,0.02 66.7,-0.05 100.05,0.03 1.99,-0.22 3.65,1.81 3.44,3.73 0.05,21.34 0.04,42.68 0.03,64.02 0.31,1.83 -0.82,3.22 -1.89,4.55 -33.88,0.13 -67.76,0.04 -101.63,0.05 -2.14,0.37 -4.25,-1.43 -4.08,-3.62 -0.02,-21.67 -0.04,-43.34 0.01,-65 m 5.85,1.63 c -0.01,18.71 -0.01,37.43 -0.01,56.15 11.64,-10.38 23.14,-20.9 34.8,-31.25 1.27,-1.47 3.64,-1.3 4.92,0.1 7.44,6.57 14.72,13.33 22.21,19.84 3.67,-3.6 7.63,-6.89 11.38,-10.4 2.54,-2.22 4.86,-4.81 7.97,-6.26 5.32,3.36 9.6,8.06 14.52,11.94 0,-13.17 -0.02,-26.34 -0.11,-39.51 -12.47,0 -24.94,0.11 -37.39,-0.39 -19.43,-0.18 -38.87,-0.16 -58.29,-0.22 m 31.55,37.13 c 3.75,0.29 7.52,0.43 11.27,-0.01 -1.87,-1.55 -3.61,-3.26 -5.6,-4.65 -2.1,1.28 -3.81,3.08 -5.67,4.66 m 44.53,4.53 c 3.47,0.11 6.94,0.11 10.42,0 -1.66,-1.73 -3.49,-3.27 -5.31,-4.81 -1.78,1.53 -3.52,3.1 -5.11,4.81 m -52.68,2.83 c -6.04,5.71 -12.29,11.21 -18.5,16.73 21.43,0.05 42.87,-0.12 64.31,-0.21 -5.17,-4.69 -10.51,-9.18 -15.53,-14.03 -1.31,-1.01 -2.43,-2.72 -4.28,-2.51 -8.67,-0.05 -17.34,-0.04 -26,0.02 m 43.83,4.35 c 0.83,2.22 2.96,3.48 4.59,5.07 2.65,2.27 5.07,4.82 7.88,6.9 5.37,0.43 10.79,-0.02 16.18,0.14 -0.02,-4.01 0.02,-8.03 -0.17,-12.03 -9.49,-0.32 -18.99,-0.19 -28.48,-0.08 z"
       id="path19"
       inkscape:connector-curvature="0"
       style="opacity:1;fill:#040404" />
    <path
       d="m 454.69,177.3 c 3.77,-0.17 7.54,-0.17 11.31,-0.46 2.79,-0.05 5.61,-0.08 8.37,0.44 -0.05,2.4 -0.05,4.79 -0.05,7.19 -6.53,0.05 -13.05,0.14 -19.57,0.07 -0.01,-2.41 -0.02,-4.83 -0.06,-7.24 z"
       id="path21"
       inkscape:connector-curvature="0"
       style="opacity:1;fill:#040404" />
    <path
       d="m 721.87,179.03 c 0.67,-2.22 3.27,-1.75 5.07,-1.87 12.7,0.09 25.4,-0.09 38.1,0.09 2.37,-0.22 2.89,2.43 3.55,4.12 -1.22,1.31 -2.5,3.07 -4.54,2.81 -12.69,0.04 -25.38,0.01 -38.07,0.02 -2.76,0.47 -5.83,-2.48 -4.11,-5.17 z"
       id="path23"
       inkscape:connector-curvature="0"
       style="opacity:1;fill:#040404" />
    <path
       d="m 779.33,177.43 c 5.87,-0.53 11.81,-0.2 17.7,-0.19 1.7,-0.15 2.96,1.39 3.29,2.91 0.38,2.3 -2.06,4.18 -4.21,4.04 -5.34,-0.1 -10.72,0.29 -16.02,-0.19 -3.27,-0.43 -3.74,-5.43 -0.76,-6.57 z"
       id="path25"
       inkscape:connector-curvature="0"
       style="opacity:1;fill:#040404" />
    <path
       d="m 252.84,187.61 c 2.52,-1.36 6,-1.83 8.23,0.34 4.01,3.27 3.53,9.86 0.18,13.42 -2.78,1.55 -6.65,1.96 -9.03,-0.52 -2.98,-2.78 -3.39,-7.41 -1.44,-10.89 0.7,-0.77 1.39,-1.55 2.06,-2.35 z"
       id="path27"
       inkscape:connector-curvature="0"
       style="opacity:1;fill:#040404" />
    <path
       d="m 738.69,187.52 c 1.5,-1.14 3.49,-0.76 5.25,-0.87 12.38,0.1 24.77,-0.1 37.15,0.09 4.34,-0.22 4.14,7.25 -0.15,6.89 -13.3,0.08 -26.6,0.1 -39.89,-0.01 -3.15,0.19 -4.49,-4.03 -2.36,-6.1 z"
       id="path29"
       inkscape:connector-curvature="0"
       style="opacity:1;fill:#040404" />
    <path
       d="m 145.62,191.87 c 0.63,-1.54 1.78,-2.78 3.6,-2.5 3.1,2.52 2.7,7.02 2.22,10.57 -0.46,1.78 -1.95,4.86 -4.21,3.25 -0.44,-0.49 -1.32,-1.47 -1.76,-1.96 -0.27,-3.11 -0.67,-6.3 0.15,-9.36 z"
       id="path31"
       inkscape:connector-curvature="0"
       style="opacity:1;fill:#040404" />
    <path
       d="m 501.03,267.99 c 1.16,-2.56 4.11,-2.29 6.31,-1.39 2.35,3.69 -0.84,7.09 -2.5,10.31 -7.02,12.65 -14.07,25.29 -21.13,37.92 -0.99,1.78 -2.46,4.24 -4.9,3.64 -1.99,0.05 -2.83,-2.14 -3.87,-3.45 -6.15,-9.75 -12.73,-19.23 -18.75,-29.06 -2.45,-3.62 3.86,-7.69 6.25,-4.14 5.79,8.26 10.97,16.93 16.64,25.28 7.44,-12.97 14.54,-26.13 21.95,-39.11 z"
       id="path33"
       inkscape:connector-curvature="0"
       style="opacity:1;fill:#040404" />
    <path
       d="m 180.54,304.36 c -0.08,-1.74 1.82,-2.71 3.35,-2.6 22.69,-0.04 45.39,0 68.08,-0.03 1.78,-0.12 4.64,0.25 4.59,2.59 0.26,8.85 0.1,17.73 0.08,26.6 0.25,2.06 -1.65,3.3 -3.54,3.14 -21.7,0.12 -43.39,-0.01 -65.09,0.07 -2.28,0.02 -4.56,-0.18 -6.83,-0.47 -1.16,-3.08 -0.65,-6.41 -0.74,-9.61 0.09,-6.56 -0.15,-13.13 0.1,-19.69 m 67.89,3.3 c 0.01,6.44 -0.04,12.88 0,19.32 -0.85,1.79 3.19,1.91 2.31,-0.07 0.05,-6.43 0.02,-12.86 -0.02,-19.29 -0.57,0.01 -1.72,0.03 -2.29,0.04 m -62.02,20.59 c 18.74,-0.08 37.48,0 56.23,-0.04 0.12,-6.85 0.1,-13.7 0.01,-20.55 -18.75,-0.04 -37.5,0.02 -56.25,-0.03 -0.01,6.87 0.04,13.75 0.01,20.62 z"
       id="path35"
       inkscape:connector-curvature="0"
       style="opacity:1;fill:#040404" />
    <path
       d="m 191.86,311.64 c 0.84,0 2.5,0 3.33,0 2.58,1.22 5.18,3.29 5.3,6.39 0.61,4.9 -5.01,9.18 -9.54,7.05 -3.42,-1.26 -5.18,-5.49 -3.82,-8.84 0.54,-2.37 2.83,-3.47 4.73,-4.6 m 0.71,6.06 c -1.23,1.18 0.82,3.04 1.9,1.73 1.15,-1.19 -0.82,-2.86 -1.9,-1.73 z"
       id="path37"
       inkscape:connector-curvature="0"
       style="opacity:1;fill:#040404" />
    <path
       d="m 642.78,377.78 c 0.34,0.01 1.02,0.04 1.36,0.05 0.53,0.26 1.59,0.78 2.12,1.04 1.06,2.96 1.1,6.11 0.88,9.21 -0.16,1.28 -0.15,2.56 0.05,3.85 -0.01,1.69 -0.06,3.38 -0.1,5.07 0.24,19 0.16,38.01 0.04,57.01 0.05,3.56 1,8.24 -2.74,10.35 -0.46,0 -1.39,0 -1.85,0 -1.39,-1.09 -2.91,-2.44 -2.73,-4.39 -0.06,-26.32 -0.03,-52.64 -0.01,-78.95 0.26,-0.53 0.8,-1.58 1.06,-2.11 0.48,-0.28 1.44,-0.85 1.92,-1.13 z"
       id="path39"
       inkscape:connector-curvature="0"
       style="opacity:1;fill:#040404" />
    <path
       d="m 671.82,377.81 c 0.37,-0.03 1.12,-0.08 1.5,-0.11 1.39,1.04 2.89,2.3 2.55,4.28 0.03,26.03 0.03,52.06 -0.01,78.09 0.36,1.98 -1.17,3.23 -2.54,4.3 -0.38,-0.03 -1.14,-0.09 -1.52,-0.12 -0.5,-0.27 -1.49,-0.82 -1.99,-1.1 -0.26,-0.52 -0.79,-1.56 -1.05,-2.08 0,-26.72 -0.02,-53.43 0.01,-80.14 0.26,-0.51 0.79,-1.55 1.06,-2.07 0.5,-0.26 1.49,-0.79 1.99,-1.05 z"
       id="path41"
       inkscape:connector-curvature="0"
       style="opacity:1;fill:#040404" />
    <path
       d="m 186.91,412.94 c 1.79,-1.12 4.05,-0.61 6.06,-0.75 5.73,0.17 11.48,-0.31 17.19,0.35 0.26,0.61 0.8,1.83 1.07,2.44 -0.19,0.69 -0.57,2.07 -0.75,2.75 -4.09,1.11 -8.35,0.47 -12.51,0.62 -3.87,-0.14 -7.87,0.54 -11.59,-0.82 0.01,-1.54 -0.5,-3.27 0.53,-4.59 z"
       id="path43"
       inkscape:connector-curvature="0"
       style="opacity:1;fill:#040404" />
    <path
       d="m 187.52,426.77 c 6.69,-1.02 13.66,-0.27 20.46,-0.41 3.51,-0.42 4.38,5.43 0.91,6.02 -6.57,0.32 -13.18,0.17 -19.76,0.09 -3.08,0.29 -4.11,-4.33 -1.61,-5.7 z"
       id="path45"
       inkscape:connector-curvature="0"
       style="opacity:1;fill:#040404" />
    <path
       d="m 186.59,441.73 c 1.31,-1.67 3.54,-1.13 5.38,-1.25 5.71,0.13 11.44,-0.19 17.15,0.16 2.79,0.75 2.67,5.65 -0.34,5.92 -6.63,0.23 -13.27,0.13 -19.9,0.05 -2.57,0.15 -3.34,-3 -2.29,-4.88 z"
       id="path47"
       inkscape:connector-curvature="0"
       style="opacity:1;fill:#040404" />
    <path
       d="m 239.64,444.99 c 4.98,-1.54 10.17,4.02 8.23,8.93 -1.47,5.6 -10.37,6.03 -12.76,0.95 -2.06,-3.81 0.27,-8.97 4.53,-9.88 z"
       id="path49"
       inkscape:connector-curvature="0"
       style="opacity:1;fill:#040404" />
    <path
       d="m 186.17,457.97 c -0.38,-2.2 1.92,-3.61 3.87,-3.33 6.35,0.05 12.72,-0.2 19.05,0.14 2.44,0.83 2.09,3.71 1.34,5.63 -6.44,0.88 -12.97,0.25 -19.44,0.45 -1.96,0.17 -5.02,-0.27 -4.82,-2.89 z"
       id="path51"
       inkscape:connector-curvature="0"
       style="opacity:1;fill:#040404" />
  </g>
  <g
     id="#ffffffff"
     transform="translate(-113.71125,-65.653182)">
    <path
       d="m 203.43,82.72 c 2.73,-2.65 5.05,-5.8 8.4,-7.75 -1.28,2.94 -2.91,5.71 -4.55,8.46 -0.28,0.25 -0.85,0.74 -1.13,0.99 -0.91,-0.56 -1.78,-1.2 -2.72,-1.7 z"
       id="path54"
       inkscape:connector-curvature="0"
       style="opacity:1;fill:#ffffff" />
    <path
       d="m 217.21,79.05 c 0.55,-1.35 1.15,-2.68 1.73,-4.02 4.57,5.53 4.8,13.57 1.73,19.86 -3.94,9.02 -13.56,16.4 -23.78,14.55 -0.72,-0.36 -2.16,-1.08 -2.88,-1.43 9.92,-7.59 17.48,-17.93 23.2,-28.96 z"
       id="path56"
       inkscape:connector-curvature="0"
       style="opacity:1;fill:#ffffff" />
    <path
       d="m 199.04,88.79 c 1.27,-0.51 2.27,1.26 3.37,1.76 -3.15,3.15 -5.6,6.96 -9.18,9.68 -0.7,0.46 -1.38,0.93 -2.05,1.41 0.66,-1.2 1.32,-2.39 1.98,-3.59 1.74,-3.22 3.53,-6.45 5.88,-9.26 z"
       id="path58"
       inkscape:connector-curvature="0"
       style="opacity:1;fill:#ffffff" />
    <path
       d="m 304.29,123.18 c 2.53,-1.83 5.73,-1.91 8.73,-1.8 29.32,0.19 58.65,0.26 87.97,0.45 28.68,0.78 57.4,0.23 86.1,0.77 6.09,0.37 11.04,6.34 10.62,12.37 -0.05,17.01 -0.18,34.01 -0.32,51.01 0.08,4.74 -2.55,9.59 -6.91,11.62 -2.99,1.35 -6.34,0.84 -9.51,0.92 -46.4,-0.19 -92.79,-0.62 -139.19,-0.94 -8.05,5.04 -15.95,10.32 -24,15.35 -0.06,-5.14 -0.02,-10.28 -0.02,-15.42 -4.53,-0.21 -9.51,0.87 -13.6,-1.63 -3.64,-2.24 -5.93,-6.54 -5.8,-10.81 0.1,-17.74 0.28,-35.48 0.34,-53.23 0.98,-3.34 2.42,-6.84 5.59,-8.66 M 334.93,144 c -3.47,4.03 -8.23,7.08 -10.51,12.02 0.88,1.46 1.55,3.51 3.64,3.47 3.23,0.07 5.06,-3.15 7.43,-4.87 0.11,7.55 0.11,15.09 0.12,22.64 -2.17,0.24 -5.28,0.91 -5.26,3.71 -0.54,2.65 2.17,4.56 4.59,4.3 4.45,-0.1 9.04,0.49 13.36,-0.89 0.18,-1.44 1.61,-3.03 0.65,-4.41 -0.61,-1.98 -2.8,-2.37 -4.54,-2.82 -0.08,-10.73 -0.07,-21.46 -0.18,-32.19 -0.41,-1.06 -0.81,-2.13 -1.19,-3.2 -2.9,-1.99 -6.18,-0.2 -8.11,2.24 m 20.65,0.65 c -2.53,1.74 -2.09,6.56 1.33,6.83 3.84,-0.32 7.25,-2.94 11.21,-2.7 2.09,0.36 4.73,1.68 4.42,4.2 -0.24,4.01 -4.04,6.45 -6.91,8.72 -5.28,3.81 -10.87,8.53 -11.8,15.39 -0.6,2.84 -0.49,7.36 3.21,7.82 6.29,0.7 12.64,-0.24 18.96,0 1.82,-0.13 4.17,0.34 5.48,-1.26 2,-2.08 0.66,-6.33 -2.37,-6.35 -5.63,-0.22 -11.26,0.07 -16.88,-0.06 1.87,-6.37 8.46,-8.97 12.98,-13.12 4.91,-3.61 7.58,-10.58 5.05,-16.36 -1.41,-4.29 -5.94,-6.63 -10.21,-7 -5.05,-0.42 -10.41,0.77 -14.47,3.89 m 82.46,-2.62 c -5.96,7.74 -12.05,15.38 -18,23.13 -1.85,2.11 -1,6.03 1.92,6.63 5.12,0.45 10.28,0.02 15.41,0.1 0.08,3.22 -0.17,6.46 0.23,9.67 0.73,3.74 6.8,4.11 7.95,0.47 0.46,-3.2 0,-6.44 0.23,-9.65 2,-0.83 5.1,-1.5 4.78,-4.34 0.41,-2.83 -2.6,-3.86 -4.84,-3.92 -0.18,-6.83 0.15,-13.68 -0.23,-20.49 -0.19,-3.7 -5.59,-4.45 -7.45,-1.6 m -48.54,0.38 c -1.81,1.87 -1.08,5.66 1.6,6.25 3.51,1.03 7.24,0.22 10.83,0.45 -2.68,2.95 -5.51,5.76 -8.14,8.76 -1.63,1.77 -2.08,4.7 -0.24,6.5 3.32,1.51 7.29,0.5 10.51,2.35 2.9,1.74 2.73,5.87 1.28,8.52 -1.96,2.75 -5.8,2.53 -8.74,1.97 -2.89,-0.61 -5.78,-3.01 -8.8,-1.59 -1.13,1.22 -1.97,3.06 -1.14,4.68 1.43,2.78 4.65,3.96 7.5,4.65 5.61,1.16 11.98,0.64 16.57,-3.08 5.38,-4.74 6.18,-13.79 1.69,-19.38 -2.31,-2.69 -5.85,-3.79 -9.21,-4.44 3.04,-3.32 6.27,-6.47 9.29,-9.81 2.08,-1.93 1.62,-6.64 -1.62,-6.95 -5.31,-0.3 -10.63,0 -15.93,-0.11 -1.86,0.09 -4.02,-0.27 -5.45,1.23 m 65.19,34.89 c 0.04,2.41 0.05,4.83 0.06,7.24 6.52,0.07 13.04,-0.02 19.57,-0.07 0,-2.4 0,-4.79 0.05,-7.19 -2.76,-0.52 -5.58,-0.49 -8.37,-0.44 -3.77,0.29 -7.54,0.29 -11.31,0.46 z"
       id="path60"
       inkscape:connector-curvature="0"
       style="opacity:1;fill:#ffffff" />
    <path
       d="m 187.74,133.35 c 12.67,-0.06 25.35,0 38.02,-0.03 -0.03,1.92 -0.05,3.84 -0.07,5.77 -6.53,-1.06 -12.98,-2.94 -19.66,-2.61 -6.23,-0.3 -12.2,1.64 -18.31,2.43 0.01,-1.85 0.01,-3.71 0.02,-5.56 z"
       id="path62"
       inkscape:connector-curvature="0"
       style="opacity:1;fill:#ffffff" />
    <path
       d="m 187,146.1 c 9.57,-3.31 19.86,-3.24 29.83,-2.34 l 0.14,1.78 c -6.9,1.73 -13.83,3.85 -19.84,7.76 -1.35,0.76 -2.98,2.24 -4.51,0.98 -3.68,-2.43 -7.63,-4.36 -11.67,-6.1 1.05,-0.31 2.09,-0.62 3.14,-0.93 0.96,-0.4 1.93,-0.78 2.91,-1.15 z"
       id="path64"
       inkscape:connector-curvature="0"
       style="opacity:1;fill:#ffffff" />
    <path
       d="m 215.98,151.98 c 7.24,-1.56 14.73,-1.43 21.98,-0.03 2.1,1.03 4.12,2.21 6.08,3.48 -8.91,-0.74 -18.11,1.8 -25.18,7.34 -5.57,4.17 -9.71,9.92 -13.14,15.91 -8.3,17.02 -8.56,37.7 -0.5,54.85 4.47,9.09 11.56,17.12 20.84,21.45 4.4,1.87 9.18,2.47 13.79,3.68 -2.01,0.68 -3.95,1.56 -5.82,2.54 -15.99,8.05 -35.51,8.57 -51.94,1.53 -6.48,-2.59 -12.2,-6.65 -17.63,-10.95 6.68,-4.08 10.81,-11.17 12.7,-18.61 4.65,-16.26 4.75,-33.73 0.76,-50.14 -2.22,-8.74 -6.2,-19.06 -15.75,-21.81 3.76,-3.05 7.14,-6.87 11.71,-8.71 6.25,1.68 12.23,4.47 17.47,8.29 1.27,1.07 3.31,1.42 4.65,0.29 5.91,-4.42 12.77,-7.54 19.98,-9.11 z"
       id="path66"
       inkscape:connector-curvature="0"
       style="opacity:1;fill:#ffffff" />
    <path
       d="m 429.79,164.42 c 2.32,-3.34 4.95,-6.44 7.49,-9.62 0.05,3.2 0.06,6.39 0.07,9.58 -2.52,0.04 -5.04,0.06 -7.56,0.04 z"
       id="path68"
       inkscape:connector-curvature="0"
       style="opacity:1;fill:#ffffff" />
    <path
       d="m 223.56,167.45 c 5.86,-4.42 13.46,-6.44 20.74,-5.46 -2.33,1.6 -5.3,1.68 -7.86,2.76 -8.97,3.49 -15.74,11.18 -19.73,19.76 -6.38,13.96 -6.24,30.6 -0.01,44.59 4.59,9.55 12.52,18.22 23.19,20.67 2.6,1.05 5.38,0.82 8.07,0.35 -0.43,0.25 -1.3,0.75 -1.74,1 -9.36,1.85 -19.44,-1.39 -26.22,-8.12 -6.06,-5.58 -9.74,-13.2 -12.21,-20.95 -1.49,-7.22 -3.02,-14.66 -1.53,-22.02 1.32,-12.47 6.96,-25.07 17.3,-32.58 z"
       id="path70"
       inkscape:connector-curvature="0"
       style="opacity:1;fill:#ffffff" />
    <path
       d="m 704.13,244.57 c -0.01,-27.26 0.01,-54.54 0.32,-81.8 40.21,-0.08 80.43,-0.28 120.65,-0.28 -0.01,27.3 0.13,54.6 0.24,81.89 -40.4,0.13 -80.81,0.12 -121.21,0.19 M 710.86,171 c -0.05,21.66 -0.03,43.33 -0.01,65 -0.17,2.19 1.94,3.99 4.08,3.62 33.87,-0.01 67.75,0.08 101.63,-0.05 1.07,-1.33 2.2,-2.72 1.89,-4.55 0.01,-21.34 0.02,-42.68 -0.03,-64.02 0.21,-1.92 -1.45,-3.95 -3.44,-3.73 -33.35,-0.08 -66.7,-0.01 -100.05,-0.03 -2.23,-0.41 -4.3,1.49 -4.07,3.76 z"
       id="path72"
       inkscape:connector-curvature="0"
       style="opacity:1;fill:#ffffff" />
    <path
       d="m 155.27,168.94 c 0.86,-0.44 1.7,-0.9 2.56,-1.35 0.85,-0.01 2.54,-0.04 3.39,-0.05 5.88,2.93 7.99,9.58 10.02,15.34 4.09,16.07 4.24,33.33 -0.57,49.26 -1.97,5.7 -4.66,12.87 -11.38,14.1 -1.31,-0.45 -2.63,-0.88 -3.95,-1.29 7.74,-4.79 9.97,-14.23 11.63,-22.53 2.23,-13.9 1.77,-28.45 -2.74,-41.86 -1.78,-4.57 -4.19,-9.56 -8.96,-11.62 z"
       id="path74"
       inkscape:connector-curvature="0"
       style="opacity:1;fill:#ffffff" />
    <path
       d="m 230.78,174.96 c 6.09,-5.74 15.3,-8.1 23.3,-5.42 8.77,2.79 15.14,10.39 18.69,18.63 4.3,10.31 4.89,22.05 1.61,32.74 -0.79,-0.4 -1.58,-0.8 -2.36,-1.2 -10.35,-0.06 -20.72,-0.11 -31.07,0.14 -0.89,1.07 -2.75,2.06 -2.06,3.74 3.17,7.98 11.27,14.23 20.12,13.71 2.03,-0.73 4.09,-1.36 6.17,-1.96 1.27,-1 2.52,-2.03 3.78,-3.06 -4.9,7.2 -12.96,12.97 -21.97,12.64 -7.31,0.22 -14.17,-3.67 -18.96,-8.98 -6.06,-6.84 -9.2,-15.81 -10.22,-24.78 -0.92,-13.08 2.84,-27.33 12.97,-36.2 m 22.06,12.65 c -0.67,0.8 -1.36,1.58 -2.06,2.35 -1.95,3.48 -1.54,8.11 1.44,10.89 2.38,2.48 6.25,2.07 9.03,0.52 3.35,-3.56 3.83,-10.15 -0.18,-13.42 -2.23,-2.17 -5.71,-1.7 -8.23,-0.34 z"
       id="path76"
       inkscape:connector-curvature="0"
       style="opacity:1;fill:#ffffff" />
    <path
       d="m 716.71,172.63 c 19.42,0.06 38.86,0.04 58.29,0.22 12.45,0.5 24.92,0.39 37.39,0.39 0.09,13.17 0.11,26.34 0.11,39.51 -4.92,-3.88 -9.2,-8.58 -14.52,-11.94 -3.11,1.45 -5.43,4.04 -7.97,6.26 -3.75,3.51 -7.71,6.8 -11.38,10.4 -7.49,-6.51 -14.77,-13.27 -22.21,-19.84 -1.28,-1.4 -3.65,-1.57 -4.92,-0.1 -11.66,10.35 -23.16,20.87 -34.8,31.25 0,-18.72 0,-37.44 0.01,-56.15 m 5.16,6.4 c -1.72,2.69 1.35,5.64 4.11,5.17 12.69,-0.01 25.38,0.02 38.07,-0.02 2.04,0.26 3.32,-1.5 4.54,-2.81 -0.66,-1.69 -1.18,-4.34 -3.55,-4.12 -12.7,-0.18 -25.4,0 -38.1,-0.09 -1.8,0.12 -4.4,-0.35 -5.07,1.87 m 57.46,-1.6 c -2.98,1.14 -2.51,6.14 0.76,6.57 5.3,0.48 10.68,0.09 16.02,0.19 2.15,0.14 4.59,-1.74 4.21,-4.04 -0.33,-1.52 -1.59,-3.06 -3.29,-2.91 -5.89,-0.01 -11.83,-0.34 -17.7,0.19 m -40.64,10.09 c -2.13,2.07 -0.79,6.29 2.36,6.1 13.29,0.11 26.59,0.09 39.89,0.01 4.29,0.36 4.49,-7.11 0.15,-6.89 -12.38,-0.19 -24.77,0.01 -37.15,-0.09 -1.76,0.11 -3.75,-0.27 -5.25,0.87 z"
       id="path78"
       inkscape:connector-curvature="0"
       style="opacity:1;fill:#ffffff" />
    <path
       d="m 143.78,181.98 c 1.39,-3.34 3.13,-7.6 7.18,-8.22 3.91,0.16 5.65,4.23 7.31,7.17 1.1,3.07 2.09,6.19 2.56,9.42 l 0.42,0.53 c 1.67,11.94 1.94,24.26 -1.18,36 -1.19,4.77 -3.15,9.61 -7.04,12.83 -5.82,0.98 -7.93,-5.4 -10,-9.5 1.87,1.97 4.22,3.56 7.06,3.29 4.79,-3.2 7.28,-9.24 6.57,-14.91 -5.34,-0.23 -10.68,-0.05 -16.02,-0.01 -1.32,-12.21 -1.06,-24.94 3.14,-36.6 m 1.84,9.89 c -0.82,3.06 -0.42,6.25 -0.15,9.36 0.44,0.49 1.32,1.47 1.76,1.96 2.26,1.61 3.75,-1.47 4.21,-3.25 0.48,-3.55 0.88,-8.05 -2.22,-10.57 -1.82,-0.28 -2.97,0.96 -3.6,2.5 z"
       id="path80"
       inkscape:connector-curvature="0"
       style="opacity:1;fill:#ffffff" />
    <path
       d="m 748.26,209.76 c 1.86,-1.58 3.57,-3.38 5.67,-4.66 1.99,1.39 3.73,3.1 5.6,4.65 -3.75,0.44 -7.52,0.3 -11.27,0.01 z"
       id="path82"
       inkscape:connector-curvature="0"
       style="opacity:1;fill:#ffffff" />
    <path
       d="m 792.79,214.29 c 1.59,-1.71 3.33,-3.28 5.11,-4.81 1.82,1.54 3.65,3.08 5.31,4.81 -3.48,0.11 -6.95,0.11 -10.42,0 z"
       id="path84"
       inkscape:connector-curvature="0"
       style="opacity:1;fill:#ffffff" />
    <path
       d="m 610.32,210.85 c 12.46,-3.39 26.88,-1.75 36.95,6.84 2.87,2.51 4.96,5.72 7.27,8.73 1.17,0.52 2.52,0.05 3.77,0.08 2.27,-3.1 0.05,-6.3 -1.94,-8.81 -1.62,-1.7 -3.38,-3.32 -4.45,-5.44 3.35,-2.03 7.27,-3.4 11.22,-2.56 4.73,1.27 8.91,4.61 10.99,9.07 2.19,4.39 2.46,9.41 2.39,14.23 -0.11,24.7 -0.12,49.4 -0.2,74.11 -0.06,7.05 3.07,13.61 6.55,19.57 -13.34,-0.21 -26.64,0.82 -39.97,0.51 -8.74,-0.31 -15.87,-8.66 -15.62,-17.23 0.04,-9.66 0.02,-19.32 0.23,-28.97 -0.16,-2.96 2.09,-5.33 2.19,-8.25 0.09,-3.7 0.57,-7.7 -1.25,-11.09 -3.08,-4.82 -0.7,-10.85 -3.11,-15.92 -3.03,-5.66 -8.9,-9.8 -15.4,-10.09 -5.78,-0.15 -11.57,0.33 -17.35,0.14 0.5,-4.3 0.95,-8.66 2.47,-12.75 2.92,-6.13 8.78,-10.42 15.26,-12.17 z"
       id="path86"
       inkscape:connector-curvature="0"
       style="opacity:1;fill:#ffffff" />
    <path
       d="m 740.11,217.12 c 8.66,-0.06 17.33,-0.07 26,-0.02 1.85,-0.21 2.97,1.5 4.28,2.51 5.02,4.85 10.36,9.34 15.53,14.03 -21.44,0.09 -42.88,0.26 -64.31,0.21 6.21,-5.52 12.46,-11.02 18.5,-16.73 z"
       id="path88"
       inkscape:connector-curvature="0"
       style="opacity:1;fill:#ffffff" />
    <path
       d="m 783.94,221.47 c 9.49,-0.11 18.99,-0.24 28.48,0.08 0.19,4 0.15,8.02 0.17,12.03 -5.39,-0.16 -10.81,0.29 -16.18,-0.14 -2.81,-2.08 -5.23,-4.63 -7.88,-6.9 -1.63,-1.59 -3.76,-2.85 -4.59,-5.07 z"
       id="path90"
       inkscape:connector-curvature="0"
       style="opacity:1;fill:#ffffff" />
    <path
       d="m 388.36,222.42 c 60.12,-0.01 120.25,0.02 180.37,-0.02 0.53,5.2 0.1,10.39 0.11,15.6 -0.02,3.66 -0.04,7.33 0.02,11 -0.04,4 -0.05,8 -0.01,12 -0.04,9.33 -0.07,18.67 0.02,28 -0.15,14.31 0.04,28.63 -0.03,42.95 -0.21,1.29 0.41,3.05 -0.72,4.03 -2.23,1.88 -4.51,3.7 -6.49,5.83 -0.13,-37.08 -0.05,-74.17 -0.2,-111.25 -1.44,-0.5 -2.91,-0.95 -4.44,-0.85 -50.01,0.11 -100.01,0.13 -150.02,0.15 -4.13,0.04 -8.29,-0.26 -12.39,0.46 -1.16,3.09 -0.85,6.42 -0.86,9.66 0.02,32.35 0.02,64.69 0.06,97.03 0.03,4.2 -0.37,8.47 0.86,12.56 53.48,0.43 106.99,-0.21 160.48,0.01 -0.49,0.4 -0.97,0.79 -1.44,1.18 -6.72,6.59 -15.51,10.6 -24.65,12.47 -13.88,2.21 -28.12,-0.71 -40.61,-6.9 -7.33,-3.42 -15.72,-3.34 -23.48,-1.59 -6.48,2.28 -12.36,6.51 -15.6,12.69 -17.11,0.38 -34.26,0.08 -51.39,0.15 -5.06,0.14 -9.78,-4.48 -9.57,-9.56 -0.07,-45.2 -0.03,-90.4 -0.02,-135.6 z"
       id="path92"
       inkscape:connector-curvature="0"
       style="opacity:1;fill:#ffffff" />
    <path
       d="m 143.63,223.56 c 3.37,-0.1 6.76,-0.14 10.13,0 -1.41,2.05 -2.9,5.19 -5.9,4.86 -2.17,-0.79 -3.48,-2.78 -4.23,-4.86 z"
       id="path94"
       inkscape:connector-curvature="0"
       style="opacity:1;fill:#ffffff" />
    <path
       d="m 246.26,225.68 c 7.2,0.04 14.41,-0.14 21.62,0 -2.33,2.01 -4.48,4.52 -7.6,5.25 -4.02,1.3 -8.28,-0.2 -11.48,-2.71 -0.83,-0.87 -1.67,-1.72 -2.54,-2.54 z"
       id="path96"
       inkscape:connector-curvature="0"
       style="opacity:1;fill:#ffffff" />
    <path
       d="m 400.25,235.86 c 52,-0.12 104,-0.16 156.01,-0.15 -0.12,31.77 0.02,63.53 -0.16,95.29 0.11,4.24 0.17,8.5 -0.36,12.73 -51.84,-0.09 -103.67,-0.01 -155.51,-0.04 0.01,-35.94 -0.02,-71.89 0.02,-107.83 m 100.78,32.13 c -7.41,12.98 -14.51,26.14 -21.95,39.11 -5.67,-8.35 -10.85,-17.02 -16.64,-25.28 -2.39,-3.55 -8.7,0.52 -6.25,4.14 6.02,9.83 12.6,19.31 18.75,29.06 1.04,1.31 1.88,3.5 3.87,3.45 2.44,0.6 3.91,-1.86 4.9,-3.64 7.06,-12.63 14.11,-25.27 21.13,-37.92 1.66,-3.22 4.85,-6.62 2.5,-10.31 -2.2,-0.9 -5.15,-1.17 -6.31,1.39 z"
       id="path98"
       inkscape:connector-curvature="0"
       style="opacity:1;fill:#ffffff" />
    <path
       d="m 594.43,254.61 c 0.35,-4.53 1.78,-9.93 6.53,-11.68 3.6,-0.85 7.43,-0.85 11.11,-0.4 5.18,1.52 8.57,6.72 8.44,12.06 -8.69,0.14 -17.39,0.29 -26.08,0.02 z"
       id="path100"
       inkscape:connector-curvature="0"
       style="opacity:1;fill:#ffffff" />
    <path
       d="m 594.58,261.97 c 7.13,-0.42 14.27,-0.12 21.41,-0.18 2.45,-0.2 5.32,0.63 6.33,3.12 0.77,3.99 1.28,9.26 -2.77,11.66 -0.65,0.04 -1.97,0.13 -2.62,0.18 -0.58,0.3 -1.74,0.91 -2.32,1.21 -0.21,1.76 -0.94,4.14 0.92,5.28 1.5,0.64 3.2,0.29 4.8,0.45 0.03,9.67 -0.09,19.35 0.07,29.02 -4.79,-0.23 -9.95,0.82 -14.39,-1.47 -5.78,-2.42 -9.74,-7.89 -11.27,-13.85 -0.06,-0.43 -0.18,-1.3 -0.24,-1.74 5.39,-0.68 10.93,-3.22 12.86,-8.7 -0.82,-2.42 -2.79,-4.01 -5.44,-3.55 -1.7,2.62 -4.04,4.9 -7.41,4.62 0.05,-8.68 0.09,-17.37 0.07,-26.05 z"
       id="path102"
       inkscape:connector-curvature="0"
       style="opacity:1;fill:#ffffff" />
    <path
       d="m 201.97,274.1 c 6.04,0.87 12.01,-0.76 18.04,-0.86 3.27,-0.11 6.54,-0.05 9.81,-0.01 -0.01,1.36 -0.01,2.72 -0.02,4.08 -14.19,0.06 -28.38,0.02 -42.58,0.02 -0.01,-1.03 -0.02,-3.09 -0.03,-4.12 4.94,-0.13 9.89,0.16 14.78,0.89 z"
       id="path104"
       inkscape:connector-curvature="0"
       style="opacity:1;fill:#ffffff" />
    <path
       d="m 187.15,283.7 c 14.23,-0.06 28.46,-0.06 42.69,0 -0.03,1.46 -0.07,2.93 -0.11,4.4 -14.15,0.03 -28.29,0.01 -42.44,0.01 -0.06,-1.47 -0.1,-2.94 -0.14,-4.41 z"
       id="path106"
       inkscape:connector-curvature="0"
       style="opacity:1;fill:#ffffff" />
    <path
       d="m 124.74,290.6 c 18.84,-0.01 37.68,0 56.52,-0.01 1.82,1.88 3.94,3.93 6.8,3.63 13.64,0.03 27.28,0.03 40.91,0 2.84,0.29 4.95,-1.72 6.7,-3.64 21.24,0.04 42.48,0.01 63.72,0.02 0.02,3.3 0.02,6.61 0.01,9.93 -3.93,1 -7.78,-2.9 -11.29,-0.11 -5.51,0.12 -11.02,0.01 -16.54,0.06 -0.11,6.02 0.24,12.07 -0.14,18.08 -2.51,3.4 -5.6,6.33 -8.47,9.42 -4.62,4.72 -8.85,9.8 -13.55,14.44 -37.81,-0.11 -75.61,-0.01 -113.41,-0.05 -5.38,0.04 -9.88,-4.1 -11.25,-9.14 11.43,-0.03 22.86,0.02 34.29,-0.01 1.83,0.12 4.31,-0.96 4.15,-3.13 0.12,-8.04 -0.02,-16.07 0.06,-24.1 0.08,-1.89 -0.27,-3.74 -0.75,-5.54 -4.09,-0.92 -8.28,-0.57 -12.43,-0.61 -8.45,0 -16.89,0 -25.33,0 -0.01,-3.08 -0.01,-6.16 0,-9.24 m 55.8,13.76 c -0.25,6.56 -0.01,13.13 -0.1,19.69 0.09,3.2 -0.42,6.53 0.74,9.61 2.27,0.29 4.55,0.49 6.83,0.47 21.7,-0.08 43.39,0.05 65.09,-0.07 1.89,0.16 3.79,-1.08 3.54,-3.14 0.02,-8.87 0.18,-17.75 -0.08,-26.6 0.05,-2.34 -2.81,-2.71 -4.59,-2.59 -22.69,0.03 -45.39,-0.01 -68.08,0.03 -1.53,-0.11 -3.43,0.86 -3.35,2.6 z"
       id="path108"
       inkscape:connector-curvature="0"
       style="opacity:1;fill:#ffffff" />
    <path
       d="m 307.48,312.99 c 10.7,-8.08 24.09,-11.75 37.27,-12.96 0.07,1.35 0.11,2.72 0.12,4.08 -7.34,2.68 -14.87,4.88 -22.21,7.56 -2.56,1.23 -1.66,5.94 1.37,5.71 13.14,-0.77 26.23,-2.47 39.39,-3.17 0.18,3.01 0.32,6.02 0.38,9.04 -12.47,1.85 -25.02,2.9 -37.57,3.95 -1.06,0.05 -2.12,0.1 -3.17,0.15 -5.33,-4.64 -10.32,-9.66 -15.58,-14.36 z"
       id="path110"
       inkscape:connector-curvature="0"
       style="opacity:1;fill:#ffffff" />
    <path
       d="m 125.66,306.26 c 10.4,-0.1 20.81,-0.01 31.21,-0.05 0.02,6.84 0.01,13.69 0.01,20.54 -10.4,-0.06 -20.81,0.09 -31.2,-0.09 -0.02,-6.8 0.01,-13.6 -0.02,-20.4 z"
       id="path112"
       inkscape:connector-curvature="0"
       style="opacity:1;fill:#ffffff" />
    <path
       d="m 277.78,306.71 c 1.69,-0.01 3.38,-0.01 5.08,0 -1.67,1.76 -3.33,3.53 -5.06,5.23 -0.02,-1.75 -0.02,-3.49 -0.02,-5.23 z"
       id="path114"
       inkscape:connector-curvature="0"
       style="opacity:1;fill:#ffffff" />
    <path
       d="m 248.43,307.66 c 0.57,-0.01 1.72,-0.03 2.29,-0.04 0.04,6.43 0.07,12.86 0.02,19.29 0.88,1.98 -3.16,1.86 -2.31,0.07 -0.04,-6.44 0.01,-12.88 0,-19.32 z"
       id="path116"
       inkscape:connector-curvature="0"
       style="opacity:1;fill:#ffffff" />
    <path
       d="m 287.71,310.34 c 1.41,-0.99 2.35,-3.1 4.18,-3.22 8.38,7.44 16.44,15.26 24.73,22.81 -1.26,1.32 -2.48,2.7 -3.86,3.91 -3.76,-2.66 -6.8,-6.24 -10.27,-9.26 -4.79,-4.89 -10.28,-9.07 -14.78,-14.24 z"
       id="path118"
       inkscape:connector-curvature="0"
       style="opacity:1;fill:#ffffff" />
    <path
       d="m 186.41,328.25 c 0.03,-6.87 -0.02,-13.75 -0.01,-20.62 18.75,0.05 37.5,-0.01 56.25,0.03 0.09,6.85 0.11,13.7 -0.01,20.55 -18.75,0.04 -37.49,-0.04 -56.23,0.04 m 5.45,-16.61 c -1.9,1.13 -4.19,2.23 -4.73,4.6 -1.36,3.35 0.4,7.58 3.82,8.84 4.53,2.13 10.15,-2.15 9.54,-7.05 -0.12,-3.1 -2.72,-5.17 -5.3,-6.39 -0.83,0 -2.49,0 -3.33,0 z"
       id="path120"
       inkscape:connector-curvature="0"
       style="opacity:1;fill:#ffffff" />
    <path
       d="m 257.99,342.31 c 8.53,-8.94 16.93,-18 25.3,-27.09 2.45,2.18 4.9,4.36 7.27,6.63 -6.56,6.77 -12.82,13.82 -19.32,20.64 -3.57,3.63 -9.76,3.5 -13.25,-0.18 z"
       id="path122"
       inkscape:connector-curvature="0"
       style="opacity:1;fill:#ffffff" />
    <path
       d="m 192.57,317.7 c 1.08,-1.13 3.05,0.54 1.9,1.73 -1.08,1.31 -3.13,-0.55 -1.9,-1.73 z"
       id="path124"
       inkscape:connector-curvature="0"
       style="opacity:1;fill:#ffffff" />
    <path
       d="m 614.37,319.17 c 2.48,-0.16 5.26,-0.99 7.59,0.12 1.86,2.73 3.47,5.68 5.9,8 -4.48,0.03 -8.96,0.01 -13.43,0.03 -0.07,-2.72 -0.05,-5.43 -0.06,-8.15 z"
       id="path126"
       inkscape:connector-curvature="0"
       style="opacity:1;fill:#ffffff" />
    <path
       d="m 280.58,341.56 c 4.89,-5.1 9.66,-10.31 14.39,-15.55 3.75,3.6 7.57,7.13 11.41,10.65 0.59,0.73 2.38,1.85 1.14,2.84 -11.84,13.03 -24.01,25.76 -35.96,38.69 -2.2,-7.46 -7.27,-14.27 -14.61,-17.25 -4.62,-2.18 -9.82,-1.91 -14.77,-1.58 3.87,-4.15 7.72,-8.32 11.66,-12.4 4.03,3.72 9.92,5.57 15.23,3.75 5,-1.24 8.23,-5.52 11.51,-9.15 z"
       id="path128"
       inkscape:connector-curvature="0"
       style="opacity:1;fill:#ffffff" />
    <path
       d="m 586.82,334.54 c 6.31,-1.51 12.83,-0.8 19.25,-0.9 22.01,0.06 44.02,0.44 66.03,0.6 3.58,-0.17 7.37,1.33 9.27,4.5 1.87,2.44 1.43,5.68 1.58,8.57 -27.31,0.13 -54.62,-0.2 -81.93,0.01 -8.81,-0.4 -17.04,6.98 -17.85,15.72 0.09,1.51 -1.16,2.35 -2.28,3 -1.97,10.37 -10.65,17.71 -19.88,21.79 -14.74,6.4 -31.06,7.9 -46.97,7.72 -5.27,0 -10.45,-1.1 -15.6,-2.08 -1.6,-4.66 -2.81,-9.57 -2.76,-14.52 0.84,-4.77 5.07,-7.94 8.95,-10.32 10.89,2.78 22.48,2.06 33.28,-0.77 10.88,-3.09 20.34,-10.35 26.6,-19.73 4.92,-7.66 13.66,-11.78 22.31,-13.59 z"
       id="path130"
       inkscape:connector-curvature="0"
       style="opacity:1;fill:#ffffff" />
    <path
       d="m 142.48,348.6 c 33.76,-0.07 67.52,-0.02 101.28,-0.02 -1.28,1.36 -2.56,2.74 -3.83,4.12 -32.51,0.02 -65.02,0.05 -97.53,-0.01 0.02,-1.37 0.04,-2.73 0.08,-4.09 z"
       id="path132"
       inkscape:connector-curvature="0"
       style="opacity:1;fill:#ffffff" />
    <path
       d="m 724.51,353.4 c 8.02,-0.02 16.05,-0.01 24.07,0 0.04,12.88 -0.05,25.77 0.01,38.66 -8.03,0.04 -16.07,0.17 -24.09,-0.07 0.02,-12.87 0,-25.73 0.01,-38.59 z"
       id="path134"
       inkscape:connector-curvature="0"
       style="opacity:1;fill:#ffffff" />
    <path
       d="m 616.61,354.28 c 2.75,-0.67 5.6,-0.48 8.41,-0.54 24.6,-0.01 49.2,-0.07 73.8,-0.07 0.03,8.11 -0.02,16.23 0.03,24.34 -0.04,24 -0.04,47.99 0,71.99 -0.04,10.92 -0.01,21.84 -0.03,32.76 -26.28,0.16 -52.59,-0.27 -78.86,0.21 -1.13,-0.12 -2.25,-0.25 -3.35,-0.37 0.07,-42.77 0.16,-85.55 0,-128.32 m 26.17,23.5 c -0.48,0.28 -1.44,0.85 -1.92,1.13 -0.26,0.53 -0.8,1.58 -1.06,2.11 -0.02,26.31 -0.05,52.63 0.01,78.95 -0.18,1.95 1.34,3.3 2.73,4.39 0.46,0 1.39,0 1.85,0 3.74,-2.11 2.79,-6.79 2.74,-10.35 0.12,-19 0.2,-38.01 -0.04,-57.01 0.04,-1.69 0.09,-3.38 0.1,-5.07 -0.2,-1.29 -0.21,-2.57 -0.05,-3.85 0.22,-3.1 0.18,-6.25 -0.88,-9.21 -0.53,-0.26 -1.59,-0.78 -2.12,-1.04 -0.34,-0.01 -1.02,-0.04 -1.36,-0.05 m 29.04,0.03 c -0.5,0.26 -1.49,0.79 -1.99,1.05 -0.27,0.52 -0.8,1.56 -1.06,2.07 -0.03,26.71 -0.01,53.42 -0.01,80.14 0.26,0.52 0.79,1.56 1.05,2.08 0.5,0.28 1.49,0.83 1.99,1.1 0.38,0.03 1.14,0.09 1.52,0.12 1.37,-1.07 2.9,-2.32 2.54,-4.3 0.04,-26.03 0.04,-52.06 0.01,-78.09 0.34,-1.98 -1.16,-3.24 -2.55,-4.28 -0.38,0.03 -1.13,0.08 -1.5,0.11 z"
       id="path136"
       inkscape:connector-curvature="0"
       style="opacity:1;fill:#ffffff" />
    <path
       d="m 589.6,362.8 c 1.51,-3.78 4.15,-7.69 8.44,-8.45 4.12,-0.45 8.29,-0.15 12.43,-0.24 0,42.91 0.01,85.81 0,128.72 -28.78,-0.01 -57.55,-0.01 -86.33,-0.02 0.09,-9.95 0.07,-19.89 0.21,-29.83 -0.17,-5.64 4.92,-10.93 10.58,-10.82 14.68,-0.01 29.36,0.06 44.04,0.1 3.49,-0.05 7.1,0.42 10.44,-0.89 0.39,-26.18 0.01,-52.38 0.19,-78.57 z"
       id="path138"
       inkscape:connector-curvature="0"
       style="opacity:1;fill:#ffffff" />
    <path
       d="m 142.44,359.27 c 3.25,-0.05 6.5,-0.04 9.76,-0.04 -1.19,1.43 -2.38,2.86 -3.56,4.3 -2.07,-0.03 -4.13,-0.05 -6.19,-0.09 -0.01,-1.05 -0.01,-3.13 -0.01,-4.17 z"
       id="path140"
       inkscape:connector-curvature="0"
       style="opacity:1;fill:#ffffff" />
    <path
       d="m 473.64,362.45 c 1.39,-1.65 3.63,-1.83 5.63,-1.78 1.91,0.65 3.85,1.3 5.74,2.03 -3.67,2.8 -5.96,6.88 -7.26,11.25 -0.2,2.62 -0.23,5.25 -0.2,7.89 -2.26,-1.02 -5.81,-0.72 -6.71,-3.56 -1.36,-5.32 -0.62,-11.41 2.8,-15.83 z"
       id="path142"
       inkscape:connector-curvature="0"
       style="opacity:1;fill:#ffffff" />
    <path
       d="m 152.64,370.09 c 1.25,-4.98 6.16,-8.9 11.34,-8.75 6.2,0.19 12.4,0.8 18.59,1.25 1.16,2.66 1.51,5.84 3.48,8.19 2.9,4.15 7.89,6.37 12.87,6.54 7.88,0.29 15.71,1.23 23.6,1.37 -1.83,7.82 0.09,16.27 4.96,22.63 -18.84,-1.35 -37.69,-2.45 -56.52,-3.83 -4.89,-0.49 -10.48,0.42 -14.68,-2.71 -3,-2.25 -5.06,-5.96 -4.88,-9.76 0.12,-5 0.52,-9.99 1.24,-14.93 z"
       id="path144"
       inkscape:connector-curvature="0"
       style="opacity:1;fill:#ffffff" />
    <path
       d="m 455.75,371.16 c 1.63,-4.4 5.61,-7.42 9.94,-8.91 -0.21,0.4 -0.62,1.19 -0.82,1.58 -0.79,4.37 -5.56,5.83 -9.12,7.33 z"
       id="path146"
       inkscape:connector-curvature="0"
       style="opacity:1;fill:#ffffff" />
    <path
       d="m 189.08,363.22 c 13.69,0.24 27.32,1.87 41,2.42 -1.95,2.15 -3.79,4.42 -5.2,6.97 -8.78,-0.18 -17.5,-1.19 -26.27,-1.52 -4.6,-0.03 -8.25,-3.66 -9.53,-7.87 z"
       id="path148"
       inkscape:connector-curvature="0"
       style="opacity:1;fill:#ffffff" />
    <path
       d="m 242.57,365.75 c 4.18,-0.9 8.8,-0.81 12.65,1.25 6.77,3.14 11.04,10.64 10.7,18.04 -0.14,8.96 -7.05,17.3 -15.89,18.93 -10.77,2.36 -21.85,-7.04 -21.85,-17.94 -0.77,-9.05 5.61,-17.99 14.39,-20.28 z"
       id="path150"
       inkscape:connector-curvature="0"
       style="opacity:1;fill:#ffffff" />
    <path
       d="m 485.17,374.47 c 1.12,-4.09 4.58,-6.76 7.81,-9.19 0.74,0.11 2.22,0.34 2.96,0.45 -3.12,3.25 -5.92,6.86 -7.29,11.22 -0.4,4.73 0.74,9.35 1.31,14 -1.13,-0.21 -2.26,-0.42 -3.38,-0.63 -1.43,-5.09 -2.89,-10.62 -1.41,-15.85 z"
       id="path152"
       inkscape:connector-curvature="0"
       style="opacity:1;fill:#ffffff" />
    <path
       d="m 142.46,369.66 c 1.27,-0.01 2.53,-0.01 3.8,-0.01 -0.24,1.59 -0.48,3.18 -0.73,4.78 -1.01,-0.2 -2.02,-0.36 -3.01,-0.63 -0.12,-1.38 -0.08,-2.77 -0.06,-4.14 z"
       id="path154"
       inkscape:connector-curvature="0"
       style="opacity:1;fill:#ffffff" />
    <path
       d="m 580.55,384 c -0.4,-2.7 1.62,-4.75 3.08,-6.75 -0.48,1.88 -0.55,3.82 -0.5,5.76 0.18,17.3 -0.2,34.62 0.19,51.92 -0.81,0.51 -1.78,0.88 -2.75,0.74 -0.01,-17.22 0.01,-34.45 -0.02,-51.67 z"
       id="path156"
       inkscape:connector-curvature="0"
       style="opacity:1;fill:#ffffff" />
    <path
       d="m 271.52,388.06 c 1.66,-2.94 4.24,-5.17 6.48,-7.64 3.5,-0.18 7.01,-0.15 10.52,-0.13 0,2.59 0,5.19 0.02,7.79 -5.67,0.06 -11.35,0.1 -17.02,-0.02 z"
       id="path158"
       inkscape:connector-curvature="0"
       style="opacity:1;fill:#ffffff" />
    <path
       d="m 135.5,380.27 c 3.3,-0.01 6.61,0.09 9.92,0.17 -0.15,2.99 -0.16,5.99 0.06,8.98 -3.33,-0.02 -6.66,-0.01 -9.98,-0.02 -0.01,-3.04 -0.01,-6.09 0,-9.13 z"
       id="path160"
       inkscape:connector-curvature="0"
       style="opacity:1;fill:#ffffff" />
    <path
       d="m 294.74,387.94 c 1.41,2.08 2.8,4.34 2.79,6.95 0.25,6.25 -0.01,12.51 0.12,18.77 -0.99,0.27 -1.97,0.56 -2.96,0.85 0.04,-8.86 -0.06,-17.71 0.05,-26.57 z"
       id="path162"
       inkscape:connector-curvature="0"
       style="opacity:1;fill:#ffffff" />
    <path
       d="m 388.36,388.5 c 8.1,0.02 16.2,0.03 24.3,0 0.02,2.24 0.01,4.49 -0.04,6.74 -8.07,-0.04 -16.13,-0.03 -24.19,-0.01 -0.07,-2.25 -0.08,-4.49 -0.07,-6.73 z"
       id="path164"
       inkscape:connector-curvature="0"
       style="opacity:1;fill:#ffffff" />
    <path
       d="m 420.34,388.47 c 15.56,0.11 31.13,0.02 46.7,0.04 4.04,0.06 8.31,-0.43 12.08,1.37 1.65,1.45 2.57,3.51 3.78,5.32 -20.35,0.01 -40.69,0.07 -61.03,-0.02 -3.5,0.01 -1.76,-4.58 -1.53,-6.71 z"
       id="path166"
       inkscape:connector-curvature="0"
       style="opacity:1;fill:#ffffff" />
    <path
       d="m 561.25,394.79 c 4.29,-1.78 8.42,-3.96 12.21,-6.67 0.03,2.24 0.05,4.48 0.07,6.72 -4.09,0.03 -8.21,-0.02 -12.28,-0.05 z"
       id="path168"
       inkscape:connector-curvature="0"
       style="opacity:1;fill:#ffffff" />
    <path
       d="m 270.16,394.37 c 6.71,0.02 13.42,-0.09 20.13,0.07 -0.04,21.63 0.01,43.27 -0.02,64.91 -7.23,0.06 -14.46,0.02 -21.69,0.02 -0.05,-19.8 0.01,-39.6 -0.03,-59.4 -0.26,-2.04 0.8,-3.82 1.61,-5.6 z"
       id="path170"
       inkscape:connector-curvature="0"
       style="opacity:1;fill:#ffffff" />
    <path
       d="m 135.65,395.6 c 4.21,-0.01 8.42,0.01 12.62,-0.02 2.76,3.14 6.09,6 10.24,7.04 3.25,0.69 6.6,0.74 9.9,1.02 0,18.86 0.01,37.73 -0.01,56.59 -10.9,0 -21.81,0.02 -32.72,-0.01 -0.1,-21.54 -0.04,-43.08 -0.03,-64.62 z"
       id="path172"
       inkscape:connector-curvature="0"
       style="opacity:1;fill:#ffffff" />
    <path
       d="m 303.68,402.39 c 89.95,-0.15 179.9,-0.06 269.85,-0.04 -0.05,5.03 0.01,10.07 -0.05,15.1 -89.88,-0.03 -179.75,0.04 -269.63,-0.03 -0.26,-5.01 -0.1,-10.02 -0.17,-15.03 z"
       id="path174"
       inkscape:connector-curvature="0"
       style="opacity:1;fill:#ffffff" />
    <path
       d="m 705.52,402.35 c 26.46,-0.06 52.92,-0.02 79.38,-0.02 -5.22,4.77 -10.56,9.39 -15.79,14.14 -0.28,0.25 -0.85,0.73 -1.14,0.97 -20.8,0 -41.61,0.02 -62.41,-0.01 -0.05,-5.03 -0.03,-10.05 -0.04,-15.08 z"
       id="path176"
       inkscape:connector-curvature="0"
       style="opacity:1;fill:#ffffff" />
    <path
       d="m 174.7,404.16 c 16.34,0.75 32.65,1.99 48.96,3.12 0.2,17.61 0.69,35.21 0.86,52.82 -0.15,1.7 0.45,3.29 1.25,4.77 9.96,0.18 19.92,-0.19 29.88,-0.38 0.59,-1.08 1.56,-2.12 1.38,-3.44 -0.06,-17.33 -0.97,-34.66 -0.73,-51.98 1.34,-1.89 4.26,-2.57 6.11,-4.08 0.01,18.97 -0.03,37.94 0.02,56.91 -0.35,2.15 1.54,3.77 3.6,3.64 7.5,0.09 15,-0.01 22.49,0.03 0.01,3.53 0.02,7.07 -0.03,10.61 -50.99,0 -101.97,0 -152.96,-0.01 -0.05,-3.25 -0.04,-6.5 -0.04,-9.75 11.85,-0.02 23.71,0.03 35.56,-0.01 1.98,0.23 3.92,-1.39 3.6,-3.45 0.1,-19.6 -0.01,-39.2 0.05,-58.8 m 12.21,8.78 c -1.03,1.32 -0.52,3.05 -0.53,4.59 3.72,1.36 7.72,0.68 11.59,0.82 4.16,-0.15 8.42,0.49 12.51,-0.62 0.18,-0.68 0.56,-2.06 0.75,-2.75 -0.27,-0.61 -0.81,-1.83 -1.07,-2.44 -5.71,-0.66 -11.46,-0.18 -17.19,-0.35 -2.01,0.14 -4.27,-0.37 -6.06,0.75 m 0.61,13.83 c -2.5,1.37 -1.47,5.99 1.61,5.7 6.58,0.08 13.19,0.23 19.76,-0.09 3.47,-0.59 2.6,-6.44 -0.91,-6.02 -6.8,0.14 -13.77,-0.61 -20.46,0.41 m -0.93,14.96 c -1.05,1.88 -0.28,5.03 2.29,4.88 6.63,0.08 13.27,0.18 19.9,-0.05 3.01,-0.27 3.13,-5.17 0.34,-5.92 -5.71,-0.35 -11.44,-0.03 -17.15,-0.16 -1.84,0.12 -4.07,-0.42 -5.38,1.25 m -0.42,16.24 c -0.2,2.62 2.86,3.06 4.82,2.89 6.47,-0.2 13,0.43 19.44,-0.45 0.75,-1.92 1.1,-4.8 -1.34,-5.63 -6.33,-0.34 -12.7,-0.09 -19.05,-0.14 -1.95,-0.28 -4.25,1.13 -3.87,3.33 z"
       id="path178"
       inkscape:connector-curvature="0"
       style="opacity:1;fill:#ffffff" />
    <path
       d="m 229.59,407.6 c 7.08,-0.28 13.5,4.03 20.67,2.72 0.48,16.08 0.04,32.22 1.08,48.28 -6.94,0.27 -13.89,-0.08 -20.82,0.67 -0.39,-17.23 -0.85,-34.44 -0.93,-51.67 m 10.05,37.39 c -4.26,0.91 -6.59,6.07 -4.53,9.88 2.39,5.08 11.29,4.65 12.76,-0.95 1.94,-4.91 -3.25,-10.47 -8.23,-8.93 z"
       id="path180"
       inkscape:connector-curvature="0"
       style="opacity:1;fill:#ffffff" />
    <path
       d="m 294.65,421.52 c 0.97,-0.56 1.95,-1.1 2.94,-1.63 -0.01,13.52 -0.02,27.03 -0.02,40.55 -0.99,-0.63 -1.97,-1.27 -2.94,-1.92 0.13,-12.33 0.08,-24.67 0.02,-37 z"
       id="path182"
       inkscape:connector-curvature="0"
       style="opacity:1;fill:#ffffff" />
    <path
       d="m 705.54,424.56 c 18.17,-0.01 36.34,-0.05 54.51,0.03 -1.92,1.68 -3.83,3.36 -5.71,5.08 -16.27,0.03 -32.55,0.05 -48.82,-0.01 0,-1.71 0,-3.4 0.02,-5.1 z"
       id="path184"
       inkscape:connector-curvature="0"
       style="opacity:1;fill:#ffffff" />
    <path
       d="m 303.72,424.57 c 89.92,-0.06 179.84,-0.01 269.77,-0.03 0.01,1.7 0.03,3.39 0.06,5.09 -89.96,0.09 -179.92,0.11 -269.87,-0.01 0.01,-1.69 0.02,-3.37 0.04,-5.05 z"
       id="path186"
       inkscape:connector-curvature="0"
       style="opacity:1;fill:#ffffff" />
    <path
       d="m 705.51,438.34 c 2.71,-0.03 5.43,-0.04 8.15,-0.11 0.64,4.56 0.65,9.18 0.46,13.77 0.19,47.66 0.06,95.31 0.14,142.97 0.03,1.51 -0.27,3.01 -0.6,4.49 -7.12,-0.16 -14.24,-0.08 -21.35,-0.05 -0.15,-32.47 -0.13,-64.95 -0.02,-97.42 1.38,-4.08 3.85,-7.96 3.34,-12.52 2.78,0.02 5.58,0.01 8.38,-0.21 0.37,-0.52 1.1,-1.57 1.47,-2.09 0.1,-16.28 0.04,-32.56 0.03,-48.83 z"
       id="path188"
       inkscape:connector-curvature="0"
       style="opacity:1;fill:#ffffff" />
    <path
       d="m 391.5,599.36 c -0.08,-53.53 -0.1,-107.07 0.01,-160.6 7.3,0.04 14.6,0 21.9,0.02 0.03,53.52 0.05,107.04 -0.01,160.56 -7.3,0.02 -14.6,-0.01 -21.9,0.02 z"
       id="path190"
       inkscape:connector-curvature="0"
       style="opacity:1;fill:#ffffff" />
    <path
       d="m 496.51,470.99 c -0.16,-11.75 9.56,-22.21 21.2,-23.32 -0.56,10.77 -0.18,21.57 -0.27,32.35 -0.83,-0.24 -1.64,-0.48 -2.45,-0.71 -1.15,-1.18 -2.57,-2.02 -3.98,-2.82 -1.62,1.08 -3.89,2.25 -3.44,4.61 1.59,3.89 5.93,5.43 9.6,6.72 2.68,2.22 6.22,1.64 9.45,1.71 -0.08,4.41 1.57,8.49 3.65,12.3 -0.07,22.85 -0.01,45.71 -0.04,68.57 -11.24,0.14 -22.48,0.03 -33.73,0.02 -0.02,-33.14 -0.02,-66.29 0.01,-99.43 z"
       id="path192"
       inkscape:connector-curvature="0"
       style="opacity:1;fill:#ffffff" />
    <path
       d="m 294.73,467.02 c 3.51,4.08 5.12,9.59 4.55,14.93 -1.34,6.14 -5.4,11.42 -11.09,14.14 3.08,-3 5.85,-6.68 6.32,-11.08 0.51,-5.99 0.01,-12 0.22,-17.99 z"
       id="path194"
       inkscape:connector-curvature="0"
       style="opacity:1;fill:#ffffff" />
    <path
       d="m 135.26,482.4 c 51.16,-0.12 102.33,-0.11 153.48,0 -0.37,6 -5.6,11.32 -11.73,11.08 -43.31,0.04 -86.62,0.03 -129.92,0.01 -6.21,0.26 -11.29,-5.1 -11.83,-11.09 z"
       id="path196"
       inkscape:connector-curvature="0"
       style="opacity:1;fill:#ffffff" />
    <path
       d="m 534.08,489.44 c 25.46,0.1 50.93,-0.11 76.39,0.25 0.41,5.31 -3.85,11.17 -9.49,10.83 -19.29,0.03 -38.59,0.13 -57.88,0.03 -5.6,0.05 -10.02,-5.67 -9.02,-11.11 z"
       id="path198"
       inkscape:connector-curvature="0"
       style="opacity:1;fill:#ffffff" />
    <path
       d="m 616.92,489.84 c 23.88,-0.8 47.81,-0.19 71.71,-0.34 0.5,5.52 -4.03,11.21 -9.75,11.07 -21.56,0.06 -43.11,-0.07 -64.67,0 2.13,-3.19 2.52,-7 2.71,-10.73 z"
       id="path200"
       inkscape:connector-curvature="0"
       style="opacity:1;fill:#ffffff" />
    <path
       d="m 271.41,502.53 c 8.53,3.06 18.39,1.07 25.38,-4.6 0.02,3.77 0.01,7.54 0.03,11.31 -5.59,-0.12 -11.16,2.73 -13.85,7.71 -2.98,4.58 -1.69,10.2 -2.43,15.3 -1.27,-4.64 -2.2,-9.43 -4.28,-13.79 -1.34,-2.91 -4.37,-4.58 -5.74,-7.42 0.47,-2.82 0.98,-5.64 0.89,-8.51 z"
       id="path202"
       inkscape:connector-curvature="0"
       style="opacity:1;fill:#ffffff" />
    <path
       d="m 162.32,507.24 c -0.02,-1.5 0,-2.99 0.09,-4.48 34.09,0.02 68.18,0.08 102.28,-0.03 0.17,1.48 0.37,2.96 0.5,4.47 -14.07,0.06 -28.14,-0.02 -42.21,0.04 -4.6,0.49 -8.38,-3.23 -13,-2.74 -4.3,-0.42 -7.8,2.93 -12.02,2.73 -11.88,-0.01 -23.76,-0.04 -35.64,0.01 z"
       id="path204"
       inkscape:connector-curvature="0"
       style="opacity:1;fill:#ffffff" />
    <path
       d="m 537.38,571.27 c -0.28,-21.59 -0.18,-43.2 -0.05,-64.79 2.15,0.62 4.35,1.2 6.61,1.16 7.4,0.06 14.8,-0.04 22.2,0.04 0.06,20.99 0.08,41.98 0.16,62.97 -9.64,0.33 -19.26,0.76 -28.92,0.62 z"
       id="path206"
       inkscape:connector-curvature="0"
       style="opacity:1;fill:#ffffff" />
    <path
       d="m 601.65,507.92 c 8.72,-0.14 17.44,-0.04 26.16,-0.06 0,25.51 -0.01,51.03 0,76.54 -8.72,0 -17.44,0.04 -26.16,-0.02 0,-25.49 0,-50.97 0,-76.46 z"
       id="path208"
       inkscape:connector-curvature="0"
       style="opacity:1;fill:#ffffff" />
    <path
       d="m 199.67,516.87 c 2.05,-3.74 6.25,-5.82 10.38,-6.17 4.95,0.09 9.74,3.48 10.98,8.38 3.58,11.28 6.85,22.66 10.32,33.97 -9.79,0.11 -19.59,-0.19 -29.37,0.13 -1.95,0.01 -2.79,2.12 -2.57,3.8 0,22.03 -0.04,44.07 0.02,66.1 -0.38,2.08 1.43,3.88 3.52,3.56 9.7,0.07 19.41,-0.02 29.11,0.04 1.97,0 4.85,0.12 4.9,-2.58 0.56,-17.19 -0.31,-34.43 0.45,-51.62 7.79,27.14 16.33,54.05 24.32,81.13 -10.26,-1.75 -20.48,-3.75 -30.74,-5.53 -18.67,-3.42 -37.35,-6.76 -56.02,-10.15 -3.81,-0.46 -7.53,-1.74 -11.4,-1.66 0.03,-1.46 0.07,-2.92 0.24,-4.35 11.01,-34.92 21.55,-69.98 32.37,-104.96 1.13,-3.37 1.82,-6.93 3.49,-10.09 z"
       id="path210"
       inkscape:connector-curvature="0"
       style="opacity:1;fill:#ffffff" />
    <path
       d="m 162.28,513.43 c 10.64,-0.12 21.27,-0.01 31.91,-0.06 -0.57,1.44 -1.18,2.86 -1.77,4.31 -10.06,-0.02 -20.13,0.05 -30.2,-0.04 0.01,-1.41 0.03,-2.82 0.06,-4.21 z"
       id="path212"
       inkscape:connector-curvature="0"
       style="opacity:1;fill:#ffffff" />
    <path
       d="m 225.41,513.44 c 12.84,-0.11 25.68,-0.09 38.52,-0.02 2.14,-0.01 0.83,2.91 1.14,4.24 -12.58,0.05 -25.16,0.01 -37.74,0.02 -0.63,-1.42 -1.27,-2.84 -1.92,-4.24 z"
       id="path214"
       inkscape:connector-curvature="0"
       style="opacity:1;fill:#ffffff" />
    <path
       d="m 287.14,523.89 c 0.31,-4.89 4.77,-8.5 9.52,-8.65 0.27,12.45 0.05,24.91 0.04,37.37 -3.22,-0.07 -6.43,-0.09 -9.65,-0.13 0.06,-9.53 -0.14,-19.07 0.09,-28.59 z"
       id="path216"
       inkscape:connector-curvature="0"
       style="opacity:1;fill:#ffffff" />
    <path
       d="m 152.84,523.76 c 0.56,-2.15 2.06,-3.8 3.73,-5.15 0.33,3.51 -1.1,6.93 -0.66,10.44 0.39,3.02 2.92,5.57 5.96,5.9 4.62,0.58 9.29,0.09 13.94,0.29 1.7,5.42 3.46,10.83 5.03,16.29 0.79,2.13 -0.09,4.32 -0.68,6.38 -7.07,22.88 -14.07,45.79 -21.14,68.68 -11.84,-2.51 -23.7,-4.98 -35.54,-7.48 0.95,-2.93 1.62,-5.96 2.81,-8.8 6.22,-0.51 12.48,-0.09 18.71,-0.21 3.75,-0.14 7.66,0.51 11.28,-0.72 1.14,-1.18 1,-2.87 1.06,-4.37 -0.03,-15.68 -0.04,-31.36 -0.01,-47.03 -0.22,-2.79 0.63,-5.93 -0.78,-8.46 -3.35,-1.96 -7.63,-0.61 -11.36,-0.98 2.52,-8.27 5.04,-16.54 7.65,-24.78 z"
       id="path218"
       inkscape:connector-curvature="0"
       style="opacity:1;fill:#ffffff" />
    <path
       d="m 270.4,520.46 c 3.27,9.24 5.88,18.7 8.73,28.07 -3.68,0.15 -7.45,-0.41 -11.06,0.4 -1.99,0.89 -1.53,3.29 -1.66,5.06 0.09,17.63 -0.06,35.28 0.07,52.92 -0.28,2.49 2.48,3.25 4.46,3.14 8.93,0.13 17.87,0 26.81,0.05 2.44,7.79 4.52,15.69 7.09,23.43 -0.93,-0.22 -1.85,-0.44 -2.77,-0.68 -14.08,-2.1 -28.06,-4.81 -42.14,-6.83 -6.4,-21.41 -12.95,-42.78 -19.38,-64.17 -0.74,-2.24 0.29,-4.47 0.9,-6.59 2.19,-6.66 4.09,-13.41 6.24,-20.08 5.47,-0.03 10.95,0.15 16.42,-0.04 2.82,-0.07 5.69,-1.66 6.71,-4.38 1.24,-3.36 0.13,-6.93 -0.42,-10.3 z"
       id="path220"
       inkscape:connector-curvature="0"
       style="opacity:1;fill:#ffffff" />
    <path
       d="m 162.24,524.64 c 9.38,-0.13 18.75,-0.04 28.12,-0.05 -0.44,1.38 -0.86,2.79 -1.27,4.19 -8.96,0.02 -17.91,0.09 -26.86,-0.04 -0.01,-1.38 -0.01,-2.74 0.01,-4.1 z"
       id="path222"
       inkscape:connector-curvature="0"
       style="opacity:1;fill:#ffffff" />
    <path
       d="m 229.32,524.58 c 11.95,0.05 23.91,-0.11 35.86,0.08 -0.07,1.37 -0.14,2.74 -0.23,4.12 -11.47,0.05 -22.94,0.01 -34.41,0.02 -0.42,-1.41 -0.82,-2.82 -1.22,-4.22 z"
       id="path224"
       inkscape:connector-curvature="0"
       style="opacity:1;fill:#ffffff" />
    <path
       d="m 143.47,554.7 c 2.54,0.03 5.08,0.03 7.62,0.04 0.01,16.35 0.01,32.71 0,49.07 -7.65,-0.05 -15.29,0.08 -22.93,-0.08 5.31,-16.28 9.84,-32.8 15.31,-49.03 z"
       id="path226"
       inkscape:connector-curvature="0"
       style="opacity:1;fill:#ffffff" />
    <path
       d="m 272.63,554.73 c 2.8,-0.01 5.6,-0.01 8.4,0.03 4.95,16.33 9.81,32.69 14.82,49 -7.74,0.1 -15.48,0.01 -23.22,0.05 -0.01,-16.36 -0.01,-32.72 0,-49.08 z"
       id="path228"
       inkscape:connector-curvature="0"
       style="opacity:1;fill:#ffffff" />
    <path
       d="m 205.63,559.25 c 8.43,0.06 16.85,0.02 25.27,0.03 0,20.42 0.03,40.84 -0.02,61.26 -8.43,-0.05 -16.86,0.02 -25.29,-0.03 0.04,-20.42 -0.05,-40.84 0.04,-61.26 z"
       id="path230"
       inkscape:connector-curvature="0"
       style="opacity:1;fill:#ffffff" />
    <path
       d="m 288.86,558.68 c 2.61,-0.02 5.21,0 7.83,0.03 0.01,1.87 0.02,3.74 0.02,5.62 -2.05,0 -4.1,0.01 -6.14,0.02 -0.64,-1.87 -1.21,-3.77 -1.71,-5.67 z"
       id="path232"
       inkscape:connector-curvature="0"
       style="opacity:1;fill:#ffffff" />
    <path
       d="m 502.22,579.22 c 1.12,-0.7 2.24,-1.66 3.66,-1.5 5.49,-0.05 10.97,0.01 16.46,0.01 0.09,6.99 -0.08,13.98 0.11,20.96 -3.85,0.87 -7.82,0.57 -11.73,0.5 -1.73,-1.61 -0.79,-4.35 -1.28,-6.46 -1.38,-0.69 -2.82,-1.26 -4.38,-1.25 -3.47,2.24 -7.34,3.74 -10.97,5.68 -6.05,3.74 -13.44,1.46 -20.13,2.06 0.39,-0.94 1.02,-1.76 1.92,-2.27 8.8,-5.88 17.56,-11.82 26.34,-17.73 z"
       id="path234"
       inkscape:connector-curvature="0"
       style="opacity:1;fill:#ffffff" />
    <path
       d="m 529.37,579.39 c 1.47,-0.76 2.92,-1.82 4.68,-1.7 8.88,-0.21 17.77,0.07 26.66,-0.13 0.69,7.19 0.87,14.58 -0.09,21.74 -6.07,-0.12 -12.14,-0.08 -18.21,-0.02 -0.4,-2.74 0.51,-7.36 -3.31,-7.82 -3,0.44 -5.63,2.18 -8.48,3.16 -0.28,0.25 -0.86,0.76 -1.15,1.02 -0.25,-5.42 -0.14,-10.84 -0.1,-16.25 z"
       id="path236"
       inkscape:connector-curvature="0"
       style="opacity:1;fill:#ffffff" />
    <path
       d="m 577.72,599.57 c 0.96,-4.76 5.7,-8.11 10.44,-8.11 17.95,-0.03 35.9,0 53.85,-0.02 5.02,-0.3 9.92,3.22 11.2,8.1 -25.16,0.1 -50.33,0.04 -75.49,0.03 z"
       id="path238"
       inkscape:connector-curvature="0"
       style="opacity:1;fill:#ffffff" />
  </g>
</svg>
