<?xml version="1.0" encoding="UTF-8" standalone="no"?>
<!-- Created with Inkscape (http://www.inkscape.org/) -->

<svg
   xmlns:dc="http://purl.org/dc/elements/1.1/"
   xmlns:cc="http://creativecommons.org/ns#"
   xmlns:rdf="http://www.w3.org/1999/02/22-rdf-syntax-ns#"
   xmlns:svg="http://www.w3.org/2000/svg"
   xmlns="http://www.w3.org/2000/svg"
   xmlns:sodipodi="http://sodipodi.sourceforge.net/DTD/sodipodi-0.dtd"
   xmlns:inkscape="http://www.inkscape.org/namespaces/inkscape"
   width="77.994179"
   height="131.42935"
   viewBox="0 0 77.994178 131.42935"
   id="svg2"
   version="1.1"
   inkscape:version="0.91 r13725"
   sodipodi:docname="arrow.svg">
  <defs
     id="defs4">
    <marker
       inkscape:stockid="TriangleOutL"
       orient="auto"
       refY="0"
       refX="0"
       id="marker4506"
       style="overflow:visible"
       inkscape:isstock="true">
      <path
         id="path4508"
         d="m 5.77,0 -8.65,5 0,-10 8.65,5 z"
         style="fill:#61bfd9;fill-opacity:1;fill-rule:evenodd;stroke:#61bfd9;stroke-width:1pt;stroke-opacity:1"
         transform="scale(0.8,0.8)"
         inkscape:connector-curvature="0" />
    </marker>
    <marker
       inkscape:stockid="Arrow1Mstart"
       orient="auto"
       refY="0"
       refX="0"
       id="Arrow1Mstart"
       style="overflow:visible"
       inkscape:isstock="true">
      <path
         id="path4148"
         d="M 0,0 5,-5 -12.5,0 5,5 0,0 Z"
         style="fill:#000000;fill-opacity:1;fill-rule:evenodd;stroke:#000000;stroke-width:1pt;stroke-opacity:1"
         transform="matrix(0.4,0,0,0.4,4,0)"
         inkscape:connector-curvature="0" />
    </marker>
    <marker
       inkscape:stockid="TriangleOutL"
       orient="auto"
       refY="0"
       refX="0"
       id="TriangleOutL"
       style="overflow:visible"
       inkscape:isstock="true">
      <path
         id="path4284"
         d="m 5.77,0 -8.65,5 0,-10 8.65,5 z"
         style="fill:#000000;fill-opacity:1;fill-rule:evenodd;stroke:#000000;stroke-width:1pt;stroke-opacity:1"
         transform="scale(0.8,0.8)"
         inkscape:connector-curvature="0" />
    </marker>
    <marker
       inkscape:stockid="DiamondL"
       orient="auto"
       refY="0"
       refX="0"
       id="DiamondL"
       style="overflow:visible"
       inkscape:isstock="true">
      <path
         id="path4221"
         d="M 0,-7.0710768 -7.0710894,0 0,7.0710589 7.0710462,0 0,-7.0710768 Z"
         style="fill:#000000;fill-opacity:1;fill-rule:evenodd;stroke:#000000;stroke-width:1pt;stroke-opacity:1"
         transform="scale(0.8,0.8)"
         inkscape:connector-curvature="0" />
    </marker>
  </defs>
  <sodipodi:namedview
     id="base"
     pagecolor="#ffffff"
     bordercolor="#666666"
     borderopacity="1.0"
     inkscape:pageopacity="0.0"
     inkscape:pageshadow="2"
     inkscape:zoom="22.4"
     inkscape:cx="-1.4031829"
     inkscape:cy="6.2228775"
     inkscape:document-units="px"
     inkscape:current-layer="layer1"
     showgrid="false"
     units="px"
     inkscape:object-nodes="false"
     inkscape:snap-bbox="false"
     fit-margin-top="0"
     fit-margin-left="0"
     fit-margin-right="0"
     fit-margin-bottom="0"
     inkscape:window-width="1920"
     inkscape:window-height="1021"
     inkscape:window-x="0"
     inkscape:window-y="0"
     inkscape:window-maximized="1"
     inkscape:snap-nodes="false" />
  <metadata
     id="metadata7">
    <rdf:RDF>
      <cc:Work
         rdf:about="">
        <dc:format>image/svg+xml</dc:format>
        <dc:type
           rdf:resource="http://purl.org/dc/dcmitype/StillImage" />
        <dc:title></dc:title>
      </cc:Work>
    </rdf:RDF>
  </metadata>
  <g
     inkscape:label="Layer 1"
     inkscape:groupmode="layer"
     id="layer1"
     transform="translate(-0.28515625,-922.31443)">
    <path
       style="color:#000000;font-style:normal;font-variant:normal;font-weight:normal;font-stretch:normal;font-size:medium;line-height:normal;font-family:sans-serif;text-indent:0;text-align:start;text-decoration:none;text-decoration-line:none;text-decoration-style:solid;text-decoration-color:#000000;letter-spacing:normal;word-spacing:normal;text-transform:none;direction:ltr;block-progression:tb;writing-mode:lr-tb;baseline-shift:baseline;text-anchor:start;white-space:normal;clip-rule:nonzero;display:inline;overflow:visible;visibility:visible;opacity:1;isolation:auto;mix-blend-mode:normal;color-interpolation:sRGB;color-interpolation-filters:linearRGB;solid-color:#000000;solid-opacity:1;fill:#61bfd9;fill-opacity:1;fill-rule:evenodd;stroke:none;stroke-width:1.5;stroke-linecap:round;stroke-linejoin:miter;stroke-miterlimit:4;stroke-dasharray:4.5, 4.5;stroke-dashoffset:0;stroke-opacity:1;color-rendering:auto;image-rendering:auto;shape-rendering:auto;text-rendering:auto;enable-background:accumulate"
       d="m 0.43359375,922.58203 -0.1484375,0.66992 0.45703125,0.51172 0.21289062,0.0469 0.82617188,0.0605 0.011719,0.002 0.00977,0 2.3496094,0.24218 0.027344,0.004 1.1992187,0.16992 0.6464844,-0.22656 0.1933594,-0.6582 -0.421875,-0.53907 -0.2089844,-0.0625 -1.2265625,-0.17187 -0.013672,-0.002 -0.013672,-0.002 -2.3984375,-0.24804 -0.011719,0 -0.00977,-0.002 -0.8496094,-0.0625 z m 8.96875005,1.11719 -0.2128907,0.65234 0.40625,0.55274 0.2070313,0.0684 0.3320316,0.0566 2.527343,0.49414 0.01758,0.004 1.498046,0.33204 0.664063,-0.17579 0.242187,-0.64062 -0.378906,-0.57227 -0.203125,-0.0762 -1.515625,-0.33594 -0.0098,-0.002 -0.0078,-0.002 -2.544922,-0.49805 -0.0078,-0.002 -0.0098,0 -0.349609,-0.0606 z m 8.8398442,1.90234 -0.279297,0.62696 0.349609,0.59179 0.197266,0.0879 2.951172,0.82618 0.02148,0.006 1.326172,0.41602 0.677734,-0.11719 0.296875,-0.61718 -0.330078,-0.60157 -0.195313,-0.0957 -1.349609,-0.42188 -0.0098,-0.004 -0.01172,-0.002 -2.972657,-0.83204 z m 8.626953,2.65039 -0.31836,0.60743 0.310547,0.61328 0.19336,0.0996 1.009765,0.35546 3.167969,1.23829 0.683594,-0.0703 0.339843,-0.5957 -0.287109,-0.62305 -0.189453,-0.10742 -3.167969,-1.24023 -0.01172,-0.004 -0.01367,-0.004 -1.03711,-0.36328 z m 8.402343,3.35743 -0.386718,0.5664 0.236328,0.64453 0.179687,0.12305 3.230469,1.57422 0.0078,0.004 0.02344,0.0117 0.734375,0.40039 0.6875,0.0176 0.412109,-0.54883 -0.207031,-0.65429 -0.173828,-0.13086 -0.765625,-0.41797 -0.01563,-0.008 -0.01563,-0.008 -3.261719,-1.58984 z m 7.578125,4.70703 0.183594,0.66211 0.167969,0.13671 0.623047,0.36915 0.01758,0.01 1.730469,1.08594 0.01563,0.01 1.378906,0.91797 0.681641,0.0762 0.458984,-0.51171 -0.148438,-0.66993 -0.162109,-0.14453 -1.394531,-0.92773 -0.0098,-0.006 -0.0078,-0.004 -1.761719,-1.10742 -0.0098,-0.004 -0.0078,-0.006 -0.638672,-0.3789 -0.685547,-0.041 z m 7.470703,4.96289 0.111329,0.67773 0.154297,0.1543 0.130859,0.0977 0.01172,0.008 0.0059,0.006 1.65625,1.31445 0.01758,0.0156 1.626953,1.375 0.669922,0.1543 0.513672,-0.45312 -0.07031,-0.6836 -0.144532,-0.16211 -1.646484,-1.39062 -0.0078,-0.008 -0.0098,-0.008 -1.689453,-1.34179 -0.0078,-0.008 -0.0098,-0.006 -0.148437,-0.11132 -0.677734,-0.11524 z m 6.824219,5.80273 0.0039,0.68555 0.128906,0.17578 1.501953,1.54102 0.01758,0.0195 1.488281,1.63281 0.002,0.002 0.01563,0.0176 0.02148,0.0273 0.634765,0.26172 0.582032,-0.36328 0.04297,-0.68555 -0.115234,-0.18359 -0.04102,-0.0469 -0.0078,-0.01 -0.0078,-0.01 -1.523437,-1.67187 -0.0078,-0.01 -0.0098,-0.01 -1.519532,-1.5586 -0.652343,-0.21679 z m 5.970703,6.69141 -0.06641,0.68164 0.109375,0.18945 0.0039,0.004 0.01563,0.0215 1.347657,1.83985 0.01563,0.0234 1.179687,1.74219 0.601563,0.32813 0.617187,-0.29688 0.117188,-0.67578 -0.09375,-0.19727 -1.195313,-1.76367 -0.0078,-0.0117 -0.0078,-0.0117 -1.380859,-1.88476 -0.0078,-0.0117 -0.0078,-0.01 -0.01953,-0.0254 -0.625,-0.28515 z m 4.990235,7.43554 -0.167969,0.66602 0.08008,0.20312 0.267578,0.46485 0.0098,0.0176 0.0039,0.008 1.115234,2.14062 0.626954,1.32032 0.544922,0.41797 0.65625,-0.20118 0.21875,-0.65039 -0.06445,-0.20703 -0.626953,-1.32226 -0.0059,-0.0137 -0.0059,-0.0117 -1.142578,-2.19141 -0.0078,-0.0137 -0.0078,-0.0117 -0.279297,-0.49219 -0.576171,-0.37305 z m 3.904297,8.0586 -0.267578,0.63281 0.04687,0.21094 0.601563,1.57226 0.0059,0.0156 0.0039,0.0117 0.839843,2.49023 0.0293,0.0977 0.472657,0.49609 0.679687,-0.0957 0.316406,-0.60938 -0.03125,-0.21484 -0.03711,-0.125 -0.0039,-0.0137 -0.0039,-0.0137 -0.851562,-2.51954 -0.0039,-0.0137 -0.0059,-0.0137 -0.609375,-1.59961 -0.511718,-0.45703 z m 2.771484,8.52539 -0.337891,0.59765 0.02148,0.2168 0.207031,0.80664 0.0059,0.0274 0.587891,2.75195 0.132813,0.75586 0.414062,0.54687 0.6875,-0.0195 0.382812,-0.56836 -0.0059,-0.21679 -0.138672,-0.78516 -0.002,-0.0137 -0.0039,-0.0137 -0.59375,-2.7793 -0.0039,-0.0137 -0.0039,-0.0137 -0.210937,-0.83594 -0.455078,-0.51367 z m 1.306641,9.35742 -0.002,0.21875 0.08203,0.59961 0.304687,3 0.002,0.0176 0,0.008 0.05273,0.79883 0.353515,0.58789 0.683594,0.0547 0.441406,-0.52539 0.01758,-0.2168 -0.05469,-0.82422 0,-0.0117 -0.002,-0.0137 -0.308594,-3.05273 -0.002,-0.0137 -0.002,-0.0137 -0.08203,-0.59961 -0.394532,-0.5625 -0.685546,-0.006 z m 0.683593,8.89453 -0.02539,0.21485 0.0332,1.04687 0,0.0234 0,0.002 -0.0078,3.17386 -0.0078,0.2011 0.291016,0.6231 0.673828,0.125 0.49414,-0.4766 0.03906,-0.2129 0.0078,-0.2031 0,-0.014 0.002,-0.012 0.0078,-3.22654 0,-0.0117 0,-0.0137 -0.0332,-1.07227 -0.333985,-0.59961 -0.68164,-0.0781 z m -0.189453,8.91598 -0.04883,0.211 -0.101562,1.3418 -0.322266,2.8164 -0.002,0.012 -0.002,0.018 -0.03711,0.2285 0.216797,0.6504 0.654297,0.2031 0.546875,-0.4141 0.06445,-0.207 0.04102,-0.2578 0.002,-0.016 0.002,-0.016 0.326172,-2.8457 0.002,-0.014 0.002,-0.016 0.103516,-1.371 -0.267578,-0.6309 -0.669922,-0.1504 z m -1.21289,8.8223 -0.07422,0.2031 -0.121094,0.6075 -0.0059,0.025 -0.002,0.01 -0.597657,2.4218 -0.363281,1.2324 0.126953,0.6739 0.623047,0.289 0.595703,-0.3398 0.0918,-0.1973 0.365234,-1.2324 0.0039,-0.016 0.0039,-0.018 0.615234,-2.4883 0.0039,-0.016 0.002,-0.016 0.128906,-0.6407 -0.1875,-0.6601 -0.646484,-0.2305 z m -2.5,8.4941 -0.109375,0.1875 -0.527344,1.3047 -0.914063,1.9785 -0.0098,0.02 -0.0078,0.016 -0.373047,0.7051 -0.0059,0.6875 0.554687,0.4043 0.650391,-0.2168 0.128906,-0.1758 0.388672,-0.7402 0.0098,-0.018 0.0078,-0.018 0.947266,-2.0469 0.0078,-0.016 0.0059,-0.018 0.527344,-1.3047 -0.0625,-0.6835 -0.591797,-0.3477 z m -4.03711,7.8594 -0.144531,0.1621 -0.583984,0.875 -1.220704,1.6407 -0.0039,0.01 -0.841797,1.0137 -0.146484,0.6699 0.458984,0.5098 0.681641,-0.076 0.162109,-0.1465 0.865235,-1.0449 0.01367,-0.016 0.01172,-0.016 1.222657,-1.6445 0.01172,-0.016 0.01172,-0.016 0.605469,-0.9082 0.07617,-0.6836 -0.509766,-0.459 z m -5.654297,6.7813 -0.175781,0.1289 -0.04102,0.041 -0.01367,0.012 -0.01367,0.014 -1.417969,1.2578 -1.435547,1.1543 -0.449219,0.3301 -0.308593,0.6113 0.318359,0.6074 0.679687,0.094 0.19336,-0.1016 0.451172,-0.3281 0.01367,-0.01 0.01367,-0.012 1.492187,-1.1992 0.01367,-0.012 0.01367,-0.012 1.445312,-1.2851 0.01367,-0.012 0.01367,-0.014 0.06836,-0.066 0.214844,-0.6524 -0.404297,-0.5527 z m -7.240234,5.3808 -0.519531,0.3106 -1.585938,0.8594 -0.02148,0.01 -0.0059,0 -1.644532,0.8028 -0.126953,0.057 -0.431641,0.5332 0.183594,0.6602 0.644532,0.2363 0.208984,-0.059 0.154297,-0.068 0.01367,-0.01 0.01367,-0.01 1.669922,-0.8164 0.01563,-0.01 0.01172,-0.01 1.642578,-0.8887 0.01563,-0.01 0.01367,-0.01 0.517578,-0.3086 0.361328,-0.584 -0.261718,-0.6328 -0.669922,-0.1543 z m -8.023438,3.7071 -0.802734,0.2871 -0.01367,0 -0.0098,0 -1.703125,0.541 -0.02344,0.01 -1.695312,0.4766 -0.501954,0.4687 0.08789,0.6797 0.605469,0.3242 0.216797,-0.027 1.716797,-0.4863 0.01172,0 0.01172,0 1.751953,-0.5566 0.01172,0 0.01172,0 0.826172,-0.2949 0.470703,-0.5 -0.134766,-0.6738 -0.625,-0.2813 z m -40.3027339,2.4316 -0.2128906,0.6523 0.40625,0.5528 0.2070313,0.068 1.1660156,0.1993 0.011719,0 0.00977,0 2.3105476,0.3261 0.0078,0 0.0098,0 0.976562,0.1152 0.642578,-0.2422 0.177735,-0.6621 -0.435547,-0.5293 -0.208984,-0.057 -0.960938,-0.1133 -0.01758,0 -2.2695318,-0.3184 0,0 -1.1660156,-0.1992 z m 31.7382809,-0.1465 -2.710937,0.4766 -0.01367,0 -1.683594,0.209 -0.566406,0.3867 -0.01563,0.6856 0.550781,0.4121 0.216797,0 1.697266,-0.2109 0.01758,0 0.01953,0 2.748047,-0.4825 0.546875,-0.416 -0.01953,-0.6855 -0.570313,-0.3828 z m -22.861328,1.2949 -0.142578,0.6719 0.462891,0.5059 0.21289,0.045 2.861328,0.1816 0.01172,0 0.01172,0 1.630859,0.055 0.621094,-0.293 0.121094,-0.6758 -0.478516,-0.4922 -0.21289,-0.039 -1.632813,-0.055 -2.83789,-0.1817 z m 13.222657,-0.1152 -0.01172,0 -0.01953,0 -3.357422,0.125 -0.261719,0 -0.609375,0.3125 -0.09961,0.6796 0.494141,0.4747 0.216797,0.033 0.289062,0 0.01367,0 0.01367,0 3.388672,-0.125 0.01563,0 0.01367,0 0.818359,-0.065 0.583985,-0.3594 0.04687,-0.6855 -0.53125,-0.4356 -0.216797,-0.016 z"
       id="path3336"
       inkscape:connector-curvature="0"
       sodipodi:nodetypes="ccccccccccccccccccccccccccccccccccccccccccccccccccccccccccccccccccccccccccccccccccccccccccccccccccccccccccccccccccccccccccccccccccccccccccccccccccccccccccccccccccccccccccccccccccccccccccccccccccccccccccccccccccccccccccccccccccccccccccccccccccccccccccccccccccccccccccccccccccccccccccccccccccccccccccccccccccccccccccccccccccccccccccccccccccccccccccccccccccccccccccccccccccccccccccccccccccccccccccccccccccccccccccccccccccccccccccccccccccccccccccccccccccccccccccccccccccccccccccccccccccccccccaccccccccccccccccccc" />
    <path
       style="color:#000000;font-style:normal;font-variant:normal;font-weight:normal;font-stretch:normal;font-size:medium;line-height:normal;font-family:sans-serif;text-indent:0;text-align:start;text-decoration:none;text-decoration-line:none;text-decoration-style:solid;text-decoration-color:#000000;letter-spacing:normal;word-spacing:normal;text-transform:none;direction:ltr;block-progression:tb;writing-mode:lr-tb;baseline-shift:baseline;text-anchor:start;white-space:normal;clip-rule:nonzero;display:inline;overflow:visible;visibility:visible;opacity:1;isolation:auto;mix-blend-mode:normal;color-interpolation:sRGB;color-interpolation-filters:linearRGB;solid-color:#000000;solid-opacity:1;fill:#61bfd9;fill-opacity:1;fill-rule:evenodd;stroke:none;stroke-width:1.5;stroke-linecap:round;stroke-linejoin:round;stroke-miterlimit:4;stroke-dasharray:none;stroke-dashoffset:0;stroke-opacity:1;color-rendering:auto;image-rendering:auto;shape-rendering:auto;text-rendering:auto;enable-background:accumulate"
       d="m 11.305086,1044.9431 a 0.65606993,0.71340539 85.641097 0 0 -0.354397,0.1231 l -0.0025,-0.01 -4.6372522,2.9848 a 0.65606993,0.71340539 85.641097 0 0 -0.1844013,0.9162 l 3.3590402,4.4959 a 0.65606993,0.71340539 85.641097 1 0 1.1773563,-0.7541 l -2.9576189,-3.958 3.8892139,-2.5045 -0.196308,0.017 a 0.65606993,0.71340539 85.641097 1 0 -0.09306,-1.3086 z"
       id="path4911"
       inkscape:connector-curvature="0" />
  </g>
</svg>
