<?xml version="1.0" encoding="UTF-8" standalone="no"?>
<!-- Created with Inkscape (http://www.inkscape.org/) -->

<svg
   xmlns:dc="http://purl.org/dc/elements/1.1/"
   xmlns:cc="http://creativecommons.org/ns#"
   xmlns:rdf="http://www.w3.org/1999/02/22-rdf-syntax-ns#"
   xmlns:svg="http://www.w3.org/2000/svg"
   xmlns="http://www.w3.org/2000/svg"
   xmlns:sodipodi="http://sodipodi.sourceforge.net/DTD/sodipodi-0.dtd"
   xmlns:inkscape="http://www.inkscape.org/namespaces/inkscape"
   width="69.312721"
   height="73.768234"
   viewBox="0 0 69.312721 73.768232"
   id="svg2"
   version="1.1"
   inkscape:version="0.91 r13725"
   sodipodi:docname="feedback-arrow.svg">
  <defs
     id="defs4">
    <marker
       inkscape:stockid="TriangleOutL"
       orient="auto"
       refY="0"
       refX="0"
       id="marker4567"
       style="overflow:visible"
       inkscape:isstock="true">
      <path
         id="path4351"
         d="m 5.77,0 -8.65,5 0,-10 8.65,5 z"
         style="fill:#000000;fill-opacity:1;fill-rule:evenodd;stroke:#000000;stroke-width:1pt;stroke-opacity:1"
         transform="scale(0.8,0.8)"
         inkscape:connector-curvature="0" />
    </marker>
    <marker
       inkscape:stockid="Arrow2Lend"
       orient="auto"
       refY="0"
       refX="0"
       id="Arrow2Lend"
       style="overflow:visible"
       inkscape:isstock="true">
      <path
         id="path4230"
         style="fill:#000000;fill-opacity:1;fill-rule:evenodd;stroke:#000000;stroke-width:0.625;stroke-linejoin:round;stroke-opacity:1"
         d="M 8.7185878,4.0337352 -2.2072895,0.01601326 8.7185884,-4.0017078 c -1.7454984,2.3720609 -1.7354408,5.6174519 -6e-7,8.035443 z"
         transform="matrix(-1.1,0,0,-1.1,-1.1,0)"
         inkscape:connector-curvature="0" />
    </marker>
    <marker
       inkscape:isstock="true"
       style="overflow:visible"
       id="marker4506"
       refX="0"
       refY="0"
       orient="auto"
       inkscape:stockid="TriangleOutL">
      <path
         inkscape:connector-curvature="0"
         transform="scale(0.8,0.8)"
         style="fill:#61bfd9;fill-opacity:1;fill-rule:evenodd;stroke:#61bfd9;stroke-width:1pt;stroke-opacity:1"
         d="m 5.77,0 -8.65,5 0,-10 8.65,5 z"
         id="path4508" />
    </marker>
    <marker
       inkscape:isstock="true"
       style="overflow:visible"
       id="Arrow1Mstart"
       refX="0"
       refY="0"
       orient="auto"
       inkscape:stockid="Arrow1Mstart">
      <path
         inkscape:connector-curvature="0"
         transform="matrix(0.4,0,0,0.4,4,0)"
         style="fill:#000000;fill-opacity:1;fill-rule:evenodd;stroke:#000000;stroke-width:1pt;stroke-opacity:1"
         d="M 0,0 5,-5 -12.5,0 5,5 0,0 Z"
         id="path4148" />
    </marker>
    <marker
       inkscape:isstock="true"
       style="overflow:visible"
       id="TriangleOutL"
       refX="0"
       refY="0"
       orient="auto"
       inkscape:stockid="TriangleOutL">
      <path
         inkscape:connector-curvature="0"
         transform="scale(0.8,0.8)"
         style="fill:#000000;fill-opacity:1;fill-rule:evenodd;stroke:#000000;stroke-width:1pt;stroke-opacity:1"
         d="m 5.77,0 -8.65,5 0,-10 8.65,5 z"
         id="path4284" />
    </marker>
    <marker
       inkscape:isstock="true"
       style="overflow:visible"
       id="DiamondL"
       refX="0"
       refY="0"
       orient="auto"
       inkscape:stockid="DiamondL">
      <path
         inkscape:connector-curvature="0"
         transform="scale(0.8,0.8)"
         style="fill:#000000;fill-opacity:1;fill-rule:evenodd;stroke:#000000;stroke-width:1pt;stroke-opacity:1"
         d="M 0,-7.0710768 -7.0710894,0 0,7.0710589 7.0710462,0 0,-7.0710768 Z"
         id="path4221" />
    </marker>
  </defs>
  <sodipodi:namedview
     id="base"
     pagecolor="#ffffff"
     bordercolor="#666666"
     borderopacity="1.0"
     inkscape:pageopacity="0.0"
     inkscape:pageshadow="2"
     inkscape:zoom="7.919596"
     inkscape:cx="7.4553028"
     inkscape:cy="41.023552"
     inkscape:document-units="px"
     inkscape:current-layer="text4151"
     showgrid="false"
     inkscape:window-width="1920"
     inkscape:window-height="1021"
     inkscape:window-x="0"
     inkscape:window-y="0"
     inkscape:window-maximized="1"
     units="px"
     fit-margin-top="0"
     fit-margin-left="0"
     fit-margin-right="0"
     fit-margin-bottom="0" />
  <metadata
     id="metadata7">
    <rdf:RDF>
      <cc:Work
         rdf:about="">
        <dc:format>image/svg+xml</dc:format>
        <dc:type
           rdf:resource="http://purl.org/dc/dcmitype/StillImage" />
        <dc:title />
      </cc:Work>
    </rdf:RDF>
  </metadata>
  <g
     inkscape:label="Layer 1"
     inkscape:groupmode="layer"
     id="layer1"
     transform="translate(93.40294,-321.41274)">
    <text
       xml:space="preserve"
       style="font-style:normal;font-variant:normal;font-weight:normal;font-stretch:normal;font-size:40px;line-height:125%;font-family:'Ice Tea';-inkscape-font-specification:'Ice Tea, Normal';text-align:start;letter-spacing:0px;word-spacing:0px;writing-mode:lr-tb;text-anchor:start;fill:#000000;fill-opacity:1;stroke:none;stroke-width:1px;stroke-linecap:butt;stroke-linejoin:miter;stroke-opacity:1"
       x="117.14286"
       y="992.36218"
       id="text4147"
       sodipodi:linespacing="125%"><tspan
         sodipodi:role="line"
         id="tspan4149"
         x="117.14286"
         y="992.36218">yeah</tspan></text>
    <g
       style="font-style:normal;font-variant:normal;font-weight:normal;font-stretch:normal;font-size:12.72342968px;line-height:125%;font-family:Karton;-inkscape-font-specification:'Karton, Normal';text-align:start;letter-spacing:0px;word-spacing:0px;writing-mode:lr-tb;text-anchor:start;fill:#ffffff;fill-opacity:1;stroke:none;stroke-width:1px;stroke-linecap:butt;stroke-linejoin:miter;stroke-opacity:1"
       id="text4151">
      <path
         d="m -67.303031,326.86261 q 0.03817,0.47077 0.07634,1.09421 0.05089,0.62345 0.03817,1.31052 0,0.68706 -0.07634,1.38685 -0.07634,0.69979 -0.292639,1.31051 -0.203575,0.61073 -0.572555,1.09422 -0.368979,0.48349 -0.941533,0.72524 -0.470767,0.20357 -1.068768,0.29263 -0.585278,0.0891 -1.196003,0.0636 -0.610724,-0.0254 -1.196002,-0.1654 -0.572555,-0.13996 -1.017875,-0.39443 -0.547107,-0.30536 -0.827023,-0.85247 -0.279915,-0.55983 -0.394426,-1.20873 -0.114511,-0.64889 -0.127234,-1.29778 0,-0.66162 0,-1.17056 0.01272,-0.87792 0.06362,-1.73039 0.05089,-0.85247 0.08906,-1.73038 0.02545,-0.53439 0.07634,-1.08149 0.06362,-0.55984 0.203574,-1.09422 0.127235,-0.49621 0.394427,-0.83975 0.267192,-0.34353 0.598001,-0.55983 0.330809,-0.22902 0.674342,-0.34353 0.356256,-0.12723 0.661618,-0.17813 0.305362,-0.0636 0.521661,-0.0636 0.216298,-0.0127 0.267192,-0.0127 0.559831,0.0127 1.081491,0.13996 0.534384,0.11451 0.979704,0.36898 0.44532,0.24174 0.788853,0.62345 0.356256,0.36898 0.572554,0.89064 0.318086,0.80157 0.432597,1.69221 0.127234,0.89064 0.190851,1.73039 z m -1.85762,5.38201 q 0.356256,-0.598 0.508937,-1.29779 0.165404,-0.69979 0.203575,-1.42502 0.03817,-0.73796 -0.01272,-1.4632 -0.05089,-0.73796 -0.114511,-1.39958 -0.06362,-0.55983 -0.139957,-1.10693 -0.07634,-0.55983 -0.216299,-1.10694 -0.394426,-1.59043 -1.959408,-1.79401 -0.02545,0.0255 -0.216298,0.0255 -0.178128,-0.0127 -0.44532,0.0127 -0.254469,0.0254 -0.572554,0.13996 -0.305363,0.10179 -0.585278,0.34353 -0.267192,0.24175 -0.483491,0.67435 -0.203574,0.41987 -0.267192,1.09421 -0.101787,1.11966 -0.152681,2.2266 -0.03817,1.10694 -0.01272,2.2266 0.01272,0.58528 0.03817,1.196 0.03817,0.59801 0.216298,1.17056 0.165405,0.598 0.572555,0.82702 0.407149,0.2163 1.030598,0.26719 0.318085,0.0254 0.699788,0.0509 0.381703,0.0254 0.737959,-0.0127 0.356256,-0.0509 0.661618,-0.19086 0.318086,-0.13995 0.508938,-0.45804 z"
         style=""
         id="path4189" />
      <path
         d="m -59.392636,322.10405 q 0.07634,0.47076 -0.356256,0.67434 -0.216299,0.0891 -0.534384,0.0891 -0.07634,0 -0.165405,0 -0.07634,0 -0.152681,-0.0127 -0.114511,0 -0.178128,-0.0127 -0.343533,-0.0127 -0.687065,0.0509 -0.343533,0.0509 -0.687065,0.0254 0.06362,0.24174 0.08906,0.48349 0.03817,0.24174 0.06362,0.47076 0.101787,0.95426 0.08906,1.90852 0,0.95426 -0.02545,1.80673 -0.01272,0.25446 0,0.63617 0.02545,0.36898 0.05089,0.82702 0.03817,0.54711 0.08906,1.17056 0.06362,0.62344 0.08906,1.24689 0.02545,0.61073 0,1.18328 -0.01272,0.55983 -0.139958,0.99243 -0.06362,0.22902 -0.178128,0.36898 -0.114511,0.12723 -0.343533,0.12723 -0.178128,0 -0.356256,0 -0.178128,0 -0.279915,-0.13996 -0.02545,-0.0382 -0.06362,-0.30536 -0.02545,-0.26719 -0.05089,-0.67434 -0.02545,-0.40715 -0.05089,-0.89064 -0.02545,-0.49621 -0.05089,-0.9797 -0.01272,-0.49622 -0.02545,-0.92881 -0.01272,-0.44533 -0.01272,-0.75069 0,-0.39442 -0.03817,-0.69979 -0.03817,-0.31808 -0.02545,-0.53438 0.03817,-0.90336 0.05089,-1.71766 0.02545,-0.82703 -0.01272,-1.6286 l -0.01272,-0.0509 q -0.01272,-0.3308 -0.03817,-0.66161 -0.02545,-0.34354 -0.08906,-0.67435 l -0.01272,-0.11451 q -0.02545,-0.10178 -0.05089,-0.19085 -0.01272,-0.10179 -0.06362,-0.19085 -0.02545,-0.0509 -0.06362,-0.0891 l 0,-0.0127 q -0.06362,-0.0127 -0.101787,-0.0636 -0.165405,-0.0127 -0.356256,-0.0127 -0.190852,-0.0127 -0.40715,-0.0127 -0.470767,0 -0.827023,0.0509 -0.356256,0.0509 -0.648895,0.16541 -0.292639,0.10178 -0.534384,-0.0509 -0.229022,-0.15268 -0.292639,-0.48349 -0.03817,-0.22902 0.05089,-0.47076 0.101787,-0.24175 0.394426,-0.35626 0.674342,-0.24174 1.74311,-0.24174 0.267192,0 0.534384,-0.0127 0.267192,-0.0127 0.521661,0.0127 0.152681,0 0.305362,0.0127 0.152681,0 0.292639,0.0127 0.534384,0.0127 1.030598,-0.0127 0.496213,-0.0382 0.89064,-0.0127 l 0.152681,0 q 0.127234,0.0127 0.241745,0.0254 0.127234,0 0.254469,0 l 0.02545,0 q 0.06362,0 0.101787,0 0.05089,-0.0127 0.07634,-0.0127 l 0.03817,-0.0127 q 0.03817,0 0.08906,0.0509 0.254468,0.0255 0.419873,0.2163 0.178128,0.19085 0.229022,0.40715 z"
         style=""
         id="path4191" />
      <path
         d="m -53.510237,326.48091 q 0.139958,0.87791 0.152682,1.76855 0.02545,0.89064 -0.03817,1.78128 -0.02545,0.30537 -0.03817,0.6489 0,0.34353 -0.03817,0.68706 -0.02545,0.33081 -0.101788,0.66162 -0.06362,0.33081 -0.203575,0.61073 -0.305362,0.62344 -0.814299,0.99242 -0.496214,0.35626 -1.081492,0.47077 -0.585277,0.10179 -1.183279,-0.0254 -0.598001,-0.12723 -1.081491,-0.45804 -0.48349,-0.34353 -0.788853,-0.87792 -0.305362,-0.53438 -0.292639,-1.24689 0,-0.30536 0.203575,-0.45805 0.203575,-0.1654 0.432597,-0.1654 0.241745,-0.0127 0.432596,0.13996 0.190852,0.13996 0.190852,0.44532 0,0.33081 0.114511,0.61072 0.114511,0.27992 0.318085,0.47077 0.216299,0.19085 0.496214,0.29264 0.292639,0.10179 0.636172,0.0763 0.407149,-0.0382 0.674342,-0.17813 0.267192,-0.15268 0.432596,-0.39443 0.165405,-0.24174 0.241745,-0.5471 0.07634,-0.31809 0.114511,-0.68707 0.03817,-0.50894 0.08906,-1.04332 0.05089,-0.54711 0.06362,-1.09421 0.02545,-0.54711 0,-1.0815 -0.02545,-0.53438 -0.139957,-1.03059 -0.101788,-0.41988 -0.292639,-0.62345 -0.190852,-0.2163 -0.458044,-0.30536 -0.267192,-0.0891 -0.598001,-0.10179 -0.330809,-0.0255 -0.699789,-0.0636 -0.292638,-0.0255 -0.458043,-0.2163 -0.152681,-0.19085 -0.165405,-0.40715 0,-0.2163 0.139958,-0.40715 0.152681,-0.19085 0.458044,-0.22902 0.279915,-0.0255 0.648894,-0.13996 0.381703,-0.12723 0.636172,-0.33081 0.267192,-0.20357 0.279915,-0.48349 0.02545,-0.27991 -0.419873,-0.64889 -0.203575,-0.16541 -0.470767,-0.2163 -0.254468,-0.0509 -0.534384,-0.0509 -0.279915,0 -0.572554,0.0382 -0.279916,0.0254 -0.521661,0.0254 -0.305362,0.0127 -0.470767,-0.17812 -0.152681,-0.19085 -0.152681,-0.41988 0,-0.24174 0.139958,-0.44532 0.152681,-0.20357 0.458043,-0.21629 0.623449,-0.0127 1.196003,0 0.585278,0.0127 1.068768,0.19085 0.48349,0.1654 0.839746,0.5471 0.36898,0.36898 0.572555,1.06877 0.165404,0.57256 0.01272,1.00515 -0.152681,0.41988 -0.48349,0.71252 0.394426,0.20357 0.674342,0.55983 0.279915,0.35625 0.381702,0.96698 z"
         style=""
         id="path4193" />
      <path
         d="m -47.291661,330.53968 q 0.06362,0.41987 0.05089,0.87792 0,0.44532 -0.07634,0.86519 -0.07634,0.40715 -0.203575,0.76341 -0.127235,0.34353 -0.318086,0.55983 -0.152681,0.17813 -0.559831,0.27991 -0.394426,0.10179 -0.92881,0.16541 -0.521661,0.0509 -1.094215,0.0763 -0.572555,0.0127 -1.068768,0.0127 -0.496214,0 -0.839747,-0.0127 -0.343532,-0.0127 -0.394426,-0.0127 -0.101787,0 -0.165405,-0.0763 -0.06362,-0.0891 -0.11451,-0.20357 -0.03817,-0.11451 -0.05089,-0.24175 -0.01272,-0.12723 0.01272,-0.20357 0.06362,-0.36898 0.05089,-0.61073 -0.01272,-0.24174 0,-0.50893 0.01272,-0.0636 0.01272,-0.20358 0.01272,-0.15268 0.01272,-0.30536 0.01272,-0.1654 0.02545,-0.33081 0.02545,-0.22902 0.03817,-0.45804 0.01272,-0.22902 0.02545,-0.47077 0.02545,-0.80158 0.02545,-1.59043 0.01272,-0.78885 0,-1.5777 l 0,-0.13996 q 0,-0.61073 0,-1.25962 0.01272,-0.6489 0.05089,-1.31051 0,-0.10179 0,-0.19086 0.01272,-0.10178 0.02545,-0.20357 0.03817,-0.48349 0.03817,-0.99243 0,-0.50894 -0.190852,-0.91608 -0.07634,-0.13996 -0.06362,-0.29264 0.01272,-0.16541 0.114511,-0.30537 0.101787,-0.13995 0.267192,-0.21629 0.165404,-0.0891 0.330809,-0.0891 0.356256,0 0.521661,0.31809 0.267192,0.57255 0.292639,1.17055 0.03817,0.58528 0.02545,1.14511 -0.01272,0.24175 -0.02545,0.48349 0,0.22902 -0.01272,0.48349 -0.01272,0.45805 -0.02545,0.94154 -0.01272,0.47076 -0.01272,0.95425 l 0,0.55983 q 0.06362,-0.0127 0.127234,-0.0127 0.07634,-0.0127 0.152681,-0.0127 0.394427,0 0.827023,0.15268 0.44532,0.13996 0.865193,0.3817 0.419874,0.24175 0.8143,0.55983 0.394426,0.31809 0.699789,0.66162 0.305362,0.34353 0.496213,0.69979 0.203575,0.34353 0.241745,0.63617 z m -4.376859,2.69737 q 0.01272,0 0.216298,0.0127 0.203575,0 0.508937,0 0.305362,0 0.661619,0 0.368979,0 0.687065,-0.0127 0.318085,-0.0255 0.547107,-0.0636 0.241745,-0.0382 0.292639,-0.10179 0.127234,-0.15268 0.190852,-0.52166 0.06362,-0.36898 0.07634,-0.77613 0.02545,-0.41987 0.01272,-0.78885 -0.01272,-0.3817 -0.02545,-0.55983 -0.02545,-0.20357 -0.241745,-0.48349 -0.216299,-0.29264 -0.598002,-0.55983 -0.368979,-0.26719 -0.865193,-0.45804 -0.48349,-0.19086 -1.043321,-0.2163 -0.139958,0 -0.267192,0.0382 0,0.598 -0.01272,1.09421 0,0.49622 -0.02545,0.95426 -0.01272,0.13996 -0.01272,0.27991 0,0.12724 0,0.27992 0,0.15268 -0.01272,0.40715 -0.01272,0.25447 -0.02545,0.53438 -0.01272,0.2672 -0.03817,0.52166 -0.01272,0.25447 -0.02545,0.41988 z m 6.997886,0.10179 q 0.101787,0.29263 -0.03817,0.49621 -0.139958,0.19085 -0.36898,0.25447 -0.229021,0.0509 -0.470767,-0.0382 -0.241745,-0.0891 -0.343532,-0.38171 -0.254469,-0.67434 -0.36898,-1.39957 -0.101787,-0.72524 -0.139957,-1.4632 -0.03817,-0.75068 -0.03817,-1.48864 0.01272,-0.75068 0,-1.46319 -0.01272,-0.76341 -0.02545,-1.4632 0,-0.71251 -0.01272,-1.4123 0,-0.69979 0,-1.39958 0,-0.71251 0,-1.47591 0,-0.30537 0.190851,-0.45805 0.203575,-0.15268 0.44532,-0.15268 0.241746,0 0.432597,0.15268 0.203575,0.15268 0.203575,0.45805 0,0.7634 0,1.47591 0,0.69979 0,1.39958 0,0.69979 0,1.4123 0.01272,0.69979 0.03817,1.4632 0.01272,0.67434 0,1.37413 0,0.69979 0.02545,1.39957 0.03817,0.69979 0.139958,1.38686 0.101787,0.68706 0.330809,1.32324 z"
         style=""
         id="path4195" />
      <path
         d="m -38.343113,330.61602 q 0,0.34353 0.03817,0.82702 0.05089,0.47077 -0.01272,0.94154 -0.05089,0.47076 -0.279916,0.89064 -0.216298,0.40715 -0.750682,0.61072 -0.419873,0.16541 -0.877917,0.2163 -0.44532,0.0382 -0.916087,0.0382 -0.458043,-0.0127 -0.92881,-0.0254 -0.470767,-0.0254 -0.941534,0.0127 -0.152681,0.0127 -0.305362,-0.0127 -0.139958,-0.0254 -0.254469,-0.0891 -0.114511,-0.0763 -0.190851,-0.17813 -0.06362,-0.11451 -0.05089,-0.25447 0.165405,-1.43774 0.127234,-2.87549 -0.03817,-1.43775 -0.139957,-2.8755 -0.101788,-1.43774 -0.229022,-2.87549 -0.114511,-1.43775 -0.127234,-2.8755 -0.07634,-0.21629 0.07634,-0.43259 0.165405,-0.22902 0.572554,-0.24175 0.661619,-0.0127 1.310514,0.0382 0.661618,0.0509 1.208726,0.22902 0.547107,0.16541 0.92881,0.49622 0.394426,0.33081 0.508937,0.90336 0.03817,0.22902 0.07634,0.50894 0.05089,0.26719 0.05089,0.54711 0,0.27991 -0.07634,0.5471 -0.06362,0.2672 -0.241745,0.47077 -0.229022,0.25447 -0.496214,0.41987 0.44532,0.0636 0.801576,0.22902 0.368979,0.15269 0.559831,0.4835 0.292639,0.48349 0.40715,1.03059 0.127234,0.53439 0.152681,1.09422 0.03817,0.55983 0.01272,1.11966 -0.01272,0.55983 -0.01272,1.08149 z m -4.440477,-8.16844 q 0.02545,0.76341 0.06362,1.51409 0.03817,0.73796 0.101787,1.50136 0.292639,-0.11451 0.572555,-0.20357 0.292639,-0.10179 0.547107,-0.24175 0.292639,-0.15268 0.419873,-0.31808 0.139958,-0.17813 0.178128,-0.36898 0.03817,-0.19085 0.01272,-0.39443 -0.02545,-0.2163 -0.03817,-0.4326 -0.03817,-0.33081 -0.203575,-0.53438 -0.165405,-0.20357 -0.419874,-0.31809 -0.241745,-0.11451 -0.55983,-0.15268 -0.318086,-0.0509 -0.674342,-0.0509 z m 2.493792,10.61134 q 0.241745,-0.0636 0.381703,-0.25447 0.139958,-0.19085 0.190851,-0.44532 0.06362,-0.26719 0.06362,-0.57255 0,-0.30537 -0.02545,-0.598 -0.01272,-0.29264 -0.05089,-0.54711 -0.02545,-0.25447 -0.02545,-0.40715 0.01272,-0.45805 0,-0.91609 0,-0.47077 -0.03817,-0.94153 -0.01272,-0.16541 -0.01272,-0.38171 0,-0.21629 -0.02545,-0.41987 -0.02545,-0.2163 -0.08906,-0.40715 -0.06362,-0.20357 -0.190851,-0.35625 -0.139958,-0.15269 -0.44532,-0.2163 -0.305362,-0.0763 -0.661618,-0.0891 -0.356256,-0.0254 -0.712512,-0.0127 -0.356256,0 -0.598002,-0.0254 0.139958,1.66677 0.216299,3.30809 0.08906,1.6286 -0.05089,3.29537 0.534384,0.0382 1.081491,0.0763 0.547108,0.0254 0.992428,-0.0891 z"
         style=""
         id="path4197" />
      <path
         d="m -68.333628,349.12861 q 0.152681,0.25447 0.05089,0.48349 -0.101787,0.22902 -0.318085,0.34353 -0.203575,0.11452 -0.44532,0.0763 -0.241746,-0.0382 -0.394427,-0.29264 -0.254468,-0.44532 -0.432596,-0.91609 -0.165405,-0.47077 -0.33081,-0.94153 -0.165404,-0.48349 -0.343532,-0.95426 -0.178128,-0.48349 -0.419873,-0.92881 -0.36898,-0.66162 -0.750683,-1.31052 -0.368979,-0.66161 -0.661618,-1.3614 -0.152681,0.17813 -0.305362,0.36898 -0.152682,0.17813 -0.305363,0.35625 -0.03817,0.0509 -0.114511,0.10179 0.05089,0.63617 0.02545,1.28507 -0.02545,0.64889 -0.05089,1.29779 -0.01272,0.64889 0.02545,1.28506 0.03817,0.63617 0.203575,1.2469 0.07634,0.29264 -0.07634,0.48349 -0.152681,0.19085 -0.381703,0.25447 -0.229022,0.0509 -0.470767,-0.0382 -0.229022,-0.0891 -0.305362,-0.36898 -0.190852,-0.69979 -0.241746,-1.43775 -0.03817,-0.73796 -0.02545,-1.47592 0.01272,-0.75068 0.02545,-1.48864 0.02545,-0.73796 -0.05089,-1.46319 -0.07634,-0.73796 -0.165405,-1.47592 -0.07634,-0.75068 -0.127234,-1.48864 -0.03817,-0.75068 -0.01272,-1.48864 0.02545,-0.73796 0.165405,-1.48864 0.05089,-0.27992 0.267192,-0.36898 0.229022,-0.10179 0.458044,-0.0382 0.241745,0.0509 0.407149,0.25446 0.165405,0.19086 0.114511,0.48349 -0.203575,1.0815 -0.152681,2.16299 0.06362,1.08149 0.190851,2.16298 0.979705,-1.196 1.895791,-2.41745 0.928811,-1.23417 1.883068,-2.45562 0.178128,-0.22902 0.44532,-0.24175 0.267192,-0.0254 0.470767,0.0891 0.216298,0.11451 0.292639,0.33081 0.08906,0.20357 -0.101788,0.44532 -0.776129,0.9797 -1.526811,1.97213 -0.750682,0.9797 -1.514088,1.97213 0.127234,0.48349 0.330809,0.92881 0.203575,0.44532 0.432597,0.87792 0.241745,0.43259 0.48349,0.86519 0.254468,0.4326 0.48349,0.86519 0.216298,0.41988 0.36898,0.8652 0.165404,0.43259 0.305362,0.87791 0.152681,0.4326 0.305362,0.8652 0.165405,0.43259 0.394427,0.83974 z"
         style=""
         id="path4199" />
      <path
         d="m -61.269938,349.29402 q 0.101788,0.27991 -0.05089,0.47076 -0.139957,0.19085 -0.368979,0.25447 -0.229022,0.0636 -0.470767,-0.0254 -0.241745,-0.0891 -0.343533,-0.36897 -0.254468,-0.72524 -0.432596,-1.50137 -0.178128,-0.77613 -0.343533,-1.56498 -0.152681,-0.78885 -0.318086,-1.56498 -0.165404,-0.77613 -0.381702,-1.51409 -0.216299,-0.68707 -0.432597,-1.36141 -0.216298,-0.67434 -0.432597,-1.36141 -0.407149,2.11209 -0.839746,4.30052 -0.419873,2.18843 -0.598001,4.33869 -0.02545,0.29264 -0.241745,0.44532 -0.203575,0.13996 -0.44532,0.13996 -0.241746,0 -0.432597,-0.13996 -0.190851,-0.15268 -0.165405,-0.44532 0.114511,-1.42502 0.356256,-2.86277 0.241746,-1.43775 0.521661,-2.87549 0.279915,-1.45047 0.559831,-2.88822 0.292639,-1.43775 0.48349,-2.85005 0.03817,-0.22902 0.203575,-0.3817 0.178128,-0.16541 0.381703,-0.20358 0.216298,-0.0382 0.40715,0.0636 0.190851,0.10179 0.267192,0.36898 0.368979,1.46319 0.85247,2.87549 0.48349,1.4123 0.89064,2.8755 0.190851,0.68706 0.343532,1.42502 0.152681,0.73796 0.305363,1.47592 0.152681,0.73796 0.318085,1.4632 0.178128,0.72523 0.40715,1.4123 z"
         style=""
         id="path4201" />
      <path
         d="m -53.803472,349.58666 q 0.01272,0.19085 -0.114511,0.31808 -0.165405,0.13996 -0.458043,0.13996 -0.241746,0 -0.458044,-0.12724 -0.06362,-0.0382 -0.139958,-0.11451 -0.06362,-0.0763 -0.08906,-0.21629 -0.02545,-0.17813 -0.05089,-0.34354 -0.02545,-0.17813 -0.05089,-0.35625 l -0.01272,-0.0763 q -0.07634,-0.55984 -0.152681,-1.11967 -0.07634,-0.55983 -0.101787,-1.13238 -0.01272,-0.33081 -0.02545,-0.6489 0,-0.31808 -0.01272,-0.63617 0,-0.40715 -0.01272,-0.82702 -0.01272,-0.41987 -0.03817,-0.83975 -0.02545,-0.43259 -0.07634,-0.85247 -0.05089,-0.43259 -0.08906,-0.83974 l -0.01272,-0.0127 q -0.02545,-0.30536 -0.06362,-0.64889 -0.03817,-0.34353 -0.07634,-0.68707 l -0.07634,-0.87791 -0.114511,0.86519 q -0.06362,0.44532 -0.152681,0.89064 -0.07634,0.4326 -0.165405,0.86519 -0.05089,0.22902 -0.101787,0.48349 -0.03817,0.24175 -0.08906,0.49622 l -0.01272,0.0509 q -0.305362,1.59043 -0.661618,3.19358 -0.343533,1.59043 -0.992428,3.12997 -0.06362,0.15268 -0.267192,0.25446 -0.190851,0.10179 -0.40715,0.10179 -0.343532,0 -0.48349,-0.24174 -0.241745,-0.4326 -0.381703,-0.87792 -0.139957,-0.45804 -0.203575,-0.92881 -0.06362,-0.47077 -0.08906,-0.94153 -0.02545,-0.47077 -0.03817,-0.94154 l 0,-0.0127 q 0,-0.57256 -0.03817,-1.10694 -0.03817,-0.55983 -0.03817,-1.13239 0.01272,-0.57255 0.02545,-1.18327 0.01272,-0.61073 0.01272,-1.22145 0,-0.62345 -0.03817,-1.22145 -0.03817,-0.598 -0.127234,-1.18328 -0.08906,-0.58528 -0.279915,-1.11966 -0.08906,-0.22903 0.08906,-0.38171 0.08906,-0.10178 0.229021,-0.15268 0.152682,-0.0509 0.318086,-0.0509 0.216299,0 0.36898,0.0891 0.152681,0.0891 0.203575,0.25447 0.190851,0.54711 0.292638,1.13239 0.101788,0.58527 0.139958,1.196 0.03817,0.61072 0.03817,1.23417 0,0.62345 -0.01272,1.2469 l 0,0.0127 q -0.01272,0.47077 -0.02545,0.91609 0,0.44532 0.02545,0.87791 0.02545,0.66162 0.05089,1.31052 0.02545,0.64889 0.06362,1.31051 l 0,0.0127 0.06362,0.49622 0.127234,-0.48349 q 0.254469,-0.94154 0.432597,-1.88307 0.190851,-0.95426 0.368979,-1.88307 l 0,-0.0127 0.114511,-0.55983 q 0.114511,-0.6489 0.241745,-1.39958 0.139958,-0.75068 0.254469,-1.53953 0.03817,-0.25447 0.07634,-0.53439 0.05089,-0.27991 0.139957,-0.54711 0.101788,-0.27991 0.267192,-0.5471 0.165405,-0.26719 0.419874,-0.49622 0.165404,-0.15268 0.407149,-0.15268 0.203575,0 0.381703,0.10179 0.190852,0.10179 0.267192,0.25447 0.330809,0.61072 0.44532,1.27234 0.114511,0.6489 0.165405,1.29779 0.03817,0.35626 0.07634,0.71251 0.03817,0.34354 0.07634,0.67435 0.05089,0.40714 0.08906,0.82702 0.05089,0.41987 0.07634,0.83974 0.02545,0.40715 0.03817,0.82703 0.01272,0.40715 0.02545,0.8143 0,0.3817 0.01272,0.77613 0.01272,0.39442 0.03817,0.78885 0.03817,0.598 0.114511,1.18328 0.07634,0.58528 0.152681,1.17055 0.02545,0.16541 0.05089,0.33081 0.02545,0.16541 0.05089,0.34354 z"
         style=""
         id="path4204" />
      <path
         d="m -47.562032,348.81053 q 0.139958,0.39442 -0.203575,0.67434 -0.229022,0.19085 -0.534384,0.30536 -0.305362,0.10179 -0.648895,0.15268 -0.343533,0.0509 -0.699789,0.0636 -0.356256,0 -0.661618,0 -0.101787,0.0127 -0.203575,0.0127 -0.08906,0 -0.190851,0 -0.06362,0 -0.139958,0 -0.06362,0 -0.139958,0.0127 -0.127234,0 -0.267192,0.0127 -0.139957,0 -0.292639,0 -0.241745,0 -0.52166,-0.0254 -0.267192,-0.0254 -0.521661,-0.11451 -0.241745,-0.0891 -0.44532,-0.26719 -0.190851,-0.17813 -0.267192,-0.47077 -0.178128,-0.63617 -0.152681,-1.29779 0.02545,-0.67434 0.08906,-1.33596 0.02545,-0.31808 0.05089,-0.61072 0.02545,-0.30537 0.02545,-0.598 0.01272,-0.34354 0.01272,-0.68707 0,-0.34353 0.01272,-0.68706 0.02545,-1.32324 0.02545,-2.6592 0,-1.34868 -0.101787,-2.69737 0,-0.0382 -0.02545,-0.13996 -0.01272,-0.10178 -0.02545,-0.24174 0,-0.15268 0.01272,-0.30536 0.02545,-0.15268 0.101787,-0.29264 0.08906,-0.15268 0.330809,-0.20358 0.254469,-0.0636 0.534384,-0.0636 0.292639,-0.0127 0.559831,0.0127 0.279916,0.0127 0.432597,0.0127 0.152681,0 0.547107,-0.0127 0.394427,-0.0127 0.827023,-0.0127 0.44532,-0.0127 0.85247,-0.0127 0.419873,-0.0127 0.610725,0 0.343532,0.0255 0.508937,0.25447 0.178128,0.22902 0.165404,0.49621 -0.01272,0.24175 -0.178128,0.45805 -0.165404,0.20357 -0.508937,0.17813 -0.40715,-0.0254 -0.827023,0.0127 -0.419873,0.0255 -0.827023,0.0509 -0.318086,0.0254 -0.648895,0.0509 -0.318085,0.0254 -0.648895,0.0254 -0.101787,0 -0.203574,0 -0.08906,-0.0127 -0.190852,-0.0127 0.08906,1.13239 0.08906,2.18843 0,1.05604 -0.02545,1.92124 0.318086,-0.0636 0.661619,-0.0763 0.356256,-0.0255 0.776129,-0.0255 0.241745,0 0.470767,0.0127 0.241745,0 0.48349,0 0.203575,0.0127 0.394426,0.0255 0.190852,0 0.394427,0 0.330809,0 0.496213,0.22902 0.178128,0.2163 0.178128,0.48349 0,0.25447 -0.165404,0.47077 -0.165405,0.2163 -0.496214,0.2163 -0.216298,0 -0.432597,0 -0.203574,-0.0127 -0.419873,-0.0254 -0.229021,-0.0127 -0.470767,-0.0127 -0.241745,-0.0127 -0.470766,-0.0127 -0.432597,0 -0.788853,0.0382 -0.343533,0.0254 -0.648895,0.10179 l -0.02545,0.72524 q -0.02545,0.68706 -0.05089,1.38685 -0.02545,0.68707 -0.03817,1.37413 0,0.0382 -0.01272,0.0763 0,0.0382 0,0.0763 0,0.13996 0,0.29264 0,0.13996 0.02545,0.27992 0.279915,0.0382 0.674341,0.0382 0.114511,0 0.216299,0 0.11451,0 0.229021,-0.0127 0.483491,-0.0127 0.85247,-0.0254 0.36898,-0.0254 0.699789,-0.0636 0.139957,-0.0255 0.254468,-0.0382 0.127235,-0.0127 0.254469,-0.0382 0.07634,-0.0127 0.139958,-0.0509 0.07634,-0.0382 0.114511,-0.0382 l 0.03817,0 q 0.114511,-0.0509 0.267192,-0.0509 0.229022,0 0.419873,0.13996 0.203575,0.13996 0.292639,0.35626 z"
         style=""
         id="path4206" />
      <path
         d="m -39.613268,337.95744 q 0.101787,1.59043 0.127234,2.97728 0.02545,1.38686 0.01272,2.73554 -0.01272,1.33596 -0.05089,2.73554 -0.02545,1.38685 -0.02545,2.97728 0,0.31809 -0.203575,0.48349 -0.203575,0.15268 -0.44532,0.15268 -0.241745,0 -0.44532,-0.15268 -0.203575,-0.1654 -0.203575,-0.48349 0,-0.69979 0,-1.15783 0.01272,-0.45805 0.01272,-0.8652 0.01272,-0.41987 0.02545,-0.87791 0.01272,-0.45805 0.02545,-1.14511 -1.081492,0 -2.137536,0.0509 -1.056045,0.0509 -2.11209,0.19085 0.01272,0.59801 0.03817,1.05605 0.02545,0.44532 0.05089,0.87792 0.03817,0.41987 0.07634,0.87791 0.03817,0.44532 0.101788,1.0306 0.02545,0.31809 -0.165405,0.47077 -0.190852,0.15268 -0.44532,0.15268 -0.241745,0 -0.458044,-0.15268 -0.216298,-0.16541 -0.241745,-0.47077 -0.139957,-1.53953 -0.216298,-2.93911 -0.06362,-1.4123 -0.101787,-2.78643 -0.02545,-1.37413 -0.02545,-2.77371 0,-1.4123 0,-2.96456 0,-0.31809 0.203575,-0.47077 0.203574,-0.15268 0.44532,-0.15268 0.241745,0 0.44532,0.15268 0.203574,0.15268 0.203574,0.47077 0,1.59043 0,3.16813 0.01272,1.56499 0.05089,3.15541 1.081492,-0.13995 2.137536,-0.19085 1.068768,-0.0509 2.15026,-0.0636 0.01272,-1.4632 -0.01272,-3.02818 -0.02545,-1.57771 -0.127235,-3.0409 -0.02545,-0.31809 0.165405,-0.47077 0.203575,-0.15268 0.44532,-0.15268 0.241745,0 0.458043,0.15268 0.216299,0.15268 0.241746,0.47077 z"
         style=""
         id="path4208" />
      <path
         d="m -31.261929,338.00833 q 0.07634,0.47077 -0.356256,0.67435 -0.216299,0.0891 -0.534384,0.0891 -0.07634,0 -0.165405,0 -0.07634,0 -0.152681,-0.0127 -0.114511,0 -0.178128,-0.0127 -0.343533,-0.0127 -0.687065,0.0509 -0.343533,0.0509 -0.687066,0.0254 0.06362,0.24175 0.08906,0.48349 0.03817,0.24175 0.06362,0.47077 0.101787,0.95426 0.08906,1.90852 0,0.95425 -0.02545,1.80672 -0.01272,0.25447 0,0.63617 0.02545,0.36898 0.05089,0.82703 0.03817,0.5471 0.08906,1.17055 0.06362,0.62345 0.08906,1.2469 0.02545,0.61072 0,1.18328 -0.01272,0.55983 -0.139957,0.99242 -0.06362,0.22903 -0.178128,0.36898 -0.114511,0.12724 -0.343533,0.12724 -0.178128,0 -0.356256,0 -0.178128,0 -0.279915,-0.13996 -0.02545,-0.0382 -0.06362,-0.30536 -0.02545,-0.26719 -0.05089,-0.67434 -0.02545,-0.40715 -0.05089,-0.89064 -0.02545,-0.49622 -0.05089,-0.97971 -0.01272,-0.49621 -0.02545,-0.92881 -0.01272,-0.44532 -0.01272,-0.75068 0,-0.39443 -0.03817,-0.69979 -0.03817,-0.31808 -0.02545,-0.53438 0.03817,-0.90337 0.05089,-1.71767 0.02545,-0.82702 -0.01272,-1.62859 l -0.01272,-0.0509 q -0.01272,-0.33081 -0.03817,-0.66162 -0.02545,-0.34353 -0.08906,-0.67434 l -0.01272,-0.11451 q -0.02545,-0.10179 -0.05089,-0.19085 -0.01272,-0.10179 -0.06362,-0.19085 -0.02545,-0.0509 -0.06362,-0.0891 l 0,-0.0127 q -0.06362,-0.0127 -0.101788,-0.0636 -0.165404,-0.0127 -0.356256,-0.0127 -0.190851,-0.0127 -0.407149,-0.0127 -0.470767,0 -0.827023,0.0509 -0.356256,0.0509 -0.648895,0.1654 -0.292639,0.10179 -0.534384,-0.0509 -0.229022,-0.15268 -0.292639,-0.48349 -0.03817,-0.22902 0.05089,-0.47077 0.101787,-0.24174 0.394426,-0.35625 0.674342,-0.24175 1.74311,-0.24175 0.267192,0 0.534384,-0.0127 0.267192,-0.0127 0.521661,0.0127 0.152681,0 0.305362,0.0127 0.152681,0 0.292639,0.0127 0.534384,0.0127 1.030598,-0.0127 0.496213,-0.0382 0.89064,-0.0127 l 0.152681,0 q 0.127234,0.0127 0.241745,0.0255 0.127234,0 0.254469,0 l 0.02545,0 q 0.06362,0 0.101788,0 0.05089,-0.0127 0.07634,-0.0127 l 0.03817,-0.0127 q 0.03817,0 0.08906,0.0509 0.254468,0.0254 0.419873,0.21629 0.178128,0.19086 0.229022,0.40715 z"
         style=""
         id="path4210" />
      <path
         d="m -24.11991,349.30674 q 0.08906,0.27992 -0.08906,0.47077 -0.165405,0.17812 -0.419873,0.24174 -0.254469,0.0636 -0.521661,-0.0254 -0.254469,-0.0891 -0.343533,-0.36897 -0.114511,-0.35626 -0.216298,-0.6489 -0.101787,-0.30536 -0.203575,-0.58528 -0.08906,-0.29264 -0.178128,-0.598 -0.08906,-0.30536 -0.165404,-0.66162 -0.661619,0.0636 -1.323237,0.10179 -0.661618,0.0254 -1.323237,0.12723 l -0.05089,0 q -0.07634,0.27992 -0.178128,0.50894 -0.08906,0.2163 -0.165404,0.4326 -0.07634,0.20357 -0.127234,0.4326 -0.03817,0.21629 -0.03817,0.49621 0,0.29264 -0.216298,0.49621 -0.216298,0.19085 -0.48349,0.25447 -0.267192,0.0636 -0.496214,-0.0255 -0.229022,-0.0891 -0.229022,-0.3817 0,-0.35625 0.06362,-0.69979 0.07634,-0.35625 0.178128,-0.69979 0.101788,-0.34353 0.203575,-0.67434 0.114511,-0.34353 0.190852,-0.69979 0.165404,-0.80157 0.330809,-1.59042 0.178128,-0.80158 0.368979,-1.60316 0.178128,-0.7634 0.394427,-1.45047 0.216298,-0.69979 0.394426,-1.37413 0.190851,-0.68706 0.318086,-1.38685 0.127234,-0.69979 0.139957,-1.48864 0,-0.24175 0.190852,-0.39443 0.203575,-0.15268 0.44532,-0.17813 0.241745,-0.0382 0.470767,0.0636 0.229021,0.10179 0.292639,0.35626 0.419873,1.53953 0.725235,2.96455 0.305362,1.42503 0.598001,2.82461 0.292639,1.39957 0.623448,2.8246 0.343533,1.4123 0.839747,2.93911 z m -4.554988,-3.16813 q 0.534384,-0.0636 1.068768,-0.10179 0.547107,-0.0382 1.094215,-0.0763 -0.254469,-1.22145 -0.48349,-2.43018 -0.216299,-1.20872 -0.458044,-2.4429 -0.165404,0.63618 -0.330809,1.27235 -0.165405,0.62345 -0.318086,1.25962 -0.305362,1.24689 -0.572554,2.51924 z"
         style=""
         id="path4212" />
    </g>
    <path
       style="color:#000000;font-style:normal;font-variant:normal;font-weight:normal;font-stretch:normal;font-size:medium;line-height:normal;font-family:sans-serif;text-indent:0;text-align:start;text-decoration:none;text-decoration-line:none;text-decoration-style:solid;text-decoration-color:#000000;letter-spacing:normal;word-spacing:normal;text-transform:none;direction:ltr;block-progression:tb;writing-mode:lr-tb;baseline-shift:baseline;text-anchor:start;white-space:normal;clip-rule:nonzero;display:inline;overflow:visible;visibility:visible;opacity:1;isolation:auto;mix-blend-mode:normal;color-interpolation:sRGB;color-interpolation-filters:linearRGB;solid-color:#000000;solid-opacity:1;fill:#61bfd9;fill-opacity:1;fill-rule:evenodd;stroke:none;stroke-width:1.5;stroke-linecap:round;stroke-linejoin:round;stroke-miterlimit:4;stroke-dasharray:none;stroke-dashoffset:0;stroke-opacity:1;color-rendering:auto;image-rendering:auto;shape-rendering:auto;text-rendering:auto;enable-background:accumulate"
       d="m -65.754488,395.10182 a 0.65606993,0.71340539 64.18959 0 0 0.284828,-0.24419 l 0.006,0.008 3.224436,-4.47393 a 0.65606993,0.71340539 64.18959 0 0 -0.163438,-0.92018 l -4.770562,-2.956 a 0.65606993,0.71340539 64.18959 1 0 -0.820015,1.13243 l 4.200233,2.60217 -2.703869,3.75335 0.176495,-0.0876 a 0.65606993,0.71340539 64.18959 1 0 0.565186,1.18392 z"
       id="path4911"
       inkscape:connector-curvature="0" />
    <path
       style="fill:none;fill-rule:evenodd;stroke:#61bfd9;stroke-width:1.39999998;stroke-linecap:round;stroke-linejoin:bevel;stroke-miterlimit:4;stroke-dasharray:4.2, 4.2;stroke-dashoffset:0;stroke-opacity:1"
       d="m -81.822356,351.82141 c 0,0 -18.331674,13.65231 -7.449875,29.7995 7.828682,11.61676 24.875007,8.83884 24.875007,8.83884"
       id="path4203"
       inkscape:connector-curvature="0"
       sodipodi:nodetypes="csc" />
  </g>
</svg>
